%TF.GenerationSoftware,KiCad,Pcbnew,7.0.1*%
%TF.CreationDate,2023-04-19T22:54:30+02:00*%
%TF.ProjectId,ED060SC4_SPI_driver_board,45443036-3053-4433-945f-5350495f6472,rev?*%
%TF.SameCoordinates,Original*%
%TF.FileFunction,Legend,Bot*%
%TF.FilePolarity,Positive*%
%FSLAX46Y46*%
G04 Gerber Fmt 4.6, Leading zero omitted, Abs format (unit mm)*
G04 Created by KiCad (PCBNEW 7.0.1) date 2023-04-19 22:54:30*
%MOMM*%
%LPD*%
G01*
G04 APERTURE LIST*
%ADD10C,0.150000*%
%ADD11C,0.120000*%
G04 APERTURE END LIST*
D10*
%TO.C,C40*%
X98892857Y-99117380D02*
X98940476Y-99165000D01*
X98940476Y-99165000D02*
X99083333Y-99212619D01*
X99083333Y-99212619D02*
X99178571Y-99212619D01*
X99178571Y-99212619D02*
X99321428Y-99165000D01*
X99321428Y-99165000D02*
X99416666Y-99069761D01*
X99416666Y-99069761D02*
X99464285Y-98974523D01*
X99464285Y-98974523D02*
X99511904Y-98784047D01*
X99511904Y-98784047D02*
X99511904Y-98641190D01*
X99511904Y-98641190D02*
X99464285Y-98450714D01*
X99464285Y-98450714D02*
X99416666Y-98355476D01*
X99416666Y-98355476D02*
X99321428Y-98260238D01*
X99321428Y-98260238D02*
X99178571Y-98212619D01*
X99178571Y-98212619D02*
X99083333Y-98212619D01*
X99083333Y-98212619D02*
X98940476Y-98260238D01*
X98940476Y-98260238D02*
X98892857Y-98307857D01*
X98035714Y-98545952D02*
X98035714Y-99212619D01*
X98273809Y-98165000D02*
X98511904Y-98879285D01*
X98511904Y-98879285D02*
X97892857Y-98879285D01*
X97321428Y-98212619D02*
X97226190Y-98212619D01*
X97226190Y-98212619D02*
X97130952Y-98260238D01*
X97130952Y-98260238D02*
X97083333Y-98307857D01*
X97083333Y-98307857D02*
X97035714Y-98403095D01*
X97035714Y-98403095D02*
X96988095Y-98593571D01*
X96988095Y-98593571D02*
X96988095Y-98831666D01*
X96988095Y-98831666D02*
X97035714Y-99022142D01*
X97035714Y-99022142D02*
X97083333Y-99117380D01*
X97083333Y-99117380D02*
X97130952Y-99165000D01*
X97130952Y-99165000D02*
X97226190Y-99212619D01*
X97226190Y-99212619D02*
X97321428Y-99212619D01*
X97321428Y-99212619D02*
X97416666Y-99165000D01*
X97416666Y-99165000D02*
X97464285Y-99117380D01*
X97464285Y-99117380D02*
X97511904Y-99022142D01*
X97511904Y-99022142D02*
X97559523Y-98831666D01*
X97559523Y-98831666D02*
X97559523Y-98593571D01*
X97559523Y-98593571D02*
X97511904Y-98403095D01*
X97511904Y-98403095D02*
X97464285Y-98307857D01*
X97464285Y-98307857D02*
X97416666Y-98260238D01*
X97416666Y-98260238D02*
X97321428Y-98212619D01*
%TO.C,C42*%
X94642857Y-97617380D02*
X94690476Y-97665000D01*
X94690476Y-97665000D02*
X94833333Y-97712619D01*
X94833333Y-97712619D02*
X94928571Y-97712619D01*
X94928571Y-97712619D02*
X95071428Y-97665000D01*
X95071428Y-97665000D02*
X95166666Y-97569761D01*
X95166666Y-97569761D02*
X95214285Y-97474523D01*
X95214285Y-97474523D02*
X95261904Y-97284047D01*
X95261904Y-97284047D02*
X95261904Y-97141190D01*
X95261904Y-97141190D02*
X95214285Y-96950714D01*
X95214285Y-96950714D02*
X95166666Y-96855476D01*
X95166666Y-96855476D02*
X95071428Y-96760238D01*
X95071428Y-96760238D02*
X94928571Y-96712619D01*
X94928571Y-96712619D02*
X94833333Y-96712619D01*
X94833333Y-96712619D02*
X94690476Y-96760238D01*
X94690476Y-96760238D02*
X94642857Y-96807857D01*
X93785714Y-97045952D02*
X93785714Y-97712619D01*
X94023809Y-96665000D02*
X94261904Y-97379285D01*
X94261904Y-97379285D02*
X93642857Y-97379285D01*
X93309523Y-96807857D02*
X93261904Y-96760238D01*
X93261904Y-96760238D02*
X93166666Y-96712619D01*
X93166666Y-96712619D02*
X92928571Y-96712619D01*
X92928571Y-96712619D02*
X92833333Y-96760238D01*
X92833333Y-96760238D02*
X92785714Y-96807857D01*
X92785714Y-96807857D02*
X92738095Y-96903095D01*
X92738095Y-96903095D02*
X92738095Y-96998333D01*
X92738095Y-96998333D02*
X92785714Y-97141190D01*
X92785714Y-97141190D02*
X93357142Y-97712619D01*
X93357142Y-97712619D02*
X92738095Y-97712619D01*
D11*
%TO.C,C40*%
X97859420Y-97760000D02*
X98140580Y-97760000D01*
X97859420Y-96740000D02*
X98140580Y-96740000D01*
%TO.C,C42*%
X94140580Y-95490000D02*
X93859420Y-95490000D01*
X94140580Y-96510000D02*
X93859420Y-96510000D01*
%TD*%
M02*
