G04 #@! TF.GenerationSoftware,KiCad,Pcbnew,7.0.1*
G04 #@! TF.CreationDate,2023-04-23T20:10:43+02:00*
G04 #@! TF.ProjectId,ED060SC4_SPI_driver_board,45443036-3053-4433-945f-5350495f6472,rev?*
G04 #@! TF.SameCoordinates,Original*
G04 #@! TF.FileFunction,Legend,Bot*
G04 #@! TF.FilePolarity,Positive*
%FSLAX46Y46*%
G04 Gerber Fmt 4.6, Leading zero omitted, Abs format (unit mm)*
G04 Created by KiCad (PCBNEW 7.0.1) date 2023-04-23 20:10:43*
%MOMM*%
%LPD*%
G01*
G04 APERTURE LIST*
%ADD10C,0.508000*%
%ADD11R,1.700000X1.700000*%
%ADD12O,1.700000X1.700000*%
%ADD13R,1.308000X1.308000*%
%ADD14C,1.308000*%
%ADD15O,2.460000X1.230000*%
G04 APERTURE END LIST*
%LPC*%
D10*
X97845000Y-67530000D03*
X97845000Y-68800000D03*
X97845000Y-70070000D03*
X97845000Y-71340000D03*
X99115000Y-67530000D03*
X99115000Y-68800000D03*
X99115000Y-70070000D03*
X99115000Y-71340000D03*
X100385000Y-67530000D03*
X100385000Y-68800000D03*
X100385000Y-70070000D03*
X100385000Y-71340000D03*
X101655000Y-67530000D03*
X101655000Y-68800000D03*
X101655000Y-70070000D03*
X101655000Y-71340000D03*
D11*
X114000000Y-84210000D03*
D12*
X114000000Y-86750000D03*
D11*
X113910000Y-91500000D03*
D12*
X111370000Y-91500000D03*
X108830000Y-91500000D03*
X106290000Y-91500000D03*
X103750000Y-91500000D03*
X101210000Y-91500000D03*
D11*
X84420000Y-51225000D03*
D12*
X86960000Y-51225000D03*
X89500000Y-51225000D03*
X92040000Y-51225000D03*
D13*
X52312500Y-56500000D03*
D14*
X52312500Y-58500000D03*
X52312500Y-60500000D03*
D15*
X52312500Y-54300000D03*
X52312500Y-62700000D03*
D11*
X65043200Y-91500000D03*
D12*
X62503200Y-91500000D03*
X59963200Y-91500000D03*
X57423200Y-91500000D03*
X54883200Y-91500000D03*
X52343200Y-91500000D03*
D11*
X66700000Y-51225000D03*
D12*
X69240000Y-51225000D03*
X71780000Y-51225000D03*
X74320000Y-51225000D03*
M02*
