G04 #@! TF.GenerationSoftware,KiCad,Pcbnew,7.0.1*
G04 #@! TF.CreationDate,2023-04-23T22:32:45+02:00*
G04 #@! TF.ProjectId,ED060SC4_SPI_driver_board,45443036-3053-4433-945f-5350495f6472,rev?*
G04 #@! TF.SameCoordinates,Original*
G04 #@! TF.FileFunction,Copper,L1,Top*
G04 #@! TF.FilePolarity,Positive*
%FSLAX46Y46*%
G04 Gerber Fmt 4.6, Leading zero omitted, Abs format (unit mm)*
G04 Created by KiCad (PCBNEW 7.0.1) date 2023-04-23 22:32:45*
%MOMM*%
%LPD*%
G01*
G04 APERTURE LIST*
G04 Aperture macros list*
%AMRoundRect*
0 Rectangle with rounded corners*
0 $1 Rounding radius*
0 $2 $3 $4 $5 $6 $7 $8 $9 X,Y pos of 4 corners*
0 Add a 4 corners polygon primitive as box body*
4,1,4,$2,$3,$4,$5,$6,$7,$8,$9,$2,$3,0*
0 Add four circle primitives for the rounded corners*
1,1,$1+$1,$2,$3*
1,1,$1+$1,$4,$5*
1,1,$1+$1,$6,$7*
1,1,$1+$1,$8,$9*
0 Add four rect primitives between the rounded corners*
20,1,$1+$1,$2,$3,$4,$5,0*
20,1,$1+$1,$4,$5,$6,$7,0*
20,1,$1+$1,$6,$7,$8,$9,0*
20,1,$1+$1,$8,$9,$2,$3,0*%
G04 Aperture macros list end*
G04 #@! TA.AperFunction,SMDPad,CuDef*
%ADD10RoundRect,0.007800X-0.422200X-0.122200X0.422200X-0.122200X0.422200X0.122200X-0.422200X0.122200X0*%
G04 #@! TD*
G04 #@! TA.AperFunction,SMDPad,CuDef*
%ADD11RoundRect,0.007800X0.122200X-0.422200X0.122200X0.422200X-0.122200X0.422200X-0.122200X-0.422200X0*%
G04 #@! TD*
G04 #@! TA.AperFunction,ComponentPad*
%ADD12C,0.600000*%
G04 #@! TD*
G04 #@! TA.AperFunction,SMDPad,CuDef*
%ADD13R,5.150000X5.150000*%
G04 #@! TD*
G04 #@! TA.AperFunction,ComponentPad*
%ADD14R,1.700000X1.700000*%
G04 #@! TD*
G04 #@! TA.AperFunction,ComponentPad*
%ADD15O,1.700000X1.700000*%
G04 #@! TD*
G04 #@! TA.AperFunction,SMDPad,CuDef*
%ADD16RoundRect,0.250000X-0.475000X0.250000X-0.475000X-0.250000X0.475000X-0.250000X0.475000X0.250000X0*%
G04 #@! TD*
G04 #@! TA.AperFunction,SMDPad,CuDef*
%ADD17C,1.000000*%
G04 #@! TD*
G04 #@! TA.AperFunction,SMDPad,CuDef*
%ADD18RoundRect,0.225000X0.225000X0.250000X-0.225000X0.250000X-0.225000X-0.250000X0.225000X-0.250000X0*%
G04 #@! TD*
G04 #@! TA.AperFunction,SMDPad,CuDef*
%ADD19RoundRect,0.250000X0.250000X0.475000X-0.250000X0.475000X-0.250000X-0.475000X0.250000X-0.475000X0*%
G04 #@! TD*
G04 #@! TA.AperFunction,SMDPad,CuDef*
%ADD20RoundRect,0.225000X0.375000X-0.225000X0.375000X0.225000X-0.375000X0.225000X-0.375000X-0.225000X0*%
G04 #@! TD*
G04 #@! TA.AperFunction,SMDPad,CuDef*
%ADD21RoundRect,0.200000X-0.200000X-0.275000X0.200000X-0.275000X0.200000X0.275000X-0.200000X0.275000X0*%
G04 #@! TD*
G04 #@! TA.AperFunction,SMDPad,CuDef*
%ADD22R,3.700000X1.200000*%
G04 #@! TD*
G04 #@! TA.AperFunction,SMDPad,CuDef*
%ADD23RoundRect,0.225000X0.250000X-0.225000X0.250000X0.225000X-0.250000X0.225000X-0.250000X-0.225000X0*%
G04 #@! TD*
G04 #@! TA.AperFunction,SMDPad,CuDef*
%ADD24R,2.000000X0.850000*%
G04 #@! TD*
G04 #@! TA.AperFunction,SMDPad,CuDef*
%ADD25R,1.200000X1.400000*%
G04 #@! TD*
G04 #@! TA.AperFunction,SMDPad,CuDef*
%ADD26RoundRect,0.200000X-0.275000X0.200000X-0.275000X-0.200000X0.275000X-0.200000X0.275000X0.200000X0*%
G04 #@! TD*
G04 #@! TA.AperFunction,SMDPad,CuDef*
%ADD27RoundRect,0.150000X-0.150000X0.512500X-0.150000X-0.512500X0.150000X-0.512500X0.150000X0.512500X0*%
G04 #@! TD*
G04 #@! TA.AperFunction,SMDPad,CuDef*
%ADD28RoundRect,0.225000X-0.225000X-0.250000X0.225000X-0.250000X0.225000X0.250000X-0.225000X0.250000X0*%
G04 #@! TD*
G04 #@! TA.AperFunction,SMDPad,CuDef*
%ADD29RoundRect,0.250000X0.475000X-0.250000X0.475000X0.250000X-0.475000X0.250000X-0.475000X-0.250000X0*%
G04 #@! TD*
G04 #@! TA.AperFunction,SMDPad,CuDef*
%ADD30R,1.600000X2.200000*%
G04 #@! TD*
G04 #@! TA.AperFunction,SMDPad,CuDef*
%ADD31RoundRect,0.075000X-0.662500X-0.075000X0.662500X-0.075000X0.662500X0.075000X-0.662500X0.075000X0*%
G04 #@! TD*
G04 #@! TA.AperFunction,SMDPad,CuDef*
%ADD32RoundRect,0.075000X-0.075000X-0.662500X0.075000X-0.662500X0.075000X0.662500X-0.075000X0.662500X0*%
G04 #@! TD*
G04 #@! TA.AperFunction,SMDPad,CuDef*
%ADD33RoundRect,0.200000X0.200000X0.275000X-0.200000X0.275000X-0.200000X-0.275000X0.200000X-0.275000X0*%
G04 #@! TD*
G04 #@! TA.AperFunction,SMDPad,CuDef*
%ADD34RoundRect,0.225000X-0.375000X0.225000X-0.375000X-0.225000X0.375000X-0.225000X0.375000X0.225000X0*%
G04 #@! TD*
G04 #@! TA.AperFunction,SMDPad,CuDef*
%ADD35RoundRect,0.150000X0.512500X0.150000X-0.512500X0.150000X-0.512500X-0.150000X0.512500X-0.150000X0*%
G04 #@! TD*
G04 #@! TA.AperFunction,SMDPad,CuDef*
%ADD36RoundRect,0.225000X-0.250000X0.225000X-0.250000X-0.225000X0.250000X-0.225000X0.250000X0.225000X0*%
G04 #@! TD*
G04 #@! TA.AperFunction,SMDPad,CuDef*
%ADD37RoundRect,0.225000X-0.225000X-0.375000X0.225000X-0.375000X0.225000X0.375000X-0.225000X0.375000X0*%
G04 #@! TD*
G04 #@! TA.AperFunction,ComponentPad*
%ADD38R,1.308000X1.308000*%
G04 #@! TD*
G04 #@! TA.AperFunction,ComponentPad*
%ADD39C,1.308000*%
G04 #@! TD*
G04 #@! TA.AperFunction,ComponentPad*
%ADD40O,2.460000X1.230000*%
G04 #@! TD*
G04 #@! TA.AperFunction,SMDPad,CuDef*
%ADD41R,0.300000X0.800000*%
G04 #@! TD*
G04 #@! TA.AperFunction,SMDPad,CuDef*
%ADD42R,0.300000X1.000000*%
G04 #@! TD*
G04 #@! TA.AperFunction,SMDPad,CuDef*
%ADD43R,0.400000X0.950000*%
G04 #@! TD*
G04 #@! TA.AperFunction,SMDPad,CuDef*
%ADD44RoundRect,0.200000X0.275000X-0.200000X0.275000X0.200000X-0.275000X0.200000X-0.275000X-0.200000X0*%
G04 #@! TD*
G04 #@! TA.AperFunction,SMDPad,CuDef*
%ADD45RoundRect,0.218750X-0.256250X0.218750X-0.256250X-0.218750X0.256250X-0.218750X0.256250X0.218750X0*%
G04 #@! TD*
G04 #@! TA.AperFunction,SMDPad,CuDef*
%ADD46RoundRect,0.250000X-0.250000X-0.475000X0.250000X-0.475000X0.250000X0.475000X-0.250000X0.475000X0*%
G04 #@! TD*
G04 #@! TA.AperFunction,ViaPad*
%ADD47C,0.800000*%
G04 #@! TD*
G04 #@! TA.AperFunction,Conductor*
%ADD48C,0.300000*%
G04 #@! TD*
G04 #@! TA.AperFunction,Conductor*
%ADD49C,0.500000*%
G04 #@! TD*
G04 #@! TA.AperFunction,Conductor*
%ADD50C,0.250000*%
G04 #@! TD*
G04 #@! TA.AperFunction,Conductor*
%ADD51C,0.200000*%
G04 #@! TD*
G04 APERTURE END LIST*
D10*
X96315000Y-66685000D03*
X96315000Y-67185000D03*
X96315000Y-67685000D03*
X96315000Y-68185000D03*
X96315000Y-68685000D03*
X96315000Y-69185000D03*
X96315000Y-69685000D03*
X96315000Y-70185000D03*
X96315000Y-70685000D03*
X96315000Y-71185000D03*
X96315000Y-71685000D03*
X96315000Y-72185000D03*
D11*
X97000000Y-72870000D03*
X97500000Y-72870000D03*
X98000000Y-72870000D03*
X98500000Y-72870000D03*
X99000000Y-72870000D03*
X99500000Y-72870000D03*
X100000000Y-72870000D03*
X100500000Y-72870000D03*
X101000000Y-72870000D03*
X101500000Y-72870000D03*
X102000000Y-72870000D03*
X102500000Y-72870000D03*
D10*
X103185000Y-72185000D03*
X103185000Y-71685000D03*
X103185000Y-71185000D03*
X103185000Y-70685000D03*
X103185000Y-70185000D03*
X103185000Y-69685000D03*
X103185000Y-69185000D03*
X103185000Y-68685000D03*
X103185000Y-68185000D03*
X103185000Y-67685000D03*
X103185000Y-67185000D03*
X103185000Y-66685000D03*
D11*
X102500000Y-66000000D03*
X102000000Y-66000000D03*
X101500000Y-66000000D03*
X101000000Y-66000000D03*
X100500000Y-66000000D03*
X100000000Y-66000000D03*
X99500000Y-66000000D03*
X99000000Y-66000000D03*
X98500000Y-66000000D03*
X98000000Y-66000000D03*
X97500000Y-66000000D03*
X97000000Y-66000000D03*
D12*
X97845000Y-67530000D03*
X97845000Y-68800000D03*
X97845000Y-70070000D03*
X97845000Y-71340000D03*
X99115000Y-67530000D03*
X99115000Y-68800000D03*
X99115000Y-70070000D03*
X99115000Y-71340000D03*
D13*
X99750000Y-69435000D03*
D12*
X100385000Y-67530000D03*
X100385000Y-68800000D03*
X100385000Y-70070000D03*
X100385000Y-71340000D03*
X101528000Y-68800000D03*
X101528000Y-70070000D03*
X101528000Y-71340000D03*
X101655000Y-67530000D03*
D14*
X114000000Y-84210000D03*
D15*
X114000000Y-86750000D03*
D16*
X97250000Y-75235000D03*
X97250000Y-77135000D03*
D17*
X114250000Y-65500000D03*
D14*
X113910000Y-91500000D03*
D15*
X111370000Y-91500000D03*
X108830000Y-91500000D03*
X106290000Y-91500000D03*
X103750000Y-91500000D03*
X101210000Y-91500000D03*
D18*
X61775000Y-71500000D03*
X60225000Y-71500000D03*
D16*
X95000000Y-75235000D03*
X95000000Y-77135000D03*
D19*
X92450000Y-65685000D03*
X90550000Y-65685000D03*
D20*
X113750000Y-62900000D03*
X113750000Y-59600000D03*
D18*
X108713752Y-60848748D03*
X107163752Y-60848748D03*
D19*
X88700000Y-69435000D03*
X86800000Y-69435000D03*
D21*
X87675000Y-63935000D03*
X89325000Y-63935000D03*
D22*
X107000000Y-80585000D03*
X107000000Y-77785000D03*
D23*
X93000000Y-92775000D03*
X93000000Y-91225000D03*
D16*
X116000000Y-61050000D03*
X116000000Y-62950000D03*
D24*
X102050000Y-56185000D03*
X102050000Y-57835000D03*
D25*
X55650000Y-67049998D03*
X55650000Y-69249998D03*
X57350000Y-69249998D03*
X57350000Y-67049998D03*
D21*
X59175000Y-68750000D03*
X60825000Y-68750000D03*
D26*
X76500000Y-60500000D03*
X76500000Y-62150000D03*
D27*
X82950000Y-58862500D03*
X82000000Y-58862500D03*
X81050000Y-58862500D03*
X81050000Y-61137500D03*
X82000000Y-61137500D03*
X82950000Y-61137500D03*
D14*
X75450000Y-54975000D03*
D15*
X77990000Y-54975000D03*
X80530000Y-54975000D03*
X83070000Y-54975000D03*
D28*
X107163752Y-71685000D03*
X108713752Y-71685000D03*
D19*
X114250000Y-74935000D03*
X112350000Y-74935000D03*
D17*
X94050000Y-58750000D03*
D21*
X110363752Y-67435000D03*
X112013752Y-67435000D03*
D29*
X116250000Y-71450000D03*
X116250000Y-69550000D03*
D30*
X52000000Y-74253200D03*
X52000000Y-83053200D03*
D31*
X63837500Y-65750000D03*
X63837500Y-66250000D03*
X63837500Y-66750000D03*
X63837500Y-67250000D03*
X63837500Y-67750000D03*
X63837500Y-68250000D03*
X63837500Y-68750000D03*
X63837500Y-69250000D03*
X63837500Y-69750000D03*
X63837500Y-70250000D03*
X63837500Y-70750000D03*
X63837500Y-71250000D03*
D32*
X65250000Y-72662500D03*
X65750000Y-72662500D03*
X66250000Y-72662500D03*
X66750000Y-72662500D03*
X67250000Y-72662500D03*
X67750000Y-72662500D03*
X68250000Y-72662500D03*
X68750000Y-72662500D03*
X69250000Y-72662500D03*
X69750000Y-72662500D03*
X70250000Y-72662500D03*
X70750000Y-72662500D03*
D31*
X72162500Y-71250000D03*
X72162500Y-70750000D03*
X72162500Y-70250000D03*
X72162500Y-69750000D03*
X72162500Y-69250000D03*
X72162500Y-68750000D03*
X72162500Y-68250000D03*
X72162500Y-67750000D03*
X72162500Y-67250000D03*
X72162500Y-66750000D03*
X72162500Y-66250000D03*
X72162500Y-65750000D03*
D32*
X70750000Y-64337500D03*
X70250000Y-64337500D03*
X69750000Y-64337500D03*
X69250000Y-64337500D03*
X68750000Y-64337500D03*
X68250000Y-64337500D03*
X67750000Y-64337500D03*
X67250000Y-64337500D03*
X66750000Y-64337500D03*
X66250000Y-64337500D03*
X65750000Y-64337500D03*
X65250000Y-64337500D03*
D33*
X61825000Y-75250000D03*
X60175000Y-75250000D03*
D18*
X72275000Y-75000000D03*
X70725000Y-75000000D03*
D21*
X107113752Y-67435000D03*
X108763752Y-67435000D03*
D28*
X55625000Y-71500000D03*
X57175000Y-71500000D03*
D34*
X111000000Y-69350000D03*
X111000000Y-72650000D03*
D35*
X59887500Y-86950000D03*
X59887500Y-86000000D03*
X59887500Y-85050000D03*
X57612500Y-85050000D03*
X57612500Y-86000000D03*
X57612500Y-86950000D03*
D18*
X61775000Y-73500000D03*
X60225000Y-73500000D03*
D19*
X103000000Y-61685000D03*
X101100000Y-61685000D03*
D28*
X64475000Y-61500000D03*
X66025000Y-61500000D03*
D18*
X92525000Y-72685000D03*
X90975000Y-72685000D03*
D23*
X57500000Y-75025000D03*
X57500000Y-73475000D03*
D17*
X52500000Y-87500000D03*
D28*
X53975000Y-65000000D03*
X55525000Y-65000000D03*
D26*
X78000000Y-68175000D03*
X78000000Y-69825000D03*
D34*
X111000000Y-59600000D03*
X111000000Y-62900000D03*
D23*
X87250000Y-87025000D03*
X87250000Y-85475000D03*
D27*
X70450000Y-58112500D03*
X69500000Y-58112500D03*
X68550000Y-58112500D03*
X68550000Y-60387500D03*
X69500000Y-60387500D03*
X70450000Y-60387500D03*
D17*
X102250000Y-80185000D03*
D20*
X98800000Y-59585000D03*
X98800000Y-56285000D03*
D18*
X62250000Y-61500000D03*
X60700000Y-61500000D03*
D19*
X92450000Y-70435000D03*
X90550000Y-70435000D03*
D28*
X107163752Y-62598748D03*
X108713752Y-62598748D03*
D36*
X75000000Y-64975000D03*
X75000000Y-66525000D03*
D17*
X116250000Y-67000000D03*
D37*
X107100000Y-74935000D03*
X110400000Y-74935000D03*
D17*
X91050000Y-75935000D03*
D38*
X52312500Y-56500000D03*
D39*
X52312500Y-58500000D03*
X52312500Y-60500000D03*
D40*
X52312500Y-54300000D03*
X52312500Y-62700000D03*
D28*
X60200000Y-77000000D03*
X61750000Y-77000000D03*
D41*
X79130000Y-92750000D03*
D42*
X79430000Y-89750000D03*
D41*
X79730000Y-92750000D03*
D42*
X80030000Y-89750000D03*
D41*
X80330000Y-92750000D03*
D42*
X80630000Y-89750000D03*
D41*
X80930000Y-92750000D03*
D42*
X81230000Y-89750000D03*
D41*
X81530000Y-92750000D03*
D42*
X81830000Y-89750000D03*
D41*
X82130000Y-92750000D03*
D42*
X82430000Y-89750000D03*
D41*
X82730000Y-92750000D03*
D42*
X83030000Y-89750000D03*
D41*
X83330000Y-92750000D03*
D42*
X83630000Y-89750000D03*
D41*
X83930000Y-92750000D03*
D42*
X84230000Y-89750000D03*
D41*
X84530000Y-92750000D03*
D42*
X84830000Y-89750000D03*
D41*
X85130000Y-92750000D03*
D42*
X85430000Y-89750000D03*
D41*
X85730000Y-92750000D03*
D42*
X86030000Y-89750000D03*
D41*
X86330000Y-92750000D03*
D42*
X86630000Y-89750000D03*
D41*
X86930000Y-92750000D03*
D42*
X87230000Y-89750000D03*
D41*
X87530000Y-92750000D03*
D42*
X87830000Y-89750000D03*
D41*
X88130000Y-92750000D03*
D42*
X88430000Y-89750000D03*
D41*
X88730000Y-92750000D03*
D42*
X89030000Y-89750000D03*
D41*
X89330000Y-92750000D03*
D42*
X89630000Y-89750000D03*
D41*
X89930000Y-92750000D03*
D42*
X90230000Y-89750000D03*
D41*
X90530000Y-92750000D03*
D43*
X78430000Y-92475000D03*
X91230000Y-92475000D03*
D23*
X103250000Y-76800000D03*
X103250000Y-75250000D03*
D26*
X79000000Y-62000000D03*
X79000000Y-63650000D03*
D28*
X107163752Y-69935000D03*
X108713752Y-69935000D03*
D14*
X65043200Y-91500000D03*
D15*
X62503200Y-91500000D03*
X59963200Y-91500000D03*
X57423200Y-91500000D03*
X54883200Y-91500000D03*
X52343200Y-91500000D03*
D44*
X55250000Y-81575000D03*
X55250000Y-79925000D03*
D17*
X87500000Y-72750000D03*
D21*
X107113752Y-65185000D03*
X108763752Y-65185000D03*
D45*
X55250000Y-74462500D03*
X55250000Y-76037500D03*
D17*
X91750000Y-57500000D03*
D46*
X97100000Y-61685000D03*
X99000000Y-61685000D03*
D23*
X61000000Y-65525000D03*
X61000000Y-63975000D03*
D14*
X60210000Y-55000000D03*
D15*
X62750000Y-55000000D03*
X65290000Y-55000000D03*
X67830000Y-55000000D03*
D21*
X110363752Y-65098748D03*
X112013752Y-65098748D03*
D44*
X78000000Y-73575000D03*
X78000000Y-71925000D03*
D17*
X88300000Y-59935000D03*
D19*
X88700000Y-67185000D03*
X86800000Y-67185000D03*
D23*
X80000000Y-87025000D03*
X80000000Y-85475000D03*
D18*
X76050000Y-92750000D03*
X74500000Y-92750000D03*
D20*
X113750000Y-72650000D03*
X113750000Y-69350000D03*
D23*
X77750000Y-87000000D03*
X77750000Y-85450000D03*
D19*
X95250000Y-61250000D03*
X93350000Y-61250000D03*
D21*
X87675000Y-62185000D03*
X89325000Y-62185000D03*
X63500000Y-58500000D03*
X65150000Y-58500000D03*
D23*
X104625000Y-57835000D03*
X104625000Y-56285000D03*
X85000000Y-87050000D03*
X85000000Y-85500000D03*
D47*
X82484165Y-62765835D03*
X81515835Y-57484165D03*
X70801331Y-61770500D03*
X69250000Y-57000000D03*
X57979500Y-76250000D03*
X104750000Y-55000000D03*
X90500000Y-79000000D03*
X85484165Y-76484165D03*
X101234057Y-76484273D03*
X100500000Y-79500000D03*
X55750000Y-87000000D03*
X55185004Y-84456670D03*
X115500000Y-75000000D03*
X107000000Y-82000000D03*
X85500000Y-69000000D03*
X88142311Y-94500500D03*
X54250000Y-70000000D03*
X79004578Y-94045781D03*
X104980746Y-68435500D03*
X59500000Y-61500000D03*
X54250000Y-69000000D03*
X59000000Y-71500000D03*
X59000000Y-73500000D03*
X52750000Y-65000000D03*
X104174189Y-61156989D03*
X71000000Y-76250000D03*
X86500000Y-64000000D03*
X85500000Y-70000000D03*
X93250000Y-59815000D03*
X95500000Y-78250000D03*
X65750000Y-60250000D03*
X54500000Y-71500000D03*
X89750000Y-88000000D03*
X87250000Y-84250000D03*
X61408023Y-70281502D03*
X97000000Y-60250000D03*
X85500000Y-66750000D03*
X76500000Y-87000000D03*
X106000000Y-65250000D03*
X57000000Y-65500000D03*
X89500000Y-71000000D03*
X94499500Y-69440546D03*
X101000000Y-64000000D03*
X82000000Y-83000500D03*
X93000000Y-90000000D03*
X94499500Y-71250000D03*
X89425713Y-65074287D03*
X69750000Y-92250000D03*
X95750000Y-65000000D03*
X61750000Y-78250000D03*
X65529977Y-62720023D03*
X105874954Y-67435000D03*
X106000000Y-82000000D03*
X61190046Y-86000000D03*
X55250000Y-78750000D03*
X108000000Y-82000000D03*
X106042214Y-62599364D03*
X85000000Y-84250000D03*
X104610100Y-58939526D03*
X61000000Y-62750000D03*
X97500000Y-78250000D03*
X116500000Y-59750000D03*
X106000000Y-69750000D03*
X85500000Y-67750000D03*
X89750000Y-72750000D03*
X58000000Y-65500000D03*
X86500000Y-62250000D03*
X117750000Y-71500000D03*
X103000000Y-78000000D03*
X115500000Y-59750000D03*
X81500000Y-94750000D03*
X76250000Y-66250000D03*
X58750000Y-83500000D03*
X79250000Y-68000000D03*
X55250000Y-77287500D03*
X92750000Y-73750000D03*
X97970023Y-63964977D03*
X62250000Y-60250000D03*
X59000000Y-77000000D03*
X59750000Y-65500000D03*
X75250000Y-60500000D03*
X72500000Y-76250000D03*
X76250000Y-65250497D03*
X103000000Y-55000000D03*
X78750000Y-61000000D03*
X64500000Y-60250000D03*
X104500000Y-75000000D03*
X79250000Y-73750000D03*
X101000000Y-55000000D03*
X102000000Y-55000000D03*
X103500000Y-63185000D03*
X100000000Y-63185000D03*
X68500000Y-93500000D03*
X65250000Y-70250000D03*
X64024000Y-72750000D03*
X64331637Y-86945576D03*
X59250000Y-67000000D03*
X58750000Y-93500000D03*
X82279500Y-93918363D03*
X63250000Y-94750000D03*
X62524500Y-72500000D03*
X76500000Y-94999500D03*
X82331637Y-88195576D03*
X65566070Y-66301789D03*
X67137917Y-89362083D03*
X72750000Y-90840385D03*
X65250000Y-67250000D03*
X63500000Y-87500000D03*
X82750000Y-87250000D03*
X73750000Y-86250000D03*
X69220023Y-84029977D03*
X73750000Y-88250000D03*
X83286945Y-90839885D03*
X68999500Y-82250000D03*
X70000000Y-66000000D03*
X84410376Y-91160376D03*
X83750000Y-85250000D03*
X69081637Y-66554424D03*
X85500000Y-91000000D03*
X68250000Y-66000000D03*
X86930000Y-91320000D03*
X67250000Y-67750000D03*
X90250000Y-91750000D03*
X88500000Y-91000000D03*
X66249500Y-68560308D03*
X69924099Y-79407038D03*
X91000000Y-87250000D03*
X61500000Y-87000000D03*
X61989453Y-81200593D03*
X56000000Y-85000000D03*
X57279977Y-89529977D03*
X88559954Y-78059954D03*
X83500000Y-76000000D03*
X76875000Y-63375000D03*
X80750000Y-78000500D03*
X93250000Y-80250000D03*
X68924668Y-63007904D03*
X81250000Y-64000000D03*
X99000000Y-75250000D03*
X87750000Y-80250000D03*
X80750000Y-80000000D03*
X100000000Y-75250000D03*
X87750000Y-81250000D03*
X68000000Y-62500000D03*
X79500000Y-80250000D03*
X77750000Y-62250000D03*
X74750000Y-62250000D03*
X93250000Y-81250000D03*
X79500000Y-78000500D03*
X94250000Y-62500500D03*
X87250000Y-82500000D03*
X85675500Y-82500000D03*
X91402695Y-73734197D03*
X86900500Y-71000000D03*
X90500000Y-68934500D03*
X85750000Y-75000000D03*
X89779977Y-75029977D03*
X87242227Y-78317727D03*
X74000000Y-76500000D03*
X71250000Y-88750000D03*
X82000000Y-79500000D03*
X69845023Y-85404977D03*
X114000000Y-67000000D03*
X117750000Y-69500000D03*
X98750000Y-93524500D03*
X96750000Y-92025500D03*
X81500000Y-88750000D03*
X90779977Y-88720023D03*
X87154977Y-94345023D03*
X91500000Y-63185500D03*
X90750000Y-93750000D03*
X91500000Y-85500000D03*
X87830000Y-88250000D03*
X81250000Y-87000000D03*
D48*
X84250000Y-59250000D02*
X83500000Y-60000000D01*
X82250000Y-60000000D02*
X82000000Y-60250000D01*
X83070000Y-54975000D02*
X84250000Y-56155000D01*
X83500000Y-60000000D02*
X82250000Y-60000000D01*
X84250000Y-56155000D02*
X84250000Y-59250000D01*
X82000000Y-60250000D02*
X82000000Y-61137500D01*
X82000000Y-62281670D02*
X82484165Y-62765835D01*
X82000000Y-61137500D02*
X82000000Y-62281670D01*
X72162500Y-68750000D02*
X75750000Y-68750000D01*
X83000000Y-62250000D02*
X83000000Y-61187500D01*
X75750000Y-68750000D02*
X79000000Y-65500000D01*
X83500000Y-63928822D02*
X83500000Y-62750000D01*
X79000000Y-65500000D02*
X81928822Y-65500000D01*
X81928822Y-65500000D02*
X83500000Y-63928822D01*
X83500000Y-62750000D02*
X83000000Y-62250000D01*
X83000000Y-61187500D02*
X82950000Y-61137500D01*
X81050000Y-61137500D02*
X81050000Y-62550000D01*
X81050000Y-62550000D02*
X82250000Y-63750000D01*
X82250000Y-63750000D02*
X82250000Y-64500000D01*
X81750000Y-65000000D02*
X78750000Y-65000000D01*
X78750000Y-65000000D02*
X75500000Y-68250000D01*
X82250000Y-64500000D02*
X81750000Y-65000000D01*
X75500000Y-68250000D02*
X72162500Y-68250000D01*
X82000000Y-57968330D02*
X81515835Y-57484165D01*
X82000000Y-58862500D02*
X82000000Y-57968330D01*
X81050000Y-58050000D02*
X80750000Y-57750000D01*
X81050000Y-58862500D02*
X81050000Y-58050000D01*
X80750000Y-57750000D02*
X80750000Y-57735000D01*
X80750000Y-57735000D02*
X77990000Y-54975000D01*
X82950000Y-58862500D02*
X82950000Y-57395000D01*
X82950000Y-57395000D02*
X80530000Y-54975000D01*
X79000000Y-62000000D02*
X79000000Y-61250000D01*
X79000000Y-61250000D02*
X78750000Y-61000000D01*
X69250000Y-55000000D02*
X71500000Y-57250000D01*
X71500000Y-58693823D02*
X70798823Y-59395000D01*
X67830000Y-55000000D02*
X69250000Y-55000000D01*
X71500000Y-57250000D02*
X71500000Y-58693823D01*
X70798823Y-59395000D02*
X69855000Y-59395000D01*
X69855000Y-59395000D02*
X69500000Y-59750000D01*
X69500000Y-59750000D02*
X69500000Y-60387500D01*
X70450000Y-58112500D02*
X70450000Y-57167624D01*
X70450000Y-57167624D02*
X69552376Y-56270000D01*
X69552376Y-56270000D02*
X68520000Y-56270000D01*
X68520000Y-56270000D02*
X68500000Y-56250000D01*
X68500000Y-56250000D02*
X66540000Y-56250000D01*
X66540000Y-56250000D02*
X65290000Y-55000000D01*
X69500000Y-60778823D02*
X70491677Y-61770500D01*
X70491677Y-61770500D02*
X70801331Y-61770500D01*
X69500000Y-60387500D02*
X69500000Y-60778823D01*
X70450000Y-60387500D02*
X72275938Y-62213438D01*
X72275938Y-62213438D02*
X72275938Y-64319062D01*
X71352244Y-66750000D02*
X72162500Y-66750000D01*
X72275938Y-64319062D02*
X71000000Y-65595000D01*
X71000000Y-65595000D02*
X71000000Y-66397756D01*
X71000000Y-66397756D02*
X71352244Y-66750000D01*
X68550000Y-60387500D02*
X68550000Y-60778823D01*
X68550000Y-60778823D02*
X70750000Y-62978823D01*
X70750000Y-62978823D02*
X70750000Y-64337500D01*
X69500000Y-57250000D02*
X69250000Y-57000000D01*
X69500000Y-58112500D02*
X69500000Y-57250000D01*
X68550000Y-58112500D02*
X67187500Y-56750000D01*
X67187500Y-56750000D02*
X63750000Y-56750000D01*
X63750000Y-56750000D02*
X62750000Y-55750000D01*
X62750000Y-55750000D02*
X62750000Y-55000000D01*
X58000000Y-71934889D02*
X57717444Y-72217444D01*
X57500000Y-73475000D02*
X57500000Y-72434888D01*
X57500000Y-72434888D02*
X57717444Y-72217444D01*
X57500000Y-75770500D02*
X57979500Y-76250000D01*
X57500000Y-75025000D02*
X57500000Y-75770500D01*
X55250000Y-74462500D02*
X55040700Y-74253200D01*
X55040700Y-74253200D02*
X52000000Y-74253200D01*
X63837500Y-68750000D02*
X62049533Y-68750000D01*
X62049533Y-68750000D02*
X61244533Y-69555000D01*
X61244533Y-69555000D02*
X59195000Y-69555000D01*
X59195000Y-69555000D02*
X58000000Y-70750000D01*
X58000000Y-70750000D02*
X58000000Y-71934889D01*
X104625000Y-55125000D02*
X104750000Y-55000000D01*
X104625000Y-56285000D02*
X104625000Y-55125000D01*
X101250000Y-65000000D02*
X101000000Y-65250000D01*
X101000000Y-65250000D02*
X101000000Y-66000000D01*
D49*
X102050000Y-64200000D02*
X101250000Y-65000000D01*
X102050000Y-57835000D02*
X102050000Y-64200000D01*
D48*
X101000000Y-64000000D02*
X100500000Y-64500000D01*
X100500000Y-64500000D02*
X100500000Y-66000000D01*
X103500000Y-63185000D02*
X103500000Y-63935000D01*
X103500000Y-63935000D02*
X102500000Y-64935000D01*
X102500000Y-64935000D02*
X102500000Y-66000000D01*
D49*
X107100000Y-74935000D02*
X104430000Y-72265000D01*
X104430000Y-72265000D02*
X103185000Y-72265000D01*
D48*
X97565000Y-68185000D02*
X96315000Y-68185000D01*
X98000000Y-67750000D02*
X97565000Y-68185000D01*
X98435000Y-68185000D02*
X98000000Y-67750000D01*
X90500000Y-79000000D02*
X93500000Y-79000000D01*
X93500000Y-79000000D02*
X94000000Y-79500000D01*
X98500000Y-79500000D02*
X103750000Y-84750000D01*
X94000000Y-79500000D02*
X98500000Y-79500000D01*
X103750000Y-84750000D02*
X112000000Y-84750000D01*
X112000000Y-84750000D02*
X114000000Y-86750000D01*
X101500000Y-77250000D02*
X99750000Y-79000000D01*
X99750000Y-79000000D02*
X94500000Y-79000000D01*
X94500000Y-79000000D02*
X93559954Y-78059954D01*
X93559954Y-78059954D02*
X88559954Y-78059954D01*
X100215000Y-76285000D02*
X100375000Y-76125000D01*
X100375000Y-76125000D02*
X100625000Y-75875000D01*
X100750000Y-76000000D02*
X100500000Y-76000000D01*
X100500000Y-76000000D02*
X100375000Y-76125000D01*
X100750000Y-75750000D02*
X100875000Y-75625000D01*
X100750000Y-75750000D02*
X100750000Y-76000000D01*
X100625000Y-75875000D02*
X100750000Y-75750000D01*
X100750000Y-76000000D02*
X101234057Y-76484057D01*
X101234057Y-76484057D02*
X101234057Y-76484273D01*
X100750000Y-76000000D02*
X100625000Y-75875000D01*
X100875000Y-75625000D02*
X101000000Y-75500000D01*
X103960000Y-84210000D02*
X100500000Y-80750000D01*
X114000000Y-84210000D02*
X103960000Y-84210000D01*
X100500000Y-80750000D02*
X100500000Y-79500000D01*
X91875000Y-62125000D02*
X91750000Y-62000000D01*
X91750000Y-62000000D02*
X91750000Y-57500000D01*
D49*
X57612500Y-86000000D02*
X54000000Y-86000000D01*
X54000000Y-86000000D02*
X52500000Y-87500000D01*
D50*
X55750000Y-87000000D02*
X55800000Y-86950000D01*
X55800000Y-86950000D02*
X57612500Y-86950000D01*
D49*
X52343200Y-91500000D02*
X52343200Y-87656800D01*
X52343200Y-87656800D02*
X52500000Y-87500000D01*
D48*
X96315000Y-70185000D02*
X95564500Y-70185000D01*
X104731246Y-68685000D02*
X104980746Y-68435500D01*
X90036426Y-65685000D02*
X89425713Y-65074287D01*
X94755046Y-69185000D02*
X94499500Y-69440546D01*
X59887500Y-86000000D02*
X61190046Y-86000000D01*
X96315000Y-69185000D02*
X94755046Y-69185000D01*
X107000000Y-81000000D02*
X106000000Y-82000000D01*
X95564500Y-70185000D02*
X94499500Y-71250000D01*
X96343300Y-65000000D02*
X95750000Y-65000000D01*
X88130000Y-93569839D02*
X88130000Y-92750000D01*
X70750000Y-74250000D02*
X70750000Y-74975000D01*
X60225000Y-71500000D02*
X59000000Y-71500000D01*
X93350000Y-61250000D02*
X93350000Y-59915000D01*
X70250000Y-92750000D02*
X69750000Y-92250000D01*
X85500000Y-66750000D02*
X86365000Y-66750000D01*
X82000000Y-83475000D02*
X80000000Y-85475000D01*
X85000000Y-85500000D02*
X85000000Y-84250000D01*
X81530000Y-94720000D02*
X81500000Y-94750000D01*
X107000000Y-81000000D02*
X108000000Y-82000000D01*
X97000000Y-66000000D02*
X97000000Y-65656700D01*
X90550000Y-65685000D02*
X90036426Y-65685000D01*
X61750000Y-78250000D02*
X61750000Y-77000000D01*
X85500000Y-70000000D02*
X86235000Y-70000000D01*
X55625000Y-71500000D02*
X55000000Y-71500000D01*
X55400002Y-69000000D02*
X55650000Y-69249998D01*
X57000000Y-65500000D02*
X57250000Y-65750000D01*
X55250000Y-79925000D02*
X55250000Y-78750000D01*
X89815000Y-72685000D02*
X89750000Y-72750000D01*
X61718498Y-70281502D02*
X62750000Y-69250000D01*
X54250000Y-69000000D02*
X55400002Y-69000000D01*
X107000000Y-80585000D02*
X107000000Y-81000000D01*
X104625000Y-58924626D02*
X104610100Y-58939526D01*
X74275000Y-66525000D02*
X74000000Y-66250000D01*
X62750000Y-69250000D02*
X63837500Y-69250000D01*
X106185000Y-69935000D02*
X106000000Y-69750000D01*
X55000000Y-71500000D02*
X54500000Y-71500000D01*
X90065000Y-70435000D02*
X90550000Y-70435000D01*
X81530000Y-92750000D02*
X81530000Y-94720000D01*
X93000000Y-91225000D02*
X93000000Y-90000000D01*
X65750000Y-64337500D02*
X65750000Y-62940046D01*
X88142311Y-93582150D02*
X88130000Y-93569839D01*
X70250000Y-72662500D02*
X70250000Y-73750000D01*
X103250000Y-77750000D02*
X103000000Y-78000000D01*
X107163752Y-62598748D02*
X106042830Y-62598748D01*
X90975000Y-72685000D02*
X89815000Y-72685000D01*
D51*
X117700000Y-71450000D02*
X117750000Y-71500000D01*
D48*
X106000000Y-82000000D02*
X106000000Y-81585000D01*
X96921650Y-65578350D02*
X96343300Y-65000000D01*
X65750000Y-62940046D02*
X65529977Y-62720023D01*
X66025000Y-60525000D02*
X65750000Y-60250000D01*
X87675000Y-63935000D02*
X86565000Y-63935000D01*
X54250000Y-70000000D02*
X54899998Y-70000000D01*
X108000000Y-82000000D02*
X108000000Y-81585000D01*
X76250000Y-66250000D02*
X75975000Y-66525000D01*
X89030000Y-89750000D02*
X89030000Y-88970000D01*
X89500000Y-71000000D02*
X90065000Y-70435000D01*
X57500000Y-66899998D02*
X57350000Y-67049998D01*
X70250000Y-73750000D02*
X70750000Y-74250000D01*
D51*
X116250000Y-71450000D02*
X117700000Y-71450000D01*
D48*
X54899998Y-70000000D02*
X55650000Y-69249998D01*
X70725000Y-75000000D02*
X70725000Y-75975000D01*
X79730000Y-92750000D02*
X79730000Y-93320359D01*
X74000000Y-66250000D02*
X72162500Y-66250000D01*
X85500000Y-67750000D02*
X86235000Y-67750000D01*
X86235000Y-70000000D02*
X86800000Y-69435000D01*
X103646178Y-61685000D02*
X104174189Y-61156989D01*
X88142311Y-94500500D02*
X88142311Y-93582150D01*
X61408023Y-70281502D02*
X61718498Y-70281502D01*
X70725000Y-75975000D02*
X71000000Y-76250000D01*
X108000000Y-81585000D02*
X107000000Y-80585000D01*
X58000000Y-65500000D02*
X57500000Y-66000000D01*
X115500000Y-59750000D02*
X115500000Y-60384996D01*
X97250000Y-78000000D02*
X97500000Y-78250000D01*
X86365000Y-69000000D02*
X86800000Y-69435000D01*
X85500000Y-69000000D02*
X86365000Y-69000000D01*
X103250000Y-76800000D02*
X103250000Y-77750000D01*
X106000000Y-81585000D02*
X107000000Y-80585000D01*
X115500000Y-75000000D02*
X114315000Y-75000000D01*
X107000000Y-80585000D02*
X107000000Y-82000000D01*
X61000000Y-63975000D02*
X61000000Y-62750000D01*
X86565000Y-63935000D02*
X86500000Y-64000000D01*
X76500000Y-86700000D02*
X76500000Y-87000000D01*
X66025000Y-61500000D02*
X66025000Y-60525000D01*
X74500000Y-92750000D02*
X70250000Y-92750000D01*
X115500000Y-60384996D02*
X116013752Y-60898748D01*
X82000000Y-83000500D02*
X82000000Y-83475000D01*
X75000000Y-66525000D02*
X74275000Y-66525000D01*
X116500000Y-59750000D02*
X116500000Y-60412500D01*
X97100000Y-60350000D02*
X97000000Y-60250000D01*
X105874954Y-67435000D02*
X106757500Y-67435000D01*
D51*
X87250000Y-85475000D02*
X87250000Y-84250000D01*
D48*
X89030000Y-88970000D02*
X89750000Y-88250000D01*
X86365000Y-66750000D02*
X86800000Y-67185000D01*
X107163752Y-69935000D02*
X106185000Y-69935000D01*
X57250000Y-65750000D02*
X57250000Y-66949998D01*
X106065000Y-65185000D02*
X106000000Y-65250000D01*
X57500000Y-66000000D02*
X57500000Y-66899998D01*
X75975000Y-66525000D02*
X75000000Y-66525000D01*
X103000000Y-61685000D02*
X103646178Y-61685000D01*
X86565000Y-62185000D02*
X86500000Y-62250000D01*
X95000000Y-77135000D02*
X95000000Y-77750000D01*
X114315000Y-75000000D02*
X114250000Y-74935000D01*
X103185000Y-68685000D02*
X104731246Y-68685000D01*
X60225000Y-73500000D02*
X59000000Y-73500000D01*
X57250000Y-66949998D02*
X57350000Y-67049998D01*
X60700000Y-61500000D02*
X59500000Y-61500000D01*
X77750000Y-85450000D02*
X76500000Y-86700000D01*
X53825000Y-65000000D02*
X52750000Y-65000000D01*
X86235000Y-67750000D02*
X86800000Y-67185000D01*
X79730000Y-93320359D02*
X79004578Y-94045781D01*
X107113752Y-65185000D02*
X106065000Y-65185000D01*
X97250000Y-77135000D02*
X97250000Y-78000000D01*
X87675000Y-62185000D02*
X86565000Y-62185000D01*
X116500000Y-60412500D02*
X116013752Y-60898748D01*
X97000000Y-65656700D02*
X96921650Y-65578350D01*
X97100000Y-61685000D02*
X97100000Y-60350000D01*
X95000000Y-77750000D02*
X95500000Y-78250000D01*
X89750000Y-88250000D02*
X89750000Y-88000000D01*
X70750000Y-74975000D02*
X70725000Y-75000000D01*
X106042830Y-62598748D02*
X106042214Y-62599364D01*
X104625000Y-57835000D02*
X104625000Y-58924626D01*
X58625000Y-85875000D02*
X58625000Y-83625000D01*
X61225000Y-65750000D02*
X63500000Y-65750000D01*
X103250000Y-75250000D02*
X103250000Y-74500000D01*
X92525000Y-72685000D02*
X94264594Y-72685000D01*
X65250000Y-64337500D02*
X65250000Y-63500000D01*
X102050000Y-56050000D02*
X101000000Y-55000000D01*
X102500000Y-73750000D02*
X102500000Y-72870000D01*
X103250000Y-74500000D02*
X102500000Y-73750000D01*
X76500000Y-60500000D02*
X75250000Y-60500000D01*
X94264594Y-72685000D02*
X95764594Y-71185000D01*
X64500000Y-61525000D02*
X64475000Y-61500000D01*
X64500000Y-62750000D02*
X64500000Y-61525000D01*
X64475000Y-60275000D02*
X64500000Y-60250000D01*
X65250000Y-63500000D02*
X64500000Y-62750000D01*
X73250000Y-65750000D02*
X72162500Y-65750000D01*
X98500000Y-66000000D02*
X98500000Y-64494954D01*
X102050000Y-55050000D02*
X102000000Y-55000000D01*
X102050000Y-56185000D02*
X102050000Y-56050000D01*
X95764594Y-71185000D02*
X96315000Y-71185000D01*
X58250000Y-86000000D02*
X58500000Y-86000000D01*
X79075000Y-68175000D02*
X79250000Y-68000000D01*
X92525000Y-73525000D02*
X92750000Y-73750000D01*
X75974503Y-64975000D02*
X75000000Y-64975000D01*
X76250000Y-65250497D02*
X75974503Y-64975000D01*
X75000000Y-64975000D02*
X74025000Y-64975000D01*
X78000000Y-68175000D02*
X79075000Y-68175000D01*
X58625000Y-83625000D02*
X58750000Y-83500000D01*
X78000000Y-73575000D02*
X79075000Y-73575000D01*
X72025000Y-75250000D02*
X72025000Y-74525000D01*
X60200000Y-77000000D02*
X60200000Y-75275000D01*
X62250000Y-61500000D02*
X62250000Y-60250000D01*
X72025000Y-74525000D02*
X70750000Y-73250000D01*
X102050000Y-56185000D02*
X102050000Y-55050000D01*
X58500000Y-86000000D02*
X58625000Y-85875000D01*
X98500000Y-64494954D02*
X97970023Y-63964977D01*
X102050000Y-55950000D02*
X103000000Y-55000000D01*
X64475000Y-61500000D02*
X64475000Y-60275000D01*
X59775000Y-65525000D02*
X59750000Y-65500000D01*
X55250000Y-76037500D02*
X55250000Y-77250000D01*
X92525000Y-72685000D02*
X92525000Y-73525000D01*
X104525000Y-56185000D02*
X104625000Y-56285000D01*
X61000000Y-65525000D02*
X59775000Y-65525000D01*
X102050000Y-56185000D02*
X102050000Y-55950000D01*
X72275000Y-76025000D02*
X72500000Y-76250000D01*
X79075000Y-73575000D02*
X79250000Y-73750000D01*
X61000000Y-65525000D02*
X61225000Y-65750000D01*
X60200000Y-75275000D02*
X60175000Y-75250000D01*
X57612500Y-86000000D02*
X58250000Y-86000000D01*
X103250000Y-75250000D02*
X104250000Y-75250000D01*
X72275000Y-75000000D02*
X72275000Y-76025000D01*
X59000000Y-77000000D02*
X60200000Y-77000000D01*
X74025000Y-64975000D02*
X73250000Y-65750000D01*
X104250000Y-75250000D02*
X104500000Y-75000000D01*
X102050000Y-56185000D02*
X104525000Y-56185000D01*
X70750000Y-73250000D02*
X70750000Y-72662500D01*
X109751252Y-60848748D02*
X111000000Y-59600000D01*
X108713752Y-60848748D02*
X109751252Y-60848748D01*
X113750000Y-59600000D02*
X111000000Y-59600000D01*
X103815000Y-66685000D02*
X104250000Y-66250000D01*
X104250000Y-62250000D02*
X105500000Y-61000000D01*
X105500000Y-61000000D02*
X107012500Y-61000000D01*
X107012500Y-61000000D02*
X107163752Y-60848748D01*
X103185000Y-66685000D02*
X103815000Y-66685000D01*
X104250000Y-66250000D02*
X104250000Y-62250000D01*
X103185000Y-67685000D02*
X103735406Y-67685000D01*
X108713752Y-62786248D02*
X108713752Y-62598748D01*
X110698748Y-62598748D02*
X111000000Y-62900000D01*
X103735406Y-67685000D02*
X105000000Y-66420406D01*
X105000000Y-64000000D02*
X105500000Y-63500000D01*
X108713752Y-62598748D02*
X110698748Y-62598748D01*
X105000000Y-66420406D02*
X105000000Y-64000000D01*
X105500000Y-63500000D02*
X108000000Y-63500000D01*
X108000000Y-63500000D02*
X108713752Y-62786248D01*
X92635000Y-70250000D02*
X92450000Y-70435000D01*
X96315000Y-69685000D02*
X95315000Y-69685000D01*
X94750000Y-70250000D02*
X92635000Y-70250000D01*
X95315000Y-69685000D02*
X94750000Y-70250000D01*
X94000000Y-66685000D02*
X93500000Y-66185000D01*
X96315000Y-66685000D02*
X94000000Y-66685000D01*
X93500000Y-66185000D02*
X92450000Y-66185000D01*
X104935000Y-70685000D02*
X103185000Y-70685000D01*
X105935000Y-71685000D02*
X104935000Y-70685000D01*
X107163752Y-71685000D02*
X105935000Y-71685000D01*
X109750000Y-72750000D02*
X110900000Y-72750000D01*
X110900000Y-72750000D02*
X111000000Y-72650000D01*
X108713752Y-71713752D02*
X109750000Y-72750000D01*
X111000000Y-72650000D02*
X113750000Y-72650000D01*
X108713752Y-71685000D02*
X108713752Y-71713752D01*
X107888752Y-70760000D02*
X108713752Y-69935000D01*
X108713752Y-69935000D02*
X109398752Y-69250000D01*
X105949339Y-70760000D02*
X107888752Y-70760000D01*
X110900000Y-69250000D02*
X111000000Y-69350000D01*
X109398752Y-69250000D02*
X110900000Y-69250000D01*
X103185000Y-69685000D02*
X104874339Y-69685000D01*
X104874339Y-69685000D02*
X105949339Y-70760000D01*
X62999479Y-69750000D02*
X63837500Y-69750000D01*
X61775000Y-70974479D02*
X62999479Y-69750000D01*
X61775000Y-73500000D02*
X61775000Y-71500000D01*
X61775000Y-71500000D02*
X61775000Y-70974479D01*
X61825000Y-75250000D02*
X61825000Y-73550000D01*
X63837500Y-67750000D02*
X58649998Y-67750000D01*
X55650000Y-65025000D02*
X55625000Y-65000000D01*
X55650000Y-67049998D02*
X55650000Y-65025000D01*
X56600000Y-68099998D02*
X55650000Y-67149998D01*
X58649998Y-67750000D02*
X58300000Y-68099998D01*
X55650000Y-67149998D02*
X55650000Y-67049998D01*
X58300000Y-68099998D02*
X56600000Y-68099998D01*
X107000000Y-75035000D02*
X107100000Y-74935000D01*
X79315239Y-94795781D02*
X80330000Y-93781020D01*
X63837500Y-70250000D02*
X65250000Y-70250000D01*
X68500000Y-93500000D02*
X68750000Y-93750000D01*
X78363674Y-94795781D02*
X79315239Y-94795781D01*
X80330000Y-93781020D02*
X80330000Y-92750000D01*
X68750000Y-93750000D02*
X77317894Y-93750000D01*
X77317894Y-93750000D02*
X78363674Y-94795781D01*
X63206065Y-71250000D02*
X63837500Y-71250000D01*
X63075000Y-71801000D02*
X64024000Y-72750000D01*
X64331637Y-86945576D02*
X64886061Y-87500000D01*
X80630000Y-90550000D02*
X80630000Y-89750000D01*
X74250000Y-87500000D02*
X77350000Y-90600000D01*
X80580000Y-90600000D02*
X80630000Y-90550000D01*
X64886061Y-87500000D02*
X74250000Y-87500000D01*
X63075000Y-71750000D02*
X63075000Y-71381065D01*
X63075000Y-71381065D02*
X63206065Y-71250000D01*
X77350000Y-90600000D02*
X80580000Y-90600000D01*
X63075000Y-71750000D02*
X63075000Y-71801000D01*
X78156568Y-95295781D02*
X77110787Y-94250000D01*
X59250000Y-67000000D02*
X59750000Y-66500000D01*
X77110787Y-94250000D02*
X68000000Y-94250000D01*
X80930000Y-94259339D02*
X79893558Y-95295781D01*
X61563173Y-66250000D02*
X63837500Y-66250000D01*
X79893558Y-95295781D02*
X78156568Y-95295781D01*
X67250000Y-93500000D02*
X58750000Y-93500000D01*
X61313173Y-66500000D02*
X61563173Y-66250000D01*
X59750000Y-66500000D02*
X61313173Y-66500000D01*
X80930000Y-92750000D02*
X80930000Y-94259339D01*
X68000000Y-94250000D02*
X67250000Y-93500000D01*
X62575000Y-71173959D02*
X62575000Y-72449500D01*
X82279500Y-93918363D02*
X82130000Y-93768863D01*
X76250500Y-94750000D02*
X76500000Y-94999500D01*
X63250000Y-94750000D02*
X76250500Y-94750000D01*
X62575000Y-72449500D02*
X62524500Y-72500000D01*
X82130000Y-93768863D02*
X82130000Y-92750000D01*
X63837500Y-70750000D02*
X62998959Y-70750000D01*
X62998959Y-70750000D02*
X62575000Y-71173959D01*
X82430000Y-88293939D02*
X82331637Y-88195576D01*
X64689339Y-66750000D02*
X63837500Y-66750000D01*
X72590385Y-91000000D02*
X72750000Y-90840385D01*
X68775834Y-91000000D02*
X72590385Y-91000000D01*
X82430000Y-89750000D02*
X82430000Y-88293939D01*
X65137550Y-66301789D02*
X64689339Y-66750000D01*
X67137917Y-89362083D02*
X68775834Y-91000000D01*
X65566070Y-66301789D02*
X65137550Y-66301789D01*
X82730000Y-92050000D02*
X82730000Y-92750000D01*
X64000000Y-88000000D02*
X72125000Y-88000000D01*
X63500000Y-87500000D02*
X64000000Y-88000000D01*
X75775000Y-91650000D02*
X82330000Y-91650000D01*
X82330000Y-91650000D02*
X82730000Y-92050000D01*
X65000000Y-67250000D02*
X65250000Y-67250000D01*
X63837500Y-67250000D02*
X65000000Y-67250000D01*
X72125000Y-88000000D02*
X75775000Y-91650000D01*
X83030000Y-89750000D02*
X83030000Y-88950000D01*
X83283402Y-88696598D02*
X83283402Y-87783402D01*
X69250000Y-86250000D02*
X67750000Y-84750000D01*
X83030000Y-88950000D02*
X83283402Y-88696598D01*
X67750000Y-84750000D02*
X67750000Y-72662500D01*
X83283402Y-87783402D02*
X82750000Y-87250000D01*
X73750000Y-86250000D02*
X69250000Y-86250000D01*
X69029977Y-84029977D02*
X69220023Y-84029977D01*
X73750000Y-88250000D02*
X76650000Y-91150000D01*
X68250000Y-83250000D02*
X69029977Y-84029977D01*
X83330000Y-91942894D02*
X83330000Y-92750000D01*
X68250000Y-72662500D02*
X68250000Y-83250000D01*
X76650000Y-91150000D02*
X82537106Y-91150000D01*
X82537106Y-91150000D02*
X83330000Y-91942894D01*
X68750000Y-82000500D02*
X68750000Y-73000000D01*
X68999500Y-82250000D02*
X68750000Y-82000500D01*
X83630000Y-89750000D02*
X83630000Y-90496830D01*
X83630000Y-90496830D02*
X83286945Y-90839885D01*
X84410376Y-91160376D02*
X83929487Y-91641265D01*
X83930000Y-92000513D02*
X83930000Y-92750000D01*
X69750000Y-64337500D02*
X69750000Y-65750000D01*
X69750000Y-65750000D02*
X70000000Y-66000000D01*
X83929487Y-92000000D02*
X83930000Y-92000513D01*
X83929487Y-91641265D02*
X83929487Y-92000000D01*
X69250000Y-64337500D02*
X69250000Y-66386061D01*
X84230000Y-87568173D02*
X84230000Y-89750000D01*
X69250000Y-66386061D02*
X69081637Y-66554424D01*
X83750000Y-85250000D02*
X83750000Y-87088173D01*
X83750000Y-87088173D02*
X84230000Y-87568173D01*
X84530000Y-92100707D02*
X84530000Y-92750000D01*
X85500000Y-91130707D02*
X84530000Y-92100707D01*
X85500000Y-91000000D02*
X85500000Y-91130707D01*
X68750000Y-65500000D02*
X68250000Y-66000000D01*
X68750000Y-64337500D02*
X68750000Y-65500000D01*
X67250000Y-66217951D02*
X67250000Y-67750000D01*
X86930000Y-92750000D02*
X86930000Y-91320000D01*
X66750000Y-64337500D02*
X66750000Y-65717951D01*
X87230000Y-91020000D02*
X87230000Y-89750000D01*
X86930000Y-91320000D02*
X87230000Y-91020000D01*
X66750000Y-65717951D02*
X67250000Y-66217951D01*
X66250000Y-65925058D02*
X66500000Y-66175058D01*
X89930000Y-92070000D02*
X90250000Y-91750000D01*
X88430000Y-89750000D02*
X88430000Y-90930000D01*
X66250000Y-64337500D02*
X66250000Y-65925058D01*
X89930000Y-92750000D02*
X89930000Y-92070000D01*
X66500000Y-66175058D02*
X66500000Y-68309808D01*
X88430000Y-90930000D02*
X88500000Y-91000000D01*
X66500000Y-68309808D02*
X66249500Y-68560308D01*
X69924099Y-79407038D02*
X69250000Y-78732939D01*
X90810661Y-89750000D02*
X91030331Y-89530331D01*
X90230000Y-90550000D02*
X90230000Y-89750000D01*
X90230000Y-90330661D02*
X90530331Y-90030331D01*
X90230000Y-90550000D02*
X90230000Y-90330661D01*
X69250000Y-78732939D02*
X69250000Y-72662500D01*
X91529977Y-89030685D02*
X91030331Y-89530331D01*
X91000000Y-87250000D02*
X91529977Y-87779977D01*
X88730000Y-92050000D02*
X90230000Y-90550000D01*
X90510331Y-90030331D02*
X90230000Y-89750000D01*
X90230000Y-89750000D02*
X90230000Y-89270000D01*
X90530331Y-90030331D02*
X90810661Y-89750000D01*
X90230000Y-89750000D02*
X90810661Y-89750000D01*
X91030331Y-89530331D02*
X90490331Y-89530331D01*
X91529977Y-87779977D02*
X91529977Y-89030685D01*
X88730000Y-92750000D02*
X88730000Y-92050000D01*
X90530331Y-90030331D02*
X90510331Y-90030331D01*
X90490331Y-89530331D02*
X90230000Y-89270000D01*
X60750000Y-85050000D02*
X59887500Y-85050000D01*
X67250000Y-77000000D02*
X59887500Y-84362500D01*
X59887500Y-84500000D02*
X59887500Y-85050000D01*
X60437500Y-85050000D02*
X59887500Y-84500000D01*
X62503200Y-85753200D02*
X61800000Y-85050000D01*
X59887500Y-84362500D02*
X59887500Y-84500000D01*
X60750000Y-85050000D02*
X60437500Y-85050000D01*
X61800000Y-85050000D02*
X60750000Y-85050000D01*
X62503200Y-91500000D02*
X62503200Y-85753200D01*
X67250000Y-77000000D02*
X67250000Y-72662500D01*
X66750000Y-76500000D02*
X66750000Y-72662500D01*
X60500000Y-86950000D02*
X61450000Y-86950000D01*
X61989453Y-81200593D02*
X62049407Y-81200593D01*
X59963200Y-87025700D02*
X59887500Y-86950000D01*
X59963200Y-87500000D02*
X59963200Y-87486800D01*
X59887500Y-86950000D02*
X60500000Y-86950000D01*
X59963200Y-91500000D02*
X59963200Y-87500000D01*
X59963200Y-87500000D02*
X59963200Y-87025700D01*
X59963200Y-87486800D02*
X60500000Y-86950000D01*
X61450000Y-86950000D02*
X61500000Y-87000000D01*
X62049407Y-81200593D02*
X66750000Y-76500000D01*
X57612500Y-85050000D02*
X57612500Y-84500000D01*
X57050000Y-85050000D02*
X57612500Y-85050000D01*
X57000000Y-85000000D02*
X57050000Y-85050000D01*
X57500000Y-84500000D02*
X57000000Y-85000000D01*
X57612500Y-83576839D02*
X58439339Y-82750000D01*
X57423200Y-91500000D02*
X57423200Y-89673200D01*
X57423200Y-89673200D02*
X57279977Y-89529977D01*
X56000000Y-85000000D02*
X57000000Y-85000000D01*
X57612500Y-84500000D02*
X57500000Y-84500000D01*
X66250000Y-75750000D02*
X66250000Y-72662500D01*
X59250000Y-82750000D02*
X66250000Y-75750000D01*
X57612500Y-84500000D02*
X57612500Y-83576839D01*
X58439339Y-82750000D02*
X59250000Y-82750000D01*
X57500000Y-82250000D02*
X58500000Y-82250000D01*
X55250000Y-84500000D02*
X55625000Y-84125000D01*
X56000000Y-83750000D02*
X55625000Y-84125000D01*
X65750000Y-75310661D02*
X58810661Y-82250000D01*
X56000000Y-83750000D02*
X57500000Y-82250000D01*
X54883200Y-91500000D02*
X54883200Y-90616800D01*
X54883200Y-90616800D02*
X57612500Y-87887500D01*
X65750000Y-72662500D02*
X65750000Y-75310661D01*
X58810661Y-82250000D02*
X58500000Y-82250000D01*
X57612500Y-87887500D02*
X57612500Y-86950000D01*
X107698752Y-66250000D02*
X108763752Y-65185000D01*
X103185000Y-68185000D02*
X104065000Y-68185000D01*
X110277500Y-65185000D02*
X110363752Y-65098748D01*
X108763752Y-65185000D02*
X110277500Y-65185000D01*
X106000000Y-66250000D02*
X107698752Y-66250000D01*
X104065000Y-68185000D02*
X106000000Y-66250000D01*
X52000000Y-82000000D02*
X52500000Y-81500000D01*
X52500000Y-81500000D02*
X55175000Y-81500000D01*
X52000000Y-83053200D02*
X52000000Y-82000000D01*
X55175000Y-81500000D02*
X55250000Y-81575000D01*
X89325000Y-63935000D02*
X95985406Y-63935000D01*
X89325000Y-62185000D02*
X89325000Y-63935000D01*
X95985406Y-63935000D02*
X97500000Y-65449594D01*
X97500000Y-65449594D02*
X97500000Y-66000000D01*
X63837500Y-68250000D02*
X61575000Y-68250000D01*
X61575000Y-68250000D02*
X61075000Y-68750000D01*
X85461142Y-65133528D02*
X80769670Y-69825000D01*
X78000000Y-69825000D02*
X77925000Y-69750000D01*
X96315000Y-67185000D02*
X90476472Y-67185000D01*
X80769670Y-69825000D02*
X78000000Y-69825000D01*
X77925000Y-69750000D02*
X72162500Y-69750000D01*
X88425000Y-65133528D02*
X85461142Y-65133528D01*
X88425000Y-60060000D02*
X88300000Y-59935000D01*
X88425000Y-65133528D02*
X88425000Y-60060000D01*
X90476472Y-67185000D02*
X88425000Y-65133528D01*
X102250000Y-76500000D02*
X102250000Y-77000000D01*
X102250000Y-76750000D02*
X102250000Y-77000000D01*
X102250000Y-78000000D02*
X102250000Y-79935000D01*
X102250000Y-74500000D02*
X102250000Y-75750000D01*
X102250000Y-77000000D02*
X102250000Y-78000000D01*
X102250000Y-76250000D02*
X102250000Y-76500000D01*
X102250000Y-77250000D02*
X102250000Y-78000000D01*
X102000000Y-72870000D02*
X102000000Y-74250000D01*
X101875000Y-76875000D02*
X101500000Y-77250000D01*
X102250000Y-75750000D02*
X102250000Y-76250000D01*
X102000000Y-77250000D02*
X102000000Y-77000000D01*
X101750000Y-77250000D02*
X102250000Y-76750000D01*
X101750000Y-77250000D02*
X102000000Y-77250000D01*
X83500000Y-76000000D02*
X79425000Y-71925000D01*
X77175000Y-71925000D02*
X75500000Y-70250000D01*
X102000000Y-77000000D02*
X101875000Y-76875000D01*
X78000000Y-71925000D02*
X77175000Y-71925000D01*
X102000000Y-74250000D02*
X102250000Y-74500000D01*
X79425000Y-71925000D02*
X78000000Y-71925000D01*
X75500000Y-70250000D02*
X72162500Y-70250000D01*
X102250000Y-76500000D02*
X101875000Y-76875000D01*
X102000000Y-77250000D02*
X102250000Y-77250000D01*
X101500000Y-77250000D02*
X101750000Y-77250000D01*
X106021447Y-68500000D02*
X107342500Y-68500000D01*
X107342500Y-68500000D02*
X108407500Y-67435000D01*
X110507500Y-67435000D02*
X108407500Y-67435000D01*
X103185000Y-69185000D02*
X105336447Y-69185000D01*
X105336447Y-69185000D02*
X106021447Y-68500000D01*
X63500000Y-58500000D02*
X52312500Y-58500000D01*
X67250000Y-60600000D02*
X67250000Y-64337500D01*
X65150000Y-58500000D02*
X67250000Y-60600000D01*
X76875000Y-63375000D02*
X77150000Y-63650000D01*
X77150000Y-63650000D02*
X79000000Y-63650000D01*
X68250000Y-64337500D02*
X68250000Y-63498959D01*
X68741055Y-63007904D02*
X68924668Y-63007904D01*
X80750000Y-80000000D02*
X80750000Y-78000500D01*
X99000000Y-72870000D02*
X99000000Y-75250000D01*
X93250000Y-80250000D02*
X87750000Y-80250000D01*
X68250000Y-63498959D02*
X68741055Y-63007904D01*
X81000000Y-64000000D02*
X80650000Y-63650000D01*
X81250000Y-64000000D02*
X81000000Y-64000000D01*
X80650000Y-63650000D02*
X79000000Y-63650000D01*
X99500000Y-74689339D02*
X100000000Y-75189339D01*
X67750000Y-64337500D02*
X67750000Y-62750000D01*
X100000000Y-75189339D02*
X100000000Y-75250000D01*
X74750000Y-62250000D02*
X76400000Y-62250000D01*
X67750000Y-62750000D02*
X68000000Y-62500000D01*
X93250000Y-81250000D02*
X87750000Y-81250000D01*
X77750000Y-62250000D02*
X76600000Y-62250000D01*
X76400000Y-62250000D02*
X76500000Y-62150000D01*
X79500000Y-78000500D02*
X79500000Y-80250000D01*
X99500000Y-72870000D02*
X99500000Y-74689339D01*
X76600000Y-62250000D02*
X76500000Y-62150000D01*
X82500000Y-82000000D02*
X82250000Y-81750000D01*
X85175500Y-82000000D02*
X82500000Y-82000000D01*
X82500000Y-82000000D02*
X82250000Y-82000000D01*
X95250000Y-59950000D02*
X94050000Y-58750000D01*
X91402695Y-73734197D02*
X90015803Y-73734197D01*
X78750000Y-86000000D02*
X77750000Y-87000000D01*
X82250000Y-81750000D02*
X82250000Y-81500000D01*
X95250000Y-61250000D02*
X95250000Y-61500000D01*
X79430000Y-88680000D02*
X79430000Y-89250000D01*
X82250000Y-82000000D02*
X81750000Y-82000000D01*
X95250000Y-61500500D02*
X94250000Y-62500500D01*
X90015803Y-73734197D02*
X82250000Y-81500000D01*
X97290000Y-82500000D02*
X87250000Y-82500000D01*
X106290000Y-91500000D02*
X97290000Y-82500000D01*
X81750000Y-82000000D02*
X78750000Y-85000000D01*
X82250000Y-81500000D02*
X81750000Y-82000000D01*
X99000000Y-66000000D02*
X99000000Y-63935000D01*
X78750000Y-85000000D02*
X78750000Y-86000000D01*
X82250000Y-81500000D02*
X82250000Y-82000000D01*
X99000000Y-63935000D02*
X98250000Y-63185000D01*
X95250000Y-61250000D02*
X95250000Y-59950000D01*
X77750000Y-87000000D02*
X79430000Y-88680000D01*
X98250000Y-63185000D02*
X96750000Y-63185000D01*
X79430000Y-89750000D02*
X79430000Y-89250000D01*
X85675500Y-82500000D02*
X85175500Y-82000000D01*
X96750000Y-63185000D02*
X95250000Y-61685000D01*
X95250000Y-61250000D02*
X95250000Y-61500500D01*
X70750000Y-77250000D02*
X69750000Y-76250000D01*
X96315000Y-68685000D02*
X92999500Y-68685000D01*
X84750000Y-77250000D02*
X70750000Y-77250000D01*
X86500000Y-75500000D02*
X84750000Y-77250000D01*
X86900500Y-71000000D02*
X86500000Y-71400500D01*
X92999500Y-68685000D02*
X90749500Y-68685000D01*
X86500000Y-71400500D02*
X86500000Y-75500000D01*
X90749500Y-68685000D02*
X90500000Y-68934500D01*
X69750000Y-76250000D02*
X69750000Y-72662500D01*
X93250000Y-74500000D02*
X90309954Y-74500000D01*
X72162500Y-70750000D02*
X73707106Y-70750000D01*
X90309954Y-74500000D02*
X89779977Y-75029977D01*
X96315000Y-72185000D02*
X95565000Y-72185000D01*
X95565000Y-72185000D02*
X93250000Y-74500000D01*
X76250000Y-76750000D02*
X84000000Y-76750000D01*
X84000000Y-76750000D02*
X85750000Y-75000000D01*
X74500000Y-75000000D02*
X76250000Y-76750000D01*
X73707106Y-70750000D02*
X74500000Y-71542894D01*
X74500000Y-71542894D02*
X74500000Y-75000000D01*
X92207107Y-77000000D02*
X92922107Y-76285000D01*
X74000000Y-76500000D02*
X74000000Y-71750000D01*
X92922107Y-76285000D02*
X100215000Y-76285000D01*
X87242227Y-78317727D02*
X88559954Y-77000000D01*
X73500000Y-71250000D02*
X72162500Y-71250000D01*
X74000000Y-71750000D02*
X73500000Y-71250000D01*
X88559954Y-77000000D02*
X92207107Y-77000000D01*
X101000000Y-75500000D02*
X101000000Y-72870000D01*
D49*
X58499998Y-69249998D02*
X57350000Y-69249998D01*
D48*
X57350000Y-70650000D02*
X57350000Y-69249998D01*
X57175000Y-70825000D02*
X57350000Y-70650000D01*
D49*
X58500000Y-69250000D02*
X58499998Y-69249998D01*
D48*
X57175000Y-71500000D02*
X57175000Y-70825000D01*
D49*
X59175000Y-68750000D02*
X59000000Y-68750000D01*
X59000000Y-68750000D02*
X58500000Y-69250000D01*
D48*
X87500000Y-75500000D02*
X84375000Y-78625000D01*
X82750000Y-78750000D02*
X83750000Y-78750000D01*
X84250000Y-78750000D02*
X84375000Y-78625000D01*
X76050000Y-92750000D02*
X76000000Y-92750000D01*
X79130000Y-93100000D02*
X79130000Y-92750000D01*
X77025000Y-92750000D02*
X77575000Y-93300000D01*
X84375000Y-78625000D02*
X84000000Y-79000000D01*
X82000000Y-79500000D02*
X82750000Y-78750000D01*
X96315000Y-67685000D02*
X89200000Y-67685000D01*
X83750000Y-78750000D02*
X84000000Y-79000000D01*
X77575000Y-93300000D02*
X78930000Y-93300000D01*
X83750000Y-78750000D02*
X84250000Y-78750000D01*
X70750000Y-84500000D02*
X69845023Y-85404977D01*
X78930000Y-93300000D02*
X79130000Y-93100000D01*
X87650000Y-68235000D02*
X88700000Y-67185000D01*
X76000000Y-92750000D02*
X72000000Y-88750000D01*
X87650000Y-68235000D02*
X87650000Y-72600000D01*
X87650000Y-72600000D02*
X87500000Y-72750000D01*
X87500000Y-72750000D02*
X87500000Y-75500000D01*
X78500000Y-84500000D02*
X70750000Y-84500000D01*
X89200000Y-67685000D02*
X88700000Y-67185000D01*
X84000000Y-79000000D02*
X78500000Y-84500000D01*
X76050000Y-92750000D02*
X77025000Y-92750000D01*
X72000000Y-88750000D02*
X71250000Y-88750000D01*
X90524500Y-95250500D02*
X93000000Y-92775000D01*
X116000000Y-63500000D02*
X114000000Y-65500000D01*
X113800000Y-62950000D02*
X113750000Y-62900000D01*
X113100000Y-62900000D02*
X112013752Y-63986248D01*
X85730000Y-93980000D02*
X87000500Y-95250500D01*
X112013752Y-63986248D02*
X112013752Y-65098748D01*
X87000500Y-95250500D02*
X90524500Y-95250500D01*
X116000000Y-62950000D02*
X113800000Y-62950000D01*
X85730000Y-92750000D02*
X85730000Y-93980000D01*
X93000000Y-92775000D02*
X107555000Y-92775000D01*
X114000000Y-65500000D02*
X114000000Y-67000000D01*
X116000000Y-62950000D02*
X116000000Y-63500000D01*
X113750000Y-62900000D02*
X113100000Y-62900000D01*
X107555000Y-92775000D02*
X108830000Y-91500000D01*
X86425000Y-85625000D02*
X86425000Y-83500000D01*
X86675000Y-83250000D02*
X86425000Y-83000000D01*
X97092894Y-74385000D02*
X95850000Y-74385000D01*
X86675000Y-83250000D02*
X87000000Y-83250000D01*
X86750000Y-83250000D02*
X86675000Y-83250000D01*
X98000000Y-72870000D02*
X98000000Y-73477894D01*
X85000000Y-88250000D02*
X85000000Y-87050000D01*
X92565000Y-75935000D02*
X91050000Y-75935000D01*
X86425000Y-83500000D02*
X86425000Y-83250000D01*
X93265000Y-75235000D02*
X92565000Y-75935000D01*
X86425000Y-78075000D02*
X88565000Y-75935000D01*
X88565000Y-75935000D02*
X91050000Y-75935000D01*
X103750000Y-91500000D02*
X95500000Y-83250000D01*
X85000000Y-87050000D02*
X86425000Y-85625000D01*
X95500000Y-83250000D02*
X87000000Y-83250000D01*
X85430000Y-88680000D02*
X85000000Y-88250000D01*
X86425000Y-83250000D02*
X86425000Y-83000000D01*
X86750000Y-83250000D02*
X86425000Y-83250000D01*
X86425000Y-83000000D02*
X86425000Y-78075000D01*
X87000000Y-83250000D02*
X86750000Y-83250000D01*
X95000000Y-75235000D02*
X93265000Y-75235000D01*
X86425000Y-83500000D02*
X86675000Y-83250000D01*
X95850000Y-74385000D02*
X95000000Y-75235000D01*
X98000000Y-73477894D02*
X97092894Y-74385000D01*
X85430000Y-89750000D02*
X85430000Y-88680000D01*
X116050000Y-69350000D02*
X116250000Y-69550000D01*
X87250000Y-87500000D02*
X87250000Y-87025000D01*
X116250000Y-69550000D02*
X117700000Y-69550000D01*
X116000000Y-68500000D02*
X116000000Y-67000000D01*
X86030000Y-89750000D02*
X86030000Y-88720000D01*
X96750000Y-91939339D02*
X91310661Y-86500000D01*
X96750000Y-92025500D02*
X96750000Y-91939339D01*
X87775000Y-86500000D02*
X87250000Y-87025000D01*
X117700000Y-69550000D02*
X117750000Y-69500000D01*
X116250000Y-68750000D02*
X116000000Y-68500000D01*
X91310661Y-86500000D02*
X87775000Y-86500000D01*
X113750000Y-69350000D02*
X113750000Y-69171248D01*
X113750000Y-69171248D02*
X112013752Y-67435000D01*
X113910000Y-91500000D02*
X111885500Y-93524500D01*
X111885500Y-93524500D02*
X98750000Y-93524500D01*
X116250000Y-69550000D02*
X116250000Y-68750000D01*
X113750000Y-69350000D02*
X116050000Y-69350000D01*
X86030000Y-88720000D02*
X87250000Y-87500000D01*
X92000000Y-62750000D02*
X91564500Y-63185500D01*
X90750000Y-93750000D02*
X89680000Y-93750000D01*
X90072871Y-88720023D02*
X89630000Y-89162894D01*
X87154977Y-94345023D02*
X87154977Y-94034862D01*
X81830000Y-89080000D02*
X81500000Y-88750000D01*
X92000000Y-62750000D02*
X92000000Y-62250000D01*
X92000000Y-62750000D02*
X92500000Y-62750000D01*
X81230000Y-89750000D02*
X81230000Y-89020000D01*
X98000000Y-65242488D02*
X96007512Y-63250000D01*
X98000000Y-66000000D02*
X98000000Y-65242488D01*
X87154977Y-94034862D02*
X87530000Y-93659839D01*
X89630000Y-89162894D02*
X89630000Y-89750000D01*
X92000000Y-62250000D02*
X91875000Y-62125000D01*
X80025000Y-87000000D02*
X80000000Y-87025000D01*
X92500000Y-62750000D02*
X92625000Y-62875000D01*
X91564500Y-63185500D02*
X91500000Y-63185500D01*
X81230000Y-89020000D02*
X81500000Y-88750000D01*
X92250000Y-62500000D02*
X91875000Y-62125000D01*
X92250000Y-62500000D02*
X92000000Y-62750000D01*
X89330000Y-93400000D02*
X89330000Y-92750000D01*
X93000000Y-63250000D02*
X92625000Y-62875000D01*
X87830000Y-88250000D02*
X87830000Y-89750000D01*
X80030000Y-89750000D02*
X80030000Y-87055000D01*
X92625000Y-62875000D02*
X92250000Y-62500000D01*
X81250000Y-87000000D02*
X80025000Y-87000000D01*
X89680000Y-93750000D02*
X89330000Y-93400000D01*
X81830000Y-89750000D02*
X81830000Y-89080000D01*
X96007512Y-63250000D02*
X93000000Y-63250000D01*
X90779977Y-88720023D02*
X90072871Y-88720023D01*
X87530000Y-93659839D02*
X87530000Y-92750000D01*
X80030000Y-87055000D02*
X80000000Y-87025000D01*
X98500000Y-70685000D02*
X99750000Y-69435000D01*
X101500000Y-72870000D02*
X101500000Y-71185000D01*
X101500000Y-71185000D02*
X99750000Y-69435000D01*
X89815000Y-68185000D02*
X88700000Y-69300000D01*
X97250000Y-75235000D02*
X97250000Y-74935000D01*
X98500000Y-68185000D02*
X98435000Y-68185000D01*
X96315000Y-68185000D02*
X89815000Y-68185000D01*
X102000000Y-71685000D02*
X99750000Y-69435000D01*
X109215000Y-73750000D02*
X110400000Y-74935000D01*
X103185000Y-71685000D02*
X102000000Y-71685000D01*
X110400000Y-74935000D02*
X112350000Y-74935000D01*
X99750000Y-69435000D02*
X98500000Y-68185000D01*
X98500000Y-73685000D02*
X98500000Y-72870000D01*
X98500000Y-72870000D02*
X98500000Y-70685000D01*
X97250000Y-74935000D02*
X98500000Y-73685000D01*
X107000000Y-73750000D02*
X109215000Y-73750000D01*
X103185000Y-71685000D02*
X104935000Y-71685000D01*
X104935000Y-71685000D02*
X107000000Y-73750000D01*
X103185000Y-71185000D02*
X101500000Y-71185000D01*
X88700000Y-69300000D02*
X88700000Y-69435000D01*
G04 #@! TA.AperFunction,Conductor*
G36*
X99752274Y-58815229D02*
G01*
X99905124Y-58861084D01*
X99957173Y-58892173D01*
X101563181Y-60498181D01*
X101590061Y-60538409D01*
X101599500Y-60585862D01*
X101599500Y-62864111D01*
X101588156Y-62915925D01*
X101556198Y-62958259D01*
X101083159Y-63363720D01*
X101037787Y-63388434D01*
X101015918Y-63390165D01*
X101016185Y-63392187D01*
X100843237Y-63414956D01*
X100697159Y-63475463D01*
X100571717Y-63571717D01*
X100475464Y-63697158D01*
X100414956Y-63843237D01*
X100407317Y-63901258D01*
X100393403Y-63944143D01*
X100365077Y-63979218D01*
X100125000Y-64185000D01*
X100125000Y-66436000D01*
X100108387Y-66498000D01*
X100063000Y-66543387D01*
X100001000Y-66560000D01*
X99499000Y-66560000D01*
X99437000Y-66543387D01*
X99391613Y-66498000D01*
X99375000Y-66436000D01*
X99375000Y-63810000D01*
X98153741Y-62344489D01*
X98132406Y-62307319D01*
X98125000Y-62265106D01*
X98125000Y-58934000D01*
X98141613Y-58872000D01*
X98187000Y-58826613D01*
X98249000Y-58810000D01*
X99716643Y-58810000D01*
X99752274Y-58815229D01*
G37*
G04 #@! TD.AperFunction*
G04 #@! TA.AperFunction,Conductor*
G36*
X105496595Y-72758638D02*
G01*
X105535731Y-72783349D01*
X105563209Y-72808995D01*
X105566283Y-72811965D01*
X106717361Y-73963043D01*
X106733489Y-73982903D01*
X106738563Y-73990669D01*
X106761473Y-74008500D01*
X106772492Y-74018232D01*
X106781120Y-74024391D01*
X106788359Y-74029559D01*
X106792420Y-74032587D01*
X106830874Y-74062517D01*
X106830876Y-74062517D01*
X106836775Y-74067109D01*
X106890593Y-74083131D01*
X106895452Y-74084687D01*
X106922264Y-74093892D01*
X106925127Y-74094875D01*
X106969468Y-74121504D01*
X109210607Y-76213233D01*
X109239726Y-76254464D01*
X109250000Y-76303884D01*
X109250000Y-78876000D01*
X109233387Y-78938000D01*
X109188000Y-78983387D01*
X109126000Y-79000000D01*
X105124000Y-79000000D01*
X105062000Y-78983387D01*
X105016613Y-78938000D01*
X105000000Y-78876000D01*
X105000000Y-75376909D01*
X105006581Y-75337049D01*
X105023400Y-75305582D01*
X105024534Y-75302842D01*
X105024536Y-75302841D01*
X105085044Y-75156762D01*
X105105682Y-75000000D01*
X105085044Y-74843238D01*
X105024536Y-74697159D01*
X105024535Y-74697158D01*
X105023400Y-74694417D01*
X105006581Y-74662951D01*
X105000000Y-74623091D01*
X105000000Y-72874000D01*
X105016613Y-72812000D01*
X105062000Y-72766613D01*
X105124000Y-72750000D01*
X105451124Y-72750000D01*
X105496595Y-72758638D01*
G37*
G04 #@! TD.AperFunction*
G04 #@! TA.AperFunction,Conductor*
G36*
X99742147Y-55514672D02*
G01*
X99786811Y-55555217D01*
X100750000Y-57000000D01*
X100749999Y-57000000D01*
X100802395Y-57000322D01*
X103309479Y-57015743D01*
X103371092Y-57032573D01*
X103416157Y-57077836D01*
X103432715Y-57139524D01*
X103436356Y-59222613D01*
X103419537Y-59285185D01*
X103373455Y-59330732D01*
X101832081Y-60203522D01*
X101781100Y-60219207D01*
X101728246Y-60212023D01*
X101683301Y-60183301D01*
X100250000Y-58749999D01*
X98394899Y-58193469D01*
X97838367Y-58026510D01*
X97792432Y-58001136D01*
X97761105Y-57959032D01*
X97750000Y-57907741D01*
X97750000Y-55624000D01*
X97766613Y-55562000D01*
X97812000Y-55516613D01*
X97874000Y-55500000D01*
X99683637Y-55500000D01*
X99742147Y-55514672D01*
G37*
G04 #@! TD.AperFunction*
M02*
