G04 #@! TF.GenerationSoftware,KiCad,Pcbnew,7.0.1*
G04 #@! TF.CreationDate,2023-04-26T22:36:59+02:00*
G04 #@! TF.ProjectId,ED060SC4_SPI_driver_board,45443036-3053-4433-945f-5350495f6472,rev?*
G04 #@! TF.SameCoordinates,Original*
G04 #@! TF.FileFunction,Copper,L4,Bot*
G04 #@! TF.FilePolarity,Positive*
%FSLAX46Y46*%
G04 Gerber Fmt 4.6, Leading zero omitted, Abs format (unit mm)*
G04 Created by KiCad (PCBNEW 7.0.1) date 2023-04-26 22:36:59*
%MOMM*%
%LPD*%
G01*
G04 APERTURE LIST*
G04 #@! TA.AperFunction,ComponentPad*
%ADD10R,1.700000X1.700000*%
G04 #@! TD*
G04 #@! TA.AperFunction,ComponentPad*
%ADD11O,1.700000X1.700000*%
G04 #@! TD*
G04 #@! TA.AperFunction,ComponentPad*
%ADD12C,0.600000*%
G04 #@! TD*
G04 #@! TA.AperFunction,ComponentPad*
%ADD13R,1.308000X1.308000*%
G04 #@! TD*
G04 #@! TA.AperFunction,ComponentPad*
%ADD14C,1.308000*%
G04 #@! TD*
G04 #@! TA.AperFunction,ComponentPad*
%ADD15O,2.460000X1.230000*%
G04 #@! TD*
G04 #@! TA.AperFunction,ViaPad*
%ADD16C,0.800000*%
G04 #@! TD*
G04 #@! TA.AperFunction,Conductor*
%ADD17C,0.300000*%
G04 #@! TD*
G04 #@! TA.AperFunction,Conductor*
%ADD18C,0.250000*%
G04 #@! TD*
G04 APERTURE END LIST*
D10*
X110830000Y-91500000D03*
D11*
X108290000Y-91500000D03*
X105750000Y-91500000D03*
X103210000Y-91500000D03*
X100670000Y-91500000D03*
X98130000Y-91500000D03*
X83070000Y-54975000D03*
X80530000Y-54975000D03*
X77990000Y-54975000D03*
D10*
X75450000Y-54975000D03*
D12*
X101655000Y-67530000D03*
X101528000Y-71340000D03*
X101528000Y-70070000D03*
X101528000Y-68800000D03*
X100385000Y-71340000D03*
X100385000Y-70070000D03*
X100385000Y-68800000D03*
X100385000Y-67530000D03*
X99115000Y-71340000D03*
X99115000Y-70070000D03*
X99115000Y-68800000D03*
X99115000Y-67530000D03*
X97845000Y-71340000D03*
X97845000Y-70070000D03*
X97845000Y-68800000D03*
X97845000Y-67530000D03*
D13*
X51250000Y-61250000D03*
D14*
X51250000Y-63250000D03*
X51250000Y-65250000D03*
D15*
X51250000Y-59050000D03*
X51250000Y-67450000D03*
D10*
X65043200Y-91500000D03*
D11*
X62503200Y-91500000D03*
X59963200Y-91500000D03*
X57423200Y-91500000D03*
X54883200Y-91500000D03*
X52343200Y-91500000D03*
X67830000Y-55000000D03*
X65290000Y-55000000D03*
X62750000Y-55000000D03*
D10*
X60210000Y-55000000D03*
D11*
X114000000Y-86750000D03*
D10*
X114000000Y-84210000D03*
D16*
X70500000Y-69250000D03*
X95000000Y-91750000D03*
X96000000Y-93750000D03*
X98000000Y-89500000D03*
X115500000Y-75000000D03*
X107000000Y-82000000D03*
X58750000Y-79750000D03*
X68250000Y-86500000D03*
X70250000Y-78000000D03*
X85500000Y-69000000D03*
X88142311Y-94500500D03*
X54250000Y-70000000D03*
X79004578Y-94045781D03*
X104980746Y-68435500D03*
X59500000Y-61500000D03*
X54250000Y-69000000D03*
X59000000Y-71500000D03*
X110250000Y-87750000D03*
X59000000Y-73500000D03*
X57979500Y-76250000D03*
X56500000Y-63500000D03*
X104250000Y-60750000D03*
X71000000Y-76250000D03*
X81515835Y-57484165D03*
X86500000Y-64000000D03*
X85500000Y-70000000D03*
X93250000Y-59815000D03*
X95500000Y-78250000D03*
X65750000Y-60250000D03*
X54500000Y-71500000D03*
X89750000Y-88000000D03*
X87250000Y-84250000D03*
X61408023Y-70281502D03*
X97000000Y-60250000D03*
X85500000Y-66750000D03*
X76500000Y-87000000D03*
X106000000Y-65250000D03*
X57000000Y-65500000D03*
X89500000Y-71000000D03*
X94499500Y-69440546D03*
X101000000Y-64000000D03*
X82000000Y-83000500D03*
X93000000Y-90000000D03*
X94499500Y-71250000D03*
X89425713Y-65074287D03*
X69750000Y-92250000D03*
X95750000Y-65000000D03*
X61750000Y-78250000D03*
X65529977Y-62720023D03*
X105874954Y-67435000D03*
X106000000Y-82000000D03*
X61190046Y-86000000D03*
X55250000Y-78750000D03*
X108000000Y-82000000D03*
X106042214Y-62599364D03*
X85000000Y-84250000D03*
X104610100Y-58939526D03*
X61000000Y-62750000D03*
X97500000Y-78250000D03*
X116500000Y-59750000D03*
X106000000Y-69750000D03*
X54750000Y-88250000D03*
X85500000Y-67750000D03*
X89750000Y-72750000D03*
X58000000Y-65500000D03*
X86500000Y-62250000D03*
X117750000Y-71500000D03*
X69250000Y-57000000D03*
X103000000Y-78000000D03*
X115500000Y-59750000D03*
X81500000Y-94750000D03*
X76250000Y-66250000D03*
X58750000Y-83500000D03*
X104750000Y-55000000D03*
X79250000Y-68000000D03*
X55250000Y-77287500D03*
X92750000Y-73750000D03*
X97970023Y-63964977D03*
X82484165Y-62765835D03*
X62250000Y-60250000D03*
X59000000Y-77000000D03*
X59750000Y-65500000D03*
X70801331Y-61770500D03*
X79250000Y-73750000D03*
X75250000Y-60500000D03*
X72500000Y-76250000D03*
X76250000Y-65250497D03*
X103000000Y-55000000D03*
X78750000Y-61000000D03*
X64500000Y-60250000D03*
X104500000Y-75000000D03*
X101000000Y-55000000D03*
X102000000Y-55000000D03*
X103500000Y-63185000D03*
X100000000Y-63185000D03*
X68500000Y-93500000D03*
X65270500Y-70750000D03*
X64024000Y-72750000D03*
X64331637Y-86945576D03*
X59250000Y-67000000D03*
X59750000Y-93500000D03*
X82279500Y-93918363D03*
X63250000Y-94750000D03*
X62524500Y-72500000D03*
X76500000Y-94999500D03*
X82331637Y-88195576D03*
X65566070Y-66301789D03*
X68775834Y-91000000D03*
X72750000Y-90840385D03*
X65250000Y-67250000D03*
X63500000Y-87500000D03*
X82750000Y-87250000D03*
X74250000Y-86250000D03*
X69220023Y-84029977D03*
X73750000Y-88250000D03*
X83286945Y-90839885D03*
X68999500Y-82250000D03*
X70000000Y-66000000D03*
X84410376Y-91160376D03*
X83750000Y-85250000D03*
X69081637Y-66554424D03*
X85500000Y-91000000D03*
X68250000Y-66000000D03*
X86930000Y-91320000D03*
X67250000Y-67750000D03*
X90250000Y-91750000D03*
X88500000Y-91000000D03*
X66249500Y-68560308D03*
X69924099Y-79407038D03*
X91000000Y-87250000D03*
X61500000Y-87000000D03*
X61989453Y-81200593D03*
X56000000Y-85000000D03*
X57279977Y-89529977D03*
X55185004Y-84456670D03*
X55750000Y-87000000D03*
X88559954Y-78059954D03*
X83500000Y-76000000D03*
X76875000Y-63375000D03*
X80750000Y-78000500D03*
X93250000Y-80250000D03*
X68924668Y-63007904D03*
X81250000Y-64000000D03*
X99000000Y-75250000D03*
X87750000Y-80250000D03*
X80750000Y-80000000D03*
X100000000Y-75250000D03*
X87750000Y-81250000D03*
X68000000Y-62500000D03*
X79500000Y-80250000D03*
X77750000Y-62250000D03*
X74750000Y-62250000D03*
X93250000Y-81250000D03*
X79500000Y-78000500D03*
X94250000Y-62500500D03*
X87250000Y-82500000D03*
X85675500Y-82500000D03*
X91402695Y-73734197D03*
X90500000Y-79000000D03*
X85484165Y-76484165D03*
X86900500Y-71000000D03*
X90500000Y-68934500D03*
X85750000Y-75000000D03*
X89779977Y-75029977D03*
X100500000Y-79500000D03*
X87242227Y-78317727D03*
X74000000Y-76500000D03*
X101234057Y-76484273D03*
X71250000Y-88750000D03*
X82000000Y-79500000D03*
X69493114Y-85024784D03*
X114000000Y-67000000D03*
X117750000Y-69500000D03*
X81500000Y-88750000D03*
X90779977Y-88720023D03*
X87154977Y-94345023D03*
X91500000Y-63185500D03*
X90750000Y-93750000D03*
X91500000Y-85500000D03*
X87830000Y-88250000D03*
X81250000Y-87000000D03*
D17*
X65270500Y-70750000D02*
X65500000Y-70979500D01*
X65500000Y-88784827D02*
X67500000Y-90784827D01*
X67500000Y-92500000D02*
X68500000Y-93500000D01*
X65500000Y-70979500D02*
X65500000Y-88784827D01*
X67500000Y-90784827D02*
X67500000Y-92500000D01*
D18*
X108290000Y-91500000D02*
X106750000Y-93040000D01*
X96000000Y-90000000D02*
X92750000Y-86750000D01*
X106750000Y-93040000D02*
X97040000Y-93040000D01*
X90500000Y-85497021D02*
X90500000Y-81000000D01*
X97040000Y-93040000D02*
X96000000Y-92000000D01*
X96000000Y-92000000D02*
X96000000Y-90000000D01*
X92750000Y-86750000D02*
X91752979Y-86750000D01*
X91752979Y-86750000D02*
X90500000Y-85497021D01*
X90500000Y-81000000D02*
X89000000Y-79500000D01*
X89000000Y-79500000D02*
X82000000Y-79500000D01*
X105750000Y-91500000D02*
X109545000Y-87705000D01*
X109545000Y-87705000D02*
X109545000Y-71455000D01*
X109545000Y-71455000D02*
X114000000Y-67000000D01*
X96000000Y-93750000D02*
X95000000Y-92750000D01*
X95000000Y-92750000D02*
X95000000Y-91750000D01*
X110830000Y-91500000D02*
X111500000Y-90830000D01*
X111500000Y-90830000D02*
X111500000Y-74500000D01*
X111500000Y-74500000D02*
X116500000Y-69500000D01*
X116500000Y-69500000D02*
X117750000Y-69500000D01*
D17*
X103500000Y-63185000D02*
X100000000Y-63185000D01*
X64331637Y-86945576D02*
X64024000Y-86637939D01*
X64024000Y-86637939D02*
X64024000Y-72750000D01*
X57250000Y-83060661D02*
X57250000Y-69000000D01*
X58750000Y-84560661D02*
X57250000Y-83060661D01*
X58750000Y-92500000D02*
X58750000Y-84560661D01*
X57250000Y-69000000D02*
X59250000Y-67000000D01*
X59750000Y-93500000D02*
X58750000Y-92500000D01*
X82279500Y-93918363D02*
X79937821Y-93918363D01*
X79315239Y-93295781D02*
X78203719Y-93295781D01*
X60500000Y-81250000D02*
X60500000Y-74524500D01*
X63250000Y-94750000D02*
X61250000Y-92750000D01*
X60500000Y-74524500D02*
X62524500Y-72500000D01*
X61250000Y-91089743D02*
X60440046Y-90279789D01*
X60440046Y-81309954D02*
X60500000Y-81250000D01*
X60440046Y-90279789D02*
X60440046Y-81309954D01*
X79937821Y-93918363D02*
X79315239Y-93295781D01*
X61250000Y-92750000D02*
X61250000Y-91089743D01*
X78203719Y-93295781D02*
X76500000Y-94999500D01*
X68775834Y-91000000D02*
X66000000Y-88224166D01*
X72750000Y-90840385D02*
X72909615Y-91000000D01*
X82136061Y-88000000D02*
X82331637Y-88195576D01*
X77750000Y-91000000D02*
X80750000Y-88000000D01*
X65500000Y-69439339D02*
X65500000Y-68060661D01*
X65500000Y-68060661D02*
X66000000Y-67560661D01*
X66000000Y-88224166D02*
X66000000Y-69939339D01*
X80750000Y-88000000D02*
X82136061Y-88000000D01*
X66000000Y-66735719D02*
X65566070Y-66301789D01*
X66000000Y-69939339D02*
X65500000Y-69439339D01*
X72909615Y-91000000D02*
X77750000Y-91000000D01*
X66000000Y-67560661D02*
X66000000Y-66735719D01*
X63500000Y-87500000D02*
X63274500Y-87274500D01*
X63274500Y-87274500D02*
X63274500Y-69225500D01*
X63274500Y-69225500D02*
X65250000Y-67250000D01*
X82750000Y-86896445D02*
X82750000Y-87250000D01*
X74250000Y-86250000D02*
X82103555Y-86250000D01*
X82103555Y-86250000D02*
X82750000Y-86896445D01*
X69529977Y-84029977D02*
X69220023Y-84029977D01*
X73750000Y-88250000D02*
X69529977Y-84029977D01*
X69000000Y-82250500D02*
X69000000Y-82750000D01*
X69000000Y-82750000D02*
X71500000Y-85250000D01*
X71500000Y-85250000D02*
X81810661Y-85250000D01*
X83500000Y-90626830D02*
X83286945Y-90839885D01*
X83500000Y-86939339D02*
X83500000Y-90626830D01*
X68999500Y-82250000D02*
X69000000Y-82250500D01*
X81810661Y-85250000D02*
X83500000Y-86939339D01*
X68000000Y-68060661D02*
X68000000Y-67439339D01*
X67500000Y-87250000D02*
X67500000Y-68560661D01*
X69250000Y-65250000D02*
X70000000Y-66000000D01*
X67500000Y-66939339D02*
X67500000Y-65689339D01*
X67500000Y-68560661D02*
X68000000Y-68060661D01*
X68000000Y-67439339D02*
X67500000Y-66939339D01*
X83820752Y-91750000D02*
X72000000Y-91750000D01*
X67939339Y-65250000D02*
X69250000Y-65250000D01*
X72000000Y-91750000D02*
X67500000Y-87250000D01*
X84410376Y-91160376D02*
X83820752Y-91750000D01*
X67500000Y-65689339D02*
X67939339Y-65250000D01*
X70250000Y-80792894D02*
X70250000Y-82500000D01*
X69081637Y-79624531D02*
X69853553Y-80396447D01*
X69081637Y-66554424D02*
X69081637Y-79624531D01*
X75750000Y-84250000D02*
X82750000Y-84250000D01*
X72000000Y-84250000D02*
X75750000Y-84250000D01*
X70250000Y-82500000D02*
X72000000Y-84250000D01*
X69853553Y-80396447D02*
X70250000Y-80792894D01*
X82750000Y-84250000D02*
X83750000Y-85250000D01*
X69749500Y-80999500D02*
X68500000Y-79750000D01*
X71750000Y-84750000D02*
X69749500Y-82749500D01*
X85250000Y-87982233D02*
X82017767Y-84750000D01*
X82017767Y-84750000D02*
X71750000Y-84750000D01*
X68250000Y-66783448D02*
X68250000Y-66000000D01*
X85250000Y-90750000D02*
X85250000Y-87982233D01*
X85500000Y-91000000D02*
X85250000Y-90750000D01*
X69749500Y-82749500D02*
X69749500Y-80999500D01*
X68500000Y-67033448D02*
X68250000Y-66783448D01*
X68500000Y-79750000D02*
X68500000Y-67033448D01*
X67250000Y-67750000D02*
X67000000Y-68000000D01*
X71792894Y-92250000D02*
X86000000Y-92250000D01*
X67000000Y-87457106D02*
X71792894Y-92250000D01*
X67000000Y-68000000D02*
X67000000Y-87457106D01*
X86000000Y-92250000D02*
X86930000Y-91320000D01*
X66500000Y-87664212D02*
X71585788Y-92750000D01*
X90250000Y-91750000D02*
X89500000Y-91000000D01*
X86750000Y-92750000D02*
X88500000Y-91000000D01*
X66500000Y-68810808D02*
X66500000Y-87664212D01*
X71585788Y-92750000D02*
X86750000Y-92750000D01*
X66249500Y-68560308D02*
X66500000Y-68810808D01*
X89500000Y-91000000D02*
X88500000Y-91000000D01*
X91000000Y-87250000D02*
X86810661Y-87250000D01*
X70750000Y-80232939D02*
X69924099Y-79407038D01*
X70750000Y-82250000D02*
X70750000Y-80232939D01*
X72250000Y-83750000D02*
X70750000Y-82250000D01*
X83310661Y-83750000D02*
X72250000Y-83750000D01*
X86810661Y-87250000D02*
X83310661Y-83750000D01*
X62038860Y-86461140D02*
X61500000Y-87000000D01*
X61989453Y-81200593D02*
X62038860Y-81250000D01*
X62038860Y-81250000D02*
X62038860Y-86461140D01*
X56750000Y-89000000D02*
X56750000Y-85439339D01*
X56310661Y-85000000D02*
X56000000Y-85000000D01*
X56750000Y-85439339D02*
X56310661Y-85000000D01*
X57279977Y-89529977D02*
X56750000Y-89000000D01*
D18*
X55750000Y-87000000D02*
X55185004Y-86435004D01*
X55185004Y-86435004D02*
X55185004Y-84456670D01*
D17*
X87750000Y-77250000D02*
X88559954Y-78059954D01*
X83500000Y-76000000D02*
X84750000Y-77250000D01*
X84750000Y-77250000D02*
X87750000Y-77250000D01*
X99000000Y-77810661D02*
X96560661Y-80250000D01*
X81000000Y-80250000D02*
X87750000Y-80250000D01*
X99000000Y-75250000D02*
X99000000Y-77810661D01*
X80750000Y-78000500D02*
X81250000Y-77500500D01*
X80750000Y-80000000D02*
X81000000Y-80250000D01*
X76875000Y-63375000D02*
X76507904Y-63007904D01*
X96560661Y-80250000D02*
X93250000Y-80250000D01*
X76507904Y-63007904D02*
X68924668Y-63007904D01*
X81250000Y-77500500D02*
X81250000Y-64000000D01*
X100000000Y-78000000D02*
X96750000Y-81250000D01*
X68222096Y-62277904D02*
X69227044Y-62277904D01*
X69449140Y-62500000D02*
X74500000Y-62500000D01*
X79500000Y-78000500D02*
X80000000Y-77500500D01*
X74500000Y-62500000D02*
X74750000Y-62250000D01*
X69227044Y-62277904D02*
X69449140Y-62500000D01*
X80500000Y-81250000D02*
X87750000Y-81250000D01*
X79500000Y-80250000D02*
X80500000Y-81250000D01*
X96750000Y-81250000D02*
X93250000Y-81250000D01*
X80000000Y-64500000D02*
X77750000Y-62250000D01*
X80000000Y-77500500D02*
X80000000Y-64500000D01*
X100000000Y-75250000D02*
X100000000Y-78000000D01*
X68000000Y-62500000D02*
X68222096Y-62277904D01*
X91402695Y-73734197D02*
X91402695Y-73597305D01*
X87250000Y-82500000D02*
X85675500Y-82500000D01*
X91402695Y-73597305D02*
X93750000Y-71250000D01*
X93750000Y-71250000D02*
X93750000Y-63000500D01*
X93750000Y-63000500D02*
X94250000Y-62500500D01*
X88016541Y-76484165D02*
X85484165Y-76484165D01*
X90500000Y-79000000D02*
X90500000Y-78967624D01*
X90500000Y-78967624D02*
X88016541Y-76484165D01*
X88815500Y-68934500D02*
X90500000Y-68934500D01*
X86900500Y-70849500D02*
X88815500Y-68934500D01*
X86900500Y-71000000D02*
X86900500Y-70849500D01*
X85750000Y-75000000D02*
X89750000Y-75000000D01*
X89750000Y-75000000D02*
X89779977Y-75029977D01*
X86809954Y-78750000D02*
X76000000Y-78750000D01*
X87242227Y-78317727D02*
X86809954Y-78750000D01*
X76000000Y-78750000D02*
X74000000Y-76750000D01*
X100500000Y-77218330D02*
X101234057Y-76484273D01*
X74000000Y-76750000D02*
X74000000Y-76500000D01*
X100500000Y-79500000D02*
X100500000Y-77218330D01*
X71250000Y-86781670D02*
X71250000Y-88750000D01*
X69493114Y-85024784D02*
X71250000Y-86781670D01*
X90652695Y-73423536D02*
X91500000Y-72576231D01*
X91500000Y-85500000D02*
X91500000Y-74892163D01*
X91500000Y-72576231D02*
X91500000Y-63185500D01*
X91500000Y-74892163D02*
X90652695Y-74044858D01*
X90652695Y-74044858D02*
X90652695Y-73423536D01*
G04 #@! TA.AperFunction,Conductor*
G36*
X117254042Y-51500764D02*
G01*
X117333586Y-51505978D01*
X117333767Y-51505991D01*
X117511587Y-51518709D01*
X117526904Y-51520772D01*
X117638378Y-51542945D01*
X117640437Y-51543374D01*
X117780240Y-51573786D01*
X117793703Y-51577522D01*
X117907725Y-51616228D01*
X117911074Y-51617420D01*
X118038808Y-51665062D01*
X118050300Y-51670024D01*
X118160687Y-51724461D01*
X118165187Y-51726798D01*
X118282478Y-51790844D01*
X118291942Y-51796574D01*
X118395269Y-51865615D01*
X118400688Y-51869450D01*
X118506727Y-51948830D01*
X118514145Y-51954844D01*
X118607976Y-52037131D01*
X118613898Y-52042678D01*
X118707320Y-52136100D01*
X118712867Y-52142022D01*
X118795150Y-52235848D01*
X118801173Y-52243278D01*
X118838691Y-52293396D01*
X118880548Y-52349310D01*
X118884383Y-52354729D01*
X118953424Y-52458056D01*
X118959154Y-52467520D01*
X119023183Y-52584779D01*
X119025564Y-52589363D01*
X119079969Y-52699687D01*
X119084938Y-52711196D01*
X119132556Y-52838863D01*
X119133793Y-52842338D01*
X119172470Y-52956276D01*
X119176217Y-52969777D01*
X119206613Y-53109508D01*
X119207064Y-53111675D01*
X119229224Y-53223080D01*
X119231291Y-53238425D01*
X119243995Y-53416046D01*
X119244045Y-53416781D01*
X119249234Y-53495942D01*
X119249500Y-53504053D01*
X119249500Y-93995947D01*
X119249234Y-94004058D01*
X119244045Y-94083217D01*
X119243995Y-94083952D01*
X119231291Y-94261573D01*
X119229224Y-94276918D01*
X119207064Y-94388323D01*
X119206613Y-94390490D01*
X119176217Y-94530221D01*
X119172470Y-94543722D01*
X119133793Y-94657660D01*
X119132556Y-94661135D01*
X119084938Y-94788802D01*
X119079969Y-94800311D01*
X119025564Y-94910635D01*
X119023183Y-94915219D01*
X118959154Y-95032478D01*
X118953424Y-95041942D01*
X118884383Y-95145269D01*
X118880548Y-95150688D01*
X118801181Y-95256711D01*
X118795142Y-95264160D01*
X118712867Y-95357976D01*
X118707320Y-95363898D01*
X118613898Y-95457320D01*
X118607976Y-95462867D01*
X118514160Y-95545142D01*
X118506711Y-95551181D01*
X118400688Y-95630548D01*
X118395269Y-95634383D01*
X118291942Y-95703424D01*
X118282478Y-95709154D01*
X118165219Y-95773183D01*
X118160635Y-95775564D01*
X118050311Y-95829969D01*
X118038802Y-95834938D01*
X117911135Y-95882556D01*
X117907660Y-95883793D01*
X117793722Y-95922470D01*
X117780221Y-95926217D01*
X117640490Y-95956613D01*
X117638323Y-95957064D01*
X117526918Y-95979224D01*
X117511573Y-95981291D01*
X117333952Y-95993995D01*
X117333217Y-95994045D01*
X117254058Y-95999234D01*
X117245947Y-95999500D01*
X77037273Y-95999500D01*
X76977536Y-95984162D01*
X76932576Y-95941943D01*
X76913518Y-95883286D01*
X76925074Y-95822703D01*
X76964388Y-95775182D01*
X77105870Y-95672389D01*
X77161016Y-95611144D01*
X77232533Y-95531716D01*
X77327179Y-95367784D01*
X77385674Y-95187756D01*
X77399168Y-95059354D01*
X77410568Y-95018934D01*
X77434805Y-94984639D01*
X78436845Y-93982600D01*
X78477074Y-93955720D01*
X78524527Y-93946281D01*
X78994431Y-93946281D01*
X79041884Y-93955720D01*
X79082112Y-93982600D01*
X79417385Y-94317873D01*
X79430733Y-94334532D01*
X79483652Y-94384227D01*
X79486449Y-94386938D01*
X79506782Y-94407271D01*
X79510263Y-94409971D01*
X79519149Y-94417560D01*
X79552428Y-94448811D01*
X79571027Y-94459036D01*
X79587287Y-94469717D01*
X79604057Y-94482725D01*
X79623543Y-94491157D01*
X79645952Y-94500855D01*
X79656444Y-94505995D01*
X79696450Y-94527989D01*
X79696452Y-94527989D01*
X79696453Y-94527990D01*
X79717006Y-94533267D01*
X79735415Y-94539569D01*
X79754895Y-94547999D01*
X79799999Y-94555142D01*
X79811418Y-94557507D01*
X79855644Y-94568863D01*
X79876866Y-94568863D01*
X79896264Y-94570389D01*
X79917226Y-94573710D01*
X79959140Y-94569747D01*
X79962682Y-94569413D01*
X79974351Y-94568863D01*
X81602525Y-94568863D01*
X81640843Y-94574932D01*
X81675407Y-94592543D01*
X81826770Y-94702514D01*
X81826771Y-94702514D01*
X81826772Y-94702515D01*
X81999697Y-94779507D01*
X82184852Y-94818863D01*
X82184854Y-94818863D01*
X82374146Y-94818863D01*
X82374148Y-94818863D01*
X82515573Y-94788802D01*
X82559303Y-94779507D01*
X82732230Y-94702514D01*
X82789184Y-94661135D01*
X82885370Y-94591252D01*
X82942333Y-94527989D01*
X83012033Y-94450579D01*
X83106679Y-94286647D01*
X83165174Y-94106619D01*
X83184960Y-93918363D01*
X83165174Y-93730107D01*
X83110817Y-93562817D01*
X83106276Y-93505102D01*
X83128431Y-93451615D01*
X83172454Y-93414015D01*
X83228749Y-93400500D01*
X86541346Y-93400500D01*
X86601083Y-93415838D01*
X86646043Y-93458057D01*
X86665101Y-93516714D01*
X86653545Y-93577296D01*
X86614232Y-93624818D01*
X86549104Y-93672135D01*
X86422443Y-93812806D01*
X86327797Y-93976738D01*
X86269303Y-94156765D01*
X86251452Y-94326610D01*
X86249517Y-94345023D01*
X86255348Y-94400500D01*
X86269303Y-94533280D01*
X86327797Y-94713307D01*
X86422443Y-94877239D01*
X86549106Y-95017912D01*
X86702246Y-95129174D01*
X86875174Y-95206167D01*
X87060329Y-95245523D01*
X87060331Y-95245523D01*
X87249623Y-95245523D01*
X87249625Y-95245523D01*
X87382789Y-95217218D01*
X87434780Y-95206167D01*
X87607707Y-95129174D01*
X87622696Y-95118284D01*
X87760847Y-95017912D01*
X87762851Y-95015687D01*
X87887510Y-94877239D01*
X87982156Y-94713307D01*
X88040651Y-94533279D01*
X88060437Y-94345023D01*
X88040651Y-94156767D01*
X87988393Y-93995935D01*
X87982156Y-93976738D01*
X87887510Y-93812806D01*
X87830959Y-93750000D01*
X89844540Y-93750000D01*
X89864326Y-93938257D01*
X89922820Y-94118284D01*
X90017466Y-94282216D01*
X90144129Y-94422889D01*
X90297269Y-94534151D01*
X90470197Y-94611144D01*
X90655352Y-94650500D01*
X90655354Y-94650500D01*
X90844646Y-94650500D01*
X90844648Y-94650500D01*
X90968084Y-94624262D01*
X91029803Y-94611144D01*
X91202730Y-94534151D01*
X91294765Y-94467284D01*
X91355870Y-94422889D01*
X91367502Y-94409971D01*
X91482533Y-94282216D01*
X91577179Y-94118284D01*
X91635674Y-93938256D01*
X91655460Y-93750000D01*
X91635674Y-93561744D01*
X91597586Y-93444523D01*
X91577179Y-93381715D01*
X91482533Y-93217783D01*
X91355870Y-93077110D01*
X91202730Y-92965848D01*
X91029802Y-92888855D01*
X90844648Y-92849500D01*
X90844646Y-92849500D01*
X90655354Y-92849500D01*
X90655352Y-92849500D01*
X90470197Y-92888855D01*
X90297269Y-92965848D01*
X90144129Y-93077110D01*
X90017466Y-93217783D01*
X89922820Y-93381715D01*
X89864326Y-93561742D01*
X89844540Y-93750000D01*
X87830959Y-93750000D01*
X87760847Y-93672133D01*
X87607707Y-93560871D01*
X87434779Y-93483878D01*
X87252150Y-93445059D01*
X87200906Y-93420945D01*
X87165729Y-93376559D01*
X87153958Y-93321162D01*
X87168048Y-93266308D01*
X87189948Y-93240943D01*
X87188850Y-93240035D01*
X87198835Y-93227964D01*
X87198837Y-93227963D01*
X87227946Y-93192774D01*
X87235790Y-93184154D01*
X88483126Y-91936818D01*
X88523354Y-91909939D01*
X88570807Y-91900500D01*
X88594648Y-91900500D01*
X88718084Y-91874262D01*
X88779803Y-91861144D01*
X88952730Y-91784151D01*
X89104092Y-91674180D01*
X89138657Y-91656569D01*
X89176975Y-91650500D01*
X89179192Y-91650500D01*
X89226645Y-91659939D01*
X89266873Y-91686819D01*
X89315191Y-91735137D01*
X89339431Y-91769434D01*
X89350831Y-91809856D01*
X89364326Y-91938257D01*
X89422820Y-92118284D01*
X89517466Y-92282216D01*
X89644129Y-92422889D01*
X89797269Y-92534151D01*
X89970197Y-92611144D01*
X90155352Y-92650500D01*
X90155354Y-92650500D01*
X90344646Y-92650500D01*
X90344648Y-92650500D01*
X90474260Y-92622950D01*
X90529803Y-92611144D01*
X90702730Y-92534151D01*
X90834664Y-92438296D01*
X90855870Y-92422889D01*
X90878396Y-92397872D01*
X90982533Y-92282216D01*
X91077179Y-92118284D01*
X91135674Y-91938256D01*
X91155460Y-91750000D01*
X91135674Y-91561744D01*
X91077179Y-91381716D01*
X91077179Y-91381715D01*
X90982533Y-91217783D01*
X90855870Y-91077110D01*
X90702730Y-90965848D01*
X90529802Y-90888855D01*
X90344648Y-90849500D01*
X90344646Y-90849500D01*
X90320808Y-90849500D01*
X90273355Y-90840061D01*
X90233127Y-90813181D01*
X90020434Y-90600488D01*
X90007091Y-90583833D01*
X89954166Y-90534134D01*
X89951369Y-90531423D01*
X89931034Y-90511088D01*
X89927547Y-90508383D01*
X89918671Y-90500801D01*
X89885394Y-90469552D01*
X89866793Y-90459326D01*
X89850532Y-90448645D01*
X89838005Y-90438928D01*
X89833764Y-90435638D01*
X89791870Y-90417508D01*
X89781379Y-90412369D01*
X89741367Y-90390372D01*
X89720800Y-90385091D01*
X89702398Y-90378791D01*
X89682924Y-90370364D01*
X89637837Y-90363223D01*
X89626398Y-90360854D01*
X89582178Y-90349500D01*
X89582177Y-90349500D01*
X89560955Y-90349500D01*
X89541556Y-90347973D01*
X89520596Y-90344653D01*
X89520595Y-90344653D01*
X89498558Y-90346736D01*
X89475139Y-90348950D01*
X89463470Y-90349500D01*
X89176975Y-90349500D01*
X89138657Y-90343431D01*
X89104092Y-90325819D01*
X88952730Y-90215849D01*
X88952729Y-90215848D01*
X88952727Y-90215847D01*
X88779802Y-90138855D01*
X88594648Y-90099500D01*
X88594646Y-90099500D01*
X88405354Y-90099500D01*
X88405352Y-90099500D01*
X88220197Y-90138855D01*
X88047269Y-90215848D01*
X87894129Y-90327110D01*
X87767466Y-90467784D01*
X87694946Y-90593393D01*
X87645773Y-90640879D01*
X87578909Y-90655091D01*
X87514674Y-90631711D01*
X87382730Y-90535848D01*
X87209802Y-90458855D01*
X87024648Y-90419500D01*
X87024646Y-90419500D01*
X86835354Y-90419500D01*
X86835352Y-90419500D01*
X86650197Y-90458855D01*
X86477270Y-90535848D01*
X86443953Y-90560054D01*
X86379717Y-90583433D01*
X86312854Y-90569220D01*
X86263682Y-90521735D01*
X86232533Y-90467783D01*
X86105870Y-90327111D01*
X85951615Y-90215039D01*
X85914015Y-90171016D01*
X85900500Y-90114721D01*
X85900500Y-88067738D01*
X85902841Y-88046527D01*
X85902391Y-88032216D01*
X85900561Y-87973957D01*
X85900500Y-87970062D01*
X85900500Y-87941315D01*
X85900500Y-87941308D01*
X85899947Y-87936933D01*
X85899031Y-87925296D01*
X85897598Y-87879664D01*
X85891675Y-87859278D01*
X85887731Y-87840237D01*
X85885071Y-87819175D01*
X85868267Y-87776734D01*
X85864484Y-87765685D01*
X85859694Y-87749197D01*
X85851745Y-87721835D01*
X85848214Y-87715864D01*
X85840937Y-87703559D01*
X85832376Y-87686083D01*
X85824568Y-87666362D01*
X85797731Y-87629424D01*
X85791317Y-87619658D01*
X85768081Y-87580368D01*
X85753074Y-87565361D01*
X85740436Y-87550564D01*
X85727963Y-87533396D01*
X85692779Y-87504289D01*
X85684140Y-87496427D01*
X84316473Y-86128760D01*
X84287818Y-86083996D01*
X84280536Y-86031348D01*
X84295966Y-85980487D01*
X84331266Y-85940763D01*
X84355871Y-85922888D01*
X84366858Y-85910685D01*
X84422753Y-85875075D01*
X84489006Y-85873339D01*
X84546690Y-85905975D01*
X86290225Y-87649510D01*
X86303573Y-87666169D01*
X86356492Y-87715864D01*
X86359289Y-87718575D01*
X86379622Y-87738908D01*
X86383103Y-87741608D01*
X86391986Y-87749194D01*
X86425268Y-87780448D01*
X86431762Y-87784018D01*
X86443865Y-87790672D01*
X86460125Y-87801352D01*
X86476897Y-87814362D01*
X86518801Y-87832495D01*
X86529281Y-87837629D01*
X86569293Y-87859627D01*
X86589856Y-87864906D01*
X86608259Y-87871207D01*
X86627734Y-87879635D01*
X86672831Y-87886777D01*
X86684250Y-87889142D01*
X86728484Y-87900500D01*
X86749711Y-87900500D01*
X86769109Y-87902026D01*
X86790065Y-87905346D01*
X86813707Y-87903111D01*
X86873725Y-87912375D01*
X86922146Y-87949027D01*
X86947357Y-88004276D01*
X86944393Y-88048645D01*
X86945689Y-88048782D01*
X86944326Y-88061741D01*
X86944326Y-88061744D01*
X86930541Y-88192906D01*
X86924540Y-88250000D01*
X86944326Y-88438257D01*
X87002820Y-88618284D01*
X87097466Y-88782216D01*
X87224129Y-88922889D01*
X87377269Y-89034151D01*
X87550197Y-89111144D01*
X87735352Y-89150500D01*
X87735354Y-89150500D01*
X87924646Y-89150500D01*
X87924648Y-89150500D01*
X88065871Y-89120482D01*
X88109803Y-89111144D01*
X88282730Y-89034151D01*
X88357639Y-88979727D01*
X88435870Y-88922889D01*
X88562533Y-88782216D01*
X88657179Y-88618284D01*
X88685291Y-88531765D01*
X88715674Y-88438256D01*
X88735460Y-88250000D01*
X88715674Y-88061744D01*
X88715672Y-88061740D01*
X88714311Y-88048782D01*
X88714912Y-88048718D01*
X88711481Y-88005099D01*
X88733637Y-87951613D01*
X88777660Y-87914015D01*
X88833954Y-87900500D01*
X90027628Y-87900500D01*
X90082763Y-87913432D01*
X90126398Y-87949530D01*
X90149432Y-88001265D01*
X90147060Y-88057846D01*
X90119779Y-88107470D01*
X90105332Y-88123516D01*
X90047441Y-88187809D01*
X89952797Y-88351738D01*
X89894303Y-88531765D01*
X89874517Y-88720022D01*
X89894303Y-88908280D01*
X89952797Y-89088307D01*
X90047443Y-89252239D01*
X90174106Y-89392912D01*
X90327246Y-89504174D01*
X90500174Y-89581167D01*
X90685329Y-89620523D01*
X90685331Y-89620523D01*
X90874623Y-89620523D01*
X90874625Y-89620523D01*
X91019009Y-89589833D01*
X91059780Y-89581167D01*
X91232707Y-89504174D01*
X91385848Y-89392911D01*
X91512510Y-89252239D01*
X91607156Y-89088307D01*
X91665651Y-88908279D01*
X91685437Y-88720023D01*
X91665651Y-88531767D01*
X91607156Y-88351739D01*
X91607156Y-88351738D01*
X91512510Y-88187807D01*
X91497381Y-88171005D01*
X91467414Y-88109566D01*
X91474559Y-88041581D01*
X91516642Y-87987715D01*
X91605871Y-87922888D01*
X91732533Y-87782216D01*
X91827179Y-87618284D01*
X91859280Y-87519489D01*
X91878225Y-87461182D01*
X91904006Y-87416528D01*
X91945721Y-87386220D01*
X91996156Y-87375500D01*
X92439548Y-87375500D01*
X92487001Y-87384939D01*
X92527229Y-87411819D01*
X95338181Y-90222772D01*
X95365061Y-90263000D01*
X95374500Y-90310453D01*
X95374500Y-90755857D01*
X95362421Y-90809240D01*
X95328536Y-90852223D01*
X95279448Y-90876431D01*
X95224719Y-90877147D01*
X95094648Y-90849500D01*
X95094646Y-90849500D01*
X94905354Y-90849500D01*
X94905352Y-90849500D01*
X94720197Y-90888855D01*
X94547269Y-90965848D01*
X94394129Y-91077110D01*
X94267466Y-91217783D01*
X94172820Y-91381715D01*
X94114326Y-91561742D01*
X94094540Y-91749999D01*
X94114326Y-91938257D01*
X94172820Y-92118284D01*
X94267464Y-92282213D01*
X94267467Y-92282216D01*
X94342652Y-92365717D01*
X94366264Y-92404249D01*
X94374500Y-92448687D01*
X94374500Y-92667256D01*
X94372235Y-92687762D01*
X94374439Y-92757873D01*
X94374500Y-92761768D01*
X94374500Y-92789349D01*
X94375003Y-92793334D01*
X94375918Y-92804967D01*
X94377290Y-92848626D01*
X94382879Y-92867860D01*
X94386825Y-92886916D01*
X94389335Y-92906792D01*
X94405414Y-92947404D01*
X94409197Y-92958451D01*
X94421382Y-93000391D01*
X94431580Y-93017635D01*
X94440136Y-93035100D01*
X94447514Y-93053732D01*
X94456333Y-93065871D01*
X94473180Y-93089059D01*
X94479593Y-93098822D01*
X94501826Y-93136416D01*
X94501829Y-93136419D01*
X94501830Y-93136420D01*
X94515995Y-93150585D01*
X94528627Y-93165375D01*
X94540406Y-93181587D01*
X94574058Y-93209426D01*
X94582699Y-93217289D01*
X95061038Y-93695628D01*
X95085277Y-93729925D01*
X95096678Y-93770347D01*
X95114326Y-93938257D01*
X95172820Y-94118284D01*
X95267466Y-94282216D01*
X95394129Y-94422889D01*
X95547269Y-94534151D01*
X95720197Y-94611144D01*
X95905352Y-94650500D01*
X95905354Y-94650500D01*
X96094646Y-94650500D01*
X96094648Y-94650500D01*
X96218084Y-94624262D01*
X96279803Y-94611144D01*
X96452730Y-94534151D01*
X96544765Y-94467284D01*
X96605870Y-94422889D01*
X96617502Y-94409971D01*
X96732533Y-94282216D01*
X96827179Y-94118284D01*
X96885674Y-93938256D01*
X96902175Y-93781247D01*
X96920568Y-93728134D01*
X96960523Y-93688596D01*
X97013829Y-93670761D01*
X97020193Y-93670159D01*
X97020196Y-93670160D01*
X97053625Y-93666999D01*
X97063677Y-93666050D01*
X97075344Y-93665500D01*
X106667256Y-93665500D01*
X106687762Y-93667764D01*
X106690665Y-93667672D01*
X106690667Y-93667673D01*
X106757872Y-93665561D01*
X106761768Y-93665500D01*
X106789349Y-93665500D01*
X106789350Y-93665500D01*
X106793319Y-93664998D01*
X106804965Y-93664080D01*
X106848627Y-93662709D01*
X106867859Y-93657120D01*
X106886918Y-93653174D01*
X106893196Y-93652381D01*
X106906792Y-93650664D01*
X106947407Y-93634582D01*
X106958444Y-93630803D01*
X107000390Y-93618618D01*
X107017629Y-93608422D01*
X107035102Y-93599862D01*
X107053732Y-93592486D01*
X107089064Y-93566814D01*
X107098830Y-93560400D01*
X107136418Y-93538171D01*
X107136417Y-93538171D01*
X107136420Y-93538170D01*
X107150585Y-93524004D01*
X107165373Y-93511373D01*
X107181587Y-93499594D01*
X107209438Y-93465926D01*
X107217279Y-93457309D01*
X107674588Y-93000000D01*
X114894340Y-93000000D01*
X114914936Y-93235407D01*
X114971112Y-93445059D01*
X114976097Y-93463663D01*
X115075965Y-93677829D01*
X115211505Y-93871401D01*
X115378599Y-94038495D01*
X115572171Y-94174035D01*
X115786337Y-94273903D01*
X116012610Y-94334532D01*
X116014592Y-94335063D01*
X116191032Y-94350500D01*
X116191034Y-94350500D01*
X116308966Y-94350500D01*
X116308968Y-94350500D01*
X116426593Y-94340208D01*
X116485408Y-94335063D01*
X116713663Y-94273903D01*
X116927829Y-94174035D01*
X117121401Y-94038495D01*
X117288495Y-93871401D01*
X117424035Y-93677830D01*
X117523903Y-93463663D01*
X117585063Y-93235408D01*
X117605659Y-93000000D01*
X117585063Y-92764592D01*
X117523903Y-92536337D01*
X117424035Y-92322171D01*
X117288495Y-92128599D01*
X117121401Y-91961505D01*
X116927829Y-91825965D01*
X116713663Y-91726097D01*
X116485407Y-91664936D01*
X116308968Y-91649500D01*
X116308966Y-91649500D01*
X116191034Y-91649500D01*
X116191032Y-91649500D01*
X116014592Y-91664936D01*
X115786336Y-91726097D01*
X115572170Y-91825965D01*
X115378598Y-91961505D01*
X115211508Y-92128595D01*
X115211505Y-92128598D01*
X115211505Y-92128599D01*
X115103944Y-92282213D01*
X115075964Y-92322172D01*
X114976097Y-92536337D01*
X114914936Y-92764592D01*
X114894340Y-93000000D01*
X107674588Y-93000000D01*
X107834353Y-92840235D01*
X107889939Y-92808143D01*
X107954126Y-92808143D01*
X108054592Y-92835063D01*
X108209614Y-92848626D01*
X108289999Y-92855659D01*
X108289999Y-92855658D01*
X108290000Y-92855659D01*
X108525408Y-92835063D01*
X108753663Y-92773903D01*
X108967830Y-92674035D01*
X109161401Y-92538495D01*
X109283329Y-92416566D01*
X109336072Y-92385273D01*
X109397365Y-92383084D01*
X109452209Y-92410537D01*
X109487189Y-92460916D01*
X109536204Y-92592331D01*
X109622454Y-92707546D01*
X109737669Y-92793796D01*
X109872517Y-92844091D01*
X109932127Y-92850500D01*
X111727872Y-92850499D01*
X111787483Y-92844091D01*
X111922331Y-92793796D01*
X112037546Y-92707546D01*
X112123796Y-92592331D01*
X112174091Y-92457483D01*
X112180500Y-92397873D01*
X112180499Y-90602128D01*
X112174091Y-90542517D01*
X112133318Y-90433199D01*
X112125500Y-90389866D01*
X112125500Y-86750000D01*
X112644340Y-86750000D01*
X112664936Y-86985407D01*
X112696305Y-87102478D01*
X112726097Y-87213663D01*
X112825965Y-87427830D01*
X112961505Y-87621401D01*
X113128599Y-87788495D01*
X113322170Y-87924035D01*
X113536337Y-88023903D01*
X113764592Y-88085063D01*
X114000000Y-88105659D01*
X114235408Y-88085063D01*
X114463663Y-88023903D01*
X114677830Y-87924035D01*
X114871401Y-87788495D01*
X115038495Y-87621401D01*
X115174035Y-87427830D01*
X115273903Y-87213663D01*
X115335063Y-86985408D01*
X115355659Y-86750000D01*
X115335063Y-86514592D01*
X115273903Y-86286337D01*
X115174035Y-86072171D01*
X115038495Y-85878599D01*
X114916569Y-85756673D01*
X114885273Y-85703927D01*
X114883084Y-85642634D01*
X114910537Y-85587789D01*
X114960916Y-85552810D01*
X115092331Y-85503796D01*
X115207546Y-85417546D01*
X115293796Y-85302331D01*
X115344091Y-85167483D01*
X115350500Y-85107873D01*
X115350499Y-83312128D01*
X115344091Y-83252517D01*
X115293796Y-83117669D01*
X115207546Y-83002454D01*
X115092331Y-82916204D01*
X114957483Y-82865909D01*
X114897873Y-82859500D01*
X114897869Y-82859500D01*
X113102130Y-82859500D01*
X113042515Y-82865909D01*
X112907669Y-82916204D01*
X112792454Y-83002454D01*
X112706204Y-83117668D01*
X112655909Y-83252516D01*
X112649500Y-83312130D01*
X112649500Y-85107869D01*
X112654605Y-85155357D01*
X112655909Y-85167483D01*
X112706204Y-85302331D01*
X112792454Y-85417546D01*
X112907669Y-85503796D01*
X113005689Y-85540355D01*
X113039082Y-85552810D01*
X113089462Y-85587789D01*
X113116915Y-85642634D01*
X113114726Y-85703926D01*
X113083431Y-85756673D01*
X112961503Y-85878601D01*
X112825965Y-86072170D01*
X112726097Y-86286336D01*
X112664936Y-86514592D01*
X112644340Y-86750000D01*
X112125500Y-86750000D01*
X112125500Y-74810452D01*
X112134939Y-74762999D01*
X112161819Y-74722771D01*
X116722772Y-70161819D01*
X116763000Y-70134939D01*
X116810453Y-70125500D01*
X117046253Y-70125500D01*
X117096688Y-70136220D01*
X117138401Y-70166526D01*
X117144129Y-70172888D01*
X117297270Y-70284151D01*
X117297271Y-70284151D01*
X117297272Y-70284152D01*
X117470197Y-70361144D01*
X117655352Y-70400500D01*
X117655354Y-70400500D01*
X117844646Y-70400500D01*
X117844648Y-70400500D01*
X117968084Y-70374262D01*
X118029803Y-70361144D01*
X118202730Y-70284151D01*
X118202730Y-70284150D01*
X118355870Y-70172889D01*
X118361598Y-70166528D01*
X118482533Y-70032216D01*
X118577179Y-69868284D01*
X118635674Y-69688256D01*
X118655460Y-69500000D01*
X118635674Y-69311744D01*
X118580951Y-69143324D01*
X118577179Y-69131715D01*
X118482533Y-68967783D01*
X118355870Y-68827110D01*
X118202730Y-68715848D01*
X118029802Y-68638855D01*
X117844648Y-68599500D01*
X117844646Y-68599500D01*
X117655354Y-68599500D01*
X117655352Y-68599500D01*
X117470197Y-68638855D01*
X117297272Y-68715847D01*
X117218960Y-68772744D01*
X117144129Y-68827112D01*
X117138401Y-68833473D01*
X117096688Y-68863780D01*
X117046253Y-68874500D01*
X116582744Y-68874500D01*
X116562237Y-68872235D01*
X116492127Y-68874439D01*
X116488232Y-68874500D01*
X116460650Y-68874500D01*
X116456665Y-68875003D01*
X116445033Y-68875918D01*
X116401369Y-68877290D01*
X116382129Y-68882880D01*
X116363081Y-68886825D01*
X116343209Y-68889335D01*
X116302599Y-68905413D01*
X116291554Y-68909194D01*
X116249610Y-68921381D01*
X116232365Y-68931579D01*
X116214904Y-68940133D01*
X116196267Y-68947512D01*
X116160931Y-68973185D01*
X116151174Y-68979595D01*
X116113580Y-69001829D01*
X116099413Y-69015996D01*
X116084624Y-69028626D01*
X116068413Y-69040404D01*
X116040572Y-69074058D01*
X116032711Y-69082697D01*
X111116208Y-73999199D01*
X111100110Y-74012096D01*
X111052096Y-74063225D01*
X111049391Y-74066017D01*
X111029874Y-74085534D01*
X111027415Y-74088705D01*
X111019842Y-74097572D01*
X110989935Y-74129420D01*
X110980285Y-74146974D01*
X110969609Y-74163228D01*
X110957326Y-74179063D01*
X110939975Y-74219158D01*
X110934838Y-74229644D01*
X110913802Y-74267907D01*
X110908821Y-74287309D01*
X110902520Y-74305711D01*
X110894561Y-74324102D01*
X110887728Y-74367242D01*
X110885360Y-74378674D01*
X110874500Y-74420978D01*
X110874500Y-74441016D01*
X110872973Y-74460415D01*
X110869840Y-74480194D01*
X110873950Y-74523675D01*
X110874500Y-74535344D01*
X110874500Y-90025500D01*
X110857887Y-90087500D01*
X110812500Y-90132887D01*
X110750500Y-90149500D01*
X109932130Y-90149500D01*
X109872515Y-90155909D01*
X109737669Y-90206204D01*
X109622454Y-90292454D01*
X109536204Y-90407669D01*
X109487189Y-90539083D01*
X109452209Y-90589462D01*
X109397365Y-90616915D01*
X109336072Y-90614726D01*
X109283326Y-90583430D01*
X109161404Y-90461508D01*
X109161403Y-90461507D01*
X109161401Y-90461505D01*
X108967830Y-90325965D01*
X108753663Y-90226097D01*
X108681074Y-90206647D01*
X108525407Y-90164936D01*
X108279270Y-90143401D01*
X108214591Y-90118249D01*
X108173556Y-90062283D01*
X108169017Y-89993034D01*
X108202395Y-89932194D01*
X109928789Y-88205800D01*
X109944885Y-88192906D01*
X109946873Y-88190787D01*
X109946877Y-88190786D01*
X109992948Y-88141723D01*
X109995566Y-88139023D01*
X110015120Y-88119471D01*
X110017581Y-88116298D01*
X110025156Y-88107427D01*
X110055062Y-88075582D01*
X110064717Y-88058018D01*
X110075394Y-88041764D01*
X110087673Y-88025936D01*
X110105018Y-87985852D01*
X110110160Y-87975356D01*
X110131197Y-87937092D01*
X110136179Y-87917684D01*
X110142481Y-87899280D01*
X110150437Y-87880896D01*
X110157269Y-87837752D01*
X110159633Y-87826338D01*
X110170500Y-87784019D01*
X110170500Y-87763984D01*
X110172027Y-87744585D01*
X110172068Y-87744321D01*
X110175160Y-87724804D01*
X110171050Y-87681325D01*
X110170500Y-87669656D01*
X110170500Y-71765452D01*
X110179939Y-71717999D01*
X110206819Y-71677771D01*
X113947772Y-67936819D01*
X113988000Y-67909939D01*
X114035453Y-67900500D01*
X114094648Y-67900500D01*
X114218084Y-67874262D01*
X114279803Y-67861144D01*
X114452730Y-67784151D01*
X114452729Y-67784151D01*
X114605870Y-67672889D01*
X114642943Y-67631716D01*
X114732533Y-67532216D01*
X114827179Y-67368284D01*
X114885674Y-67188256D01*
X114905460Y-67000000D01*
X114885674Y-66811744D01*
X114829547Y-66639003D01*
X114827179Y-66631715D01*
X114732533Y-66467783D01*
X114605870Y-66327110D01*
X114452730Y-66215848D01*
X114279802Y-66138855D01*
X114094648Y-66099500D01*
X114094646Y-66099500D01*
X113905354Y-66099500D01*
X113905352Y-66099500D01*
X113720197Y-66138855D01*
X113547269Y-66215848D01*
X113394129Y-66327110D01*
X113267466Y-66467783D01*
X113172820Y-66631715D01*
X113114326Y-66811742D01*
X113096679Y-66979649D01*
X113085279Y-67020070D01*
X113061039Y-67054368D01*
X109161208Y-70954199D01*
X109145110Y-70967096D01*
X109097096Y-71018225D01*
X109094391Y-71021017D01*
X109074874Y-71040534D01*
X109072415Y-71043705D01*
X109064842Y-71052572D01*
X109034935Y-71084420D01*
X109025285Y-71101974D01*
X109014609Y-71118228D01*
X109002326Y-71134063D01*
X108984975Y-71174158D01*
X108979838Y-71184644D01*
X108958802Y-71222907D01*
X108953821Y-71242309D01*
X108947520Y-71260711D01*
X108939561Y-71279102D01*
X108932728Y-71322242D01*
X108930360Y-71333674D01*
X108919500Y-71375978D01*
X108919500Y-71396016D01*
X108917973Y-71415415D01*
X108914840Y-71435194D01*
X108918950Y-71478675D01*
X108919500Y-71490344D01*
X108919500Y-87394547D01*
X108910061Y-87442000D01*
X108883181Y-87482228D01*
X106205646Y-90159761D01*
X106150059Y-90191855D01*
X106085873Y-90191855D01*
X105985408Y-90164936D01*
X105749999Y-90144340D01*
X105514592Y-90164936D01*
X105286336Y-90226097D01*
X105072170Y-90325965D01*
X104878598Y-90461505D01*
X104711505Y-90628598D01*
X104581575Y-90814159D01*
X104537257Y-90853025D01*
X104480000Y-90867036D01*
X104422743Y-90853025D01*
X104378425Y-90814159D01*
X104264971Y-90652129D01*
X104248495Y-90628599D01*
X104081401Y-90461505D01*
X103887830Y-90325965D01*
X103673663Y-90226097D01*
X103601074Y-90206647D01*
X103445407Y-90164936D01*
X103210000Y-90144340D01*
X102974592Y-90164936D01*
X102746336Y-90226097D01*
X102532170Y-90325965D01*
X102338598Y-90461505D01*
X102171505Y-90628598D01*
X102041575Y-90814159D01*
X101997257Y-90853025D01*
X101940000Y-90867036D01*
X101882743Y-90853025D01*
X101838425Y-90814159D01*
X101724971Y-90652129D01*
X101708495Y-90628599D01*
X101541401Y-90461505D01*
X101347830Y-90325965D01*
X101133663Y-90226097D01*
X101061074Y-90206647D01*
X100905407Y-90164936D01*
X100670000Y-90144340D01*
X100434592Y-90164936D01*
X100206336Y-90226097D01*
X99992170Y-90325965D01*
X99798598Y-90461505D01*
X99631505Y-90628598D01*
X99501575Y-90814159D01*
X99457257Y-90853025D01*
X99400000Y-90867036D01*
X99342743Y-90853025D01*
X99298425Y-90814159D01*
X99184971Y-90652129D01*
X99168495Y-90628599D01*
X99001401Y-90461505D01*
X98807830Y-90325965D01*
X98720393Y-90285192D01*
X98675420Y-90249578D01*
X98651288Y-90197532D01*
X98653166Y-90140195D01*
X98680647Y-90089840D01*
X98732533Y-90032216D01*
X98736411Y-90025500D01*
X98827179Y-89868284D01*
X98850288Y-89797162D01*
X98885674Y-89688256D01*
X98905460Y-89500000D01*
X98885674Y-89311744D01*
X98834985Y-89155740D01*
X98827179Y-89131715D01*
X98732533Y-88967783D01*
X98605870Y-88827110D01*
X98452730Y-88715848D01*
X98279802Y-88638855D01*
X98094648Y-88599500D01*
X98094646Y-88599500D01*
X97905354Y-88599500D01*
X97905352Y-88599500D01*
X97720197Y-88638855D01*
X97547269Y-88715848D01*
X97394129Y-88827110D01*
X97267466Y-88967783D01*
X97172820Y-89131715D01*
X97114326Y-89311742D01*
X97094540Y-89500000D01*
X97114326Y-89688257D01*
X97172820Y-89868284D01*
X97267466Y-90032216D01*
X97402850Y-90182574D01*
X97401521Y-90183769D01*
X97427106Y-90213856D01*
X97440373Y-90270751D01*
X97426117Y-90327406D01*
X97387502Y-90371245D01*
X97258599Y-90461504D01*
X97091505Y-90628598D01*
X96955965Y-90822170D01*
X96861882Y-91023931D01*
X96818840Y-91074327D01*
X96755989Y-91095356D01*
X96691285Y-91081011D01*
X96643211Y-91035391D01*
X96625500Y-90971526D01*
X96625500Y-90082741D01*
X96627763Y-90062237D01*
X96627574Y-90056234D01*
X96625561Y-89992145D01*
X96625500Y-89988251D01*
X96625500Y-89960657D01*
X96625500Y-89960650D01*
X96624995Y-89956653D01*
X96624080Y-89945023D01*
X96623919Y-89939885D01*
X96622709Y-89901373D01*
X96617120Y-89882140D01*
X96613174Y-89863082D01*
X96610664Y-89843206D01*
X96594588Y-89802604D01*
X96590804Y-89791553D01*
X96584881Y-89771168D01*
X96578618Y-89749610D01*
X96568414Y-89732355D01*
X96559861Y-89714895D01*
X96552486Y-89696269D01*
X96552486Y-89696268D01*
X96526808Y-89660925D01*
X96520401Y-89651171D01*
X96498169Y-89613579D01*
X96484006Y-89599416D01*
X96471367Y-89584617D01*
X96459595Y-89568413D01*
X96425941Y-89540573D01*
X96417299Y-89532709D01*
X93250802Y-86366211D01*
X93237906Y-86350113D01*
X93186775Y-86302098D01*
X93183978Y-86299387D01*
X93164470Y-86279879D01*
X93161290Y-86277412D01*
X93152424Y-86269839D01*
X93120582Y-86239938D01*
X93103024Y-86230285D01*
X93086764Y-86219604D01*
X93070936Y-86207327D01*
X93030851Y-86189980D01*
X93020361Y-86184841D01*
X92982091Y-86163802D01*
X92962691Y-86158821D01*
X92944284Y-86152519D01*
X92925897Y-86144562D01*
X92882758Y-86137729D01*
X92871324Y-86135361D01*
X92829019Y-86124500D01*
X92808984Y-86124500D01*
X92789586Y-86122973D01*
X92782162Y-86121797D01*
X92769805Y-86119840D01*
X92769804Y-86119840D01*
X92736751Y-86122964D01*
X92726325Y-86123950D01*
X92714656Y-86124500D01*
X92394027Y-86124500D01*
X92332027Y-86107887D01*
X92286640Y-86062500D01*
X92270027Y-86000500D01*
X92286640Y-85938500D01*
X92327179Y-85868284D01*
X92327179Y-85868283D01*
X92385674Y-85688256D01*
X92405460Y-85500000D01*
X92385674Y-85311744D01*
X92338801Y-85167484D01*
X92327179Y-85131715D01*
X92232535Y-84967786D01*
X92219701Y-84953533D01*
X92182348Y-84912048D01*
X92158736Y-84873516D01*
X92150500Y-84829078D01*
X92150500Y-81563072D01*
X92169803Y-81496629D01*
X92221703Y-81450873D01*
X92290041Y-81440050D01*
X92353541Y-81467528D01*
X92392431Y-81524754D01*
X92422820Y-81618284D01*
X92517466Y-81782216D01*
X92644129Y-81922889D01*
X92797269Y-82034151D01*
X92970197Y-82111144D01*
X93155352Y-82150500D01*
X93155354Y-82150500D01*
X93344646Y-82150500D01*
X93344648Y-82150500D01*
X93468083Y-82124262D01*
X93529803Y-82111144D01*
X93702730Y-82034151D01*
X93854092Y-81924180D01*
X93888657Y-81906569D01*
X93926975Y-81900500D01*
X96664495Y-81900500D01*
X96685704Y-81902841D01*
X96688294Y-81902759D01*
X96688296Y-81902760D01*
X96758262Y-81900560D01*
X96762157Y-81900500D01*
X96790920Y-81900500D01*
X96790925Y-81900500D01*
X96795302Y-81899946D01*
X96806941Y-81899030D01*
X96852569Y-81897597D01*
X96872949Y-81891675D01*
X96891989Y-81887732D01*
X96913058Y-81885071D01*
X96955520Y-81868258D01*
X96966557Y-81864480D01*
X97010398Y-81851744D01*
X97028670Y-81840936D01*
X97046136Y-81832380D01*
X97065871Y-81824568D01*
X97102816Y-81797725D01*
X97112548Y-81791332D01*
X97151865Y-81768081D01*
X97166874Y-81753071D01*
X97181663Y-81740439D01*
X97198837Y-81727963D01*
X97227946Y-81692774D01*
X97235790Y-81684154D01*
X99394109Y-79525835D01*
X99454421Y-79492576D01*
X99523180Y-79496630D01*
X99579167Y-79536750D01*
X99605108Y-79600554D01*
X99612434Y-79670262D01*
X99614326Y-79688257D01*
X99672820Y-79868284D01*
X99767466Y-80032216D01*
X99894129Y-80172889D01*
X100047269Y-80284151D01*
X100220197Y-80361144D01*
X100405352Y-80400500D01*
X100405354Y-80400500D01*
X100594646Y-80400500D01*
X100594648Y-80400500D01*
X100718083Y-80374262D01*
X100779803Y-80361144D01*
X100952730Y-80284151D01*
X100999735Y-80250000D01*
X101105870Y-80172889D01*
X101232533Y-80032216D01*
X101327179Y-79868284D01*
X101339269Y-79831074D01*
X101385674Y-79688256D01*
X101405460Y-79500000D01*
X101385674Y-79311744D01*
X101327179Y-79131716D01*
X101327179Y-79131715D01*
X101232535Y-78967786D01*
X101183928Y-78913803D01*
X101182348Y-78912048D01*
X101158736Y-78873516D01*
X101150500Y-78829078D01*
X101150500Y-77539138D01*
X101159939Y-77491685D01*
X101186819Y-77451457D01*
X101217184Y-77421092D01*
X101257412Y-77394212D01*
X101304865Y-77384773D01*
X101328705Y-77384773D01*
X101472906Y-77354122D01*
X101513860Y-77345417D01*
X101686787Y-77268424D01*
X101756840Y-77217528D01*
X101839927Y-77157162D01*
X101880707Y-77111872D01*
X101966590Y-77016489D01*
X102061236Y-76852557D01*
X102119731Y-76672529D01*
X102139517Y-76484273D01*
X102119731Y-76296017D01*
X102061236Y-76115989D01*
X102061236Y-76115988D01*
X101966590Y-75952056D01*
X101839927Y-75811383D01*
X101686787Y-75700121D01*
X101513859Y-75623128D01*
X101328705Y-75583773D01*
X101328703Y-75583773D01*
X101139411Y-75583773D01*
X101139408Y-75583773D01*
X101026140Y-75607848D01*
X100962041Y-75604489D01*
X100908209Y-75569529D01*
X100879069Y-75512337D01*
X100882429Y-75448240D01*
X100885674Y-75438256D01*
X100905460Y-75250000D01*
X100885674Y-75061744D01*
X100865612Y-75000000D01*
X103594540Y-75000000D01*
X103614326Y-75188257D01*
X103672820Y-75368284D01*
X103767466Y-75532216D01*
X103894129Y-75672889D01*
X104047269Y-75784151D01*
X104220197Y-75861144D01*
X104405352Y-75900500D01*
X104405354Y-75900500D01*
X104594646Y-75900500D01*
X104594648Y-75900500D01*
X104722505Y-75873323D01*
X104779803Y-75861144D01*
X104952730Y-75784151D01*
X105044078Y-75717783D01*
X105105870Y-75672889D01*
X105136515Y-75638855D01*
X105232533Y-75532216D01*
X105327179Y-75368284D01*
X105385674Y-75188256D01*
X105405460Y-75000000D01*
X105385674Y-74811744D01*
X105353427Y-74712500D01*
X105327179Y-74631715D01*
X105232533Y-74467783D01*
X105105870Y-74327110D01*
X104952730Y-74215848D01*
X104779802Y-74138855D01*
X104594648Y-74099500D01*
X104594646Y-74099500D01*
X104405354Y-74099500D01*
X104405352Y-74099500D01*
X104220197Y-74138855D01*
X104047269Y-74215848D01*
X103894129Y-74327110D01*
X103767466Y-74467783D01*
X103672820Y-74631715D01*
X103614326Y-74811742D01*
X103594540Y-75000000D01*
X100865612Y-75000000D01*
X100827179Y-74881716D01*
X100827179Y-74881715D01*
X100732533Y-74717783D01*
X100605870Y-74577110D01*
X100452730Y-74465848D01*
X100279802Y-74388855D01*
X100094648Y-74349500D01*
X100094646Y-74349500D01*
X99905354Y-74349500D01*
X99905352Y-74349500D01*
X99720199Y-74388854D01*
X99550435Y-74464439D01*
X99500000Y-74475159D01*
X99449565Y-74464439D01*
X99279800Y-74388854D01*
X99094648Y-74349500D01*
X99094646Y-74349500D01*
X98905354Y-74349500D01*
X98905352Y-74349500D01*
X98720197Y-74388855D01*
X98547269Y-74465848D01*
X98394129Y-74577110D01*
X98267466Y-74717783D01*
X98172820Y-74881715D01*
X98114326Y-75061742D01*
X98094540Y-75250000D01*
X98114326Y-75438257D01*
X98172820Y-75618284D01*
X98267464Y-75782213D01*
X98267467Y-75782216D01*
X98317651Y-75837951D01*
X98341264Y-75876484D01*
X98349500Y-75920922D01*
X98349500Y-77489853D01*
X98340061Y-77537306D01*
X98313181Y-77577534D01*
X96327534Y-79563181D01*
X96287306Y-79590061D01*
X96239853Y-79599500D01*
X93926975Y-79599500D01*
X93888657Y-79593431D01*
X93854092Y-79575819D01*
X93702730Y-79465849D01*
X93702729Y-79465848D01*
X93702727Y-79465847D01*
X93529802Y-79388855D01*
X93344648Y-79349500D01*
X93344646Y-79349500D01*
X93155354Y-79349500D01*
X93155352Y-79349500D01*
X92970197Y-79388855D01*
X92797269Y-79465848D01*
X92644129Y-79577110D01*
X92517466Y-79717783D01*
X92422820Y-79881715D01*
X92392431Y-79975246D01*
X92353541Y-80032472D01*
X92290041Y-80059950D01*
X92221703Y-80049127D01*
X92169803Y-80003371D01*
X92150500Y-79936928D01*
X92150500Y-74977667D01*
X92152841Y-74956457D01*
X92150561Y-74883900D01*
X92150500Y-74880005D01*
X92150500Y-74851244D01*
X92150500Y-74851238D01*
X92149946Y-74846858D01*
X92149030Y-74835217D01*
X92147597Y-74789593D01*
X92141675Y-74769210D01*
X92137732Y-74750173D01*
X92135071Y-74729105D01*
X92118332Y-74686829D01*
X92110808Y-74624094D01*
X92135174Y-74565794D01*
X92185105Y-74527070D01*
X92247634Y-74517977D01*
X92283923Y-74532087D01*
X92285364Y-74528851D01*
X92470197Y-74611144D01*
X92655352Y-74650500D01*
X92655354Y-74650500D01*
X92844646Y-74650500D01*
X92844648Y-74650500D01*
X92968878Y-74624094D01*
X93029803Y-74611144D01*
X93202730Y-74534151D01*
X93296740Y-74465849D01*
X93355870Y-74422889D01*
X93386515Y-74388855D01*
X93482533Y-74282216D01*
X93577179Y-74118284D01*
X93635674Y-73938256D01*
X93655460Y-73750000D01*
X93635674Y-73561744D01*
X93598845Y-73448397D01*
X93577179Y-73381715D01*
X93482533Y-73217783D01*
X93355870Y-73077110D01*
X93202731Y-72965848D01*
X93195513Y-72962635D01*
X93148570Y-72926123D01*
X93124026Y-72871952D01*
X93127528Y-72812584D01*
X93158267Y-72761677D01*
X94149513Y-71770431D01*
X94166162Y-71757094D01*
X94167936Y-71755204D01*
X94167940Y-71755202D01*
X94215898Y-71704130D01*
X94218546Y-71701398D01*
X94238912Y-71681034D01*
X94241612Y-71677551D01*
X94249188Y-71668680D01*
X94280448Y-71635393D01*
X94290672Y-71616793D01*
X94301351Y-71600536D01*
X94314363Y-71583763D01*
X94332498Y-71541852D01*
X94337633Y-71531374D01*
X94359626Y-71491370D01*
X94359890Y-71490344D01*
X94364904Y-71470812D01*
X94371208Y-71452399D01*
X94379636Y-71432926D01*
X94386778Y-71387824D01*
X94389143Y-71376405D01*
X94398491Y-71339999D01*
X97039434Y-71339999D01*
X97059631Y-71519251D01*
X97059631Y-71519253D01*
X97059632Y-71519255D01*
X97119211Y-71689522D01*
X97166921Y-71765452D01*
X97215185Y-71842264D01*
X97342735Y-71969814D01*
X97342737Y-71969815D01*
X97342738Y-71969816D01*
X97495478Y-72065789D01*
X97665745Y-72125368D01*
X97845000Y-72145565D01*
X98024255Y-72125368D01*
X98194522Y-72065789D01*
X98347262Y-71969816D01*
X98392318Y-71924759D01*
X98447906Y-71892665D01*
X98512094Y-71892665D01*
X98567682Y-71924760D01*
X98612736Y-71969815D01*
X98612738Y-71969816D01*
X98765478Y-72065789D01*
X98935745Y-72125368D01*
X99115000Y-72145565D01*
X99294255Y-72125368D01*
X99464522Y-72065789D01*
X99617262Y-71969816D01*
X99662318Y-71924759D01*
X99717906Y-71892665D01*
X99782094Y-71892665D01*
X99837682Y-71924760D01*
X99882736Y-71969815D01*
X99882738Y-71969816D01*
X100035478Y-72065789D01*
X100205745Y-72125368D01*
X100385000Y-72145565D01*
X100564255Y-72125368D01*
X100734522Y-72065789D01*
X100887262Y-71969816D01*
X100887261Y-71969816D01*
X100890528Y-71967764D01*
X100956500Y-71948758D01*
X101022472Y-71967764D01*
X101025738Y-71969816D01*
X101178478Y-72065789D01*
X101348745Y-72125368D01*
X101528000Y-72145565D01*
X101707255Y-72125368D01*
X101877522Y-72065789D01*
X102030262Y-71969816D01*
X102157816Y-71842262D01*
X102253789Y-71689522D01*
X102313368Y-71519255D01*
X102333565Y-71340000D01*
X102313368Y-71160745D01*
X102253789Y-70990478D01*
X102157816Y-70837738D01*
X102157815Y-70837736D01*
X102112760Y-70792682D01*
X102080665Y-70737094D01*
X102080665Y-70672906D01*
X102112760Y-70617318D01*
X102157815Y-70572263D01*
X102163000Y-70564011D01*
X102253789Y-70419522D01*
X102313368Y-70249255D01*
X102333565Y-70070000D01*
X102313368Y-69890745D01*
X102253789Y-69720478D01*
X102172476Y-69591069D01*
X102157815Y-69567736D01*
X102112760Y-69522682D01*
X102080665Y-69467094D01*
X102080665Y-69402906D01*
X102112760Y-69347318D01*
X102157815Y-69302263D01*
X102175979Y-69273355D01*
X102253789Y-69149522D01*
X102313368Y-68979255D01*
X102333565Y-68800000D01*
X102313368Y-68620745D01*
X102253789Y-68450478D01*
X102157816Y-68297738D01*
X102156992Y-68296426D01*
X102138766Y-68244337D01*
X102144945Y-68189499D01*
X102174303Y-68142774D01*
X102284816Y-68032262D01*
X102380789Y-67879522D01*
X102440368Y-67709255D01*
X102460565Y-67530000D01*
X102440368Y-67350745D01*
X102380789Y-67180478D01*
X102284816Y-67027738D01*
X102284815Y-67027737D01*
X102284814Y-67027735D01*
X102157264Y-66900185D01*
X102094867Y-66860979D01*
X102004522Y-66804211D01*
X101834255Y-66744632D01*
X101834253Y-66744631D01*
X101834251Y-66744631D01*
X101655000Y-66724434D01*
X101475748Y-66744631D01*
X101475745Y-66744631D01*
X101475745Y-66744632D01*
X101305478Y-66804211D01*
X101305476Y-66804211D01*
X101305476Y-66804212D01*
X101152735Y-66900185D01*
X101107681Y-66945240D01*
X101052094Y-66977334D01*
X100987906Y-66977334D01*
X100932319Y-66945240D01*
X100887264Y-66900185D01*
X100824867Y-66860979D01*
X100734522Y-66804211D01*
X100564255Y-66744632D01*
X100564253Y-66744631D01*
X100564251Y-66744631D01*
X100385000Y-66724434D01*
X100205748Y-66744631D01*
X100205745Y-66744631D01*
X100205745Y-66744632D01*
X100035478Y-66804211D01*
X100035476Y-66804211D01*
X100035476Y-66804212D01*
X99882735Y-66900185D01*
X99837681Y-66945240D01*
X99782094Y-66977334D01*
X99717906Y-66977334D01*
X99662319Y-66945240D01*
X99617264Y-66900185D01*
X99554867Y-66860979D01*
X99464522Y-66804211D01*
X99294255Y-66744632D01*
X99294253Y-66744631D01*
X99294251Y-66744631D01*
X99115000Y-66724434D01*
X98935748Y-66744631D01*
X98935745Y-66744631D01*
X98935745Y-66744632D01*
X98765478Y-66804211D01*
X98765476Y-66804211D01*
X98765476Y-66804212D01*
X98612735Y-66900185D01*
X98567681Y-66945240D01*
X98512094Y-66977334D01*
X98447906Y-66977334D01*
X98392319Y-66945240D01*
X98347264Y-66900185D01*
X98284867Y-66860979D01*
X98194522Y-66804211D01*
X98024255Y-66744632D01*
X98024253Y-66744631D01*
X98024251Y-66744631D01*
X97845000Y-66724434D01*
X97665748Y-66744631D01*
X97665745Y-66744631D01*
X97665745Y-66744632D01*
X97495478Y-66804211D01*
X97495476Y-66804211D01*
X97495476Y-66804212D01*
X97342735Y-66900185D01*
X97215185Y-67027735D01*
X97143154Y-67142373D01*
X97119211Y-67180478D01*
X97106835Y-67215848D01*
X97059631Y-67350748D01*
X97039434Y-67530000D01*
X97059631Y-67709251D01*
X97059631Y-67709253D01*
X97059632Y-67709255D01*
X97119211Y-67879522D01*
X97141820Y-67915504D01*
X97215185Y-68032264D01*
X97260240Y-68077319D01*
X97292334Y-68132906D01*
X97292334Y-68197094D01*
X97260240Y-68252681D01*
X97215185Y-68297735D01*
X97131181Y-68431428D01*
X97119211Y-68450478D01*
X97076528Y-68572460D01*
X97059631Y-68620748D01*
X97039434Y-68800000D01*
X97059631Y-68979251D01*
X97059631Y-68979253D01*
X97059632Y-68979255D01*
X97119211Y-69149522D01*
X97171744Y-69233127D01*
X97215185Y-69302264D01*
X97260240Y-69347319D01*
X97292334Y-69402906D01*
X97292334Y-69467094D01*
X97260240Y-69522681D01*
X97215185Y-69567735D01*
X97132243Y-69699737D01*
X97119211Y-69720478D01*
X97063191Y-69880574D01*
X97059631Y-69890748D01*
X97039434Y-70070000D01*
X97059631Y-70249251D01*
X97059631Y-70249253D01*
X97059632Y-70249255D01*
X97119211Y-70419522D01*
X97149536Y-70467784D01*
X97215185Y-70572264D01*
X97260240Y-70617319D01*
X97292334Y-70672906D01*
X97292334Y-70737094D01*
X97260240Y-70792681D01*
X97215185Y-70837735D01*
X97119212Y-70990476D01*
X97119211Y-70990478D01*
X97068968Y-71134064D01*
X97059631Y-71160748D01*
X97039434Y-71339999D01*
X94398491Y-71339999D01*
X94400500Y-71332177D01*
X94400500Y-71310955D01*
X94402027Y-71291556D01*
X94403999Y-71279104D01*
X94405347Y-71270595D01*
X94401049Y-71225136D01*
X94400500Y-71213469D01*
X94400500Y-63964976D01*
X97064563Y-63964976D01*
X97084349Y-64153234D01*
X97142843Y-64333261D01*
X97237489Y-64497193D01*
X97364152Y-64637866D01*
X97517292Y-64749128D01*
X97690220Y-64826121D01*
X97875375Y-64865477D01*
X97875377Y-64865477D01*
X98064669Y-64865477D01*
X98064671Y-64865477D01*
X98188107Y-64839239D01*
X98249826Y-64826121D01*
X98422753Y-64749128D01*
X98463461Y-64719552D01*
X98575893Y-64637866D01*
X98586142Y-64626484D01*
X98702556Y-64497193D01*
X98797202Y-64333261D01*
X98855697Y-64153233D01*
X98875483Y-63964977D01*
X98855697Y-63776721D01*
X98808582Y-63631716D01*
X98797202Y-63596692D01*
X98702556Y-63432760D01*
X98575893Y-63292087D01*
X98428499Y-63185000D01*
X99094540Y-63185000D01*
X99101372Y-63250000D01*
X99114326Y-63373257D01*
X99172820Y-63553284D01*
X99267466Y-63717216D01*
X99394129Y-63857889D01*
X99547269Y-63969151D01*
X99720197Y-64046144D01*
X99905352Y-64085500D01*
X99905354Y-64085500D01*
X100094646Y-64085500D01*
X100094648Y-64085500D01*
X100218084Y-64059262D01*
X100279803Y-64046144D01*
X100452730Y-63969151D01*
X100604092Y-63859180D01*
X100638657Y-63841569D01*
X100676975Y-63835500D01*
X102823025Y-63835500D01*
X102861343Y-63841569D01*
X102895907Y-63859180D01*
X103047270Y-63969151D01*
X103047271Y-63969151D01*
X103047272Y-63969152D01*
X103220197Y-64046144D01*
X103405352Y-64085500D01*
X103405354Y-64085500D01*
X103594646Y-64085500D01*
X103594648Y-64085500D01*
X103718084Y-64059262D01*
X103779803Y-64046144D01*
X103952730Y-63969151D01*
X104004188Y-63931765D01*
X104105870Y-63857889D01*
X104232533Y-63717216D01*
X104327179Y-63553284D01*
X104352434Y-63475558D01*
X104385674Y-63373256D01*
X104405460Y-63185000D01*
X104385674Y-62996744D01*
X104327458Y-62817574D01*
X104327179Y-62816715D01*
X104232533Y-62652783D01*
X104105870Y-62512110D01*
X103952730Y-62400848D01*
X103779802Y-62323855D01*
X103594648Y-62284500D01*
X103594646Y-62284500D01*
X103405354Y-62284500D01*
X103405352Y-62284500D01*
X103220197Y-62323855D01*
X103047272Y-62400847D01*
X102995895Y-62438175D01*
X102895907Y-62510819D01*
X102861343Y-62528431D01*
X102823025Y-62534500D01*
X100676975Y-62534500D01*
X100638657Y-62528431D01*
X100604092Y-62510819D01*
X100452730Y-62400849D01*
X100452729Y-62400848D01*
X100452727Y-62400847D01*
X100279802Y-62323855D01*
X100094648Y-62284500D01*
X100094646Y-62284500D01*
X99905354Y-62284500D01*
X99905352Y-62284500D01*
X99720197Y-62323855D01*
X99547269Y-62400848D01*
X99394129Y-62512110D01*
X99267466Y-62652783D01*
X99172820Y-62816715D01*
X99114326Y-62996742D01*
X99114273Y-62997244D01*
X99094540Y-63185000D01*
X98428499Y-63185000D01*
X98422753Y-63180825D01*
X98249825Y-63103832D01*
X98064671Y-63064477D01*
X98064669Y-63064477D01*
X97875377Y-63064477D01*
X97875375Y-63064477D01*
X97690220Y-63103832D01*
X97517292Y-63180825D01*
X97364152Y-63292087D01*
X97237489Y-63432760D01*
X97142843Y-63596692D01*
X97084349Y-63776719D01*
X97064563Y-63964976D01*
X94400500Y-63964976D01*
X94400500Y-63489542D01*
X94413049Y-63435184D01*
X94448158Y-63391829D01*
X94498718Y-63368252D01*
X94529803Y-63361644D01*
X94702730Y-63284651D01*
X94855870Y-63173389D01*
X94982533Y-63032716D01*
X95077179Y-62868784D01*
X95093818Y-62817574D01*
X95135674Y-62688756D01*
X95155460Y-62500500D01*
X95135674Y-62312244D01*
X95103137Y-62212107D01*
X95077179Y-62132215D01*
X94982533Y-61968283D01*
X94855870Y-61827610D01*
X94702730Y-61716348D01*
X94529802Y-61639355D01*
X94344648Y-61600000D01*
X94344646Y-61600000D01*
X94155354Y-61600000D01*
X94155352Y-61600000D01*
X93970197Y-61639355D01*
X93797269Y-61716348D01*
X93644129Y-61827610D01*
X93517466Y-61968283D01*
X93422820Y-62132215D01*
X93364326Y-62312242D01*
X93351090Y-62438175D01*
X93340514Y-62476832D01*
X93318161Y-62510097D01*
X93284134Y-62546332D01*
X93281427Y-62549126D01*
X93261083Y-62569471D01*
X93258376Y-62572960D01*
X93250807Y-62581821D01*
X93219551Y-62615107D01*
X93209322Y-62633712D01*
X93198645Y-62649967D01*
X93185636Y-62666738D01*
X93167506Y-62708632D01*
X93162370Y-62719116D01*
X93140372Y-62759132D01*
X93135091Y-62779699D01*
X93128791Y-62798100D01*
X93120364Y-62817574D01*
X93113223Y-62862661D01*
X93110855Y-62874098D01*
X93099500Y-62918324D01*
X93099500Y-62939545D01*
X93097973Y-62958944D01*
X93094653Y-62979903D01*
X93098950Y-63025361D01*
X93099500Y-63037030D01*
X93099500Y-70929192D01*
X93090061Y-70976645D01*
X93063181Y-71016873D01*
X92362181Y-71717873D01*
X92312818Y-71748123D01*
X92255102Y-71752665D01*
X92201615Y-71730510D01*
X92164015Y-71686487D01*
X92150500Y-71630192D01*
X92150500Y-63856422D01*
X92158736Y-63811984D01*
X92182348Y-63773451D01*
X92232533Y-63717716D01*
X92253851Y-63680793D01*
X92327179Y-63553784D01*
X92331619Y-63540120D01*
X92385674Y-63373756D01*
X92405460Y-63185500D01*
X92385674Y-62997244D01*
X92331710Y-62831160D01*
X92327179Y-62817215D01*
X92232533Y-62653283D01*
X92105870Y-62512610D01*
X91952730Y-62401348D01*
X91779802Y-62324355D01*
X91594648Y-62285000D01*
X91594646Y-62285000D01*
X91405354Y-62285000D01*
X91405352Y-62285000D01*
X91220197Y-62324355D01*
X91047269Y-62401348D01*
X90894129Y-62512610D01*
X90767466Y-62653283D01*
X90672820Y-62817215D01*
X90614326Y-62997242D01*
X90594540Y-63185500D01*
X90614326Y-63373757D01*
X90672820Y-63553784D01*
X90767464Y-63717713D01*
X90780326Y-63731997D01*
X90817651Y-63773451D01*
X90841264Y-63811984D01*
X90849500Y-63856422D01*
X90849500Y-67935043D01*
X90837421Y-67988426D01*
X90803536Y-68031409D01*
X90754448Y-68055617D01*
X90699720Y-68056333D01*
X90594649Y-68034000D01*
X90594646Y-68034000D01*
X90405354Y-68034000D01*
X90405352Y-68034000D01*
X90220197Y-68073355D01*
X90047272Y-68150347D01*
X90019969Y-68170184D01*
X89895907Y-68260319D01*
X89861343Y-68277931D01*
X89823025Y-68284000D01*
X88901005Y-68284000D01*
X88879795Y-68281658D01*
X88807238Y-68283939D01*
X88803343Y-68284000D01*
X88774571Y-68284000D01*
X88770190Y-68284553D01*
X88758559Y-68285468D01*
X88712928Y-68286902D01*
X88692552Y-68292822D01*
X88673506Y-68296767D01*
X88652439Y-68299428D01*
X88609987Y-68316236D01*
X88598939Y-68320019D01*
X88555100Y-68332756D01*
X88536830Y-68343561D01*
X88519362Y-68352118D01*
X88507963Y-68356632D01*
X88499626Y-68359933D01*
X88462691Y-68386766D01*
X88452935Y-68393175D01*
X88413635Y-68416418D01*
X88398625Y-68431428D01*
X88383836Y-68444058D01*
X88366664Y-68456534D01*
X88337557Y-68491718D01*
X88329696Y-68500356D01*
X86736200Y-70093852D01*
X86707688Y-70115144D01*
X86674303Y-70127461D01*
X86620696Y-70138856D01*
X86447767Y-70215849D01*
X86294629Y-70327110D01*
X86167966Y-70467783D01*
X86073320Y-70631715D01*
X86014826Y-70811742D01*
X85995040Y-71000000D01*
X86014826Y-71188257D01*
X86073320Y-71368284D01*
X86167966Y-71532216D01*
X86294629Y-71672889D01*
X86447769Y-71784151D01*
X86620697Y-71861144D01*
X86805852Y-71900500D01*
X86805854Y-71900500D01*
X86995146Y-71900500D01*
X86995148Y-71900500D01*
X87118584Y-71874262D01*
X87180303Y-71861144D01*
X87353230Y-71784151D01*
X87396567Y-71752665D01*
X87506370Y-71672889D01*
X87537015Y-71638855D01*
X87633033Y-71532216D01*
X87727679Y-71368284D01*
X87786174Y-71188256D01*
X87805960Y-71000000D01*
X87799206Y-70935739D01*
X87805640Y-70881387D01*
X87834844Y-70835100D01*
X89048626Y-69621319D01*
X89088855Y-69594439D01*
X89136308Y-69585000D01*
X89823025Y-69585000D01*
X89861343Y-69591069D01*
X89895907Y-69608680D01*
X90047270Y-69718651D01*
X90047271Y-69718651D01*
X90047272Y-69718652D01*
X90220197Y-69795644D01*
X90405352Y-69835000D01*
X90405354Y-69835000D01*
X90594646Y-69835000D01*
X90594649Y-69835000D01*
X90699720Y-69812667D01*
X90754448Y-69813383D01*
X90803536Y-69837591D01*
X90837421Y-69880574D01*
X90849500Y-69933957D01*
X90849500Y-72255423D01*
X90840061Y-72302876D01*
X90813181Y-72343104D01*
X90253180Y-72903103D01*
X90236528Y-72916444D01*
X90186828Y-72969369D01*
X90184122Y-72972162D01*
X90163778Y-72992507D01*
X90161071Y-72995996D01*
X90153502Y-73004857D01*
X90122246Y-73038143D01*
X90112017Y-73056748D01*
X90101340Y-73073003D01*
X90088331Y-73089774D01*
X90070201Y-73131668D01*
X90065065Y-73142152D01*
X90043067Y-73182168D01*
X90037786Y-73202735D01*
X90031486Y-73221136D01*
X90023059Y-73240610D01*
X90015918Y-73285697D01*
X90013550Y-73297134D01*
X90002195Y-73341360D01*
X90002195Y-73362581D01*
X90000668Y-73381980D01*
X89997348Y-73402939D01*
X90001645Y-73448397D01*
X90002195Y-73460066D01*
X90002195Y-73959353D01*
X89999853Y-73980563D01*
X90000514Y-74001583D01*
X89985237Y-74065215D01*
X89939696Y-74112209D01*
X89876575Y-74129477D01*
X89685329Y-74129477D01*
X89500174Y-74168832D01*
X89327246Y-74245825D01*
X89217146Y-74325818D01*
X89182579Y-74343431D01*
X89144261Y-74349500D01*
X86426975Y-74349500D01*
X86388657Y-74343431D01*
X86354092Y-74325819D01*
X86202730Y-74215849D01*
X86202729Y-74215848D01*
X86202727Y-74215847D01*
X86029802Y-74138855D01*
X85844648Y-74099500D01*
X85844646Y-74099500D01*
X85655354Y-74099500D01*
X85655352Y-74099500D01*
X85470197Y-74138855D01*
X85297269Y-74215848D01*
X85144129Y-74327110D01*
X85017466Y-74467783D01*
X84922820Y-74631715D01*
X84864326Y-74811742D01*
X84844540Y-75000000D01*
X84864326Y-75188257D01*
X84922820Y-75368284D01*
X85017466Y-75532216D01*
X85022177Y-75537448D01*
X85052142Y-75598888D01*
X85044997Y-75666871D01*
X85002911Y-75720737D01*
X84878294Y-75811275D01*
X84751631Y-75951949D01*
X84693438Y-76052743D01*
X84654942Y-76093845D01*
X84602236Y-76113682D01*
X84546193Y-76108162D01*
X84498370Y-76078424D01*
X84434808Y-76014862D01*
X84410568Y-75980564D01*
X84399168Y-75940141D01*
X84398152Y-75930477D01*
X84387978Y-75833665D01*
X84385674Y-75811742D01*
X84327179Y-75631715D01*
X84232533Y-75467783D01*
X84105870Y-75327110D01*
X83952730Y-75215848D01*
X83779802Y-75138855D01*
X83594648Y-75099500D01*
X83594646Y-75099500D01*
X83405354Y-75099500D01*
X83405352Y-75099500D01*
X83220197Y-75138855D01*
X83047269Y-75215848D01*
X82894129Y-75327110D01*
X82767466Y-75467783D01*
X82672820Y-75631715D01*
X82614326Y-75811742D01*
X82594540Y-76000000D01*
X82614326Y-76188257D01*
X82672820Y-76368284D01*
X82767466Y-76532216D01*
X82894129Y-76672889D01*
X83047269Y-76784151D01*
X83220197Y-76861144D01*
X83405352Y-76900500D01*
X83405354Y-76900500D01*
X83429192Y-76900500D01*
X83476645Y-76909939D01*
X83516873Y-76936819D01*
X84229564Y-77649510D01*
X84242912Y-77666169D01*
X84295831Y-77715864D01*
X84298628Y-77718575D01*
X84318961Y-77738908D01*
X84322442Y-77741608D01*
X84331328Y-77749197D01*
X84364607Y-77780448D01*
X84383206Y-77790673D01*
X84399466Y-77801354D01*
X84416236Y-77814362D01*
X84428609Y-77819716D01*
X84458129Y-77832491D01*
X84468620Y-77837630D01*
X84521749Y-77866838D01*
X84568344Y-77911710D01*
X84586001Y-77973942D01*
X84569914Y-78036598D01*
X84524460Y-78082627D01*
X84462011Y-78099500D01*
X81866404Y-78099500D01*
X81810804Y-78086336D01*
X81767009Y-78049639D01*
X81744318Y-77997201D01*
X81747548Y-77940155D01*
X81776013Y-77890615D01*
X81780448Y-77885893D01*
X81790669Y-77867299D01*
X81801355Y-77851032D01*
X81814361Y-77834265D01*
X81814363Y-77834263D01*
X81832498Y-77792352D01*
X81837633Y-77781874D01*
X81859626Y-77741870D01*
X81859694Y-77741608D01*
X81864904Y-77721312D01*
X81871208Y-77702899D01*
X81879636Y-77683426D01*
X81886778Y-77638324D01*
X81889143Y-77626905D01*
X81900500Y-77582677D01*
X81900500Y-77561455D01*
X81902027Y-77542056D01*
X81902779Y-77537306D01*
X81905347Y-77521095D01*
X81901050Y-77475639D01*
X81900500Y-77463970D01*
X81900500Y-64670922D01*
X81908736Y-64626484D01*
X81932348Y-64587951D01*
X81982533Y-64532216D01*
X82002754Y-64497193D01*
X82077179Y-64368284D01*
X82104586Y-64283934D01*
X82135674Y-64188256D01*
X82155460Y-64000000D01*
X82135674Y-63811744D01*
X82132459Y-63801849D01*
X82129100Y-63737750D01*
X82158240Y-63680559D01*
X82212072Y-63645601D01*
X82276169Y-63642242D01*
X82346237Y-63657135D01*
X82389518Y-63666335D01*
X82389519Y-63666335D01*
X82578811Y-63666335D01*
X82578813Y-63666335D01*
X82702248Y-63640097D01*
X82763968Y-63626979D01*
X82936895Y-63549986D01*
X82950474Y-63540120D01*
X83090035Y-63438724D01*
X83093223Y-63435184D01*
X83216698Y-63298051D01*
X83311344Y-63134119D01*
X83369839Y-62954091D01*
X83389625Y-62765835D01*
X83369839Y-62577579D01*
X83328296Y-62449723D01*
X83311344Y-62397550D01*
X83216698Y-62233618D01*
X83090035Y-62092945D01*
X82936895Y-61981683D01*
X82763967Y-61904690D01*
X82578813Y-61865335D01*
X82578811Y-61865335D01*
X82389519Y-61865335D01*
X82389517Y-61865335D01*
X82204362Y-61904690D01*
X82031434Y-61981683D01*
X81878294Y-62092945D01*
X81751631Y-62233618D01*
X81656985Y-62397550D01*
X81598491Y-62577577D01*
X81586806Y-62688756D01*
X81578705Y-62765835D01*
X81598491Y-62954091D01*
X81598491Y-62954093D01*
X81598492Y-62954095D01*
X81601706Y-62963988D01*
X81605064Y-63028086D01*
X81575923Y-63085276D01*
X81522091Y-63120233D01*
X81457993Y-63123592D01*
X81344648Y-63099500D01*
X81344646Y-63099500D01*
X81155354Y-63099500D01*
X81155352Y-63099500D01*
X80970197Y-63138855D01*
X80797269Y-63215848D01*
X80644129Y-63327110D01*
X80517466Y-63467783D01*
X80422820Y-63631715D01*
X80394328Y-63719407D01*
X80360568Y-63772145D01*
X80305344Y-63801663D01*
X80242738Y-63800433D01*
X80188716Y-63768770D01*
X78684808Y-62264862D01*
X78660568Y-62230564D01*
X78649168Y-62190142D01*
X78644538Y-62146089D01*
X78635674Y-62061744D01*
X78635672Y-62061740D01*
X78634311Y-62048782D01*
X78634912Y-62048718D01*
X78631481Y-62005099D01*
X78653637Y-61951613D01*
X78697660Y-61914015D01*
X78753954Y-61900500D01*
X78844648Y-61900500D01*
X78968083Y-61874262D01*
X79029803Y-61861144D01*
X79202730Y-61784151D01*
X79265617Y-61738461D01*
X79355870Y-61672889D01*
X79386515Y-61638855D01*
X79482533Y-61532216D01*
X79577179Y-61368284D01*
X79635674Y-61188256D01*
X79655460Y-61000000D01*
X79635674Y-60811744D01*
X79605332Y-60718363D01*
X79577179Y-60631715D01*
X79482533Y-60467783D01*
X79355870Y-60327110D01*
X79202730Y-60215848D01*
X79029802Y-60138855D01*
X78844648Y-60099500D01*
X78844646Y-60099500D01*
X78655354Y-60099500D01*
X78655352Y-60099500D01*
X78470197Y-60138855D01*
X78297269Y-60215848D01*
X78144129Y-60327110D01*
X78017466Y-60467783D01*
X77922820Y-60631715D01*
X77864326Y-60811742D01*
X77852644Y-60922889D01*
X77844540Y-61000000D01*
X77864326Y-61188256D01*
X77864326Y-61188258D01*
X77865689Y-61201218D01*
X77865087Y-61201281D01*
X77868519Y-61244901D01*
X77846363Y-61298387D01*
X77802340Y-61335985D01*
X77746046Y-61349500D01*
X77655352Y-61349500D01*
X77470197Y-61388855D01*
X77297269Y-61465848D01*
X77144129Y-61577110D01*
X77017466Y-61717783D01*
X76922820Y-61881715D01*
X76864326Y-62061742D01*
X76860778Y-62095500D01*
X76846242Y-62233812D01*
X76843178Y-62262961D01*
X76841670Y-62262802D01*
X76836973Y-62300367D01*
X76805993Y-62347393D01*
X76757409Y-62375867D01*
X76701242Y-62379917D01*
X76645743Y-62371127D01*
X76634302Y-62368758D01*
X76590082Y-62357404D01*
X76590081Y-62357404D01*
X76568859Y-62357404D01*
X76549460Y-62355877D01*
X76528500Y-62352557D01*
X76528499Y-62352557D01*
X76506462Y-62354640D01*
X76483043Y-62356854D01*
X76471374Y-62357404D01*
X75778399Y-62357404D01*
X75720185Y-62342890D01*
X75675598Y-62302744D01*
X75655078Y-62246366D01*
X75649169Y-62190142D01*
X75635674Y-62061744D01*
X75584644Y-61904690D01*
X75577179Y-61881715D01*
X75482535Y-61717786D01*
X75442108Y-61672888D01*
X75364301Y-61586474D01*
X75335163Y-61529286D01*
X75338522Y-61465187D01*
X75373481Y-61411355D01*
X75430673Y-61382215D01*
X75507169Y-61365955D01*
X75529803Y-61361144D01*
X75702730Y-61284151D01*
X75790047Y-61220712D01*
X75855870Y-61172889D01*
X75982533Y-61032216D01*
X76077179Y-60868284D01*
X76105144Y-60782216D01*
X76135674Y-60688256D01*
X76155460Y-60500000D01*
X76135674Y-60311744D01*
X76077179Y-60131716D01*
X76077179Y-60131715D01*
X75982533Y-59967783D01*
X75855870Y-59827110D01*
X75702730Y-59715848D01*
X75529802Y-59638855D01*
X75344648Y-59599500D01*
X75344646Y-59599500D01*
X75155354Y-59599500D01*
X75155352Y-59599500D01*
X74970197Y-59638855D01*
X74797269Y-59715848D01*
X74644129Y-59827110D01*
X74517466Y-59967783D01*
X74422820Y-60131715D01*
X74364326Y-60311742D01*
X74344540Y-60499999D01*
X74364326Y-60688257D01*
X74422820Y-60868284D01*
X74517464Y-61032213D01*
X74517467Y-61032216D01*
X74635697Y-61163523D01*
X74664836Y-61220712D01*
X74661477Y-61284812D01*
X74626519Y-61338644D01*
X74569328Y-61367784D01*
X74470196Y-61388855D01*
X74297269Y-61465848D01*
X74144129Y-61577110D01*
X74017466Y-61717783D01*
X73977216Y-61787500D01*
X73931829Y-61832887D01*
X73869829Y-61849500D01*
X71826744Y-61849500D01*
X71768529Y-61834985D01*
X71723943Y-61794840D01*
X71703423Y-61738463D01*
X71687005Y-61582244D01*
X71649186Y-61465849D01*
X71628510Y-61402215D01*
X71533864Y-61238283D01*
X71407201Y-61097610D01*
X71254061Y-60986348D01*
X71081133Y-60909355D01*
X70895979Y-60870000D01*
X70895977Y-60870000D01*
X70706685Y-60870000D01*
X70706683Y-60870000D01*
X70521528Y-60909355D01*
X70348600Y-60986348D01*
X70195460Y-61097610D01*
X70068797Y-61238283D01*
X69974151Y-61402215D01*
X69915657Y-61582242D01*
X69915656Y-61582244D01*
X69915657Y-61582244D01*
X69899238Y-61738463D01*
X69878719Y-61794840D01*
X69834133Y-61834985D01*
X69775918Y-61849500D01*
X69770198Y-61849500D01*
X69724550Y-61840792D01*
X69685313Y-61815891D01*
X69681209Y-61812037D01*
X69678413Y-61809327D01*
X69658078Y-61788992D01*
X69654591Y-61786287D01*
X69645715Y-61778705D01*
X69612438Y-61747456D01*
X69593837Y-61737230D01*
X69577576Y-61726549D01*
X69566279Y-61717786D01*
X69560808Y-61713542D01*
X69518914Y-61695412D01*
X69508423Y-61690273D01*
X69468411Y-61668276D01*
X69447844Y-61662995D01*
X69429442Y-61656695D01*
X69409968Y-61648268D01*
X69364881Y-61641127D01*
X69353442Y-61638758D01*
X69309222Y-61627404D01*
X69309221Y-61627404D01*
X69287999Y-61627404D01*
X69268600Y-61625877D01*
X69247640Y-61622557D01*
X69247639Y-61622557D01*
X69233443Y-61623899D01*
X69202183Y-61626854D01*
X69190514Y-61627404D01*
X68307600Y-61627404D01*
X68286387Y-61625062D01*
X68239109Y-61626547D01*
X68209438Y-61623899D01*
X68094646Y-61599500D01*
X67905354Y-61599500D01*
X67905352Y-61599500D01*
X67720197Y-61638855D01*
X67547269Y-61715848D01*
X67394129Y-61827110D01*
X67267466Y-61967783D01*
X67172820Y-62131715D01*
X67114326Y-62311742D01*
X67094540Y-62500000D01*
X67114326Y-62688257D01*
X67172820Y-62868284D01*
X67267466Y-63032216D01*
X67394129Y-63172889D01*
X67547269Y-63284151D01*
X67720197Y-63361144D01*
X67905352Y-63400500D01*
X68039934Y-63400500D01*
X68101934Y-63417113D01*
X68147321Y-63462500D01*
X68192134Y-63540120D01*
X68318797Y-63680793D01*
X68471937Y-63792055D01*
X68644865Y-63869048D01*
X68830020Y-63908404D01*
X68830022Y-63908404D01*
X69019314Y-63908404D01*
X69019316Y-63908404D01*
X69142751Y-63882166D01*
X69204471Y-63869048D01*
X69377398Y-63792055D01*
X69528760Y-63682084D01*
X69563325Y-63664473D01*
X69601643Y-63658404D01*
X75930150Y-63658404D01*
X75980585Y-63669124D01*
X76022299Y-63699431D01*
X76041152Y-63732084D01*
X76041304Y-63731997D01*
X76142466Y-63907216D01*
X76269129Y-64047889D01*
X76376198Y-64125679D01*
X76415512Y-64173200D01*
X76427068Y-64233783D01*
X76408010Y-64292440D01*
X76363050Y-64334659D01*
X76303313Y-64349997D01*
X76155352Y-64349997D01*
X75970197Y-64389352D01*
X75797269Y-64466345D01*
X75644129Y-64577607D01*
X75517466Y-64718280D01*
X75422820Y-64882212D01*
X75364326Y-65062239D01*
X75344540Y-65250496D01*
X75364326Y-65438754D01*
X75422820Y-65618781D01*
X75517466Y-65782713D01*
X75644129Y-65923386D01*
X75797269Y-66034648D01*
X75970197Y-66111641D01*
X76155352Y-66150997D01*
X76155354Y-66150997D01*
X76344646Y-66150997D01*
X76344648Y-66150997D01*
X76468083Y-66124759D01*
X76529803Y-66111641D01*
X76702730Y-66034648D01*
X76841942Y-65933505D01*
X76855870Y-65923386D01*
X76982533Y-65782713D01*
X77077179Y-65618781D01*
X77099040Y-65551500D01*
X77135674Y-65438753D01*
X77155460Y-65250497D01*
X77135674Y-65062241D01*
X77077179Y-64882213D01*
X77077179Y-64882212D01*
X76982533Y-64718280D01*
X76855870Y-64577607D01*
X76748802Y-64499818D01*
X76709488Y-64452297D01*
X76697932Y-64391714D01*
X76716990Y-64333057D01*
X76761950Y-64290838D01*
X76821687Y-64275500D01*
X76969648Y-64275500D01*
X77093083Y-64249262D01*
X77154803Y-64236144D01*
X77327730Y-64159151D01*
X77335875Y-64153233D01*
X77480870Y-64047889D01*
X77495974Y-64031115D01*
X77607533Y-63907216D01*
X77702179Y-63743284D01*
X77760674Y-63563256D01*
X77769891Y-63475554D01*
X77795831Y-63411752D01*
X77851818Y-63371632D01*
X77920577Y-63367576D01*
X77980892Y-63400838D01*
X79313181Y-64733127D01*
X79340061Y-64773355D01*
X79349500Y-64820808D01*
X79349500Y-66975500D01*
X79332887Y-67037500D01*
X79287500Y-67082887D01*
X79225500Y-67099500D01*
X79155352Y-67099500D01*
X78970197Y-67138855D01*
X78797269Y-67215848D01*
X78644129Y-67327110D01*
X78517466Y-67467783D01*
X78422820Y-67631715D01*
X78364326Y-67811742D01*
X78344540Y-68000000D01*
X78364326Y-68188257D01*
X78422820Y-68368284D01*
X78517466Y-68532216D01*
X78644129Y-68672889D01*
X78797269Y-68784151D01*
X78970197Y-68861144D01*
X79155352Y-68900500D01*
X79225500Y-68900500D01*
X79287500Y-68917113D01*
X79332887Y-68962500D01*
X79349500Y-69024500D01*
X79349500Y-72725500D01*
X79332887Y-72787500D01*
X79287500Y-72832887D01*
X79225500Y-72849500D01*
X79155352Y-72849500D01*
X78970197Y-72888855D01*
X78797269Y-72965848D01*
X78644129Y-73077110D01*
X78517466Y-73217783D01*
X78422820Y-73381715D01*
X78364326Y-73561742D01*
X78344540Y-73749999D01*
X78364326Y-73938257D01*
X78422820Y-74118284D01*
X78517466Y-74282216D01*
X78644129Y-74422889D01*
X78797269Y-74534151D01*
X78970197Y-74611144D01*
X79155352Y-74650500D01*
X79225500Y-74650500D01*
X79287500Y-74667113D01*
X79332887Y-74712500D01*
X79349500Y-74774500D01*
X79349500Y-77011458D01*
X79336951Y-77065816D01*
X79301842Y-77109171D01*
X79251282Y-77132748D01*
X79220196Y-77139355D01*
X79047269Y-77216348D01*
X78894129Y-77327610D01*
X78767466Y-77468283D01*
X78672820Y-77632215D01*
X78614326Y-77812242D01*
X78611954Y-77834813D01*
X78595805Y-77988463D01*
X78575286Y-78044840D01*
X78530700Y-78084985D01*
X78472485Y-78099500D01*
X76320808Y-78099500D01*
X76273355Y-78090061D01*
X76233127Y-78063181D01*
X74924883Y-76754937D01*
X74895676Y-76708648D01*
X74889243Y-76654295D01*
X74891616Y-76631716D01*
X74905460Y-76500000D01*
X74885674Y-76311744D01*
X74851747Y-76207327D01*
X74827179Y-76131715D01*
X74732533Y-75967783D01*
X74605870Y-75827110D01*
X74452730Y-75715848D01*
X74279802Y-75638855D01*
X74094648Y-75599500D01*
X74094646Y-75599500D01*
X73905354Y-75599500D01*
X73905352Y-75599500D01*
X73720197Y-75638855D01*
X73547269Y-75715848D01*
X73436168Y-75796568D01*
X73371932Y-75819948D01*
X73305068Y-75805735D01*
X73255895Y-75758249D01*
X73232532Y-75717782D01*
X73105870Y-75577110D01*
X72952730Y-75465848D01*
X72779802Y-75388855D01*
X72594648Y-75349500D01*
X72594646Y-75349500D01*
X72405354Y-75349500D01*
X72405352Y-75349500D01*
X72220197Y-75388855D01*
X72047269Y-75465848D01*
X71894129Y-75577110D01*
X71767466Y-75717783D01*
X71672820Y-75881715D01*
X71614326Y-76061742D01*
X71594540Y-76250000D01*
X71614326Y-76438257D01*
X71672820Y-76618284D01*
X71767466Y-76782216D01*
X71894129Y-76922889D01*
X72047269Y-77034151D01*
X72220197Y-77111144D01*
X72405352Y-77150500D01*
X72405354Y-77150500D01*
X72594646Y-77150500D01*
X72594648Y-77150500D01*
X72718084Y-77124262D01*
X72779803Y-77111144D01*
X72849193Y-77080248D01*
X72952727Y-77034153D01*
X72955393Y-77032216D01*
X73063834Y-76953429D01*
X73128066Y-76930051D01*
X73194930Y-76944263D01*
X73244103Y-76991749D01*
X73267466Y-77032216D01*
X73394129Y-77172889D01*
X73547267Y-77284150D01*
X73646930Y-77328523D01*
X73684176Y-77354122D01*
X75479564Y-79149510D01*
X75492912Y-79166169D01*
X75545831Y-79215864D01*
X75548628Y-79218575D01*
X75568961Y-79238908D01*
X75572442Y-79241608D01*
X75581325Y-79249194D01*
X75614606Y-79280447D01*
X75614607Y-79280448D01*
X75633206Y-79290673D01*
X75649466Y-79301354D01*
X75666236Y-79314362D01*
X75686046Y-79322934D01*
X75708129Y-79332491D01*
X75718620Y-79337630D01*
X75758632Y-79359627D01*
X75779196Y-79364906D01*
X75797601Y-79371208D01*
X75817074Y-79379635D01*
X75862174Y-79386778D01*
X75873581Y-79389140D01*
X75917823Y-79400500D01*
X75939051Y-79400500D01*
X75958449Y-79402026D01*
X75979405Y-79405346D01*
X76024851Y-79401050D01*
X76036521Y-79400500D01*
X78774642Y-79400500D01*
X78829777Y-79413432D01*
X78873412Y-79449530D01*
X78896446Y-79501265D01*
X78894074Y-79557846D01*
X78866792Y-79607472D01*
X78767466Y-79717783D01*
X78672820Y-79881715D01*
X78614326Y-80061742D01*
X78595187Y-80243845D01*
X78594540Y-80250000D01*
X78598059Y-80283478D01*
X78614326Y-80438257D01*
X78672820Y-80618284D01*
X78767466Y-80782216D01*
X78894129Y-80922889D01*
X79047269Y-81034151D01*
X79220197Y-81111144D01*
X79405352Y-81150500D01*
X79405354Y-81150500D01*
X79429192Y-81150500D01*
X79476645Y-81159939D01*
X79516873Y-81186819D01*
X79979564Y-81649510D01*
X79992912Y-81666169D01*
X80045831Y-81715864D01*
X80048628Y-81718575D01*
X80068962Y-81738909D01*
X80072443Y-81741609D01*
X80081326Y-81749195D01*
X80114607Y-81780448D01*
X80133198Y-81790668D01*
X80149462Y-81801351D01*
X80166235Y-81814362D01*
X80208138Y-81832495D01*
X80218626Y-81837633D01*
X80258632Y-81859627D01*
X80279197Y-81864906D01*
X80297593Y-81871205D01*
X80317074Y-81879636D01*
X80362178Y-81886779D01*
X80373597Y-81889144D01*
X80417823Y-81900500D01*
X80439045Y-81900500D01*
X80458443Y-81902026D01*
X80479405Y-81905347D01*
X80524863Y-81901049D01*
X80536531Y-81900500D01*
X84767039Y-81900500D01*
X84829039Y-81917113D01*
X84874426Y-81962500D01*
X84891039Y-82024500D01*
X84874426Y-82086500D01*
X84848320Y-82131715D01*
X84789826Y-82311742D01*
X84770040Y-82500000D01*
X84789826Y-82688257D01*
X84848320Y-82868284D01*
X84942966Y-83032216D01*
X85069629Y-83172889D01*
X85222769Y-83284151D01*
X85395697Y-83361144D01*
X85580852Y-83400500D01*
X85580854Y-83400500D01*
X85770146Y-83400500D01*
X85770148Y-83400500D01*
X85893583Y-83374262D01*
X85955303Y-83361144D01*
X86128230Y-83284151D01*
X86279592Y-83174180D01*
X86314157Y-83156569D01*
X86352475Y-83150500D01*
X86573025Y-83150500D01*
X86611343Y-83156569D01*
X86645907Y-83174180D01*
X86797270Y-83284151D01*
X86797271Y-83284151D01*
X86797272Y-83284152D01*
X86970197Y-83361144D01*
X87155352Y-83400500D01*
X87155354Y-83400500D01*
X87344646Y-83400500D01*
X87344648Y-83400500D01*
X87468083Y-83374262D01*
X87529803Y-83361144D01*
X87702730Y-83284151D01*
X87746272Y-83252516D01*
X87855870Y-83172889D01*
X87892943Y-83131716D01*
X87982533Y-83032216D01*
X88077179Y-82868284D01*
X88135674Y-82688256D01*
X88155460Y-82500000D01*
X88135674Y-82311744D01*
X88099852Y-82201498D01*
X88095668Y-82141651D01*
X88120071Y-82086840D01*
X88167350Y-82049903D01*
X88202730Y-82034151D01*
X88322985Y-81946780D01*
X88355870Y-81922889D01*
X88392943Y-81881716D01*
X88482533Y-81782216D01*
X88577179Y-81618284D01*
X88635674Y-81438256D01*
X88655460Y-81250000D01*
X88635674Y-81061744D01*
X88577179Y-80881716D01*
X88548654Y-80832309D01*
X88536928Y-80811999D01*
X88520315Y-80749998D01*
X88536926Y-80688001D01*
X88577179Y-80618284D01*
X88635674Y-80438256D01*
X88648253Y-80318562D01*
X88674195Y-80254759D01*
X88730182Y-80214639D01*
X88798940Y-80210584D01*
X88859255Y-80243845D01*
X89838181Y-81222772D01*
X89865061Y-81263000D01*
X89874500Y-81310453D01*
X89874500Y-85414277D01*
X89872235Y-85434783D01*
X89874439Y-85504894D01*
X89874500Y-85508789D01*
X89874500Y-85536370D01*
X89875003Y-85540355D01*
X89875918Y-85551988D01*
X89877290Y-85595647D01*
X89882879Y-85614881D01*
X89886825Y-85633937D01*
X89889335Y-85653813D01*
X89905414Y-85694425D01*
X89909197Y-85705472D01*
X89921382Y-85747412D01*
X89931580Y-85764656D01*
X89940136Y-85782121D01*
X89947514Y-85800753D01*
X89947515Y-85800754D01*
X89973180Y-85836080D01*
X89979593Y-85845843D01*
X90001826Y-85883437D01*
X90001829Y-85883440D01*
X90001830Y-85883441D01*
X90015995Y-85897606D01*
X90028627Y-85912396D01*
X90040406Y-85928608D01*
X90074058Y-85956447D01*
X90082699Y-85964310D01*
X90466019Y-86347631D01*
X90494674Y-86392393D01*
X90501956Y-86445040D01*
X90486528Y-86495900D01*
X90451224Y-86535629D01*
X90395911Y-86575817D01*
X90361344Y-86593431D01*
X90323025Y-86599500D01*
X87131469Y-86599500D01*
X87084016Y-86590061D01*
X87043788Y-86563181D01*
X83831095Y-83350488D01*
X83817752Y-83333833D01*
X83764827Y-83284134D01*
X83762030Y-83281423D01*
X83741695Y-83261088D01*
X83738208Y-83258383D01*
X83729332Y-83250801D01*
X83696055Y-83219552D01*
X83677454Y-83209326D01*
X83661193Y-83198645D01*
X83644425Y-83185638D01*
X83635253Y-83181669D01*
X83602530Y-83167508D01*
X83592040Y-83162369D01*
X83552028Y-83140372D01*
X83531461Y-83135091D01*
X83513059Y-83128791D01*
X83493585Y-83120364D01*
X83448498Y-83113223D01*
X83437059Y-83110854D01*
X83392839Y-83099500D01*
X83392838Y-83099500D01*
X83371616Y-83099500D01*
X83352217Y-83097973D01*
X83331257Y-83094653D01*
X83331256Y-83094653D01*
X83309219Y-83096736D01*
X83285800Y-83098950D01*
X83274131Y-83099500D01*
X72570808Y-83099500D01*
X72523355Y-83090061D01*
X72483127Y-83063181D01*
X71436819Y-82016873D01*
X71409939Y-81976645D01*
X71400500Y-81929192D01*
X71400500Y-80318443D01*
X71402841Y-80297233D01*
X71402551Y-80288020D01*
X71400560Y-80224675D01*
X71400500Y-80220781D01*
X71400500Y-80192020D01*
X71400500Y-80192014D01*
X71399946Y-80187634D01*
X71399030Y-80175993D01*
X71397597Y-80130369D01*
X71391675Y-80109986D01*
X71387732Y-80090949D01*
X71385071Y-80069881D01*
X71368266Y-80027437D01*
X71364481Y-80016383D01*
X71351744Y-79972541D01*
X71351744Y-79972540D01*
X71340934Y-79954261D01*
X71332380Y-79936801D01*
X71324568Y-79917068D01*
X71297723Y-79880119D01*
X71291332Y-79870390D01*
X71268081Y-79831074D01*
X71253068Y-79816061D01*
X71240435Y-79801269D01*
X71227963Y-79784102D01*
X71192779Y-79754995D01*
X71184140Y-79747133D01*
X70858907Y-79421900D01*
X70834667Y-79387602D01*
X70823267Y-79347179D01*
X70822263Y-79337630D01*
X70809773Y-79218782D01*
X70809773Y-79218780D01*
X70751278Y-79038753D01*
X70656632Y-78874821D01*
X70529969Y-78734148D01*
X70376829Y-78622886D01*
X70203901Y-78545893D01*
X70018747Y-78506538D01*
X70018745Y-78506538D01*
X69856137Y-78506538D01*
X69794137Y-78489925D01*
X69748750Y-78444538D01*
X69732137Y-78382538D01*
X69732137Y-67225346D01*
X69740373Y-67180908D01*
X69763985Y-67142375D01*
X69814170Y-67086640D01*
X69885842Y-66962499D01*
X69931229Y-66917113D01*
X69993229Y-66900500D01*
X70094648Y-66900500D01*
X70249787Y-66867524D01*
X70279803Y-66861144D01*
X70452730Y-66784151D01*
X70452729Y-66784151D01*
X70605870Y-66672889D01*
X70642943Y-66631716D01*
X70732533Y-66532216D01*
X70827179Y-66368284D01*
X70885674Y-66188256D01*
X70905460Y-66000000D01*
X70885674Y-65811744D01*
X70853980Y-65714200D01*
X70827179Y-65631715D01*
X70732533Y-65467783D01*
X70605870Y-65327110D01*
X70452730Y-65215848D01*
X70279802Y-65138855D01*
X70094648Y-65099500D01*
X70094646Y-65099500D01*
X70070808Y-65099500D01*
X70023355Y-65090061D01*
X69983127Y-65063181D01*
X69770434Y-64850488D01*
X69757091Y-64833833D01*
X69704166Y-64784134D01*
X69701369Y-64781423D01*
X69681034Y-64761088D01*
X69677547Y-64758383D01*
X69668671Y-64750801D01*
X69635394Y-64719552D01*
X69616793Y-64709326D01*
X69600532Y-64698645D01*
X69583764Y-64685638D01*
X69560177Y-64675431D01*
X69541869Y-64667508D01*
X69531379Y-64662369D01*
X69491367Y-64640372D01*
X69470800Y-64635091D01*
X69452398Y-64628791D01*
X69432924Y-64620364D01*
X69387837Y-64613223D01*
X69376398Y-64610854D01*
X69332178Y-64599500D01*
X69332177Y-64599500D01*
X69310955Y-64599500D01*
X69291556Y-64597973D01*
X69270596Y-64594653D01*
X69270595Y-64594653D01*
X69248558Y-64596736D01*
X69225139Y-64598950D01*
X69213470Y-64599500D01*
X68024843Y-64599500D01*
X68003633Y-64597158D01*
X67931076Y-64599439D01*
X67927181Y-64599500D01*
X67898410Y-64599500D01*
X67894029Y-64600053D01*
X67882398Y-64600968D01*
X67836767Y-64602402D01*
X67816391Y-64608322D01*
X67797345Y-64612267D01*
X67776278Y-64614928D01*
X67733831Y-64631734D01*
X67722784Y-64635516D01*
X67678940Y-64648255D01*
X67660669Y-64659060D01*
X67643203Y-64667617D01*
X67623468Y-64675431D01*
X67586541Y-64702260D01*
X67576781Y-64708671D01*
X67537475Y-64731917D01*
X67522464Y-64746928D01*
X67507675Y-64759558D01*
X67490503Y-64772034D01*
X67461396Y-64807218D01*
X67453535Y-64815856D01*
X67100484Y-65168907D01*
X67083831Y-65182249D01*
X67034133Y-65235172D01*
X67031427Y-65237965D01*
X67011083Y-65258310D01*
X67008376Y-65261799D01*
X67000807Y-65270660D01*
X66969551Y-65303946D01*
X66959322Y-65322551D01*
X66948645Y-65338806D01*
X66935636Y-65355577D01*
X66917506Y-65397471D01*
X66912370Y-65407955D01*
X66890372Y-65447971D01*
X66885091Y-65468538D01*
X66878791Y-65486939D01*
X66870364Y-65506413D01*
X66863223Y-65551500D01*
X66860855Y-65562937D01*
X66849500Y-65607163D01*
X66849500Y-65628384D01*
X66847973Y-65647783D01*
X66844653Y-65668742D01*
X66848950Y-65714200D01*
X66849500Y-65725869D01*
X66849500Y-66456830D01*
X66835689Y-66513703D01*
X66797331Y-66557906D01*
X66742972Y-66579593D01*
X66684720Y-66573933D01*
X66635553Y-66542186D01*
X66606424Y-66491425D01*
X66601745Y-66475321D01*
X66590937Y-66457045D01*
X66582376Y-66439569D01*
X66574568Y-66419848D01*
X66547731Y-66382910D01*
X66541317Y-66373144D01*
X66518081Y-66333854D01*
X66503074Y-66318847D01*
X66490447Y-66304065D01*
X66488793Y-66301789D01*
X66488148Y-66300901D01*
X66465137Y-66240968D01*
X66451744Y-66113533D01*
X66414855Y-66000000D01*
X66393249Y-65933504D01*
X66298603Y-65769572D01*
X66171940Y-65628899D01*
X66018800Y-65517637D01*
X65845872Y-65440644D01*
X65660718Y-65401289D01*
X65660716Y-65401289D01*
X65471424Y-65401289D01*
X65471422Y-65401289D01*
X65286267Y-65440644D01*
X65113339Y-65517637D01*
X64960199Y-65628899D01*
X64833536Y-65769572D01*
X64738890Y-65933504D01*
X64680396Y-66113531D01*
X64660610Y-66301789D01*
X64679028Y-66477037D01*
X64673638Y-66528316D01*
X64647857Y-66572970D01*
X64517466Y-66717783D01*
X64422820Y-66881715D01*
X64364326Y-67061742D01*
X64364325Y-67061744D01*
X64364326Y-67061744D01*
X64351802Y-67180908D01*
X64350831Y-67190142D01*
X64339430Y-67230564D01*
X64315191Y-67264861D01*
X62874984Y-68705068D01*
X62858331Y-68718410D01*
X62808633Y-68771333D01*
X62805927Y-68774126D01*
X62785583Y-68794471D01*
X62782876Y-68797960D01*
X62775307Y-68806821D01*
X62744051Y-68840107D01*
X62733822Y-68858712D01*
X62723145Y-68874967D01*
X62710136Y-68891738D01*
X62692006Y-68933632D01*
X62686870Y-68944116D01*
X62664872Y-68984132D01*
X62659591Y-69004699D01*
X62653291Y-69023100D01*
X62644864Y-69042574D01*
X62637723Y-69087661D01*
X62635355Y-69099093D01*
X62626981Y-69131715D01*
X62624000Y-69143324D01*
X62624000Y-69164545D01*
X62622473Y-69183944D01*
X62619153Y-69204903D01*
X62623450Y-69250361D01*
X62624000Y-69262030D01*
X62624000Y-71475500D01*
X62607387Y-71537500D01*
X62562000Y-71582887D01*
X62500000Y-71599500D01*
X62429852Y-71599500D01*
X62244697Y-71638855D01*
X62071769Y-71715848D01*
X61918629Y-71827110D01*
X61791966Y-71967783D01*
X61697320Y-72131715D01*
X61638826Y-72311742D01*
X61625331Y-72440142D01*
X61613930Y-72480564D01*
X61589691Y-72514861D01*
X60100484Y-74004068D01*
X60083831Y-74017410D01*
X60034133Y-74070333D01*
X60031427Y-74073126D01*
X60011083Y-74093471D01*
X60008376Y-74096960D01*
X60000807Y-74105821D01*
X59969551Y-74139107D01*
X59959322Y-74157712D01*
X59948645Y-74173967D01*
X59935636Y-74190738D01*
X59917506Y-74232632D01*
X59912370Y-74243116D01*
X59890372Y-74283132D01*
X59885091Y-74303699D01*
X59878791Y-74322100D01*
X59870364Y-74341574D01*
X59863223Y-74386661D01*
X59860855Y-74398093D01*
X59851158Y-74435868D01*
X59849500Y-74442324D01*
X59849500Y-74463545D01*
X59847973Y-74482944D01*
X59844653Y-74503903D01*
X59848950Y-74549361D01*
X59849500Y-74561030D01*
X59849500Y-76274658D01*
X59835389Y-76332107D01*
X59796269Y-76376480D01*
X59741041Y-76397680D01*
X59682277Y-76390881D01*
X59633350Y-76357630D01*
X59605870Y-76327110D01*
X59452730Y-76215848D01*
X59279802Y-76138855D01*
X59094648Y-76099500D01*
X59094646Y-76099500D01*
X58905354Y-76099500D01*
X58905352Y-76099500D01*
X58720197Y-76138855D01*
X58547269Y-76215848D01*
X58394129Y-76327110D01*
X58267466Y-76467783D01*
X58172820Y-76631715D01*
X58142431Y-76725246D01*
X58103541Y-76782472D01*
X58040041Y-76809950D01*
X57971703Y-76799127D01*
X57919803Y-76753371D01*
X57900500Y-76686928D01*
X57900500Y-69320808D01*
X57909939Y-69273355D01*
X57936819Y-69233127D01*
X59233127Y-67936819D01*
X59273355Y-67909939D01*
X59320808Y-67900500D01*
X59344648Y-67900500D01*
X59468084Y-67874262D01*
X59529803Y-67861144D01*
X59702730Y-67784151D01*
X59702729Y-67784151D01*
X59855870Y-67672889D01*
X59892943Y-67631716D01*
X59982533Y-67532216D01*
X60077179Y-67368284D01*
X60135674Y-67188256D01*
X60155460Y-67000000D01*
X60135674Y-66811744D01*
X60079547Y-66639003D01*
X60077179Y-66631715D01*
X60012079Y-66518958D01*
X59995542Y-66452630D01*
X60016665Y-66387618D01*
X60069030Y-66343678D01*
X60202730Y-66284151D01*
X60202730Y-66284150D01*
X60202732Y-66284150D01*
X60355870Y-66172889D01*
X60386515Y-66138855D01*
X60482533Y-66032216D01*
X60577179Y-65868284D01*
X60635674Y-65688256D01*
X60655460Y-65500000D01*
X60635674Y-65311744D01*
X60577179Y-65131716D01*
X60577179Y-65131715D01*
X60482533Y-64967783D01*
X60355870Y-64827110D01*
X60202730Y-64715848D01*
X60029802Y-64638855D01*
X59844648Y-64599500D01*
X59844646Y-64599500D01*
X59655354Y-64599500D01*
X59655352Y-64599500D01*
X59470197Y-64638855D01*
X59297269Y-64715848D01*
X59144129Y-64827110D01*
X59017466Y-64967783D01*
X58922820Y-65131715D01*
X58864326Y-65311742D01*
X58847926Y-65467783D01*
X58844540Y-65500000D01*
X58851155Y-65562937D01*
X58864326Y-65688257D01*
X58922820Y-65868284D01*
X58987921Y-65981041D01*
X59004458Y-66047368D01*
X58983335Y-66112380D01*
X58930970Y-66156320D01*
X58797269Y-66215848D01*
X58644129Y-66327110D01*
X58517466Y-66467783D01*
X58422820Y-66631715D01*
X58364326Y-66811742D01*
X58350831Y-66940142D01*
X58339430Y-66980564D01*
X58315191Y-67014861D01*
X56850484Y-68479568D01*
X56833831Y-68492910D01*
X56784133Y-68545833D01*
X56781427Y-68548626D01*
X56761083Y-68568971D01*
X56758376Y-68572460D01*
X56750807Y-68581321D01*
X56719551Y-68614607D01*
X56709322Y-68633212D01*
X56698645Y-68649467D01*
X56685636Y-68666238D01*
X56667506Y-68708132D01*
X56662370Y-68718616D01*
X56640372Y-68758632D01*
X56635091Y-68779199D01*
X56628791Y-68797600D01*
X56620364Y-68817074D01*
X56613223Y-68862161D01*
X56610855Y-68873593D01*
X56599683Y-68917113D01*
X56599500Y-68917824D01*
X56599500Y-68939045D01*
X56597973Y-68958444D01*
X56594653Y-68979403D01*
X56598950Y-69024861D01*
X56599500Y-69036530D01*
X56599500Y-82975156D01*
X56597158Y-82996365D01*
X56599439Y-83068923D01*
X56599500Y-83072818D01*
X56599500Y-83101587D01*
X56600053Y-83105968D01*
X56600968Y-83117601D01*
X56602402Y-83163230D01*
X56608323Y-83183611D01*
X56612267Y-83202656D01*
X56614928Y-83223720D01*
X56631737Y-83266176D01*
X56635520Y-83277224D01*
X56648256Y-83321061D01*
X56659061Y-83339331D01*
X56667621Y-83356804D01*
X56675431Y-83376530D01*
X56702267Y-83413469D01*
X56708673Y-83423221D01*
X56731919Y-83462526D01*
X56731920Y-83462527D01*
X56731921Y-83462528D01*
X56746925Y-83477532D01*
X56759564Y-83492330D01*
X56772037Y-83509498D01*
X56807212Y-83538597D01*
X56815854Y-83546461D01*
X58063181Y-84793788D01*
X58090061Y-84834016D01*
X58099500Y-84881469D01*
X58099500Y-88771342D01*
X58085390Y-88828790D01*
X58046269Y-88873164D01*
X57991043Y-88894364D01*
X57932279Y-88887566D01*
X57897156Y-88863697D01*
X57896392Y-88864749D01*
X57732707Y-88745825D01*
X57559779Y-88668832D01*
X57498720Y-88655854D01*
X57448158Y-88632278D01*
X57413050Y-88588922D01*
X57400500Y-88534564D01*
X57400500Y-85524843D01*
X57402841Y-85503633D01*
X57400677Y-85434783D01*
X57400560Y-85431075D01*
X57400500Y-85427181D01*
X57400500Y-85398420D01*
X57400500Y-85398414D01*
X57399946Y-85394034D01*
X57399030Y-85382393D01*
X57397597Y-85336770D01*
X57391675Y-85316387D01*
X57387732Y-85297350D01*
X57385071Y-85276281D01*
X57368264Y-85233831D01*
X57364483Y-85222787D01*
X57351745Y-85178943D01*
X57351744Y-85178942D01*
X57351744Y-85178940D01*
X57340934Y-85160661D01*
X57332380Y-85143201D01*
X57324568Y-85123468D01*
X57297723Y-85086519D01*
X57291332Y-85076790D01*
X57268081Y-85037474D01*
X57253068Y-85022461D01*
X57240435Y-85007669D01*
X57227963Y-84990502D01*
X57192779Y-84961395D01*
X57184140Y-84953533D01*
X56831095Y-84600488D01*
X56817752Y-84583834D01*
X56815863Y-84582060D01*
X56791308Y-84559001D01*
X56768805Y-84530610D01*
X56762530Y-84519742D01*
X56732533Y-84467784D01*
X56732532Y-84467782D01*
X56605870Y-84327110D01*
X56452730Y-84215848D01*
X56279802Y-84138855D01*
X56094648Y-84099500D01*
X56094646Y-84099500D01*
X56090191Y-84099500D01*
X56028191Y-84082887D01*
X55982804Y-84037500D01*
X55917537Y-83924453D01*
X55790874Y-83783780D01*
X55637734Y-83672518D01*
X55464806Y-83595525D01*
X55279652Y-83556170D01*
X55279650Y-83556170D01*
X55090358Y-83556170D01*
X55090356Y-83556170D01*
X54905201Y-83595525D01*
X54732273Y-83672518D01*
X54579133Y-83783780D01*
X54452470Y-83924453D01*
X54357824Y-84088385D01*
X54299330Y-84268412D01*
X54279544Y-84456669D01*
X54299330Y-84644927D01*
X54357824Y-84824954D01*
X54452468Y-84988883D01*
X54452471Y-84988886D01*
X54527656Y-85072387D01*
X54551268Y-85110919D01*
X54559504Y-85155357D01*
X54559504Y-86352260D01*
X54557239Y-86372766D01*
X54559443Y-86442877D01*
X54559504Y-86446772D01*
X54559504Y-86474353D01*
X54560007Y-86478338D01*
X54560922Y-86489971D01*
X54562294Y-86533630D01*
X54567883Y-86552864D01*
X54571829Y-86571920D01*
X54574339Y-86591796D01*
X54590418Y-86632408D01*
X54594201Y-86643455D01*
X54606386Y-86685395D01*
X54616584Y-86702639D01*
X54625140Y-86720104D01*
X54632518Y-86738736D01*
X54632519Y-86738737D01*
X54658184Y-86774063D01*
X54664597Y-86783826D01*
X54686830Y-86821420D01*
X54686833Y-86821423D01*
X54686834Y-86821424D01*
X54700999Y-86835589D01*
X54713631Y-86850379D01*
X54725410Y-86866591D01*
X54759056Y-86894425D01*
X54767698Y-86902289D01*
X54811039Y-86945631D01*
X54835278Y-86979928D01*
X54846678Y-87020349D01*
X54864326Y-87188257D01*
X54922820Y-87368284D01*
X55017466Y-87532216D01*
X55144129Y-87672889D01*
X55297269Y-87784151D01*
X55470197Y-87861144D01*
X55655352Y-87900500D01*
X55655354Y-87900500D01*
X55844646Y-87900500D01*
X55844649Y-87900500D01*
X55949720Y-87878167D01*
X56004448Y-87878883D01*
X56053536Y-87903091D01*
X56087421Y-87946074D01*
X56099500Y-87999457D01*
X56099500Y-88914495D01*
X56097158Y-88935704D01*
X56099439Y-89008262D01*
X56099500Y-89012157D01*
X56099500Y-89040926D01*
X56100053Y-89045307D01*
X56100968Y-89056940D01*
X56102402Y-89102569D01*
X56108323Y-89122950D01*
X56112267Y-89141995D01*
X56114928Y-89163059D01*
X56131737Y-89205515D01*
X56135520Y-89216563D01*
X56148256Y-89260400D01*
X56159061Y-89278670D01*
X56167621Y-89296143D01*
X56175431Y-89315869D01*
X56202267Y-89352808D01*
X56208673Y-89362560D01*
X56231919Y-89401865D01*
X56231921Y-89401867D01*
X56246925Y-89416871D01*
X56259564Y-89431669D01*
X56272037Y-89448837D01*
X56307212Y-89477936D01*
X56315854Y-89485800D01*
X56345168Y-89515114D01*
X56369408Y-89549411D01*
X56380807Y-89589831D01*
X56388281Y-89660936D01*
X56394303Y-89718234D01*
X56452797Y-89898261D01*
X56547443Y-90062193D01*
X56675859Y-90204813D01*
X56705948Y-90266963D01*
X56698132Y-90335570D01*
X56654833Y-90389360D01*
X56551796Y-90461507D01*
X56384705Y-90628598D01*
X56254775Y-90814159D01*
X56210457Y-90853025D01*
X56153200Y-90867036D01*
X56095943Y-90853025D01*
X56051625Y-90814159D01*
X55938171Y-90652129D01*
X55921695Y-90628599D01*
X55754601Y-90461505D01*
X55561030Y-90325965D01*
X55346863Y-90226097D01*
X55274274Y-90206647D01*
X55118607Y-90164936D01*
X54883200Y-90144340D01*
X54647792Y-90164936D01*
X54419536Y-90226097D01*
X54205370Y-90325965D01*
X54011798Y-90461505D01*
X53844705Y-90628598D01*
X53714775Y-90814159D01*
X53670457Y-90853025D01*
X53613200Y-90867036D01*
X53555943Y-90853025D01*
X53511625Y-90814159D01*
X53398171Y-90652129D01*
X53381695Y-90628599D01*
X53214601Y-90461505D01*
X53021030Y-90325965D01*
X52806863Y-90226097D01*
X52734274Y-90206647D01*
X52578607Y-90164936D01*
X52343200Y-90144340D01*
X52107792Y-90164936D01*
X51879536Y-90226097D01*
X51665370Y-90325965D01*
X51471798Y-90461505D01*
X51304705Y-90628598D01*
X51169165Y-90822170D01*
X51069297Y-91036336D01*
X51008136Y-91264592D01*
X50987540Y-91499999D01*
X51008136Y-91735407D01*
X51021416Y-91784967D01*
X51069297Y-91963663D01*
X51169165Y-92177830D01*
X51304705Y-92371401D01*
X51471799Y-92538495D01*
X51665370Y-92674035D01*
X51879537Y-92773903D01*
X52090330Y-92830384D01*
X52107792Y-92835063D01*
X52343199Y-92855659D01*
X52343199Y-92855658D01*
X52343200Y-92855659D01*
X52578608Y-92835063D01*
X52806863Y-92773903D01*
X53021030Y-92674035D01*
X53214601Y-92538495D01*
X53381695Y-92371401D01*
X53511628Y-92185837D01*
X53555942Y-92146975D01*
X53613199Y-92132964D01*
X53670455Y-92146974D01*
X53714773Y-92185839D01*
X53844705Y-92371401D01*
X54011799Y-92538495D01*
X54205370Y-92674035D01*
X54419537Y-92773903D01*
X54630330Y-92830384D01*
X54647792Y-92835063D01*
X54883199Y-92855659D01*
X54883199Y-92855658D01*
X54883200Y-92855659D01*
X55118608Y-92835063D01*
X55346863Y-92773903D01*
X55561030Y-92674035D01*
X55754601Y-92538495D01*
X55921695Y-92371401D01*
X56051628Y-92185837D01*
X56095942Y-92146975D01*
X56153199Y-92132964D01*
X56210455Y-92146974D01*
X56254773Y-92185839D01*
X56384705Y-92371401D01*
X56551799Y-92538495D01*
X56745370Y-92674035D01*
X56959537Y-92773903D01*
X57170330Y-92830384D01*
X57187792Y-92835063D01*
X57423199Y-92855659D01*
X57423199Y-92855658D01*
X57423200Y-92855659D01*
X57658608Y-92835063D01*
X57886863Y-92773903D01*
X57996114Y-92722957D01*
X58055292Y-92711526D01*
X58112873Y-92729350D01*
X58155246Y-92772219D01*
X58159060Y-92778668D01*
X58167621Y-92796143D01*
X58175432Y-92815871D01*
X58183599Y-92827112D01*
X58202267Y-92852808D01*
X58208673Y-92862560D01*
X58231919Y-92901865D01*
X58231921Y-92901867D01*
X58246925Y-92916871D01*
X58259564Y-92931669D01*
X58272037Y-92948837D01*
X58307212Y-92977936D01*
X58315854Y-92985800D01*
X58815191Y-93485137D01*
X58839431Y-93519434D01*
X58850830Y-93559854D01*
X58858287Y-93630801D01*
X58864326Y-93688257D01*
X58922820Y-93868284D01*
X59017466Y-94032216D01*
X59144129Y-94172889D01*
X59297269Y-94284151D01*
X59470197Y-94361144D01*
X59655352Y-94400500D01*
X59655354Y-94400500D01*
X59844646Y-94400500D01*
X59844648Y-94400500D01*
X59968083Y-94374262D01*
X60029803Y-94361144D01*
X60202730Y-94284151D01*
X60297430Y-94215348D01*
X60355870Y-94172889D01*
X60482533Y-94032216D01*
X60577179Y-93868284D01*
X60595083Y-93813181D01*
X60635674Y-93688256D01*
X60655460Y-93500000D01*
X60642193Y-93373777D01*
X60650706Y-93313970D01*
X60686473Y-93265279D01*
X60741004Y-93239268D01*
X60801354Y-93242114D01*
X60853195Y-93273141D01*
X62315191Y-94735137D01*
X62339431Y-94769434D01*
X62350830Y-94809854D01*
X62357913Y-94877239D01*
X62364326Y-94938257D01*
X62422820Y-95118284D01*
X62517466Y-95282216D01*
X62644129Y-95422889D01*
X62797269Y-95534151D01*
X62970197Y-95611144D01*
X63155352Y-95650500D01*
X63155354Y-95650500D01*
X63344646Y-95650500D01*
X63344648Y-95650500D01*
X63468084Y-95624262D01*
X63529803Y-95611144D01*
X63702730Y-95534151D01*
X63739712Y-95507282D01*
X63855870Y-95422889D01*
X63982533Y-95282216D01*
X64077179Y-95118284D01*
X64078635Y-95113803D01*
X64135674Y-94938256D01*
X64155460Y-94750000D01*
X64135674Y-94561744D01*
X64090557Y-94422888D01*
X64077179Y-94381715D01*
X63982533Y-94217783D01*
X63855870Y-94077110D01*
X63702730Y-93965848D01*
X63529802Y-93888855D01*
X63344648Y-93849500D01*
X63344646Y-93849500D01*
X63320808Y-93849500D01*
X63273355Y-93840061D01*
X63233127Y-93813181D01*
X62481948Y-93062002D01*
X62448568Y-93001160D01*
X62453107Y-92931911D01*
X62494143Y-92875945D01*
X62558822Y-92850793D01*
X62706680Y-92837856D01*
X62738608Y-92835063D01*
X62966863Y-92773903D01*
X63181030Y-92674035D01*
X63374601Y-92538495D01*
X63496917Y-92416178D01*
X63549660Y-92384885D01*
X63610952Y-92382696D01*
X63665797Y-92410149D01*
X63700777Y-92460528D01*
X63749847Y-92592088D01*
X63836011Y-92707188D01*
X63951110Y-92793352D01*
X64085824Y-92843597D01*
X64145376Y-92850000D01*
X64793200Y-92850000D01*
X64793200Y-91750000D01*
X65293200Y-91750000D01*
X65293200Y-92850000D01*
X65941024Y-92850000D01*
X66000575Y-92843597D01*
X66135289Y-92793352D01*
X66250388Y-92707188D01*
X66336552Y-92592089D01*
X66386797Y-92457375D01*
X66393200Y-92397824D01*
X66393200Y-91750000D01*
X65293200Y-91750000D01*
X64793200Y-91750000D01*
X64793200Y-90150000D01*
X64145376Y-90150000D01*
X64085824Y-90156402D01*
X63951110Y-90206647D01*
X63836011Y-90292811D01*
X63749846Y-90407913D01*
X63700776Y-90539472D01*
X63665797Y-90589850D01*
X63610953Y-90617303D01*
X63549660Y-90615114D01*
X63496914Y-90583818D01*
X63374604Y-90461508D01*
X63374603Y-90461507D01*
X63374601Y-90461505D01*
X63181030Y-90325965D01*
X62966863Y-90226097D01*
X62894274Y-90206647D01*
X62738607Y-90164936D01*
X62503200Y-90144340D01*
X62267792Y-90164936D01*
X62039536Y-90226097D01*
X61825369Y-90325965D01*
X61664041Y-90438928D01*
X61610889Y-90460044D01*
X61553914Y-90455059D01*
X61505237Y-90425034D01*
X61126865Y-90046662D01*
X61099985Y-90006434D01*
X61090546Y-89958981D01*
X61090546Y-87986713D01*
X61102625Y-87933330D01*
X61136510Y-87890347D01*
X61185599Y-87866139D01*
X61240327Y-87865423D01*
X61405352Y-87900500D01*
X61405354Y-87900500D01*
X61594646Y-87900500D01*
X61594648Y-87900500D01*
X61732455Y-87871208D01*
X61779803Y-87861144D01*
X61952730Y-87784151D01*
X62034413Y-87724805D01*
X62105870Y-87672889D01*
X62152228Y-87621404D01*
X62232533Y-87532216D01*
X62327179Y-87368284D01*
X62380665Y-87203671D01*
X62418955Y-87146946D01*
X62481508Y-87119174D01*
X62549266Y-87128817D01*
X62601588Y-87172937D01*
X62622534Y-87238094D01*
X62623241Y-87260579D01*
X62617235Y-87302789D01*
X62614325Y-87311743D01*
X62594863Y-87496928D01*
X62594540Y-87500000D01*
X62597926Y-87532216D01*
X62614326Y-87688257D01*
X62672820Y-87868284D01*
X62767466Y-88032216D01*
X62894129Y-88172889D01*
X63047269Y-88284151D01*
X63220197Y-88361144D01*
X63405352Y-88400500D01*
X63405354Y-88400500D01*
X63594646Y-88400500D01*
X63594648Y-88400500D01*
X63718084Y-88374262D01*
X63779803Y-88361144D01*
X63952730Y-88284151D01*
X63992045Y-88255587D01*
X64105870Y-88172889D01*
X64107566Y-88171006D01*
X64232533Y-88032216D01*
X64304205Y-87908075D01*
X64349592Y-87862689D01*
X64411592Y-87846076D01*
X64426285Y-87846076D01*
X64552857Y-87819172D01*
X64611440Y-87806720D01*
X64654211Y-87787677D01*
X64675064Y-87778393D01*
X64735228Y-87768054D01*
X64793035Y-87787677D01*
X64834473Y-87832504D01*
X64849500Y-87891672D01*
X64849500Y-88699322D01*
X64847158Y-88720531D01*
X64849439Y-88793089D01*
X64849500Y-88796984D01*
X64849500Y-88825753D01*
X64850053Y-88830134D01*
X64850968Y-88841767D01*
X64852402Y-88887396D01*
X64858323Y-88907777D01*
X64862267Y-88926822D01*
X64864928Y-88947886D01*
X64881737Y-88990342D01*
X64885520Y-89001390D01*
X64898256Y-89045227D01*
X64909061Y-89063497D01*
X64917621Y-89080970D01*
X64918228Y-89082504D01*
X64925432Y-89100698D01*
X64933021Y-89111144D01*
X64952267Y-89137635D01*
X64958673Y-89147387D01*
X64981919Y-89186692D01*
X64981921Y-89186694D01*
X64996925Y-89201698D01*
X65009562Y-89216494D01*
X65022037Y-89233664D01*
X65054355Y-89260400D01*
X65057212Y-89262763D01*
X65065854Y-89270627D01*
X65733546Y-89938319D01*
X65763796Y-89987682D01*
X65768338Y-90045398D01*
X65746183Y-90098885D01*
X65702160Y-90136485D01*
X65645865Y-90150000D01*
X65293200Y-90150000D01*
X65293200Y-91250000D01*
X66393200Y-91250000D01*
X66393200Y-90897335D01*
X66406715Y-90841040D01*
X66444315Y-90797017D01*
X66497802Y-90774862D01*
X66555518Y-90779404D01*
X66604881Y-90809654D01*
X66813181Y-91017954D01*
X66840061Y-91058182D01*
X66849500Y-91105635D01*
X66849500Y-92414495D01*
X66847158Y-92435704D01*
X66849439Y-92508262D01*
X66849500Y-92512157D01*
X66849500Y-92540926D01*
X66850053Y-92545307D01*
X66850968Y-92556940D01*
X66852402Y-92602569D01*
X66858323Y-92622950D01*
X66862267Y-92641995D01*
X66864928Y-92663059D01*
X66881737Y-92705515D01*
X66885520Y-92716563D01*
X66898256Y-92760400D01*
X66909061Y-92778670D01*
X66917621Y-92796143D01*
X66925432Y-92815871D01*
X66933599Y-92827112D01*
X66952267Y-92852808D01*
X66958673Y-92862560D01*
X66981919Y-92901865D01*
X66981921Y-92901867D01*
X66996925Y-92916871D01*
X67009564Y-92931669D01*
X67022037Y-92948837D01*
X67057212Y-92977936D01*
X67065854Y-92985800D01*
X67565191Y-93485137D01*
X67589431Y-93519434D01*
X67600830Y-93559854D01*
X67608287Y-93630801D01*
X67614326Y-93688257D01*
X67672820Y-93868284D01*
X67767466Y-94032216D01*
X67894129Y-94172889D01*
X68047269Y-94284151D01*
X68220197Y-94361144D01*
X68405352Y-94400500D01*
X68405354Y-94400500D01*
X68594646Y-94400500D01*
X68594648Y-94400500D01*
X68718083Y-94374262D01*
X68779803Y-94361144D01*
X68952730Y-94284151D01*
X69047430Y-94215348D01*
X69105870Y-94172889D01*
X69232533Y-94032216D01*
X69327179Y-93868284D01*
X69345083Y-93813181D01*
X69385674Y-93688256D01*
X69405460Y-93500000D01*
X69385674Y-93311744D01*
X69332961Y-93149510D01*
X69327179Y-93131715D01*
X69232533Y-92967783D01*
X69105870Y-92827110D01*
X68952730Y-92715848D01*
X68779802Y-92638855D01*
X68594648Y-92599500D01*
X68594646Y-92599500D01*
X68570808Y-92599500D01*
X68523355Y-92590061D01*
X68483127Y-92563181D01*
X68186819Y-92266873D01*
X68159939Y-92226645D01*
X68150500Y-92179192D01*
X68150500Y-91898247D01*
X68165527Y-91839079D01*
X68206965Y-91794252D01*
X68264771Y-91774629D01*
X68324935Y-91784967D01*
X68496033Y-91861145D01*
X68681186Y-91900500D01*
X68681188Y-91900500D01*
X68870480Y-91900500D01*
X68870482Y-91900500D01*
X68993918Y-91874262D01*
X69055637Y-91861144D01*
X69228564Y-91784151D01*
X69381705Y-91672888D01*
X69392359Y-91661054D01*
X69448249Y-91625446D01*
X69514503Y-91623710D01*
X69572188Y-91656346D01*
X71065352Y-93149510D01*
X71078700Y-93166169D01*
X71131619Y-93215864D01*
X71134416Y-93218575D01*
X71154749Y-93238908D01*
X71158230Y-93241608D01*
X71167113Y-93249194D01*
X71200395Y-93280448D01*
X71211039Y-93286299D01*
X71218992Y-93290672D01*
X71235252Y-93301352D01*
X71252024Y-93314362D01*
X71293928Y-93332495D01*
X71304408Y-93337629D01*
X71344420Y-93359627D01*
X71364983Y-93364906D01*
X71383386Y-93371207D01*
X71402861Y-93379635D01*
X71447963Y-93386778D01*
X71459358Y-93389137D01*
X71503611Y-93400500D01*
X71524839Y-93400500D01*
X71544237Y-93402026D01*
X71565193Y-93405346D01*
X71610639Y-93401050D01*
X71622309Y-93400500D01*
X76879692Y-93400500D01*
X76935987Y-93414015D01*
X76980010Y-93451615D01*
X77002165Y-93505102D01*
X76997623Y-93562818D01*
X76967373Y-93612181D01*
X76516873Y-94062681D01*
X76476645Y-94089561D01*
X76429192Y-94099000D01*
X76405352Y-94099000D01*
X76220197Y-94138355D01*
X76047269Y-94215348D01*
X75894129Y-94326610D01*
X75767466Y-94467283D01*
X75672820Y-94631215D01*
X75614326Y-94811242D01*
X75594540Y-94999500D01*
X75614326Y-95187757D01*
X75672820Y-95367784D01*
X75767466Y-95531716D01*
X75894129Y-95672389D01*
X76035612Y-95775182D01*
X76074926Y-95822703D01*
X76086482Y-95883286D01*
X76067424Y-95941943D01*
X76022464Y-95984162D01*
X75962727Y-95999500D01*
X50004053Y-95999500D01*
X49995942Y-95999234D01*
X49916781Y-95994045D01*
X49916046Y-95993995D01*
X49738425Y-95981291D01*
X49723080Y-95979224D01*
X49611675Y-95957064D01*
X49609508Y-95956613D01*
X49469777Y-95926217D01*
X49456276Y-95922470D01*
X49342338Y-95883793D01*
X49338863Y-95882556D01*
X49211196Y-95834938D01*
X49199687Y-95829969D01*
X49134947Y-95798043D01*
X49089348Y-95775556D01*
X49084779Y-95773183D01*
X48967520Y-95709154D01*
X48958056Y-95703424D01*
X48854729Y-95634383D01*
X48849310Y-95630548D01*
X48793396Y-95588691D01*
X48743278Y-95551173D01*
X48735848Y-95545150D01*
X48642022Y-95462867D01*
X48636100Y-95457320D01*
X48542678Y-95363898D01*
X48537131Y-95357976D01*
X48505450Y-95321851D01*
X48454844Y-95264145D01*
X48448830Y-95256727D01*
X48369450Y-95150688D01*
X48365615Y-95145269D01*
X48296574Y-95041942D01*
X48290844Y-95032478D01*
X48282890Y-95017912D01*
X48226798Y-94915187D01*
X48224461Y-94910687D01*
X48170024Y-94800300D01*
X48165060Y-94788802D01*
X48117420Y-94661074D01*
X48116228Y-94657725D01*
X48077522Y-94543703D01*
X48073786Y-94530240D01*
X48043374Y-94390437D01*
X48042945Y-94388378D01*
X48020772Y-94276904D01*
X48018709Y-94261587D01*
X48005991Y-94083767D01*
X48005978Y-94083586D01*
X48000764Y-94004042D01*
X48000500Y-93995935D01*
X48000500Y-77287500D01*
X54344540Y-77287500D01*
X54364326Y-77475757D01*
X54422820Y-77655784D01*
X54517466Y-77819716D01*
X54644129Y-77960389D01*
X54797269Y-78071651D01*
X54970197Y-78148644D01*
X55155352Y-78188000D01*
X55155354Y-78188000D01*
X55344646Y-78188000D01*
X55344648Y-78188000D01*
X55468083Y-78161762D01*
X55529803Y-78148644D01*
X55702730Y-78071651D01*
X55714388Y-78063181D01*
X55855870Y-77960389D01*
X55909795Y-77900500D01*
X55982533Y-77819716D01*
X56077179Y-77655784D01*
X56135674Y-77475756D01*
X56155460Y-77287500D01*
X56135674Y-77099244D01*
X56088296Y-76953431D01*
X56077179Y-76919215D01*
X55982533Y-76755283D01*
X55855870Y-76614610D01*
X55702730Y-76503348D01*
X55529802Y-76426355D01*
X55344648Y-76387000D01*
X55344646Y-76387000D01*
X55155354Y-76387000D01*
X55155352Y-76387000D01*
X54970197Y-76426355D01*
X54797269Y-76503348D01*
X54644129Y-76614610D01*
X54517466Y-76755283D01*
X54422820Y-76919215D01*
X54364326Y-77099242D01*
X54344540Y-77287500D01*
X48000500Y-77287500D01*
X48000500Y-67396681D01*
X49515695Y-67396681D01*
X49525832Y-67609474D01*
X49576057Y-67816504D01*
X49664554Y-68010287D01*
X49788127Y-68183820D01*
X49942307Y-68330831D01*
X50121523Y-68446006D01*
X50319298Y-68525183D01*
X50426441Y-68545833D01*
X50528482Y-68565500D01*
X50528483Y-68565500D01*
X51918133Y-68565500D01*
X51918138Y-68565500D01*
X52077070Y-68550324D01*
X52281475Y-68490305D01*
X52470828Y-68392687D01*
X52638285Y-68260998D01*
X52777793Y-68099997D01*
X52884310Y-67915503D01*
X52953987Y-67714185D01*
X52984305Y-67503319D01*
X52974168Y-67290526D01*
X52923943Y-67083496D01*
X52835446Y-66889713D01*
X52711873Y-66716180D01*
X52557693Y-66569169D01*
X52557690Y-66569167D01*
X52557689Y-66569166D01*
X52378480Y-66453996D01*
X52378477Y-66453994D01*
X52220188Y-66390625D01*
X52180700Y-66374816D01*
X52051323Y-66349881D01*
X51990868Y-66319407D01*
X51955430Y-66261721D01*
X51955572Y-66194020D01*
X51991250Y-66136488D01*
X52106841Y-66031114D01*
X52235781Y-65860370D01*
X52235781Y-65860368D01*
X52235783Y-65860367D01*
X52331151Y-65668840D01*
X52389704Y-65463050D01*
X52394809Y-65407955D01*
X52409446Y-65250000D01*
X52394333Y-65086915D01*
X52389704Y-65036949D01*
X52331151Y-64831159D01*
X52235783Y-64639632D01*
X52106840Y-64468884D01*
X51967255Y-64341637D01*
X51931527Y-64283934D01*
X51931527Y-64216066D01*
X51967255Y-64158363D01*
X52106840Y-64031115D01*
X52130338Y-63999999D01*
X52235781Y-63860370D01*
X52235781Y-63860368D01*
X52235783Y-63860367D01*
X52331151Y-63668840D01*
X52389704Y-63463050D01*
X52392566Y-63432154D01*
X52409446Y-63250000D01*
X52392255Y-63064477D01*
X52389704Y-63036949D01*
X52331151Y-62831159D01*
X52235783Y-62639632D01*
X52137424Y-62509384D01*
X52113297Y-62449723D01*
X52122322Y-62386004D01*
X52162068Y-62335390D01*
X52261187Y-62261190D01*
X52347352Y-62146089D01*
X52397597Y-62011375D01*
X52404000Y-61951824D01*
X52404000Y-61500000D01*
X50096000Y-61500000D01*
X50096000Y-61951824D01*
X50102402Y-62011375D01*
X50152647Y-62146089D01*
X50238812Y-62261190D01*
X50337931Y-62335390D01*
X50377677Y-62386004D01*
X50386702Y-62449722D01*
X50362576Y-62509383D01*
X50264216Y-62639633D01*
X50168848Y-62831159D01*
X50110295Y-63036949D01*
X50090554Y-63249999D01*
X50110295Y-63463050D01*
X50168848Y-63668840D01*
X50264216Y-63860367D01*
X50393159Y-64031115D01*
X50532744Y-64158363D01*
X50568472Y-64216066D01*
X50568472Y-64283934D01*
X50532744Y-64341637D01*
X50393159Y-64468884D01*
X50264216Y-64639632D01*
X50168848Y-64831159D01*
X50110295Y-65036949D01*
X50091928Y-65235172D01*
X50090554Y-65250000D01*
X50091324Y-65258310D01*
X50110295Y-65463050D01*
X50168848Y-65668840D01*
X50264216Y-65860367D01*
X50393159Y-66031115D01*
X50505540Y-66133563D01*
X50537603Y-66180341D01*
X50545486Y-66236502D01*
X50527539Y-66290299D01*
X50487518Y-66330479D01*
X50433792Y-66348638D01*
X50422932Y-66349675D01*
X50218526Y-66409694D01*
X50029173Y-66507312D01*
X50029171Y-66507313D01*
X50029172Y-66507313D01*
X49869157Y-66633150D01*
X49861714Y-66639003D01*
X49722205Y-66800004D01*
X49615690Y-66984495D01*
X49546012Y-67185815D01*
X49515695Y-67396679D01*
X49515695Y-67396681D01*
X48000500Y-67396681D01*
X48000500Y-58996681D01*
X49515695Y-58996681D01*
X49525832Y-59209474D01*
X49576057Y-59416504D01*
X49664554Y-59610287D01*
X49788127Y-59783820D01*
X49942307Y-59930831D01*
X50121523Y-60046006D01*
X50172792Y-60066531D01*
X50218954Y-60098785D01*
X50246090Y-60148131D01*
X50248603Y-60204390D01*
X50225973Y-60255958D01*
X50152648Y-60353908D01*
X50102402Y-60488624D01*
X50096000Y-60548176D01*
X50096000Y-61000000D01*
X52404000Y-61000000D01*
X52404000Y-60548176D01*
X52397597Y-60488624D01*
X52347351Y-60353908D01*
X52274474Y-60256556D01*
X52271503Y-60249999D01*
X61344540Y-60249999D01*
X61364326Y-60438257D01*
X61422820Y-60618284D01*
X61517466Y-60782216D01*
X61644129Y-60922889D01*
X61797269Y-61034151D01*
X61970197Y-61111144D01*
X62155352Y-61150500D01*
X62155354Y-61150500D01*
X62344646Y-61150500D01*
X62344648Y-61150500D01*
X62468083Y-61124262D01*
X62529803Y-61111144D01*
X62702730Y-61034151D01*
X62749735Y-61000000D01*
X62855870Y-60922889D01*
X62982533Y-60782216D01*
X63077179Y-60618284D01*
X63077178Y-60618284D01*
X63135674Y-60438256D01*
X63155460Y-60250000D01*
X63155460Y-60249999D01*
X63594540Y-60249999D01*
X63614326Y-60438257D01*
X63672820Y-60618284D01*
X63767466Y-60782216D01*
X63894129Y-60922889D01*
X64047269Y-61034151D01*
X64220197Y-61111144D01*
X64405352Y-61150500D01*
X64405354Y-61150500D01*
X64594646Y-61150500D01*
X64594648Y-61150500D01*
X64718083Y-61124262D01*
X64779803Y-61111144D01*
X64952730Y-61034151D01*
X64999735Y-61000000D01*
X65105870Y-60922889D01*
X65232533Y-60782216D01*
X65327179Y-60618284D01*
X65327178Y-60618284D01*
X65385674Y-60438256D01*
X65405460Y-60250000D01*
X65385674Y-60061744D01*
X65327179Y-59881716D01*
X65327179Y-59881715D01*
X65232533Y-59717783D01*
X65105870Y-59577110D01*
X64952730Y-59465848D01*
X64779802Y-59388855D01*
X64594648Y-59349500D01*
X64594646Y-59349500D01*
X64405354Y-59349500D01*
X64405352Y-59349500D01*
X64220197Y-59388855D01*
X64047269Y-59465848D01*
X63894129Y-59577110D01*
X63767466Y-59717783D01*
X63672820Y-59881715D01*
X63614326Y-60061742D01*
X63594540Y-60249999D01*
X63155460Y-60249999D01*
X63135674Y-60061744D01*
X63077179Y-59881716D01*
X63077179Y-59881715D01*
X62982533Y-59717783D01*
X62855870Y-59577110D01*
X62702730Y-59465848D01*
X62529802Y-59388855D01*
X62344648Y-59349500D01*
X62344646Y-59349500D01*
X62155354Y-59349500D01*
X62155352Y-59349500D01*
X61970197Y-59388855D01*
X61797269Y-59465848D01*
X61644129Y-59577110D01*
X61517466Y-59717783D01*
X61422820Y-59881715D01*
X61364326Y-60061742D01*
X61344540Y-60249999D01*
X52271503Y-60249999D01*
X52252420Y-60207883D01*
X52252897Y-60154448D01*
X52275816Y-60106175D01*
X52316916Y-60072033D01*
X52470828Y-59992687D01*
X52638285Y-59860998D01*
X52777793Y-59699997D01*
X52884310Y-59515503D01*
X52953987Y-59314185D01*
X52984305Y-59103319D01*
X52974168Y-58890526D01*
X52923943Y-58683496D01*
X52835446Y-58489713D01*
X52711873Y-58316180D01*
X52557693Y-58169169D01*
X52557690Y-58169167D01*
X52557689Y-58169166D01*
X52378480Y-58053996D01*
X52378477Y-58053994D01*
X52180702Y-57974817D01*
X52180701Y-57974816D01*
X52180699Y-57974816D01*
X51971518Y-57934500D01*
X51971517Y-57934500D01*
X50581862Y-57934500D01*
X50482529Y-57943985D01*
X50422927Y-57949676D01*
X50218526Y-58009694D01*
X50029173Y-58107312D01*
X49861714Y-58239003D01*
X49722205Y-58400004D01*
X49615690Y-58584495D01*
X49546012Y-58785815D01*
X49515695Y-58996679D01*
X49515695Y-58996681D01*
X48000500Y-58996681D01*
X48000500Y-54500000D01*
X49644340Y-54500000D01*
X49664936Y-54735407D01*
X49726096Y-54963662D01*
X49726097Y-54963663D01*
X49825965Y-55177829D01*
X49961505Y-55371401D01*
X50128599Y-55538495D01*
X50322171Y-55674035D01*
X50536337Y-55773903D01*
X50764591Y-55835062D01*
X50764592Y-55835063D01*
X50941032Y-55850500D01*
X50941034Y-55850500D01*
X51058966Y-55850500D01*
X51058968Y-55850500D01*
X51176594Y-55840208D01*
X51235408Y-55835063D01*
X51463663Y-55773903D01*
X51677829Y-55674035D01*
X51871401Y-55538495D01*
X52038495Y-55371401D01*
X52123501Y-55250000D01*
X58860000Y-55250000D01*
X58860000Y-55897824D01*
X58866402Y-55957375D01*
X58916647Y-56092089D01*
X59002811Y-56207188D01*
X59117910Y-56293352D01*
X59252624Y-56343597D01*
X59312176Y-56350000D01*
X59960000Y-56350000D01*
X60460000Y-56350000D01*
X61107824Y-56350000D01*
X61167375Y-56343597D01*
X61302089Y-56293352D01*
X61417188Y-56207188D01*
X61503352Y-56092089D01*
X61552422Y-55960528D01*
X61587401Y-55910149D01*
X61642246Y-55882696D01*
X61703539Y-55884885D01*
X61756284Y-55916180D01*
X61878599Y-56038495D01*
X62072170Y-56174035D01*
X62286337Y-56273903D01*
X62514592Y-56335063D01*
X62750000Y-56355659D01*
X62985408Y-56335063D01*
X63213663Y-56273903D01*
X63427830Y-56174035D01*
X63621401Y-56038495D01*
X63788495Y-55871401D01*
X63918426Y-55685839D01*
X63962743Y-55646975D01*
X64020000Y-55632964D01*
X64077257Y-55646975D01*
X64121573Y-55685839D01*
X64251505Y-55871401D01*
X64418599Y-56038495D01*
X64612170Y-56174035D01*
X64826337Y-56273903D01*
X65054592Y-56335063D01*
X65290000Y-56355659D01*
X65525408Y-56335063D01*
X65753663Y-56273903D01*
X65967830Y-56174035D01*
X66161401Y-56038495D01*
X66328495Y-55871401D01*
X66458426Y-55685839D01*
X66502743Y-55646975D01*
X66560000Y-55632964D01*
X66617257Y-55646975D01*
X66661573Y-55685839D01*
X66791505Y-55871401D01*
X66958599Y-56038495D01*
X67152170Y-56174035D01*
X67366337Y-56273903D01*
X67594592Y-56335063D01*
X67830000Y-56355659D01*
X68065408Y-56335063D01*
X68293663Y-56273903D01*
X68507830Y-56174035D01*
X68701401Y-56038495D01*
X68868495Y-55871401D01*
X69004035Y-55677830D01*
X69103903Y-55463663D01*
X69165063Y-55235408D01*
X69165974Y-55225000D01*
X74100000Y-55225000D01*
X74100000Y-55872824D01*
X74106402Y-55932375D01*
X74156647Y-56067089D01*
X74242811Y-56182188D01*
X74357910Y-56268352D01*
X74492624Y-56318597D01*
X74552176Y-56325000D01*
X75200000Y-56325000D01*
X75700000Y-56325000D01*
X76347824Y-56325000D01*
X76407375Y-56318597D01*
X76542089Y-56268352D01*
X76657188Y-56182188D01*
X76743352Y-56067089D01*
X76792422Y-55935528D01*
X76827401Y-55885149D01*
X76882246Y-55857696D01*
X76943539Y-55859885D01*
X76996285Y-55891181D01*
X77118599Y-56013495D01*
X77312170Y-56149035D01*
X77526337Y-56248903D01*
X77754592Y-56310063D01*
X77990000Y-56330659D01*
X78225408Y-56310063D01*
X78453663Y-56248903D01*
X78667830Y-56149035D01*
X78861401Y-56013495D01*
X79028495Y-55846401D01*
X79158426Y-55660839D01*
X79202743Y-55621975D01*
X79260000Y-55607964D01*
X79317257Y-55621975D01*
X79361573Y-55660839D01*
X79491505Y-55846401D01*
X79658599Y-56013495D01*
X79852170Y-56149035D01*
X80066337Y-56248903D01*
X80294592Y-56310063D01*
X80530000Y-56330659D01*
X80765408Y-56310063D01*
X80993663Y-56248903D01*
X81207830Y-56149035D01*
X81401401Y-56013495D01*
X81568495Y-55846401D01*
X81698426Y-55660839D01*
X81742743Y-55621975D01*
X81800000Y-55607964D01*
X81857257Y-55621975D01*
X81901573Y-55660839D01*
X82031505Y-55846401D01*
X82198599Y-56013495D01*
X82392170Y-56149035D01*
X82606337Y-56248903D01*
X82834592Y-56310063D01*
X83070000Y-56330659D01*
X83305408Y-56310063D01*
X83533663Y-56248903D01*
X83747830Y-56149035D01*
X83941401Y-56013495D01*
X84108495Y-55846401D01*
X84244035Y-55652830D01*
X84343903Y-55438663D01*
X84405063Y-55210408D01*
X84423472Y-55000000D01*
X100094540Y-55000000D01*
X100114326Y-55188257D01*
X100172820Y-55368284D01*
X100267466Y-55532216D01*
X100394129Y-55672889D01*
X100547269Y-55784151D01*
X100720197Y-55861144D01*
X100905352Y-55900500D01*
X100905354Y-55900500D01*
X101094646Y-55900500D01*
X101094648Y-55900500D01*
X101231547Y-55871401D01*
X101279803Y-55861144D01*
X101449563Y-55785560D01*
X101499999Y-55774840D01*
X101550435Y-55785561D01*
X101720197Y-55861144D01*
X101905352Y-55900500D01*
X101905354Y-55900500D01*
X102094646Y-55900500D01*
X102094648Y-55900500D01*
X102231547Y-55871401D01*
X102279803Y-55861144D01*
X102449563Y-55785560D01*
X102499999Y-55774840D01*
X102550435Y-55785561D01*
X102720197Y-55861144D01*
X102905352Y-55900500D01*
X102905354Y-55900500D01*
X103094646Y-55900500D01*
X103094648Y-55900500D01*
X103231547Y-55871401D01*
X103279803Y-55861144D01*
X103452730Y-55784151D01*
X103599073Y-55677827D01*
X103605870Y-55672889D01*
X103732533Y-55532216D01*
X103767613Y-55471456D01*
X103813000Y-55426069D01*
X103875000Y-55409456D01*
X103937000Y-55426069D01*
X103982387Y-55471456D01*
X104017466Y-55532216D01*
X104144129Y-55672889D01*
X104297269Y-55784151D01*
X104470197Y-55861144D01*
X104655352Y-55900500D01*
X104655354Y-55900500D01*
X104844646Y-55900500D01*
X104844648Y-55900500D01*
X104981547Y-55871401D01*
X105029803Y-55861144D01*
X105202730Y-55784151D01*
X105349073Y-55677827D01*
X105355870Y-55672889D01*
X105482533Y-55532216D01*
X105577179Y-55368284D01*
X105620353Y-55235408D01*
X105635674Y-55188256D01*
X105655460Y-55000000D01*
X105635674Y-54811744D01*
X105577179Y-54631716D01*
X105577179Y-54631715D01*
X105501133Y-54500000D01*
X114894340Y-54500000D01*
X114914936Y-54735407D01*
X114976096Y-54963662D01*
X114976097Y-54963663D01*
X115075965Y-55177829D01*
X115211505Y-55371401D01*
X115378599Y-55538495D01*
X115572171Y-55674035D01*
X115786337Y-55773903D01*
X116014591Y-55835062D01*
X116014592Y-55835063D01*
X116191032Y-55850500D01*
X116191034Y-55850500D01*
X116308966Y-55850500D01*
X116308968Y-55850500D01*
X116426594Y-55840208D01*
X116485408Y-55835063D01*
X116713663Y-55773903D01*
X116927829Y-55674035D01*
X117121401Y-55538495D01*
X117288495Y-55371401D01*
X117424035Y-55177830D01*
X117523903Y-54963663D01*
X117585063Y-54735408D01*
X117605659Y-54500000D01*
X117585063Y-54264592D01*
X117523903Y-54036337D01*
X117424035Y-53822171D01*
X117288495Y-53628599D01*
X117121401Y-53461505D01*
X116927829Y-53325965D01*
X116713663Y-53226097D01*
X116702403Y-53223080D01*
X116485407Y-53164936D01*
X116308968Y-53149500D01*
X116308966Y-53149500D01*
X116191034Y-53149500D01*
X116191032Y-53149500D01*
X116014592Y-53164936D01*
X115786336Y-53226097D01*
X115572170Y-53325965D01*
X115378598Y-53461505D01*
X115211508Y-53628595D01*
X115211505Y-53628598D01*
X115211505Y-53628599D01*
X115096523Y-53792811D01*
X115075964Y-53822172D01*
X114976097Y-54036337D01*
X114914936Y-54264592D01*
X114894340Y-54500000D01*
X105501133Y-54500000D01*
X105482533Y-54467783D01*
X105355870Y-54327110D01*
X105202730Y-54215848D01*
X105029802Y-54138855D01*
X104844648Y-54099500D01*
X104844646Y-54099500D01*
X104655354Y-54099500D01*
X104655352Y-54099500D01*
X104470197Y-54138855D01*
X104297269Y-54215848D01*
X104144129Y-54327110D01*
X104017466Y-54467784D01*
X103982387Y-54528543D01*
X103937000Y-54573930D01*
X103875000Y-54590543D01*
X103813000Y-54573930D01*
X103767613Y-54528543D01*
X103732533Y-54467784D01*
X103605870Y-54327110D01*
X103452730Y-54215848D01*
X103279802Y-54138855D01*
X103094648Y-54099500D01*
X103094646Y-54099500D01*
X102905354Y-54099500D01*
X102905352Y-54099500D01*
X102720199Y-54138854D01*
X102550434Y-54214439D01*
X102499999Y-54225159D01*
X102449563Y-54214438D01*
X102279802Y-54138855D01*
X102094648Y-54099500D01*
X102094646Y-54099500D01*
X101905354Y-54099500D01*
X101905352Y-54099500D01*
X101720199Y-54138854D01*
X101550434Y-54214439D01*
X101499999Y-54225159D01*
X101449563Y-54214438D01*
X101279802Y-54138855D01*
X101094648Y-54099500D01*
X101094646Y-54099500D01*
X100905354Y-54099500D01*
X100905352Y-54099500D01*
X100720197Y-54138855D01*
X100547269Y-54215848D01*
X100394129Y-54327110D01*
X100267466Y-54467783D01*
X100172820Y-54631715D01*
X100114326Y-54811742D01*
X100094540Y-55000000D01*
X84423472Y-55000000D01*
X84425659Y-54975000D01*
X84405063Y-54739592D01*
X84343903Y-54511337D01*
X84244035Y-54297171D01*
X84108495Y-54103599D01*
X83941401Y-53936505D01*
X83747830Y-53800965D01*
X83533663Y-53701097D01*
X83461074Y-53681647D01*
X83305407Y-53639936D01*
X83070000Y-53619340D01*
X82834592Y-53639936D01*
X82606336Y-53701097D01*
X82392170Y-53800965D01*
X82198598Y-53936505D01*
X82031505Y-54103598D01*
X81901575Y-54289159D01*
X81857257Y-54328025D01*
X81800000Y-54342036D01*
X81742743Y-54328025D01*
X81698425Y-54289159D01*
X81593181Y-54138855D01*
X81568495Y-54103599D01*
X81401401Y-53936505D01*
X81207830Y-53800965D01*
X80993663Y-53701097D01*
X80921074Y-53681647D01*
X80765407Y-53639936D01*
X80530000Y-53619340D01*
X80294592Y-53639936D01*
X80066336Y-53701097D01*
X79852170Y-53800965D01*
X79658598Y-53936505D01*
X79491505Y-54103598D01*
X79361575Y-54289159D01*
X79317257Y-54328025D01*
X79260000Y-54342036D01*
X79202743Y-54328025D01*
X79158425Y-54289159D01*
X79053181Y-54138855D01*
X79028495Y-54103599D01*
X78861401Y-53936505D01*
X78667830Y-53800965D01*
X78453663Y-53701097D01*
X78381074Y-53681647D01*
X78225407Y-53639936D01*
X77990000Y-53619340D01*
X77754592Y-53639936D01*
X77526336Y-53701097D01*
X77312170Y-53800965D01*
X77118601Y-53936503D01*
X76996285Y-54058819D01*
X76943539Y-54090114D01*
X76882246Y-54092303D01*
X76827401Y-54064850D01*
X76792422Y-54014471D01*
X76743352Y-53882911D01*
X76657188Y-53767811D01*
X76542089Y-53681647D01*
X76407375Y-53631402D01*
X76347824Y-53625000D01*
X75700000Y-53625000D01*
X75700000Y-56325000D01*
X75200000Y-56325000D01*
X75200000Y-55225000D01*
X74100000Y-55225000D01*
X69165974Y-55225000D01*
X69185659Y-55000000D01*
X69165063Y-54764592D01*
X69154454Y-54725000D01*
X74100000Y-54725000D01*
X75200000Y-54725000D01*
X75200000Y-53625000D01*
X74552176Y-53625000D01*
X74492624Y-53631402D01*
X74357910Y-53681647D01*
X74242811Y-53767811D01*
X74156647Y-53882910D01*
X74106402Y-54017624D01*
X74100000Y-54077176D01*
X74100000Y-54725000D01*
X69154454Y-54725000D01*
X69103903Y-54536337D01*
X69004035Y-54322171D01*
X68868495Y-54128599D01*
X68701401Y-53961505D01*
X68507830Y-53825965D01*
X68293663Y-53726097D01*
X68200361Y-53701097D01*
X68065407Y-53664936D01*
X67830000Y-53644340D01*
X67594592Y-53664936D01*
X67366336Y-53726097D01*
X67152170Y-53825965D01*
X66958598Y-53961505D01*
X66791505Y-54128598D01*
X66661575Y-54314159D01*
X66617257Y-54353025D01*
X66560000Y-54367036D01*
X66502743Y-54353025D01*
X66458425Y-54314159D01*
X66389587Y-54215848D01*
X66328495Y-54128599D01*
X66161401Y-53961505D01*
X65967830Y-53825965D01*
X65753663Y-53726097D01*
X65660361Y-53701097D01*
X65525407Y-53664936D01*
X65290000Y-53644340D01*
X65054592Y-53664936D01*
X64826336Y-53726097D01*
X64612170Y-53825965D01*
X64418598Y-53961505D01*
X64251505Y-54128598D01*
X64121575Y-54314159D01*
X64077257Y-54353025D01*
X64020000Y-54367036D01*
X63962743Y-54353025D01*
X63918425Y-54314159D01*
X63849587Y-54215848D01*
X63788495Y-54128599D01*
X63621401Y-53961505D01*
X63427830Y-53825965D01*
X63213663Y-53726097D01*
X63120361Y-53701097D01*
X62985407Y-53664936D01*
X62750000Y-53644340D01*
X62514592Y-53664936D01*
X62286336Y-53726097D01*
X62072170Y-53825965D01*
X61878601Y-53961503D01*
X61756285Y-54083819D01*
X61703539Y-54115114D01*
X61642246Y-54117303D01*
X61587401Y-54089850D01*
X61552422Y-54039471D01*
X61503352Y-53907911D01*
X61417188Y-53792811D01*
X61302089Y-53706647D01*
X61167375Y-53656402D01*
X61107824Y-53650000D01*
X60460000Y-53650000D01*
X60460000Y-56350000D01*
X59960000Y-56350000D01*
X59960000Y-55250000D01*
X58860000Y-55250000D01*
X52123501Y-55250000D01*
X52174035Y-55177830D01*
X52273903Y-54963663D01*
X52331153Y-54750000D01*
X58860000Y-54750000D01*
X59960000Y-54750000D01*
X59960000Y-53650000D01*
X59312176Y-53650000D01*
X59252624Y-53656402D01*
X59117910Y-53706647D01*
X59002811Y-53792811D01*
X58916647Y-53907910D01*
X58866402Y-54042624D01*
X58860000Y-54102176D01*
X58860000Y-54750000D01*
X52331153Y-54750000D01*
X52335063Y-54735408D01*
X52355659Y-54500000D01*
X52335063Y-54264592D01*
X52273903Y-54036337D01*
X52174035Y-53822171D01*
X52038495Y-53628599D01*
X51871401Y-53461505D01*
X51677829Y-53325965D01*
X51463663Y-53226097D01*
X51452403Y-53223080D01*
X51235407Y-53164936D01*
X51058968Y-53149500D01*
X51058966Y-53149500D01*
X50941034Y-53149500D01*
X50941032Y-53149500D01*
X50764592Y-53164936D01*
X50536336Y-53226097D01*
X50322170Y-53325965D01*
X50128598Y-53461505D01*
X49961508Y-53628595D01*
X49961505Y-53628598D01*
X49961505Y-53628599D01*
X49846523Y-53792811D01*
X49825964Y-53822172D01*
X49726097Y-54036337D01*
X49664936Y-54264592D01*
X49644340Y-54500000D01*
X48000500Y-54500000D01*
X48000500Y-53504065D01*
X48000765Y-53495956D01*
X48005954Y-53416781D01*
X48005979Y-53416401D01*
X48006004Y-53416046D01*
X48018709Y-53238407D01*
X48020771Y-53223099D01*
X48042955Y-53111573D01*
X48043364Y-53109606D01*
X48073788Y-52969749D01*
X48077519Y-52956305D01*
X48116243Y-52842230D01*
X48117404Y-52838967D01*
X48165068Y-52711177D01*
X48170017Y-52699713D01*
X48224481Y-52589272D01*
X48226777Y-52584851D01*
X48290855Y-52467501D01*
X48296562Y-52458075D01*
X48365639Y-52354694D01*
X48369425Y-52349344D01*
X48448850Y-52243246D01*
X48454823Y-52235878D01*
X48537161Y-52141989D01*
X48542648Y-52136131D01*
X48636131Y-52042648D01*
X48641989Y-52037161D01*
X48735878Y-51954823D01*
X48743246Y-51948850D01*
X48849344Y-51869425D01*
X48854694Y-51865639D01*
X48958075Y-51796562D01*
X48967501Y-51790855D01*
X49084851Y-51726777D01*
X49089272Y-51724481D01*
X49199713Y-51670017D01*
X49211177Y-51665068D01*
X49338967Y-51617404D01*
X49342230Y-51616243D01*
X49456305Y-51577519D01*
X49469749Y-51573788D01*
X49609606Y-51543364D01*
X49611573Y-51542955D01*
X49723099Y-51520771D01*
X49738407Y-51518709D01*
X49916193Y-51505992D01*
X49995957Y-51500764D01*
X50004065Y-51500500D01*
X117245935Y-51500500D01*
X117254042Y-51500764D01*
G37*
G04 #@! TD.AperFunction*
G04 #@! TA.AperFunction,Conductor*
G36*
X80280646Y-86915015D02*
G01*
X80325233Y-86955160D01*
X80345752Y-87011538D01*
X80349648Y-87048600D01*
X80364326Y-87188259D01*
X80411054Y-87332073D01*
X80415976Y-87387217D01*
X80396407Y-87439007D01*
X80356250Y-87477119D01*
X80348135Y-87481918D01*
X80333125Y-87496928D01*
X80318336Y-87509558D01*
X80301164Y-87522034D01*
X80272057Y-87557218D01*
X80264196Y-87565856D01*
X77516873Y-90313181D01*
X77476645Y-90340061D01*
X77429192Y-90349500D01*
X73574956Y-90349500D01*
X73524521Y-90338780D01*
X73482806Y-90308472D01*
X73355870Y-90167495D01*
X73202730Y-90056233D01*
X73029802Y-89979240D01*
X72844648Y-89939885D01*
X72844646Y-89939885D01*
X72655354Y-89939885D01*
X72655352Y-89939885D01*
X72470197Y-89979240D01*
X72297269Y-90056233D01*
X72144129Y-90167495D01*
X72017466Y-90308168D01*
X71922820Y-90472101D01*
X71916492Y-90491576D01*
X71882731Y-90544312D01*
X71827507Y-90573828D01*
X71764902Y-90572598D01*
X71710881Y-90540935D01*
X71026050Y-89856104D01*
X70994299Y-89801769D01*
X70993310Y-89738845D01*
X71023339Y-89683539D01*
X71076650Y-89650097D01*
X71139512Y-89647133D01*
X71155352Y-89650500D01*
X71155354Y-89650500D01*
X71344646Y-89650500D01*
X71344648Y-89650500D01*
X71518342Y-89613580D01*
X71529803Y-89611144D01*
X71702730Y-89534151D01*
X71855871Y-89422888D01*
X71982533Y-89282216D01*
X72077179Y-89118284D01*
X72135674Y-88938256D01*
X72155460Y-88750000D01*
X72135674Y-88561744D01*
X72105332Y-88468363D01*
X72077179Y-88381715D01*
X71982535Y-88217786D01*
X71971747Y-88205805D01*
X71932348Y-88162048D01*
X71908736Y-88123516D01*
X71900500Y-88079078D01*
X71900500Y-87619807D01*
X71914015Y-87563512D01*
X71951615Y-87519489D01*
X72005102Y-87497334D01*
X72062818Y-87501876D01*
X72112181Y-87532126D01*
X72815190Y-88235135D01*
X72839429Y-88269432D01*
X72850830Y-88309853D01*
X72864326Y-88438257D01*
X72922820Y-88618284D01*
X73017466Y-88782216D01*
X73144129Y-88922889D01*
X73297269Y-89034151D01*
X73470197Y-89111144D01*
X73655352Y-89150500D01*
X73655354Y-89150500D01*
X73844646Y-89150500D01*
X73844648Y-89150500D01*
X73985871Y-89120482D01*
X74029803Y-89111144D01*
X74202730Y-89034151D01*
X74277639Y-88979727D01*
X74355870Y-88922889D01*
X74482533Y-88782216D01*
X74577179Y-88618284D01*
X74605291Y-88531765D01*
X74635674Y-88438256D01*
X74655460Y-88250000D01*
X74635674Y-88061744D01*
X74595128Y-87936957D01*
X74577179Y-87881715D01*
X74482533Y-87717783D01*
X74355870Y-87577110D01*
X74202730Y-87465848D01*
X74029802Y-87388855D01*
X73844648Y-87349500D01*
X73844646Y-87349500D01*
X73820808Y-87349500D01*
X73773355Y-87340061D01*
X73733127Y-87313181D01*
X73651771Y-87231825D01*
X73618728Y-87172459D01*
X73621929Y-87104593D01*
X73660412Y-87048600D01*
X73722624Y-87021291D01*
X73789888Y-87030865D01*
X73970197Y-87111144D01*
X74155352Y-87150500D01*
X74155354Y-87150500D01*
X74344646Y-87150500D01*
X74344648Y-87150500D01*
X74492024Y-87119174D01*
X74529803Y-87111144D01*
X74702730Y-87034151D01*
X74854092Y-86924180D01*
X74888657Y-86906569D01*
X74926975Y-86900500D01*
X80222432Y-86900500D01*
X80280646Y-86915015D01*
G37*
G04 #@! TD.AperFunction*
G04 #@! TA.AperFunction,Conductor*
G36*
X68353541Y-84339765D02*
G01*
X68385821Y-84387265D01*
X68386327Y-84386974D01*
X68390299Y-84393854D01*
X68392431Y-84396991D01*
X68392843Y-84398261D01*
X68487489Y-84562193D01*
X68593229Y-84679628D01*
X68622369Y-84736818D01*
X68619011Y-84800916D01*
X68607440Y-84836527D01*
X68587654Y-85024783D01*
X68607440Y-85213041D01*
X68665934Y-85393068D01*
X68760580Y-85557000D01*
X68887243Y-85697673D01*
X69040383Y-85808935D01*
X69213311Y-85885928D01*
X69398466Y-85925284D01*
X69398468Y-85925284D01*
X69422306Y-85925284D01*
X69469759Y-85934723D01*
X69509987Y-85961603D01*
X70563181Y-87014797D01*
X70590061Y-87055025D01*
X70599500Y-87102478D01*
X70599500Y-88079078D01*
X70591264Y-88123516D01*
X70567651Y-88162048D01*
X70557891Y-88172889D01*
X70517464Y-88217786D01*
X70422820Y-88381715D01*
X70364326Y-88561742D01*
X70356221Y-88638856D01*
X70344540Y-88750000D01*
X70357805Y-88876218D01*
X70349293Y-88936029D01*
X70313526Y-88984721D01*
X70258994Y-89010731D01*
X70198645Y-89007885D01*
X70146804Y-88976858D01*
X68186819Y-87016873D01*
X68159939Y-86976645D01*
X68150500Y-86929192D01*
X68150500Y-84435309D01*
X68169803Y-84368866D01*
X68221703Y-84323110D01*
X68290041Y-84312287D01*
X68353541Y-84339765D01*
G37*
G04 #@! TD.AperFunction*
G04 #@! TA.AperFunction,Conductor*
G36*
X61257769Y-81754840D02*
G01*
X61306696Y-81788091D01*
X61356510Y-81843415D01*
X61380124Y-81881949D01*
X61388360Y-81926387D01*
X61388360Y-86002699D01*
X61375810Y-86057057D01*
X61340702Y-86100413D01*
X61290140Y-86123989D01*
X61240326Y-86134577D01*
X61185598Y-86133861D01*
X61136510Y-86109653D01*
X61102625Y-86066670D01*
X61090546Y-86013287D01*
X61090546Y-81871063D01*
X61104657Y-81813614D01*
X61143777Y-81769241D01*
X61199005Y-81748041D01*
X61257769Y-81754840D01*
G37*
G04 #@! TD.AperFunction*
G04 #@! TA.AperFunction,Conductor*
G36*
X58103541Y-77217528D02*
G01*
X58142431Y-77274754D01*
X58172820Y-77368284D01*
X58267466Y-77532216D01*
X58394129Y-77672889D01*
X58547269Y-77784151D01*
X58720197Y-77861144D01*
X58905352Y-77900500D01*
X58905354Y-77900500D01*
X59094646Y-77900500D01*
X59094648Y-77900500D01*
X59218083Y-77874262D01*
X59279803Y-77861144D01*
X59452730Y-77784151D01*
X59542988Y-77718575D01*
X59605870Y-77672889D01*
X59633350Y-77642370D01*
X59682277Y-77609119D01*
X59741041Y-77602320D01*
X59796269Y-77623520D01*
X59835389Y-77667893D01*
X59849500Y-77725342D01*
X59849500Y-81002040D01*
X59834161Y-81061779D01*
X59830418Y-81068586D01*
X59825137Y-81089153D01*
X59818837Y-81107554D01*
X59810410Y-81127028D01*
X59803269Y-81172115D01*
X59800901Y-81183552D01*
X59789546Y-81227778D01*
X59789546Y-81248999D01*
X59788019Y-81268398D01*
X59784699Y-81289357D01*
X59788996Y-81334815D01*
X59789546Y-81346484D01*
X59789546Y-83036771D01*
X59772933Y-83098771D01*
X59727546Y-83144158D01*
X59665546Y-83160771D01*
X59603546Y-83144158D01*
X59558159Y-83098771D01*
X59482533Y-82967784D01*
X59355870Y-82827110D01*
X59202730Y-82715848D01*
X59029802Y-82638855D01*
X58844648Y-82599500D01*
X58844646Y-82599500D01*
X58655354Y-82599500D01*
X58655352Y-82599500D01*
X58470197Y-82638855D01*
X58297269Y-82715848D01*
X58144130Y-82827110D01*
X58133138Y-82839318D01*
X58077242Y-82874925D01*
X58010991Y-82876659D01*
X57953309Y-82844024D01*
X57936819Y-82827534D01*
X57909939Y-82787306D01*
X57900500Y-82739853D01*
X57900500Y-77313072D01*
X57919803Y-77246629D01*
X57971703Y-77200873D01*
X58040041Y-77190050D01*
X58103541Y-77217528D01*
G37*
G04 #@! TD.AperFunction*
G04 #@! TA.AperFunction,Conductor*
G36*
X62572885Y-73519490D02*
G01*
X62610485Y-73563513D01*
X62624000Y-73619808D01*
X62624000Y-80306448D01*
X62608973Y-80365616D01*
X62567535Y-80410443D01*
X62509729Y-80430066D01*
X62449564Y-80419728D01*
X62317983Y-80361144D01*
X62269256Y-80339449D01*
X62269255Y-80339448D01*
X62269251Y-80339447D01*
X62084101Y-80300093D01*
X62084099Y-80300093D01*
X61894807Y-80300093D01*
X61894805Y-80300093D01*
X61709650Y-80339448D01*
X61536722Y-80416441D01*
X61383582Y-80527704D01*
X61366649Y-80546510D01*
X61317722Y-80579760D01*
X61258958Y-80586559D01*
X61203731Y-80565359D01*
X61164611Y-80520986D01*
X61150500Y-80463537D01*
X61150500Y-74845308D01*
X61159939Y-74797855D01*
X61186819Y-74757627D01*
X62412319Y-73532127D01*
X62461682Y-73501877D01*
X62519398Y-73497335D01*
X62572885Y-73519490D01*
G37*
G04 #@! TD.AperFunction*
M02*
