M48
; DRILL file {KiCad 7.0.1} date Sun 23 Apr 2023 10:32:49 PM CEST
; FORMAT={-:-/ absolute / metric / decimal}
; #@! TF.CreationDate,2023-04-23T22:32:49+02:00
; #@! TF.GenerationSoftware,Kicad,Pcbnew,7.0.1
; #@! TF.FileFunction,Plated,1,4,PTH
FMAT,2
METRIC
; #@! TA.AperFunction,Plated,PTH,ComponentDrill
T1C0.300
; #@! TA.AperFunction,Plated,PTH,ViaDrill
T2C0.400
; #@! TA.AperFunction,Plated,PTH,ComponentDrill
T3C0.700
; #@! TA.AperFunction,Plated,PTH,ComponentDrill
T4C0.800
; #@! TA.AperFunction,Plated,PTH,ComponentDrill
T5C1.000
%
G90
G05
T1
X97.845Y-67.53
X97.845Y-68.8
X97.845Y-70.07
X97.845Y-71.34
X99.115Y-67.53
X99.115Y-68.8
X99.115Y-70.07
X99.115Y-71.34
X100.385Y-67.53
X100.385Y-68.8
X100.385Y-70.07
X100.385Y-71.34
X101.528Y-68.8
X101.528Y-70.07
X101.528Y-71.34
X101.655Y-67.53
T2
X52.75Y-65.0
X54.25Y-69.0
X54.25Y-70.0
X54.5Y-71.5
X55.185Y-84.457
X55.25Y-77.287
X55.25Y-78.75
X55.75Y-87.0
X56.0Y-85.0
X57.0Y-65.5
X57.28Y-89.53
X57.979Y-76.25
X58.0Y-65.5
X58.75Y-83.5
X58.75Y-93.5
X59.0Y-71.5
X59.0Y-73.5
X59.0Y-77.0
X59.25Y-67.0
X59.5Y-61.5
X59.75Y-65.5
X61.0Y-62.75
X61.19Y-86.0
X61.408Y-70.282
X61.5Y-87.0
X61.75Y-78.25
X61.989Y-81.201
X62.25Y-60.25
X62.524Y-72.5
X63.25Y-94.75
X63.5Y-87.5
X64.024Y-72.75
X64.332Y-86.946
X64.5Y-60.25
X65.25Y-67.25
X65.25Y-70.25
X65.53Y-62.72
X65.566Y-66.302
X65.75Y-60.25
X66.249Y-68.56
X67.138Y-89.362
X67.25Y-67.75
X68.0Y-62.5
X68.25Y-66.0
X68.5Y-93.5
X68.925Y-63.008
X68.999Y-82.25
X69.082Y-66.554
X69.22Y-84.03
X69.25Y-57.0
X69.75Y-92.25
X69.845Y-85.405
X69.924Y-79.407
X70.0Y-66.0
X70.801Y-61.77
X71.0Y-76.25
X71.25Y-88.75
X72.5Y-76.25
X72.75Y-90.84
X73.75Y-86.25
X73.75Y-88.25
X74.0Y-76.5
X74.75Y-62.25
X75.25Y-60.5
X76.25Y-65.25
X76.25Y-66.25
X76.5Y-87.0
X76.5Y-94.999
X76.875Y-63.375
X77.75Y-62.25
X78.75Y-61.0
X79.005Y-94.046
X79.25Y-68.0
X79.25Y-73.75
X79.5Y-78.001
X79.5Y-80.25
X80.75Y-78.001
X80.75Y-80.0
X81.25Y-64.0
X81.25Y-87.0
X81.5Y-88.75
X81.5Y-94.75
X81.516Y-57.484
X82.0Y-79.5
X82.0Y-83.001
X82.279Y-93.918
X82.332Y-88.196
X82.484Y-62.766
X82.75Y-87.25
X83.287Y-90.84
X83.5Y-76.0
X83.75Y-85.25
X84.41Y-91.16
X85.0Y-84.25
X85.484Y-76.484
X85.5Y-66.75
X85.5Y-67.75
X85.5Y-69.0
X85.5Y-70.0
X85.5Y-91.0
X85.675Y-82.5
X85.75Y-75.0
X86.5Y-62.25
X86.5Y-64.0
X86.9Y-71.0
X86.93Y-91.32
X87.155Y-94.345
X87.242Y-78.318
X87.25Y-82.5
X87.25Y-84.25
X87.75Y-80.25
X87.75Y-81.25
X87.83Y-88.25
X88.142Y-94.501
X88.5Y-91.0
X88.56Y-78.06
X89.426Y-65.074
X89.5Y-71.0
X89.75Y-72.75
X89.75Y-88.0
X89.78Y-75.03
X90.25Y-91.75
X90.5Y-68.934
X90.5Y-79.0
X90.75Y-93.75
X90.78Y-88.72
X91.0Y-87.25
X91.403Y-73.734
X91.5Y-63.185
X91.5Y-85.5
X92.75Y-73.75
X93.0Y-90.0
X93.25Y-59.815
X93.25Y-80.25
X93.25Y-81.25
X94.25Y-62.5
X94.499Y-69.441
X94.499Y-71.25
X95.5Y-78.25
X95.75Y-65.0
X96.75Y-92.025
X97.0Y-60.25
X97.5Y-78.25
X97.97Y-63.965
X98.75Y-93.524
X99.0Y-75.25
X100.0Y-63.185
X100.0Y-75.25
X100.5Y-79.5
X101.0Y-55.0
X101.0Y-64.0
X101.234Y-76.484
X102.0Y-55.0
X103.0Y-55.0
X103.0Y-78.0
X103.5Y-63.185
X104.174Y-61.157
X104.5Y-75.0
X104.61Y-58.94
X104.75Y-55.0
X104.981Y-68.435
X105.875Y-67.435
X106.0Y-65.25
X106.0Y-69.75
X106.0Y-82.0
X106.042Y-62.599
X107.0Y-82.0
X108.0Y-82.0
X114.0Y-67.0
X115.5Y-59.75
X115.5Y-75.0
X116.5Y-59.75
X117.75Y-69.5
X117.75Y-71.5
T4
X52.312Y-56.5
X52.312Y-58.5
X52.312Y-60.5
T5
X52.343Y-91.5
X54.883Y-91.5
X57.423Y-91.5
X59.963Y-91.5
X60.21Y-55.0
X62.503Y-91.5
X62.75Y-55.0
X65.043Y-91.5
X65.29Y-55.0
X67.83Y-55.0
X75.45Y-54.975
X77.99Y-54.975
X80.53Y-54.975
X83.07Y-54.975
X101.21Y-91.5
X103.75Y-91.5
X106.29Y-91.5
X108.83Y-91.5
X111.37Y-91.5
X113.91Y-91.5
X114.0Y-84.21
X114.0Y-86.75
T3
X52.712Y-54.3G85X51.912Y-54.3
G05
X52.712Y-62.7G85X51.912Y-62.7
G05
T0
M30
