%TF.GenerationSoftware,KiCad,Pcbnew,7.0.1*%
%TF.CreationDate,2023-04-23T16:19:42+02:00*%
%TF.ProjectId,ED060SC4_SPI_driver_board,45443036-3053-4433-945f-5350495f6472,rev?*%
%TF.SameCoordinates,Original*%
%TF.FileFunction,Legend,Top*%
%TF.FilePolarity,Positive*%
%FSLAX46Y46*%
G04 Gerber Fmt 4.6, Leading zero omitted, Abs format (unit mm)*
G04 Created by KiCad (PCBNEW 7.0.1) date 2023-04-23 16:19:42*
%MOMM*%
%LPD*%
G01*
G04 APERTURE LIST*
G04 Aperture macros list*
%AMRoundRect*
0 Rectangle with rounded corners*
0 $1 Rounding radius*
0 $2 $3 $4 $5 $6 $7 $8 $9 X,Y pos of 4 corners*
0 Add a 4 corners polygon primitive as box body*
4,1,4,$2,$3,$4,$5,$6,$7,$8,$9,$2,$3,0*
0 Add four circle primitives for the rounded corners*
1,1,$1+$1,$2,$3*
1,1,$1+$1,$4,$5*
1,1,$1+$1,$6,$7*
1,1,$1+$1,$8,$9*
0 Add four rect primitives between the rounded corners*
20,1,$1+$1,$2,$3,$4,$5,0*
20,1,$1+$1,$4,$5,$6,$7,0*
20,1,$1+$1,$6,$7,$8,$9,0*
20,1,$1+$1,$8,$9,$2,$3,0*%
G04 Aperture macros list end*
%ADD10C,0.150000*%
%ADD11C,0.200000*%
%ADD12C,0.100000*%
%ADD13C,0.120000*%
%ADD14C,0.127000*%
%ADD15R,1.700000X1.700000*%
%ADD16O,1.700000X1.700000*%
%ADD17RoundRect,0.250000X-0.475000X0.250000X-0.475000X-0.250000X0.475000X-0.250000X0.475000X0.250000X0*%
%ADD18C,1.000000*%
%ADD19RoundRect,0.225000X0.225000X0.250000X-0.225000X0.250000X-0.225000X-0.250000X0.225000X-0.250000X0*%
%ADD20RoundRect,0.250000X0.250000X0.475000X-0.250000X0.475000X-0.250000X-0.475000X0.250000X-0.475000X0*%
%ADD21RoundRect,0.225000X0.375000X-0.225000X0.375000X0.225000X-0.375000X0.225000X-0.375000X-0.225000X0*%
%ADD22RoundRect,0.200000X-0.200000X-0.275000X0.200000X-0.275000X0.200000X0.275000X-0.200000X0.275000X0*%
%ADD23R,3.700000X1.200000*%
%ADD24RoundRect,0.225000X0.250000X-0.225000X0.250000X0.225000X-0.250000X0.225000X-0.250000X-0.225000X0*%
%ADD25R,2.000000X0.850000*%
%ADD26R,1.200000X1.400000*%
%ADD27RoundRect,0.200000X-0.275000X0.200000X-0.275000X-0.200000X0.275000X-0.200000X0.275000X0.200000X0*%
%ADD28RoundRect,0.150000X-0.150000X0.512500X-0.150000X-0.512500X0.150000X-0.512500X0.150000X0.512500X0*%
%ADD29RoundRect,0.225000X-0.225000X-0.250000X0.225000X-0.250000X0.225000X0.250000X-0.225000X0.250000X0*%
%ADD30RoundRect,0.250000X0.475000X-0.250000X0.475000X0.250000X-0.475000X0.250000X-0.475000X-0.250000X0*%
%ADD31R,1.600000X2.200000*%
%ADD32RoundRect,0.075000X-0.662500X-0.075000X0.662500X-0.075000X0.662500X0.075000X-0.662500X0.075000X0*%
%ADD33RoundRect,0.075000X-0.075000X-0.662500X0.075000X-0.662500X0.075000X0.662500X-0.075000X0.662500X0*%
%ADD34RoundRect,0.200000X0.200000X0.275000X-0.200000X0.275000X-0.200000X-0.275000X0.200000X-0.275000X0*%
%ADD35RoundRect,0.225000X-0.375000X0.225000X-0.375000X-0.225000X0.375000X-0.225000X0.375000X0.225000X0*%
%ADD36RoundRect,0.150000X0.512500X0.150000X-0.512500X0.150000X-0.512500X-0.150000X0.512500X-0.150000X0*%
%ADD37RoundRect,0.007800X-0.422200X-0.122200X0.422200X-0.122200X0.422200X0.122200X-0.422200X0.122200X0*%
%ADD38RoundRect,0.007800X0.122200X-0.422200X0.122200X0.422200X-0.122200X0.422200X-0.122200X-0.422200X0*%
%ADD39R,5.150000X5.150000*%
%ADD40RoundRect,0.225000X-0.250000X0.225000X-0.250000X-0.225000X0.250000X-0.225000X0.250000X0.225000X0*%
%ADD41RoundRect,0.225000X-0.225000X-0.375000X0.225000X-0.375000X0.225000X0.375000X-0.225000X0.375000X0*%
%ADD42R,1.308000X1.308000*%
%ADD43C,1.308000*%
%ADD44O,2.460000X1.230000*%
%ADD45R,0.300000X0.800000*%
%ADD46R,0.300000X1.000000*%
%ADD47R,0.400000X0.950000*%
%ADD48RoundRect,0.200000X0.275000X-0.200000X0.275000X0.200000X-0.275000X0.200000X-0.275000X-0.200000X0*%
%ADD49RoundRect,0.218750X-0.256250X0.218750X-0.256250X-0.218750X0.256250X-0.218750X0.256250X0.218750X0*%
%ADD50RoundRect,0.250000X-0.250000X-0.475000X0.250000X-0.475000X0.250000X0.475000X-0.250000X0.475000X0*%
G04 APERTURE END LIST*
D10*
X117652095Y-86309523D02*
X116852095Y-86309523D01*
X116852095Y-86309523D02*
X116852095Y-86004761D01*
X116852095Y-86004761D02*
X116890190Y-85928571D01*
X116890190Y-85928571D02*
X116928285Y-85890476D01*
X116928285Y-85890476D02*
X117004476Y-85852380D01*
X117004476Y-85852380D02*
X117118761Y-85852380D01*
X117118761Y-85852380D02*
X117194952Y-85890476D01*
X117194952Y-85890476D02*
X117233047Y-85928571D01*
X117233047Y-85928571D02*
X117271142Y-86004761D01*
X117271142Y-86004761D02*
X117271142Y-86309523D01*
X116852095Y-85585714D02*
X117652095Y-85395238D01*
X117652095Y-85395238D02*
X117080666Y-85242857D01*
X117080666Y-85242857D02*
X117652095Y-85090476D01*
X117652095Y-85090476D02*
X116852095Y-84900000D01*
X117652095Y-84138094D02*
X117271142Y-84404761D01*
X117652095Y-84595237D02*
X116852095Y-84595237D01*
X116852095Y-84595237D02*
X116852095Y-84290475D01*
X116852095Y-84290475D02*
X116890190Y-84214285D01*
X116890190Y-84214285D02*
X116928285Y-84176190D01*
X116928285Y-84176190D02*
X117004476Y-84138094D01*
X117004476Y-84138094D02*
X117118761Y-84138094D01*
X117118761Y-84138094D02*
X117194952Y-84176190D01*
X117194952Y-84176190D02*
X117233047Y-84214285D01*
X117233047Y-84214285D02*
X117271142Y-84290475D01*
X117271142Y-84290475D02*
X117271142Y-84595237D01*
X116852095Y-83795237D02*
X117499714Y-83795237D01*
X117499714Y-83795237D02*
X117575904Y-83757142D01*
X117575904Y-83757142D02*
X117614000Y-83719047D01*
X117614000Y-83719047D02*
X117652095Y-83642856D01*
X117652095Y-83642856D02*
X117652095Y-83490475D01*
X117652095Y-83490475D02*
X117614000Y-83414285D01*
X117614000Y-83414285D02*
X117575904Y-83376190D01*
X117575904Y-83376190D02*
X117499714Y-83338094D01*
X117499714Y-83338094D02*
X116852095Y-83338094D01*
X117652095Y-82957142D02*
X116852095Y-82957142D01*
X116852095Y-82957142D02*
X116852095Y-82652380D01*
X116852095Y-82652380D02*
X116890190Y-82576190D01*
X116890190Y-82576190D02*
X116928285Y-82538095D01*
X116928285Y-82538095D02*
X117004476Y-82499999D01*
X117004476Y-82499999D02*
X117118761Y-82499999D01*
X117118761Y-82499999D02*
X117194952Y-82538095D01*
X117194952Y-82538095D02*
X117233047Y-82576190D01*
X117233047Y-82576190D02*
X117271142Y-82652380D01*
X117271142Y-82652380D02*
X117271142Y-82957142D01*
X115852095Y-88885714D02*
X116652095Y-88695238D01*
X116652095Y-88695238D02*
X116080666Y-88542857D01*
X116080666Y-88542857D02*
X116652095Y-88390476D01*
X116652095Y-88390476D02*
X115852095Y-88200000D01*
X116423523Y-87933333D02*
X116423523Y-87552380D01*
X116652095Y-88009523D02*
X115852095Y-87742856D01*
X115852095Y-87742856D02*
X116652095Y-87476190D01*
X116652095Y-87209523D02*
X115852095Y-87209523D01*
X116652095Y-86752380D02*
X116194952Y-87095238D01*
X115852095Y-86752380D02*
X116309238Y-87209523D01*
X116233047Y-86409523D02*
X116233047Y-86142857D01*
X116652095Y-86028571D02*
X116652095Y-86409523D01*
X116652095Y-86409523D02*
X115852095Y-86409523D01*
X115852095Y-86409523D02*
X115852095Y-86028571D01*
X115852095Y-85685713D02*
X116499714Y-85685713D01*
X116499714Y-85685713D02*
X116575904Y-85647618D01*
X116575904Y-85647618D02*
X116614000Y-85609523D01*
X116614000Y-85609523D02*
X116652095Y-85533332D01*
X116652095Y-85533332D02*
X116652095Y-85380951D01*
X116652095Y-85380951D02*
X116614000Y-85304761D01*
X116614000Y-85304761D02*
X116575904Y-85266666D01*
X116575904Y-85266666D02*
X116499714Y-85228570D01*
X116499714Y-85228570D02*
X115852095Y-85228570D01*
X116652095Y-84847618D02*
X115852095Y-84847618D01*
X115852095Y-84847618D02*
X115852095Y-84542856D01*
X115852095Y-84542856D02*
X115890190Y-84466666D01*
X115890190Y-84466666D02*
X115928285Y-84428571D01*
X115928285Y-84428571D02*
X116004476Y-84390475D01*
X116004476Y-84390475D02*
X116118761Y-84390475D01*
X116118761Y-84390475D02*
X116194952Y-84428571D01*
X116194952Y-84428571D02*
X116233047Y-84466666D01*
X116233047Y-84466666D02*
X116271142Y-84542856D01*
X116271142Y-84542856D02*
X116271142Y-84847618D01*
D11*
X55902095Y-61390476D02*
X55902095Y-61847619D01*
X55902095Y-61619047D02*
X55102095Y-61619047D01*
X55102095Y-61619047D02*
X55216380Y-61695238D01*
X55216380Y-61695238D02*
X55292571Y-61771428D01*
X55292571Y-61771428D02*
X55330666Y-61847619D01*
X55483047Y-60171428D02*
X55521142Y-60057142D01*
X55521142Y-60057142D02*
X55559238Y-60019047D01*
X55559238Y-60019047D02*
X55635428Y-59980951D01*
X55635428Y-59980951D02*
X55749714Y-59980951D01*
X55749714Y-59980951D02*
X55825904Y-60019047D01*
X55825904Y-60019047D02*
X55864000Y-60057142D01*
X55864000Y-60057142D02*
X55902095Y-60133332D01*
X55902095Y-60133332D02*
X55902095Y-60438094D01*
X55902095Y-60438094D02*
X55102095Y-60438094D01*
X55102095Y-60438094D02*
X55102095Y-60171428D01*
X55102095Y-60171428D02*
X55140190Y-60095237D01*
X55140190Y-60095237D02*
X55178285Y-60057142D01*
X55178285Y-60057142D02*
X55254476Y-60019047D01*
X55254476Y-60019047D02*
X55330666Y-60019047D01*
X55330666Y-60019047D02*
X55406857Y-60057142D01*
X55406857Y-60057142D02*
X55444952Y-60095237D01*
X55444952Y-60095237D02*
X55483047Y-60171428D01*
X55483047Y-60171428D02*
X55483047Y-60438094D01*
X55102095Y-59485713D02*
X55102095Y-59333332D01*
X55102095Y-59333332D02*
X55140190Y-59257142D01*
X55140190Y-59257142D02*
X55216380Y-59180951D01*
X55216380Y-59180951D02*
X55368761Y-59142856D01*
X55368761Y-59142856D02*
X55635428Y-59142856D01*
X55635428Y-59142856D02*
X55787809Y-59180951D01*
X55787809Y-59180951D02*
X55864000Y-59257142D01*
X55864000Y-59257142D02*
X55902095Y-59333332D01*
X55902095Y-59333332D02*
X55902095Y-59485713D01*
X55902095Y-59485713D02*
X55864000Y-59561904D01*
X55864000Y-59561904D02*
X55787809Y-59638094D01*
X55787809Y-59638094D02*
X55635428Y-59676190D01*
X55635428Y-59676190D02*
X55368761Y-59676190D01*
X55368761Y-59676190D02*
X55216380Y-59638094D01*
X55216380Y-59638094D02*
X55140190Y-59561904D01*
X55140190Y-59561904D02*
X55102095Y-59485713D01*
X55102095Y-58647618D02*
X55102095Y-58495237D01*
X55102095Y-58495237D02*
X55140190Y-58419047D01*
X55140190Y-58419047D02*
X55216380Y-58342856D01*
X55216380Y-58342856D02*
X55368761Y-58304761D01*
X55368761Y-58304761D02*
X55635428Y-58304761D01*
X55635428Y-58304761D02*
X55787809Y-58342856D01*
X55787809Y-58342856D02*
X55864000Y-58419047D01*
X55864000Y-58419047D02*
X55902095Y-58495237D01*
X55902095Y-58495237D02*
X55902095Y-58647618D01*
X55902095Y-58647618D02*
X55864000Y-58723809D01*
X55864000Y-58723809D02*
X55787809Y-58799999D01*
X55787809Y-58799999D02*
X55635428Y-58838095D01*
X55635428Y-58838095D02*
X55368761Y-58838095D01*
X55368761Y-58838095D02*
X55216380Y-58799999D01*
X55216380Y-58799999D02*
X55140190Y-58723809D01*
X55140190Y-58723809D02*
X55102095Y-58647618D01*
X55102095Y-58076190D02*
X55102095Y-57619047D01*
X55902095Y-57847619D02*
X55102095Y-57847619D01*
X55102095Y-57199999D02*
X55102095Y-57123809D01*
X55102095Y-57123809D02*
X55140190Y-57047618D01*
X55140190Y-57047618D02*
X55178285Y-57009523D01*
X55178285Y-57009523D02*
X55254476Y-56971428D01*
X55254476Y-56971428D02*
X55406857Y-56933333D01*
X55406857Y-56933333D02*
X55597333Y-56933333D01*
X55597333Y-56933333D02*
X55749714Y-56971428D01*
X55749714Y-56971428D02*
X55825904Y-57009523D01*
X55825904Y-57009523D02*
X55864000Y-57047618D01*
X55864000Y-57047618D02*
X55902095Y-57123809D01*
X55902095Y-57123809D02*
X55902095Y-57199999D01*
X55902095Y-57199999D02*
X55864000Y-57276190D01*
X55864000Y-57276190D02*
X55825904Y-57314285D01*
X55825904Y-57314285D02*
X55749714Y-57352380D01*
X55749714Y-57352380D02*
X55597333Y-57390476D01*
X55597333Y-57390476D02*
X55406857Y-57390476D01*
X55406857Y-57390476D02*
X55254476Y-57352380D01*
X55254476Y-57352380D02*
X55178285Y-57314285D01*
X55178285Y-57314285D02*
X55140190Y-57276190D01*
X55140190Y-57276190D02*
X55102095Y-57199999D01*
X55102095Y-55828570D02*
X55102095Y-55752380D01*
X55102095Y-55752380D02*
X55140190Y-55676189D01*
X55140190Y-55676189D02*
X55178285Y-55638094D01*
X55178285Y-55638094D02*
X55254476Y-55599999D01*
X55254476Y-55599999D02*
X55406857Y-55561904D01*
X55406857Y-55561904D02*
X55597333Y-55561904D01*
X55597333Y-55561904D02*
X55749714Y-55599999D01*
X55749714Y-55599999D02*
X55825904Y-55638094D01*
X55825904Y-55638094D02*
X55864000Y-55676189D01*
X55864000Y-55676189D02*
X55902095Y-55752380D01*
X55902095Y-55752380D02*
X55902095Y-55828570D01*
X55902095Y-55828570D02*
X55864000Y-55904761D01*
X55864000Y-55904761D02*
X55825904Y-55942856D01*
X55825904Y-55942856D02*
X55749714Y-55980951D01*
X55749714Y-55980951D02*
X55597333Y-56019047D01*
X55597333Y-56019047D02*
X55406857Y-56019047D01*
X55406857Y-56019047D02*
X55254476Y-55980951D01*
X55254476Y-55980951D02*
X55178285Y-55942856D01*
X55178285Y-55942856D02*
X55140190Y-55904761D01*
X55140190Y-55904761D02*
X55102095Y-55828570D01*
D10*
X76809523Y-48265166D02*
X76200000Y-48265166D01*
X76504761Y-47960404D02*
X76504761Y-48569928D01*
X75895238Y-48760404D02*
X75400000Y-48760404D01*
X75400000Y-48760404D02*
X75666666Y-48455642D01*
X75666666Y-48455642D02*
X75552381Y-48455642D01*
X75552381Y-48455642D02*
X75476190Y-48417547D01*
X75476190Y-48417547D02*
X75438095Y-48379452D01*
X75438095Y-48379452D02*
X75400000Y-48303261D01*
X75400000Y-48303261D02*
X75400000Y-48112785D01*
X75400000Y-48112785D02*
X75438095Y-48036595D01*
X75438095Y-48036595D02*
X75476190Y-47998500D01*
X75476190Y-47998500D02*
X75552381Y-47960404D01*
X75552381Y-47960404D02*
X75780952Y-47960404D01*
X75780952Y-47960404D02*
X75857143Y-47998500D01*
X75857143Y-47998500D02*
X75895238Y-48036595D01*
X75057142Y-48036595D02*
X75019047Y-47998500D01*
X75019047Y-47998500D02*
X75057142Y-47960404D01*
X75057142Y-47960404D02*
X75095238Y-47998500D01*
X75095238Y-47998500D02*
X75057142Y-48036595D01*
X75057142Y-48036595D02*
X75057142Y-47960404D01*
X74752381Y-48760404D02*
X74257143Y-48760404D01*
X74257143Y-48760404D02*
X74523809Y-48455642D01*
X74523809Y-48455642D02*
X74409524Y-48455642D01*
X74409524Y-48455642D02*
X74333333Y-48417547D01*
X74333333Y-48417547D02*
X74295238Y-48379452D01*
X74295238Y-48379452D02*
X74257143Y-48303261D01*
X74257143Y-48303261D02*
X74257143Y-48112785D01*
X74257143Y-48112785D02*
X74295238Y-48036595D01*
X74295238Y-48036595D02*
X74333333Y-47998500D01*
X74333333Y-47998500D02*
X74409524Y-47960404D01*
X74409524Y-47960404D02*
X74638095Y-47960404D01*
X74638095Y-47960404D02*
X74714286Y-47998500D01*
X74714286Y-47998500D02*
X74752381Y-48036595D01*
X74028571Y-48760404D02*
X73761904Y-47960404D01*
X73761904Y-47960404D02*
X73495238Y-48760404D01*
X99190476Y-93597333D02*
X99800000Y-93597333D01*
X99495238Y-93902095D02*
X99495238Y-93292571D01*
X100104761Y-93102095D02*
X100599999Y-93102095D01*
X100599999Y-93102095D02*
X100333333Y-93406857D01*
X100333333Y-93406857D02*
X100447618Y-93406857D01*
X100447618Y-93406857D02*
X100523809Y-93444952D01*
X100523809Y-93444952D02*
X100561904Y-93483047D01*
X100561904Y-93483047D02*
X100599999Y-93559238D01*
X100599999Y-93559238D02*
X100599999Y-93749714D01*
X100599999Y-93749714D02*
X100561904Y-93825904D01*
X100561904Y-93825904D02*
X100523809Y-93864000D01*
X100523809Y-93864000D02*
X100447618Y-93902095D01*
X100447618Y-93902095D02*
X100219047Y-93902095D01*
X100219047Y-93902095D02*
X100142856Y-93864000D01*
X100142856Y-93864000D02*
X100104761Y-93825904D01*
X100942857Y-93825904D02*
X100980952Y-93864000D01*
X100980952Y-93864000D02*
X100942857Y-93902095D01*
X100942857Y-93902095D02*
X100904761Y-93864000D01*
X100904761Y-93864000D02*
X100942857Y-93825904D01*
X100942857Y-93825904D02*
X100942857Y-93902095D01*
X101247618Y-93102095D02*
X101742856Y-93102095D01*
X101742856Y-93102095D02*
X101476190Y-93406857D01*
X101476190Y-93406857D02*
X101590475Y-93406857D01*
X101590475Y-93406857D02*
X101666666Y-93444952D01*
X101666666Y-93444952D02*
X101704761Y-93483047D01*
X101704761Y-93483047D02*
X101742856Y-93559238D01*
X101742856Y-93559238D02*
X101742856Y-93749714D01*
X101742856Y-93749714D02*
X101704761Y-93825904D01*
X101704761Y-93825904D02*
X101666666Y-93864000D01*
X101666666Y-93864000D02*
X101590475Y-93902095D01*
X101590475Y-93902095D02*
X101361904Y-93902095D01*
X101361904Y-93902095D02*
X101285713Y-93864000D01*
X101285713Y-93864000D02*
X101247618Y-93825904D01*
X101971428Y-93102095D02*
X102238095Y-93902095D01*
X102238095Y-93902095D02*
X102504761Y-93102095D01*
X64609523Y-94140190D02*
X64533333Y-94102095D01*
X64533333Y-94102095D02*
X64419047Y-94102095D01*
X64419047Y-94102095D02*
X64304761Y-94140190D01*
X64304761Y-94140190D02*
X64228571Y-94216380D01*
X64228571Y-94216380D02*
X64190476Y-94292571D01*
X64190476Y-94292571D02*
X64152380Y-94444952D01*
X64152380Y-94444952D02*
X64152380Y-94559238D01*
X64152380Y-94559238D02*
X64190476Y-94711619D01*
X64190476Y-94711619D02*
X64228571Y-94787809D01*
X64228571Y-94787809D02*
X64304761Y-94864000D01*
X64304761Y-94864000D02*
X64419047Y-94902095D01*
X64419047Y-94902095D02*
X64495238Y-94902095D01*
X64495238Y-94902095D02*
X64609523Y-94864000D01*
X64609523Y-94864000D02*
X64647619Y-94825904D01*
X64647619Y-94825904D02*
X64647619Y-94559238D01*
X64647619Y-94559238D02*
X64495238Y-94559238D01*
X64990476Y-94902095D02*
X64990476Y-94102095D01*
X64990476Y-94102095D02*
X65447619Y-94902095D01*
X65447619Y-94902095D02*
X65447619Y-94102095D01*
X65828571Y-94902095D02*
X65828571Y-94102095D01*
X65828571Y-94102095D02*
X66019047Y-94102095D01*
X66019047Y-94102095D02*
X66133333Y-94140190D01*
X66133333Y-94140190D02*
X66209523Y-94216380D01*
X66209523Y-94216380D02*
X66247618Y-94292571D01*
X66247618Y-94292571D02*
X66285714Y-94444952D01*
X66285714Y-94444952D02*
X66285714Y-94559238D01*
X66285714Y-94559238D02*
X66247618Y-94711619D01*
X66247618Y-94711619D02*
X66209523Y-94787809D01*
X66209523Y-94787809D02*
X66133333Y-94864000D01*
X66133333Y-94864000D02*
X66019047Y-94902095D01*
X66019047Y-94902095D02*
X65828571Y-94902095D01*
X87633809Y-49422904D02*
X87176666Y-49422904D01*
X87405238Y-48622904D02*
X87405238Y-49422904D01*
X86986190Y-49422904D02*
X86452856Y-48622904D01*
X86452856Y-49422904D02*
X86986190Y-48622904D01*
X66640476Y-48972309D02*
X66716666Y-49010404D01*
X66716666Y-49010404D02*
X66830952Y-49010404D01*
X66830952Y-49010404D02*
X66945238Y-48972309D01*
X66945238Y-48972309D02*
X67021428Y-48896119D01*
X67021428Y-48896119D02*
X67059523Y-48819928D01*
X67059523Y-48819928D02*
X67097619Y-48667547D01*
X67097619Y-48667547D02*
X67097619Y-48553261D01*
X67097619Y-48553261D02*
X67059523Y-48400880D01*
X67059523Y-48400880D02*
X67021428Y-48324690D01*
X67021428Y-48324690D02*
X66945238Y-48248500D01*
X66945238Y-48248500D02*
X66830952Y-48210404D01*
X66830952Y-48210404D02*
X66754761Y-48210404D01*
X66754761Y-48210404D02*
X66640476Y-48248500D01*
X66640476Y-48248500D02*
X66602380Y-48286595D01*
X66602380Y-48286595D02*
X66602380Y-48553261D01*
X66602380Y-48553261D02*
X66754761Y-48553261D01*
X66259523Y-48210404D02*
X66259523Y-49010404D01*
X66259523Y-49010404D02*
X65802380Y-48210404D01*
X65802380Y-48210404D02*
X65802380Y-49010404D01*
X65421428Y-48210404D02*
X65421428Y-49010404D01*
X65421428Y-49010404D02*
X65230952Y-49010404D01*
X65230952Y-49010404D02*
X65116666Y-48972309D01*
X65116666Y-48972309D02*
X65040476Y-48896119D01*
X65040476Y-48896119D02*
X65002381Y-48819928D01*
X65002381Y-48819928D02*
X64964285Y-48667547D01*
X64964285Y-48667547D02*
X64964285Y-48553261D01*
X64964285Y-48553261D02*
X65002381Y-48400880D01*
X65002381Y-48400880D02*
X65040476Y-48324690D01*
X65040476Y-48324690D02*
X65116666Y-48248500D01*
X65116666Y-48248500D02*
X65230952Y-48210404D01*
X65230952Y-48210404D02*
X65421428Y-48210404D01*
X102366190Y-94602095D02*
X102632857Y-95402095D01*
X102632857Y-95402095D02*
X102899523Y-94602095D01*
X103623333Y-95325904D02*
X103585237Y-95364000D01*
X103585237Y-95364000D02*
X103470952Y-95402095D01*
X103470952Y-95402095D02*
X103394761Y-95402095D01*
X103394761Y-95402095D02*
X103280475Y-95364000D01*
X103280475Y-95364000D02*
X103204285Y-95287809D01*
X103204285Y-95287809D02*
X103166190Y-95211619D01*
X103166190Y-95211619D02*
X103128094Y-95059238D01*
X103128094Y-95059238D02*
X103128094Y-94944952D01*
X103128094Y-94944952D02*
X103166190Y-94792571D01*
X103166190Y-94792571D02*
X103204285Y-94716380D01*
X103204285Y-94716380D02*
X103280475Y-94640190D01*
X103280475Y-94640190D02*
X103394761Y-94602095D01*
X103394761Y-94602095D02*
X103470952Y-94602095D01*
X103470952Y-94602095D02*
X103585237Y-94640190D01*
X103585237Y-94640190D02*
X103623333Y-94678285D01*
X104118571Y-94602095D02*
X104270952Y-94602095D01*
X104270952Y-94602095D02*
X104347142Y-94640190D01*
X104347142Y-94640190D02*
X104423333Y-94716380D01*
X104423333Y-94716380D02*
X104461428Y-94868761D01*
X104461428Y-94868761D02*
X104461428Y-95135428D01*
X104461428Y-95135428D02*
X104423333Y-95287809D01*
X104423333Y-95287809D02*
X104347142Y-95364000D01*
X104347142Y-95364000D02*
X104270952Y-95402095D01*
X104270952Y-95402095D02*
X104118571Y-95402095D01*
X104118571Y-95402095D02*
X104042380Y-95364000D01*
X104042380Y-95364000D02*
X103966190Y-95287809D01*
X103966190Y-95287809D02*
X103928094Y-95135428D01*
X103928094Y-95135428D02*
X103928094Y-94868761D01*
X103928094Y-94868761D02*
X103966190Y-94716380D01*
X103966190Y-94716380D02*
X104042380Y-94640190D01*
X104042380Y-94640190D02*
X104118571Y-94602095D01*
X104804285Y-95402095D02*
X104804285Y-94602095D01*
X104804285Y-94602095D02*
X105070951Y-95173523D01*
X105070951Y-95173523D02*
X105337618Y-94602095D01*
X105337618Y-94602095D02*
X105337618Y-95402095D01*
X84600476Y-49384809D02*
X84676666Y-49422904D01*
X84676666Y-49422904D02*
X84790952Y-49422904D01*
X84790952Y-49422904D02*
X84905238Y-49384809D01*
X84905238Y-49384809D02*
X84981428Y-49308619D01*
X84981428Y-49308619D02*
X85019523Y-49232428D01*
X85019523Y-49232428D02*
X85057619Y-49080047D01*
X85057619Y-49080047D02*
X85057619Y-48965761D01*
X85057619Y-48965761D02*
X85019523Y-48813380D01*
X85019523Y-48813380D02*
X84981428Y-48737190D01*
X84981428Y-48737190D02*
X84905238Y-48661000D01*
X84905238Y-48661000D02*
X84790952Y-48622904D01*
X84790952Y-48622904D02*
X84714761Y-48622904D01*
X84714761Y-48622904D02*
X84600476Y-48661000D01*
X84600476Y-48661000D02*
X84562380Y-48699095D01*
X84562380Y-48699095D02*
X84562380Y-48965761D01*
X84562380Y-48965761D02*
X84714761Y-48965761D01*
X84219523Y-48622904D02*
X84219523Y-49422904D01*
X84219523Y-49422904D02*
X83762380Y-48622904D01*
X83762380Y-48622904D02*
X83762380Y-49422904D01*
X83381428Y-48622904D02*
X83381428Y-49422904D01*
X83381428Y-49422904D02*
X83190952Y-49422904D01*
X83190952Y-49422904D02*
X83076666Y-49384809D01*
X83076666Y-49384809D02*
X83000476Y-49308619D01*
X83000476Y-49308619D02*
X82962381Y-49232428D01*
X82962381Y-49232428D02*
X82924285Y-49080047D01*
X82924285Y-49080047D02*
X82924285Y-48965761D01*
X82924285Y-48965761D02*
X82962381Y-48813380D01*
X82962381Y-48813380D02*
X83000476Y-48737190D01*
X83000476Y-48737190D02*
X83076666Y-48661000D01*
X83076666Y-48661000D02*
X83190952Y-48622904D01*
X83190952Y-48622904D02*
X83381428Y-48622904D01*
X69352380Y-48286595D02*
X69390476Y-48248500D01*
X69390476Y-48248500D02*
X69504761Y-48210404D01*
X69504761Y-48210404D02*
X69580952Y-48210404D01*
X69580952Y-48210404D02*
X69695238Y-48248500D01*
X69695238Y-48248500D02*
X69771428Y-48324690D01*
X69771428Y-48324690D02*
X69809523Y-48400880D01*
X69809523Y-48400880D02*
X69847619Y-48553261D01*
X69847619Y-48553261D02*
X69847619Y-48667547D01*
X69847619Y-48667547D02*
X69809523Y-48819928D01*
X69809523Y-48819928D02*
X69771428Y-48896119D01*
X69771428Y-48896119D02*
X69695238Y-48972309D01*
X69695238Y-48972309D02*
X69580952Y-49010404D01*
X69580952Y-49010404D02*
X69504761Y-49010404D01*
X69504761Y-49010404D02*
X69390476Y-48972309D01*
X69390476Y-48972309D02*
X69352380Y-48934214D01*
X68628571Y-48210404D02*
X69009523Y-48210404D01*
X69009523Y-48210404D02*
X69009523Y-49010404D01*
X68361904Y-48210404D02*
X68361904Y-49010404D01*
X67904761Y-48210404D02*
X68247619Y-48667547D01*
X67904761Y-49010404D02*
X68361904Y-48553261D01*
X94279523Y-48927666D02*
X93670000Y-48927666D01*
X93974761Y-48622904D02*
X93974761Y-49232428D01*
X93365238Y-49422904D02*
X92870000Y-49422904D01*
X92870000Y-49422904D02*
X93136666Y-49118142D01*
X93136666Y-49118142D02*
X93022381Y-49118142D01*
X93022381Y-49118142D02*
X92946190Y-49080047D01*
X92946190Y-49080047D02*
X92908095Y-49041952D01*
X92908095Y-49041952D02*
X92870000Y-48965761D01*
X92870000Y-48965761D02*
X92870000Y-48775285D01*
X92870000Y-48775285D02*
X92908095Y-48699095D01*
X92908095Y-48699095D02*
X92946190Y-48661000D01*
X92946190Y-48661000D02*
X93022381Y-48622904D01*
X93022381Y-48622904D02*
X93250952Y-48622904D01*
X93250952Y-48622904D02*
X93327143Y-48661000D01*
X93327143Y-48661000D02*
X93365238Y-48699095D01*
X92527142Y-48699095D02*
X92489047Y-48661000D01*
X92489047Y-48661000D02*
X92527142Y-48622904D01*
X92527142Y-48622904D02*
X92565238Y-48661000D01*
X92565238Y-48661000D02*
X92527142Y-48699095D01*
X92527142Y-48699095D02*
X92527142Y-48622904D01*
X92222381Y-49422904D02*
X91727143Y-49422904D01*
X91727143Y-49422904D02*
X91993809Y-49118142D01*
X91993809Y-49118142D02*
X91879524Y-49118142D01*
X91879524Y-49118142D02*
X91803333Y-49080047D01*
X91803333Y-49080047D02*
X91765238Y-49041952D01*
X91765238Y-49041952D02*
X91727143Y-48965761D01*
X91727143Y-48965761D02*
X91727143Y-48775285D01*
X91727143Y-48775285D02*
X91765238Y-48699095D01*
X91765238Y-48699095D02*
X91803333Y-48661000D01*
X91803333Y-48661000D02*
X91879524Y-48622904D01*
X91879524Y-48622904D02*
X92108095Y-48622904D01*
X92108095Y-48622904D02*
X92184286Y-48661000D01*
X92184286Y-48661000D02*
X92222381Y-48699095D01*
X91498571Y-49422904D02*
X91231904Y-48622904D01*
X91231904Y-48622904D02*
X90965238Y-49422904D01*
X112480476Y-95097333D02*
X113090000Y-95097333D01*
X113432856Y-94678285D02*
X113470952Y-94640190D01*
X113470952Y-94640190D02*
X113547142Y-94602095D01*
X113547142Y-94602095D02*
X113737618Y-94602095D01*
X113737618Y-94602095D02*
X113813809Y-94640190D01*
X113813809Y-94640190D02*
X113851904Y-94678285D01*
X113851904Y-94678285D02*
X113889999Y-94754476D01*
X113889999Y-94754476D02*
X113889999Y-94830666D01*
X113889999Y-94830666D02*
X113851904Y-94944952D01*
X113851904Y-94944952D02*
X113394761Y-95402095D01*
X113394761Y-95402095D02*
X113889999Y-95402095D01*
X114385238Y-94602095D02*
X114461428Y-94602095D01*
X114461428Y-94602095D02*
X114537619Y-94640190D01*
X114537619Y-94640190D02*
X114575714Y-94678285D01*
X114575714Y-94678285D02*
X114613809Y-94754476D01*
X114613809Y-94754476D02*
X114651904Y-94906857D01*
X114651904Y-94906857D02*
X114651904Y-95097333D01*
X114651904Y-95097333D02*
X114613809Y-95249714D01*
X114613809Y-95249714D02*
X114575714Y-95325904D01*
X114575714Y-95325904D02*
X114537619Y-95364000D01*
X114537619Y-95364000D02*
X114461428Y-95402095D01*
X114461428Y-95402095D02*
X114385238Y-95402095D01*
X114385238Y-95402095D02*
X114309047Y-95364000D01*
X114309047Y-95364000D02*
X114270952Y-95325904D01*
X114270952Y-95325904D02*
X114232857Y-95249714D01*
X114232857Y-95249714D02*
X114194761Y-95097333D01*
X114194761Y-95097333D02*
X114194761Y-94906857D01*
X114194761Y-94906857D02*
X114232857Y-94754476D01*
X114232857Y-94754476D02*
X114270952Y-94678285D01*
X114270952Y-94678285D02*
X114309047Y-94640190D01*
X114309047Y-94640190D02*
X114385238Y-94602095D01*
X114880476Y-94602095D02*
X115147143Y-95402095D01*
X115147143Y-95402095D02*
X115413809Y-94602095D01*
X104980476Y-93597333D02*
X105590000Y-93597333D01*
X105285238Y-93902095D02*
X105285238Y-93292571D01*
X106389999Y-93902095D02*
X105932856Y-93902095D01*
X106161428Y-93902095D02*
X106161428Y-93102095D01*
X106161428Y-93102095D02*
X106085237Y-93216380D01*
X106085237Y-93216380D02*
X106009047Y-93292571D01*
X106009047Y-93292571D02*
X105932856Y-93330666D01*
X107113809Y-93102095D02*
X106732857Y-93102095D01*
X106732857Y-93102095D02*
X106694761Y-93483047D01*
X106694761Y-93483047D02*
X106732857Y-93444952D01*
X106732857Y-93444952D02*
X106809047Y-93406857D01*
X106809047Y-93406857D02*
X106999523Y-93406857D01*
X106999523Y-93406857D02*
X107075714Y-93444952D01*
X107075714Y-93444952D02*
X107113809Y-93483047D01*
X107113809Y-93483047D02*
X107151904Y-93559238D01*
X107151904Y-93559238D02*
X107151904Y-93749714D01*
X107151904Y-93749714D02*
X107113809Y-93825904D01*
X107113809Y-93825904D02*
X107075714Y-93864000D01*
X107075714Y-93864000D02*
X106999523Y-93902095D01*
X106999523Y-93902095D02*
X106809047Y-93902095D01*
X106809047Y-93902095D02*
X106732857Y-93864000D01*
X106732857Y-93864000D02*
X106694761Y-93825904D01*
X107380476Y-93102095D02*
X107647143Y-93902095D01*
X107647143Y-93902095D02*
X107913809Y-93102095D01*
X109980476Y-93597333D02*
X110590000Y-93597333D01*
X111389999Y-93902095D02*
X110932856Y-93902095D01*
X111161428Y-93902095D02*
X111161428Y-93102095D01*
X111161428Y-93102095D02*
X111085237Y-93216380D01*
X111085237Y-93216380D02*
X111009047Y-93292571D01*
X111009047Y-93292571D02*
X110932856Y-93330666D01*
X112113809Y-93102095D02*
X111732857Y-93102095D01*
X111732857Y-93102095D02*
X111694761Y-93483047D01*
X111694761Y-93483047D02*
X111732857Y-93444952D01*
X111732857Y-93444952D02*
X111809047Y-93406857D01*
X111809047Y-93406857D02*
X111999523Y-93406857D01*
X111999523Y-93406857D02*
X112075714Y-93444952D01*
X112075714Y-93444952D02*
X112113809Y-93483047D01*
X112113809Y-93483047D02*
X112151904Y-93559238D01*
X112151904Y-93559238D02*
X112151904Y-93749714D01*
X112151904Y-93749714D02*
X112113809Y-93825904D01*
X112113809Y-93825904D02*
X112075714Y-93864000D01*
X112075714Y-93864000D02*
X111999523Y-93902095D01*
X111999523Y-93902095D02*
X111809047Y-93902095D01*
X111809047Y-93902095D02*
X111732857Y-93864000D01*
X111732857Y-93864000D02*
X111694761Y-93825904D01*
X112380476Y-93102095D02*
X112647143Y-93902095D01*
X112647143Y-93902095D02*
X112913809Y-93102095D01*
D11*
X49652095Y-82059523D02*
X48852095Y-82059523D01*
X48852095Y-82059523D02*
X48852095Y-81754761D01*
X48852095Y-81754761D02*
X48890190Y-81678571D01*
X48890190Y-81678571D02*
X48928285Y-81640476D01*
X48928285Y-81640476D02*
X49004476Y-81602380D01*
X49004476Y-81602380D02*
X49118761Y-81602380D01*
X49118761Y-81602380D02*
X49194952Y-81640476D01*
X49194952Y-81640476D02*
X49233047Y-81678571D01*
X49233047Y-81678571D02*
X49271142Y-81754761D01*
X49271142Y-81754761D02*
X49271142Y-82059523D01*
X48852095Y-81335714D02*
X49652095Y-81145238D01*
X49652095Y-81145238D02*
X49080666Y-80992857D01*
X49080666Y-80992857D02*
X49652095Y-80840476D01*
X49652095Y-80840476D02*
X48852095Y-80650000D01*
X49652095Y-79888094D02*
X49271142Y-80154761D01*
X49652095Y-80345237D02*
X48852095Y-80345237D01*
X48852095Y-80345237D02*
X48852095Y-80040475D01*
X48852095Y-80040475D02*
X48890190Y-79964285D01*
X48890190Y-79964285D02*
X48928285Y-79926190D01*
X48928285Y-79926190D02*
X49004476Y-79888094D01*
X49004476Y-79888094D02*
X49118761Y-79888094D01*
X49118761Y-79888094D02*
X49194952Y-79926190D01*
X49194952Y-79926190D02*
X49233047Y-79964285D01*
X49233047Y-79964285D02*
X49271142Y-80040475D01*
X49271142Y-80040475D02*
X49271142Y-80345237D01*
X48852095Y-78783332D02*
X48852095Y-78630951D01*
X48852095Y-78630951D02*
X48890190Y-78554761D01*
X48890190Y-78554761D02*
X48966380Y-78478570D01*
X48966380Y-78478570D02*
X49118761Y-78440475D01*
X49118761Y-78440475D02*
X49385428Y-78440475D01*
X49385428Y-78440475D02*
X49537809Y-78478570D01*
X49537809Y-78478570D02*
X49614000Y-78554761D01*
X49614000Y-78554761D02*
X49652095Y-78630951D01*
X49652095Y-78630951D02*
X49652095Y-78783332D01*
X49652095Y-78783332D02*
X49614000Y-78859523D01*
X49614000Y-78859523D02*
X49537809Y-78935713D01*
X49537809Y-78935713D02*
X49385428Y-78973809D01*
X49385428Y-78973809D02*
X49118761Y-78973809D01*
X49118761Y-78973809D02*
X48966380Y-78935713D01*
X48966380Y-78935713D02*
X48890190Y-78859523D01*
X48890190Y-78859523D02*
X48852095Y-78783332D01*
X49652095Y-78097618D02*
X48852095Y-78097618D01*
X48852095Y-78097618D02*
X49652095Y-77640475D01*
X49652095Y-77640475D02*
X48852095Y-77640475D01*
X49652095Y-76269047D02*
X49652095Y-76649999D01*
X49652095Y-76649999D02*
X48852095Y-76649999D01*
X49233047Y-76002380D02*
X49233047Y-75735714D01*
X49652095Y-75621428D02*
X49652095Y-76002380D01*
X49652095Y-76002380D02*
X48852095Y-76002380D01*
X48852095Y-76002380D02*
X48852095Y-75621428D01*
X49652095Y-75278570D02*
X48852095Y-75278570D01*
X48852095Y-75278570D02*
X48852095Y-75088094D01*
X48852095Y-75088094D02*
X48890190Y-74973808D01*
X48890190Y-74973808D02*
X48966380Y-74897618D01*
X48966380Y-74897618D02*
X49042571Y-74859523D01*
X49042571Y-74859523D02*
X49194952Y-74821427D01*
X49194952Y-74821427D02*
X49309238Y-74821427D01*
X49309238Y-74821427D02*
X49461619Y-74859523D01*
X49461619Y-74859523D02*
X49537809Y-74897618D01*
X49537809Y-74897618D02*
X49614000Y-74973808D01*
X49614000Y-74973808D02*
X49652095Y-75088094D01*
X49652095Y-75088094D02*
X49652095Y-75278570D01*
D10*
X61440476Y-93902095D02*
X61440476Y-93102095D01*
X61440476Y-93102095D02*
X61707142Y-93673523D01*
X61707142Y-93673523D02*
X61973809Y-93102095D01*
X61973809Y-93102095D02*
X61973809Y-93902095D01*
X62507143Y-93102095D02*
X62659524Y-93102095D01*
X62659524Y-93102095D02*
X62735714Y-93140190D01*
X62735714Y-93140190D02*
X62811905Y-93216380D01*
X62811905Y-93216380D02*
X62850000Y-93368761D01*
X62850000Y-93368761D02*
X62850000Y-93635428D01*
X62850000Y-93635428D02*
X62811905Y-93787809D01*
X62811905Y-93787809D02*
X62735714Y-93864000D01*
X62735714Y-93864000D02*
X62659524Y-93902095D01*
X62659524Y-93902095D02*
X62507143Y-93902095D01*
X62507143Y-93902095D02*
X62430952Y-93864000D01*
X62430952Y-93864000D02*
X62354762Y-93787809D01*
X62354762Y-93787809D02*
X62316666Y-93635428D01*
X62316666Y-93635428D02*
X62316666Y-93368761D01*
X62316666Y-93368761D02*
X62354762Y-93216380D01*
X62354762Y-93216380D02*
X62430952Y-93140190D01*
X62430952Y-93140190D02*
X62507143Y-93102095D01*
X63154761Y-93864000D02*
X63269047Y-93902095D01*
X63269047Y-93902095D02*
X63459523Y-93902095D01*
X63459523Y-93902095D02*
X63535714Y-93864000D01*
X63535714Y-93864000D02*
X63573809Y-93825904D01*
X63573809Y-93825904D02*
X63611904Y-93749714D01*
X63611904Y-93749714D02*
X63611904Y-93673523D01*
X63611904Y-93673523D02*
X63573809Y-93597333D01*
X63573809Y-93597333D02*
X63535714Y-93559238D01*
X63535714Y-93559238D02*
X63459523Y-93521142D01*
X63459523Y-93521142D02*
X63307142Y-93483047D01*
X63307142Y-93483047D02*
X63230952Y-93444952D01*
X63230952Y-93444952D02*
X63192857Y-93406857D01*
X63192857Y-93406857D02*
X63154761Y-93330666D01*
X63154761Y-93330666D02*
X63154761Y-93254476D01*
X63154761Y-93254476D02*
X63192857Y-93178285D01*
X63192857Y-93178285D02*
X63230952Y-93140190D01*
X63230952Y-93140190D02*
X63307142Y-93102095D01*
X63307142Y-93102095D02*
X63497619Y-93102095D01*
X63497619Y-93102095D02*
X63611904Y-93140190D01*
X63954762Y-93902095D02*
X63954762Y-93102095D01*
X89562380Y-48622904D02*
X89829047Y-49003857D01*
X90019523Y-48622904D02*
X90019523Y-49422904D01*
X90019523Y-49422904D02*
X89714761Y-49422904D01*
X89714761Y-49422904D02*
X89638571Y-49384809D01*
X89638571Y-49384809D02*
X89600476Y-49346714D01*
X89600476Y-49346714D02*
X89562380Y-49270523D01*
X89562380Y-49270523D02*
X89562380Y-49156238D01*
X89562380Y-49156238D02*
X89600476Y-49080047D01*
X89600476Y-49080047D02*
X89638571Y-49041952D01*
X89638571Y-49041952D02*
X89714761Y-49003857D01*
X89714761Y-49003857D02*
X90019523Y-49003857D01*
X89295714Y-49422904D02*
X88762380Y-48622904D01*
X88762380Y-49422904D02*
X89295714Y-48622904D01*
X58690476Y-94902095D02*
X58690476Y-94102095D01*
X58690476Y-94102095D02*
X58957142Y-94673523D01*
X58957142Y-94673523D02*
X59223809Y-94102095D01*
X59223809Y-94102095D02*
X59223809Y-94902095D01*
X59604762Y-94902095D02*
X59604762Y-94102095D01*
X59947618Y-94864000D02*
X60061904Y-94902095D01*
X60061904Y-94902095D02*
X60252380Y-94902095D01*
X60252380Y-94902095D02*
X60328571Y-94864000D01*
X60328571Y-94864000D02*
X60366666Y-94825904D01*
X60366666Y-94825904D02*
X60404761Y-94749714D01*
X60404761Y-94749714D02*
X60404761Y-94673523D01*
X60404761Y-94673523D02*
X60366666Y-94597333D01*
X60366666Y-94597333D02*
X60328571Y-94559238D01*
X60328571Y-94559238D02*
X60252380Y-94521142D01*
X60252380Y-94521142D02*
X60099999Y-94483047D01*
X60099999Y-94483047D02*
X60023809Y-94444952D01*
X60023809Y-94444952D02*
X59985714Y-94406857D01*
X59985714Y-94406857D02*
X59947618Y-94330666D01*
X59947618Y-94330666D02*
X59947618Y-94254476D01*
X59947618Y-94254476D02*
X59985714Y-94178285D01*
X59985714Y-94178285D02*
X60023809Y-94140190D01*
X60023809Y-94140190D02*
X60099999Y-94102095D01*
X60099999Y-94102095D02*
X60290476Y-94102095D01*
X60290476Y-94102095D02*
X60404761Y-94140190D01*
X60900000Y-94102095D02*
X61052381Y-94102095D01*
X61052381Y-94102095D02*
X61128571Y-94140190D01*
X61128571Y-94140190D02*
X61204762Y-94216380D01*
X61204762Y-94216380D02*
X61242857Y-94368761D01*
X61242857Y-94368761D02*
X61242857Y-94635428D01*
X61242857Y-94635428D02*
X61204762Y-94787809D01*
X61204762Y-94787809D02*
X61128571Y-94864000D01*
X61128571Y-94864000D02*
X61052381Y-94902095D01*
X61052381Y-94902095D02*
X60900000Y-94902095D01*
X60900000Y-94902095D02*
X60823809Y-94864000D01*
X60823809Y-94864000D02*
X60747619Y-94787809D01*
X60747619Y-94787809D02*
X60709523Y-94635428D01*
X60709523Y-94635428D02*
X60709523Y-94368761D01*
X60709523Y-94368761D02*
X60747619Y-94216380D01*
X60747619Y-94216380D02*
X60823809Y-94140190D01*
X60823809Y-94140190D02*
X60900000Y-94102095D01*
X54647619Y-94825904D02*
X54609523Y-94864000D01*
X54609523Y-94864000D02*
X54495238Y-94902095D01*
X54495238Y-94902095D02*
X54419047Y-94902095D01*
X54419047Y-94902095D02*
X54304761Y-94864000D01*
X54304761Y-94864000D02*
X54228571Y-94787809D01*
X54228571Y-94787809D02*
X54190476Y-94711619D01*
X54190476Y-94711619D02*
X54152380Y-94559238D01*
X54152380Y-94559238D02*
X54152380Y-94444952D01*
X54152380Y-94444952D02*
X54190476Y-94292571D01*
X54190476Y-94292571D02*
X54228571Y-94216380D01*
X54228571Y-94216380D02*
X54304761Y-94140190D01*
X54304761Y-94140190D02*
X54419047Y-94102095D01*
X54419047Y-94102095D02*
X54495238Y-94102095D01*
X54495238Y-94102095D02*
X54609523Y-94140190D01*
X54609523Y-94140190D02*
X54647619Y-94178285D01*
X54952380Y-94864000D02*
X55066666Y-94902095D01*
X55066666Y-94902095D02*
X55257142Y-94902095D01*
X55257142Y-94902095D02*
X55333333Y-94864000D01*
X55333333Y-94864000D02*
X55371428Y-94825904D01*
X55371428Y-94825904D02*
X55409523Y-94749714D01*
X55409523Y-94749714D02*
X55409523Y-94673523D01*
X55409523Y-94673523D02*
X55371428Y-94597333D01*
X55371428Y-94597333D02*
X55333333Y-94559238D01*
X55333333Y-94559238D02*
X55257142Y-94521142D01*
X55257142Y-94521142D02*
X55104761Y-94483047D01*
X55104761Y-94483047D02*
X55028571Y-94444952D01*
X55028571Y-94444952D02*
X54990476Y-94406857D01*
X54990476Y-94406857D02*
X54952380Y-94330666D01*
X54952380Y-94330666D02*
X54952380Y-94254476D01*
X54952380Y-94254476D02*
X54990476Y-94178285D01*
X54990476Y-94178285D02*
X55028571Y-94140190D01*
X55028571Y-94140190D02*
X55104761Y-94102095D01*
X55104761Y-94102095D02*
X55295238Y-94102095D01*
X55295238Y-94102095D02*
X55409523Y-94140190D01*
X54080000Y-93744000D02*
X55481905Y-93744000D01*
X50440476Y-93597333D02*
X51050000Y-93597333D01*
X50745238Y-93902095D02*
X50745238Y-93292571D01*
X51354761Y-93102095D02*
X51849999Y-93102095D01*
X51849999Y-93102095D02*
X51583333Y-93406857D01*
X51583333Y-93406857D02*
X51697618Y-93406857D01*
X51697618Y-93406857D02*
X51773809Y-93444952D01*
X51773809Y-93444952D02*
X51811904Y-93483047D01*
X51811904Y-93483047D02*
X51849999Y-93559238D01*
X51849999Y-93559238D02*
X51849999Y-93749714D01*
X51849999Y-93749714D02*
X51811904Y-93825904D01*
X51811904Y-93825904D02*
X51773809Y-93864000D01*
X51773809Y-93864000D02*
X51697618Y-93902095D01*
X51697618Y-93902095D02*
X51469047Y-93902095D01*
X51469047Y-93902095D02*
X51392856Y-93864000D01*
X51392856Y-93864000D02*
X51354761Y-93825904D01*
X52192857Y-93825904D02*
X52230952Y-93864000D01*
X52230952Y-93864000D02*
X52192857Y-93902095D01*
X52192857Y-93902095D02*
X52154761Y-93864000D01*
X52154761Y-93864000D02*
X52192857Y-93825904D01*
X52192857Y-93825904D02*
X52192857Y-93902095D01*
X52497618Y-93102095D02*
X52992856Y-93102095D01*
X52992856Y-93102095D02*
X52726190Y-93406857D01*
X52726190Y-93406857D02*
X52840475Y-93406857D01*
X52840475Y-93406857D02*
X52916666Y-93444952D01*
X52916666Y-93444952D02*
X52954761Y-93483047D01*
X52954761Y-93483047D02*
X52992856Y-93559238D01*
X52992856Y-93559238D02*
X52992856Y-93749714D01*
X52992856Y-93749714D02*
X52954761Y-93825904D01*
X52954761Y-93825904D02*
X52916666Y-93864000D01*
X52916666Y-93864000D02*
X52840475Y-93902095D01*
X52840475Y-93902095D02*
X52611904Y-93902095D01*
X52611904Y-93902095D02*
X52535713Y-93864000D01*
X52535713Y-93864000D02*
X52497618Y-93825904D01*
X53221428Y-93102095D02*
X53488095Y-93902095D01*
X53488095Y-93902095D02*
X53754761Y-93102095D01*
X72059523Y-48210404D02*
X72059523Y-49010404D01*
X71526190Y-49010404D02*
X71373809Y-49010404D01*
X71373809Y-49010404D02*
X71297619Y-48972309D01*
X71297619Y-48972309D02*
X71221428Y-48896119D01*
X71221428Y-48896119D02*
X71183333Y-48743738D01*
X71183333Y-48743738D02*
X71183333Y-48477071D01*
X71183333Y-48477071D02*
X71221428Y-48324690D01*
X71221428Y-48324690D02*
X71297619Y-48248500D01*
X71297619Y-48248500D02*
X71373809Y-48210404D01*
X71373809Y-48210404D02*
X71526190Y-48210404D01*
X71526190Y-48210404D02*
X71602381Y-48248500D01*
X71602381Y-48248500D02*
X71678571Y-48324690D01*
X71678571Y-48324690D02*
X71716667Y-48477071D01*
X71716667Y-48477071D02*
X71716667Y-48743738D01*
X71716667Y-48743738D02*
X71678571Y-48896119D01*
X71678571Y-48896119D02*
X71602381Y-48972309D01*
X71602381Y-48972309D02*
X71526190Y-49010404D01*
X56402380Y-93864000D02*
X56516666Y-93902095D01*
X56516666Y-93902095D02*
X56707142Y-93902095D01*
X56707142Y-93902095D02*
X56783333Y-93864000D01*
X56783333Y-93864000D02*
X56821428Y-93825904D01*
X56821428Y-93825904D02*
X56859523Y-93749714D01*
X56859523Y-93749714D02*
X56859523Y-93673523D01*
X56859523Y-93673523D02*
X56821428Y-93597333D01*
X56821428Y-93597333D02*
X56783333Y-93559238D01*
X56783333Y-93559238D02*
X56707142Y-93521142D01*
X56707142Y-93521142D02*
X56554761Y-93483047D01*
X56554761Y-93483047D02*
X56478571Y-93444952D01*
X56478571Y-93444952D02*
X56440476Y-93406857D01*
X56440476Y-93406857D02*
X56402380Y-93330666D01*
X56402380Y-93330666D02*
X56402380Y-93254476D01*
X56402380Y-93254476D02*
X56440476Y-93178285D01*
X56440476Y-93178285D02*
X56478571Y-93140190D01*
X56478571Y-93140190D02*
X56554761Y-93102095D01*
X56554761Y-93102095D02*
X56745238Y-93102095D01*
X56745238Y-93102095D02*
X56859523Y-93140190D01*
X57659524Y-93825904D02*
X57621428Y-93864000D01*
X57621428Y-93864000D02*
X57507143Y-93902095D01*
X57507143Y-93902095D02*
X57430952Y-93902095D01*
X57430952Y-93902095D02*
X57316666Y-93864000D01*
X57316666Y-93864000D02*
X57240476Y-93787809D01*
X57240476Y-93787809D02*
X57202381Y-93711619D01*
X57202381Y-93711619D02*
X57164285Y-93559238D01*
X57164285Y-93559238D02*
X57164285Y-93444952D01*
X57164285Y-93444952D02*
X57202381Y-93292571D01*
X57202381Y-93292571D02*
X57240476Y-93216380D01*
X57240476Y-93216380D02*
X57316666Y-93140190D01*
X57316666Y-93140190D02*
X57430952Y-93102095D01*
X57430952Y-93102095D02*
X57507143Y-93102095D01*
X57507143Y-93102095D02*
X57621428Y-93140190D01*
X57621428Y-93140190D02*
X57659524Y-93178285D01*
X58002381Y-93902095D02*
X58002381Y-93102095D01*
X58459524Y-93902095D02*
X58116666Y-93444952D01*
X58459524Y-93102095D02*
X58002381Y-93559238D01*
X107440476Y-95097333D02*
X108050000Y-95097333D01*
X107745238Y-95402095D02*
X107745238Y-94792571D01*
X108392856Y-94678285D02*
X108430952Y-94640190D01*
X108430952Y-94640190D02*
X108507142Y-94602095D01*
X108507142Y-94602095D02*
X108697618Y-94602095D01*
X108697618Y-94602095D02*
X108773809Y-94640190D01*
X108773809Y-94640190D02*
X108811904Y-94678285D01*
X108811904Y-94678285D02*
X108849999Y-94754476D01*
X108849999Y-94754476D02*
X108849999Y-94830666D01*
X108849999Y-94830666D02*
X108811904Y-94944952D01*
X108811904Y-94944952D02*
X108354761Y-95402095D01*
X108354761Y-95402095D02*
X108849999Y-95402095D01*
X109154761Y-94678285D02*
X109192857Y-94640190D01*
X109192857Y-94640190D02*
X109269047Y-94602095D01*
X109269047Y-94602095D02*
X109459523Y-94602095D01*
X109459523Y-94602095D02*
X109535714Y-94640190D01*
X109535714Y-94640190D02*
X109573809Y-94678285D01*
X109573809Y-94678285D02*
X109611904Y-94754476D01*
X109611904Y-94754476D02*
X109611904Y-94830666D01*
X109611904Y-94830666D02*
X109573809Y-94944952D01*
X109573809Y-94944952D02*
X109116666Y-95402095D01*
X109116666Y-95402095D02*
X109611904Y-95402095D01*
X109840476Y-94602095D02*
X110107143Y-95402095D01*
X110107143Y-95402095D02*
X110373809Y-94602095D01*
%TO.C,J6*%
X113462619Y-81773333D02*
X114176904Y-81773333D01*
X114176904Y-81773333D02*
X114319761Y-81820952D01*
X114319761Y-81820952D02*
X114415000Y-81916190D01*
X114415000Y-81916190D02*
X114462619Y-82059047D01*
X114462619Y-82059047D02*
X114462619Y-82154285D01*
X113462619Y-80868571D02*
X113462619Y-81059047D01*
X113462619Y-81059047D02*
X113510238Y-81154285D01*
X113510238Y-81154285D02*
X113557857Y-81201904D01*
X113557857Y-81201904D02*
X113700714Y-81297142D01*
X113700714Y-81297142D02*
X113891190Y-81344761D01*
X113891190Y-81344761D02*
X114272142Y-81344761D01*
X114272142Y-81344761D02*
X114367380Y-81297142D01*
X114367380Y-81297142D02*
X114415000Y-81249523D01*
X114415000Y-81249523D02*
X114462619Y-81154285D01*
X114462619Y-81154285D02*
X114462619Y-80963809D01*
X114462619Y-80963809D02*
X114415000Y-80868571D01*
X114415000Y-80868571D02*
X114367380Y-80820952D01*
X114367380Y-80820952D02*
X114272142Y-80773333D01*
X114272142Y-80773333D02*
X114034047Y-80773333D01*
X114034047Y-80773333D02*
X113938809Y-80820952D01*
X113938809Y-80820952D02*
X113891190Y-80868571D01*
X113891190Y-80868571D02*
X113843571Y-80963809D01*
X113843571Y-80963809D02*
X113843571Y-81154285D01*
X113843571Y-81154285D02*
X113891190Y-81249523D01*
X113891190Y-81249523D02*
X113938809Y-81297142D01*
X113938809Y-81297142D02*
X114034047Y-81344761D01*
%TO.C,C14*%
X98735714Y-76543904D02*
X98697618Y-76582000D01*
X98697618Y-76582000D02*
X98583333Y-76620095D01*
X98583333Y-76620095D02*
X98507142Y-76620095D01*
X98507142Y-76620095D02*
X98392856Y-76582000D01*
X98392856Y-76582000D02*
X98316666Y-76505809D01*
X98316666Y-76505809D02*
X98278571Y-76429619D01*
X98278571Y-76429619D02*
X98240475Y-76277238D01*
X98240475Y-76277238D02*
X98240475Y-76162952D01*
X98240475Y-76162952D02*
X98278571Y-76010571D01*
X98278571Y-76010571D02*
X98316666Y-75934380D01*
X98316666Y-75934380D02*
X98392856Y-75858190D01*
X98392856Y-75858190D02*
X98507142Y-75820095D01*
X98507142Y-75820095D02*
X98583333Y-75820095D01*
X98583333Y-75820095D02*
X98697618Y-75858190D01*
X98697618Y-75858190D02*
X98735714Y-75896285D01*
X99497618Y-76620095D02*
X99040475Y-76620095D01*
X99269047Y-76620095D02*
X99269047Y-75820095D01*
X99269047Y-75820095D02*
X99192856Y-75934380D01*
X99192856Y-75934380D02*
X99116666Y-76010571D01*
X99116666Y-76010571D02*
X99040475Y-76048666D01*
X100183333Y-76086761D02*
X100183333Y-76620095D01*
X99992857Y-75782000D02*
X99802380Y-76353428D01*
X99802380Y-76353428D02*
X100297619Y-76353428D01*
%TO.C,TP5*%
X114840476Y-64565333D02*
X115450000Y-64565333D01*
X115145238Y-64870095D02*
X115145238Y-64260571D01*
X115792856Y-64146285D02*
X115830952Y-64108190D01*
X115830952Y-64108190D02*
X115907142Y-64070095D01*
X115907142Y-64070095D02*
X116097618Y-64070095D01*
X116097618Y-64070095D02*
X116173809Y-64108190D01*
X116173809Y-64108190D02*
X116211904Y-64146285D01*
X116211904Y-64146285D02*
X116249999Y-64222476D01*
X116249999Y-64222476D02*
X116249999Y-64298666D01*
X116249999Y-64298666D02*
X116211904Y-64412952D01*
X116211904Y-64412952D02*
X115754761Y-64870095D01*
X115754761Y-64870095D02*
X116249999Y-64870095D01*
X116554761Y-64146285D02*
X116592857Y-64108190D01*
X116592857Y-64108190D02*
X116669047Y-64070095D01*
X116669047Y-64070095D02*
X116859523Y-64070095D01*
X116859523Y-64070095D02*
X116935714Y-64108190D01*
X116935714Y-64108190D02*
X116973809Y-64146285D01*
X116973809Y-64146285D02*
X117011904Y-64222476D01*
X117011904Y-64222476D02*
X117011904Y-64298666D01*
X117011904Y-64298666D02*
X116973809Y-64412952D01*
X116973809Y-64412952D02*
X116516666Y-64870095D01*
X116516666Y-64870095D02*
X117011904Y-64870095D01*
X117240476Y-64070095D02*
X117507143Y-64870095D01*
X117507143Y-64870095D02*
X117773809Y-64070095D01*
%TO.C,J5*%
X116346666Y-90962619D02*
X116346666Y-91676904D01*
X116346666Y-91676904D02*
X116299047Y-91819761D01*
X116299047Y-91819761D02*
X116203809Y-91915000D01*
X116203809Y-91915000D02*
X116060952Y-91962619D01*
X116060952Y-91962619D02*
X115965714Y-91962619D01*
X117299047Y-90962619D02*
X116822857Y-90962619D01*
X116822857Y-90962619D02*
X116775238Y-91438809D01*
X116775238Y-91438809D02*
X116822857Y-91391190D01*
X116822857Y-91391190D02*
X116918095Y-91343571D01*
X116918095Y-91343571D02*
X117156190Y-91343571D01*
X117156190Y-91343571D02*
X117251428Y-91391190D01*
X117251428Y-91391190D02*
X117299047Y-91438809D01*
X117299047Y-91438809D02*
X117346666Y-91534047D01*
X117346666Y-91534047D02*
X117346666Y-91772142D01*
X117346666Y-91772142D02*
X117299047Y-91867380D01*
X117299047Y-91867380D02*
X117251428Y-91915000D01*
X117251428Y-91915000D02*
X117156190Y-91962619D01*
X117156190Y-91962619D02*
X116918095Y-91962619D01*
X116918095Y-91962619D02*
X116822857Y-91915000D01*
X116822857Y-91915000D02*
X116775238Y-91867380D01*
%TO.C,C25*%
X58985714Y-70793904D02*
X58947618Y-70832000D01*
X58947618Y-70832000D02*
X58833333Y-70870095D01*
X58833333Y-70870095D02*
X58757142Y-70870095D01*
X58757142Y-70870095D02*
X58642856Y-70832000D01*
X58642856Y-70832000D02*
X58566666Y-70755809D01*
X58566666Y-70755809D02*
X58528571Y-70679619D01*
X58528571Y-70679619D02*
X58490475Y-70527238D01*
X58490475Y-70527238D02*
X58490475Y-70412952D01*
X58490475Y-70412952D02*
X58528571Y-70260571D01*
X58528571Y-70260571D02*
X58566666Y-70184380D01*
X58566666Y-70184380D02*
X58642856Y-70108190D01*
X58642856Y-70108190D02*
X58757142Y-70070095D01*
X58757142Y-70070095D02*
X58833333Y-70070095D01*
X58833333Y-70070095D02*
X58947618Y-70108190D01*
X58947618Y-70108190D02*
X58985714Y-70146285D01*
X59290475Y-70146285D02*
X59328571Y-70108190D01*
X59328571Y-70108190D02*
X59404761Y-70070095D01*
X59404761Y-70070095D02*
X59595237Y-70070095D01*
X59595237Y-70070095D02*
X59671428Y-70108190D01*
X59671428Y-70108190D02*
X59709523Y-70146285D01*
X59709523Y-70146285D02*
X59747618Y-70222476D01*
X59747618Y-70222476D02*
X59747618Y-70298666D01*
X59747618Y-70298666D02*
X59709523Y-70412952D01*
X59709523Y-70412952D02*
X59252380Y-70870095D01*
X59252380Y-70870095D02*
X59747618Y-70870095D01*
X60471428Y-70070095D02*
X60090476Y-70070095D01*
X60090476Y-70070095D02*
X60052380Y-70451047D01*
X60052380Y-70451047D02*
X60090476Y-70412952D01*
X60090476Y-70412952D02*
X60166666Y-70374857D01*
X60166666Y-70374857D02*
X60357142Y-70374857D01*
X60357142Y-70374857D02*
X60433333Y-70412952D01*
X60433333Y-70412952D02*
X60471428Y-70451047D01*
X60471428Y-70451047D02*
X60509523Y-70527238D01*
X60509523Y-70527238D02*
X60509523Y-70717714D01*
X60509523Y-70717714D02*
X60471428Y-70793904D01*
X60471428Y-70793904D02*
X60433333Y-70832000D01*
X60433333Y-70832000D02*
X60357142Y-70870095D01*
X60357142Y-70870095D02*
X60166666Y-70870095D01*
X60166666Y-70870095D02*
X60090476Y-70832000D01*
X60090476Y-70832000D02*
X60052380Y-70793904D01*
%TO.C,C3*%
X93866667Y-78728904D02*
X93828571Y-78767000D01*
X93828571Y-78767000D02*
X93714286Y-78805095D01*
X93714286Y-78805095D02*
X93638095Y-78805095D01*
X93638095Y-78805095D02*
X93523809Y-78767000D01*
X93523809Y-78767000D02*
X93447619Y-78690809D01*
X93447619Y-78690809D02*
X93409524Y-78614619D01*
X93409524Y-78614619D02*
X93371428Y-78462238D01*
X93371428Y-78462238D02*
X93371428Y-78347952D01*
X93371428Y-78347952D02*
X93409524Y-78195571D01*
X93409524Y-78195571D02*
X93447619Y-78119380D01*
X93447619Y-78119380D02*
X93523809Y-78043190D01*
X93523809Y-78043190D02*
X93638095Y-78005095D01*
X93638095Y-78005095D02*
X93714286Y-78005095D01*
X93714286Y-78005095D02*
X93828571Y-78043190D01*
X93828571Y-78043190D02*
X93866667Y-78081285D01*
X94133333Y-78005095D02*
X94628571Y-78005095D01*
X94628571Y-78005095D02*
X94361905Y-78309857D01*
X94361905Y-78309857D02*
X94476190Y-78309857D01*
X94476190Y-78309857D02*
X94552381Y-78347952D01*
X94552381Y-78347952D02*
X94590476Y-78386047D01*
X94590476Y-78386047D02*
X94628571Y-78462238D01*
X94628571Y-78462238D02*
X94628571Y-78652714D01*
X94628571Y-78652714D02*
X94590476Y-78728904D01*
X94590476Y-78728904D02*
X94552381Y-78767000D01*
X94552381Y-78767000D02*
X94476190Y-78805095D01*
X94476190Y-78805095D02*
X94247619Y-78805095D01*
X94247619Y-78805095D02*
X94171428Y-78767000D01*
X94171428Y-78767000D02*
X94133333Y-78728904D01*
%TO.C,C13*%
X91035714Y-64478904D02*
X90997618Y-64517000D01*
X90997618Y-64517000D02*
X90883333Y-64555095D01*
X90883333Y-64555095D02*
X90807142Y-64555095D01*
X90807142Y-64555095D02*
X90692856Y-64517000D01*
X90692856Y-64517000D02*
X90616666Y-64440809D01*
X90616666Y-64440809D02*
X90578571Y-64364619D01*
X90578571Y-64364619D02*
X90540475Y-64212238D01*
X90540475Y-64212238D02*
X90540475Y-64097952D01*
X90540475Y-64097952D02*
X90578571Y-63945571D01*
X90578571Y-63945571D02*
X90616666Y-63869380D01*
X90616666Y-63869380D02*
X90692856Y-63793190D01*
X90692856Y-63793190D02*
X90807142Y-63755095D01*
X90807142Y-63755095D02*
X90883333Y-63755095D01*
X90883333Y-63755095D02*
X90997618Y-63793190D01*
X90997618Y-63793190D02*
X91035714Y-63831285D01*
X91797618Y-64555095D02*
X91340475Y-64555095D01*
X91569047Y-64555095D02*
X91569047Y-63755095D01*
X91569047Y-63755095D02*
X91492856Y-63869380D01*
X91492856Y-63869380D02*
X91416666Y-63945571D01*
X91416666Y-63945571D02*
X91340475Y-63983666D01*
X92064285Y-63755095D02*
X92559523Y-63755095D01*
X92559523Y-63755095D02*
X92292857Y-64059857D01*
X92292857Y-64059857D02*
X92407142Y-64059857D01*
X92407142Y-64059857D02*
X92483333Y-64097952D01*
X92483333Y-64097952D02*
X92521428Y-64136047D01*
X92521428Y-64136047D02*
X92559523Y-64212238D01*
X92559523Y-64212238D02*
X92559523Y-64402714D01*
X92559523Y-64402714D02*
X92521428Y-64478904D01*
X92521428Y-64478904D02*
X92483333Y-64517000D01*
X92483333Y-64517000D02*
X92407142Y-64555095D01*
X92407142Y-64555095D02*
X92178571Y-64555095D01*
X92178571Y-64555095D02*
X92102380Y-64517000D01*
X92102380Y-64517000D02*
X92064285Y-64478904D01*
%TO.C,D6*%
X114212619Y-58488094D02*
X113212619Y-58488094D01*
X113212619Y-58488094D02*
X113212619Y-58249999D01*
X113212619Y-58249999D02*
X113260238Y-58107142D01*
X113260238Y-58107142D02*
X113355476Y-58011904D01*
X113355476Y-58011904D02*
X113450714Y-57964285D01*
X113450714Y-57964285D02*
X113641190Y-57916666D01*
X113641190Y-57916666D02*
X113784047Y-57916666D01*
X113784047Y-57916666D02*
X113974523Y-57964285D01*
X113974523Y-57964285D02*
X114069761Y-58011904D01*
X114069761Y-58011904D02*
X114165000Y-58107142D01*
X114165000Y-58107142D02*
X114212619Y-58249999D01*
X114212619Y-58249999D02*
X114212619Y-58488094D01*
X113212619Y-57059523D02*
X113212619Y-57249999D01*
X113212619Y-57249999D02*
X113260238Y-57345237D01*
X113260238Y-57345237D02*
X113307857Y-57392856D01*
X113307857Y-57392856D02*
X113450714Y-57488094D01*
X113450714Y-57488094D02*
X113641190Y-57535713D01*
X113641190Y-57535713D02*
X114022142Y-57535713D01*
X114022142Y-57535713D02*
X114117380Y-57488094D01*
X114117380Y-57488094D02*
X114165000Y-57440475D01*
X114165000Y-57440475D02*
X114212619Y-57345237D01*
X114212619Y-57345237D02*
X114212619Y-57154761D01*
X114212619Y-57154761D02*
X114165000Y-57059523D01*
X114165000Y-57059523D02*
X114117380Y-57011904D01*
X114117380Y-57011904D02*
X114022142Y-56964285D01*
X114022142Y-56964285D02*
X113784047Y-56964285D01*
X113784047Y-56964285D02*
X113688809Y-57011904D01*
X113688809Y-57011904D02*
X113641190Y-57059523D01*
X113641190Y-57059523D02*
X113593571Y-57154761D01*
X113593571Y-57154761D02*
X113593571Y-57345237D01*
X113593571Y-57345237D02*
X113641190Y-57440475D01*
X113641190Y-57440475D02*
X113688809Y-57488094D01*
X113688809Y-57488094D02*
X113784047Y-57535713D01*
%TO.C,C7*%
X107866667Y-60043904D02*
X107828571Y-60082000D01*
X107828571Y-60082000D02*
X107714286Y-60120095D01*
X107714286Y-60120095D02*
X107638095Y-60120095D01*
X107638095Y-60120095D02*
X107523809Y-60082000D01*
X107523809Y-60082000D02*
X107447619Y-60005809D01*
X107447619Y-60005809D02*
X107409524Y-59929619D01*
X107409524Y-59929619D02*
X107371428Y-59777238D01*
X107371428Y-59777238D02*
X107371428Y-59662952D01*
X107371428Y-59662952D02*
X107409524Y-59510571D01*
X107409524Y-59510571D02*
X107447619Y-59434380D01*
X107447619Y-59434380D02*
X107523809Y-59358190D01*
X107523809Y-59358190D02*
X107638095Y-59320095D01*
X107638095Y-59320095D02*
X107714286Y-59320095D01*
X107714286Y-59320095D02*
X107828571Y-59358190D01*
X107828571Y-59358190D02*
X107866667Y-59396285D01*
X108133333Y-59320095D02*
X108666667Y-59320095D01*
X108666667Y-59320095D02*
X108323809Y-60120095D01*
%TO.C,C10*%
X83485714Y-69793904D02*
X83447618Y-69832000D01*
X83447618Y-69832000D02*
X83333333Y-69870095D01*
X83333333Y-69870095D02*
X83257142Y-69870095D01*
X83257142Y-69870095D02*
X83142856Y-69832000D01*
X83142856Y-69832000D02*
X83066666Y-69755809D01*
X83066666Y-69755809D02*
X83028571Y-69679619D01*
X83028571Y-69679619D02*
X82990475Y-69527238D01*
X82990475Y-69527238D02*
X82990475Y-69412952D01*
X82990475Y-69412952D02*
X83028571Y-69260571D01*
X83028571Y-69260571D02*
X83066666Y-69184380D01*
X83066666Y-69184380D02*
X83142856Y-69108190D01*
X83142856Y-69108190D02*
X83257142Y-69070095D01*
X83257142Y-69070095D02*
X83333333Y-69070095D01*
X83333333Y-69070095D02*
X83447618Y-69108190D01*
X83447618Y-69108190D02*
X83485714Y-69146285D01*
X84247618Y-69870095D02*
X83790475Y-69870095D01*
X84019047Y-69870095D02*
X84019047Y-69070095D01*
X84019047Y-69070095D02*
X83942856Y-69184380D01*
X83942856Y-69184380D02*
X83866666Y-69260571D01*
X83866666Y-69260571D02*
X83790475Y-69298666D01*
X84742857Y-69070095D02*
X84819047Y-69070095D01*
X84819047Y-69070095D02*
X84895238Y-69108190D01*
X84895238Y-69108190D02*
X84933333Y-69146285D01*
X84933333Y-69146285D02*
X84971428Y-69222476D01*
X84971428Y-69222476D02*
X85009523Y-69374857D01*
X85009523Y-69374857D02*
X85009523Y-69565333D01*
X85009523Y-69565333D02*
X84971428Y-69717714D01*
X84971428Y-69717714D02*
X84933333Y-69793904D01*
X84933333Y-69793904D02*
X84895238Y-69832000D01*
X84895238Y-69832000D02*
X84819047Y-69870095D01*
X84819047Y-69870095D02*
X84742857Y-69870095D01*
X84742857Y-69870095D02*
X84666666Y-69832000D01*
X84666666Y-69832000D02*
X84628571Y-69793904D01*
X84628571Y-69793904D02*
X84590476Y-69717714D01*
X84590476Y-69717714D02*
X84552380Y-69565333D01*
X84552380Y-69565333D02*
X84552380Y-69374857D01*
X84552380Y-69374857D02*
X84590476Y-69222476D01*
X84590476Y-69222476D02*
X84628571Y-69146285D01*
X84628571Y-69146285D02*
X84666666Y-69108190D01*
X84666666Y-69108190D02*
X84742857Y-69070095D01*
%TO.C,TH1*%
X83721428Y-63505095D02*
X84178571Y-63505095D01*
X83949999Y-64305095D02*
X83949999Y-63505095D01*
X84445238Y-64305095D02*
X84445238Y-63505095D01*
X84445238Y-63886047D02*
X84902381Y-63886047D01*
X84902381Y-64305095D02*
X84902381Y-63505095D01*
X85702380Y-64305095D02*
X85245237Y-64305095D01*
X85473809Y-64305095D02*
X85473809Y-63505095D01*
X85473809Y-63505095D02*
X85397618Y-63619380D01*
X85397618Y-63619380D02*
X85321428Y-63695571D01*
X85321428Y-63695571D02*
X85245237Y-63733666D01*
%TO.C,L2*%
X106866666Y-79555095D02*
X106485714Y-79555095D01*
X106485714Y-79555095D02*
X106485714Y-78755095D01*
X107095237Y-78831285D02*
X107133333Y-78793190D01*
X107133333Y-78793190D02*
X107209523Y-78755095D01*
X107209523Y-78755095D02*
X107399999Y-78755095D01*
X107399999Y-78755095D02*
X107476190Y-78793190D01*
X107476190Y-78793190D02*
X107514285Y-78831285D01*
X107514285Y-78831285D02*
X107552380Y-78907476D01*
X107552380Y-78907476D02*
X107552380Y-78983666D01*
X107552380Y-78983666D02*
X107514285Y-79097952D01*
X107514285Y-79097952D02*
X107057142Y-79555095D01*
X107057142Y-79555095D02*
X107552380Y-79555095D01*
%TO.C,C40*%
X94867380Y-92392857D02*
X94915000Y-92440476D01*
X94915000Y-92440476D02*
X94962619Y-92583333D01*
X94962619Y-92583333D02*
X94962619Y-92678571D01*
X94962619Y-92678571D02*
X94915000Y-92821428D01*
X94915000Y-92821428D02*
X94819761Y-92916666D01*
X94819761Y-92916666D02*
X94724523Y-92964285D01*
X94724523Y-92964285D02*
X94534047Y-93011904D01*
X94534047Y-93011904D02*
X94391190Y-93011904D01*
X94391190Y-93011904D02*
X94200714Y-92964285D01*
X94200714Y-92964285D02*
X94105476Y-92916666D01*
X94105476Y-92916666D02*
X94010238Y-92821428D01*
X94010238Y-92821428D02*
X93962619Y-92678571D01*
X93962619Y-92678571D02*
X93962619Y-92583333D01*
X93962619Y-92583333D02*
X94010238Y-92440476D01*
X94010238Y-92440476D02*
X94057857Y-92392857D01*
X94295952Y-91535714D02*
X94962619Y-91535714D01*
X93915000Y-91773809D02*
X94629285Y-92011904D01*
X94629285Y-92011904D02*
X94629285Y-91392857D01*
X93962619Y-90821428D02*
X93962619Y-90726190D01*
X93962619Y-90726190D02*
X94010238Y-90630952D01*
X94010238Y-90630952D02*
X94057857Y-90583333D01*
X94057857Y-90583333D02*
X94153095Y-90535714D01*
X94153095Y-90535714D02*
X94343571Y-90488095D01*
X94343571Y-90488095D02*
X94581666Y-90488095D01*
X94581666Y-90488095D02*
X94772142Y-90535714D01*
X94772142Y-90535714D02*
X94867380Y-90583333D01*
X94867380Y-90583333D02*
X94915000Y-90630952D01*
X94915000Y-90630952D02*
X94962619Y-90726190D01*
X94962619Y-90726190D02*
X94962619Y-90821428D01*
X94962619Y-90821428D02*
X94915000Y-90916666D01*
X94915000Y-90916666D02*
X94867380Y-90964285D01*
X94867380Y-90964285D02*
X94772142Y-91011904D01*
X94772142Y-91011904D02*
X94581666Y-91059523D01*
X94581666Y-91059523D02*
X94343571Y-91059523D01*
X94343571Y-91059523D02*
X94153095Y-91011904D01*
X94153095Y-91011904D02*
X94057857Y-90964285D01*
X94057857Y-90964285D02*
X94010238Y-90916666D01*
X94010238Y-90916666D02*
X93962619Y-90821428D01*
%TO.C,C1*%
X115866667Y-59043904D02*
X115828571Y-59082000D01*
X115828571Y-59082000D02*
X115714286Y-59120095D01*
X115714286Y-59120095D02*
X115638095Y-59120095D01*
X115638095Y-59120095D02*
X115523809Y-59082000D01*
X115523809Y-59082000D02*
X115447619Y-59005809D01*
X115447619Y-59005809D02*
X115409524Y-58929619D01*
X115409524Y-58929619D02*
X115371428Y-58777238D01*
X115371428Y-58777238D02*
X115371428Y-58662952D01*
X115371428Y-58662952D02*
X115409524Y-58510571D01*
X115409524Y-58510571D02*
X115447619Y-58434380D01*
X115447619Y-58434380D02*
X115523809Y-58358190D01*
X115523809Y-58358190D02*
X115638095Y-58320095D01*
X115638095Y-58320095D02*
X115714286Y-58320095D01*
X115714286Y-58320095D02*
X115828571Y-58358190D01*
X115828571Y-58358190D02*
X115866667Y-58396285D01*
X116628571Y-59120095D02*
X116171428Y-59120095D01*
X116400000Y-59120095D02*
X116400000Y-58320095D01*
X116400000Y-58320095D02*
X116323809Y-58434380D01*
X116323809Y-58434380D02*
X116247619Y-58510571D01*
X116247619Y-58510571D02*
X116171428Y-58548666D01*
%TO.C,L1*%
X102866666Y-60055095D02*
X102485714Y-60055095D01*
X102485714Y-60055095D02*
X102485714Y-59255095D01*
X103552380Y-60055095D02*
X103095237Y-60055095D01*
X103323809Y-60055095D02*
X103323809Y-59255095D01*
X103323809Y-59255095D02*
X103247618Y-59369380D01*
X103247618Y-59369380D02*
X103171428Y-59445571D01*
X103171428Y-59445571D02*
X103095237Y-59483666D01*
%TO.C,Y1*%
X54136428Y-67726190D02*
X54612619Y-67726190D01*
X53612619Y-68059523D02*
X54136428Y-67726190D01*
X54136428Y-67726190D02*
X53612619Y-67392857D01*
X54612619Y-66535714D02*
X54612619Y-67107142D01*
X54612619Y-66821428D02*
X53612619Y-66821428D01*
X53612619Y-66821428D02*
X53755476Y-66916666D01*
X53755476Y-66916666D02*
X53850714Y-67011904D01*
X53850714Y-67011904D02*
X53898333Y-67107142D01*
%TO.C,R5*%
X60366667Y-67870095D02*
X60100000Y-67489142D01*
X59909524Y-67870095D02*
X59909524Y-67070095D01*
X59909524Y-67070095D02*
X60214286Y-67070095D01*
X60214286Y-67070095D02*
X60290476Y-67108190D01*
X60290476Y-67108190D02*
X60328571Y-67146285D01*
X60328571Y-67146285D02*
X60366667Y-67222476D01*
X60366667Y-67222476D02*
X60366667Y-67336761D01*
X60366667Y-67336761D02*
X60328571Y-67412952D01*
X60328571Y-67412952D02*
X60290476Y-67451047D01*
X60290476Y-67451047D02*
X60214286Y-67489142D01*
X60214286Y-67489142D02*
X59909524Y-67489142D01*
X61090476Y-67070095D02*
X60709524Y-67070095D01*
X60709524Y-67070095D02*
X60671428Y-67451047D01*
X60671428Y-67451047D02*
X60709524Y-67412952D01*
X60709524Y-67412952D02*
X60785714Y-67374857D01*
X60785714Y-67374857D02*
X60976190Y-67374857D01*
X60976190Y-67374857D02*
X61052381Y-67412952D01*
X61052381Y-67412952D02*
X61090476Y-67451047D01*
X61090476Y-67451047D02*
X61128571Y-67527238D01*
X61128571Y-67527238D02*
X61128571Y-67717714D01*
X61128571Y-67717714D02*
X61090476Y-67793904D01*
X61090476Y-67793904D02*
X61052381Y-67832000D01*
X61052381Y-67832000D02*
X60976190Y-67870095D01*
X60976190Y-67870095D02*
X60785714Y-67870095D01*
X60785714Y-67870095D02*
X60709524Y-67832000D01*
X60709524Y-67832000D02*
X60671428Y-67793904D01*
%TO.C,R14*%
X76962619Y-58967857D02*
X76486428Y-59301190D01*
X76962619Y-59539285D02*
X75962619Y-59539285D01*
X75962619Y-59539285D02*
X75962619Y-59158333D01*
X75962619Y-59158333D02*
X76010238Y-59063095D01*
X76010238Y-59063095D02*
X76057857Y-59015476D01*
X76057857Y-59015476D02*
X76153095Y-58967857D01*
X76153095Y-58967857D02*
X76295952Y-58967857D01*
X76295952Y-58967857D02*
X76391190Y-59015476D01*
X76391190Y-59015476D02*
X76438809Y-59063095D01*
X76438809Y-59063095D02*
X76486428Y-59158333D01*
X76486428Y-59158333D02*
X76486428Y-59539285D01*
X76962619Y-58015476D02*
X76962619Y-58586904D01*
X76962619Y-58301190D02*
X75962619Y-58301190D01*
X75962619Y-58301190D02*
X76105476Y-58396428D01*
X76105476Y-58396428D02*
X76200714Y-58491666D01*
X76200714Y-58491666D02*
X76248333Y-58586904D01*
X76295952Y-57158333D02*
X76962619Y-57158333D01*
X75915000Y-57396428D02*
X76629285Y-57634523D01*
X76629285Y-57634523D02*
X76629285Y-57015476D01*
%TO.C,U5*%
X83538095Y-55462619D02*
X83538095Y-56272142D01*
X83538095Y-56272142D02*
X83585714Y-56367380D01*
X83585714Y-56367380D02*
X83633333Y-56415000D01*
X83633333Y-56415000D02*
X83728571Y-56462619D01*
X83728571Y-56462619D02*
X83919047Y-56462619D01*
X83919047Y-56462619D02*
X84014285Y-56415000D01*
X84014285Y-56415000D02*
X84061904Y-56367380D01*
X84061904Y-56367380D02*
X84109523Y-56272142D01*
X84109523Y-56272142D02*
X84109523Y-55462619D01*
X85061904Y-55462619D02*
X84585714Y-55462619D01*
X84585714Y-55462619D02*
X84538095Y-55938809D01*
X84538095Y-55938809D02*
X84585714Y-55891190D01*
X84585714Y-55891190D02*
X84680952Y-55843571D01*
X84680952Y-55843571D02*
X84919047Y-55843571D01*
X84919047Y-55843571D02*
X85014285Y-55891190D01*
X85014285Y-55891190D02*
X85061904Y-55938809D01*
X85061904Y-55938809D02*
X85109523Y-56034047D01*
X85109523Y-56034047D02*
X85109523Y-56272142D01*
X85109523Y-56272142D02*
X85061904Y-56367380D01*
X85061904Y-56367380D02*
X85014285Y-56415000D01*
X85014285Y-56415000D02*
X84919047Y-56462619D01*
X84919047Y-56462619D02*
X84680952Y-56462619D01*
X84680952Y-56462619D02*
X84585714Y-56415000D01*
X84585714Y-56415000D02*
X84538095Y-56367380D01*
%TO.C,J3*%
X94376666Y-51987619D02*
X94376666Y-52701904D01*
X94376666Y-52701904D02*
X94329047Y-52844761D01*
X94329047Y-52844761D02*
X94233809Y-52940000D01*
X94233809Y-52940000D02*
X94090952Y-52987619D01*
X94090952Y-52987619D02*
X93995714Y-52987619D01*
X94757619Y-51987619D02*
X95376666Y-51987619D01*
X95376666Y-51987619D02*
X95043333Y-52368571D01*
X95043333Y-52368571D02*
X95186190Y-52368571D01*
X95186190Y-52368571D02*
X95281428Y-52416190D01*
X95281428Y-52416190D02*
X95329047Y-52463809D01*
X95329047Y-52463809D02*
X95376666Y-52559047D01*
X95376666Y-52559047D02*
X95376666Y-52797142D01*
X95376666Y-52797142D02*
X95329047Y-52892380D01*
X95329047Y-52892380D02*
X95281428Y-52940000D01*
X95281428Y-52940000D02*
X95186190Y-52987619D01*
X95186190Y-52987619D02*
X94900476Y-52987619D01*
X94900476Y-52987619D02*
X94805238Y-52940000D01*
X94805238Y-52940000D02*
X94757619Y-52892380D01*
X97305237Y-51562380D02*
X97305237Y-50752857D01*
X97305237Y-50752857D02*
X97257618Y-50657619D01*
X97257618Y-50657619D02*
X97209999Y-50610000D01*
X97209999Y-50610000D02*
X97114761Y-50562380D01*
X97114761Y-50562380D02*
X96924285Y-50562380D01*
X96924285Y-50562380D02*
X96829047Y-50610000D01*
X96829047Y-50610000D02*
X96781428Y-50657619D01*
X96781428Y-50657619D02*
X96733809Y-50752857D01*
X96733809Y-50752857D02*
X96733809Y-51562380D01*
X96305237Y-50848095D02*
X95829047Y-50848095D01*
X96400475Y-50562380D02*
X96067142Y-51562380D01*
X96067142Y-51562380D02*
X95733809Y-50562380D01*
X94829047Y-50562380D02*
X95162380Y-51038571D01*
X95400475Y-50562380D02*
X95400475Y-51562380D01*
X95400475Y-51562380D02*
X95019523Y-51562380D01*
X95019523Y-51562380D02*
X94924285Y-51514761D01*
X94924285Y-51514761D02*
X94876666Y-51467142D01*
X94876666Y-51467142D02*
X94829047Y-51371904D01*
X94829047Y-51371904D02*
X94829047Y-51229047D01*
X94829047Y-51229047D02*
X94876666Y-51133809D01*
X94876666Y-51133809D02*
X94924285Y-51086190D01*
X94924285Y-51086190D02*
X95019523Y-51038571D01*
X95019523Y-51038571D02*
X95400475Y-51038571D01*
X94543332Y-51562380D02*
X93971904Y-51562380D01*
X94257618Y-50562380D02*
X94257618Y-51562380D01*
%TO.C,C15*%
X107485714Y-73293904D02*
X107447618Y-73332000D01*
X107447618Y-73332000D02*
X107333333Y-73370095D01*
X107333333Y-73370095D02*
X107257142Y-73370095D01*
X107257142Y-73370095D02*
X107142856Y-73332000D01*
X107142856Y-73332000D02*
X107066666Y-73255809D01*
X107066666Y-73255809D02*
X107028571Y-73179619D01*
X107028571Y-73179619D02*
X106990475Y-73027238D01*
X106990475Y-73027238D02*
X106990475Y-72912952D01*
X106990475Y-72912952D02*
X107028571Y-72760571D01*
X107028571Y-72760571D02*
X107066666Y-72684380D01*
X107066666Y-72684380D02*
X107142856Y-72608190D01*
X107142856Y-72608190D02*
X107257142Y-72570095D01*
X107257142Y-72570095D02*
X107333333Y-72570095D01*
X107333333Y-72570095D02*
X107447618Y-72608190D01*
X107447618Y-72608190D02*
X107485714Y-72646285D01*
X108247618Y-73370095D02*
X107790475Y-73370095D01*
X108019047Y-73370095D02*
X108019047Y-72570095D01*
X108019047Y-72570095D02*
X107942856Y-72684380D01*
X107942856Y-72684380D02*
X107866666Y-72760571D01*
X107866666Y-72760571D02*
X107790475Y-72798666D01*
X108971428Y-72570095D02*
X108590476Y-72570095D01*
X108590476Y-72570095D02*
X108552380Y-72951047D01*
X108552380Y-72951047D02*
X108590476Y-72912952D01*
X108590476Y-72912952D02*
X108666666Y-72874857D01*
X108666666Y-72874857D02*
X108857142Y-72874857D01*
X108857142Y-72874857D02*
X108933333Y-72912952D01*
X108933333Y-72912952D02*
X108971428Y-72951047D01*
X108971428Y-72951047D02*
X109009523Y-73027238D01*
X109009523Y-73027238D02*
X109009523Y-73217714D01*
X109009523Y-73217714D02*
X108971428Y-73293904D01*
X108971428Y-73293904D02*
X108933333Y-73332000D01*
X108933333Y-73332000D02*
X108857142Y-73370095D01*
X108857142Y-73370095D02*
X108666666Y-73370095D01*
X108666666Y-73370095D02*
X108590476Y-73332000D01*
X108590476Y-73332000D02*
X108552380Y-73293904D01*
%TO.C,C18*%
X112735714Y-76793904D02*
X112697618Y-76832000D01*
X112697618Y-76832000D02*
X112583333Y-76870095D01*
X112583333Y-76870095D02*
X112507142Y-76870095D01*
X112507142Y-76870095D02*
X112392856Y-76832000D01*
X112392856Y-76832000D02*
X112316666Y-76755809D01*
X112316666Y-76755809D02*
X112278571Y-76679619D01*
X112278571Y-76679619D02*
X112240475Y-76527238D01*
X112240475Y-76527238D02*
X112240475Y-76412952D01*
X112240475Y-76412952D02*
X112278571Y-76260571D01*
X112278571Y-76260571D02*
X112316666Y-76184380D01*
X112316666Y-76184380D02*
X112392856Y-76108190D01*
X112392856Y-76108190D02*
X112507142Y-76070095D01*
X112507142Y-76070095D02*
X112583333Y-76070095D01*
X112583333Y-76070095D02*
X112697618Y-76108190D01*
X112697618Y-76108190D02*
X112735714Y-76146285D01*
X113497618Y-76870095D02*
X113040475Y-76870095D01*
X113269047Y-76870095D02*
X113269047Y-76070095D01*
X113269047Y-76070095D02*
X113192856Y-76184380D01*
X113192856Y-76184380D02*
X113116666Y-76260571D01*
X113116666Y-76260571D02*
X113040475Y-76298666D01*
X113954761Y-76412952D02*
X113878571Y-76374857D01*
X113878571Y-76374857D02*
X113840476Y-76336761D01*
X113840476Y-76336761D02*
X113802380Y-76260571D01*
X113802380Y-76260571D02*
X113802380Y-76222476D01*
X113802380Y-76222476D02*
X113840476Y-76146285D01*
X113840476Y-76146285D02*
X113878571Y-76108190D01*
X113878571Y-76108190D02*
X113954761Y-76070095D01*
X113954761Y-76070095D02*
X114107142Y-76070095D01*
X114107142Y-76070095D02*
X114183333Y-76108190D01*
X114183333Y-76108190D02*
X114221428Y-76146285D01*
X114221428Y-76146285D02*
X114259523Y-76222476D01*
X114259523Y-76222476D02*
X114259523Y-76260571D01*
X114259523Y-76260571D02*
X114221428Y-76336761D01*
X114221428Y-76336761D02*
X114183333Y-76374857D01*
X114183333Y-76374857D02*
X114107142Y-76412952D01*
X114107142Y-76412952D02*
X113954761Y-76412952D01*
X113954761Y-76412952D02*
X113878571Y-76451047D01*
X113878571Y-76451047D02*
X113840476Y-76489142D01*
X113840476Y-76489142D02*
X113802380Y-76565333D01*
X113802380Y-76565333D02*
X113802380Y-76717714D01*
X113802380Y-76717714D02*
X113840476Y-76793904D01*
X113840476Y-76793904D02*
X113878571Y-76832000D01*
X113878571Y-76832000D02*
X113954761Y-76870095D01*
X113954761Y-76870095D02*
X114107142Y-76870095D01*
X114107142Y-76870095D02*
X114183333Y-76832000D01*
X114183333Y-76832000D02*
X114221428Y-76793904D01*
X114221428Y-76793904D02*
X114259523Y-76717714D01*
X114259523Y-76717714D02*
X114259523Y-76565333D01*
X114259523Y-76565333D02*
X114221428Y-76489142D01*
X114221428Y-76489142D02*
X114183333Y-76451047D01*
X114183333Y-76451047D02*
X114107142Y-76412952D01*
%TO.C,TP3*%
X93965476Y-57440333D02*
X94575000Y-57440333D01*
X94270238Y-57745095D02*
X94270238Y-57135571D01*
X95374999Y-57745095D02*
X94917856Y-57745095D01*
X95146428Y-57745095D02*
X95146428Y-56945095D01*
X95146428Y-56945095D02*
X95070237Y-57059380D01*
X95070237Y-57059380D02*
X94994047Y-57135571D01*
X94994047Y-57135571D02*
X94917856Y-57173666D01*
X96098809Y-56945095D02*
X95717857Y-56945095D01*
X95717857Y-56945095D02*
X95679761Y-57326047D01*
X95679761Y-57326047D02*
X95717857Y-57287952D01*
X95717857Y-57287952D02*
X95794047Y-57249857D01*
X95794047Y-57249857D02*
X95984523Y-57249857D01*
X95984523Y-57249857D02*
X96060714Y-57287952D01*
X96060714Y-57287952D02*
X96098809Y-57326047D01*
X96098809Y-57326047D02*
X96136904Y-57402238D01*
X96136904Y-57402238D02*
X96136904Y-57592714D01*
X96136904Y-57592714D02*
X96098809Y-57668904D01*
X96098809Y-57668904D02*
X96060714Y-57707000D01*
X96060714Y-57707000D02*
X95984523Y-57745095D01*
X95984523Y-57745095D02*
X95794047Y-57745095D01*
X95794047Y-57745095D02*
X95717857Y-57707000D01*
X95717857Y-57707000D02*
X95679761Y-57668904D01*
X96365476Y-56945095D02*
X96632143Y-57745095D01*
X96632143Y-57745095D02*
X96898809Y-56945095D01*
%TO.C,R8*%
X113305419Y-68370095D02*
X113038752Y-67989142D01*
X112848276Y-68370095D02*
X112848276Y-67570095D01*
X112848276Y-67570095D02*
X113153038Y-67570095D01*
X113153038Y-67570095D02*
X113229228Y-67608190D01*
X113229228Y-67608190D02*
X113267323Y-67646285D01*
X113267323Y-67646285D02*
X113305419Y-67722476D01*
X113305419Y-67722476D02*
X113305419Y-67836761D01*
X113305419Y-67836761D02*
X113267323Y-67912952D01*
X113267323Y-67912952D02*
X113229228Y-67951047D01*
X113229228Y-67951047D02*
X113153038Y-67989142D01*
X113153038Y-67989142D02*
X112848276Y-67989142D01*
X113762561Y-67912952D02*
X113686371Y-67874857D01*
X113686371Y-67874857D02*
X113648276Y-67836761D01*
X113648276Y-67836761D02*
X113610180Y-67760571D01*
X113610180Y-67760571D02*
X113610180Y-67722476D01*
X113610180Y-67722476D02*
X113648276Y-67646285D01*
X113648276Y-67646285D02*
X113686371Y-67608190D01*
X113686371Y-67608190D02*
X113762561Y-67570095D01*
X113762561Y-67570095D02*
X113914942Y-67570095D01*
X113914942Y-67570095D02*
X113991133Y-67608190D01*
X113991133Y-67608190D02*
X114029228Y-67646285D01*
X114029228Y-67646285D02*
X114067323Y-67722476D01*
X114067323Y-67722476D02*
X114067323Y-67760571D01*
X114067323Y-67760571D02*
X114029228Y-67836761D01*
X114029228Y-67836761D02*
X113991133Y-67874857D01*
X113991133Y-67874857D02*
X113914942Y-67912952D01*
X113914942Y-67912952D02*
X113762561Y-67912952D01*
X113762561Y-67912952D02*
X113686371Y-67951047D01*
X113686371Y-67951047D02*
X113648276Y-67989142D01*
X113648276Y-67989142D02*
X113610180Y-68065333D01*
X113610180Y-68065333D02*
X113610180Y-68217714D01*
X113610180Y-68217714D02*
X113648276Y-68293904D01*
X113648276Y-68293904D02*
X113686371Y-68332000D01*
X113686371Y-68332000D02*
X113762561Y-68370095D01*
X113762561Y-68370095D02*
X113914942Y-68370095D01*
X113914942Y-68370095D02*
X113991133Y-68332000D01*
X113991133Y-68332000D02*
X114029228Y-68293904D01*
X114029228Y-68293904D02*
X114067323Y-68217714D01*
X114067323Y-68217714D02*
X114067323Y-68065333D01*
X114067323Y-68065333D02*
X114029228Y-67989142D01*
X114029228Y-67989142D02*
X113991133Y-67951047D01*
X113991133Y-67951047D02*
X113914942Y-67912952D01*
%TO.C,C19*%
X115735714Y-68793904D02*
X115697618Y-68832000D01*
X115697618Y-68832000D02*
X115583333Y-68870095D01*
X115583333Y-68870095D02*
X115507142Y-68870095D01*
X115507142Y-68870095D02*
X115392856Y-68832000D01*
X115392856Y-68832000D02*
X115316666Y-68755809D01*
X115316666Y-68755809D02*
X115278571Y-68679619D01*
X115278571Y-68679619D02*
X115240475Y-68527238D01*
X115240475Y-68527238D02*
X115240475Y-68412952D01*
X115240475Y-68412952D02*
X115278571Y-68260571D01*
X115278571Y-68260571D02*
X115316666Y-68184380D01*
X115316666Y-68184380D02*
X115392856Y-68108190D01*
X115392856Y-68108190D02*
X115507142Y-68070095D01*
X115507142Y-68070095D02*
X115583333Y-68070095D01*
X115583333Y-68070095D02*
X115697618Y-68108190D01*
X115697618Y-68108190D02*
X115735714Y-68146285D01*
X116497618Y-68870095D02*
X116040475Y-68870095D01*
X116269047Y-68870095D02*
X116269047Y-68070095D01*
X116269047Y-68070095D02*
X116192856Y-68184380D01*
X116192856Y-68184380D02*
X116116666Y-68260571D01*
X116116666Y-68260571D02*
X116040475Y-68298666D01*
X116878571Y-68870095D02*
X117030952Y-68870095D01*
X117030952Y-68870095D02*
X117107142Y-68832000D01*
X117107142Y-68832000D02*
X117145238Y-68793904D01*
X117145238Y-68793904D02*
X117221428Y-68679619D01*
X117221428Y-68679619D02*
X117259523Y-68527238D01*
X117259523Y-68527238D02*
X117259523Y-68222476D01*
X117259523Y-68222476D02*
X117221428Y-68146285D01*
X117221428Y-68146285D02*
X117183333Y-68108190D01*
X117183333Y-68108190D02*
X117107142Y-68070095D01*
X117107142Y-68070095D02*
X116954761Y-68070095D01*
X116954761Y-68070095D02*
X116878571Y-68108190D01*
X116878571Y-68108190D02*
X116840476Y-68146285D01*
X116840476Y-68146285D02*
X116802380Y-68222476D01*
X116802380Y-68222476D02*
X116802380Y-68412952D01*
X116802380Y-68412952D02*
X116840476Y-68489142D01*
X116840476Y-68489142D02*
X116878571Y-68527238D01*
X116878571Y-68527238D02*
X116954761Y-68565333D01*
X116954761Y-68565333D02*
X117107142Y-68565333D01*
X117107142Y-68565333D02*
X117183333Y-68527238D01*
X117183333Y-68527238D02*
X117221428Y-68489142D01*
X117221428Y-68489142D02*
X117259523Y-68412952D01*
%TO.C,U2*%
X67238095Y-67962619D02*
X67238095Y-68772142D01*
X67238095Y-68772142D02*
X67285714Y-68867380D01*
X67285714Y-68867380D02*
X67333333Y-68915000D01*
X67333333Y-68915000D02*
X67428571Y-68962619D01*
X67428571Y-68962619D02*
X67619047Y-68962619D01*
X67619047Y-68962619D02*
X67714285Y-68915000D01*
X67714285Y-68915000D02*
X67761904Y-68867380D01*
X67761904Y-68867380D02*
X67809523Y-68772142D01*
X67809523Y-68772142D02*
X67809523Y-67962619D01*
X68238095Y-68057857D02*
X68285714Y-68010238D01*
X68285714Y-68010238D02*
X68380952Y-67962619D01*
X68380952Y-67962619D02*
X68619047Y-67962619D01*
X68619047Y-67962619D02*
X68714285Y-68010238D01*
X68714285Y-68010238D02*
X68761904Y-68057857D01*
X68761904Y-68057857D02*
X68809523Y-68153095D01*
X68809523Y-68153095D02*
X68809523Y-68248333D01*
X68809523Y-68248333D02*
X68761904Y-68391190D01*
X68761904Y-68391190D02*
X68190476Y-68962619D01*
X68190476Y-68962619D02*
X68809523Y-68962619D01*
%TO.C,FB1*%
X57083333Y-75951047D02*
X56816667Y-75951047D01*
X56816667Y-76370095D02*
X56816667Y-75570095D01*
X56816667Y-75570095D02*
X57197619Y-75570095D01*
X57769047Y-75951047D02*
X57883333Y-75989142D01*
X57883333Y-75989142D02*
X57921428Y-76027238D01*
X57921428Y-76027238D02*
X57959524Y-76103428D01*
X57959524Y-76103428D02*
X57959524Y-76217714D01*
X57959524Y-76217714D02*
X57921428Y-76293904D01*
X57921428Y-76293904D02*
X57883333Y-76332000D01*
X57883333Y-76332000D02*
X57807143Y-76370095D01*
X57807143Y-76370095D02*
X57502381Y-76370095D01*
X57502381Y-76370095D02*
X57502381Y-75570095D01*
X57502381Y-75570095D02*
X57769047Y-75570095D01*
X57769047Y-75570095D02*
X57845238Y-75608190D01*
X57845238Y-75608190D02*
X57883333Y-75646285D01*
X57883333Y-75646285D02*
X57921428Y-75722476D01*
X57921428Y-75722476D02*
X57921428Y-75798666D01*
X57921428Y-75798666D02*
X57883333Y-75874857D01*
X57883333Y-75874857D02*
X57845238Y-75912952D01*
X57845238Y-75912952D02*
X57769047Y-75951047D01*
X57769047Y-75951047D02*
X57502381Y-75951047D01*
X58721428Y-76370095D02*
X58264285Y-76370095D01*
X58492857Y-76370095D02*
X58492857Y-75570095D01*
X58492857Y-75570095D02*
X58416666Y-75684380D01*
X58416666Y-75684380D02*
X58340476Y-75760571D01*
X58340476Y-75760571D02*
X58264285Y-75798666D01*
%TO.C,C21*%
X73857142Y-75367380D02*
X73809523Y-75415000D01*
X73809523Y-75415000D02*
X73666666Y-75462619D01*
X73666666Y-75462619D02*
X73571428Y-75462619D01*
X73571428Y-75462619D02*
X73428571Y-75415000D01*
X73428571Y-75415000D02*
X73333333Y-75319761D01*
X73333333Y-75319761D02*
X73285714Y-75224523D01*
X73285714Y-75224523D02*
X73238095Y-75034047D01*
X73238095Y-75034047D02*
X73238095Y-74891190D01*
X73238095Y-74891190D02*
X73285714Y-74700714D01*
X73285714Y-74700714D02*
X73333333Y-74605476D01*
X73333333Y-74605476D02*
X73428571Y-74510238D01*
X73428571Y-74510238D02*
X73571428Y-74462619D01*
X73571428Y-74462619D02*
X73666666Y-74462619D01*
X73666666Y-74462619D02*
X73809523Y-74510238D01*
X73809523Y-74510238D02*
X73857142Y-74557857D01*
X74238095Y-74557857D02*
X74285714Y-74510238D01*
X74285714Y-74510238D02*
X74380952Y-74462619D01*
X74380952Y-74462619D02*
X74619047Y-74462619D01*
X74619047Y-74462619D02*
X74714285Y-74510238D01*
X74714285Y-74510238D02*
X74761904Y-74557857D01*
X74761904Y-74557857D02*
X74809523Y-74653095D01*
X74809523Y-74653095D02*
X74809523Y-74748333D01*
X74809523Y-74748333D02*
X74761904Y-74891190D01*
X74761904Y-74891190D02*
X74190476Y-75462619D01*
X74190476Y-75462619D02*
X74809523Y-75462619D01*
X75761904Y-75462619D02*
X75190476Y-75462619D01*
X75476190Y-75462619D02*
X75476190Y-74462619D01*
X75476190Y-74462619D02*
X75380952Y-74605476D01*
X75380952Y-74605476D02*
X75285714Y-74700714D01*
X75285714Y-74700714D02*
X75190476Y-74748333D01*
%TO.C,R9*%
X108972919Y-66805095D02*
X108706252Y-66424142D01*
X108515776Y-66805095D02*
X108515776Y-66005095D01*
X108515776Y-66005095D02*
X108820538Y-66005095D01*
X108820538Y-66005095D02*
X108896728Y-66043190D01*
X108896728Y-66043190D02*
X108934823Y-66081285D01*
X108934823Y-66081285D02*
X108972919Y-66157476D01*
X108972919Y-66157476D02*
X108972919Y-66271761D01*
X108972919Y-66271761D02*
X108934823Y-66347952D01*
X108934823Y-66347952D02*
X108896728Y-66386047D01*
X108896728Y-66386047D02*
X108820538Y-66424142D01*
X108820538Y-66424142D02*
X108515776Y-66424142D01*
X109353871Y-66805095D02*
X109506252Y-66805095D01*
X109506252Y-66805095D02*
X109582442Y-66767000D01*
X109582442Y-66767000D02*
X109620538Y-66728904D01*
X109620538Y-66728904D02*
X109696728Y-66614619D01*
X109696728Y-66614619D02*
X109734823Y-66462238D01*
X109734823Y-66462238D02*
X109734823Y-66157476D01*
X109734823Y-66157476D02*
X109696728Y-66081285D01*
X109696728Y-66081285D02*
X109658633Y-66043190D01*
X109658633Y-66043190D02*
X109582442Y-66005095D01*
X109582442Y-66005095D02*
X109430061Y-66005095D01*
X109430061Y-66005095D02*
X109353871Y-66043190D01*
X109353871Y-66043190D02*
X109315776Y-66081285D01*
X109315776Y-66081285D02*
X109277680Y-66157476D01*
X109277680Y-66157476D02*
X109277680Y-66347952D01*
X109277680Y-66347952D02*
X109315776Y-66424142D01*
X109315776Y-66424142D02*
X109353871Y-66462238D01*
X109353871Y-66462238D02*
X109430061Y-66500333D01*
X109430061Y-66500333D02*
X109582442Y-66500333D01*
X109582442Y-66500333D02*
X109658633Y-66462238D01*
X109658633Y-66462238D02*
X109696728Y-66424142D01*
X109696728Y-66424142D02*
X109734823Y-66347952D01*
%TO.C,C30*%
X52485714Y-71793904D02*
X52447618Y-71832000D01*
X52447618Y-71832000D02*
X52333333Y-71870095D01*
X52333333Y-71870095D02*
X52257142Y-71870095D01*
X52257142Y-71870095D02*
X52142856Y-71832000D01*
X52142856Y-71832000D02*
X52066666Y-71755809D01*
X52066666Y-71755809D02*
X52028571Y-71679619D01*
X52028571Y-71679619D02*
X51990475Y-71527238D01*
X51990475Y-71527238D02*
X51990475Y-71412952D01*
X51990475Y-71412952D02*
X52028571Y-71260571D01*
X52028571Y-71260571D02*
X52066666Y-71184380D01*
X52066666Y-71184380D02*
X52142856Y-71108190D01*
X52142856Y-71108190D02*
X52257142Y-71070095D01*
X52257142Y-71070095D02*
X52333333Y-71070095D01*
X52333333Y-71070095D02*
X52447618Y-71108190D01*
X52447618Y-71108190D02*
X52485714Y-71146285D01*
X52752380Y-71070095D02*
X53247618Y-71070095D01*
X53247618Y-71070095D02*
X52980952Y-71374857D01*
X52980952Y-71374857D02*
X53095237Y-71374857D01*
X53095237Y-71374857D02*
X53171428Y-71412952D01*
X53171428Y-71412952D02*
X53209523Y-71451047D01*
X53209523Y-71451047D02*
X53247618Y-71527238D01*
X53247618Y-71527238D02*
X53247618Y-71717714D01*
X53247618Y-71717714D02*
X53209523Y-71793904D01*
X53209523Y-71793904D02*
X53171428Y-71832000D01*
X53171428Y-71832000D02*
X53095237Y-71870095D01*
X53095237Y-71870095D02*
X52866666Y-71870095D01*
X52866666Y-71870095D02*
X52790475Y-71832000D01*
X52790475Y-71832000D02*
X52752380Y-71793904D01*
X53742857Y-71070095D02*
X53819047Y-71070095D01*
X53819047Y-71070095D02*
X53895238Y-71108190D01*
X53895238Y-71108190D02*
X53933333Y-71146285D01*
X53933333Y-71146285D02*
X53971428Y-71222476D01*
X53971428Y-71222476D02*
X54009523Y-71374857D01*
X54009523Y-71374857D02*
X54009523Y-71565333D01*
X54009523Y-71565333D02*
X53971428Y-71717714D01*
X53971428Y-71717714D02*
X53933333Y-71793904D01*
X53933333Y-71793904D02*
X53895238Y-71832000D01*
X53895238Y-71832000D02*
X53819047Y-71870095D01*
X53819047Y-71870095D02*
X53742857Y-71870095D01*
X53742857Y-71870095D02*
X53666666Y-71832000D01*
X53666666Y-71832000D02*
X53628571Y-71793904D01*
X53628571Y-71793904D02*
X53590476Y-71717714D01*
X53590476Y-71717714D02*
X53552380Y-71565333D01*
X53552380Y-71565333D02*
X53552380Y-71374857D01*
X53552380Y-71374857D02*
X53590476Y-71222476D01*
X53590476Y-71222476D02*
X53628571Y-71146285D01*
X53628571Y-71146285D02*
X53666666Y-71108190D01*
X53666666Y-71108190D02*
X53742857Y-71070095D01*
%TO.C,D1*%
X116212619Y-73738094D02*
X115212619Y-73738094D01*
X115212619Y-73738094D02*
X115212619Y-73499999D01*
X115212619Y-73499999D02*
X115260238Y-73357142D01*
X115260238Y-73357142D02*
X115355476Y-73261904D01*
X115355476Y-73261904D02*
X115450714Y-73214285D01*
X115450714Y-73214285D02*
X115641190Y-73166666D01*
X115641190Y-73166666D02*
X115784047Y-73166666D01*
X115784047Y-73166666D02*
X115974523Y-73214285D01*
X115974523Y-73214285D02*
X116069761Y-73261904D01*
X116069761Y-73261904D02*
X116165000Y-73357142D01*
X116165000Y-73357142D02*
X116212619Y-73499999D01*
X116212619Y-73499999D02*
X116212619Y-73738094D01*
X116212619Y-72214285D02*
X116212619Y-72785713D01*
X116212619Y-72499999D02*
X115212619Y-72499999D01*
X115212619Y-72499999D02*
X115355476Y-72595237D01*
X115355476Y-72595237D02*
X115450714Y-72690475D01*
X115450714Y-72690475D02*
X115498333Y-72785713D01*
%TO.C,U3*%
X57988095Y-87862619D02*
X57988095Y-88672142D01*
X57988095Y-88672142D02*
X58035714Y-88767380D01*
X58035714Y-88767380D02*
X58083333Y-88815000D01*
X58083333Y-88815000D02*
X58178571Y-88862619D01*
X58178571Y-88862619D02*
X58369047Y-88862619D01*
X58369047Y-88862619D02*
X58464285Y-88815000D01*
X58464285Y-88815000D02*
X58511904Y-88767380D01*
X58511904Y-88767380D02*
X58559523Y-88672142D01*
X58559523Y-88672142D02*
X58559523Y-87862619D01*
X58940476Y-87862619D02*
X59559523Y-87862619D01*
X59559523Y-87862619D02*
X59226190Y-88243571D01*
X59226190Y-88243571D02*
X59369047Y-88243571D01*
X59369047Y-88243571D02*
X59464285Y-88291190D01*
X59464285Y-88291190D02*
X59511904Y-88338809D01*
X59511904Y-88338809D02*
X59559523Y-88434047D01*
X59559523Y-88434047D02*
X59559523Y-88672142D01*
X59559523Y-88672142D02*
X59511904Y-88767380D01*
X59511904Y-88767380D02*
X59464285Y-88815000D01*
X59464285Y-88815000D02*
X59369047Y-88862619D01*
X59369047Y-88862619D02*
X59083333Y-88862619D01*
X59083333Y-88862619D02*
X58988095Y-88815000D01*
X58988095Y-88815000D02*
X58940476Y-88767380D01*
%TO.C,C26*%
X58985714Y-72793904D02*
X58947618Y-72832000D01*
X58947618Y-72832000D02*
X58833333Y-72870095D01*
X58833333Y-72870095D02*
X58757142Y-72870095D01*
X58757142Y-72870095D02*
X58642856Y-72832000D01*
X58642856Y-72832000D02*
X58566666Y-72755809D01*
X58566666Y-72755809D02*
X58528571Y-72679619D01*
X58528571Y-72679619D02*
X58490475Y-72527238D01*
X58490475Y-72527238D02*
X58490475Y-72412952D01*
X58490475Y-72412952D02*
X58528571Y-72260571D01*
X58528571Y-72260571D02*
X58566666Y-72184380D01*
X58566666Y-72184380D02*
X58642856Y-72108190D01*
X58642856Y-72108190D02*
X58757142Y-72070095D01*
X58757142Y-72070095D02*
X58833333Y-72070095D01*
X58833333Y-72070095D02*
X58947618Y-72108190D01*
X58947618Y-72108190D02*
X58985714Y-72146285D01*
X59290475Y-72146285D02*
X59328571Y-72108190D01*
X59328571Y-72108190D02*
X59404761Y-72070095D01*
X59404761Y-72070095D02*
X59595237Y-72070095D01*
X59595237Y-72070095D02*
X59671428Y-72108190D01*
X59671428Y-72108190D02*
X59709523Y-72146285D01*
X59709523Y-72146285D02*
X59747618Y-72222476D01*
X59747618Y-72222476D02*
X59747618Y-72298666D01*
X59747618Y-72298666D02*
X59709523Y-72412952D01*
X59709523Y-72412952D02*
X59252380Y-72870095D01*
X59252380Y-72870095D02*
X59747618Y-72870095D01*
X60433333Y-72070095D02*
X60280952Y-72070095D01*
X60280952Y-72070095D02*
X60204761Y-72108190D01*
X60204761Y-72108190D02*
X60166666Y-72146285D01*
X60166666Y-72146285D02*
X60090476Y-72260571D01*
X60090476Y-72260571D02*
X60052380Y-72412952D01*
X60052380Y-72412952D02*
X60052380Y-72717714D01*
X60052380Y-72717714D02*
X60090476Y-72793904D01*
X60090476Y-72793904D02*
X60128571Y-72832000D01*
X60128571Y-72832000D02*
X60204761Y-72870095D01*
X60204761Y-72870095D02*
X60357142Y-72870095D01*
X60357142Y-72870095D02*
X60433333Y-72832000D01*
X60433333Y-72832000D02*
X60471428Y-72793904D01*
X60471428Y-72793904D02*
X60509523Y-72717714D01*
X60509523Y-72717714D02*
X60509523Y-72527238D01*
X60509523Y-72527238D02*
X60471428Y-72451047D01*
X60471428Y-72451047D02*
X60433333Y-72412952D01*
X60433333Y-72412952D02*
X60357142Y-72374857D01*
X60357142Y-72374857D02*
X60204761Y-72374857D01*
X60204761Y-72374857D02*
X60128571Y-72412952D01*
X60128571Y-72412952D02*
X60090476Y-72451047D01*
X60090476Y-72451047D02*
X60052380Y-72527238D01*
%TO.C,C6*%
X104416667Y-61978904D02*
X104378571Y-62017000D01*
X104378571Y-62017000D02*
X104264286Y-62055095D01*
X104264286Y-62055095D02*
X104188095Y-62055095D01*
X104188095Y-62055095D02*
X104073809Y-62017000D01*
X104073809Y-62017000D02*
X103997619Y-61940809D01*
X103997619Y-61940809D02*
X103959524Y-61864619D01*
X103959524Y-61864619D02*
X103921428Y-61712238D01*
X103921428Y-61712238D02*
X103921428Y-61597952D01*
X103921428Y-61597952D02*
X103959524Y-61445571D01*
X103959524Y-61445571D02*
X103997619Y-61369380D01*
X103997619Y-61369380D02*
X104073809Y-61293190D01*
X104073809Y-61293190D02*
X104188095Y-61255095D01*
X104188095Y-61255095D02*
X104264286Y-61255095D01*
X104264286Y-61255095D02*
X104378571Y-61293190D01*
X104378571Y-61293190D02*
X104416667Y-61331285D01*
X105102381Y-61255095D02*
X104950000Y-61255095D01*
X104950000Y-61255095D02*
X104873809Y-61293190D01*
X104873809Y-61293190D02*
X104835714Y-61331285D01*
X104835714Y-61331285D02*
X104759524Y-61445571D01*
X104759524Y-61445571D02*
X104721428Y-61597952D01*
X104721428Y-61597952D02*
X104721428Y-61902714D01*
X104721428Y-61902714D02*
X104759524Y-61978904D01*
X104759524Y-61978904D02*
X104797619Y-62017000D01*
X104797619Y-62017000D02*
X104873809Y-62055095D01*
X104873809Y-62055095D02*
X105026190Y-62055095D01*
X105026190Y-62055095D02*
X105102381Y-62017000D01*
X105102381Y-62017000D02*
X105140476Y-61978904D01*
X105140476Y-61978904D02*
X105178571Y-61902714D01*
X105178571Y-61902714D02*
X105178571Y-61712238D01*
X105178571Y-61712238D02*
X105140476Y-61636047D01*
X105140476Y-61636047D02*
X105102381Y-61597952D01*
X105102381Y-61597952D02*
X105026190Y-61559857D01*
X105026190Y-61559857D02*
X104873809Y-61559857D01*
X104873809Y-61559857D02*
X104797619Y-61597952D01*
X104797619Y-61597952D02*
X104759524Y-61636047D01*
X104759524Y-61636047D02*
X104721428Y-61712238D01*
%TO.C,C22*%
X66985714Y-61793904D02*
X66947618Y-61832000D01*
X66947618Y-61832000D02*
X66833333Y-61870095D01*
X66833333Y-61870095D02*
X66757142Y-61870095D01*
X66757142Y-61870095D02*
X66642856Y-61832000D01*
X66642856Y-61832000D02*
X66566666Y-61755809D01*
X66566666Y-61755809D02*
X66528571Y-61679619D01*
X66528571Y-61679619D02*
X66490475Y-61527238D01*
X66490475Y-61527238D02*
X66490475Y-61412952D01*
X66490475Y-61412952D02*
X66528571Y-61260571D01*
X66528571Y-61260571D02*
X66566666Y-61184380D01*
X66566666Y-61184380D02*
X66642856Y-61108190D01*
X66642856Y-61108190D02*
X66757142Y-61070095D01*
X66757142Y-61070095D02*
X66833333Y-61070095D01*
X66833333Y-61070095D02*
X66947618Y-61108190D01*
X66947618Y-61108190D02*
X66985714Y-61146285D01*
X67290475Y-61146285D02*
X67328571Y-61108190D01*
X67328571Y-61108190D02*
X67404761Y-61070095D01*
X67404761Y-61070095D02*
X67595237Y-61070095D01*
X67595237Y-61070095D02*
X67671428Y-61108190D01*
X67671428Y-61108190D02*
X67709523Y-61146285D01*
X67709523Y-61146285D02*
X67747618Y-61222476D01*
X67747618Y-61222476D02*
X67747618Y-61298666D01*
X67747618Y-61298666D02*
X67709523Y-61412952D01*
X67709523Y-61412952D02*
X67252380Y-61870095D01*
X67252380Y-61870095D02*
X67747618Y-61870095D01*
X68052380Y-61146285D02*
X68090476Y-61108190D01*
X68090476Y-61108190D02*
X68166666Y-61070095D01*
X68166666Y-61070095D02*
X68357142Y-61070095D01*
X68357142Y-61070095D02*
X68433333Y-61108190D01*
X68433333Y-61108190D02*
X68471428Y-61146285D01*
X68471428Y-61146285D02*
X68509523Y-61222476D01*
X68509523Y-61222476D02*
X68509523Y-61298666D01*
X68509523Y-61298666D02*
X68471428Y-61412952D01*
X68471428Y-61412952D02*
X68014285Y-61870095D01*
X68014285Y-61870095D02*
X68509523Y-61870095D01*
%TO.C,U1*%
X93738095Y-64647619D02*
X93738095Y-65457142D01*
X93738095Y-65457142D02*
X93785714Y-65552380D01*
X93785714Y-65552380D02*
X93833333Y-65600000D01*
X93833333Y-65600000D02*
X93928571Y-65647619D01*
X93928571Y-65647619D02*
X94119047Y-65647619D01*
X94119047Y-65647619D02*
X94214285Y-65600000D01*
X94214285Y-65600000D02*
X94261904Y-65552380D01*
X94261904Y-65552380D02*
X94309523Y-65457142D01*
X94309523Y-65457142D02*
X94309523Y-64647619D01*
X95309523Y-65647619D02*
X94738095Y-65647619D01*
X95023809Y-65647619D02*
X95023809Y-64647619D01*
X95023809Y-64647619D02*
X94928571Y-64790476D01*
X94928571Y-64790476D02*
X94833333Y-64885714D01*
X94833333Y-64885714D02*
X94738095Y-64933333D01*
%TO.C,C2*%
X91866667Y-75043904D02*
X91828571Y-75082000D01*
X91828571Y-75082000D02*
X91714286Y-75120095D01*
X91714286Y-75120095D02*
X91638095Y-75120095D01*
X91638095Y-75120095D02*
X91523809Y-75082000D01*
X91523809Y-75082000D02*
X91447619Y-75005809D01*
X91447619Y-75005809D02*
X91409524Y-74929619D01*
X91409524Y-74929619D02*
X91371428Y-74777238D01*
X91371428Y-74777238D02*
X91371428Y-74662952D01*
X91371428Y-74662952D02*
X91409524Y-74510571D01*
X91409524Y-74510571D02*
X91447619Y-74434380D01*
X91447619Y-74434380D02*
X91523809Y-74358190D01*
X91523809Y-74358190D02*
X91638095Y-74320095D01*
X91638095Y-74320095D02*
X91714286Y-74320095D01*
X91714286Y-74320095D02*
X91828571Y-74358190D01*
X91828571Y-74358190D02*
X91866667Y-74396285D01*
X92171428Y-74396285D02*
X92209524Y-74358190D01*
X92209524Y-74358190D02*
X92285714Y-74320095D01*
X92285714Y-74320095D02*
X92476190Y-74320095D01*
X92476190Y-74320095D02*
X92552381Y-74358190D01*
X92552381Y-74358190D02*
X92590476Y-74396285D01*
X92590476Y-74396285D02*
X92628571Y-74472476D01*
X92628571Y-74472476D02*
X92628571Y-74548666D01*
X92628571Y-74548666D02*
X92590476Y-74662952D01*
X92590476Y-74662952D02*
X92133333Y-75120095D01*
X92133333Y-75120095D02*
X92628571Y-75120095D01*
%TO.C,C28*%
X50543904Y-69514285D02*
X50582000Y-69552381D01*
X50582000Y-69552381D02*
X50620095Y-69666666D01*
X50620095Y-69666666D02*
X50620095Y-69742857D01*
X50620095Y-69742857D02*
X50582000Y-69857143D01*
X50582000Y-69857143D02*
X50505809Y-69933333D01*
X50505809Y-69933333D02*
X50429619Y-69971428D01*
X50429619Y-69971428D02*
X50277238Y-70009524D01*
X50277238Y-70009524D02*
X50162952Y-70009524D01*
X50162952Y-70009524D02*
X50010571Y-69971428D01*
X50010571Y-69971428D02*
X49934380Y-69933333D01*
X49934380Y-69933333D02*
X49858190Y-69857143D01*
X49858190Y-69857143D02*
X49820095Y-69742857D01*
X49820095Y-69742857D02*
X49820095Y-69666666D01*
X49820095Y-69666666D02*
X49858190Y-69552381D01*
X49858190Y-69552381D02*
X49896285Y-69514285D01*
X49896285Y-69209524D02*
X49858190Y-69171428D01*
X49858190Y-69171428D02*
X49820095Y-69095238D01*
X49820095Y-69095238D02*
X49820095Y-68904762D01*
X49820095Y-68904762D02*
X49858190Y-68828571D01*
X49858190Y-68828571D02*
X49896285Y-68790476D01*
X49896285Y-68790476D02*
X49972476Y-68752381D01*
X49972476Y-68752381D02*
X50048666Y-68752381D01*
X50048666Y-68752381D02*
X50162952Y-68790476D01*
X50162952Y-68790476D02*
X50620095Y-69247619D01*
X50620095Y-69247619D02*
X50620095Y-68752381D01*
X50162952Y-68295238D02*
X50124857Y-68371428D01*
X50124857Y-68371428D02*
X50086761Y-68409523D01*
X50086761Y-68409523D02*
X50010571Y-68447619D01*
X50010571Y-68447619D02*
X49972476Y-68447619D01*
X49972476Y-68447619D02*
X49896285Y-68409523D01*
X49896285Y-68409523D02*
X49858190Y-68371428D01*
X49858190Y-68371428D02*
X49820095Y-68295238D01*
X49820095Y-68295238D02*
X49820095Y-68142857D01*
X49820095Y-68142857D02*
X49858190Y-68066666D01*
X49858190Y-68066666D02*
X49896285Y-68028571D01*
X49896285Y-68028571D02*
X49972476Y-67990476D01*
X49972476Y-67990476D02*
X50010571Y-67990476D01*
X50010571Y-67990476D02*
X50086761Y-68028571D01*
X50086761Y-68028571D02*
X50124857Y-68066666D01*
X50124857Y-68066666D02*
X50162952Y-68142857D01*
X50162952Y-68142857D02*
X50162952Y-68295238D01*
X50162952Y-68295238D02*
X50201047Y-68371428D01*
X50201047Y-68371428D02*
X50239142Y-68409523D01*
X50239142Y-68409523D02*
X50315333Y-68447619D01*
X50315333Y-68447619D02*
X50467714Y-68447619D01*
X50467714Y-68447619D02*
X50543904Y-68409523D01*
X50543904Y-68409523D02*
X50582000Y-68371428D01*
X50582000Y-68371428D02*
X50620095Y-68295238D01*
X50620095Y-68295238D02*
X50620095Y-68142857D01*
X50620095Y-68142857D02*
X50582000Y-68066666D01*
X50582000Y-68066666D02*
X50543904Y-68028571D01*
X50543904Y-68028571D02*
X50467714Y-67990476D01*
X50467714Y-67990476D02*
X50315333Y-67990476D01*
X50315333Y-67990476D02*
X50239142Y-68028571D01*
X50239142Y-68028571D02*
X50201047Y-68066666D01*
X50201047Y-68066666D02*
X50162952Y-68142857D01*
%TO.C,TP1*%
X50500000Y-86081666D02*
X51261905Y-86081666D01*
X50880952Y-86462619D02*
X50880952Y-85700714D01*
X51642857Y-85462619D02*
X52261904Y-85462619D01*
X52261904Y-85462619D02*
X51928571Y-85843571D01*
X51928571Y-85843571D02*
X52071428Y-85843571D01*
X52071428Y-85843571D02*
X52166666Y-85891190D01*
X52166666Y-85891190D02*
X52214285Y-85938809D01*
X52214285Y-85938809D02*
X52261904Y-86034047D01*
X52261904Y-86034047D02*
X52261904Y-86272142D01*
X52261904Y-86272142D02*
X52214285Y-86367380D01*
X52214285Y-86367380D02*
X52166666Y-86415000D01*
X52166666Y-86415000D02*
X52071428Y-86462619D01*
X52071428Y-86462619D02*
X51785714Y-86462619D01*
X51785714Y-86462619D02*
X51690476Y-86415000D01*
X51690476Y-86415000D02*
X51642857Y-86367380D01*
X52690476Y-86367380D02*
X52738095Y-86415000D01*
X52738095Y-86415000D02*
X52690476Y-86462619D01*
X52690476Y-86462619D02*
X52642857Y-86415000D01*
X52642857Y-86415000D02*
X52690476Y-86367380D01*
X52690476Y-86367380D02*
X52690476Y-86462619D01*
X53071428Y-85462619D02*
X53690475Y-85462619D01*
X53690475Y-85462619D02*
X53357142Y-85843571D01*
X53357142Y-85843571D02*
X53499999Y-85843571D01*
X53499999Y-85843571D02*
X53595237Y-85891190D01*
X53595237Y-85891190D02*
X53642856Y-85938809D01*
X53642856Y-85938809D02*
X53690475Y-86034047D01*
X53690475Y-86034047D02*
X53690475Y-86272142D01*
X53690475Y-86272142D02*
X53642856Y-86367380D01*
X53642856Y-86367380D02*
X53595237Y-86415000D01*
X53595237Y-86415000D02*
X53499999Y-86462619D01*
X53499999Y-86462619D02*
X53214285Y-86462619D01*
X53214285Y-86462619D02*
X53119047Y-86415000D01*
X53119047Y-86415000D02*
X53071428Y-86367380D01*
X53976190Y-85462619D02*
X54309523Y-86462619D01*
X54309523Y-86462619D02*
X54642856Y-85462619D01*
%TO.C,C29*%
X54235714Y-64043904D02*
X54197618Y-64082000D01*
X54197618Y-64082000D02*
X54083333Y-64120095D01*
X54083333Y-64120095D02*
X54007142Y-64120095D01*
X54007142Y-64120095D02*
X53892856Y-64082000D01*
X53892856Y-64082000D02*
X53816666Y-64005809D01*
X53816666Y-64005809D02*
X53778571Y-63929619D01*
X53778571Y-63929619D02*
X53740475Y-63777238D01*
X53740475Y-63777238D02*
X53740475Y-63662952D01*
X53740475Y-63662952D02*
X53778571Y-63510571D01*
X53778571Y-63510571D02*
X53816666Y-63434380D01*
X53816666Y-63434380D02*
X53892856Y-63358190D01*
X53892856Y-63358190D02*
X54007142Y-63320095D01*
X54007142Y-63320095D02*
X54083333Y-63320095D01*
X54083333Y-63320095D02*
X54197618Y-63358190D01*
X54197618Y-63358190D02*
X54235714Y-63396285D01*
X54540475Y-63396285D02*
X54578571Y-63358190D01*
X54578571Y-63358190D02*
X54654761Y-63320095D01*
X54654761Y-63320095D02*
X54845237Y-63320095D01*
X54845237Y-63320095D02*
X54921428Y-63358190D01*
X54921428Y-63358190D02*
X54959523Y-63396285D01*
X54959523Y-63396285D02*
X54997618Y-63472476D01*
X54997618Y-63472476D02*
X54997618Y-63548666D01*
X54997618Y-63548666D02*
X54959523Y-63662952D01*
X54959523Y-63662952D02*
X54502380Y-64120095D01*
X54502380Y-64120095D02*
X54997618Y-64120095D01*
X55378571Y-64120095D02*
X55530952Y-64120095D01*
X55530952Y-64120095D02*
X55607142Y-64082000D01*
X55607142Y-64082000D02*
X55645238Y-64043904D01*
X55645238Y-64043904D02*
X55721428Y-63929619D01*
X55721428Y-63929619D02*
X55759523Y-63777238D01*
X55759523Y-63777238D02*
X55759523Y-63472476D01*
X55759523Y-63472476D02*
X55721428Y-63396285D01*
X55721428Y-63396285D02*
X55683333Y-63358190D01*
X55683333Y-63358190D02*
X55607142Y-63320095D01*
X55607142Y-63320095D02*
X55454761Y-63320095D01*
X55454761Y-63320095D02*
X55378571Y-63358190D01*
X55378571Y-63358190D02*
X55340476Y-63396285D01*
X55340476Y-63396285D02*
X55302380Y-63472476D01*
X55302380Y-63472476D02*
X55302380Y-63662952D01*
X55302380Y-63662952D02*
X55340476Y-63739142D01*
X55340476Y-63739142D02*
X55378571Y-63777238D01*
X55378571Y-63777238D02*
X55454761Y-63815333D01*
X55454761Y-63815333D02*
X55607142Y-63815333D01*
X55607142Y-63815333D02*
X55683333Y-63777238D01*
X55683333Y-63777238D02*
X55721428Y-63739142D01*
X55721428Y-63739142D02*
X55759523Y-63662952D01*
%TO.C,R6*%
X79800095Y-69383332D02*
X79419142Y-69649999D01*
X79800095Y-69840475D02*
X79000095Y-69840475D01*
X79000095Y-69840475D02*
X79000095Y-69535713D01*
X79000095Y-69535713D02*
X79038190Y-69459523D01*
X79038190Y-69459523D02*
X79076285Y-69421428D01*
X79076285Y-69421428D02*
X79152476Y-69383332D01*
X79152476Y-69383332D02*
X79266761Y-69383332D01*
X79266761Y-69383332D02*
X79342952Y-69421428D01*
X79342952Y-69421428D02*
X79381047Y-69459523D01*
X79381047Y-69459523D02*
X79419142Y-69535713D01*
X79419142Y-69535713D02*
X79419142Y-69840475D01*
X79000095Y-68697618D02*
X79000095Y-68849999D01*
X79000095Y-68849999D02*
X79038190Y-68926190D01*
X79038190Y-68926190D02*
X79076285Y-68964285D01*
X79076285Y-68964285D02*
X79190571Y-69040475D01*
X79190571Y-69040475D02*
X79342952Y-69078571D01*
X79342952Y-69078571D02*
X79647714Y-69078571D01*
X79647714Y-69078571D02*
X79723904Y-69040475D01*
X79723904Y-69040475D02*
X79762000Y-69002380D01*
X79762000Y-69002380D02*
X79800095Y-68926190D01*
X79800095Y-68926190D02*
X79800095Y-68773809D01*
X79800095Y-68773809D02*
X79762000Y-68697618D01*
X79762000Y-68697618D02*
X79723904Y-68659523D01*
X79723904Y-68659523D02*
X79647714Y-68621428D01*
X79647714Y-68621428D02*
X79457238Y-68621428D01*
X79457238Y-68621428D02*
X79381047Y-68659523D01*
X79381047Y-68659523D02*
X79342952Y-68697618D01*
X79342952Y-68697618D02*
X79304857Y-68773809D01*
X79304857Y-68773809D02*
X79304857Y-68926190D01*
X79304857Y-68926190D02*
X79342952Y-69002380D01*
X79342952Y-69002380D02*
X79381047Y-69040475D01*
X79381047Y-69040475D02*
X79457238Y-69078571D01*
%TO.C,D7*%
X111462619Y-58488094D02*
X110462619Y-58488094D01*
X110462619Y-58488094D02*
X110462619Y-58249999D01*
X110462619Y-58249999D02*
X110510238Y-58107142D01*
X110510238Y-58107142D02*
X110605476Y-58011904D01*
X110605476Y-58011904D02*
X110700714Y-57964285D01*
X110700714Y-57964285D02*
X110891190Y-57916666D01*
X110891190Y-57916666D02*
X111034047Y-57916666D01*
X111034047Y-57916666D02*
X111224523Y-57964285D01*
X111224523Y-57964285D02*
X111319761Y-58011904D01*
X111319761Y-58011904D02*
X111415000Y-58107142D01*
X111415000Y-58107142D02*
X111462619Y-58249999D01*
X111462619Y-58249999D02*
X111462619Y-58488094D01*
X110462619Y-57583332D02*
X110462619Y-56916666D01*
X110462619Y-56916666D02*
X111462619Y-57345237D01*
%TO.C,C41*%
X88867380Y-84142857D02*
X88915000Y-84190476D01*
X88915000Y-84190476D02*
X88962619Y-84333333D01*
X88962619Y-84333333D02*
X88962619Y-84428571D01*
X88962619Y-84428571D02*
X88915000Y-84571428D01*
X88915000Y-84571428D02*
X88819761Y-84666666D01*
X88819761Y-84666666D02*
X88724523Y-84714285D01*
X88724523Y-84714285D02*
X88534047Y-84761904D01*
X88534047Y-84761904D02*
X88391190Y-84761904D01*
X88391190Y-84761904D02*
X88200714Y-84714285D01*
X88200714Y-84714285D02*
X88105476Y-84666666D01*
X88105476Y-84666666D02*
X88010238Y-84571428D01*
X88010238Y-84571428D02*
X87962619Y-84428571D01*
X87962619Y-84428571D02*
X87962619Y-84333333D01*
X87962619Y-84333333D02*
X88010238Y-84190476D01*
X88010238Y-84190476D02*
X88057857Y-84142857D01*
X88295952Y-83285714D02*
X88962619Y-83285714D01*
X87915000Y-83523809D02*
X88629285Y-83761904D01*
X88629285Y-83761904D02*
X88629285Y-83142857D01*
X88962619Y-82238095D02*
X88962619Y-82809523D01*
X88962619Y-82523809D02*
X87962619Y-82523809D01*
X87962619Y-82523809D02*
X88105476Y-82619047D01*
X88105476Y-82619047D02*
X88200714Y-82714285D01*
X88200714Y-82714285D02*
X88248333Y-82809523D01*
%TO.C,U4*%
X72362619Y-55149404D02*
X73172142Y-55149404D01*
X73172142Y-55149404D02*
X73267380Y-55101785D01*
X73267380Y-55101785D02*
X73315000Y-55054166D01*
X73315000Y-55054166D02*
X73362619Y-54958928D01*
X73362619Y-54958928D02*
X73362619Y-54768452D01*
X73362619Y-54768452D02*
X73315000Y-54673214D01*
X73315000Y-54673214D02*
X73267380Y-54625595D01*
X73267380Y-54625595D02*
X73172142Y-54577976D01*
X73172142Y-54577976D02*
X72362619Y-54577976D01*
X72695952Y-53673214D02*
X73362619Y-53673214D01*
X72315000Y-53911309D02*
X73029285Y-54149404D01*
X73029285Y-54149404D02*
X73029285Y-53530357D01*
%TO.C,TP8*%
X96990476Y-82305095D02*
X96990476Y-81505095D01*
X96990476Y-81505095D02*
X97295238Y-81505095D01*
X97295238Y-81505095D02*
X97371428Y-81543190D01*
X97371428Y-81543190D02*
X97409523Y-81581285D01*
X97409523Y-81581285D02*
X97447619Y-81657476D01*
X97447619Y-81657476D02*
X97447619Y-81771761D01*
X97447619Y-81771761D02*
X97409523Y-81847952D01*
X97409523Y-81847952D02*
X97371428Y-81886047D01*
X97371428Y-81886047D02*
X97295238Y-81924142D01*
X97295238Y-81924142D02*
X96990476Y-81924142D01*
X97714285Y-81505095D02*
X97904761Y-82305095D01*
X97904761Y-82305095D02*
X98057142Y-81733666D01*
X98057142Y-81733666D02*
X98209523Y-82305095D01*
X98209523Y-82305095D02*
X98400000Y-81505095D01*
X99161905Y-82305095D02*
X98895238Y-81924142D01*
X98704762Y-82305095D02*
X98704762Y-81505095D01*
X98704762Y-81505095D02*
X99009524Y-81505095D01*
X99009524Y-81505095D02*
X99085714Y-81543190D01*
X99085714Y-81543190D02*
X99123809Y-81581285D01*
X99123809Y-81581285D02*
X99161905Y-81657476D01*
X99161905Y-81657476D02*
X99161905Y-81771761D01*
X99161905Y-81771761D02*
X99123809Y-81847952D01*
X99123809Y-81847952D02*
X99085714Y-81886047D01*
X99085714Y-81886047D02*
X99009524Y-81924142D01*
X99009524Y-81924142D02*
X98704762Y-81924142D01*
X99314286Y-82381285D02*
X99923809Y-82381285D01*
X100533333Y-81543190D02*
X100457143Y-81505095D01*
X100457143Y-81505095D02*
X100342857Y-81505095D01*
X100342857Y-81505095D02*
X100228571Y-81543190D01*
X100228571Y-81543190D02*
X100152381Y-81619380D01*
X100152381Y-81619380D02*
X100114286Y-81695571D01*
X100114286Y-81695571D02*
X100076190Y-81847952D01*
X100076190Y-81847952D02*
X100076190Y-81962238D01*
X100076190Y-81962238D02*
X100114286Y-82114619D01*
X100114286Y-82114619D02*
X100152381Y-82190809D01*
X100152381Y-82190809D02*
X100228571Y-82267000D01*
X100228571Y-82267000D02*
X100342857Y-82305095D01*
X100342857Y-82305095D02*
X100419048Y-82305095D01*
X100419048Y-82305095D02*
X100533333Y-82267000D01*
X100533333Y-82267000D02*
X100571429Y-82228904D01*
X100571429Y-82228904D02*
X100571429Y-81962238D01*
X100571429Y-81962238D02*
X100419048Y-81962238D01*
X101066667Y-81505095D02*
X101219048Y-81505095D01*
X101219048Y-81505095D02*
X101295238Y-81543190D01*
X101295238Y-81543190D02*
X101371429Y-81619380D01*
X101371429Y-81619380D02*
X101409524Y-81771761D01*
X101409524Y-81771761D02*
X101409524Y-82038428D01*
X101409524Y-82038428D02*
X101371429Y-82190809D01*
X101371429Y-82190809D02*
X101295238Y-82267000D01*
X101295238Y-82267000D02*
X101219048Y-82305095D01*
X101219048Y-82305095D02*
X101066667Y-82305095D01*
X101066667Y-82305095D02*
X100990476Y-82267000D01*
X100990476Y-82267000D02*
X100914286Y-82190809D01*
X100914286Y-82190809D02*
X100876190Y-82038428D01*
X100876190Y-82038428D02*
X100876190Y-81771761D01*
X100876190Y-81771761D02*
X100914286Y-81619380D01*
X100914286Y-81619380D02*
X100990476Y-81543190D01*
X100990476Y-81543190D02*
X101066667Y-81505095D01*
X101904762Y-81505095D02*
X102057143Y-81505095D01*
X102057143Y-81505095D02*
X102133333Y-81543190D01*
X102133333Y-81543190D02*
X102209524Y-81619380D01*
X102209524Y-81619380D02*
X102247619Y-81771761D01*
X102247619Y-81771761D02*
X102247619Y-82038428D01*
X102247619Y-82038428D02*
X102209524Y-82190809D01*
X102209524Y-82190809D02*
X102133333Y-82267000D01*
X102133333Y-82267000D02*
X102057143Y-82305095D01*
X102057143Y-82305095D02*
X101904762Y-82305095D01*
X101904762Y-82305095D02*
X101828571Y-82267000D01*
X101828571Y-82267000D02*
X101752381Y-82190809D01*
X101752381Y-82190809D02*
X101714285Y-82038428D01*
X101714285Y-82038428D02*
X101714285Y-81771761D01*
X101714285Y-81771761D02*
X101752381Y-81619380D01*
X101752381Y-81619380D02*
X101828571Y-81543190D01*
X101828571Y-81543190D02*
X101904762Y-81505095D01*
X102590476Y-82305095D02*
X102590476Y-81505095D01*
X102590476Y-81505095D02*
X102780952Y-81505095D01*
X102780952Y-81505095D02*
X102895238Y-81543190D01*
X102895238Y-81543190D02*
X102971428Y-81619380D01*
X102971428Y-81619380D02*
X103009523Y-81695571D01*
X103009523Y-81695571D02*
X103047619Y-81847952D01*
X103047619Y-81847952D02*
X103047619Y-81962238D01*
X103047619Y-81962238D02*
X103009523Y-82114619D01*
X103009523Y-82114619D02*
X102971428Y-82190809D01*
X102971428Y-82190809D02*
X102895238Y-82267000D01*
X102895238Y-82267000D02*
X102780952Y-82305095D01*
X102780952Y-82305095D02*
X102590476Y-82305095D01*
%TO.C,D3*%
X98209524Y-55305095D02*
X98209524Y-54505095D01*
X98209524Y-54505095D02*
X98400000Y-54505095D01*
X98400000Y-54505095D02*
X98514286Y-54543190D01*
X98514286Y-54543190D02*
X98590476Y-54619380D01*
X98590476Y-54619380D02*
X98628571Y-54695571D01*
X98628571Y-54695571D02*
X98666667Y-54847952D01*
X98666667Y-54847952D02*
X98666667Y-54962238D01*
X98666667Y-54962238D02*
X98628571Y-55114619D01*
X98628571Y-55114619D02*
X98590476Y-55190809D01*
X98590476Y-55190809D02*
X98514286Y-55267000D01*
X98514286Y-55267000D02*
X98400000Y-55305095D01*
X98400000Y-55305095D02*
X98209524Y-55305095D01*
X98933333Y-54505095D02*
X99428571Y-54505095D01*
X99428571Y-54505095D02*
X99161905Y-54809857D01*
X99161905Y-54809857D02*
X99276190Y-54809857D01*
X99276190Y-54809857D02*
X99352381Y-54847952D01*
X99352381Y-54847952D02*
X99390476Y-54886047D01*
X99390476Y-54886047D02*
X99428571Y-54962238D01*
X99428571Y-54962238D02*
X99428571Y-55152714D01*
X99428571Y-55152714D02*
X99390476Y-55228904D01*
X99390476Y-55228904D02*
X99352381Y-55267000D01*
X99352381Y-55267000D02*
X99276190Y-55305095D01*
X99276190Y-55305095D02*
X99047619Y-55305095D01*
X99047619Y-55305095D02*
X98971428Y-55267000D01*
X98971428Y-55267000D02*
X98933333Y-55228904D01*
%TO.C,C24*%
X59735714Y-60543904D02*
X59697618Y-60582000D01*
X59697618Y-60582000D02*
X59583333Y-60620095D01*
X59583333Y-60620095D02*
X59507142Y-60620095D01*
X59507142Y-60620095D02*
X59392856Y-60582000D01*
X59392856Y-60582000D02*
X59316666Y-60505809D01*
X59316666Y-60505809D02*
X59278571Y-60429619D01*
X59278571Y-60429619D02*
X59240475Y-60277238D01*
X59240475Y-60277238D02*
X59240475Y-60162952D01*
X59240475Y-60162952D02*
X59278571Y-60010571D01*
X59278571Y-60010571D02*
X59316666Y-59934380D01*
X59316666Y-59934380D02*
X59392856Y-59858190D01*
X59392856Y-59858190D02*
X59507142Y-59820095D01*
X59507142Y-59820095D02*
X59583333Y-59820095D01*
X59583333Y-59820095D02*
X59697618Y-59858190D01*
X59697618Y-59858190D02*
X59735714Y-59896285D01*
X60040475Y-59896285D02*
X60078571Y-59858190D01*
X60078571Y-59858190D02*
X60154761Y-59820095D01*
X60154761Y-59820095D02*
X60345237Y-59820095D01*
X60345237Y-59820095D02*
X60421428Y-59858190D01*
X60421428Y-59858190D02*
X60459523Y-59896285D01*
X60459523Y-59896285D02*
X60497618Y-59972476D01*
X60497618Y-59972476D02*
X60497618Y-60048666D01*
X60497618Y-60048666D02*
X60459523Y-60162952D01*
X60459523Y-60162952D02*
X60002380Y-60620095D01*
X60002380Y-60620095D02*
X60497618Y-60620095D01*
X61183333Y-60086761D02*
X61183333Y-60620095D01*
X60992857Y-59782000D02*
X60802380Y-60353428D01*
X60802380Y-60353428D02*
X61297619Y-60353428D01*
%TO.C,C12*%
X93735714Y-70543904D02*
X93697618Y-70582000D01*
X93697618Y-70582000D02*
X93583333Y-70620095D01*
X93583333Y-70620095D02*
X93507142Y-70620095D01*
X93507142Y-70620095D02*
X93392856Y-70582000D01*
X93392856Y-70582000D02*
X93316666Y-70505809D01*
X93316666Y-70505809D02*
X93278571Y-70429619D01*
X93278571Y-70429619D02*
X93240475Y-70277238D01*
X93240475Y-70277238D02*
X93240475Y-70162952D01*
X93240475Y-70162952D02*
X93278571Y-70010571D01*
X93278571Y-70010571D02*
X93316666Y-69934380D01*
X93316666Y-69934380D02*
X93392856Y-69858190D01*
X93392856Y-69858190D02*
X93507142Y-69820095D01*
X93507142Y-69820095D02*
X93583333Y-69820095D01*
X93583333Y-69820095D02*
X93697618Y-69858190D01*
X93697618Y-69858190D02*
X93735714Y-69896285D01*
X94497618Y-70620095D02*
X94040475Y-70620095D01*
X94269047Y-70620095D02*
X94269047Y-69820095D01*
X94269047Y-69820095D02*
X94192856Y-69934380D01*
X94192856Y-69934380D02*
X94116666Y-70010571D01*
X94116666Y-70010571D02*
X94040475Y-70048666D01*
X94802380Y-69896285D02*
X94840476Y-69858190D01*
X94840476Y-69858190D02*
X94916666Y-69820095D01*
X94916666Y-69820095D02*
X95107142Y-69820095D01*
X95107142Y-69820095D02*
X95183333Y-69858190D01*
X95183333Y-69858190D02*
X95221428Y-69896285D01*
X95221428Y-69896285D02*
X95259523Y-69972476D01*
X95259523Y-69972476D02*
X95259523Y-70048666D01*
X95259523Y-70048666D02*
X95221428Y-70162952D01*
X95221428Y-70162952D02*
X94764285Y-70620095D01*
X94764285Y-70620095D02*
X95259523Y-70620095D01*
%TO.C,C9*%
X105866667Y-64043904D02*
X105828571Y-64082000D01*
X105828571Y-64082000D02*
X105714286Y-64120095D01*
X105714286Y-64120095D02*
X105638095Y-64120095D01*
X105638095Y-64120095D02*
X105523809Y-64082000D01*
X105523809Y-64082000D02*
X105447619Y-64005809D01*
X105447619Y-64005809D02*
X105409524Y-63929619D01*
X105409524Y-63929619D02*
X105371428Y-63777238D01*
X105371428Y-63777238D02*
X105371428Y-63662952D01*
X105371428Y-63662952D02*
X105409524Y-63510571D01*
X105409524Y-63510571D02*
X105447619Y-63434380D01*
X105447619Y-63434380D02*
X105523809Y-63358190D01*
X105523809Y-63358190D02*
X105638095Y-63320095D01*
X105638095Y-63320095D02*
X105714286Y-63320095D01*
X105714286Y-63320095D02*
X105828571Y-63358190D01*
X105828571Y-63358190D02*
X105866667Y-63396285D01*
X106247619Y-64120095D02*
X106400000Y-64120095D01*
X106400000Y-64120095D02*
X106476190Y-64082000D01*
X106476190Y-64082000D02*
X106514286Y-64043904D01*
X106514286Y-64043904D02*
X106590476Y-63929619D01*
X106590476Y-63929619D02*
X106628571Y-63777238D01*
X106628571Y-63777238D02*
X106628571Y-63472476D01*
X106628571Y-63472476D02*
X106590476Y-63396285D01*
X106590476Y-63396285D02*
X106552381Y-63358190D01*
X106552381Y-63358190D02*
X106476190Y-63320095D01*
X106476190Y-63320095D02*
X106323809Y-63320095D01*
X106323809Y-63320095D02*
X106247619Y-63358190D01*
X106247619Y-63358190D02*
X106209524Y-63396285D01*
X106209524Y-63396285D02*
X106171428Y-63472476D01*
X106171428Y-63472476D02*
X106171428Y-63662952D01*
X106171428Y-63662952D02*
X106209524Y-63739142D01*
X106209524Y-63739142D02*
X106247619Y-63777238D01*
X106247619Y-63777238D02*
X106323809Y-63815333D01*
X106323809Y-63815333D02*
X106476190Y-63815333D01*
X106476190Y-63815333D02*
X106552381Y-63777238D01*
X106552381Y-63777238D02*
X106590476Y-63739142D01*
X106590476Y-63739142D02*
X106628571Y-63662952D01*
%TO.C,C23*%
X74117380Y-66392857D02*
X74165000Y-66440476D01*
X74165000Y-66440476D02*
X74212619Y-66583333D01*
X74212619Y-66583333D02*
X74212619Y-66678571D01*
X74212619Y-66678571D02*
X74165000Y-66821428D01*
X74165000Y-66821428D02*
X74069761Y-66916666D01*
X74069761Y-66916666D02*
X73974523Y-66964285D01*
X73974523Y-66964285D02*
X73784047Y-67011904D01*
X73784047Y-67011904D02*
X73641190Y-67011904D01*
X73641190Y-67011904D02*
X73450714Y-66964285D01*
X73450714Y-66964285D02*
X73355476Y-66916666D01*
X73355476Y-66916666D02*
X73260238Y-66821428D01*
X73260238Y-66821428D02*
X73212619Y-66678571D01*
X73212619Y-66678571D02*
X73212619Y-66583333D01*
X73212619Y-66583333D02*
X73260238Y-66440476D01*
X73260238Y-66440476D02*
X73307857Y-66392857D01*
X73307857Y-66011904D02*
X73260238Y-65964285D01*
X73260238Y-65964285D02*
X73212619Y-65869047D01*
X73212619Y-65869047D02*
X73212619Y-65630952D01*
X73212619Y-65630952D02*
X73260238Y-65535714D01*
X73260238Y-65535714D02*
X73307857Y-65488095D01*
X73307857Y-65488095D02*
X73403095Y-65440476D01*
X73403095Y-65440476D02*
X73498333Y-65440476D01*
X73498333Y-65440476D02*
X73641190Y-65488095D01*
X73641190Y-65488095D02*
X74212619Y-66059523D01*
X74212619Y-66059523D02*
X74212619Y-65440476D01*
X73212619Y-65107142D02*
X73212619Y-64488095D01*
X73212619Y-64488095D02*
X73593571Y-64821428D01*
X73593571Y-64821428D02*
X73593571Y-64678571D01*
X73593571Y-64678571D02*
X73641190Y-64583333D01*
X73641190Y-64583333D02*
X73688809Y-64535714D01*
X73688809Y-64535714D02*
X73784047Y-64488095D01*
X73784047Y-64488095D02*
X74022142Y-64488095D01*
X74022142Y-64488095D02*
X74117380Y-64535714D01*
X74117380Y-64535714D02*
X74165000Y-64583333D01*
X74165000Y-64583333D02*
X74212619Y-64678571D01*
X74212619Y-64678571D02*
X74212619Y-64964285D01*
X74212619Y-64964285D02*
X74165000Y-65059523D01*
X74165000Y-65059523D02*
X74117380Y-65107142D01*
%TO.C,TP6*%
X115590476Y-65815333D02*
X116200000Y-65815333D01*
X116542856Y-65396285D02*
X116580952Y-65358190D01*
X116580952Y-65358190D02*
X116657142Y-65320095D01*
X116657142Y-65320095D02*
X116847618Y-65320095D01*
X116847618Y-65320095D02*
X116923809Y-65358190D01*
X116923809Y-65358190D02*
X116961904Y-65396285D01*
X116961904Y-65396285D02*
X116999999Y-65472476D01*
X116999999Y-65472476D02*
X116999999Y-65548666D01*
X116999999Y-65548666D02*
X116961904Y-65662952D01*
X116961904Y-65662952D02*
X116504761Y-66120095D01*
X116504761Y-66120095D02*
X116999999Y-66120095D01*
X117495238Y-65320095D02*
X117571428Y-65320095D01*
X117571428Y-65320095D02*
X117647619Y-65358190D01*
X117647619Y-65358190D02*
X117685714Y-65396285D01*
X117685714Y-65396285D02*
X117723809Y-65472476D01*
X117723809Y-65472476D02*
X117761904Y-65624857D01*
X117761904Y-65624857D02*
X117761904Y-65815333D01*
X117761904Y-65815333D02*
X117723809Y-65967714D01*
X117723809Y-65967714D02*
X117685714Y-66043904D01*
X117685714Y-66043904D02*
X117647619Y-66082000D01*
X117647619Y-66082000D02*
X117571428Y-66120095D01*
X117571428Y-66120095D02*
X117495238Y-66120095D01*
X117495238Y-66120095D02*
X117419047Y-66082000D01*
X117419047Y-66082000D02*
X117380952Y-66043904D01*
X117380952Y-66043904D02*
X117342857Y-65967714D01*
X117342857Y-65967714D02*
X117304761Y-65815333D01*
X117304761Y-65815333D02*
X117304761Y-65624857D01*
X117304761Y-65624857D02*
X117342857Y-65472476D01*
X117342857Y-65472476D02*
X117380952Y-65396285D01*
X117380952Y-65396285D02*
X117419047Y-65358190D01*
X117419047Y-65358190D02*
X117495238Y-65320095D01*
X117990476Y-65320095D02*
X118257143Y-66120095D01*
X118257143Y-66120095D02*
X118523809Y-65320095D01*
%TO.C,D4*%
X109959524Y-77055095D02*
X109959524Y-76255095D01*
X109959524Y-76255095D02*
X110150000Y-76255095D01*
X110150000Y-76255095D02*
X110264286Y-76293190D01*
X110264286Y-76293190D02*
X110340476Y-76369380D01*
X110340476Y-76369380D02*
X110378571Y-76445571D01*
X110378571Y-76445571D02*
X110416667Y-76597952D01*
X110416667Y-76597952D02*
X110416667Y-76712238D01*
X110416667Y-76712238D02*
X110378571Y-76864619D01*
X110378571Y-76864619D02*
X110340476Y-76940809D01*
X110340476Y-76940809D02*
X110264286Y-77017000D01*
X110264286Y-77017000D02*
X110150000Y-77055095D01*
X110150000Y-77055095D02*
X109959524Y-77055095D01*
X111102381Y-76521761D02*
X111102381Y-77055095D01*
X110911905Y-76217000D02*
X110721428Y-76788428D01*
X110721428Y-76788428D02*
X111216667Y-76788428D01*
%TO.C,TP7*%
X89507143Y-77005095D02*
X89773810Y-77805095D01*
X89773810Y-77805095D02*
X90040476Y-77005095D01*
X90764286Y-77728904D02*
X90726190Y-77767000D01*
X90726190Y-77767000D02*
X90611905Y-77805095D01*
X90611905Y-77805095D02*
X90535714Y-77805095D01*
X90535714Y-77805095D02*
X90421428Y-77767000D01*
X90421428Y-77767000D02*
X90345238Y-77690809D01*
X90345238Y-77690809D02*
X90307143Y-77614619D01*
X90307143Y-77614619D02*
X90269047Y-77462238D01*
X90269047Y-77462238D02*
X90269047Y-77347952D01*
X90269047Y-77347952D02*
X90307143Y-77195571D01*
X90307143Y-77195571D02*
X90345238Y-77119380D01*
X90345238Y-77119380D02*
X90421428Y-77043190D01*
X90421428Y-77043190D02*
X90535714Y-77005095D01*
X90535714Y-77005095D02*
X90611905Y-77005095D01*
X90611905Y-77005095D02*
X90726190Y-77043190D01*
X90726190Y-77043190D02*
X90764286Y-77081285D01*
X91259524Y-77005095D02*
X91411905Y-77005095D01*
X91411905Y-77005095D02*
X91488095Y-77043190D01*
X91488095Y-77043190D02*
X91564286Y-77119380D01*
X91564286Y-77119380D02*
X91602381Y-77271761D01*
X91602381Y-77271761D02*
X91602381Y-77538428D01*
X91602381Y-77538428D02*
X91564286Y-77690809D01*
X91564286Y-77690809D02*
X91488095Y-77767000D01*
X91488095Y-77767000D02*
X91411905Y-77805095D01*
X91411905Y-77805095D02*
X91259524Y-77805095D01*
X91259524Y-77805095D02*
X91183333Y-77767000D01*
X91183333Y-77767000D02*
X91107143Y-77690809D01*
X91107143Y-77690809D02*
X91069047Y-77538428D01*
X91069047Y-77538428D02*
X91069047Y-77271761D01*
X91069047Y-77271761D02*
X91107143Y-77119380D01*
X91107143Y-77119380D02*
X91183333Y-77043190D01*
X91183333Y-77043190D02*
X91259524Y-77005095D01*
X91945238Y-77805095D02*
X91945238Y-77005095D01*
X91945238Y-77005095D02*
X92211904Y-77576523D01*
X92211904Y-77576523D02*
X92478571Y-77005095D01*
X92478571Y-77005095D02*
X92478571Y-77805095D01*
%TO.C,C27*%
X57235714Y-78293904D02*
X57197618Y-78332000D01*
X57197618Y-78332000D02*
X57083333Y-78370095D01*
X57083333Y-78370095D02*
X57007142Y-78370095D01*
X57007142Y-78370095D02*
X56892856Y-78332000D01*
X56892856Y-78332000D02*
X56816666Y-78255809D01*
X56816666Y-78255809D02*
X56778571Y-78179619D01*
X56778571Y-78179619D02*
X56740475Y-78027238D01*
X56740475Y-78027238D02*
X56740475Y-77912952D01*
X56740475Y-77912952D02*
X56778571Y-77760571D01*
X56778571Y-77760571D02*
X56816666Y-77684380D01*
X56816666Y-77684380D02*
X56892856Y-77608190D01*
X56892856Y-77608190D02*
X57007142Y-77570095D01*
X57007142Y-77570095D02*
X57083333Y-77570095D01*
X57083333Y-77570095D02*
X57197618Y-77608190D01*
X57197618Y-77608190D02*
X57235714Y-77646285D01*
X57540475Y-77646285D02*
X57578571Y-77608190D01*
X57578571Y-77608190D02*
X57654761Y-77570095D01*
X57654761Y-77570095D02*
X57845237Y-77570095D01*
X57845237Y-77570095D02*
X57921428Y-77608190D01*
X57921428Y-77608190D02*
X57959523Y-77646285D01*
X57959523Y-77646285D02*
X57997618Y-77722476D01*
X57997618Y-77722476D02*
X57997618Y-77798666D01*
X57997618Y-77798666D02*
X57959523Y-77912952D01*
X57959523Y-77912952D02*
X57502380Y-78370095D01*
X57502380Y-78370095D02*
X57997618Y-78370095D01*
X58264285Y-77570095D02*
X58797619Y-77570095D01*
X58797619Y-77570095D02*
X58454761Y-78370095D01*
D12*
%TO.C,J1*%
X89416666Y-90712619D02*
X89416666Y-91426904D01*
X89416666Y-91426904D02*
X89369047Y-91569761D01*
X89369047Y-91569761D02*
X89273809Y-91665000D01*
X89273809Y-91665000D02*
X89130952Y-91712619D01*
X89130952Y-91712619D02*
X89035714Y-91712619D01*
X90416666Y-91712619D02*
X89845238Y-91712619D01*
X90130952Y-91712619D02*
X90130952Y-90712619D01*
X90130952Y-90712619D02*
X90035714Y-90855476D01*
X90035714Y-90855476D02*
X89940476Y-90950714D01*
X89940476Y-90950714D02*
X89845238Y-90998333D01*
X81484762Y-94938809D02*
X81818095Y-94938809D01*
X81960952Y-95462619D02*
X81484762Y-95462619D01*
X81484762Y-95462619D02*
X81484762Y-94462619D01*
X81484762Y-94462619D02*
X81960952Y-94462619D01*
X82389524Y-95462619D02*
X82389524Y-94462619D01*
X82389524Y-94462619D02*
X82627619Y-94462619D01*
X82627619Y-94462619D02*
X82770476Y-94510238D01*
X82770476Y-94510238D02*
X82865714Y-94605476D01*
X82865714Y-94605476D02*
X82913333Y-94700714D01*
X82913333Y-94700714D02*
X82960952Y-94891190D01*
X82960952Y-94891190D02*
X82960952Y-95034047D01*
X82960952Y-95034047D02*
X82913333Y-95224523D01*
X82913333Y-95224523D02*
X82865714Y-95319761D01*
X82865714Y-95319761D02*
X82770476Y-95415000D01*
X82770476Y-95415000D02*
X82627619Y-95462619D01*
X82627619Y-95462619D02*
X82389524Y-95462619D01*
X83580000Y-94462619D02*
X83675238Y-94462619D01*
X83675238Y-94462619D02*
X83770476Y-94510238D01*
X83770476Y-94510238D02*
X83818095Y-94557857D01*
X83818095Y-94557857D02*
X83865714Y-94653095D01*
X83865714Y-94653095D02*
X83913333Y-94843571D01*
X83913333Y-94843571D02*
X83913333Y-95081666D01*
X83913333Y-95081666D02*
X83865714Y-95272142D01*
X83865714Y-95272142D02*
X83818095Y-95367380D01*
X83818095Y-95367380D02*
X83770476Y-95415000D01*
X83770476Y-95415000D02*
X83675238Y-95462619D01*
X83675238Y-95462619D02*
X83580000Y-95462619D01*
X83580000Y-95462619D02*
X83484762Y-95415000D01*
X83484762Y-95415000D02*
X83437143Y-95367380D01*
X83437143Y-95367380D02*
X83389524Y-95272142D01*
X83389524Y-95272142D02*
X83341905Y-95081666D01*
X83341905Y-95081666D02*
X83341905Y-94843571D01*
X83341905Y-94843571D02*
X83389524Y-94653095D01*
X83389524Y-94653095D02*
X83437143Y-94557857D01*
X83437143Y-94557857D02*
X83484762Y-94510238D01*
X83484762Y-94510238D02*
X83580000Y-94462619D01*
X84770476Y-94462619D02*
X84580000Y-94462619D01*
X84580000Y-94462619D02*
X84484762Y-94510238D01*
X84484762Y-94510238D02*
X84437143Y-94557857D01*
X84437143Y-94557857D02*
X84341905Y-94700714D01*
X84341905Y-94700714D02*
X84294286Y-94891190D01*
X84294286Y-94891190D02*
X84294286Y-95272142D01*
X84294286Y-95272142D02*
X84341905Y-95367380D01*
X84341905Y-95367380D02*
X84389524Y-95415000D01*
X84389524Y-95415000D02*
X84484762Y-95462619D01*
X84484762Y-95462619D02*
X84675238Y-95462619D01*
X84675238Y-95462619D02*
X84770476Y-95415000D01*
X84770476Y-95415000D02*
X84818095Y-95367380D01*
X84818095Y-95367380D02*
X84865714Y-95272142D01*
X84865714Y-95272142D02*
X84865714Y-95034047D01*
X84865714Y-95034047D02*
X84818095Y-94938809D01*
X84818095Y-94938809D02*
X84770476Y-94891190D01*
X84770476Y-94891190D02*
X84675238Y-94843571D01*
X84675238Y-94843571D02*
X84484762Y-94843571D01*
X84484762Y-94843571D02*
X84389524Y-94891190D01*
X84389524Y-94891190D02*
X84341905Y-94938809D01*
X84341905Y-94938809D02*
X84294286Y-95034047D01*
X85484762Y-94462619D02*
X85580000Y-94462619D01*
X85580000Y-94462619D02*
X85675238Y-94510238D01*
X85675238Y-94510238D02*
X85722857Y-94557857D01*
X85722857Y-94557857D02*
X85770476Y-94653095D01*
X85770476Y-94653095D02*
X85818095Y-94843571D01*
X85818095Y-94843571D02*
X85818095Y-95081666D01*
X85818095Y-95081666D02*
X85770476Y-95272142D01*
X85770476Y-95272142D02*
X85722857Y-95367380D01*
X85722857Y-95367380D02*
X85675238Y-95415000D01*
X85675238Y-95415000D02*
X85580000Y-95462619D01*
X85580000Y-95462619D02*
X85484762Y-95462619D01*
X85484762Y-95462619D02*
X85389524Y-95415000D01*
X85389524Y-95415000D02*
X85341905Y-95367380D01*
X85341905Y-95367380D02*
X85294286Y-95272142D01*
X85294286Y-95272142D02*
X85246667Y-95081666D01*
X85246667Y-95081666D02*
X85246667Y-94843571D01*
X85246667Y-94843571D02*
X85294286Y-94653095D01*
X85294286Y-94653095D02*
X85341905Y-94557857D01*
X85341905Y-94557857D02*
X85389524Y-94510238D01*
X85389524Y-94510238D02*
X85484762Y-94462619D01*
X86199048Y-95415000D02*
X86341905Y-95462619D01*
X86341905Y-95462619D02*
X86580000Y-95462619D01*
X86580000Y-95462619D02*
X86675238Y-95415000D01*
X86675238Y-95415000D02*
X86722857Y-95367380D01*
X86722857Y-95367380D02*
X86770476Y-95272142D01*
X86770476Y-95272142D02*
X86770476Y-95176904D01*
X86770476Y-95176904D02*
X86722857Y-95081666D01*
X86722857Y-95081666D02*
X86675238Y-95034047D01*
X86675238Y-95034047D02*
X86580000Y-94986428D01*
X86580000Y-94986428D02*
X86389524Y-94938809D01*
X86389524Y-94938809D02*
X86294286Y-94891190D01*
X86294286Y-94891190D02*
X86246667Y-94843571D01*
X86246667Y-94843571D02*
X86199048Y-94748333D01*
X86199048Y-94748333D02*
X86199048Y-94653095D01*
X86199048Y-94653095D02*
X86246667Y-94557857D01*
X86246667Y-94557857D02*
X86294286Y-94510238D01*
X86294286Y-94510238D02*
X86389524Y-94462619D01*
X86389524Y-94462619D02*
X86627619Y-94462619D01*
X86627619Y-94462619D02*
X86770476Y-94510238D01*
X87770476Y-95367380D02*
X87722857Y-95415000D01*
X87722857Y-95415000D02*
X87580000Y-95462619D01*
X87580000Y-95462619D02*
X87484762Y-95462619D01*
X87484762Y-95462619D02*
X87341905Y-95415000D01*
X87341905Y-95415000D02*
X87246667Y-95319761D01*
X87246667Y-95319761D02*
X87199048Y-95224523D01*
X87199048Y-95224523D02*
X87151429Y-95034047D01*
X87151429Y-95034047D02*
X87151429Y-94891190D01*
X87151429Y-94891190D02*
X87199048Y-94700714D01*
X87199048Y-94700714D02*
X87246667Y-94605476D01*
X87246667Y-94605476D02*
X87341905Y-94510238D01*
X87341905Y-94510238D02*
X87484762Y-94462619D01*
X87484762Y-94462619D02*
X87580000Y-94462619D01*
X87580000Y-94462619D02*
X87722857Y-94510238D01*
X87722857Y-94510238D02*
X87770476Y-94557857D01*
X88627619Y-94795952D02*
X88627619Y-95462619D01*
X88389524Y-94415000D02*
X88151429Y-95129285D01*
X88151429Y-95129285D02*
X88770476Y-95129285D01*
D10*
%TO.C,C17*%
X104485714Y-76293904D02*
X104447618Y-76332000D01*
X104447618Y-76332000D02*
X104333333Y-76370095D01*
X104333333Y-76370095D02*
X104257142Y-76370095D01*
X104257142Y-76370095D02*
X104142856Y-76332000D01*
X104142856Y-76332000D02*
X104066666Y-76255809D01*
X104066666Y-76255809D02*
X104028571Y-76179619D01*
X104028571Y-76179619D02*
X103990475Y-76027238D01*
X103990475Y-76027238D02*
X103990475Y-75912952D01*
X103990475Y-75912952D02*
X104028571Y-75760571D01*
X104028571Y-75760571D02*
X104066666Y-75684380D01*
X104066666Y-75684380D02*
X104142856Y-75608190D01*
X104142856Y-75608190D02*
X104257142Y-75570095D01*
X104257142Y-75570095D02*
X104333333Y-75570095D01*
X104333333Y-75570095D02*
X104447618Y-75608190D01*
X104447618Y-75608190D02*
X104485714Y-75646285D01*
X105247618Y-76370095D02*
X104790475Y-76370095D01*
X105019047Y-76370095D02*
X105019047Y-75570095D01*
X105019047Y-75570095D02*
X104942856Y-75684380D01*
X104942856Y-75684380D02*
X104866666Y-75760571D01*
X104866666Y-75760571D02*
X104790475Y-75798666D01*
X105514285Y-75570095D02*
X106047619Y-75570095D01*
X106047619Y-75570095D02*
X105704761Y-76370095D01*
%TO.C,R12*%
X79462619Y-60467857D02*
X78986428Y-60801190D01*
X79462619Y-61039285D02*
X78462619Y-61039285D01*
X78462619Y-61039285D02*
X78462619Y-60658333D01*
X78462619Y-60658333D02*
X78510238Y-60563095D01*
X78510238Y-60563095D02*
X78557857Y-60515476D01*
X78557857Y-60515476D02*
X78653095Y-60467857D01*
X78653095Y-60467857D02*
X78795952Y-60467857D01*
X78795952Y-60467857D02*
X78891190Y-60515476D01*
X78891190Y-60515476D02*
X78938809Y-60563095D01*
X78938809Y-60563095D02*
X78986428Y-60658333D01*
X78986428Y-60658333D02*
X78986428Y-61039285D01*
X79462619Y-59515476D02*
X79462619Y-60086904D01*
X79462619Y-59801190D02*
X78462619Y-59801190D01*
X78462619Y-59801190D02*
X78605476Y-59896428D01*
X78605476Y-59896428D02*
X78700714Y-59991666D01*
X78700714Y-59991666D02*
X78748333Y-60086904D01*
X78557857Y-59134523D02*
X78510238Y-59086904D01*
X78510238Y-59086904D02*
X78462619Y-58991666D01*
X78462619Y-58991666D02*
X78462619Y-58753571D01*
X78462619Y-58753571D02*
X78510238Y-58658333D01*
X78510238Y-58658333D02*
X78557857Y-58610714D01*
X78557857Y-58610714D02*
X78653095Y-58563095D01*
X78653095Y-58563095D02*
X78748333Y-58563095D01*
X78748333Y-58563095D02*
X78891190Y-58610714D01*
X78891190Y-58610714D02*
X79462619Y-59182142D01*
X79462619Y-59182142D02*
X79462619Y-58563095D01*
%TO.C,C16*%
X107485714Y-69043904D02*
X107447618Y-69082000D01*
X107447618Y-69082000D02*
X107333333Y-69120095D01*
X107333333Y-69120095D02*
X107257142Y-69120095D01*
X107257142Y-69120095D02*
X107142856Y-69082000D01*
X107142856Y-69082000D02*
X107066666Y-69005809D01*
X107066666Y-69005809D02*
X107028571Y-68929619D01*
X107028571Y-68929619D02*
X106990475Y-68777238D01*
X106990475Y-68777238D02*
X106990475Y-68662952D01*
X106990475Y-68662952D02*
X107028571Y-68510571D01*
X107028571Y-68510571D02*
X107066666Y-68434380D01*
X107066666Y-68434380D02*
X107142856Y-68358190D01*
X107142856Y-68358190D02*
X107257142Y-68320095D01*
X107257142Y-68320095D02*
X107333333Y-68320095D01*
X107333333Y-68320095D02*
X107447618Y-68358190D01*
X107447618Y-68358190D02*
X107485714Y-68396285D01*
X108247618Y-69120095D02*
X107790475Y-69120095D01*
X108019047Y-69120095D02*
X108019047Y-68320095D01*
X108019047Y-68320095D02*
X107942856Y-68434380D01*
X107942856Y-68434380D02*
X107866666Y-68510571D01*
X107866666Y-68510571D02*
X107790475Y-68548666D01*
X108933333Y-68320095D02*
X108780952Y-68320095D01*
X108780952Y-68320095D02*
X108704761Y-68358190D01*
X108704761Y-68358190D02*
X108666666Y-68396285D01*
X108666666Y-68396285D02*
X108590476Y-68510571D01*
X108590476Y-68510571D02*
X108552380Y-68662952D01*
X108552380Y-68662952D02*
X108552380Y-68967714D01*
X108552380Y-68967714D02*
X108590476Y-69043904D01*
X108590476Y-69043904D02*
X108628571Y-69082000D01*
X108628571Y-69082000D02*
X108704761Y-69120095D01*
X108704761Y-69120095D02*
X108857142Y-69120095D01*
X108857142Y-69120095D02*
X108933333Y-69082000D01*
X108933333Y-69082000D02*
X108971428Y-69043904D01*
X108971428Y-69043904D02*
X109009523Y-68967714D01*
X109009523Y-68967714D02*
X109009523Y-68777238D01*
X109009523Y-68777238D02*
X108971428Y-68701047D01*
X108971428Y-68701047D02*
X108933333Y-68662952D01*
X108933333Y-68662952D02*
X108857142Y-68624857D01*
X108857142Y-68624857D02*
X108704761Y-68624857D01*
X108704761Y-68624857D02*
X108628571Y-68662952D01*
X108628571Y-68662952D02*
X108590476Y-68701047D01*
X108590476Y-68701047D02*
X108552380Y-68777238D01*
%TO.C,J2*%
X67416666Y-90462619D02*
X67416666Y-91176904D01*
X67416666Y-91176904D02*
X67369047Y-91319761D01*
X67369047Y-91319761D02*
X67273809Y-91415000D01*
X67273809Y-91415000D02*
X67130952Y-91462619D01*
X67130952Y-91462619D02*
X67035714Y-91462619D01*
X67845238Y-90557857D02*
X67892857Y-90510238D01*
X67892857Y-90510238D02*
X67988095Y-90462619D01*
X67988095Y-90462619D02*
X68226190Y-90462619D01*
X68226190Y-90462619D02*
X68321428Y-90510238D01*
X68321428Y-90510238D02*
X68369047Y-90557857D01*
X68369047Y-90557857D02*
X68416666Y-90653095D01*
X68416666Y-90653095D02*
X68416666Y-90748333D01*
X68416666Y-90748333D02*
X68369047Y-90891190D01*
X68369047Y-90891190D02*
X67797619Y-91462619D01*
X67797619Y-91462619D02*
X68416666Y-91462619D01*
X67226191Y-92915000D02*
X67369048Y-92962619D01*
X67369048Y-92962619D02*
X67607143Y-92962619D01*
X67607143Y-92962619D02*
X67702381Y-92915000D01*
X67702381Y-92915000D02*
X67750000Y-92867380D01*
X67750000Y-92867380D02*
X67797619Y-92772142D01*
X67797619Y-92772142D02*
X67797619Y-92676904D01*
X67797619Y-92676904D02*
X67750000Y-92581666D01*
X67750000Y-92581666D02*
X67702381Y-92534047D01*
X67702381Y-92534047D02*
X67607143Y-92486428D01*
X67607143Y-92486428D02*
X67416667Y-92438809D01*
X67416667Y-92438809D02*
X67321429Y-92391190D01*
X67321429Y-92391190D02*
X67273810Y-92343571D01*
X67273810Y-92343571D02*
X67226191Y-92248333D01*
X67226191Y-92248333D02*
X67226191Y-92153095D01*
X67226191Y-92153095D02*
X67273810Y-92057857D01*
X67273810Y-92057857D02*
X67321429Y-92010238D01*
X67321429Y-92010238D02*
X67416667Y-91962619D01*
X67416667Y-91962619D02*
X67654762Y-91962619D01*
X67654762Y-91962619D02*
X67797619Y-92010238D01*
X68226191Y-92962619D02*
X68226191Y-91962619D01*
X68226191Y-91962619D02*
X68607143Y-91962619D01*
X68607143Y-91962619D02*
X68702381Y-92010238D01*
X68702381Y-92010238D02*
X68750000Y-92057857D01*
X68750000Y-92057857D02*
X68797619Y-92153095D01*
X68797619Y-92153095D02*
X68797619Y-92295952D01*
X68797619Y-92295952D02*
X68750000Y-92391190D01*
X68750000Y-92391190D02*
X68702381Y-92438809D01*
X68702381Y-92438809D02*
X68607143Y-92486428D01*
X68607143Y-92486428D02*
X68226191Y-92486428D01*
X69226191Y-92962619D02*
X69226191Y-91962619D01*
%TO.C,R3*%
X55712619Y-83416666D02*
X55236428Y-83749999D01*
X55712619Y-83988094D02*
X54712619Y-83988094D01*
X54712619Y-83988094D02*
X54712619Y-83607142D01*
X54712619Y-83607142D02*
X54760238Y-83511904D01*
X54760238Y-83511904D02*
X54807857Y-83464285D01*
X54807857Y-83464285D02*
X54903095Y-83416666D01*
X54903095Y-83416666D02*
X55045952Y-83416666D01*
X55045952Y-83416666D02*
X55141190Y-83464285D01*
X55141190Y-83464285D02*
X55188809Y-83511904D01*
X55188809Y-83511904D02*
X55236428Y-83607142D01*
X55236428Y-83607142D02*
X55236428Y-83988094D01*
X54712619Y-83083332D02*
X54712619Y-82464285D01*
X54712619Y-82464285D02*
X55093571Y-82797618D01*
X55093571Y-82797618D02*
X55093571Y-82654761D01*
X55093571Y-82654761D02*
X55141190Y-82559523D01*
X55141190Y-82559523D02*
X55188809Y-82511904D01*
X55188809Y-82511904D02*
X55284047Y-82464285D01*
X55284047Y-82464285D02*
X55522142Y-82464285D01*
X55522142Y-82464285D02*
X55617380Y-82511904D01*
X55617380Y-82511904D02*
X55665000Y-82559523D01*
X55665000Y-82559523D02*
X55712619Y-82654761D01*
X55712619Y-82654761D02*
X55712619Y-82940475D01*
X55712619Y-82940475D02*
X55665000Y-83035713D01*
X55665000Y-83035713D02*
X55617380Y-83083332D01*
%TO.C,TP4*%
X85840476Y-74315333D02*
X86450000Y-74315333D01*
X87249999Y-74620095D02*
X86792856Y-74620095D01*
X87021428Y-74620095D02*
X87021428Y-73820095D01*
X87021428Y-73820095D02*
X86945237Y-73934380D01*
X86945237Y-73934380D02*
X86869047Y-74010571D01*
X86869047Y-74010571D02*
X86792856Y-74048666D01*
X87973809Y-73820095D02*
X87592857Y-73820095D01*
X87592857Y-73820095D02*
X87554761Y-74201047D01*
X87554761Y-74201047D02*
X87592857Y-74162952D01*
X87592857Y-74162952D02*
X87669047Y-74124857D01*
X87669047Y-74124857D02*
X87859523Y-74124857D01*
X87859523Y-74124857D02*
X87935714Y-74162952D01*
X87935714Y-74162952D02*
X87973809Y-74201047D01*
X87973809Y-74201047D02*
X88011904Y-74277238D01*
X88011904Y-74277238D02*
X88011904Y-74467714D01*
X88011904Y-74467714D02*
X87973809Y-74543904D01*
X87973809Y-74543904D02*
X87935714Y-74582000D01*
X87935714Y-74582000D02*
X87859523Y-74620095D01*
X87859523Y-74620095D02*
X87669047Y-74620095D01*
X87669047Y-74620095D02*
X87592857Y-74582000D01*
X87592857Y-74582000D02*
X87554761Y-74543904D01*
X88240476Y-73820095D02*
X88507143Y-74620095D01*
X88507143Y-74620095D02*
X88773809Y-73820095D01*
%TO.C,R2*%
X107616667Y-64370095D02*
X107350000Y-63989142D01*
X107159524Y-64370095D02*
X107159524Y-63570095D01*
X107159524Y-63570095D02*
X107464286Y-63570095D01*
X107464286Y-63570095D02*
X107540476Y-63608190D01*
X107540476Y-63608190D02*
X107578571Y-63646285D01*
X107578571Y-63646285D02*
X107616667Y-63722476D01*
X107616667Y-63722476D02*
X107616667Y-63836761D01*
X107616667Y-63836761D02*
X107578571Y-63912952D01*
X107578571Y-63912952D02*
X107540476Y-63951047D01*
X107540476Y-63951047D02*
X107464286Y-63989142D01*
X107464286Y-63989142D02*
X107159524Y-63989142D01*
X107921428Y-63646285D02*
X107959524Y-63608190D01*
X107959524Y-63608190D02*
X108035714Y-63570095D01*
X108035714Y-63570095D02*
X108226190Y-63570095D01*
X108226190Y-63570095D02*
X108302381Y-63608190D01*
X108302381Y-63608190D02*
X108340476Y-63646285D01*
X108340476Y-63646285D02*
X108378571Y-63722476D01*
X108378571Y-63722476D02*
X108378571Y-63798666D01*
X108378571Y-63798666D02*
X108340476Y-63912952D01*
X108340476Y-63912952D02*
X107883333Y-64370095D01*
X107883333Y-64370095D02*
X108378571Y-64370095D01*
%TO.C,D2*%
X57212619Y-75238094D02*
X56212619Y-75238094D01*
X56212619Y-75238094D02*
X56212619Y-74999999D01*
X56212619Y-74999999D02*
X56260238Y-74857142D01*
X56260238Y-74857142D02*
X56355476Y-74761904D01*
X56355476Y-74761904D02*
X56450714Y-74714285D01*
X56450714Y-74714285D02*
X56641190Y-74666666D01*
X56641190Y-74666666D02*
X56784047Y-74666666D01*
X56784047Y-74666666D02*
X56974523Y-74714285D01*
X56974523Y-74714285D02*
X57069761Y-74761904D01*
X57069761Y-74761904D02*
X57165000Y-74857142D01*
X57165000Y-74857142D02*
X57212619Y-74999999D01*
X57212619Y-74999999D02*
X57212619Y-75238094D01*
X56307857Y-74285713D02*
X56260238Y-74238094D01*
X56260238Y-74238094D02*
X56212619Y-74142856D01*
X56212619Y-74142856D02*
X56212619Y-73904761D01*
X56212619Y-73904761D02*
X56260238Y-73809523D01*
X56260238Y-73809523D02*
X56307857Y-73761904D01*
X56307857Y-73761904D02*
X56403095Y-73714285D01*
X56403095Y-73714285D02*
X56498333Y-73714285D01*
X56498333Y-73714285D02*
X56641190Y-73761904D01*
X56641190Y-73761904D02*
X57212619Y-74333332D01*
X57212619Y-74333332D02*
X57212619Y-73714285D01*
%TO.C,TP2*%
X89336667Y-56065333D02*
X89946191Y-56065333D01*
X89641429Y-56370095D02*
X89641429Y-55760571D01*
X90250952Y-55570095D02*
X90746190Y-55570095D01*
X90746190Y-55570095D02*
X90479524Y-55874857D01*
X90479524Y-55874857D02*
X90593809Y-55874857D01*
X90593809Y-55874857D02*
X90670000Y-55912952D01*
X90670000Y-55912952D02*
X90708095Y-55951047D01*
X90708095Y-55951047D02*
X90746190Y-56027238D01*
X90746190Y-56027238D02*
X90746190Y-56217714D01*
X90746190Y-56217714D02*
X90708095Y-56293904D01*
X90708095Y-56293904D02*
X90670000Y-56332000D01*
X90670000Y-56332000D02*
X90593809Y-56370095D01*
X90593809Y-56370095D02*
X90365238Y-56370095D01*
X90365238Y-56370095D02*
X90289047Y-56332000D01*
X90289047Y-56332000D02*
X90250952Y-56293904D01*
X91089048Y-56293904D02*
X91127143Y-56332000D01*
X91127143Y-56332000D02*
X91089048Y-56370095D01*
X91089048Y-56370095D02*
X91050952Y-56332000D01*
X91050952Y-56332000D02*
X91089048Y-56293904D01*
X91089048Y-56293904D02*
X91089048Y-56370095D01*
X91393809Y-55570095D02*
X91889047Y-55570095D01*
X91889047Y-55570095D02*
X91622381Y-55874857D01*
X91622381Y-55874857D02*
X91736666Y-55874857D01*
X91736666Y-55874857D02*
X91812857Y-55912952D01*
X91812857Y-55912952D02*
X91850952Y-55951047D01*
X91850952Y-55951047D02*
X91889047Y-56027238D01*
X91889047Y-56027238D02*
X91889047Y-56217714D01*
X91889047Y-56217714D02*
X91850952Y-56293904D01*
X91850952Y-56293904D02*
X91812857Y-56332000D01*
X91812857Y-56332000D02*
X91736666Y-56370095D01*
X91736666Y-56370095D02*
X91508095Y-56370095D01*
X91508095Y-56370095D02*
X91431904Y-56332000D01*
X91431904Y-56332000D02*
X91393809Y-56293904D01*
X92117619Y-55570095D02*
X92384286Y-56370095D01*
X92384286Y-56370095D02*
X92650952Y-55570095D01*
X92860476Y-56233333D02*
X93047143Y-56233333D01*
X93127143Y-56526666D02*
X92860476Y-56526666D01*
X92860476Y-56526666D02*
X92860476Y-55966666D01*
X92860476Y-55966666D02*
X93127143Y-55966666D01*
X93367143Y-56526666D02*
X93367143Y-55966666D01*
X93367143Y-55966666D02*
X93580476Y-55966666D01*
X93580476Y-55966666D02*
X93633810Y-55993333D01*
X93633810Y-55993333D02*
X93660476Y-56020000D01*
X93660476Y-56020000D02*
X93687143Y-56073333D01*
X93687143Y-56073333D02*
X93687143Y-56153333D01*
X93687143Y-56153333D02*
X93660476Y-56206666D01*
X93660476Y-56206666D02*
X93633810Y-56233333D01*
X93633810Y-56233333D02*
X93580476Y-56260000D01*
X93580476Y-56260000D02*
X93367143Y-56260000D01*
X93927143Y-56526666D02*
X93927143Y-55966666D01*
X93927143Y-55966666D02*
X94060476Y-55966666D01*
X94060476Y-55966666D02*
X94140476Y-55993333D01*
X94140476Y-55993333D02*
X94193810Y-56046666D01*
X94193810Y-56046666D02*
X94220476Y-56100000D01*
X94220476Y-56100000D02*
X94247143Y-56206666D01*
X94247143Y-56206666D02*
X94247143Y-56286666D01*
X94247143Y-56286666D02*
X94220476Y-56393333D01*
X94220476Y-56393333D02*
X94193810Y-56446666D01*
X94193810Y-56446666D02*
X94140476Y-56500000D01*
X94140476Y-56500000D02*
X94060476Y-56526666D01*
X94060476Y-56526666D02*
X93927143Y-56526666D01*
%TO.C,C8*%
X99116667Y-63478904D02*
X99078571Y-63517000D01*
X99078571Y-63517000D02*
X98964286Y-63555095D01*
X98964286Y-63555095D02*
X98888095Y-63555095D01*
X98888095Y-63555095D02*
X98773809Y-63517000D01*
X98773809Y-63517000D02*
X98697619Y-63440809D01*
X98697619Y-63440809D02*
X98659524Y-63364619D01*
X98659524Y-63364619D02*
X98621428Y-63212238D01*
X98621428Y-63212238D02*
X98621428Y-63097952D01*
X98621428Y-63097952D02*
X98659524Y-62945571D01*
X98659524Y-62945571D02*
X98697619Y-62869380D01*
X98697619Y-62869380D02*
X98773809Y-62793190D01*
X98773809Y-62793190D02*
X98888095Y-62755095D01*
X98888095Y-62755095D02*
X98964286Y-62755095D01*
X98964286Y-62755095D02*
X99078571Y-62793190D01*
X99078571Y-62793190D02*
X99116667Y-62831285D01*
X99573809Y-63097952D02*
X99497619Y-63059857D01*
X99497619Y-63059857D02*
X99459524Y-63021761D01*
X99459524Y-63021761D02*
X99421428Y-62945571D01*
X99421428Y-62945571D02*
X99421428Y-62907476D01*
X99421428Y-62907476D02*
X99459524Y-62831285D01*
X99459524Y-62831285D02*
X99497619Y-62793190D01*
X99497619Y-62793190D02*
X99573809Y-62755095D01*
X99573809Y-62755095D02*
X99726190Y-62755095D01*
X99726190Y-62755095D02*
X99802381Y-62793190D01*
X99802381Y-62793190D02*
X99840476Y-62831285D01*
X99840476Y-62831285D02*
X99878571Y-62907476D01*
X99878571Y-62907476D02*
X99878571Y-62945571D01*
X99878571Y-62945571D02*
X99840476Y-63021761D01*
X99840476Y-63021761D02*
X99802381Y-63059857D01*
X99802381Y-63059857D02*
X99726190Y-63097952D01*
X99726190Y-63097952D02*
X99573809Y-63097952D01*
X99573809Y-63097952D02*
X99497619Y-63136047D01*
X99497619Y-63136047D02*
X99459524Y-63174142D01*
X99459524Y-63174142D02*
X99421428Y-63250333D01*
X99421428Y-63250333D02*
X99421428Y-63402714D01*
X99421428Y-63402714D02*
X99459524Y-63478904D01*
X99459524Y-63478904D02*
X99497619Y-63517000D01*
X99497619Y-63517000D02*
X99573809Y-63555095D01*
X99573809Y-63555095D02*
X99726190Y-63555095D01*
X99726190Y-63555095D02*
X99802381Y-63517000D01*
X99802381Y-63517000D02*
X99840476Y-63478904D01*
X99840476Y-63478904D02*
X99878571Y-63402714D01*
X99878571Y-63402714D02*
X99878571Y-63250333D01*
X99878571Y-63250333D02*
X99840476Y-63174142D01*
X99840476Y-63174142D02*
X99802381Y-63136047D01*
X99802381Y-63136047D02*
X99726190Y-63097952D01*
%TO.C,C20*%
X60043904Y-64514285D02*
X60082000Y-64552381D01*
X60082000Y-64552381D02*
X60120095Y-64666666D01*
X60120095Y-64666666D02*
X60120095Y-64742857D01*
X60120095Y-64742857D02*
X60082000Y-64857143D01*
X60082000Y-64857143D02*
X60005809Y-64933333D01*
X60005809Y-64933333D02*
X59929619Y-64971428D01*
X59929619Y-64971428D02*
X59777238Y-65009524D01*
X59777238Y-65009524D02*
X59662952Y-65009524D01*
X59662952Y-65009524D02*
X59510571Y-64971428D01*
X59510571Y-64971428D02*
X59434380Y-64933333D01*
X59434380Y-64933333D02*
X59358190Y-64857143D01*
X59358190Y-64857143D02*
X59320095Y-64742857D01*
X59320095Y-64742857D02*
X59320095Y-64666666D01*
X59320095Y-64666666D02*
X59358190Y-64552381D01*
X59358190Y-64552381D02*
X59396285Y-64514285D01*
X59396285Y-64209524D02*
X59358190Y-64171428D01*
X59358190Y-64171428D02*
X59320095Y-64095238D01*
X59320095Y-64095238D02*
X59320095Y-63904762D01*
X59320095Y-63904762D02*
X59358190Y-63828571D01*
X59358190Y-63828571D02*
X59396285Y-63790476D01*
X59396285Y-63790476D02*
X59472476Y-63752381D01*
X59472476Y-63752381D02*
X59548666Y-63752381D01*
X59548666Y-63752381D02*
X59662952Y-63790476D01*
X59662952Y-63790476D02*
X60120095Y-64247619D01*
X60120095Y-64247619D02*
X60120095Y-63752381D01*
X59320095Y-63257142D02*
X59320095Y-63180952D01*
X59320095Y-63180952D02*
X59358190Y-63104761D01*
X59358190Y-63104761D02*
X59396285Y-63066666D01*
X59396285Y-63066666D02*
X59472476Y-63028571D01*
X59472476Y-63028571D02*
X59624857Y-62990476D01*
X59624857Y-62990476D02*
X59815333Y-62990476D01*
X59815333Y-62990476D02*
X59967714Y-63028571D01*
X59967714Y-63028571D02*
X60043904Y-63066666D01*
X60043904Y-63066666D02*
X60082000Y-63104761D01*
X60082000Y-63104761D02*
X60120095Y-63180952D01*
X60120095Y-63180952D02*
X60120095Y-63257142D01*
X60120095Y-63257142D02*
X60082000Y-63333333D01*
X60082000Y-63333333D02*
X60043904Y-63371428D01*
X60043904Y-63371428D02*
X59967714Y-63409523D01*
X59967714Y-63409523D02*
X59815333Y-63447619D01*
X59815333Y-63447619D02*
X59624857Y-63447619D01*
X59624857Y-63447619D02*
X59472476Y-63409523D01*
X59472476Y-63409523D02*
X59396285Y-63371428D01*
X59396285Y-63371428D02*
X59358190Y-63333333D01*
X59358190Y-63333333D02*
X59320095Y-63257142D01*
%TO.C,J4*%
X76666666Y-52075119D02*
X76666666Y-52789404D01*
X76666666Y-52789404D02*
X76619047Y-52932261D01*
X76619047Y-52932261D02*
X76523809Y-53027500D01*
X76523809Y-53027500D02*
X76380952Y-53075119D01*
X76380952Y-53075119D02*
X76285714Y-53075119D01*
X77571428Y-52408452D02*
X77571428Y-53075119D01*
X77333333Y-52027500D02*
X77095238Y-52741785D01*
X77095238Y-52741785D02*
X77714285Y-52741785D01*
X79107142Y-50310000D02*
X78964285Y-50262380D01*
X78964285Y-50262380D02*
X78726190Y-50262380D01*
X78726190Y-50262380D02*
X78630952Y-50310000D01*
X78630952Y-50310000D02*
X78583333Y-50357619D01*
X78583333Y-50357619D02*
X78535714Y-50452857D01*
X78535714Y-50452857D02*
X78535714Y-50548095D01*
X78535714Y-50548095D02*
X78583333Y-50643333D01*
X78583333Y-50643333D02*
X78630952Y-50690952D01*
X78630952Y-50690952D02*
X78726190Y-50738571D01*
X78726190Y-50738571D02*
X78916666Y-50786190D01*
X78916666Y-50786190D02*
X79011904Y-50833809D01*
X79011904Y-50833809D02*
X79059523Y-50881428D01*
X79059523Y-50881428D02*
X79107142Y-50976666D01*
X79107142Y-50976666D02*
X79107142Y-51071904D01*
X79107142Y-51071904D02*
X79059523Y-51167142D01*
X79059523Y-51167142D02*
X79011904Y-51214761D01*
X79011904Y-51214761D02*
X78916666Y-51262380D01*
X78916666Y-51262380D02*
X78678571Y-51262380D01*
X78678571Y-51262380D02*
X78535714Y-51214761D01*
X78202380Y-51262380D02*
X77964285Y-50262380D01*
X77964285Y-50262380D02*
X77773809Y-50976666D01*
X77773809Y-50976666D02*
X77583333Y-50262380D01*
X77583333Y-50262380D02*
X77345238Y-51262380D01*
X76964285Y-50262380D02*
X76964285Y-51262380D01*
X76964285Y-51262380D02*
X76726190Y-51262380D01*
X76726190Y-51262380D02*
X76583333Y-51214761D01*
X76583333Y-51214761D02*
X76488095Y-51119523D01*
X76488095Y-51119523D02*
X76440476Y-51024285D01*
X76440476Y-51024285D02*
X76392857Y-50833809D01*
X76392857Y-50833809D02*
X76392857Y-50690952D01*
X76392857Y-50690952D02*
X76440476Y-50500476D01*
X76440476Y-50500476D02*
X76488095Y-50405238D01*
X76488095Y-50405238D02*
X76583333Y-50310000D01*
X76583333Y-50310000D02*
X76726190Y-50262380D01*
X76726190Y-50262380D02*
X76964285Y-50262380D01*
%TO.C,R1*%
X110866667Y-66620095D02*
X110600000Y-66239142D01*
X110409524Y-66620095D02*
X110409524Y-65820095D01*
X110409524Y-65820095D02*
X110714286Y-65820095D01*
X110714286Y-65820095D02*
X110790476Y-65858190D01*
X110790476Y-65858190D02*
X110828571Y-65896285D01*
X110828571Y-65896285D02*
X110866667Y-65972476D01*
X110866667Y-65972476D02*
X110866667Y-66086761D01*
X110866667Y-66086761D02*
X110828571Y-66162952D01*
X110828571Y-66162952D02*
X110790476Y-66201047D01*
X110790476Y-66201047D02*
X110714286Y-66239142D01*
X110714286Y-66239142D02*
X110409524Y-66239142D01*
X111628571Y-66620095D02*
X111171428Y-66620095D01*
X111400000Y-66620095D02*
X111400000Y-65820095D01*
X111400000Y-65820095D02*
X111323809Y-65934380D01*
X111323809Y-65934380D02*
X111247619Y-66010571D01*
X111247619Y-66010571D02*
X111171428Y-66048666D01*
%TO.C,R7*%
X79870095Y-72633332D02*
X79489142Y-72899999D01*
X79870095Y-73090475D02*
X79070095Y-73090475D01*
X79070095Y-73090475D02*
X79070095Y-72785713D01*
X79070095Y-72785713D02*
X79108190Y-72709523D01*
X79108190Y-72709523D02*
X79146285Y-72671428D01*
X79146285Y-72671428D02*
X79222476Y-72633332D01*
X79222476Y-72633332D02*
X79336761Y-72633332D01*
X79336761Y-72633332D02*
X79412952Y-72671428D01*
X79412952Y-72671428D02*
X79451047Y-72709523D01*
X79451047Y-72709523D02*
X79489142Y-72785713D01*
X79489142Y-72785713D02*
X79489142Y-73090475D01*
X79070095Y-72366666D02*
X79070095Y-71833332D01*
X79070095Y-71833332D02*
X79870095Y-72176190D01*
%TO.C,TP9*%
X89526191Y-60370095D02*
X89526191Y-59570095D01*
X89907143Y-60370095D02*
X89907143Y-59570095D01*
X89907143Y-59570095D02*
X90364286Y-60370095D01*
X90364286Y-60370095D02*
X90364286Y-59570095D01*
X90630952Y-59570095D02*
X91088095Y-59570095D01*
X90859523Y-60370095D02*
X90859523Y-59570095D01*
X89415715Y-59212000D02*
X91084286Y-59212000D01*
%TO.C,C11*%
X83485714Y-67543904D02*
X83447618Y-67582000D01*
X83447618Y-67582000D02*
X83333333Y-67620095D01*
X83333333Y-67620095D02*
X83257142Y-67620095D01*
X83257142Y-67620095D02*
X83142856Y-67582000D01*
X83142856Y-67582000D02*
X83066666Y-67505809D01*
X83066666Y-67505809D02*
X83028571Y-67429619D01*
X83028571Y-67429619D02*
X82990475Y-67277238D01*
X82990475Y-67277238D02*
X82990475Y-67162952D01*
X82990475Y-67162952D02*
X83028571Y-67010571D01*
X83028571Y-67010571D02*
X83066666Y-66934380D01*
X83066666Y-66934380D02*
X83142856Y-66858190D01*
X83142856Y-66858190D02*
X83257142Y-66820095D01*
X83257142Y-66820095D02*
X83333333Y-66820095D01*
X83333333Y-66820095D02*
X83447618Y-66858190D01*
X83447618Y-66858190D02*
X83485714Y-66896285D01*
X84247618Y-67620095D02*
X83790475Y-67620095D01*
X84019047Y-67620095D02*
X84019047Y-66820095D01*
X84019047Y-66820095D02*
X83942856Y-66934380D01*
X83942856Y-66934380D02*
X83866666Y-67010571D01*
X83866666Y-67010571D02*
X83790475Y-67048666D01*
X85009523Y-67620095D02*
X84552380Y-67620095D01*
X84780952Y-67620095D02*
X84780952Y-66820095D01*
X84780952Y-66820095D02*
X84704761Y-66934380D01*
X84704761Y-66934380D02*
X84628571Y-67010571D01*
X84628571Y-67010571D02*
X84552380Y-67048666D01*
%TO.C,C31*%
X80367380Y-83642857D02*
X80415000Y-83690476D01*
X80415000Y-83690476D02*
X80462619Y-83833333D01*
X80462619Y-83833333D02*
X80462619Y-83928571D01*
X80462619Y-83928571D02*
X80415000Y-84071428D01*
X80415000Y-84071428D02*
X80319761Y-84166666D01*
X80319761Y-84166666D02*
X80224523Y-84214285D01*
X80224523Y-84214285D02*
X80034047Y-84261904D01*
X80034047Y-84261904D02*
X79891190Y-84261904D01*
X79891190Y-84261904D02*
X79700714Y-84214285D01*
X79700714Y-84214285D02*
X79605476Y-84166666D01*
X79605476Y-84166666D02*
X79510238Y-84071428D01*
X79510238Y-84071428D02*
X79462619Y-83928571D01*
X79462619Y-83928571D02*
X79462619Y-83833333D01*
X79462619Y-83833333D02*
X79510238Y-83690476D01*
X79510238Y-83690476D02*
X79557857Y-83642857D01*
X79462619Y-83309523D02*
X79462619Y-82690476D01*
X79462619Y-82690476D02*
X79843571Y-83023809D01*
X79843571Y-83023809D02*
X79843571Y-82880952D01*
X79843571Y-82880952D02*
X79891190Y-82785714D01*
X79891190Y-82785714D02*
X79938809Y-82738095D01*
X79938809Y-82738095D02*
X80034047Y-82690476D01*
X80034047Y-82690476D02*
X80272142Y-82690476D01*
X80272142Y-82690476D02*
X80367380Y-82738095D01*
X80367380Y-82738095D02*
X80415000Y-82785714D01*
X80415000Y-82785714D02*
X80462619Y-82880952D01*
X80462619Y-82880952D02*
X80462619Y-83166666D01*
X80462619Y-83166666D02*
X80415000Y-83261904D01*
X80415000Y-83261904D02*
X80367380Y-83309523D01*
X80462619Y-81738095D02*
X80462619Y-82309523D01*
X80462619Y-82023809D02*
X79462619Y-82023809D01*
X79462619Y-82023809D02*
X79605476Y-82119047D01*
X79605476Y-82119047D02*
X79700714Y-82214285D01*
X79700714Y-82214285D02*
X79748333Y-82309523D01*
%TO.C,C39*%
X71632142Y-93117380D02*
X71584523Y-93165000D01*
X71584523Y-93165000D02*
X71441666Y-93212619D01*
X71441666Y-93212619D02*
X71346428Y-93212619D01*
X71346428Y-93212619D02*
X71203571Y-93165000D01*
X71203571Y-93165000D02*
X71108333Y-93069761D01*
X71108333Y-93069761D02*
X71060714Y-92974523D01*
X71060714Y-92974523D02*
X71013095Y-92784047D01*
X71013095Y-92784047D02*
X71013095Y-92641190D01*
X71013095Y-92641190D02*
X71060714Y-92450714D01*
X71060714Y-92450714D02*
X71108333Y-92355476D01*
X71108333Y-92355476D02*
X71203571Y-92260238D01*
X71203571Y-92260238D02*
X71346428Y-92212619D01*
X71346428Y-92212619D02*
X71441666Y-92212619D01*
X71441666Y-92212619D02*
X71584523Y-92260238D01*
X71584523Y-92260238D02*
X71632142Y-92307857D01*
X71965476Y-92212619D02*
X72584523Y-92212619D01*
X72584523Y-92212619D02*
X72251190Y-92593571D01*
X72251190Y-92593571D02*
X72394047Y-92593571D01*
X72394047Y-92593571D02*
X72489285Y-92641190D01*
X72489285Y-92641190D02*
X72536904Y-92688809D01*
X72536904Y-92688809D02*
X72584523Y-92784047D01*
X72584523Y-92784047D02*
X72584523Y-93022142D01*
X72584523Y-93022142D02*
X72536904Y-93117380D01*
X72536904Y-93117380D02*
X72489285Y-93165000D01*
X72489285Y-93165000D02*
X72394047Y-93212619D01*
X72394047Y-93212619D02*
X72108333Y-93212619D01*
X72108333Y-93212619D02*
X72013095Y-93165000D01*
X72013095Y-93165000D02*
X71965476Y-93117380D01*
X73060714Y-93212619D02*
X73251190Y-93212619D01*
X73251190Y-93212619D02*
X73346428Y-93165000D01*
X73346428Y-93165000D02*
X73394047Y-93117380D01*
X73394047Y-93117380D02*
X73489285Y-92974523D01*
X73489285Y-92974523D02*
X73536904Y-92784047D01*
X73536904Y-92784047D02*
X73536904Y-92403095D01*
X73536904Y-92403095D02*
X73489285Y-92307857D01*
X73489285Y-92307857D02*
X73441666Y-92260238D01*
X73441666Y-92260238D02*
X73346428Y-92212619D01*
X73346428Y-92212619D02*
X73155952Y-92212619D01*
X73155952Y-92212619D02*
X73060714Y-92260238D01*
X73060714Y-92260238D02*
X73013095Y-92307857D01*
X73013095Y-92307857D02*
X72965476Y-92403095D01*
X72965476Y-92403095D02*
X72965476Y-92641190D01*
X72965476Y-92641190D02*
X73013095Y-92736428D01*
X73013095Y-92736428D02*
X73060714Y-92784047D01*
X73060714Y-92784047D02*
X73155952Y-92831666D01*
X73155952Y-92831666D02*
X73346428Y-92831666D01*
X73346428Y-92831666D02*
X73441666Y-92784047D01*
X73441666Y-92784047D02*
X73489285Y-92736428D01*
X73489285Y-92736428D02*
X73536904Y-92641190D01*
%TO.C,D5*%
X117712619Y-73738094D02*
X116712619Y-73738094D01*
X116712619Y-73738094D02*
X116712619Y-73499999D01*
X116712619Y-73499999D02*
X116760238Y-73357142D01*
X116760238Y-73357142D02*
X116855476Y-73261904D01*
X116855476Y-73261904D02*
X116950714Y-73214285D01*
X116950714Y-73214285D02*
X117141190Y-73166666D01*
X117141190Y-73166666D02*
X117284047Y-73166666D01*
X117284047Y-73166666D02*
X117474523Y-73214285D01*
X117474523Y-73214285D02*
X117569761Y-73261904D01*
X117569761Y-73261904D02*
X117665000Y-73357142D01*
X117665000Y-73357142D02*
X117712619Y-73499999D01*
X117712619Y-73499999D02*
X117712619Y-73738094D01*
X116712619Y-72261904D02*
X116712619Y-72738094D01*
X116712619Y-72738094D02*
X117188809Y-72785713D01*
X117188809Y-72785713D02*
X117141190Y-72738094D01*
X117141190Y-72738094D02*
X117093571Y-72642856D01*
X117093571Y-72642856D02*
X117093571Y-72404761D01*
X117093571Y-72404761D02*
X117141190Y-72309523D01*
X117141190Y-72309523D02*
X117188809Y-72261904D01*
X117188809Y-72261904D02*
X117284047Y-72214285D01*
X117284047Y-72214285D02*
X117522142Y-72214285D01*
X117522142Y-72214285D02*
X117617380Y-72261904D01*
X117617380Y-72261904D02*
X117665000Y-72309523D01*
X117665000Y-72309523D02*
X117712619Y-72404761D01*
X117712619Y-72404761D02*
X117712619Y-72642856D01*
X117712619Y-72642856D02*
X117665000Y-72738094D01*
X117665000Y-72738094D02*
X117617380Y-72785713D01*
%TO.C,C38*%
X78037380Y-83642857D02*
X78085000Y-83690476D01*
X78085000Y-83690476D02*
X78132619Y-83833333D01*
X78132619Y-83833333D02*
X78132619Y-83928571D01*
X78132619Y-83928571D02*
X78085000Y-84071428D01*
X78085000Y-84071428D02*
X77989761Y-84166666D01*
X77989761Y-84166666D02*
X77894523Y-84214285D01*
X77894523Y-84214285D02*
X77704047Y-84261904D01*
X77704047Y-84261904D02*
X77561190Y-84261904D01*
X77561190Y-84261904D02*
X77370714Y-84214285D01*
X77370714Y-84214285D02*
X77275476Y-84166666D01*
X77275476Y-84166666D02*
X77180238Y-84071428D01*
X77180238Y-84071428D02*
X77132619Y-83928571D01*
X77132619Y-83928571D02*
X77132619Y-83833333D01*
X77132619Y-83833333D02*
X77180238Y-83690476D01*
X77180238Y-83690476D02*
X77227857Y-83642857D01*
X77132619Y-83309523D02*
X77132619Y-82690476D01*
X77132619Y-82690476D02*
X77513571Y-83023809D01*
X77513571Y-83023809D02*
X77513571Y-82880952D01*
X77513571Y-82880952D02*
X77561190Y-82785714D01*
X77561190Y-82785714D02*
X77608809Y-82738095D01*
X77608809Y-82738095D02*
X77704047Y-82690476D01*
X77704047Y-82690476D02*
X77942142Y-82690476D01*
X77942142Y-82690476D02*
X78037380Y-82738095D01*
X78037380Y-82738095D02*
X78085000Y-82785714D01*
X78085000Y-82785714D02*
X78132619Y-82880952D01*
X78132619Y-82880952D02*
X78132619Y-83166666D01*
X78132619Y-83166666D02*
X78085000Y-83261904D01*
X78085000Y-83261904D02*
X78037380Y-83309523D01*
X77561190Y-82119047D02*
X77513571Y-82214285D01*
X77513571Y-82214285D02*
X77465952Y-82261904D01*
X77465952Y-82261904D02*
X77370714Y-82309523D01*
X77370714Y-82309523D02*
X77323095Y-82309523D01*
X77323095Y-82309523D02*
X77227857Y-82261904D01*
X77227857Y-82261904D02*
X77180238Y-82214285D01*
X77180238Y-82214285D02*
X77132619Y-82119047D01*
X77132619Y-82119047D02*
X77132619Y-81928571D01*
X77132619Y-81928571D02*
X77180238Y-81833333D01*
X77180238Y-81833333D02*
X77227857Y-81785714D01*
X77227857Y-81785714D02*
X77323095Y-81738095D01*
X77323095Y-81738095D02*
X77370714Y-81738095D01*
X77370714Y-81738095D02*
X77465952Y-81785714D01*
X77465952Y-81785714D02*
X77513571Y-81833333D01*
X77513571Y-81833333D02*
X77561190Y-81928571D01*
X77561190Y-81928571D02*
X77561190Y-82119047D01*
X77561190Y-82119047D02*
X77608809Y-82214285D01*
X77608809Y-82214285D02*
X77656428Y-82261904D01*
X77656428Y-82261904D02*
X77751666Y-82309523D01*
X77751666Y-82309523D02*
X77942142Y-82309523D01*
X77942142Y-82309523D02*
X78037380Y-82261904D01*
X78037380Y-82261904D02*
X78085000Y-82214285D01*
X78085000Y-82214285D02*
X78132619Y-82119047D01*
X78132619Y-82119047D02*
X78132619Y-81928571D01*
X78132619Y-81928571D02*
X78085000Y-81833333D01*
X78085000Y-81833333D02*
X78037380Y-81785714D01*
X78037380Y-81785714D02*
X77942142Y-81738095D01*
X77942142Y-81738095D02*
X77751666Y-81738095D01*
X77751666Y-81738095D02*
X77656428Y-81785714D01*
X77656428Y-81785714D02*
X77608809Y-81833333D01*
X77608809Y-81833333D02*
X77561190Y-81928571D01*
%TO.C,C4*%
X91916667Y-61543904D02*
X91878571Y-61582000D01*
X91878571Y-61582000D02*
X91764286Y-61620095D01*
X91764286Y-61620095D02*
X91688095Y-61620095D01*
X91688095Y-61620095D02*
X91573809Y-61582000D01*
X91573809Y-61582000D02*
X91497619Y-61505809D01*
X91497619Y-61505809D02*
X91459524Y-61429619D01*
X91459524Y-61429619D02*
X91421428Y-61277238D01*
X91421428Y-61277238D02*
X91421428Y-61162952D01*
X91421428Y-61162952D02*
X91459524Y-61010571D01*
X91459524Y-61010571D02*
X91497619Y-60934380D01*
X91497619Y-60934380D02*
X91573809Y-60858190D01*
X91573809Y-60858190D02*
X91688095Y-60820095D01*
X91688095Y-60820095D02*
X91764286Y-60820095D01*
X91764286Y-60820095D02*
X91878571Y-60858190D01*
X91878571Y-60858190D02*
X91916667Y-60896285D01*
X92602381Y-61086761D02*
X92602381Y-61620095D01*
X92411905Y-60782000D02*
X92221428Y-61353428D01*
X92221428Y-61353428D02*
X92716667Y-61353428D01*
%TO.C,R4*%
X85116667Y-62555095D02*
X84850000Y-62174142D01*
X84659524Y-62555095D02*
X84659524Y-61755095D01*
X84659524Y-61755095D02*
X84964286Y-61755095D01*
X84964286Y-61755095D02*
X85040476Y-61793190D01*
X85040476Y-61793190D02*
X85078571Y-61831285D01*
X85078571Y-61831285D02*
X85116667Y-61907476D01*
X85116667Y-61907476D02*
X85116667Y-62021761D01*
X85116667Y-62021761D02*
X85078571Y-62097952D01*
X85078571Y-62097952D02*
X85040476Y-62136047D01*
X85040476Y-62136047D02*
X84964286Y-62174142D01*
X84964286Y-62174142D02*
X84659524Y-62174142D01*
X85802381Y-62021761D02*
X85802381Y-62555095D01*
X85611905Y-61717000D02*
X85421428Y-62288428D01*
X85421428Y-62288428D02*
X85916667Y-62288428D01*
%TO.C,R10*%
X63682142Y-57532619D02*
X63348809Y-57056428D01*
X63110714Y-57532619D02*
X63110714Y-56532619D01*
X63110714Y-56532619D02*
X63491666Y-56532619D01*
X63491666Y-56532619D02*
X63586904Y-56580238D01*
X63586904Y-56580238D02*
X63634523Y-56627857D01*
X63634523Y-56627857D02*
X63682142Y-56723095D01*
X63682142Y-56723095D02*
X63682142Y-56865952D01*
X63682142Y-56865952D02*
X63634523Y-56961190D01*
X63634523Y-56961190D02*
X63586904Y-57008809D01*
X63586904Y-57008809D02*
X63491666Y-57056428D01*
X63491666Y-57056428D02*
X63110714Y-57056428D01*
X64634523Y-57532619D02*
X64063095Y-57532619D01*
X64348809Y-57532619D02*
X64348809Y-56532619D01*
X64348809Y-56532619D02*
X64253571Y-56675476D01*
X64253571Y-56675476D02*
X64158333Y-56770714D01*
X64158333Y-56770714D02*
X64063095Y-56818333D01*
X65253571Y-56532619D02*
X65348809Y-56532619D01*
X65348809Y-56532619D02*
X65444047Y-56580238D01*
X65444047Y-56580238D02*
X65491666Y-56627857D01*
X65491666Y-56627857D02*
X65539285Y-56723095D01*
X65539285Y-56723095D02*
X65586904Y-56913571D01*
X65586904Y-56913571D02*
X65586904Y-57151666D01*
X65586904Y-57151666D02*
X65539285Y-57342142D01*
X65539285Y-57342142D02*
X65491666Y-57437380D01*
X65491666Y-57437380D02*
X65444047Y-57485000D01*
X65444047Y-57485000D02*
X65348809Y-57532619D01*
X65348809Y-57532619D02*
X65253571Y-57532619D01*
X65253571Y-57532619D02*
X65158333Y-57485000D01*
X65158333Y-57485000D02*
X65110714Y-57437380D01*
X65110714Y-57437380D02*
X65063095Y-57342142D01*
X65063095Y-57342142D02*
X65015476Y-57151666D01*
X65015476Y-57151666D02*
X65015476Y-56913571D01*
X65015476Y-56913571D02*
X65063095Y-56723095D01*
X65063095Y-56723095D02*
X65110714Y-56627857D01*
X65110714Y-56627857D02*
X65158333Y-56580238D01*
X65158333Y-56580238D02*
X65253571Y-56532619D01*
%TO.C,C5*%
X104491667Y-59628904D02*
X104453571Y-59667000D01*
X104453571Y-59667000D02*
X104339286Y-59705095D01*
X104339286Y-59705095D02*
X104263095Y-59705095D01*
X104263095Y-59705095D02*
X104148809Y-59667000D01*
X104148809Y-59667000D02*
X104072619Y-59590809D01*
X104072619Y-59590809D02*
X104034524Y-59514619D01*
X104034524Y-59514619D02*
X103996428Y-59362238D01*
X103996428Y-59362238D02*
X103996428Y-59247952D01*
X103996428Y-59247952D02*
X104034524Y-59095571D01*
X104034524Y-59095571D02*
X104072619Y-59019380D01*
X104072619Y-59019380D02*
X104148809Y-58943190D01*
X104148809Y-58943190D02*
X104263095Y-58905095D01*
X104263095Y-58905095D02*
X104339286Y-58905095D01*
X104339286Y-58905095D02*
X104453571Y-58943190D01*
X104453571Y-58943190D02*
X104491667Y-58981285D01*
X105215476Y-58905095D02*
X104834524Y-58905095D01*
X104834524Y-58905095D02*
X104796428Y-59286047D01*
X104796428Y-59286047D02*
X104834524Y-59247952D01*
X104834524Y-59247952D02*
X104910714Y-59209857D01*
X104910714Y-59209857D02*
X105101190Y-59209857D01*
X105101190Y-59209857D02*
X105177381Y-59247952D01*
X105177381Y-59247952D02*
X105215476Y-59286047D01*
X105215476Y-59286047D02*
X105253571Y-59362238D01*
X105253571Y-59362238D02*
X105253571Y-59552714D01*
X105253571Y-59552714D02*
X105215476Y-59628904D01*
X105215476Y-59628904D02*
X105177381Y-59667000D01*
X105177381Y-59667000D02*
X105101190Y-59705095D01*
X105101190Y-59705095D02*
X104910714Y-59705095D01*
X104910714Y-59705095D02*
X104834524Y-59667000D01*
X104834524Y-59667000D02*
X104796428Y-59628904D01*
%TO.C,C42*%
X84117380Y-84142857D02*
X84165000Y-84190476D01*
X84165000Y-84190476D02*
X84212619Y-84333333D01*
X84212619Y-84333333D02*
X84212619Y-84428571D01*
X84212619Y-84428571D02*
X84165000Y-84571428D01*
X84165000Y-84571428D02*
X84069761Y-84666666D01*
X84069761Y-84666666D02*
X83974523Y-84714285D01*
X83974523Y-84714285D02*
X83784047Y-84761904D01*
X83784047Y-84761904D02*
X83641190Y-84761904D01*
X83641190Y-84761904D02*
X83450714Y-84714285D01*
X83450714Y-84714285D02*
X83355476Y-84666666D01*
X83355476Y-84666666D02*
X83260238Y-84571428D01*
X83260238Y-84571428D02*
X83212619Y-84428571D01*
X83212619Y-84428571D02*
X83212619Y-84333333D01*
X83212619Y-84333333D02*
X83260238Y-84190476D01*
X83260238Y-84190476D02*
X83307857Y-84142857D01*
X83545952Y-83285714D02*
X84212619Y-83285714D01*
X83165000Y-83523809D02*
X83879285Y-83761904D01*
X83879285Y-83761904D02*
X83879285Y-83142857D01*
X83307857Y-82809523D02*
X83260238Y-82761904D01*
X83260238Y-82761904D02*
X83212619Y-82666666D01*
X83212619Y-82666666D02*
X83212619Y-82428571D01*
X83212619Y-82428571D02*
X83260238Y-82333333D01*
X83260238Y-82333333D02*
X83307857Y-82285714D01*
X83307857Y-82285714D02*
X83403095Y-82238095D01*
X83403095Y-82238095D02*
X83498333Y-82238095D01*
X83498333Y-82238095D02*
X83641190Y-82285714D01*
X83641190Y-82285714D02*
X84212619Y-82857142D01*
X84212619Y-82857142D02*
X84212619Y-82238095D01*
D13*
%TO.C,J6*%
X112670000Y-85480000D02*
X112670000Y-88080000D01*
X115330000Y-85480000D02*
X115330000Y-88080000D01*
X112670000Y-85480000D02*
X115330000Y-85480000D01*
X114000000Y-82880000D02*
X115330000Y-82880000D01*
X115330000Y-82880000D02*
X115330000Y-84210000D01*
X112670000Y-88080000D02*
X115330000Y-88080000D01*
%TO.C,C14*%
X97985000Y-75923748D02*
X97985000Y-76446252D01*
X96515000Y-75923748D02*
X96515000Y-76446252D01*
%TO.C,TP5*%
X114700000Y-65500000D02*
G75*
G03*
X114700000Y-65500000I-700000J0D01*
G01*
%TO.C,J5*%
X112640000Y-90170000D02*
X99880000Y-90170000D01*
X112640000Y-90170000D02*
X112640000Y-92830000D01*
X99880000Y-90170000D02*
X99880000Y-92830000D01*
X115240000Y-91500000D02*
X115240000Y-92830000D01*
X115240000Y-92830000D02*
X113910000Y-92830000D01*
X112640000Y-92830000D02*
X99880000Y-92830000D01*
%TO.C,C25*%
X61140580Y-72010000D02*
X60859420Y-72010000D01*
X61140580Y-70990000D02*
X60859420Y-70990000D01*
%TO.C,C3*%
X95735000Y-75923748D02*
X95735000Y-76446252D01*
X94265000Y-75923748D02*
X94265000Y-76446252D01*
%TO.C,C13*%
X91761252Y-66420000D02*
X91238748Y-66420000D01*
X91761252Y-64950000D02*
X91238748Y-64950000D01*
%TO.C,D6*%
X112750000Y-63610000D02*
X114750000Y-63610000D01*
X112750000Y-63610000D02*
X112750000Y-59600000D01*
X114750000Y-63610000D02*
X114750000Y-59600000D01*
%TO.C,C7*%
X108079332Y-61358748D02*
X107798172Y-61358748D01*
X108079332Y-60338748D02*
X107798172Y-60338748D01*
%TO.C,C10*%
X88011252Y-70170000D02*
X87488748Y-70170000D01*
X88011252Y-68700000D02*
X87488748Y-68700000D01*
%TO.C,TH1*%
X88262742Y-63412500D02*
X88737258Y-63412500D01*
X88262742Y-64457500D02*
X88737258Y-64457500D01*
%TO.C,L2*%
X104900000Y-81185000D02*
X104900000Y-77185000D01*
X109100000Y-81185000D02*
X109100000Y-77185000D01*
%TO.C,C40*%
X92490000Y-92140580D02*
X92490000Y-91859420D01*
X93510000Y-92140580D02*
X93510000Y-91859420D01*
%TO.C,C1*%
X116735000Y-61738748D02*
X116735000Y-62261252D01*
X115265000Y-61738748D02*
X115265000Y-62261252D01*
%TO.C,L1*%
X103447000Y-55585000D02*
X103447000Y-58477000D01*
X100653000Y-55588000D02*
X100653000Y-58477000D01*
%TO.C,Y1*%
X58150000Y-66149998D02*
X54850000Y-66149998D01*
X54850000Y-66149998D02*
X54850000Y-70149998D01*
%TO.C,R5*%
X59762742Y-68227500D02*
X60237258Y-68227500D01*
X59762742Y-69272500D02*
X60237258Y-69272500D01*
%TO.C,R14*%
X77022500Y-61087742D02*
X77022500Y-61562258D01*
X75977500Y-61087742D02*
X75977500Y-61562258D01*
%TO.C,U5*%
X88610000Y-56000000D02*
X88610000Y-54200000D01*
X88610000Y-56000000D02*
X88610000Y-56800000D01*
X85490000Y-56000000D02*
X85490000Y-55200000D01*
X85490000Y-56000000D02*
X85490000Y-56800000D01*
%TO.C,J3*%
X85690000Y-52580000D02*
X93370000Y-52580000D01*
X85690000Y-52580000D02*
X85690000Y-49920000D01*
X93370000Y-52580000D02*
X93370000Y-49920000D01*
X83090000Y-51250000D02*
X83090000Y-49920000D01*
X83090000Y-49920000D02*
X84420000Y-49920000D01*
X85690000Y-49920000D02*
X93370000Y-49920000D01*
%TO.C,C15*%
X107798172Y-71175000D02*
X108079332Y-71175000D01*
X107798172Y-72195000D02*
X108079332Y-72195000D01*
%TO.C,C18*%
X113561252Y-75670000D02*
X113038748Y-75670000D01*
X113561252Y-74200000D02*
X113038748Y-74200000D01*
%TO.C,TP3*%
X94750000Y-58750000D02*
G75*
G03*
X94750000Y-58750000I-700000J0D01*
G01*
%TO.C,R8*%
X110951494Y-66912500D02*
X111426010Y-66912500D01*
X110951494Y-67957500D02*
X111426010Y-67957500D01*
%TO.C,C19*%
X115515000Y-70761252D02*
X115515000Y-70238748D01*
X116985000Y-70761252D02*
X116985000Y-70238748D01*
D14*
%TO.C,SW2*%
X53790000Y-75858000D02*
X53790000Y-81548000D01*
X50210000Y-75858000D02*
X53790000Y-75858000D01*
X53790000Y-81548000D02*
X50210000Y-81548000D01*
X50210000Y-81548000D02*
X50210000Y-75858000D01*
D11*
X52100000Y-72590000D02*
G75*
G03*
X52100000Y-72590000I-100000J0D01*
G01*
D13*
%TO.C,U2*%
X64390000Y-64890000D02*
X64390000Y-65340000D01*
X64390000Y-65340000D02*
X63100000Y-65340000D01*
X64390000Y-72110000D02*
X64390000Y-71660000D01*
X64840000Y-64890000D02*
X64390000Y-64890000D01*
X64840000Y-72110000D02*
X64390000Y-72110000D01*
X71160000Y-64890000D02*
X71610000Y-64890000D01*
X71160000Y-72110000D02*
X71610000Y-72110000D01*
X71610000Y-64890000D02*
X71610000Y-65340000D01*
X71610000Y-72110000D02*
X71610000Y-71660000D01*
%TO.C,FB1*%
X61237258Y-75772500D02*
X60762742Y-75772500D01*
X61237258Y-74727500D02*
X60762742Y-74727500D01*
%TO.C,C21*%
X71640580Y-75510000D02*
X71359420Y-75510000D01*
X71640580Y-74490000D02*
X71359420Y-74490000D01*
%TO.C,R9*%
X107701494Y-66912500D02*
X108176010Y-66912500D01*
X107701494Y-67957500D02*
X108176010Y-67957500D01*
%TO.C,C30*%
X56259420Y-70990000D02*
X56540580Y-70990000D01*
X56259420Y-72010000D02*
X56540580Y-72010000D01*
%TO.C,D1*%
X112000000Y-68640000D02*
X110000000Y-68640000D01*
X112000000Y-68640000D02*
X112000000Y-72650000D01*
X110000000Y-68640000D02*
X110000000Y-72650000D01*
%TO.C,U3*%
X58750000Y-87560000D02*
X60550000Y-87560000D01*
X58750000Y-87560000D02*
X57950000Y-87560000D01*
X58750000Y-84440000D02*
X59550000Y-84440000D01*
X58750000Y-84440000D02*
X57950000Y-84440000D01*
%TO.C,C26*%
X61140580Y-74010000D02*
X60859420Y-74010000D01*
X61140580Y-72990000D02*
X60859420Y-72990000D01*
%TO.C,C6*%
X102311252Y-62420000D02*
X101788748Y-62420000D01*
X102311252Y-60950000D02*
X101788748Y-60950000D01*
%TO.C,C22*%
X65109420Y-60990000D02*
X65390580Y-60990000D01*
X65109420Y-62010000D02*
X65390580Y-62010000D01*
D14*
%TO.C,U1*%
X96250000Y-65935000D02*
X96250000Y-66235000D01*
X96250000Y-65935000D02*
X96550000Y-65935000D01*
X96250000Y-72935000D02*
X96250000Y-72635000D01*
X96250000Y-72935000D02*
X96550000Y-72935000D01*
X103250000Y-65935000D02*
X102950000Y-65935000D01*
X103250000Y-65935000D02*
X103250000Y-66235000D01*
X103250000Y-72935000D02*
X102950000Y-72935000D01*
X103250000Y-72935000D02*
X103250000Y-72635000D01*
D11*
X95375000Y-66685000D02*
G75*
G03*
X95375000Y-66685000I-100000J0D01*
G01*
D13*
%TO.C,C2*%
X91890580Y-73195000D02*
X91609420Y-73195000D01*
X91890580Y-72175000D02*
X91609420Y-72175000D01*
%TO.C,C28*%
X52260000Y-68859420D02*
X52260000Y-69140580D01*
X51240000Y-68859420D02*
X51240000Y-69140580D01*
%TO.C,TP1*%
X53200000Y-87500000D02*
G75*
G03*
X53200000Y-87500000I-700000J0D01*
G01*
%TO.C,C29*%
X54609420Y-64490000D02*
X54890580Y-64490000D01*
X54609420Y-65510000D02*
X54890580Y-65510000D01*
%TO.C,R6*%
X78522500Y-68762742D02*
X78522500Y-69237258D01*
X77477500Y-68762742D02*
X77477500Y-69237258D01*
%TO.C,D7*%
X112000000Y-58890000D02*
X110000000Y-58890000D01*
X112000000Y-58890000D02*
X112000000Y-62900000D01*
X110000000Y-58890000D02*
X110000000Y-62900000D01*
%TO.C,C41*%
X86740000Y-86390580D02*
X86740000Y-86109420D01*
X87760000Y-86390580D02*
X87760000Y-86109420D01*
%TO.C,U4*%
X72060000Y-55887500D02*
X72060000Y-54087500D01*
X72060000Y-55887500D02*
X72060000Y-56687500D01*
X68940000Y-55887500D02*
X68940000Y-55087500D01*
X68940000Y-55887500D02*
X68940000Y-56687500D01*
%TO.C,TP8*%
X102950000Y-80185000D02*
G75*
G03*
X102950000Y-80185000I-700000J0D01*
G01*
%TO.C,D3*%
X97800000Y-60295000D02*
X99800000Y-60295000D01*
X97800000Y-60295000D02*
X97800000Y-56285000D01*
X99800000Y-60295000D02*
X99800000Y-56285000D01*
%TO.C,C24*%
X61615580Y-62010000D02*
X61334420Y-62010000D01*
X61615580Y-60990000D02*
X61334420Y-60990000D01*
%TO.C,C12*%
X91761252Y-71170000D02*
X91238748Y-71170000D01*
X91761252Y-69700000D02*
X91238748Y-69700000D01*
%TO.C,C9*%
X107798172Y-62088748D02*
X108079332Y-62088748D01*
X107798172Y-63108748D02*
X108079332Y-63108748D01*
%TO.C,C23*%
X75510000Y-65609420D02*
X75510000Y-65890580D01*
X74490000Y-65609420D02*
X74490000Y-65890580D01*
%TO.C,TP6*%
X116950000Y-67000000D02*
G75*
G03*
X116950000Y-67000000I-700000J0D01*
G01*
%TO.C,D4*%
X106390000Y-73935000D02*
X106390000Y-75935000D01*
X106390000Y-73935000D02*
X110400000Y-73935000D01*
X106390000Y-75935000D02*
X110400000Y-75935000D01*
%TO.C,TP7*%
X91750000Y-75935000D02*
G75*
G03*
X91750000Y-75935000I-700000J0D01*
G01*
D14*
%TO.C,SW1*%
X54612500Y-54100000D02*
X53862500Y-54100000D01*
X50012500Y-54100000D02*
X50762500Y-54100000D01*
X50012500Y-54100000D02*
X50012500Y-62900000D01*
X54612500Y-62900000D02*
X54612500Y-54100000D01*
X54612500Y-62900000D02*
X53862500Y-62900000D01*
X50012500Y-62900000D02*
X50762500Y-62900000D01*
D11*
X49412500Y-56500000D02*
G75*
G03*
X49412500Y-56500000I-100000J0D01*
G01*
D13*
%TO.C,C27*%
X60834420Y-76490000D02*
X61115580Y-76490000D01*
X60834420Y-77510000D02*
X61115580Y-77510000D01*
D14*
%TO.C,J1*%
X78230000Y-90000000D02*
X78830000Y-90000000D01*
X78230000Y-91550000D02*
X78230000Y-90000000D01*
X91430000Y-90000000D02*
X90830000Y-90000000D01*
X91430000Y-91550000D02*
X91430000Y-90000000D01*
D11*
X79180000Y-93650000D02*
G75*
G03*
X79180000Y-93650000I-100000J0D01*
G01*
D13*
%TO.C,C17*%
X102740000Y-76165580D02*
X102740000Y-75884420D01*
X103760000Y-76165580D02*
X103760000Y-75884420D01*
%TO.C,R12*%
X79522500Y-62587742D02*
X79522500Y-63062258D01*
X78477500Y-62587742D02*
X78477500Y-63062258D01*
%TO.C,C16*%
X107798172Y-69425000D02*
X108079332Y-69425000D01*
X107798172Y-70445000D02*
X108079332Y-70445000D01*
%TO.C,J2*%
X66373200Y-90170000D02*
X66373200Y-91500000D01*
X65043200Y-90170000D02*
X66373200Y-90170000D01*
X63773200Y-90170000D02*
X51013200Y-90170000D01*
X63773200Y-90170000D02*
X63773200Y-92830000D01*
X51013200Y-90170000D02*
X51013200Y-92830000D01*
X63773200Y-92830000D02*
X51013200Y-92830000D01*
%TO.C,R3*%
X54727500Y-80987258D02*
X54727500Y-80512742D01*
X55772500Y-80987258D02*
X55772500Y-80512742D01*
%TO.C,TP4*%
X88200000Y-72750000D02*
G75*
G03*
X88200000Y-72750000I-700000J0D01*
G01*
%TO.C,R2*%
X107701494Y-64662500D02*
X108176010Y-64662500D01*
X107701494Y-65707500D02*
X108176010Y-65707500D01*
%TO.C,D2*%
X55985000Y-73015000D02*
X54515000Y-73015000D01*
X54515000Y-73015000D02*
X54515000Y-75300000D01*
X55985000Y-75300000D02*
X55985000Y-73015000D01*
%TO.C,TP2*%
X92450000Y-57500000D02*
G75*
G03*
X92450000Y-57500000I-700000J0D01*
G01*
%TO.C,C8*%
X97788748Y-60950000D02*
X98311252Y-60950000D01*
X97788748Y-62420000D02*
X98311252Y-62420000D01*
%TO.C,C20*%
X60490000Y-64890580D02*
X60490000Y-64609420D01*
X61510000Y-64890580D02*
X61510000Y-64609420D01*
%TO.C,J4*%
X67970000Y-52555000D02*
X75650000Y-52555000D01*
X67970000Y-52555000D02*
X67970000Y-49895000D01*
X75650000Y-52555000D02*
X75650000Y-49895000D01*
X65370000Y-51225000D02*
X65370000Y-49895000D01*
X65370000Y-49895000D02*
X66700000Y-49895000D01*
X67970000Y-49895000D02*
X75650000Y-49895000D01*
%TO.C,R1*%
X110951494Y-64576248D02*
X111426010Y-64576248D01*
X110951494Y-65621248D02*
X111426010Y-65621248D01*
%TO.C,R7*%
X77477500Y-72987258D02*
X77477500Y-72512742D01*
X78522500Y-72987258D02*
X78522500Y-72512742D01*
%TO.C,TP9*%
X89000000Y-59935000D02*
G75*
G03*
X89000000Y-59935000I-700000J0D01*
G01*
%TO.C,C11*%
X88011252Y-67920000D02*
X87488748Y-67920000D01*
X88011252Y-66450000D02*
X87488748Y-66450000D01*
%TO.C,C31*%
X79490000Y-86390580D02*
X79490000Y-86109420D01*
X80510000Y-86390580D02*
X80510000Y-86109420D01*
%TO.C,C39*%
X75415580Y-93260000D02*
X75134420Y-93260000D01*
X75415580Y-92240000D02*
X75134420Y-92240000D01*
%TO.C,D5*%
X112750000Y-73360000D02*
X114750000Y-73360000D01*
X112750000Y-73360000D02*
X112750000Y-69350000D01*
X114750000Y-73360000D02*
X114750000Y-69350000D01*
%TO.C,C38*%
X77240000Y-86365580D02*
X77240000Y-86084420D01*
X78260000Y-86365580D02*
X78260000Y-86084420D01*
%TO.C,C4*%
X94561252Y-61985000D02*
X94038748Y-61985000D01*
X94561252Y-60515000D02*
X94038748Y-60515000D01*
%TO.C,R4*%
X88262742Y-61662500D02*
X88737258Y-61662500D01*
X88262742Y-62707500D02*
X88737258Y-62707500D01*
%TO.C,R10*%
X64087742Y-57977500D02*
X64562258Y-57977500D01*
X64087742Y-59022500D02*
X64562258Y-59022500D01*
%TO.C,C5*%
X104115000Y-57200580D02*
X104115000Y-56919420D01*
X105135000Y-57200580D02*
X105135000Y-56919420D01*
%TO.C,C42*%
X84490000Y-86415580D02*
X84490000Y-86134420D01*
X85510000Y-86415580D02*
X85510000Y-86134420D01*
%TD*%
%LPC*%
D15*
%TO.C,J6*%
X114000000Y-84210000D03*
D16*
X114000000Y-86750000D03*
%TD*%
D17*
%TO.C,C14*%
X97250000Y-75235000D03*
X97250000Y-77135000D03*
%TD*%
D18*
%TO.C,TP5*%
X114000000Y-65500000D03*
%TD*%
D15*
%TO.C,J5*%
X113910000Y-91500000D03*
D16*
X111370000Y-91500000D03*
X108830000Y-91500000D03*
X106290000Y-91500000D03*
X103750000Y-91500000D03*
X101210000Y-91500000D03*
%TD*%
D19*
%TO.C,C25*%
X61775000Y-71500000D03*
X60225000Y-71500000D03*
%TD*%
D17*
%TO.C,C3*%
X95000000Y-75235000D03*
X95000000Y-77135000D03*
%TD*%
D20*
%TO.C,C13*%
X92450000Y-65685000D03*
X90550000Y-65685000D03*
%TD*%
D21*
%TO.C,D6*%
X113750000Y-62900000D03*
X113750000Y-59600000D03*
%TD*%
D19*
%TO.C,C7*%
X108713752Y-60848748D03*
X107163752Y-60848748D03*
%TD*%
D20*
%TO.C,C10*%
X88700000Y-69435000D03*
X86800000Y-69435000D03*
%TD*%
D22*
%TO.C,TH1*%
X87675000Y-63935000D03*
X89325000Y-63935000D03*
%TD*%
D23*
%TO.C,L2*%
X107000000Y-80585000D03*
X107000000Y-77785000D03*
%TD*%
D24*
%TO.C,C40*%
X93000000Y-92775000D03*
X93000000Y-91225000D03*
%TD*%
D17*
%TO.C,C1*%
X116000000Y-61050000D03*
X116000000Y-62950000D03*
%TD*%
D25*
%TO.C,L1*%
X102050000Y-56185000D03*
X102050000Y-57835000D03*
%TD*%
D26*
%TO.C,Y1*%
X55650000Y-67049998D03*
X55650000Y-69249998D03*
X57350000Y-69249998D03*
X57350000Y-67049998D03*
%TD*%
D22*
%TO.C,R5*%
X59175000Y-68750000D03*
X60825000Y-68750000D03*
%TD*%
D27*
%TO.C,R14*%
X76500000Y-60500000D03*
X76500000Y-62150000D03*
%TD*%
D28*
%TO.C,U5*%
X88000000Y-54862500D03*
X87050000Y-54862500D03*
X86100000Y-54862500D03*
X86100000Y-57137500D03*
X87050000Y-57137500D03*
X88000000Y-57137500D03*
%TD*%
D15*
%TO.C,J3*%
X84420000Y-51250000D03*
D16*
X86960000Y-51250000D03*
X89500000Y-51250000D03*
X92040000Y-51250000D03*
%TD*%
D29*
%TO.C,C15*%
X107163752Y-71685000D03*
X108713752Y-71685000D03*
%TD*%
D20*
%TO.C,C18*%
X114250000Y-74935000D03*
X112350000Y-74935000D03*
%TD*%
D18*
%TO.C,TP3*%
X94050000Y-58750000D03*
%TD*%
D22*
%TO.C,R8*%
X110363752Y-67435000D03*
X112013752Y-67435000D03*
%TD*%
D30*
%TO.C,C19*%
X116250000Y-71450000D03*
X116250000Y-69550000D03*
%TD*%
D31*
%TO.C,SW2*%
X52000000Y-74253200D03*
X52000000Y-83053200D03*
%TD*%
D32*
%TO.C,U2*%
X63837500Y-65750000D03*
X63837500Y-66250000D03*
X63837500Y-66750000D03*
X63837500Y-67250000D03*
X63837500Y-67750000D03*
X63837500Y-68250000D03*
X63837500Y-68750000D03*
X63837500Y-69250000D03*
X63837500Y-69750000D03*
X63837500Y-70250000D03*
X63837500Y-70750000D03*
X63837500Y-71250000D03*
D33*
X65250000Y-72662500D03*
X65750000Y-72662500D03*
X66250000Y-72662500D03*
X66750000Y-72662500D03*
X67250000Y-72662500D03*
X67750000Y-72662500D03*
X68250000Y-72662500D03*
X68750000Y-72662500D03*
X69250000Y-72662500D03*
X69750000Y-72662500D03*
X70250000Y-72662500D03*
X70750000Y-72662500D03*
D32*
X72162500Y-71250000D03*
X72162500Y-70750000D03*
X72162500Y-70250000D03*
X72162500Y-69750000D03*
X72162500Y-69250000D03*
X72162500Y-68750000D03*
X72162500Y-68250000D03*
X72162500Y-67750000D03*
X72162500Y-67250000D03*
X72162500Y-66750000D03*
X72162500Y-66250000D03*
X72162500Y-65750000D03*
D33*
X70750000Y-64337500D03*
X70250000Y-64337500D03*
X69750000Y-64337500D03*
X69250000Y-64337500D03*
X68750000Y-64337500D03*
X68250000Y-64337500D03*
X67750000Y-64337500D03*
X67250000Y-64337500D03*
X66750000Y-64337500D03*
X66250000Y-64337500D03*
X65750000Y-64337500D03*
X65250000Y-64337500D03*
%TD*%
D34*
%TO.C,FB1*%
X61825000Y-75250000D03*
X60175000Y-75250000D03*
%TD*%
D19*
%TO.C,C21*%
X72275000Y-75000000D03*
X70725000Y-75000000D03*
%TD*%
D22*
%TO.C,R9*%
X107113752Y-67435000D03*
X108763752Y-67435000D03*
%TD*%
D29*
%TO.C,C30*%
X55625000Y-71500000D03*
X57175000Y-71500000D03*
%TD*%
D35*
%TO.C,D1*%
X111000000Y-69350000D03*
X111000000Y-72650000D03*
%TD*%
D36*
%TO.C,U3*%
X59887500Y-86950000D03*
X59887500Y-86000000D03*
X59887500Y-85050000D03*
X57612500Y-85050000D03*
X57612500Y-86000000D03*
X57612500Y-86950000D03*
%TD*%
D19*
%TO.C,C26*%
X61775000Y-73500000D03*
X60225000Y-73500000D03*
%TD*%
D20*
%TO.C,C6*%
X103000000Y-61685000D03*
X101100000Y-61685000D03*
%TD*%
D29*
%TO.C,C22*%
X64475000Y-61500000D03*
X66025000Y-61500000D03*
%TD*%
D37*
%TO.C,U1*%
X96315000Y-66685000D03*
X96315000Y-67185000D03*
X96315000Y-67685000D03*
X96315000Y-68185000D03*
X96315000Y-68685000D03*
X96315000Y-69185000D03*
X96315000Y-69685000D03*
X96315000Y-70185000D03*
X96315000Y-70685000D03*
X96315000Y-71185000D03*
X96315000Y-71685000D03*
X96315000Y-72185000D03*
D38*
X97000000Y-72870000D03*
X97500000Y-72870000D03*
X98000000Y-72870000D03*
X98500000Y-72870000D03*
X99000000Y-72870000D03*
X99500000Y-72870000D03*
X100000000Y-72870000D03*
X100500000Y-72870000D03*
X101000000Y-72870000D03*
X101500000Y-72870000D03*
X102000000Y-72870000D03*
X102500000Y-72870000D03*
D37*
X103185000Y-72185000D03*
X103185000Y-71685000D03*
X103185000Y-71185000D03*
X103185000Y-70685000D03*
X103185000Y-70185000D03*
X103185000Y-69685000D03*
X103185000Y-69185000D03*
X103185000Y-68685000D03*
X103185000Y-68185000D03*
X103185000Y-67685000D03*
X103185000Y-67185000D03*
X103185000Y-66685000D03*
D38*
X102500000Y-66000000D03*
X102000000Y-66000000D03*
X101500000Y-66000000D03*
X101000000Y-66000000D03*
X100500000Y-66000000D03*
X100000000Y-66000000D03*
X99500000Y-66000000D03*
X99000000Y-66000000D03*
X98500000Y-66000000D03*
X98000000Y-66000000D03*
X97500000Y-66000000D03*
X97000000Y-66000000D03*
D39*
X99750000Y-69435000D03*
%TD*%
D19*
%TO.C,C2*%
X92525000Y-72685000D03*
X90975000Y-72685000D03*
%TD*%
D40*
%TO.C,C28*%
X51750000Y-68225000D03*
X51750000Y-69775000D03*
%TD*%
D18*
%TO.C,TP1*%
X52500000Y-87500000D03*
%TD*%
D29*
%TO.C,C29*%
X53975000Y-65000000D03*
X55525000Y-65000000D03*
%TD*%
D27*
%TO.C,R6*%
X78000000Y-68175000D03*
X78000000Y-69825000D03*
%TD*%
D35*
%TO.C,D7*%
X111000000Y-59600000D03*
X111000000Y-62900000D03*
%TD*%
D24*
%TO.C,C41*%
X87250000Y-87025000D03*
X87250000Y-85475000D03*
%TD*%
D28*
%TO.C,U4*%
X71450000Y-54750000D03*
X70500000Y-54750000D03*
X69550000Y-54750000D03*
X69550000Y-57025000D03*
X70500000Y-57025000D03*
X71450000Y-57025000D03*
%TD*%
D18*
%TO.C,TP8*%
X102250000Y-80185000D03*
%TD*%
D21*
%TO.C,D3*%
X98800000Y-59585000D03*
X98800000Y-56285000D03*
%TD*%
D19*
%TO.C,C24*%
X62250000Y-61500000D03*
X60700000Y-61500000D03*
%TD*%
D20*
%TO.C,C12*%
X92450000Y-70435000D03*
X90550000Y-70435000D03*
%TD*%
D29*
%TO.C,C9*%
X107163752Y-62598748D03*
X108713752Y-62598748D03*
%TD*%
D40*
%TO.C,C23*%
X75000000Y-64975000D03*
X75000000Y-66525000D03*
%TD*%
D18*
%TO.C,TP6*%
X116250000Y-67000000D03*
%TD*%
D41*
%TO.C,D4*%
X107100000Y-74935000D03*
X110400000Y-74935000D03*
%TD*%
D18*
%TO.C,TP7*%
X91050000Y-75935000D03*
%TD*%
D42*
%TO.C,SW1*%
X52312500Y-56500000D03*
D43*
X52312500Y-58500000D03*
X52312500Y-60500000D03*
D44*
X52312500Y-54300000D03*
X52312500Y-62700000D03*
%TD*%
D29*
%TO.C,C27*%
X60200000Y-77000000D03*
X61750000Y-77000000D03*
%TD*%
D45*
%TO.C,J1*%
X79130000Y-92750000D03*
D46*
X79430000Y-89750000D03*
D45*
X79730000Y-92750000D03*
D46*
X80030000Y-89750000D03*
D45*
X80330000Y-92750000D03*
D46*
X80630000Y-89750000D03*
D45*
X80930000Y-92750000D03*
D46*
X81230000Y-89750000D03*
D45*
X81530000Y-92750000D03*
D46*
X81830000Y-89750000D03*
D45*
X82130000Y-92750000D03*
D46*
X82430000Y-89750000D03*
D45*
X82730000Y-92750000D03*
D46*
X83030000Y-89750000D03*
D45*
X83330000Y-92750000D03*
D46*
X83630000Y-89750000D03*
D45*
X83930000Y-92750000D03*
D46*
X84230000Y-89750000D03*
D45*
X84530000Y-92750000D03*
D46*
X84830000Y-89750000D03*
D45*
X85130000Y-92750000D03*
D46*
X85430000Y-89750000D03*
D45*
X85730000Y-92750000D03*
D46*
X86030000Y-89750000D03*
D45*
X86330000Y-92750000D03*
D46*
X86630000Y-89750000D03*
D45*
X86930000Y-92750000D03*
D46*
X87230000Y-89750000D03*
D45*
X87530000Y-92750000D03*
D46*
X87830000Y-89750000D03*
D45*
X88130000Y-92750000D03*
D46*
X88430000Y-89750000D03*
D45*
X88730000Y-92750000D03*
D46*
X89030000Y-89750000D03*
D45*
X89330000Y-92750000D03*
D46*
X89630000Y-89750000D03*
D45*
X89930000Y-92750000D03*
D46*
X90230000Y-89750000D03*
D45*
X90530000Y-92750000D03*
D47*
X78430000Y-92475000D03*
X91230000Y-92475000D03*
%TD*%
D24*
%TO.C,C17*%
X103250000Y-76800000D03*
X103250000Y-75250000D03*
%TD*%
D27*
%TO.C,R12*%
X79000000Y-62000000D03*
X79000000Y-63650000D03*
%TD*%
D29*
%TO.C,C16*%
X107163752Y-69935000D03*
X108713752Y-69935000D03*
%TD*%
D15*
%TO.C,J2*%
X65043200Y-91500000D03*
D16*
X62503200Y-91500000D03*
X59963200Y-91500000D03*
X57423200Y-91500000D03*
X54883200Y-91500000D03*
X52343200Y-91500000D03*
%TD*%
D48*
%TO.C,R3*%
X55250000Y-81575000D03*
X55250000Y-79925000D03*
%TD*%
D18*
%TO.C,TP4*%
X87500000Y-72750000D03*
%TD*%
D22*
%TO.C,R2*%
X107113752Y-65185000D03*
X108763752Y-65185000D03*
%TD*%
D49*
%TO.C,D2*%
X55250000Y-73712500D03*
X55250000Y-75287500D03*
%TD*%
D18*
%TO.C,TP2*%
X91750000Y-57500000D03*
%TD*%
D50*
%TO.C,C8*%
X97100000Y-61685000D03*
X99000000Y-61685000D03*
%TD*%
D24*
%TO.C,C20*%
X61000000Y-65525000D03*
X61000000Y-63975000D03*
%TD*%
D15*
%TO.C,J4*%
X66700000Y-51225000D03*
D16*
X69240000Y-51225000D03*
X71780000Y-51225000D03*
X74320000Y-51225000D03*
%TD*%
D22*
%TO.C,R1*%
X110363752Y-65098748D03*
X112013752Y-65098748D03*
%TD*%
D48*
%TO.C,R7*%
X78000000Y-73575000D03*
X78000000Y-71925000D03*
%TD*%
D18*
%TO.C,TP9*%
X88300000Y-59935000D03*
%TD*%
D20*
%TO.C,C11*%
X88700000Y-67185000D03*
X86800000Y-67185000D03*
%TD*%
D24*
%TO.C,C31*%
X80000000Y-87025000D03*
X80000000Y-85475000D03*
%TD*%
D19*
%TO.C,C39*%
X76050000Y-92750000D03*
X74500000Y-92750000D03*
%TD*%
D21*
%TO.C,D5*%
X113750000Y-72650000D03*
X113750000Y-69350000D03*
%TD*%
D24*
%TO.C,C38*%
X77750000Y-87000000D03*
X77750000Y-85450000D03*
%TD*%
D20*
%TO.C,C4*%
X95250000Y-61250000D03*
X93350000Y-61250000D03*
%TD*%
D22*
%TO.C,R4*%
X87675000Y-62185000D03*
X89325000Y-62185000D03*
%TD*%
%TO.C,R10*%
X63500000Y-58500000D03*
X65150000Y-58500000D03*
%TD*%
D24*
%TO.C,C5*%
X104625000Y-57835000D03*
X104625000Y-56285000D03*
%TD*%
%TO.C,C42*%
X85000000Y-87050000D03*
X85000000Y-85500000D03*
%TD*%
M02*
