%TF.GenerationSoftware,KiCad,Pcbnew,7.0.1*%
%TF.CreationDate,2023-04-19T22:54:29+02:00*%
%TF.ProjectId,ED060SC4_SPI_driver_board,45443036-3053-4433-945f-5350495f6472,rev?*%
%TF.SameCoordinates,Original*%
%TF.FileFunction,Copper,L1,Top*%
%TF.FilePolarity,Positive*%
%FSLAX46Y46*%
G04 Gerber Fmt 4.6, Leading zero omitted, Abs format (unit mm)*
G04 Created by KiCad (PCBNEW 7.0.1) date 2023-04-19 22:54:29*
%MOMM*%
%LPD*%
G01*
G04 APERTURE LIST*
G04 Aperture macros list*
%AMRoundRect*
0 Rectangle with rounded corners*
0 $1 Rounding radius*
0 $2 $3 $4 $5 $6 $7 $8 $9 X,Y pos of 4 corners*
0 Add a 4 corners polygon primitive as box body*
4,1,4,$2,$3,$4,$5,$6,$7,$8,$9,$2,$3,0*
0 Add four circle primitives for the rounded corners*
1,1,$1+$1,$2,$3*
1,1,$1+$1,$4,$5*
1,1,$1+$1,$6,$7*
1,1,$1+$1,$8,$9*
0 Add four rect primitives between the rounded corners*
20,1,$1+$1,$2,$3,$4,$5,0*
20,1,$1+$1,$4,$5,$6,$7,0*
20,1,$1+$1,$6,$7,$8,$9,0*
20,1,$1+$1,$8,$9,$2,$3,0*%
G04 Aperture macros list end*
%TA.AperFunction,SMDPad,CuDef*%
%ADD10C,1.000000*%
%TD*%
%TA.AperFunction,SMDPad,CuDef*%
%ADD11RoundRect,0.007800X0.422200X0.122200X-0.422200X0.122200X-0.422200X-0.122200X0.422200X-0.122200X0*%
%TD*%
%TA.AperFunction,SMDPad,CuDef*%
%ADD12RoundRect,0.007800X-0.122200X0.422200X-0.122200X-0.422200X0.122200X-0.422200X0.122200X0.422200X0*%
%TD*%
%TA.AperFunction,SMDPad,CuDef*%
%ADD13R,5.150000X5.150000*%
%TD*%
%TA.AperFunction,SMDPad,CuDef*%
%ADD14RoundRect,0.200000X0.200000X0.275000X-0.200000X0.275000X-0.200000X-0.275000X0.200000X-0.275000X0*%
%TD*%
%TA.AperFunction,SMDPad,CuDef*%
%ADD15RoundRect,0.150000X0.150000X-0.587500X0.150000X0.587500X-0.150000X0.587500X-0.150000X-0.587500X0*%
%TD*%
%TA.AperFunction,SMDPad,CuDef*%
%ADD16RoundRect,0.250000X-0.475000X0.250000X-0.475000X-0.250000X0.475000X-0.250000X0.475000X0.250000X0*%
%TD*%
%TA.AperFunction,SMDPad,CuDef*%
%ADD17RoundRect,0.225000X0.225000X0.250000X-0.225000X0.250000X-0.225000X-0.250000X0.225000X-0.250000X0*%
%TD*%
%TA.AperFunction,ComponentPad*%
%ADD18R,1.700000X1.700000*%
%TD*%
%TA.AperFunction,ComponentPad*%
%ADD19O,1.700000X1.700000*%
%TD*%
%TA.AperFunction,SMDPad,CuDef*%
%ADD20R,1.200000X1.400000*%
%TD*%
%TA.AperFunction,SMDPad,CuDef*%
%ADD21RoundRect,0.150000X-0.150000X0.512500X-0.150000X-0.512500X0.150000X-0.512500X0.150000X0.512500X0*%
%TD*%
%TA.AperFunction,SMDPad,CuDef*%
%ADD22RoundRect,0.150000X0.512500X0.150000X-0.512500X0.150000X-0.512500X-0.150000X0.512500X-0.150000X0*%
%TD*%
%TA.AperFunction,SMDPad,CuDef*%
%ADD23RoundRect,0.075000X-0.662500X-0.075000X0.662500X-0.075000X0.662500X0.075000X-0.662500X0.075000X0*%
%TD*%
%TA.AperFunction,SMDPad,CuDef*%
%ADD24RoundRect,0.075000X-0.075000X-0.662500X0.075000X-0.662500X0.075000X0.662500X-0.075000X0.662500X0*%
%TD*%
%TA.AperFunction,SMDPad,CuDef*%
%ADD25R,2.200000X1.600000*%
%TD*%
%TA.AperFunction,ComponentPad*%
%ADD26R,1.308000X1.308000*%
%TD*%
%TA.AperFunction,ComponentPad*%
%ADD27C,1.308000*%
%TD*%
%TA.AperFunction,ComponentPad*%
%ADD28O,2.460000X1.230000*%
%TD*%
%TA.AperFunction,SMDPad,CuDef*%
%ADD29RoundRect,0.200000X-0.275000X0.200000X-0.275000X-0.200000X0.275000X-0.200000X0.275000X0.200000X0*%
%TD*%
%TA.AperFunction,SMDPad,CuDef*%
%ADD30RoundRect,0.200000X-0.200000X-0.275000X0.200000X-0.275000X0.200000X0.275000X-0.200000X0.275000X0*%
%TD*%
%TA.AperFunction,SMDPad,CuDef*%
%ADD31RoundRect,0.200000X0.275000X-0.200000X0.275000X0.200000X-0.275000X0.200000X-0.275000X-0.200000X0*%
%TD*%
%TA.AperFunction,SMDPad,CuDef*%
%ADD32R,3.700000X1.200000*%
%TD*%
%TA.AperFunction,SMDPad,CuDef*%
%ADD33R,2.000000X0.850000*%
%TD*%
%TA.AperFunction,SMDPad,CuDef*%
%ADD34R,0.300000X0.800000*%
%TD*%
%TA.AperFunction,SMDPad,CuDef*%
%ADD35R,0.300000X1.000000*%
%TD*%
%TA.AperFunction,SMDPad,CuDef*%
%ADD36R,0.400000X0.950000*%
%TD*%
%TA.AperFunction,SMDPad,CuDef*%
%ADD37RoundRect,0.150000X-0.150000X0.587500X-0.150000X-0.587500X0.150000X-0.587500X0.150000X0.587500X0*%
%TD*%
%TA.AperFunction,SMDPad,CuDef*%
%ADD38RoundRect,0.225000X0.225000X0.375000X-0.225000X0.375000X-0.225000X-0.375000X0.225000X-0.375000X0*%
%TD*%
%TA.AperFunction,SMDPad,CuDef*%
%ADD39RoundRect,0.225000X-0.375000X0.225000X-0.375000X-0.225000X0.375000X-0.225000X0.375000X0.225000X0*%
%TD*%
%TA.AperFunction,SMDPad,CuDef*%
%ADD40RoundRect,0.218750X0.218750X0.256250X-0.218750X0.256250X-0.218750X-0.256250X0.218750X-0.256250X0*%
%TD*%
%TA.AperFunction,SMDPad,CuDef*%
%ADD41RoundRect,0.225000X-0.250000X0.225000X-0.250000X-0.225000X0.250000X-0.225000X0.250000X0.225000X0*%
%TD*%
%TA.AperFunction,SMDPad,CuDef*%
%ADD42RoundRect,0.225000X0.250000X-0.225000X0.250000X0.225000X-0.250000X0.225000X-0.250000X-0.225000X0*%
%TD*%
%TA.AperFunction,SMDPad,CuDef*%
%ADD43RoundRect,0.225000X-0.225000X-0.250000X0.225000X-0.250000X0.225000X0.250000X-0.225000X0.250000X0*%
%TD*%
%TA.AperFunction,SMDPad,CuDef*%
%ADD44RoundRect,0.250000X-0.250000X-0.475000X0.250000X-0.475000X0.250000X0.475000X-0.250000X0.475000X0*%
%TD*%
%TA.AperFunction,SMDPad,CuDef*%
%ADD45RoundRect,0.250000X0.475000X-0.250000X0.475000X0.250000X-0.475000X0.250000X-0.475000X-0.250000X0*%
%TD*%
%TA.AperFunction,SMDPad,CuDef*%
%ADD46RoundRect,0.250000X0.250000X0.475000X-0.250000X0.475000X-0.250000X-0.475000X0.250000X-0.475000X0*%
%TD*%
%TA.AperFunction,Conductor*%
%ADD47C,0.300000*%
%TD*%
%TA.AperFunction,Conductor*%
%ADD48C,0.250000*%
%TD*%
G04 APERTURE END LIST*
D10*
%TO.P,TP9,1,1*%
%TO.N,/TPS_~{INT}*%
X122325000Y-79625000D03*
%TD*%
%TO.P,TP8,1,1*%
%TO.N,/TPS_PWRGOOD*%
X108075000Y-59375000D03*
%TD*%
%TO.P,TP7,1,1*%
%TO.N,VCOM*%
X119575000Y-63625000D03*
%TD*%
%TO.P,TP6,1,1*%
%TO.N,-20V*%
X90325000Y-71625000D03*
%TD*%
%TO.P,TP5,1,1*%
%TO.N,+22V*%
X90325000Y-76125000D03*
%TD*%
%TO.P,TP4,1,1*%
%TO.N,-15V*%
X126575000Y-74125000D03*
%TD*%
%TO.P,TP3,1,1*%
%TO.N,+15V*%
X116575000Y-80375000D03*
%TD*%
%TO.P,TP2,1,1*%
%TO.N,+3.3V_{EPD}*%
X115325000Y-82625000D03*
%TD*%
%TO.P,TP1,1,1*%
%TO.N,+3.3V*%
X54500000Y-91000000D03*
%TD*%
D11*
%TO.P,U1,1,VREF*%
%TO.N,/EPD Power Rails/VREF*%
X114310000Y-72875000D03*
%TO.P,U1,2,~{INT}*%
%TO.N,/TPS_~{INT}*%
X114310000Y-72375000D03*
%TO.P,U1,3,VNEG*%
%TO.N,-15V*%
X114310000Y-71875000D03*
%TO.P,U1,4,VNEG_IN*%
%TO.N,/EPD Power Rails/VN*%
X114310000Y-71375000D03*
%TO.P,U1,5,WAKEUP*%
%TO.N,/TPS_WAKEUP*%
X114310000Y-70875000D03*
%TO.P,U1,6,DGND*%
%TO.N,GND*%
X114310000Y-70375000D03*
%TO.P,U1,7,INT_LDO*%
%TO.N,/EPD Power Rails/INT_LDO*%
X114310000Y-69875000D03*
%TO.P,U1,8,AGND1*%
%TO.N,GND*%
X114310000Y-69375000D03*
%TO.P,U1,9,VNEG_DIS*%
%TO.N,unconnected-(U1-VNEG_DIS-Pad9)*%
X114310000Y-68875000D03*
%TO.P,U1,10,VIN*%
%TO.N,+3.3V*%
X114310000Y-68375000D03*
%TO.P,U1,11*%
%TO.N,N/C*%
X114310000Y-67875000D03*
%TO.P,U1,12,VCOM_CTRL*%
%TO.N,/TPS_VCOM_CTRL*%
X114310000Y-67375000D03*
D12*
%TO.P,U1,13*%
%TO.N,N/C*%
X113625000Y-66690000D03*
%TO.P,U1,14,VCOM_DIS*%
%TO.N,unconnected-(U1-VCOM_DIS-Pad14)*%
X113125000Y-66690000D03*
%TO.P,U1,15,VCOM*%
%TO.N,VCOM*%
X112625000Y-66690000D03*
%TO.P,U1,16,VCOM_PWR*%
%TO.N,/EPD Power Rails/VN*%
X112125000Y-66690000D03*
%TO.P,U1,17,SCL*%
%TO.N,/I2C1_SCL*%
X111625000Y-66690000D03*
%TO.P,U1,18,SDA*%
%TO.N,/I2C1_SDA*%
X111125000Y-66690000D03*
%TO.P,U1,19,VPOS_DIS*%
%TO.N,unconnected-(U1-VPOS_DIS-Pad19)*%
X110625000Y-66690000D03*
%TO.P,U1,20*%
%TO.N,N/C*%
X110125000Y-66690000D03*
%TO.P,U1,21,PWRUP*%
%TO.N,/TPS_PWRUP*%
X109625000Y-66690000D03*
%TO.P,U1,22,PBKG*%
%TO.N,/EPD Power Rails/VN*%
X109125000Y-66690000D03*
%TO.P,U1,23,PWR_GOOD*%
%TO.N,/TPS_PWRGOOD*%
X108625000Y-66690000D03*
%TO.P,U1,24,VIN_P*%
%TO.N,+3.3V*%
X108125000Y-66690000D03*
D11*
%TO.P,U1,25,VN_SW*%
%TO.N,/EPD Power Rails/VN_SW*%
X107440000Y-67375000D03*
%TO.P,U1,26,VN*%
%TO.N,/EPD Power Rails/VN*%
X107440000Y-67875000D03*
%TO.P,U1,27,VEE_IN*%
X107440000Y-68375000D03*
%TO.P,U1,28,VEE_DRV*%
%TO.N,/EPD Power Rails/VEE_DRV*%
X107440000Y-68875000D03*
%TO.P,U1,29,VEE_DIS*%
%TO.N,unconnected-(U1-VEE_DIS-Pad29)*%
X107440000Y-69375000D03*
%TO.P,U1,30,VEE_D*%
%TO.N,/EPD Power Rails/VEE_D*%
X107440000Y-69875000D03*
%TO.P,U1,31,VEE_FB*%
%TO.N,/EPD Power Rails/VEE_FB*%
X107440000Y-70375000D03*
%TO.P,U1,32,PGND2*%
%TO.N,GND*%
X107440000Y-70875000D03*
%TO.P,U1,33,VDDH_FB*%
%TO.N,/EPD Power Rails/VDDH_FB*%
X107440000Y-71375000D03*
%TO.P,U1,34,VDDH_D*%
%TO.N,/EPD Power Rails/VDDH_D*%
X107440000Y-71875000D03*
%TO.P,U1,35,VDDH_DIS*%
%TO.N,unconnected-(U1-VDDH_DIS-Pad35)*%
X107440000Y-72375000D03*
%TO.P,U1,36,VDDH_DRV*%
%TO.N,/EPD Power Rails/VDDH_DRV*%
X107440000Y-72875000D03*
D12*
%TO.P,U1,37,VDDH_IN*%
%TO.N,/EPD Power Rails/VB*%
X108125000Y-73560000D03*
%TO.P,U1,38*%
%TO.N,N/C*%
X108625000Y-73560000D03*
%TO.P,U1,39*%
X109125000Y-73560000D03*
%TO.P,U1,40,VB_SW*%
%TO.N,/EPD Power Rails/VB_SW*%
X109625000Y-73560000D03*
%TO.P,U1,41,PGDN1*%
%TO.N,GND*%
X110125000Y-73560000D03*
%TO.P,U1,42,VB*%
%TO.N,/EPD Power Rails/VB*%
X110625000Y-73560000D03*
%TO.P,U1,43,VPOS_IN*%
X111125000Y-73560000D03*
%TO.P,U1,44,VPOS*%
%TO.N,+15V*%
X111625000Y-73560000D03*
%TO.P,U1,45,VIN3P3*%
%TO.N,+3.3V*%
X112125000Y-73560000D03*
%TO.P,U1,46,V3P3*%
%TO.N,+3.3V_{EPD}*%
X112625000Y-73560000D03*
%TO.P,U1,47,TS*%
%TO.N,/EPD Power Rails/TS*%
X113125000Y-73560000D03*
%TO.P,U1,48,AGND2*%
%TO.N,GND*%
X113625000Y-73560000D03*
D13*
%TO.P,U1,49,SUBSTRATE*%
%TO.N,/EPD Power Rails/VN*%
X110875000Y-70125000D03*
%TD*%
D14*
%TO.P,R9,1*%
%TO.N,GND*%
X100306252Y-71226248D03*
%TO.P,R9,2*%
%TO.N,/EPD Power Rails/VEE_FB*%
X98656252Y-71226248D03*
%TD*%
%TO.P,R8,1*%
%TO.N,/EPD Power Rails/VEE_FB*%
X96556252Y-71976248D03*
%TO.P,R8,2*%
%TO.N,-20V*%
X94906252Y-71976248D03*
%TD*%
D15*
%TO.P,D1,1,A*%
%TO.N,-20V*%
X94975000Y-69940000D03*
%TO.P,D1,2,K*%
%TO.N,/EPD Power Rails/VEE_D*%
X96875000Y-69940000D03*
%TO.P,D1,3,common*%
%TO.N,/EPD Power Rails/vee_drv_0*%
X95925000Y-68065000D03*
%TD*%
D16*
%TO.P,C19,1*%
%TO.N,GND*%
X92981252Y-67776248D03*
%TO.P,C19,2*%
%TO.N,-20V*%
X92981252Y-69676248D03*
%TD*%
D17*
%TO.P,C16,1*%
%TO.N,GND*%
X100256252Y-69476248D03*
%TO.P,C16,2*%
%TO.N,/EPD Power Rails/VEE_D*%
X98706252Y-69476248D03*
%TD*%
%TO.P,C15,1*%
%TO.N,/EPD Power Rails/VEE_DRV*%
X100256252Y-67726248D03*
%TO.P,C15,2*%
%TO.N,/EPD Power Rails/vee_drv_0*%
X98706252Y-67726248D03*
%TD*%
D18*
%TO.P,J2,1,Pin_1*%
%TO.N,GND*%
X67293200Y-95750000D03*
D19*
%TO.P,J2,2,Pin_2*%
%TO.N,/SPI1_MOSI*%
X64753200Y-95750000D03*
%TO.P,J2,3,Pin_3*%
%TO.N,/SPI1_MISO*%
X62213200Y-95750000D03*
%TO.P,J2,4,Pin_4*%
%TO.N,/SPI1_SCK*%
X59673200Y-95750000D03*
%TO.P,J2,5,Pin_5*%
%TO.N,/~{SPI1_CS}*%
X57133200Y-95750000D03*
%TO.P,J2,6,Pin_6*%
%TO.N,+3.3V*%
X54593200Y-95750000D03*
%TD*%
D20*
%TO.P,Y1,1,1*%
%TO.N,/HSE_IN*%
X52250000Y-67050000D03*
%TO.P,Y1,2,2*%
%TO.N,GND*%
X52250000Y-69250000D03*
%TO.P,Y1,3,3*%
%TO.N,/HSE_OUT_CRYSTAL*%
X53950000Y-69250000D03*
%TO.P,Y1,4,4*%
%TO.N,GND*%
X53950000Y-67050000D03*
%TD*%
D21*
%TO.P,U5,1,I/O1*%
%TO.N,/USART1_RX*%
X92710000Y-58087500D03*
%TO.P,U5,2,GND*%
%TO.N,GND*%
X91760000Y-58087500D03*
%TO.P,U5,3,I/O2*%
%TO.N,/USART1_TX*%
X90810000Y-58087500D03*
%TO.P,U5,4,I/O2*%
X90810000Y-60362500D03*
%TO.P,U5,5,VBUS*%
%TO.N,+3.3V*%
X91760000Y-60362500D03*
%TO.P,U5,6,I/O1*%
%TO.N,/USART1_RX*%
X92710000Y-60362500D03*
%TD*%
%TO.P,U4,1,I/O1*%
%TO.N,/SWDIO*%
X73700000Y-56862500D03*
%TO.P,U4,2,GND*%
%TO.N,GND*%
X72750000Y-56862500D03*
%TO.P,U4,3,I/O2*%
%TO.N,/SWCLK*%
X71800000Y-56862500D03*
%TO.P,U4,4,I/O2*%
X71800000Y-59137500D03*
%TO.P,U4,5,VBUS*%
%TO.N,+3.3V*%
X72750000Y-59137500D03*
%TO.P,U4,6,I/O1*%
%TO.N,/SWDIO*%
X73700000Y-59137500D03*
%TD*%
D22*
%TO.P,U3,1,I/O1*%
%TO.N,/SPI1_MOSI*%
X61890700Y-89950000D03*
%TO.P,U3,2,GND*%
%TO.N,GND*%
X61890700Y-89000000D03*
%TO.P,U3,3,I/O2*%
%TO.N,/SPI1_MISO*%
X61890700Y-88050000D03*
%TO.P,U3,4,I/O3*%
%TO.N,/SPI1_SCK*%
X59615700Y-88050000D03*
%TO.P,U3,5,VBUS*%
%TO.N,+3.3V*%
X59615700Y-89000000D03*
%TO.P,U3,6,I/O4*%
%TO.N,/~{SPI1_CS}*%
X59615700Y-89950000D03*
%TD*%
D23*
%TO.P,U2,1,VBAT*%
%TO.N,+3.3V*%
X63837500Y-65750000D03*
%TO.P,U2,2,PC13*%
%TO.N,/EPD_OE*%
X63837500Y-66250000D03*
%TO.P,U2,3,PC14*%
%TO.N,/D0*%
X63837500Y-66750000D03*
%TO.P,U2,4,PC15*%
%TO.N,/D1*%
X63837500Y-67250000D03*
%TO.P,U2,5,PD0*%
%TO.N,/HSE_IN*%
X63837500Y-67750000D03*
%TO.P,U2,6,PD1*%
%TO.N,/HSE_OUT*%
X63837500Y-68250000D03*
%TO.P,U2,7,NRST*%
%TO.N,/NRST*%
X63837500Y-68750000D03*
%TO.P,U2,8,VSSA*%
%TO.N,GND*%
X63837500Y-69250000D03*
%TO.P,U2,9,VDDA*%
%TO.N,+3.3VA*%
X63837500Y-69750000D03*
%TO.P,U2,10,PA0*%
%TO.N,/EPD_CLK*%
X63837500Y-70250000D03*
%TO.P,U2,11,PA1*%
%TO.N,/EPD_SPH*%
X63837500Y-70750000D03*
%TO.P,U2,12,PA2*%
%TO.N,/EPD_LE*%
X63837500Y-71250000D03*
D24*
%TO.P,U2,13,PA3*%
%TO.N,unconnected-(U2-PA3-Pad13)*%
X65250000Y-72662500D03*
%TO.P,U2,14,PA4*%
%TO.N,/~{SPI1_CS}*%
X65750000Y-72662500D03*
%TO.P,U2,15,PA5*%
%TO.N,/SPI1_SCK*%
X66250000Y-72662500D03*
%TO.P,U2,16,PA6*%
%TO.N,/SPI1_MISO*%
X66750000Y-72662500D03*
%TO.P,U2,17,PA7*%
%TO.N,/SPI1_MOSI*%
X67250000Y-72662500D03*
%TO.P,U2,18,PB0*%
%TO.N,/D2*%
X67750000Y-72662500D03*
%TO.P,U2,19,PB1*%
%TO.N,/D3*%
X68250000Y-72662500D03*
%TO.P,U2,20,PB2*%
%TO.N,/D4*%
X68750000Y-72662500D03*
%TO.P,U2,21,PB10*%
%TO.N,/EPD_CKV*%
X69250000Y-72662500D03*
%TO.P,U2,22,PB11*%
%TO.N,/TPS_WAKEUP*%
X69750000Y-72662500D03*
%TO.P,U2,23,VSS*%
%TO.N,GND*%
X70250000Y-72662500D03*
%TO.P,U2,24,VDD*%
%TO.N,+3.3V*%
X70750000Y-72662500D03*
D23*
%TO.P,U2,25,PB12*%
%TO.N,/TPS_PWRUP*%
X72162500Y-71250000D03*
%TO.P,U2,26,PB13*%
%TO.N,/TPS_VCOM_CTRL*%
X72162500Y-70750000D03*
%TO.P,U2,27,PB14*%
%TO.N,/TPS_PWRGOOD*%
X72162500Y-70250000D03*
%TO.P,U2,28,PB15*%
%TO.N,/TPS_~{INT}*%
X72162500Y-69750000D03*
%TO.P,U2,29,PA8*%
%TO.N,unconnected-(U2-PA8-Pad29)*%
X72162500Y-69250000D03*
%TO.P,U2,30,PA9*%
%TO.N,/USART1_RX*%
X72162500Y-68750000D03*
%TO.P,U2,31,PA10*%
%TO.N,/USART1_TX*%
X72162500Y-68250000D03*
%TO.P,U2,32,PA11*%
%TO.N,unconnected-(U2-PA11-Pad32)*%
X72162500Y-67750000D03*
%TO.P,U2,33,PA12*%
%TO.N,unconnected-(U2-PA12-Pad33)*%
X72162500Y-67250000D03*
%TO.P,U2,34,PA13*%
%TO.N,/SWDIO*%
X72162500Y-66750000D03*
%TO.P,U2,35,VSS*%
%TO.N,GND*%
X72162500Y-66250000D03*
%TO.P,U2,36,VDD*%
%TO.N,+3.3V*%
X72162500Y-65750000D03*
D24*
%TO.P,U2,37,PA14*%
%TO.N,/SWCLK*%
X70750000Y-64337500D03*
%TO.P,U2,38,PA15*%
%TO.N,unconnected-(U2-PA15-Pad38)*%
X70250000Y-64337500D03*
%TO.P,U2,39,PB3*%
%TO.N,/D5*%
X69750000Y-64337500D03*
%TO.P,U2,40,PB4*%
%TO.N,/D6*%
X69250000Y-64337500D03*
%TO.P,U2,41,PB5*%
%TO.N,/D7*%
X68750000Y-64337500D03*
%TO.P,U2,42,PB6*%
%TO.N,/I2C1_SCL*%
X68250000Y-64337500D03*
%TO.P,U2,43,PB7*%
%TO.N,/I2C1_SDA*%
X67750000Y-64337500D03*
%TO.P,U2,44,BOOT0*%
%TO.N,/BOOT0*%
X67250000Y-64337500D03*
%TO.P,U2,45,PB8*%
%TO.N,/EPD_GMODE*%
X66750000Y-64337500D03*
%TO.P,U2,46,PB9*%
%TO.N,/EPD_SPV*%
X66250000Y-64337500D03*
%TO.P,U2,47,VSS*%
%TO.N,GND*%
X65750000Y-64337500D03*
%TO.P,U2,48,VDD*%
%TO.N,+3.3V*%
X65250000Y-64337500D03*
%TD*%
D14*
%TO.P,TH1,1*%
%TO.N,GND*%
X122950000Y-75625000D03*
%TO.P,TH1,2*%
%TO.N,/EPD Power Rails/TS*%
X121300000Y-75625000D03*
%TD*%
D25*
%TO.P,SW2,1*%
%TO.N,/PWR_ON_LED*%
X67003200Y-87750000D03*
%TO.P,SW2,2*%
%TO.N,Net-(R3-Pad1)*%
X75803200Y-87750000D03*
%TD*%
D26*
%TO.P,SW1,1,A*%
%TO.N,GND*%
X54250000Y-56500000D03*
D27*
%TO.P,SW1,2,B*%
%TO.N,/SW_BOOT0*%
X54250000Y-58500000D03*
%TO.P,SW1,3,C*%
%TO.N,+3.3V*%
X54250000Y-60500000D03*
D28*
%TO.P,SW1,S1*%
%TO.N,N/C*%
X54250000Y-54300000D03*
%TO.P,SW1,S2*%
X54250000Y-62700000D03*
%TD*%
D29*
%TO.P,R14,1*%
%TO.N,+3.3V*%
X78750000Y-59675000D03*
%TO.P,R14,2*%
%TO.N,/I2C1_SDA*%
X78750000Y-61325000D03*
%TD*%
%TO.P,R12,1*%
%TO.N,+3.3V*%
X80750000Y-61175000D03*
%TO.P,R12,2*%
%TO.N,/I2C1_SCL*%
X80750000Y-62825000D03*
%TD*%
D30*
%TO.P,R10,1*%
%TO.N,/SW_BOOT0*%
X64425000Y-58000000D03*
%TO.P,R10,2*%
%TO.N,/BOOT0*%
X66075000Y-58000000D03*
%TD*%
D31*
%TO.P,R7,1*%
%TO.N,+3.3V*%
X83250000Y-73325000D03*
%TO.P,R7,2*%
%TO.N,/TPS_PWRGOOD*%
X83250000Y-71675000D03*
%TD*%
D29*
%TO.P,R6,1*%
%TO.N,+3.3V*%
X83250000Y-67925000D03*
%TO.P,R6,2*%
%TO.N,/TPS_~{INT}*%
X83250000Y-69575000D03*
%TD*%
D31*
%TO.P,R5,2*%
%TO.N,/HSE_OUT*%
X58350000Y-69325000D03*
%TO.P,R5,1*%
%TO.N,/HSE_OUT_CRYSTAL*%
X58350000Y-70975000D03*
%TD*%
D14*
%TO.P,R4,1*%
%TO.N,GND*%
X122950000Y-77375000D03*
%TO.P,R4,2*%
%TO.N,/EPD Power Rails/TS*%
X121300000Y-77375000D03*
%TD*%
%TO.P,R3,1*%
%TO.N,Net-(R3-Pad1)*%
X75575000Y-84250000D03*
%TO.P,R3,2*%
%TO.N,GND*%
X73925000Y-84250000D03*
%TD*%
%TO.P,R2,1*%
%TO.N,GND*%
X99950000Y-75062500D03*
%TO.P,R2,2*%
%TO.N,/EPD Power Rails/VDDH_FB*%
X98300000Y-75062500D03*
%TD*%
%TO.P,R1,2*%
%TO.N,+22V*%
X95050000Y-74312500D03*
%TO.P,R1,1*%
%TO.N,/EPD Power Rails/VDDH_FB*%
X96700000Y-74312500D03*
%TD*%
D32*
%TO.P,L2,1,1*%
%TO.N,GND*%
X103625000Y-58975000D03*
%TO.P,L2,2,2*%
%TO.N,/EPD Power Rails/VN_SW*%
X103625000Y-61775000D03*
%TD*%
D33*
%TO.P,L1,1,1*%
%TO.N,+3.3V*%
X108575000Y-83375000D03*
%TO.P,L1,2,2*%
%TO.N,/EPD Power Rails/VB_SW*%
X108575000Y-81725000D03*
%TD*%
D18*
%TO.P,J4,1,Pin_1*%
%TO.N,GND*%
X68700000Y-53612500D03*
D19*
%TO.P,J4,2,Pin_2*%
%TO.N,/SWCLK*%
X71240000Y-53612500D03*
%TO.P,J4,3,Pin_3*%
%TO.N,/SWDIO*%
X73780000Y-53612500D03*
%TO.P,J4,4,Pin_4*%
%TO.N,+3.3V*%
X76320000Y-53612500D03*
%TD*%
%TO.P,J3,4,Pin_4*%
%TO.N,+3.3V*%
X95330000Y-53725000D03*
%TO.P,J3,3,Pin_3*%
%TO.N,/USART1_RX*%
X92790000Y-53725000D03*
%TO.P,J3,2,Pin_2*%
%TO.N,/USART1_TX*%
X90250000Y-53725000D03*
D18*
%TO.P,J3,1,Pin_1*%
%TO.N,GND*%
X87710000Y-53725000D03*
%TD*%
D34*
%TO.P,J1,1,VNEG*%
%TO.N,-15V*%
X89550000Y-97500000D03*
D35*
%TO.P,J1,2,VPOS*%
%TO.N,+15V*%
X89850000Y-94500000D03*
D34*
%TO.P,J1,3,GND*%
%TO.N,GND*%
X90150000Y-97500000D03*
D35*
%TO.P,J1,4,VDD*%
%TO.N,+3.3V_{EPD}*%
X90450000Y-94500000D03*
D34*
%TO.P,J1,5,CLK*%
%TO.N,/EPD_CLK*%
X90750000Y-97500000D03*
D35*
%TO.P,J1,6,LE*%
%TO.N,/EPD_LE*%
X91050000Y-94500000D03*
D34*
%TO.P,J1,7,OE*%
%TO.N,/EPD_OE*%
X91350000Y-97500000D03*
D35*
%TO.P,J1,8,SHR*%
%TO.N,+3.3V_{EPD}*%
X91650000Y-94500000D03*
D34*
%TO.P,J1,9,CE1*%
%TO.N,GND*%
X91950000Y-97500000D03*
D35*
%TO.P,J1,10,CE2*%
%TO.N,+3.3V_{EPD}*%
X92250000Y-94500000D03*
D34*
%TO.P,J1,11,SPH*%
%TO.N,/EPD_SPH*%
X92550000Y-97500000D03*
D35*
%TO.P,J1,12,D0*%
%TO.N,/D0*%
X92850000Y-94500000D03*
D34*
%TO.P,J1,13,D1*%
%TO.N,/D1*%
X93150000Y-97500000D03*
D35*
%TO.P,J1,14,D2*%
%TO.N,/D2*%
X93450000Y-94500000D03*
D34*
%TO.P,J1,15,D3*%
%TO.N,/D3*%
X93750000Y-97500000D03*
D35*
%TO.P,J1,16,D4*%
%TO.N,/D4*%
X94050000Y-94500000D03*
D34*
%TO.P,J1,17,D5*%
%TO.N,/D5*%
X94350000Y-97500000D03*
D35*
%TO.P,J1,18,D6*%
%TO.N,/D6*%
X94650000Y-94500000D03*
D34*
%TO.P,J1,19,D7*%
%TO.N,/D7*%
X94950000Y-97500000D03*
D35*
%TO.P,J1,20,NC*%
%TO.N,unconnected-(J1-NC-Pad20)*%
X95250000Y-94500000D03*
D34*
%TO.P,J1,21,NC*%
%TO.N,unconnected-(J1-NC-Pad21)*%
X95550000Y-97500000D03*
D35*
%TO.P,J1,22,VCOM*%
%TO.N,VCOM*%
X95850000Y-94500000D03*
D34*
%TO.P,J1,23,GVDD*%
%TO.N,+22V*%
X96150000Y-97500000D03*
D35*
%TO.P,J1,24,GVEE*%
%TO.N,-20V*%
X96450000Y-94500000D03*
D34*
%TO.P,J1,25,NC*%
%TO.N,unconnected-(J1-NC-Pad25)*%
X96750000Y-97500000D03*
D35*
%TO.P,J1,26,NC*%
%TO.N,unconnected-(J1-NC-Pad26)*%
X97050000Y-94500000D03*
D34*
%TO.P,J1,27,GMODE2*%
%TO.N,/EPD_GMODE*%
X97350000Y-97500000D03*
D35*
%TO.P,J1,28,GMODE1*%
X97650000Y-94500000D03*
D34*
%TO.P,J1,29,RL*%
%TO.N,+3.3V_{EPD}*%
X97950000Y-97500000D03*
D35*
%TO.P,J1,30,U1CE2*%
X98250000Y-94500000D03*
D34*
%TO.P,J1,31,U1CE1*%
%TO.N,GND*%
X98550000Y-97500000D03*
D35*
%TO.P,J1,32,U1SPV*%
%TO.N,/EPD_SPV*%
X98850000Y-94500000D03*
D34*
%TO.P,J1,33,U1CKV*%
%TO.N,/EPD_CKV*%
X99150000Y-97500000D03*
D35*
%TO.P,J1,34,VBORDER*%
%TO.N,GND*%
X99450000Y-94500000D03*
D34*
%TO.P,J1,35,U2CE2*%
%TO.N,+3.3V_{EPD}*%
X99750000Y-97500000D03*
D35*
%TO.P,J1,36,U2CE1*%
X100050000Y-94500000D03*
D34*
%TO.P,J1,37,U2SPV*%
%TO.N,/EPD_SPV*%
X100350000Y-97500000D03*
D35*
%TO.P,J1,38,U2CKV*%
%TO.N,/EPD_CKV*%
X100650000Y-94500000D03*
D34*
%TO.P,J1,39,NC*%
%TO.N,unconnected-(J1-NC-Pad39)*%
X100950000Y-97500000D03*
D36*
%TO.P,J1,S1*%
%TO.N,N/C*%
X88850000Y-97225000D03*
%TO.P,J1,S2*%
X101650000Y-97225000D03*
%TD*%
D29*
%TO.P,FB1,1*%
%TO.N,+3.3VA*%
X63750000Y-73425000D03*
%TO.P,FB1,2*%
%TO.N,+3.3V*%
X63750000Y-75075000D03*
%TD*%
D37*
%TO.P,D8,1,A*%
%TO.N,/EPD Power Rails/VDDH_D*%
X96575000Y-76375000D03*
%TO.P,D8,2,K*%
%TO.N,+22V*%
X94675000Y-76375000D03*
%TO.P,D8,3,common*%
%TO.N,/EPD Power Rails/vddh_drv_0*%
X95625000Y-78250000D03*
%TD*%
D38*
%TO.P,D4,1,K*%
%TO.N,/EPD Power Rails/VN_SW*%
X103525000Y-64625000D03*
%TO.P,D4,2,A*%
%TO.N,/EPD Power Rails/VN*%
X100225000Y-64625000D03*
%TD*%
D39*
%TO.P,D3,1,K*%
%TO.N,/EPD Power Rails/VB*%
X111825000Y-79975000D03*
%TO.P,D3,2,A*%
%TO.N,/EPD Power Rails/VB_SW*%
X111825000Y-83275000D03*
%TD*%
D40*
%TO.P,D2,1,K*%
%TO.N,/PWR_ON_LED*%
X67537500Y-91250000D03*
%TO.P,D2,2,A*%
%TO.N,+3.3V*%
X65962500Y-91250000D03*
%TD*%
D41*
%TO.P,C41,1*%
%TO.N,-20V*%
X97750000Y-90250000D03*
%TO.P,C41,2*%
%TO.N,GND*%
X97750000Y-91800000D03*
%TD*%
D17*
%TO.P,C39,1*%
%TO.N,-15V*%
X87525000Y-97250000D03*
%TO.P,C39,2*%
%TO.N,GND*%
X85975000Y-97250000D03*
%TD*%
D42*
%TO.P,C38,1*%
%TO.N,+15V*%
X89500000Y-91750000D03*
%TO.P,C38,2*%
%TO.N,GND*%
X89500000Y-90200000D03*
%TD*%
D43*
%TO.P,C37,1*%
%TO.N,+3.3V_{EPD}*%
X85975000Y-95500000D03*
%TO.P,C37,2*%
%TO.N,GND*%
X87525000Y-95500000D03*
%TD*%
D17*
%TO.P,C36,1*%
%TO.N,+3.3V_{EPD}*%
X87525000Y-93250000D03*
%TO.P,C36,2*%
%TO.N,GND*%
X85975000Y-93250000D03*
%TD*%
D43*
%TO.P,C35,1*%
%TO.N,+3.3V_{EPD}*%
X103225000Y-94750000D03*
%TO.P,C35,2*%
%TO.N,GND*%
X104775000Y-94750000D03*
%TD*%
D42*
%TO.P,C34,1*%
%TO.N,+3.3V_{EPD}*%
X100500000Y-91800000D03*
%TO.P,C34,2*%
%TO.N,GND*%
X100500000Y-90250000D03*
%TD*%
%TO.P,C33,1*%
%TO.N,+3.3V_{EPD}*%
X92250000Y-91800000D03*
%TO.P,C33,2*%
%TO.N,GND*%
X92250000Y-90250000D03*
%TD*%
D43*
%TO.P,C32,1*%
%TO.N,+3.3V_{EPD}*%
X103225000Y-97250000D03*
%TO.P,C32,2*%
%TO.N,GND*%
X104775000Y-97250000D03*
%TD*%
D42*
%TO.P,C31,1*%
%TO.N,+3.3V_{EPD}*%
X95000000Y-91800000D03*
%TO.P,C31,2*%
%TO.N,GND*%
X95000000Y-90250000D03*
%TD*%
D41*
%TO.P,C30,2*%
%TO.N,/HSE_OUT_CRYSTAL*%
X56600000Y-70925000D03*
%TO.P,C30,1*%
%TO.N,GND*%
X56600000Y-69375000D03*
%TD*%
%TO.P,C29,1*%
%TO.N,GND*%
X56600000Y-66125000D03*
%TO.P,C29,2*%
%TO.N,/HSE_IN*%
X56600000Y-67675000D03*
%TD*%
D43*
%TO.P,C28,1*%
%TO.N,GND*%
X62725000Y-78250000D03*
%TO.P,C28,2*%
%TO.N,/NRST*%
X64275000Y-78250000D03*
%TD*%
D17*
%TO.P,C27,1*%
%TO.N,+3.3V*%
X62025000Y-75500000D03*
%TO.P,C27,2*%
%TO.N,GND*%
X60475000Y-75500000D03*
%TD*%
%TO.P,C26,1*%
%TO.N,+3.3VA*%
X62025000Y-73250000D03*
%TO.P,C26,2*%
%TO.N,GND*%
X60475000Y-73250000D03*
%TD*%
D42*
%TO.P,C25,1*%
%TO.N,+3.3VA*%
X61000000Y-70275000D03*
%TO.P,C25,2*%
%TO.N,GND*%
X61000000Y-68725000D03*
%TD*%
D17*
%TO.P,C24,2*%
%TO.N,GND*%
X60700000Y-61500000D03*
%TO.P,C24,1*%
%TO.N,+3.3V*%
X62250000Y-61500000D03*
%TD*%
D41*
%TO.P,C23,1*%
%TO.N,+3.3V*%
X75000000Y-64975000D03*
%TO.P,C23,2*%
%TO.N,GND*%
X75000000Y-66525000D03*
%TD*%
D43*
%TO.P,C22,1*%
%TO.N,+3.3V*%
X64475000Y-61750000D03*
%TO.P,C22,2*%
%TO.N,GND*%
X66025000Y-61750000D03*
%TD*%
D17*
%TO.P,C21,1*%
%TO.N,+3.3V*%
X71525000Y-75250000D03*
%TO.P,C21,2*%
%TO.N,GND*%
X69975000Y-75250000D03*
%TD*%
D42*
%TO.P,C20,1*%
%TO.N,+3.3V*%
X61000000Y-65525000D03*
%TO.P,C20,2*%
%TO.N,GND*%
X61000000Y-63975000D03*
%TD*%
D44*
%TO.P,C18,1*%
%TO.N,GND*%
X94425000Y-64625000D03*
%TO.P,C18,2*%
%TO.N,/EPD Power Rails/VN*%
X96325000Y-64625000D03*
%TD*%
D41*
%TO.P,C17,1*%
%TO.N,GND*%
X108125000Y-62600000D03*
%TO.P,C17,2*%
%TO.N,+3.3V*%
X108125000Y-64150000D03*
%TD*%
D45*
%TO.P,C14,1*%
%TO.N,/EPD Power Rails/VN*%
X113375000Y-64325000D03*
%TO.P,C14,2*%
%TO.N,GND*%
X113375000Y-62425000D03*
%TD*%
D44*
%TO.P,C13,1*%
%TO.N,/EPD Power Rails/VREF*%
X118175000Y-73125000D03*
%TO.P,C13,2*%
%TO.N,GND*%
X120075000Y-73125000D03*
%TD*%
%TO.P,C12,1*%
%TO.N,/EPD Power Rails/INT_LDO*%
X118175000Y-69125000D03*
%TO.P,C12,2*%
%TO.N,GND*%
X120075000Y-69125000D03*
%TD*%
%TO.P,C11,1*%
%TO.N,-15V*%
X121925000Y-72375000D03*
%TO.P,C11,2*%
%TO.N,GND*%
X123825000Y-72375000D03*
%TD*%
%TO.P,C10,1*%
%TO.N,/EPD Power Rails/VN*%
X121925000Y-70125000D03*
%TO.P,C10,2*%
%TO.N,GND*%
X123825000Y-70125000D03*
%TD*%
D17*
%TO.P,C9,1*%
%TO.N,GND*%
X99900000Y-76812500D03*
%TO.P,C9,2*%
%TO.N,/EPD Power Rails/VDDH_D*%
X98350000Y-76812500D03*
%TD*%
D46*
%TO.P,C8,1*%
%TO.N,GND*%
X113525000Y-77875000D03*
%TO.P,C8,2*%
%TO.N,/EPD Power Rails/VB*%
X111625000Y-77875000D03*
%TD*%
D43*
%TO.P,C7,1*%
%TO.N,/EPD Power Rails/vddh_drv_0*%
X98350000Y-78562500D03*
%TO.P,C7,2*%
%TO.N,/EPD Power Rails/VDDH_DRV*%
X99900000Y-78562500D03*
%TD*%
D44*
%TO.P,C6,1*%
%TO.N,GND*%
X107625000Y-77875000D03*
%TO.P,C6,2*%
%TO.N,/EPD Power Rails/VB*%
X109525000Y-77875000D03*
%TD*%
D43*
%TO.P,C5,1*%
%TO.N,GND*%
X106575000Y-85125000D03*
%TO.P,C5,2*%
%TO.N,+3.3V*%
X108125000Y-85125000D03*
%TD*%
D44*
%TO.P,C4,2*%
%TO.N,GND*%
X117275000Y-77875000D03*
%TO.P,C4,1*%
%TO.N,+15V*%
X115375000Y-77875000D03*
%TD*%
D45*
%TO.P,C3,1*%
%TO.N,VCOM*%
X115625000Y-64325000D03*
%TO.P,C3,2*%
%TO.N,GND*%
X115625000Y-62425000D03*
%TD*%
D43*
%TO.P,C2,1*%
%TO.N,+3.3V*%
X118100000Y-66875000D03*
%TO.P,C2,2*%
%TO.N,GND*%
X119650000Y-66875000D03*
%TD*%
D45*
%TO.P,C1,1*%
%TO.N,GND*%
X92550000Y-78512500D03*
%TO.P,C1,2*%
%TO.N,+22V*%
X92550000Y-76612500D03*
%TD*%
D47*
%TO.N,/EPD Power Rails/VN*%
X112125000Y-66690000D02*
X112125000Y-68875000D01*
X112125000Y-68875000D02*
X110875000Y-70125000D01*
X107440000Y-68375000D02*
X109125000Y-68375000D01*
X109125000Y-68375000D02*
X110875000Y-70125000D01*
X107440000Y-67875000D02*
X108625000Y-67875000D01*
X108625000Y-67875000D02*
X110875000Y-70125000D01*
X114310000Y-71375000D02*
X112125000Y-71375000D01*
X112125000Y-71375000D02*
X110875000Y-70125000D01*
X109125000Y-66690000D02*
X109125000Y-68375000D01*
D48*
%TO.N,/EPD_SPV*%
X98850000Y-94500000D02*
X98750000Y-94400000D01*
%TD*%
M02*
