%TF.GenerationSoftware,KiCad,Pcbnew,7.0.1*%
%TF.CreationDate,2023-04-19T22:54:30+02:00*%
%TF.ProjectId,ED060SC4_SPI_driver_board,45443036-3053-4433-945f-5350495f6472,rev?*%
%TF.SameCoordinates,Original*%
%TF.FileFunction,Legend,Top*%
%TF.FilePolarity,Positive*%
%FSLAX46Y46*%
G04 Gerber Fmt 4.6, Leading zero omitted, Abs format (unit mm)*
G04 Created by KiCad (PCBNEW 7.0.1) date 2023-04-19 22:54:30*
%MOMM*%
%LPD*%
G01*
G04 APERTURE LIST*
%ADD10C,0.150000*%
%ADD11C,0.015000*%
%ADD12C,0.120000*%
%ADD13C,0.127000*%
%ADD14C,0.200000*%
G04 APERTURE END LIST*
D10*
%TO.C,TP9*%
X123601191Y-80245095D02*
X123601191Y-79445095D01*
X123982143Y-80245095D02*
X123982143Y-79445095D01*
X123982143Y-79445095D02*
X124439286Y-80245095D01*
X124439286Y-80245095D02*
X124439286Y-79445095D01*
X124705952Y-79445095D02*
X125163095Y-79445095D01*
X124934523Y-80245095D02*
X124934523Y-79445095D01*
X123490715Y-79087000D02*
X125159286Y-79087000D01*
%TO.C,TP8*%
X107315476Y-57995095D02*
X107315476Y-57195095D01*
X107315476Y-57195095D02*
X107620238Y-57195095D01*
X107620238Y-57195095D02*
X107696428Y-57233190D01*
X107696428Y-57233190D02*
X107734523Y-57271285D01*
X107734523Y-57271285D02*
X107772619Y-57347476D01*
X107772619Y-57347476D02*
X107772619Y-57461761D01*
X107772619Y-57461761D02*
X107734523Y-57537952D01*
X107734523Y-57537952D02*
X107696428Y-57576047D01*
X107696428Y-57576047D02*
X107620238Y-57614142D01*
X107620238Y-57614142D02*
X107315476Y-57614142D01*
X108039285Y-57195095D02*
X108229761Y-57995095D01*
X108229761Y-57995095D02*
X108382142Y-57423666D01*
X108382142Y-57423666D02*
X108534523Y-57995095D01*
X108534523Y-57995095D02*
X108725000Y-57195095D01*
X109486905Y-57995095D02*
X109220238Y-57614142D01*
X109029762Y-57995095D02*
X109029762Y-57195095D01*
X109029762Y-57195095D02*
X109334524Y-57195095D01*
X109334524Y-57195095D02*
X109410714Y-57233190D01*
X109410714Y-57233190D02*
X109448809Y-57271285D01*
X109448809Y-57271285D02*
X109486905Y-57347476D01*
X109486905Y-57347476D02*
X109486905Y-57461761D01*
X109486905Y-57461761D02*
X109448809Y-57537952D01*
X109448809Y-57537952D02*
X109410714Y-57576047D01*
X109410714Y-57576047D02*
X109334524Y-57614142D01*
X109334524Y-57614142D02*
X109029762Y-57614142D01*
X109639286Y-58071285D02*
X110248809Y-58071285D01*
X110858333Y-57233190D02*
X110782143Y-57195095D01*
X110782143Y-57195095D02*
X110667857Y-57195095D01*
X110667857Y-57195095D02*
X110553571Y-57233190D01*
X110553571Y-57233190D02*
X110477381Y-57309380D01*
X110477381Y-57309380D02*
X110439286Y-57385571D01*
X110439286Y-57385571D02*
X110401190Y-57537952D01*
X110401190Y-57537952D02*
X110401190Y-57652238D01*
X110401190Y-57652238D02*
X110439286Y-57804619D01*
X110439286Y-57804619D02*
X110477381Y-57880809D01*
X110477381Y-57880809D02*
X110553571Y-57957000D01*
X110553571Y-57957000D02*
X110667857Y-57995095D01*
X110667857Y-57995095D02*
X110744048Y-57995095D01*
X110744048Y-57995095D02*
X110858333Y-57957000D01*
X110858333Y-57957000D02*
X110896429Y-57918904D01*
X110896429Y-57918904D02*
X110896429Y-57652238D01*
X110896429Y-57652238D02*
X110744048Y-57652238D01*
X111391667Y-57195095D02*
X111544048Y-57195095D01*
X111544048Y-57195095D02*
X111620238Y-57233190D01*
X111620238Y-57233190D02*
X111696429Y-57309380D01*
X111696429Y-57309380D02*
X111734524Y-57461761D01*
X111734524Y-57461761D02*
X111734524Y-57728428D01*
X111734524Y-57728428D02*
X111696429Y-57880809D01*
X111696429Y-57880809D02*
X111620238Y-57957000D01*
X111620238Y-57957000D02*
X111544048Y-57995095D01*
X111544048Y-57995095D02*
X111391667Y-57995095D01*
X111391667Y-57995095D02*
X111315476Y-57957000D01*
X111315476Y-57957000D02*
X111239286Y-57880809D01*
X111239286Y-57880809D02*
X111201190Y-57728428D01*
X111201190Y-57728428D02*
X111201190Y-57461761D01*
X111201190Y-57461761D02*
X111239286Y-57309380D01*
X111239286Y-57309380D02*
X111315476Y-57233190D01*
X111315476Y-57233190D02*
X111391667Y-57195095D01*
X112229762Y-57195095D02*
X112382143Y-57195095D01*
X112382143Y-57195095D02*
X112458333Y-57233190D01*
X112458333Y-57233190D02*
X112534524Y-57309380D01*
X112534524Y-57309380D02*
X112572619Y-57461761D01*
X112572619Y-57461761D02*
X112572619Y-57728428D01*
X112572619Y-57728428D02*
X112534524Y-57880809D01*
X112534524Y-57880809D02*
X112458333Y-57957000D01*
X112458333Y-57957000D02*
X112382143Y-57995095D01*
X112382143Y-57995095D02*
X112229762Y-57995095D01*
X112229762Y-57995095D02*
X112153571Y-57957000D01*
X112153571Y-57957000D02*
X112077381Y-57880809D01*
X112077381Y-57880809D02*
X112039285Y-57728428D01*
X112039285Y-57728428D02*
X112039285Y-57461761D01*
X112039285Y-57461761D02*
X112077381Y-57309380D01*
X112077381Y-57309380D02*
X112153571Y-57233190D01*
X112153571Y-57233190D02*
X112229762Y-57195095D01*
X112915476Y-57995095D02*
X112915476Y-57195095D01*
X112915476Y-57195095D02*
X113105952Y-57195095D01*
X113105952Y-57195095D02*
X113220238Y-57233190D01*
X113220238Y-57233190D02*
X113296428Y-57309380D01*
X113296428Y-57309380D02*
X113334523Y-57385571D01*
X113334523Y-57385571D02*
X113372619Y-57537952D01*
X113372619Y-57537952D02*
X113372619Y-57652238D01*
X113372619Y-57652238D02*
X113334523Y-57804619D01*
X113334523Y-57804619D02*
X113296428Y-57880809D01*
X113296428Y-57880809D02*
X113220238Y-57957000D01*
X113220238Y-57957000D02*
X113105952Y-57995095D01*
X113105952Y-57995095D02*
X112915476Y-57995095D01*
%TO.C,TP7*%
X118032143Y-61695095D02*
X118298810Y-62495095D01*
X118298810Y-62495095D02*
X118565476Y-61695095D01*
X119289286Y-62418904D02*
X119251190Y-62457000D01*
X119251190Y-62457000D02*
X119136905Y-62495095D01*
X119136905Y-62495095D02*
X119060714Y-62495095D01*
X119060714Y-62495095D02*
X118946428Y-62457000D01*
X118946428Y-62457000D02*
X118870238Y-62380809D01*
X118870238Y-62380809D02*
X118832143Y-62304619D01*
X118832143Y-62304619D02*
X118794047Y-62152238D01*
X118794047Y-62152238D02*
X118794047Y-62037952D01*
X118794047Y-62037952D02*
X118832143Y-61885571D01*
X118832143Y-61885571D02*
X118870238Y-61809380D01*
X118870238Y-61809380D02*
X118946428Y-61733190D01*
X118946428Y-61733190D02*
X119060714Y-61695095D01*
X119060714Y-61695095D02*
X119136905Y-61695095D01*
X119136905Y-61695095D02*
X119251190Y-61733190D01*
X119251190Y-61733190D02*
X119289286Y-61771285D01*
X119784524Y-61695095D02*
X119936905Y-61695095D01*
X119936905Y-61695095D02*
X120013095Y-61733190D01*
X120013095Y-61733190D02*
X120089286Y-61809380D01*
X120089286Y-61809380D02*
X120127381Y-61961761D01*
X120127381Y-61961761D02*
X120127381Y-62228428D01*
X120127381Y-62228428D02*
X120089286Y-62380809D01*
X120089286Y-62380809D02*
X120013095Y-62457000D01*
X120013095Y-62457000D02*
X119936905Y-62495095D01*
X119936905Y-62495095D02*
X119784524Y-62495095D01*
X119784524Y-62495095D02*
X119708333Y-62457000D01*
X119708333Y-62457000D02*
X119632143Y-62380809D01*
X119632143Y-62380809D02*
X119594047Y-62228428D01*
X119594047Y-62228428D02*
X119594047Y-61961761D01*
X119594047Y-61961761D02*
X119632143Y-61809380D01*
X119632143Y-61809380D02*
X119708333Y-61733190D01*
X119708333Y-61733190D02*
X119784524Y-61695095D01*
X120470238Y-62495095D02*
X120470238Y-61695095D01*
X120470238Y-61695095D02*
X120736904Y-62266523D01*
X120736904Y-62266523D02*
X121003571Y-61695095D01*
X121003571Y-61695095D02*
X121003571Y-62495095D01*
%TO.C,TP6*%
X86165476Y-71690333D02*
X86775000Y-71690333D01*
X87117856Y-71271285D02*
X87155952Y-71233190D01*
X87155952Y-71233190D02*
X87232142Y-71195095D01*
X87232142Y-71195095D02*
X87422618Y-71195095D01*
X87422618Y-71195095D02*
X87498809Y-71233190D01*
X87498809Y-71233190D02*
X87536904Y-71271285D01*
X87536904Y-71271285D02*
X87574999Y-71347476D01*
X87574999Y-71347476D02*
X87574999Y-71423666D01*
X87574999Y-71423666D02*
X87536904Y-71537952D01*
X87536904Y-71537952D02*
X87079761Y-71995095D01*
X87079761Y-71995095D02*
X87574999Y-71995095D01*
X88070238Y-71195095D02*
X88146428Y-71195095D01*
X88146428Y-71195095D02*
X88222619Y-71233190D01*
X88222619Y-71233190D02*
X88260714Y-71271285D01*
X88260714Y-71271285D02*
X88298809Y-71347476D01*
X88298809Y-71347476D02*
X88336904Y-71499857D01*
X88336904Y-71499857D02*
X88336904Y-71690333D01*
X88336904Y-71690333D02*
X88298809Y-71842714D01*
X88298809Y-71842714D02*
X88260714Y-71918904D01*
X88260714Y-71918904D02*
X88222619Y-71957000D01*
X88222619Y-71957000D02*
X88146428Y-71995095D01*
X88146428Y-71995095D02*
X88070238Y-71995095D01*
X88070238Y-71995095D02*
X87994047Y-71957000D01*
X87994047Y-71957000D02*
X87955952Y-71918904D01*
X87955952Y-71918904D02*
X87917857Y-71842714D01*
X87917857Y-71842714D02*
X87879761Y-71690333D01*
X87879761Y-71690333D02*
X87879761Y-71499857D01*
X87879761Y-71499857D02*
X87917857Y-71347476D01*
X87917857Y-71347476D02*
X87955952Y-71271285D01*
X87955952Y-71271285D02*
X87994047Y-71233190D01*
X87994047Y-71233190D02*
X88070238Y-71195095D01*
X88565476Y-71195095D02*
X88832143Y-71995095D01*
X88832143Y-71995095D02*
X89098809Y-71195095D01*
%TO.C,TP5*%
X86165476Y-76190333D02*
X86775000Y-76190333D01*
X86470238Y-76495095D02*
X86470238Y-75885571D01*
X87117856Y-75771285D02*
X87155952Y-75733190D01*
X87155952Y-75733190D02*
X87232142Y-75695095D01*
X87232142Y-75695095D02*
X87422618Y-75695095D01*
X87422618Y-75695095D02*
X87498809Y-75733190D01*
X87498809Y-75733190D02*
X87536904Y-75771285D01*
X87536904Y-75771285D02*
X87574999Y-75847476D01*
X87574999Y-75847476D02*
X87574999Y-75923666D01*
X87574999Y-75923666D02*
X87536904Y-76037952D01*
X87536904Y-76037952D02*
X87079761Y-76495095D01*
X87079761Y-76495095D02*
X87574999Y-76495095D01*
X87879761Y-75771285D02*
X87917857Y-75733190D01*
X87917857Y-75733190D02*
X87994047Y-75695095D01*
X87994047Y-75695095D02*
X88184523Y-75695095D01*
X88184523Y-75695095D02*
X88260714Y-75733190D01*
X88260714Y-75733190D02*
X88298809Y-75771285D01*
X88298809Y-75771285D02*
X88336904Y-75847476D01*
X88336904Y-75847476D02*
X88336904Y-75923666D01*
X88336904Y-75923666D02*
X88298809Y-76037952D01*
X88298809Y-76037952D02*
X87841666Y-76495095D01*
X87841666Y-76495095D02*
X88336904Y-76495095D01*
X88565476Y-75695095D02*
X88832143Y-76495095D01*
X88832143Y-76495095D02*
X89098809Y-75695095D01*
%TO.C,TP4*%
X127915476Y-74190333D02*
X128525000Y-74190333D01*
X129324999Y-74495095D02*
X128867856Y-74495095D01*
X129096428Y-74495095D02*
X129096428Y-73695095D01*
X129096428Y-73695095D02*
X129020237Y-73809380D01*
X129020237Y-73809380D02*
X128944047Y-73885571D01*
X128944047Y-73885571D02*
X128867856Y-73923666D01*
X130048809Y-73695095D02*
X129667857Y-73695095D01*
X129667857Y-73695095D02*
X129629761Y-74076047D01*
X129629761Y-74076047D02*
X129667857Y-74037952D01*
X129667857Y-74037952D02*
X129744047Y-73999857D01*
X129744047Y-73999857D02*
X129934523Y-73999857D01*
X129934523Y-73999857D02*
X130010714Y-74037952D01*
X130010714Y-74037952D02*
X130048809Y-74076047D01*
X130048809Y-74076047D02*
X130086904Y-74152238D01*
X130086904Y-74152238D02*
X130086904Y-74342714D01*
X130086904Y-74342714D02*
X130048809Y-74418904D01*
X130048809Y-74418904D02*
X130010714Y-74457000D01*
X130010714Y-74457000D02*
X129934523Y-74495095D01*
X129934523Y-74495095D02*
X129744047Y-74495095D01*
X129744047Y-74495095D02*
X129667857Y-74457000D01*
X129667857Y-74457000D02*
X129629761Y-74418904D01*
X130315476Y-73695095D02*
X130582143Y-74495095D01*
X130582143Y-74495095D02*
X130848809Y-73695095D01*
%TO.C,TP3*%
X116665476Y-81690333D02*
X117275000Y-81690333D01*
X116970238Y-81995095D02*
X116970238Y-81385571D01*
X118074999Y-81995095D02*
X117617856Y-81995095D01*
X117846428Y-81995095D02*
X117846428Y-81195095D01*
X117846428Y-81195095D02*
X117770237Y-81309380D01*
X117770237Y-81309380D02*
X117694047Y-81385571D01*
X117694047Y-81385571D02*
X117617856Y-81423666D01*
X118798809Y-81195095D02*
X118417857Y-81195095D01*
X118417857Y-81195095D02*
X118379761Y-81576047D01*
X118379761Y-81576047D02*
X118417857Y-81537952D01*
X118417857Y-81537952D02*
X118494047Y-81499857D01*
X118494047Y-81499857D02*
X118684523Y-81499857D01*
X118684523Y-81499857D02*
X118760714Y-81537952D01*
X118760714Y-81537952D02*
X118798809Y-81576047D01*
X118798809Y-81576047D02*
X118836904Y-81652238D01*
X118836904Y-81652238D02*
X118836904Y-81842714D01*
X118836904Y-81842714D02*
X118798809Y-81918904D01*
X118798809Y-81918904D02*
X118760714Y-81957000D01*
X118760714Y-81957000D02*
X118684523Y-81995095D01*
X118684523Y-81995095D02*
X118494047Y-81995095D01*
X118494047Y-81995095D02*
X118417857Y-81957000D01*
X118417857Y-81957000D02*
X118379761Y-81918904D01*
X119065476Y-81195095D02*
X119332143Y-81995095D01*
X119332143Y-81995095D02*
X119598809Y-81195095D01*
%TO.C,TP2*%
X113411667Y-84440333D02*
X114021191Y-84440333D01*
X113716429Y-84745095D02*
X113716429Y-84135571D01*
X114325952Y-83945095D02*
X114821190Y-83945095D01*
X114821190Y-83945095D02*
X114554524Y-84249857D01*
X114554524Y-84249857D02*
X114668809Y-84249857D01*
X114668809Y-84249857D02*
X114745000Y-84287952D01*
X114745000Y-84287952D02*
X114783095Y-84326047D01*
X114783095Y-84326047D02*
X114821190Y-84402238D01*
X114821190Y-84402238D02*
X114821190Y-84592714D01*
X114821190Y-84592714D02*
X114783095Y-84668904D01*
X114783095Y-84668904D02*
X114745000Y-84707000D01*
X114745000Y-84707000D02*
X114668809Y-84745095D01*
X114668809Y-84745095D02*
X114440238Y-84745095D01*
X114440238Y-84745095D02*
X114364047Y-84707000D01*
X114364047Y-84707000D02*
X114325952Y-84668904D01*
X115164048Y-84668904D02*
X115202143Y-84707000D01*
X115202143Y-84707000D02*
X115164048Y-84745095D01*
X115164048Y-84745095D02*
X115125952Y-84707000D01*
X115125952Y-84707000D02*
X115164048Y-84668904D01*
X115164048Y-84668904D02*
X115164048Y-84745095D01*
X115468809Y-83945095D02*
X115964047Y-83945095D01*
X115964047Y-83945095D02*
X115697381Y-84249857D01*
X115697381Y-84249857D02*
X115811666Y-84249857D01*
X115811666Y-84249857D02*
X115887857Y-84287952D01*
X115887857Y-84287952D02*
X115925952Y-84326047D01*
X115925952Y-84326047D02*
X115964047Y-84402238D01*
X115964047Y-84402238D02*
X115964047Y-84592714D01*
X115964047Y-84592714D02*
X115925952Y-84668904D01*
X115925952Y-84668904D02*
X115887857Y-84707000D01*
X115887857Y-84707000D02*
X115811666Y-84745095D01*
X115811666Y-84745095D02*
X115583095Y-84745095D01*
X115583095Y-84745095D02*
X115506904Y-84707000D01*
X115506904Y-84707000D02*
X115468809Y-84668904D01*
X116192619Y-83945095D02*
X116459286Y-84745095D01*
X116459286Y-84745095D02*
X116725952Y-83945095D01*
X116935476Y-84608333D02*
X117122143Y-84608333D01*
X117202143Y-84901666D02*
X116935476Y-84901666D01*
X116935476Y-84901666D02*
X116935476Y-84341666D01*
X116935476Y-84341666D02*
X117202143Y-84341666D01*
X117442143Y-84901666D02*
X117442143Y-84341666D01*
X117442143Y-84341666D02*
X117655476Y-84341666D01*
X117655476Y-84341666D02*
X117708810Y-84368333D01*
X117708810Y-84368333D02*
X117735476Y-84395000D01*
X117735476Y-84395000D02*
X117762143Y-84448333D01*
X117762143Y-84448333D02*
X117762143Y-84528333D01*
X117762143Y-84528333D02*
X117735476Y-84581666D01*
X117735476Y-84581666D02*
X117708810Y-84608333D01*
X117708810Y-84608333D02*
X117655476Y-84635000D01*
X117655476Y-84635000D02*
X117442143Y-84635000D01*
X118002143Y-84901666D02*
X118002143Y-84341666D01*
X118002143Y-84341666D02*
X118135476Y-84341666D01*
X118135476Y-84341666D02*
X118215476Y-84368333D01*
X118215476Y-84368333D02*
X118268810Y-84421666D01*
X118268810Y-84421666D02*
X118295476Y-84475000D01*
X118295476Y-84475000D02*
X118322143Y-84581666D01*
X118322143Y-84581666D02*
X118322143Y-84661666D01*
X118322143Y-84661666D02*
X118295476Y-84768333D01*
X118295476Y-84768333D02*
X118268810Y-84821666D01*
X118268810Y-84821666D02*
X118215476Y-84875000D01*
X118215476Y-84875000D02*
X118135476Y-84901666D01*
X118135476Y-84901666D02*
X118002143Y-84901666D01*
%TO.C,TP1*%
X52500000Y-89581666D02*
X53261905Y-89581666D01*
X52880952Y-89962619D02*
X52880952Y-89200714D01*
X53642857Y-88962619D02*
X54261904Y-88962619D01*
X54261904Y-88962619D02*
X53928571Y-89343571D01*
X53928571Y-89343571D02*
X54071428Y-89343571D01*
X54071428Y-89343571D02*
X54166666Y-89391190D01*
X54166666Y-89391190D02*
X54214285Y-89438809D01*
X54214285Y-89438809D02*
X54261904Y-89534047D01*
X54261904Y-89534047D02*
X54261904Y-89772142D01*
X54261904Y-89772142D02*
X54214285Y-89867380D01*
X54214285Y-89867380D02*
X54166666Y-89915000D01*
X54166666Y-89915000D02*
X54071428Y-89962619D01*
X54071428Y-89962619D02*
X53785714Y-89962619D01*
X53785714Y-89962619D02*
X53690476Y-89915000D01*
X53690476Y-89915000D02*
X53642857Y-89867380D01*
X54690476Y-89867380D02*
X54738095Y-89915000D01*
X54738095Y-89915000D02*
X54690476Y-89962619D01*
X54690476Y-89962619D02*
X54642857Y-89915000D01*
X54642857Y-89915000D02*
X54690476Y-89867380D01*
X54690476Y-89867380D02*
X54690476Y-89962619D01*
X55071428Y-88962619D02*
X55690475Y-88962619D01*
X55690475Y-88962619D02*
X55357142Y-89343571D01*
X55357142Y-89343571D02*
X55499999Y-89343571D01*
X55499999Y-89343571D02*
X55595237Y-89391190D01*
X55595237Y-89391190D02*
X55642856Y-89438809D01*
X55642856Y-89438809D02*
X55690475Y-89534047D01*
X55690475Y-89534047D02*
X55690475Y-89772142D01*
X55690475Y-89772142D02*
X55642856Y-89867380D01*
X55642856Y-89867380D02*
X55595237Y-89915000D01*
X55595237Y-89915000D02*
X55499999Y-89962619D01*
X55499999Y-89962619D02*
X55214285Y-89962619D01*
X55214285Y-89962619D02*
X55119047Y-89915000D01*
X55119047Y-89915000D02*
X55071428Y-89867380D01*
X55976190Y-88962619D02*
X56309523Y-89962619D01*
X56309523Y-89962619D02*
X56642856Y-88962619D01*
%TO.C,U1*%
X110938095Y-74722619D02*
X110938095Y-75532142D01*
X110938095Y-75532142D02*
X110985714Y-75627380D01*
X110985714Y-75627380D02*
X111033333Y-75675000D01*
X111033333Y-75675000D02*
X111128571Y-75722619D01*
X111128571Y-75722619D02*
X111319047Y-75722619D01*
X111319047Y-75722619D02*
X111414285Y-75675000D01*
X111414285Y-75675000D02*
X111461904Y-75627380D01*
X111461904Y-75627380D02*
X111509523Y-75532142D01*
X111509523Y-75532142D02*
X111509523Y-74722619D01*
X112509523Y-75722619D02*
X111938095Y-75722619D01*
X112223809Y-75722619D02*
X112223809Y-74722619D01*
X112223809Y-74722619D02*
X112128571Y-74865476D01*
X112128571Y-74865476D02*
X112033333Y-74960714D01*
X112033333Y-74960714D02*
X111938095Y-75008333D01*
%TO.C,R9*%
X101847919Y-71596343D02*
X101581252Y-71215390D01*
X101390776Y-71596343D02*
X101390776Y-70796343D01*
X101390776Y-70796343D02*
X101695538Y-70796343D01*
X101695538Y-70796343D02*
X101771728Y-70834438D01*
X101771728Y-70834438D02*
X101809823Y-70872533D01*
X101809823Y-70872533D02*
X101847919Y-70948724D01*
X101847919Y-70948724D02*
X101847919Y-71063009D01*
X101847919Y-71063009D02*
X101809823Y-71139200D01*
X101809823Y-71139200D02*
X101771728Y-71177295D01*
X101771728Y-71177295D02*
X101695538Y-71215390D01*
X101695538Y-71215390D02*
X101390776Y-71215390D01*
X102228871Y-71596343D02*
X102381252Y-71596343D01*
X102381252Y-71596343D02*
X102457442Y-71558248D01*
X102457442Y-71558248D02*
X102495538Y-71520152D01*
X102495538Y-71520152D02*
X102571728Y-71405867D01*
X102571728Y-71405867D02*
X102609823Y-71253486D01*
X102609823Y-71253486D02*
X102609823Y-70948724D01*
X102609823Y-70948724D02*
X102571728Y-70872533D01*
X102571728Y-70872533D02*
X102533633Y-70834438D01*
X102533633Y-70834438D02*
X102457442Y-70796343D01*
X102457442Y-70796343D02*
X102305061Y-70796343D01*
X102305061Y-70796343D02*
X102228871Y-70834438D01*
X102228871Y-70834438D02*
X102190776Y-70872533D01*
X102190776Y-70872533D02*
X102152680Y-70948724D01*
X102152680Y-70948724D02*
X102152680Y-71139200D01*
X102152680Y-71139200D02*
X102190776Y-71215390D01*
X102190776Y-71215390D02*
X102228871Y-71253486D01*
X102228871Y-71253486D02*
X102305061Y-71291581D01*
X102305061Y-71291581D02*
X102457442Y-71291581D01*
X102457442Y-71291581D02*
X102533633Y-71253486D01*
X102533633Y-71253486D02*
X102571728Y-71215390D01*
X102571728Y-71215390D02*
X102609823Y-71139200D01*
%TO.C,R8*%
X93347919Y-72346343D02*
X93081252Y-71965390D01*
X92890776Y-72346343D02*
X92890776Y-71546343D01*
X92890776Y-71546343D02*
X93195538Y-71546343D01*
X93195538Y-71546343D02*
X93271728Y-71584438D01*
X93271728Y-71584438D02*
X93309823Y-71622533D01*
X93309823Y-71622533D02*
X93347919Y-71698724D01*
X93347919Y-71698724D02*
X93347919Y-71813009D01*
X93347919Y-71813009D02*
X93309823Y-71889200D01*
X93309823Y-71889200D02*
X93271728Y-71927295D01*
X93271728Y-71927295D02*
X93195538Y-71965390D01*
X93195538Y-71965390D02*
X92890776Y-71965390D01*
X93805061Y-71889200D02*
X93728871Y-71851105D01*
X93728871Y-71851105D02*
X93690776Y-71813009D01*
X93690776Y-71813009D02*
X93652680Y-71736819D01*
X93652680Y-71736819D02*
X93652680Y-71698724D01*
X93652680Y-71698724D02*
X93690776Y-71622533D01*
X93690776Y-71622533D02*
X93728871Y-71584438D01*
X93728871Y-71584438D02*
X93805061Y-71546343D01*
X93805061Y-71546343D02*
X93957442Y-71546343D01*
X93957442Y-71546343D02*
X94033633Y-71584438D01*
X94033633Y-71584438D02*
X94071728Y-71622533D01*
X94071728Y-71622533D02*
X94109823Y-71698724D01*
X94109823Y-71698724D02*
X94109823Y-71736819D01*
X94109823Y-71736819D02*
X94071728Y-71813009D01*
X94071728Y-71813009D02*
X94033633Y-71851105D01*
X94033633Y-71851105D02*
X93957442Y-71889200D01*
X93957442Y-71889200D02*
X93805061Y-71889200D01*
X93805061Y-71889200D02*
X93728871Y-71927295D01*
X93728871Y-71927295D02*
X93690776Y-71965390D01*
X93690776Y-71965390D02*
X93652680Y-72041581D01*
X93652680Y-72041581D02*
X93652680Y-72193962D01*
X93652680Y-72193962D02*
X93690776Y-72270152D01*
X93690776Y-72270152D02*
X93728871Y-72308248D01*
X93728871Y-72308248D02*
X93805061Y-72346343D01*
X93805061Y-72346343D02*
X93957442Y-72346343D01*
X93957442Y-72346343D02*
X94033633Y-72308248D01*
X94033633Y-72308248D02*
X94071728Y-72270152D01*
X94071728Y-72270152D02*
X94109823Y-72193962D01*
X94109823Y-72193962D02*
X94109823Y-72041581D01*
X94109823Y-72041581D02*
X94071728Y-71965390D01*
X94071728Y-71965390D02*
X94033633Y-71927295D01*
X94033633Y-71927295D02*
X93957442Y-71889200D01*
%TO.C,D1*%
X96390776Y-67846343D02*
X96390776Y-67046343D01*
X96390776Y-67046343D02*
X96581252Y-67046343D01*
X96581252Y-67046343D02*
X96695538Y-67084438D01*
X96695538Y-67084438D02*
X96771728Y-67160628D01*
X96771728Y-67160628D02*
X96809823Y-67236819D01*
X96809823Y-67236819D02*
X96847919Y-67389200D01*
X96847919Y-67389200D02*
X96847919Y-67503486D01*
X96847919Y-67503486D02*
X96809823Y-67655867D01*
X96809823Y-67655867D02*
X96771728Y-67732057D01*
X96771728Y-67732057D02*
X96695538Y-67808248D01*
X96695538Y-67808248D02*
X96581252Y-67846343D01*
X96581252Y-67846343D02*
X96390776Y-67846343D01*
X97609823Y-67846343D02*
X97152680Y-67846343D01*
X97381252Y-67846343D02*
X97381252Y-67046343D01*
X97381252Y-67046343D02*
X97305061Y-67160628D01*
X97305061Y-67160628D02*
X97228871Y-67236819D01*
X97228871Y-67236819D02*
X97152680Y-67274914D01*
%TO.C,C19*%
X92466966Y-71020152D02*
X92428870Y-71058248D01*
X92428870Y-71058248D02*
X92314585Y-71096343D01*
X92314585Y-71096343D02*
X92238394Y-71096343D01*
X92238394Y-71096343D02*
X92124108Y-71058248D01*
X92124108Y-71058248D02*
X92047918Y-70982057D01*
X92047918Y-70982057D02*
X92009823Y-70905867D01*
X92009823Y-70905867D02*
X91971727Y-70753486D01*
X91971727Y-70753486D02*
X91971727Y-70639200D01*
X91971727Y-70639200D02*
X92009823Y-70486819D01*
X92009823Y-70486819D02*
X92047918Y-70410628D01*
X92047918Y-70410628D02*
X92124108Y-70334438D01*
X92124108Y-70334438D02*
X92238394Y-70296343D01*
X92238394Y-70296343D02*
X92314585Y-70296343D01*
X92314585Y-70296343D02*
X92428870Y-70334438D01*
X92428870Y-70334438D02*
X92466966Y-70372533D01*
X93228870Y-71096343D02*
X92771727Y-71096343D01*
X93000299Y-71096343D02*
X93000299Y-70296343D01*
X93000299Y-70296343D02*
X92924108Y-70410628D01*
X92924108Y-70410628D02*
X92847918Y-70486819D01*
X92847918Y-70486819D02*
X92771727Y-70524914D01*
X93609823Y-71096343D02*
X93762204Y-71096343D01*
X93762204Y-71096343D02*
X93838394Y-71058248D01*
X93838394Y-71058248D02*
X93876490Y-71020152D01*
X93876490Y-71020152D02*
X93952680Y-70905867D01*
X93952680Y-70905867D02*
X93990775Y-70753486D01*
X93990775Y-70753486D02*
X93990775Y-70448724D01*
X93990775Y-70448724D02*
X93952680Y-70372533D01*
X93952680Y-70372533D02*
X93914585Y-70334438D01*
X93914585Y-70334438D02*
X93838394Y-70296343D01*
X93838394Y-70296343D02*
X93686013Y-70296343D01*
X93686013Y-70296343D02*
X93609823Y-70334438D01*
X93609823Y-70334438D02*
X93571728Y-70372533D01*
X93571728Y-70372533D02*
X93533632Y-70448724D01*
X93533632Y-70448724D02*
X93533632Y-70639200D01*
X93533632Y-70639200D02*
X93571728Y-70715390D01*
X93571728Y-70715390D02*
X93609823Y-70753486D01*
X93609823Y-70753486D02*
X93686013Y-70791581D01*
X93686013Y-70791581D02*
X93838394Y-70791581D01*
X93838394Y-70791581D02*
X93914585Y-70753486D01*
X93914585Y-70753486D02*
X93952680Y-70715390D01*
X93952680Y-70715390D02*
X93990775Y-70639200D01*
%TO.C,C16*%
X101716966Y-69770152D02*
X101678870Y-69808248D01*
X101678870Y-69808248D02*
X101564585Y-69846343D01*
X101564585Y-69846343D02*
X101488394Y-69846343D01*
X101488394Y-69846343D02*
X101374108Y-69808248D01*
X101374108Y-69808248D02*
X101297918Y-69732057D01*
X101297918Y-69732057D02*
X101259823Y-69655867D01*
X101259823Y-69655867D02*
X101221727Y-69503486D01*
X101221727Y-69503486D02*
X101221727Y-69389200D01*
X101221727Y-69389200D02*
X101259823Y-69236819D01*
X101259823Y-69236819D02*
X101297918Y-69160628D01*
X101297918Y-69160628D02*
X101374108Y-69084438D01*
X101374108Y-69084438D02*
X101488394Y-69046343D01*
X101488394Y-69046343D02*
X101564585Y-69046343D01*
X101564585Y-69046343D02*
X101678870Y-69084438D01*
X101678870Y-69084438D02*
X101716966Y-69122533D01*
X102478870Y-69846343D02*
X102021727Y-69846343D01*
X102250299Y-69846343D02*
X102250299Y-69046343D01*
X102250299Y-69046343D02*
X102174108Y-69160628D01*
X102174108Y-69160628D02*
X102097918Y-69236819D01*
X102097918Y-69236819D02*
X102021727Y-69274914D01*
X103164585Y-69046343D02*
X103012204Y-69046343D01*
X103012204Y-69046343D02*
X102936013Y-69084438D01*
X102936013Y-69084438D02*
X102897918Y-69122533D01*
X102897918Y-69122533D02*
X102821728Y-69236819D01*
X102821728Y-69236819D02*
X102783632Y-69389200D01*
X102783632Y-69389200D02*
X102783632Y-69693962D01*
X102783632Y-69693962D02*
X102821728Y-69770152D01*
X102821728Y-69770152D02*
X102859823Y-69808248D01*
X102859823Y-69808248D02*
X102936013Y-69846343D01*
X102936013Y-69846343D02*
X103088394Y-69846343D01*
X103088394Y-69846343D02*
X103164585Y-69808248D01*
X103164585Y-69808248D02*
X103202680Y-69770152D01*
X103202680Y-69770152D02*
X103240775Y-69693962D01*
X103240775Y-69693962D02*
X103240775Y-69503486D01*
X103240775Y-69503486D02*
X103202680Y-69427295D01*
X103202680Y-69427295D02*
X103164585Y-69389200D01*
X103164585Y-69389200D02*
X103088394Y-69351105D01*
X103088394Y-69351105D02*
X102936013Y-69351105D01*
X102936013Y-69351105D02*
X102859823Y-69389200D01*
X102859823Y-69389200D02*
X102821728Y-69427295D01*
X102821728Y-69427295D02*
X102783632Y-69503486D01*
%TO.C,C15*%
X101716966Y-68020152D02*
X101678870Y-68058248D01*
X101678870Y-68058248D02*
X101564585Y-68096343D01*
X101564585Y-68096343D02*
X101488394Y-68096343D01*
X101488394Y-68096343D02*
X101374108Y-68058248D01*
X101374108Y-68058248D02*
X101297918Y-67982057D01*
X101297918Y-67982057D02*
X101259823Y-67905867D01*
X101259823Y-67905867D02*
X101221727Y-67753486D01*
X101221727Y-67753486D02*
X101221727Y-67639200D01*
X101221727Y-67639200D02*
X101259823Y-67486819D01*
X101259823Y-67486819D02*
X101297918Y-67410628D01*
X101297918Y-67410628D02*
X101374108Y-67334438D01*
X101374108Y-67334438D02*
X101488394Y-67296343D01*
X101488394Y-67296343D02*
X101564585Y-67296343D01*
X101564585Y-67296343D02*
X101678870Y-67334438D01*
X101678870Y-67334438D02*
X101716966Y-67372533D01*
X102478870Y-68096343D02*
X102021727Y-68096343D01*
X102250299Y-68096343D02*
X102250299Y-67296343D01*
X102250299Y-67296343D02*
X102174108Y-67410628D01*
X102174108Y-67410628D02*
X102097918Y-67486819D01*
X102097918Y-67486819D02*
X102021727Y-67524914D01*
X103202680Y-67296343D02*
X102821728Y-67296343D01*
X102821728Y-67296343D02*
X102783632Y-67677295D01*
X102783632Y-67677295D02*
X102821728Y-67639200D01*
X102821728Y-67639200D02*
X102897918Y-67601105D01*
X102897918Y-67601105D02*
X103088394Y-67601105D01*
X103088394Y-67601105D02*
X103164585Y-67639200D01*
X103164585Y-67639200D02*
X103202680Y-67677295D01*
X103202680Y-67677295D02*
X103240775Y-67753486D01*
X103240775Y-67753486D02*
X103240775Y-67943962D01*
X103240775Y-67943962D02*
X103202680Y-68020152D01*
X103202680Y-68020152D02*
X103164585Y-68058248D01*
X103164585Y-68058248D02*
X103088394Y-68096343D01*
X103088394Y-68096343D02*
X102897918Y-68096343D01*
X102897918Y-68096343D02*
X102821728Y-68058248D01*
X102821728Y-68058248D02*
X102783632Y-68020152D01*
%TO.C,J2*%
X67669866Y-92962619D02*
X67669866Y-93676904D01*
X67669866Y-93676904D02*
X67622247Y-93819761D01*
X67622247Y-93819761D02*
X67527009Y-93915000D01*
X67527009Y-93915000D02*
X67384152Y-93962619D01*
X67384152Y-93962619D02*
X67288914Y-93962619D01*
X68098438Y-93057857D02*
X68146057Y-93010238D01*
X68146057Y-93010238D02*
X68241295Y-92962619D01*
X68241295Y-92962619D02*
X68479390Y-92962619D01*
X68479390Y-92962619D02*
X68574628Y-93010238D01*
X68574628Y-93010238D02*
X68622247Y-93057857D01*
X68622247Y-93057857D02*
X68669866Y-93153095D01*
X68669866Y-93153095D02*
X68669866Y-93248333D01*
X68669866Y-93248333D02*
X68622247Y-93391190D01*
X68622247Y-93391190D02*
X68050819Y-93962619D01*
X68050819Y-93962619D02*
X68669866Y-93962619D01*
X59729391Y-98415000D02*
X59872248Y-98462619D01*
X59872248Y-98462619D02*
X60110343Y-98462619D01*
X60110343Y-98462619D02*
X60205581Y-98415000D01*
X60205581Y-98415000D02*
X60253200Y-98367380D01*
X60253200Y-98367380D02*
X60300819Y-98272142D01*
X60300819Y-98272142D02*
X60300819Y-98176904D01*
X60300819Y-98176904D02*
X60253200Y-98081666D01*
X60253200Y-98081666D02*
X60205581Y-98034047D01*
X60205581Y-98034047D02*
X60110343Y-97986428D01*
X60110343Y-97986428D02*
X59919867Y-97938809D01*
X59919867Y-97938809D02*
X59824629Y-97891190D01*
X59824629Y-97891190D02*
X59777010Y-97843571D01*
X59777010Y-97843571D02*
X59729391Y-97748333D01*
X59729391Y-97748333D02*
X59729391Y-97653095D01*
X59729391Y-97653095D02*
X59777010Y-97557857D01*
X59777010Y-97557857D02*
X59824629Y-97510238D01*
X59824629Y-97510238D02*
X59919867Y-97462619D01*
X59919867Y-97462619D02*
X60157962Y-97462619D01*
X60157962Y-97462619D02*
X60300819Y-97510238D01*
X60729391Y-98462619D02*
X60729391Y-97462619D01*
X60729391Y-97462619D02*
X61110343Y-97462619D01*
X61110343Y-97462619D02*
X61205581Y-97510238D01*
X61205581Y-97510238D02*
X61253200Y-97557857D01*
X61253200Y-97557857D02*
X61300819Y-97653095D01*
X61300819Y-97653095D02*
X61300819Y-97795952D01*
X61300819Y-97795952D02*
X61253200Y-97891190D01*
X61253200Y-97891190D02*
X61205581Y-97938809D01*
X61205581Y-97938809D02*
X61110343Y-97986428D01*
X61110343Y-97986428D02*
X60729391Y-97986428D01*
X61729391Y-98462619D02*
X61729391Y-97462619D01*
%TO.C,Y1*%
X50736428Y-68626190D02*
X51212619Y-68626190D01*
X50212619Y-68959523D02*
X50736428Y-68626190D01*
X50736428Y-68626190D02*
X50212619Y-68292857D01*
X51212619Y-67435714D02*
X51212619Y-68007142D01*
X51212619Y-67721428D02*
X50212619Y-67721428D01*
X50212619Y-67721428D02*
X50355476Y-67816666D01*
X50355476Y-67816666D02*
X50450714Y-67911904D01*
X50450714Y-67911904D02*
X50498333Y-68007142D01*
%TO.C,U5*%
X93622619Y-59986904D02*
X94432142Y-59986904D01*
X94432142Y-59986904D02*
X94527380Y-59939285D01*
X94527380Y-59939285D02*
X94575000Y-59891666D01*
X94575000Y-59891666D02*
X94622619Y-59796428D01*
X94622619Y-59796428D02*
X94622619Y-59605952D01*
X94622619Y-59605952D02*
X94575000Y-59510714D01*
X94575000Y-59510714D02*
X94527380Y-59463095D01*
X94527380Y-59463095D02*
X94432142Y-59415476D01*
X94432142Y-59415476D02*
X93622619Y-59415476D01*
X93622619Y-58463095D02*
X93622619Y-58939285D01*
X93622619Y-58939285D02*
X94098809Y-58986904D01*
X94098809Y-58986904D02*
X94051190Y-58939285D01*
X94051190Y-58939285D02*
X94003571Y-58844047D01*
X94003571Y-58844047D02*
X94003571Y-58605952D01*
X94003571Y-58605952D02*
X94051190Y-58510714D01*
X94051190Y-58510714D02*
X94098809Y-58463095D01*
X94098809Y-58463095D02*
X94194047Y-58415476D01*
X94194047Y-58415476D02*
X94432142Y-58415476D01*
X94432142Y-58415476D02*
X94527380Y-58463095D01*
X94527380Y-58463095D02*
X94575000Y-58510714D01*
X94575000Y-58510714D02*
X94622619Y-58605952D01*
X94622619Y-58605952D02*
X94622619Y-58844047D01*
X94622619Y-58844047D02*
X94575000Y-58939285D01*
X94575000Y-58939285D02*
X94527380Y-58986904D01*
%TO.C,U4*%
X74612619Y-58761904D02*
X75422142Y-58761904D01*
X75422142Y-58761904D02*
X75517380Y-58714285D01*
X75517380Y-58714285D02*
X75565000Y-58666666D01*
X75565000Y-58666666D02*
X75612619Y-58571428D01*
X75612619Y-58571428D02*
X75612619Y-58380952D01*
X75612619Y-58380952D02*
X75565000Y-58285714D01*
X75565000Y-58285714D02*
X75517380Y-58238095D01*
X75517380Y-58238095D02*
X75422142Y-58190476D01*
X75422142Y-58190476D02*
X74612619Y-58190476D01*
X74945952Y-57285714D02*
X75612619Y-57285714D01*
X74565000Y-57523809D02*
X75279285Y-57761904D01*
X75279285Y-57761904D02*
X75279285Y-57142857D01*
%TO.C,U3*%
X59991295Y-90862619D02*
X59991295Y-91672142D01*
X59991295Y-91672142D02*
X60038914Y-91767380D01*
X60038914Y-91767380D02*
X60086533Y-91815000D01*
X60086533Y-91815000D02*
X60181771Y-91862619D01*
X60181771Y-91862619D02*
X60372247Y-91862619D01*
X60372247Y-91862619D02*
X60467485Y-91815000D01*
X60467485Y-91815000D02*
X60515104Y-91767380D01*
X60515104Y-91767380D02*
X60562723Y-91672142D01*
X60562723Y-91672142D02*
X60562723Y-90862619D01*
X60943676Y-90862619D02*
X61562723Y-90862619D01*
X61562723Y-90862619D02*
X61229390Y-91243571D01*
X61229390Y-91243571D02*
X61372247Y-91243571D01*
X61372247Y-91243571D02*
X61467485Y-91291190D01*
X61467485Y-91291190D02*
X61515104Y-91338809D01*
X61515104Y-91338809D02*
X61562723Y-91434047D01*
X61562723Y-91434047D02*
X61562723Y-91672142D01*
X61562723Y-91672142D02*
X61515104Y-91767380D01*
X61515104Y-91767380D02*
X61467485Y-91815000D01*
X61467485Y-91815000D02*
X61372247Y-91862619D01*
X61372247Y-91862619D02*
X61086533Y-91862619D01*
X61086533Y-91862619D02*
X60991295Y-91815000D01*
X60991295Y-91815000D02*
X60943676Y-91767380D01*
%TO.C,U2*%
X67238095Y-67962619D02*
X67238095Y-68772142D01*
X67238095Y-68772142D02*
X67285714Y-68867380D01*
X67285714Y-68867380D02*
X67333333Y-68915000D01*
X67333333Y-68915000D02*
X67428571Y-68962619D01*
X67428571Y-68962619D02*
X67619047Y-68962619D01*
X67619047Y-68962619D02*
X67714285Y-68915000D01*
X67714285Y-68915000D02*
X67761904Y-68867380D01*
X67761904Y-68867380D02*
X67809523Y-68772142D01*
X67809523Y-68772142D02*
X67809523Y-67962619D01*
X68238095Y-68057857D02*
X68285714Y-68010238D01*
X68285714Y-68010238D02*
X68380952Y-67962619D01*
X68380952Y-67962619D02*
X68619047Y-67962619D01*
X68619047Y-67962619D02*
X68714285Y-68010238D01*
X68714285Y-68010238D02*
X68761904Y-68057857D01*
X68761904Y-68057857D02*
X68809523Y-68153095D01*
X68809523Y-68153095D02*
X68809523Y-68248333D01*
X68809523Y-68248333D02*
X68761904Y-68391190D01*
X68761904Y-68391190D02*
X68190476Y-68962619D01*
X68190476Y-68962619D02*
X68809523Y-68962619D01*
%TO.C,TH1*%
X124021428Y-75195095D02*
X124478571Y-75195095D01*
X124249999Y-75995095D02*
X124249999Y-75195095D01*
X124745238Y-75995095D02*
X124745238Y-75195095D01*
X124745238Y-75576047D02*
X125202381Y-75576047D01*
X125202381Y-75995095D02*
X125202381Y-75195095D01*
X126002380Y-75995095D02*
X125545237Y-75995095D01*
X125773809Y-75995095D02*
X125773809Y-75195095D01*
X125773809Y-75195095D02*
X125697618Y-75309380D01*
X125697618Y-75309380D02*
X125621428Y-75385571D01*
X125621428Y-75385571D02*
X125545237Y-75423666D01*
%TO.C,SW2*%
X72633333Y-91581000D02*
X72833333Y-91647666D01*
X72833333Y-91647666D02*
X73166667Y-91647666D01*
X73166667Y-91647666D02*
X73300000Y-91581000D01*
X73300000Y-91581000D02*
X73366667Y-91514333D01*
X73366667Y-91514333D02*
X73433333Y-91381000D01*
X73433333Y-91381000D02*
X73433333Y-91247666D01*
X73433333Y-91247666D02*
X73366667Y-91114333D01*
X73366667Y-91114333D02*
X73300000Y-91047666D01*
X73300000Y-91047666D02*
X73166667Y-90981000D01*
X73166667Y-90981000D02*
X72900000Y-90914333D01*
X72900000Y-90914333D02*
X72766667Y-90847666D01*
X72766667Y-90847666D02*
X72700000Y-90781000D01*
X72700000Y-90781000D02*
X72633333Y-90647666D01*
X72633333Y-90647666D02*
X72633333Y-90514333D01*
X72633333Y-90514333D02*
X72700000Y-90381000D01*
X72700000Y-90381000D02*
X72766667Y-90314333D01*
X72766667Y-90314333D02*
X72900000Y-90247666D01*
X72900000Y-90247666D02*
X73233333Y-90247666D01*
X73233333Y-90247666D02*
X73433333Y-90314333D01*
X73900000Y-90247666D02*
X74233333Y-91647666D01*
X74233333Y-91647666D02*
X74500000Y-90647666D01*
X74500000Y-90647666D02*
X74766666Y-91647666D01*
X74766666Y-91647666D02*
X75100000Y-90247666D01*
X75566666Y-90381000D02*
X75633333Y-90314333D01*
X75633333Y-90314333D02*
X75766666Y-90247666D01*
X75766666Y-90247666D02*
X76100000Y-90247666D01*
X76100000Y-90247666D02*
X76233333Y-90314333D01*
X76233333Y-90314333D02*
X76300000Y-90381000D01*
X76300000Y-90381000D02*
X76366666Y-90514333D01*
X76366666Y-90514333D02*
X76366666Y-90647666D01*
X76366666Y-90647666D02*
X76300000Y-90847666D01*
X76300000Y-90847666D02*
X75500000Y-91647666D01*
X75500000Y-91647666D02*
X76366666Y-91647666D01*
%TO.C,SW1*%
X57915000Y-59083332D02*
X57962619Y-58940475D01*
X57962619Y-58940475D02*
X57962619Y-58702380D01*
X57962619Y-58702380D02*
X57915000Y-58607142D01*
X57915000Y-58607142D02*
X57867380Y-58559523D01*
X57867380Y-58559523D02*
X57772142Y-58511904D01*
X57772142Y-58511904D02*
X57676904Y-58511904D01*
X57676904Y-58511904D02*
X57581666Y-58559523D01*
X57581666Y-58559523D02*
X57534047Y-58607142D01*
X57534047Y-58607142D02*
X57486428Y-58702380D01*
X57486428Y-58702380D02*
X57438809Y-58892856D01*
X57438809Y-58892856D02*
X57391190Y-58988094D01*
X57391190Y-58988094D02*
X57343571Y-59035713D01*
X57343571Y-59035713D02*
X57248333Y-59083332D01*
X57248333Y-59083332D02*
X57153095Y-59083332D01*
X57153095Y-59083332D02*
X57057857Y-59035713D01*
X57057857Y-59035713D02*
X57010238Y-58988094D01*
X57010238Y-58988094D02*
X56962619Y-58892856D01*
X56962619Y-58892856D02*
X56962619Y-58654761D01*
X56962619Y-58654761D02*
X57010238Y-58511904D01*
X56962619Y-58178570D02*
X57962619Y-57940475D01*
X57962619Y-57940475D02*
X57248333Y-57749999D01*
X57248333Y-57749999D02*
X57962619Y-57559523D01*
X57962619Y-57559523D02*
X56962619Y-57321428D01*
X57962619Y-56416666D02*
X57962619Y-56988094D01*
X57962619Y-56702380D02*
X56962619Y-56702380D01*
X56962619Y-56702380D02*
X57105476Y-56797618D01*
X57105476Y-56797618D02*
X57200714Y-56892856D01*
X57200714Y-56892856D02*
X57248333Y-56988094D01*
%TO.C,R14*%
X79212619Y-58142857D02*
X78736428Y-58476190D01*
X79212619Y-58714285D02*
X78212619Y-58714285D01*
X78212619Y-58714285D02*
X78212619Y-58333333D01*
X78212619Y-58333333D02*
X78260238Y-58238095D01*
X78260238Y-58238095D02*
X78307857Y-58190476D01*
X78307857Y-58190476D02*
X78403095Y-58142857D01*
X78403095Y-58142857D02*
X78545952Y-58142857D01*
X78545952Y-58142857D02*
X78641190Y-58190476D01*
X78641190Y-58190476D02*
X78688809Y-58238095D01*
X78688809Y-58238095D02*
X78736428Y-58333333D01*
X78736428Y-58333333D02*
X78736428Y-58714285D01*
X79212619Y-57190476D02*
X79212619Y-57761904D01*
X79212619Y-57476190D02*
X78212619Y-57476190D01*
X78212619Y-57476190D02*
X78355476Y-57571428D01*
X78355476Y-57571428D02*
X78450714Y-57666666D01*
X78450714Y-57666666D02*
X78498333Y-57761904D01*
X78545952Y-56333333D02*
X79212619Y-56333333D01*
X78165000Y-56571428D02*
X78879285Y-56809523D01*
X78879285Y-56809523D02*
X78879285Y-56190476D01*
%TO.C,R12*%
X81212619Y-59642857D02*
X80736428Y-59976190D01*
X81212619Y-60214285D02*
X80212619Y-60214285D01*
X80212619Y-60214285D02*
X80212619Y-59833333D01*
X80212619Y-59833333D02*
X80260238Y-59738095D01*
X80260238Y-59738095D02*
X80307857Y-59690476D01*
X80307857Y-59690476D02*
X80403095Y-59642857D01*
X80403095Y-59642857D02*
X80545952Y-59642857D01*
X80545952Y-59642857D02*
X80641190Y-59690476D01*
X80641190Y-59690476D02*
X80688809Y-59738095D01*
X80688809Y-59738095D02*
X80736428Y-59833333D01*
X80736428Y-59833333D02*
X80736428Y-60214285D01*
X81212619Y-58690476D02*
X81212619Y-59261904D01*
X81212619Y-58976190D02*
X80212619Y-58976190D01*
X80212619Y-58976190D02*
X80355476Y-59071428D01*
X80355476Y-59071428D02*
X80450714Y-59166666D01*
X80450714Y-59166666D02*
X80498333Y-59261904D01*
X80307857Y-58309523D02*
X80260238Y-58261904D01*
X80260238Y-58261904D02*
X80212619Y-58166666D01*
X80212619Y-58166666D02*
X80212619Y-57928571D01*
X80212619Y-57928571D02*
X80260238Y-57833333D01*
X80260238Y-57833333D02*
X80307857Y-57785714D01*
X80307857Y-57785714D02*
X80403095Y-57738095D01*
X80403095Y-57738095D02*
X80498333Y-57738095D01*
X80498333Y-57738095D02*
X80641190Y-57785714D01*
X80641190Y-57785714D02*
X81212619Y-58357142D01*
X81212619Y-58357142D02*
X81212619Y-57738095D01*
%TO.C,R10*%
X64607142Y-57032619D02*
X64273809Y-56556428D01*
X64035714Y-57032619D02*
X64035714Y-56032619D01*
X64035714Y-56032619D02*
X64416666Y-56032619D01*
X64416666Y-56032619D02*
X64511904Y-56080238D01*
X64511904Y-56080238D02*
X64559523Y-56127857D01*
X64559523Y-56127857D02*
X64607142Y-56223095D01*
X64607142Y-56223095D02*
X64607142Y-56365952D01*
X64607142Y-56365952D02*
X64559523Y-56461190D01*
X64559523Y-56461190D02*
X64511904Y-56508809D01*
X64511904Y-56508809D02*
X64416666Y-56556428D01*
X64416666Y-56556428D02*
X64035714Y-56556428D01*
X65559523Y-57032619D02*
X64988095Y-57032619D01*
X65273809Y-57032619D02*
X65273809Y-56032619D01*
X65273809Y-56032619D02*
X65178571Y-56175476D01*
X65178571Y-56175476D02*
X65083333Y-56270714D01*
X65083333Y-56270714D02*
X64988095Y-56318333D01*
X66178571Y-56032619D02*
X66273809Y-56032619D01*
X66273809Y-56032619D02*
X66369047Y-56080238D01*
X66369047Y-56080238D02*
X66416666Y-56127857D01*
X66416666Y-56127857D02*
X66464285Y-56223095D01*
X66464285Y-56223095D02*
X66511904Y-56413571D01*
X66511904Y-56413571D02*
X66511904Y-56651666D01*
X66511904Y-56651666D02*
X66464285Y-56842142D01*
X66464285Y-56842142D02*
X66416666Y-56937380D01*
X66416666Y-56937380D02*
X66369047Y-56985000D01*
X66369047Y-56985000D02*
X66273809Y-57032619D01*
X66273809Y-57032619D02*
X66178571Y-57032619D01*
X66178571Y-57032619D02*
X66083333Y-56985000D01*
X66083333Y-56985000D02*
X66035714Y-56937380D01*
X66035714Y-56937380D02*
X65988095Y-56842142D01*
X65988095Y-56842142D02*
X65940476Y-56651666D01*
X65940476Y-56651666D02*
X65940476Y-56413571D01*
X65940476Y-56413571D02*
X65988095Y-56223095D01*
X65988095Y-56223095D02*
X66035714Y-56127857D01*
X66035714Y-56127857D02*
X66083333Y-56080238D01*
X66083333Y-56080238D02*
X66178571Y-56032619D01*
%TO.C,R7*%
X85120095Y-72633332D02*
X84739142Y-72899999D01*
X85120095Y-73090475D02*
X84320095Y-73090475D01*
X84320095Y-73090475D02*
X84320095Y-72785713D01*
X84320095Y-72785713D02*
X84358190Y-72709523D01*
X84358190Y-72709523D02*
X84396285Y-72671428D01*
X84396285Y-72671428D02*
X84472476Y-72633332D01*
X84472476Y-72633332D02*
X84586761Y-72633332D01*
X84586761Y-72633332D02*
X84662952Y-72671428D01*
X84662952Y-72671428D02*
X84701047Y-72709523D01*
X84701047Y-72709523D02*
X84739142Y-72785713D01*
X84739142Y-72785713D02*
X84739142Y-73090475D01*
X84320095Y-72366666D02*
X84320095Y-71833332D01*
X84320095Y-71833332D02*
X85120095Y-72176190D01*
%TO.C,R6*%
X85050095Y-68883332D02*
X84669142Y-69149999D01*
X85050095Y-69340475D02*
X84250095Y-69340475D01*
X84250095Y-69340475D02*
X84250095Y-69035713D01*
X84250095Y-69035713D02*
X84288190Y-68959523D01*
X84288190Y-68959523D02*
X84326285Y-68921428D01*
X84326285Y-68921428D02*
X84402476Y-68883332D01*
X84402476Y-68883332D02*
X84516761Y-68883332D01*
X84516761Y-68883332D02*
X84592952Y-68921428D01*
X84592952Y-68921428D02*
X84631047Y-68959523D01*
X84631047Y-68959523D02*
X84669142Y-69035713D01*
X84669142Y-69035713D02*
X84669142Y-69340475D01*
X84250095Y-68197618D02*
X84250095Y-68349999D01*
X84250095Y-68349999D02*
X84288190Y-68426190D01*
X84288190Y-68426190D02*
X84326285Y-68464285D01*
X84326285Y-68464285D02*
X84440571Y-68540475D01*
X84440571Y-68540475D02*
X84592952Y-68578571D01*
X84592952Y-68578571D02*
X84897714Y-68578571D01*
X84897714Y-68578571D02*
X84973904Y-68540475D01*
X84973904Y-68540475D02*
X85012000Y-68502380D01*
X85012000Y-68502380D02*
X85050095Y-68426190D01*
X85050095Y-68426190D02*
X85050095Y-68273809D01*
X85050095Y-68273809D02*
X85012000Y-68197618D01*
X85012000Y-68197618D02*
X84973904Y-68159523D01*
X84973904Y-68159523D02*
X84897714Y-68121428D01*
X84897714Y-68121428D02*
X84707238Y-68121428D01*
X84707238Y-68121428D02*
X84631047Y-68159523D01*
X84631047Y-68159523D02*
X84592952Y-68197618D01*
X84592952Y-68197618D02*
X84554857Y-68273809D01*
X84554857Y-68273809D02*
X84554857Y-68426190D01*
X84554857Y-68426190D02*
X84592952Y-68502380D01*
X84592952Y-68502380D02*
X84631047Y-68540475D01*
X84631047Y-68540475D02*
X84707238Y-68578571D01*
%TO.C,R5*%
X58720095Y-72783332D02*
X58339142Y-73049999D01*
X58720095Y-73240475D02*
X57920095Y-73240475D01*
X57920095Y-73240475D02*
X57920095Y-72935713D01*
X57920095Y-72935713D02*
X57958190Y-72859523D01*
X57958190Y-72859523D02*
X57996285Y-72821428D01*
X57996285Y-72821428D02*
X58072476Y-72783332D01*
X58072476Y-72783332D02*
X58186761Y-72783332D01*
X58186761Y-72783332D02*
X58262952Y-72821428D01*
X58262952Y-72821428D02*
X58301047Y-72859523D01*
X58301047Y-72859523D02*
X58339142Y-72935713D01*
X58339142Y-72935713D02*
X58339142Y-73240475D01*
X57920095Y-72059523D02*
X57920095Y-72440475D01*
X57920095Y-72440475D02*
X58301047Y-72478571D01*
X58301047Y-72478571D02*
X58262952Y-72440475D01*
X58262952Y-72440475D02*
X58224857Y-72364285D01*
X58224857Y-72364285D02*
X58224857Y-72173809D01*
X58224857Y-72173809D02*
X58262952Y-72097618D01*
X58262952Y-72097618D02*
X58301047Y-72059523D01*
X58301047Y-72059523D02*
X58377238Y-72021428D01*
X58377238Y-72021428D02*
X58567714Y-72021428D01*
X58567714Y-72021428D02*
X58643904Y-72059523D01*
X58643904Y-72059523D02*
X58682000Y-72097618D01*
X58682000Y-72097618D02*
X58720095Y-72173809D01*
X58720095Y-72173809D02*
X58720095Y-72364285D01*
X58720095Y-72364285D02*
X58682000Y-72440475D01*
X58682000Y-72440475D02*
X58643904Y-72478571D01*
%TO.C,R4*%
X124166667Y-77745095D02*
X123900000Y-77364142D01*
X123709524Y-77745095D02*
X123709524Y-76945095D01*
X123709524Y-76945095D02*
X124014286Y-76945095D01*
X124014286Y-76945095D02*
X124090476Y-76983190D01*
X124090476Y-76983190D02*
X124128571Y-77021285D01*
X124128571Y-77021285D02*
X124166667Y-77097476D01*
X124166667Y-77097476D02*
X124166667Y-77211761D01*
X124166667Y-77211761D02*
X124128571Y-77287952D01*
X124128571Y-77287952D02*
X124090476Y-77326047D01*
X124090476Y-77326047D02*
X124014286Y-77364142D01*
X124014286Y-77364142D02*
X123709524Y-77364142D01*
X124852381Y-77211761D02*
X124852381Y-77745095D01*
X124661905Y-76907000D02*
X124471428Y-77478428D01*
X124471428Y-77478428D02*
X124966667Y-77478428D01*
%TO.C,R3*%
X77083333Y-84712619D02*
X76750000Y-84236428D01*
X76511905Y-84712619D02*
X76511905Y-83712619D01*
X76511905Y-83712619D02*
X76892857Y-83712619D01*
X76892857Y-83712619D02*
X76988095Y-83760238D01*
X76988095Y-83760238D02*
X77035714Y-83807857D01*
X77035714Y-83807857D02*
X77083333Y-83903095D01*
X77083333Y-83903095D02*
X77083333Y-84045952D01*
X77083333Y-84045952D02*
X77035714Y-84141190D01*
X77035714Y-84141190D02*
X76988095Y-84188809D01*
X76988095Y-84188809D02*
X76892857Y-84236428D01*
X76892857Y-84236428D02*
X76511905Y-84236428D01*
X77416667Y-83712619D02*
X78035714Y-83712619D01*
X78035714Y-83712619D02*
X77702381Y-84093571D01*
X77702381Y-84093571D02*
X77845238Y-84093571D01*
X77845238Y-84093571D02*
X77940476Y-84141190D01*
X77940476Y-84141190D02*
X77988095Y-84188809D01*
X77988095Y-84188809D02*
X78035714Y-84284047D01*
X78035714Y-84284047D02*
X78035714Y-84522142D01*
X78035714Y-84522142D02*
X77988095Y-84617380D01*
X77988095Y-84617380D02*
X77940476Y-84665000D01*
X77940476Y-84665000D02*
X77845238Y-84712619D01*
X77845238Y-84712619D02*
X77559524Y-84712619D01*
X77559524Y-84712619D02*
X77464286Y-84665000D01*
X77464286Y-84665000D02*
X77416667Y-84617380D01*
%TO.C,R2*%
X101241667Y-75432595D02*
X100975000Y-75051642D01*
X100784524Y-75432595D02*
X100784524Y-74632595D01*
X100784524Y-74632595D02*
X101089286Y-74632595D01*
X101089286Y-74632595D02*
X101165476Y-74670690D01*
X101165476Y-74670690D02*
X101203571Y-74708785D01*
X101203571Y-74708785D02*
X101241667Y-74784976D01*
X101241667Y-74784976D02*
X101241667Y-74899261D01*
X101241667Y-74899261D02*
X101203571Y-74975452D01*
X101203571Y-74975452D02*
X101165476Y-75013547D01*
X101165476Y-75013547D02*
X101089286Y-75051642D01*
X101089286Y-75051642D02*
X100784524Y-75051642D01*
X101546428Y-74708785D02*
X101584524Y-74670690D01*
X101584524Y-74670690D02*
X101660714Y-74632595D01*
X101660714Y-74632595D02*
X101851190Y-74632595D01*
X101851190Y-74632595D02*
X101927381Y-74670690D01*
X101927381Y-74670690D02*
X101965476Y-74708785D01*
X101965476Y-74708785D02*
X102003571Y-74784976D01*
X102003571Y-74784976D02*
X102003571Y-74861166D01*
X102003571Y-74861166D02*
X101965476Y-74975452D01*
X101965476Y-74975452D02*
X101508333Y-75432595D01*
X101508333Y-75432595D02*
X102003571Y-75432595D01*
%TO.C,R1*%
X93491667Y-74682595D02*
X93225000Y-74301642D01*
X93034524Y-74682595D02*
X93034524Y-73882595D01*
X93034524Y-73882595D02*
X93339286Y-73882595D01*
X93339286Y-73882595D02*
X93415476Y-73920690D01*
X93415476Y-73920690D02*
X93453571Y-73958785D01*
X93453571Y-73958785D02*
X93491667Y-74034976D01*
X93491667Y-74034976D02*
X93491667Y-74149261D01*
X93491667Y-74149261D02*
X93453571Y-74225452D01*
X93453571Y-74225452D02*
X93415476Y-74263547D01*
X93415476Y-74263547D02*
X93339286Y-74301642D01*
X93339286Y-74301642D02*
X93034524Y-74301642D01*
X94253571Y-74682595D02*
X93796428Y-74682595D01*
X94025000Y-74682595D02*
X94025000Y-73882595D01*
X94025000Y-73882595D02*
X93948809Y-73996880D01*
X93948809Y-73996880D02*
X93872619Y-74073071D01*
X93872619Y-74073071D02*
X93796428Y-74111166D01*
%TO.C,L2*%
X103491666Y-60745095D02*
X103110714Y-60745095D01*
X103110714Y-60745095D02*
X103110714Y-59945095D01*
X103720237Y-60021285D02*
X103758333Y-59983190D01*
X103758333Y-59983190D02*
X103834523Y-59945095D01*
X103834523Y-59945095D02*
X104024999Y-59945095D01*
X104024999Y-59945095D02*
X104101190Y-59983190D01*
X104101190Y-59983190D02*
X104139285Y-60021285D01*
X104139285Y-60021285D02*
X104177380Y-60097476D01*
X104177380Y-60097476D02*
X104177380Y-60173666D01*
X104177380Y-60173666D02*
X104139285Y-60287952D01*
X104139285Y-60287952D02*
X103682142Y-60745095D01*
X103682142Y-60745095D02*
X104177380Y-60745095D01*
%TO.C,L1*%
X105941666Y-82995095D02*
X105560714Y-82995095D01*
X105560714Y-82995095D02*
X105560714Y-82195095D01*
X106627380Y-82995095D02*
X106170237Y-82995095D01*
X106398809Y-82995095D02*
X106398809Y-82195095D01*
X106398809Y-82195095D02*
X106322618Y-82309380D01*
X106322618Y-82309380D02*
X106246428Y-82385571D01*
X106246428Y-82385571D02*
X106170237Y-82423666D01*
%TO.C,J4*%
X78166666Y-53212619D02*
X78166666Y-53926904D01*
X78166666Y-53926904D02*
X78119047Y-54069761D01*
X78119047Y-54069761D02*
X78023809Y-54165000D01*
X78023809Y-54165000D02*
X77880952Y-54212619D01*
X77880952Y-54212619D02*
X77785714Y-54212619D01*
X79071428Y-53545952D02*
X79071428Y-54212619D01*
X78833333Y-53165000D02*
X78595238Y-53879285D01*
X78595238Y-53879285D02*
X79214285Y-53879285D01*
X73857142Y-50835000D02*
X73714285Y-50787380D01*
X73714285Y-50787380D02*
X73476190Y-50787380D01*
X73476190Y-50787380D02*
X73380952Y-50835000D01*
X73380952Y-50835000D02*
X73333333Y-50882619D01*
X73333333Y-50882619D02*
X73285714Y-50977857D01*
X73285714Y-50977857D02*
X73285714Y-51073095D01*
X73285714Y-51073095D02*
X73333333Y-51168333D01*
X73333333Y-51168333D02*
X73380952Y-51215952D01*
X73380952Y-51215952D02*
X73476190Y-51263571D01*
X73476190Y-51263571D02*
X73666666Y-51311190D01*
X73666666Y-51311190D02*
X73761904Y-51358809D01*
X73761904Y-51358809D02*
X73809523Y-51406428D01*
X73809523Y-51406428D02*
X73857142Y-51501666D01*
X73857142Y-51501666D02*
X73857142Y-51596904D01*
X73857142Y-51596904D02*
X73809523Y-51692142D01*
X73809523Y-51692142D02*
X73761904Y-51739761D01*
X73761904Y-51739761D02*
X73666666Y-51787380D01*
X73666666Y-51787380D02*
X73428571Y-51787380D01*
X73428571Y-51787380D02*
X73285714Y-51739761D01*
X72952380Y-51787380D02*
X72714285Y-50787380D01*
X72714285Y-50787380D02*
X72523809Y-51501666D01*
X72523809Y-51501666D02*
X72333333Y-50787380D01*
X72333333Y-50787380D02*
X72095238Y-51787380D01*
X71714285Y-50787380D02*
X71714285Y-51787380D01*
X71714285Y-51787380D02*
X71476190Y-51787380D01*
X71476190Y-51787380D02*
X71333333Y-51739761D01*
X71333333Y-51739761D02*
X71238095Y-51644523D01*
X71238095Y-51644523D02*
X71190476Y-51549285D01*
X71190476Y-51549285D02*
X71142857Y-51358809D01*
X71142857Y-51358809D02*
X71142857Y-51215952D01*
X71142857Y-51215952D02*
X71190476Y-51025476D01*
X71190476Y-51025476D02*
X71238095Y-50930238D01*
X71238095Y-50930238D02*
X71333333Y-50835000D01*
X71333333Y-50835000D02*
X71476190Y-50787380D01*
X71476190Y-50787380D02*
X71714285Y-50787380D01*
%TO.C,J3*%
X95926666Y-50712619D02*
X95926666Y-51426904D01*
X95926666Y-51426904D02*
X95879047Y-51569761D01*
X95879047Y-51569761D02*
X95783809Y-51665000D01*
X95783809Y-51665000D02*
X95640952Y-51712619D01*
X95640952Y-51712619D02*
X95545714Y-51712619D01*
X96307619Y-50712619D02*
X96926666Y-50712619D01*
X96926666Y-50712619D02*
X96593333Y-51093571D01*
X96593333Y-51093571D02*
X96736190Y-51093571D01*
X96736190Y-51093571D02*
X96831428Y-51141190D01*
X96831428Y-51141190D02*
X96879047Y-51188809D01*
X96879047Y-51188809D02*
X96926666Y-51284047D01*
X96926666Y-51284047D02*
X96926666Y-51522142D01*
X96926666Y-51522142D02*
X96879047Y-51617380D01*
X96879047Y-51617380D02*
X96831428Y-51665000D01*
X96831428Y-51665000D02*
X96736190Y-51712619D01*
X96736190Y-51712619D02*
X96450476Y-51712619D01*
X96450476Y-51712619D02*
X96355238Y-51665000D01*
X96355238Y-51665000D02*
X96307619Y-51617380D01*
X93105237Y-51787380D02*
X93105237Y-50977857D01*
X93105237Y-50977857D02*
X93057618Y-50882619D01*
X93057618Y-50882619D02*
X93009999Y-50835000D01*
X93009999Y-50835000D02*
X92914761Y-50787380D01*
X92914761Y-50787380D02*
X92724285Y-50787380D01*
X92724285Y-50787380D02*
X92629047Y-50835000D01*
X92629047Y-50835000D02*
X92581428Y-50882619D01*
X92581428Y-50882619D02*
X92533809Y-50977857D01*
X92533809Y-50977857D02*
X92533809Y-51787380D01*
X92105237Y-51073095D02*
X91629047Y-51073095D01*
X92200475Y-50787380D02*
X91867142Y-51787380D01*
X91867142Y-51787380D02*
X91533809Y-50787380D01*
X90629047Y-50787380D02*
X90962380Y-51263571D01*
X91200475Y-50787380D02*
X91200475Y-51787380D01*
X91200475Y-51787380D02*
X90819523Y-51787380D01*
X90819523Y-51787380D02*
X90724285Y-51739761D01*
X90724285Y-51739761D02*
X90676666Y-51692142D01*
X90676666Y-51692142D02*
X90629047Y-51596904D01*
X90629047Y-51596904D02*
X90629047Y-51454047D01*
X90629047Y-51454047D02*
X90676666Y-51358809D01*
X90676666Y-51358809D02*
X90724285Y-51311190D01*
X90724285Y-51311190D02*
X90819523Y-51263571D01*
X90819523Y-51263571D02*
X91200475Y-51263571D01*
X90343332Y-51787380D02*
X89771904Y-51787380D01*
X90057618Y-50787380D02*
X90057618Y-51787380D01*
D11*
%TO.C,J1*%
X94666666Y-95462619D02*
X94666666Y-96176904D01*
X94666666Y-96176904D02*
X94619047Y-96319761D01*
X94619047Y-96319761D02*
X94523809Y-96415000D01*
X94523809Y-96415000D02*
X94380952Y-96462619D01*
X94380952Y-96462619D02*
X94285714Y-96462619D01*
X95666666Y-96462619D02*
X95095238Y-96462619D01*
X95380952Y-96462619D02*
X95380952Y-95462619D01*
X95380952Y-95462619D02*
X95285714Y-95605476D01*
X95285714Y-95605476D02*
X95190476Y-95700714D01*
X95190476Y-95700714D02*
X95095238Y-95748333D01*
X91904762Y-99188809D02*
X92238095Y-99188809D01*
X92380952Y-99712619D02*
X91904762Y-99712619D01*
X91904762Y-99712619D02*
X91904762Y-98712619D01*
X91904762Y-98712619D02*
X92380952Y-98712619D01*
X92809524Y-99712619D02*
X92809524Y-98712619D01*
X92809524Y-98712619D02*
X93047619Y-98712619D01*
X93047619Y-98712619D02*
X93190476Y-98760238D01*
X93190476Y-98760238D02*
X93285714Y-98855476D01*
X93285714Y-98855476D02*
X93333333Y-98950714D01*
X93333333Y-98950714D02*
X93380952Y-99141190D01*
X93380952Y-99141190D02*
X93380952Y-99284047D01*
X93380952Y-99284047D02*
X93333333Y-99474523D01*
X93333333Y-99474523D02*
X93285714Y-99569761D01*
X93285714Y-99569761D02*
X93190476Y-99665000D01*
X93190476Y-99665000D02*
X93047619Y-99712619D01*
X93047619Y-99712619D02*
X92809524Y-99712619D01*
X94000000Y-98712619D02*
X94095238Y-98712619D01*
X94095238Y-98712619D02*
X94190476Y-98760238D01*
X94190476Y-98760238D02*
X94238095Y-98807857D01*
X94238095Y-98807857D02*
X94285714Y-98903095D01*
X94285714Y-98903095D02*
X94333333Y-99093571D01*
X94333333Y-99093571D02*
X94333333Y-99331666D01*
X94333333Y-99331666D02*
X94285714Y-99522142D01*
X94285714Y-99522142D02*
X94238095Y-99617380D01*
X94238095Y-99617380D02*
X94190476Y-99665000D01*
X94190476Y-99665000D02*
X94095238Y-99712619D01*
X94095238Y-99712619D02*
X94000000Y-99712619D01*
X94000000Y-99712619D02*
X93904762Y-99665000D01*
X93904762Y-99665000D02*
X93857143Y-99617380D01*
X93857143Y-99617380D02*
X93809524Y-99522142D01*
X93809524Y-99522142D02*
X93761905Y-99331666D01*
X93761905Y-99331666D02*
X93761905Y-99093571D01*
X93761905Y-99093571D02*
X93809524Y-98903095D01*
X93809524Y-98903095D02*
X93857143Y-98807857D01*
X93857143Y-98807857D02*
X93904762Y-98760238D01*
X93904762Y-98760238D02*
X94000000Y-98712619D01*
X95190476Y-98712619D02*
X95000000Y-98712619D01*
X95000000Y-98712619D02*
X94904762Y-98760238D01*
X94904762Y-98760238D02*
X94857143Y-98807857D01*
X94857143Y-98807857D02*
X94761905Y-98950714D01*
X94761905Y-98950714D02*
X94714286Y-99141190D01*
X94714286Y-99141190D02*
X94714286Y-99522142D01*
X94714286Y-99522142D02*
X94761905Y-99617380D01*
X94761905Y-99617380D02*
X94809524Y-99665000D01*
X94809524Y-99665000D02*
X94904762Y-99712619D01*
X94904762Y-99712619D02*
X95095238Y-99712619D01*
X95095238Y-99712619D02*
X95190476Y-99665000D01*
X95190476Y-99665000D02*
X95238095Y-99617380D01*
X95238095Y-99617380D02*
X95285714Y-99522142D01*
X95285714Y-99522142D02*
X95285714Y-99284047D01*
X95285714Y-99284047D02*
X95238095Y-99188809D01*
X95238095Y-99188809D02*
X95190476Y-99141190D01*
X95190476Y-99141190D02*
X95095238Y-99093571D01*
X95095238Y-99093571D02*
X94904762Y-99093571D01*
X94904762Y-99093571D02*
X94809524Y-99141190D01*
X94809524Y-99141190D02*
X94761905Y-99188809D01*
X94761905Y-99188809D02*
X94714286Y-99284047D01*
X95904762Y-98712619D02*
X96000000Y-98712619D01*
X96000000Y-98712619D02*
X96095238Y-98760238D01*
X96095238Y-98760238D02*
X96142857Y-98807857D01*
X96142857Y-98807857D02*
X96190476Y-98903095D01*
X96190476Y-98903095D02*
X96238095Y-99093571D01*
X96238095Y-99093571D02*
X96238095Y-99331666D01*
X96238095Y-99331666D02*
X96190476Y-99522142D01*
X96190476Y-99522142D02*
X96142857Y-99617380D01*
X96142857Y-99617380D02*
X96095238Y-99665000D01*
X96095238Y-99665000D02*
X96000000Y-99712619D01*
X96000000Y-99712619D02*
X95904762Y-99712619D01*
X95904762Y-99712619D02*
X95809524Y-99665000D01*
X95809524Y-99665000D02*
X95761905Y-99617380D01*
X95761905Y-99617380D02*
X95714286Y-99522142D01*
X95714286Y-99522142D02*
X95666667Y-99331666D01*
X95666667Y-99331666D02*
X95666667Y-99093571D01*
X95666667Y-99093571D02*
X95714286Y-98903095D01*
X95714286Y-98903095D02*
X95761905Y-98807857D01*
X95761905Y-98807857D02*
X95809524Y-98760238D01*
X95809524Y-98760238D02*
X95904762Y-98712619D01*
X96619048Y-99665000D02*
X96761905Y-99712619D01*
X96761905Y-99712619D02*
X97000000Y-99712619D01*
X97000000Y-99712619D02*
X97095238Y-99665000D01*
X97095238Y-99665000D02*
X97142857Y-99617380D01*
X97142857Y-99617380D02*
X97190476Y-99522142D01*
X97190476Y-99522142D02*
X97190476Y-99426904D01*
X97190476Y-99426904D02*
X97142857Y-99331666D01*
X97142857Y-99331666D02*
X97095238Y-99284047D01*
X97095238Y-99284047D02*
X97000000Y-99236428D01*
X97000000Y-99236428D02*
X96809524Y-99188809D01*
X96809524Y-99188809D02*
X96714286Y-99141190D01*
X96714286Y-99141190D02*
X96666667Y-99093571D01*
X96666667Y-99093571D02*
X96619048Y-98998333D01*
X96619048Y-98998333D02*
X96619048Y-98903095D01*
X96619048Y-98903095D02*
X96666667Y-98807857D01*
X96666667Y-98807857D02*
X96714286Y-98760238D01*
X96714286Y-98760238D02*
X96809524Y-98712619D01*
X96809524Y-98712619D02*
X97047619Y-98712619D01*
X97047619Y-98712619D02*
X97190476Y-98760238D01*
X98190476Y-99617380D02*
X98142857Y-99665000D01*
X98142857Y-99665000D02*
X98000000Y-99712619D01*
X98000000Y-99712619D02*
X97904762Y-99712619D01*
X97904762Y-99712619D02*
X97761905Y-99665000D01*
X97761905Y-99665000D02*
X97666667Y-99569761D01*
X97666667Y-99569761D02*
X97619048Y-99474523D01*
X97619048Y-99474523D02*
X97571429Y-99284047D01*
X97571429Y-99284047D02*
X97571429Y-99141190D01*
X97571429Y-99141190D02*
X97619048Y-98950714D01*
X97619048Y-98950714D02*
X97666667Y-98855476D01*
X97666667Y-98855476D02*
X97761905Y-98760238D01*
X97761905Y-98760238D02*
X97904762Y-98712619D01*
X97904762Y-98712619D02*
X98000000Y-98712619D01*
X98000000Y-98712619D02*
X98142857Y-98760238D01*
X98142857Y-98760238D02*
X98190476Y-98807857D01*
X99047619Y-99045952D02*
X99047619Y-99712619D01*
X98809524Y-98665000D02*
X98571429Y-99379285D01*
X98571429Y-99379285D02*
X99190476Y-99379285D01*
D10*
%TO.C,FB1*%
X63333333Y-76451047D02*
X63066667Y-76451047D01*
X63066667Y-76870095D02*
X63066667Y-76070095D01*
X63066667Y-76070095D02*
X63447619Y-76070095D01*
X64019047Y-76451047D02*
X64133333Y-76489142D01*
X64133333Y-76489142D02*
X64171428Y-76527238D01*
X64171428Y-76527238D02*
X64209524Y-76603428D01*
X64209524Y-76603428D02*
X64209524Y-76717714D01*
X64209524Y-76717714D02*
X64171428Y-76793904D01*
X64171428Y-76793904D02*
X64133333Y-76832000D01*
X64133333Y-76832000D02*
X64057143Y-76870095D01*
X64057143Y-76870095D02*
X63752381Y-76870095D01*
X63752381Y-76870095D02*
X63752381Y-76070095D01*
X63752381Y-76070095D02*
X64019047Y-76070095D01*
X64019047Y-76070095D02*
X64095238Y-76108190D01*
X64095238Y-76108190D02*
X64133333Y-76146285D01*
X64133333Y-76146285D02*
X64171428Y-76222476D01*
X64171428Y-76222476D02*
X64171428Y-76298666D01*
X64171428Y-76298666D02*
X64133333Y-76374857D01*
X64133333Y-76374857D02*
X64095238Y-76412952D01*
X64095238Y-76412952D02*
X64019047Y-76451047D01*
X64019047Y-76451047D02*
X63752381Y-76451047D01*
X64971428Y-76870095D02*
X64514285Y-76870095D01*
X64742857Y-76870095D02*
X64742857Y-76070095D01*
X64742857Y-76070095D02*
X64666666Y-76184380D01*
X64666666Y-76184380D02*
X64590476Y-76260571D01*
X64590476Y-76260571D02*
X64514285Y-76298666D01*
%TO.C,D8*%
X93709524Y-79182595D02*
X93709524Y-78382595D01*
X93709524Y-78382595D02*
X93900000Y-78382595D01*
X93900000Y-78382595D02*
X94014286Y-78420690D01*
X94014286Y-78420690D02*
X94090476Y-78496880D01*
X94090476Y-78496880D02*
X94128571Y-78573071D01*
X94128571Y-78573071D02*
X94166667Y-78725452D01*
X94166667Y-78725452D02*
X94166667Y-78839738D01*
X94166667Y-78839738D02*
X94128571Y-78992119D01*
X94128571Y-78992119D02*
X94090476Y-79068309D01*
X94090476Y-79068309D02*
X94014286Y-79144500D01*
X94014286Y-79144500D02*
X93900000Y-79182595D01*
X93900000Y-79182595D02*
X93709524Y-79182595D01*
X94623809Y-78725452D02*
X94547619Y-78687357D01*
X94547619Y-78687357D02*
X94509524Y-78649261D01*
X94509524Y-78649261D02*
X94471428Y-78573071D01*
X94471428Y-78573071D02*
X94471428Y-78534976D01*
X94471428Y-78534976D02*
X94509524Y-78458785D01*
X94509524Y-78458785D02*
X94547619Y-78420690D01*
X94547619Y-78420690D02*
X94623809Y-78382595D01*
X94623809Y-78382595D02*
X94776190Y-78382595D01*
X94776190Y-78382595D02*
X94852381Y-78420690D01*
X94852381Y-78420690D02*
X94890476Y-78458785D01*
X94890476Y-78458785D02*
X94928571Y-78534976D01*
X94928571Y-78534976D02*
X94928571Y-78573071D01*
X94928571Y-78573071D02*
X94890476Y-78649261D01*
X94890476Y-78649261D02*
X94852381Y-78687357D01*
X94852381Y-78687357D02*
X94776190Y-78725452D01*
X94776190Y-78725452D02*
X94623809Y-78725452D01*
X94623809Y-78725452D02*
X94547619Y-78763547D01*
X94547619Y-78763547D02*
X94509524Y-78801642D01*
X94509524Y-78801642D02*
X94471428Y-78877833D01*
X94471428Y-78877833D02*
X94471428Y-79030214D01*
X94471428Y-79030214D02*
X94509524Y-79106404D01*
X94509524Y-79106404D02*
X94547619Y-79144500D01*
X94547619Y-79144500D02*
X94623809Y-79182595D01*
X94623809Y-79182595D02*
X94776190Y-79182595D01*
X94776190Y-79182595D02*
X94852381Y-79144500D01*
X94852381Y-79144500D02*
X94890476Y-79106404D01*
X94890476Y-79106404D02*
X94928571Y-79030214D01*
X94928571Y-79030214D02*
X94928571Y-78877833D01*
X94928571Y-78877833D02*
X94890476Y-78801642D01*
X94890476Y-78801642D02*
X94852381Y-78763547D01*
X94852381Y-78763547D02*
X94776190Y-78725452D01*
%TO.C,D4*%
X98034524Y-64995095D02*
X98034524Y-64195095D01*
X98034524Y-64195095D02*
X98225000Y-64195095D01*
X98225000Y-64195095D02*
X98339286Y-64233190D01*
X98339286Y-64233190D02*
X98415476Y-64309380D01*
X98415476Y-64309380D02*
X98453571Y-64385571D01*
X98453571Y-64385571D02*
X98491667Y-64537952D01*
X98491667Y-64537952D02*
X98491667Y-64652238D01*
X98491667Y-64652238D02*
X98453571Y-64804619D01*
X98453571Y-64804619D02*
X98415476Y-64880809D01*
X98415476Y-64880809D02*
X98339286Y-64957000D01*
X98339286Y-64957000D02*
X98225000Y-64995095D01*
X98225000Y-64995095D02*
X98034524Y-64995095D01*
X99177381Y-64461761D02*
X99177381Y-64995095D01*
X98986905Y-64157000D02*
X98796428Y-64728428D01*
X98796428Y-64728428D02*
X99291667Y-64728428D01*
%TO.C,D3*%
X111234524Y-84995095D02*
X111234524Y-84195095D01*
X111234524Y-84195095D02*
X111425000Y-84195095D01*
X111425000Y-84195095D02*
X111539286Y-84233190D01*
X111539286Y-84233190D02*
X111615476Y-84309380D01*
X111615476Y-84309380D02*
X111653571Y-84385571D01*
X111653571Y-84385571D02*
X111691667Y-84537952D01*
X111691667Y-84537952D02*
X111691667Y-84652238D01*
X111691667Y-84652238D02*
X111653571Y-84804619D01*
X111653571Y-84804619D02*
X111615476Y-84880809D01*
X111615476Y-84880809D02*
X111539286Y-84957000D01*
X111539286Y-84957000D02*
X111425000Y-84995095D01*
X111425000Y-84995095D02*
X111234524Y-84995095D01*
X111958333Y-84195095D02*
X112453571Y-84195095D01*
X112453571Y-84195095D02*
X112186905Y-84499857D01*
X112186905Y-84499857D02*
X112301190Y-84499857D01*
X112301190Y-84499857D02*
X112377381Y-84537952D01*
X112377381Y-84537952D02*
X112415476Y-84576047D01*
X112415476Y-84576047D02*
X112453571Y-84652238D01*
X112453571Y-84652238D02*
X112453571Y-84842714D01*
X112453571Y-84842714D02*
X112415476Y-84918904D01*
X112415476Y-84918904D02*
X112377381Y-84957000D01*
X112377381Y-84957000D02*
X112301190Y-84995095D01*
X112301190Y-84995095D02*
X112072619Y-84995095D01*
X112072619Y-84995095D02*
X111996428Y-84957000D01*
X111996428Y-84957000D02*
X111958333Y-84918904D01*
%TO.C,D2*%
X68761905Y-91712619D02*
X68761905Y-90712619D01*
X68761905Y-90712619D02*
X69000000Y-90712619D01*
X69000000Y-90712619D02*
X69142857Y-90760238D01*
X69142857Y-90760238D02*
X69238095Y-90855476D01*
X69238095Y-90855476D02*
X69285714Y-90950714D01*
X69285714Y-90950714D02*
X69333333Y-91141190D01*
X69333333Y-91141190D02*
X69333333Y-91284047D01*
X69333333Y-91284047D02*
X69285714Y-91474523D01*
X69285714Y-91474523D02*
X69238095Y-91569761D01*
X69238095Y-91569761D02*
X69142857Y-91665000D01*
X69142857Y-91665000D02*
X69000000Y-91712619D01*
X69000000Y-91712619D02*
X68761905Y-91712619D01*
X69714286Y-90807857D02*
X69761905Y-90760238D01*
X69761905Y-90760238D02*
X69857143Y-90712619D01*
X69857143Y-90712619D02*
X70095238Y-90712619D01*
X70095238Y-90712619D02*
X70190476Y-90760238D01*
X70190476Y-90760238D02*
X70238095Y-90807857D01*
X70238095Y-90807857D02*
X70285714Y-90903095D01*
X70285714Y-90903095D02*
X70285714Y-90998333D01*
X70285714Y-90998333D02*
X70238095Y-91141190D01*
X70238095Y-91141190D02*
X69666667Y-91712619D01*
X69666667Y-91712619D02*
X70285714Y-91712619D01*
%TO.C,C41*%
X98117380Y-88667857D02*
X98165000Y-88715476D01*
X98165000Y-88715476D02*
X98212619Y-88858333D01*
X98212619Y-88858333D02*
X98212619Y-88953571D01*
X98212619Y-88953571D02*
X98165000Y-89096428D01*
X98165000Y-89096428D02*
X98069761Y-89191666D01*
X98069761Y-89191666D02*
X97974523Y-89239285D01*
X97974523Y-89239285D02*
X97784047Y-89286904D01*
X97784047Y-89286904D02*
X97641190Y-89286904D01*
X97641190Y-89286904D02*
X97450714Y-89239285D01*
X97450714Y-89239285D02*
X97355476Y-89191666D01*
X97355476Y-89191666D02*
X97260238Y-89096428D01*
X97260238Y-89096428D02*
X97212619Y-88953571D01*
X97212619Y-88953571D02*
X97212619Y-88858333D01*
X97212619Y-88858333D02*
X97260238Y-88715476D01*
X97260238Y-88715476D02*
X97307857Y-88667857D01*
X97545952Y-87810714D02*
X98212619Y-87810714D01*
X97165000Y-88048809D02*
X97879285Y-88286904D01*
X97879285Y-88286904D02*
X97879285Y-87667857D01*
X98212619Y-86763095D02*
X98212619Y-87334523D01*
X98212619Y-87048809D02*
X97212619Y-87048809D01*
X97212619Y-87048809D02*
X97355476Y-87144047D01*
X97355476Y-87144047D02*
X97450714Y-87239285D01*
X97450714Y-87239285D02*
X97498333Y-87334523D01*
%TO.C,C39*%
X83107142Y-97617380D02*
X83059523Y-97665000D01*
X83059523Y-97665000D02*
X82916666Y-97712619D01*
X82916666Y-97712619D02*
X82821428Y-97712619D01*
X82821428Y-97712619D02*
X82678571Y-97665000D01*
X82678571Y-97665000D02*
X82583333Y-97569761D01*
X82583333Y-97569761D02*
X82535714Y-97474523D01*
X82535714Y-97474523D02*
X82488095Y-97284047D01*
X82488095Y-97284047D02*
X82488095Y-97141190D01*
X82488095Y-97141190D02*
X82535714Y-96950714D01*
X82535714Y-96950714D02*
X82583333Y-96855476D01*
X82583333Y-96855476D02*
X82678571Y-96760238D01*
X82678571Y-96760238D02*
X82821428Y-96712619D01*
X82821428Y-96712619D02*
X82916666Y-96712619D01*
X82916666Y-96712619D02*
X83059523Y-96760238D01*
X83059523Y-96760238D02*
X83107142Y-96807857D01*
X83440476Y-96712619D02*
X84059523Y-96712619D01*
X84059523Y-96712619D02*
X83726190Y-97093571D01*
X83726190Y-97093571D02*
X83869047Y-97093571D01*
X83869047Y-97093571D02*
X83964285Y-97141190D01*
X83964285Y-97141190D02*
X84011904Y-97188809D01*
X84011904Y-97188809D02*
X84059523Y-97284047D01*
X84059523Y-97284047D02*
X84059523Y-97522142D01*
X84059523Y-97522142D02*
X84011904Y-97617380D01*
X84011904Y-97617380D02*
X83964285Y-97665000D01*
X83964285Y-97665000D02*
X83869047Y-97712619D01*
X83869047Y-97712619D02*
X83583333Y-97712619D01*
X83583333Y-97712619D02*
X83488095Y-97665000D01*
X83488095Y-97665000D02*
X83440476Y-97617380D01*
X84535714Y-97712619D02*
X84726190Y-97712619D01*
X84726190Y-97712619D02*
X84821428Y-97665000D01*
X84821428Y-97665000D02*
X84869047Y-97617380D01*
X84869047Y-97617380D02*
X84964285Y-97474523D01*
X84964285Y-97474523D02*
X85011904Y-97284047D01*
X85011904Y-97284047D02*
X85011904Y-96903095D01*
X85011904Y-96903095D02*
X84964285Y-96807857D01*
X84964285Y-96807857D02*
X84916666Y-96760238D01*
X84916666Y-96760238D02*
X84821428Y-96712619D01*
X84821428Y-96712619D02*
X84630952Y-96712619D01*
X84630952Y-96712619D02*
X84535714Y-96760238D01*
X84535714Y-96760238D02*
X84488095Y-96807857D01*
X84488095Y-96807857D02*
X84440476Y-96903095D01*
X84440476Y-96903095D02*
X84440476Y-97141190D01*
X84440476Y-97141190D02*
X84488095Y-97236428D01*
X84488095Y-97236428D02*
X84535714Y-97284047D01*
X84535714Y-97284047D02*
X84630952Y-97331666D01*
X84630952Y-97331666D02*
X84821428Y-97331666D01*
X84821428Y-97331666D02*
X84916666Y-97284047D01*
X84916666Y-97284047D02*
X84964285Y-97236428D01*
X84964285Y-97236428D02*
X85011904Y-97141190D01*
%TO.C,C38*%
X89867380Y-88642857D02*
X89915000Y-88690476D01*
X89915000Y-88690476D02*
X89962619Y-88833333D01*
X89962619Y-88833333D02*
X89962619Y-88928571D01*
X89962619Y-88928571D02*
X89915000Y-89071428D01*
X89915000Y-89071428D02*
X89819761Y-89166666D01*
X89819761Y-89166666D02*
X89724523Y-89214285D01*
X89724523Y-89214285D02*
X89534047Y-89261904D01*
X89534047Y-89261904D02*
X89391190Y-89261904D01*
X89391190Y-89261904D02*
X89200714Y-89214285D01*
X89200714Y-89214285D02*
X89105476Y-89166666D01*
X89105476Y-89166666D02*
X89010238Y-89071428D01*
X89010238Y-89071428D02*
X88962619Y-88928571D01*
X88962619Y-88928571D02*
X88962619Y-88833333D01*
X88962619Y-88833333D02*
X89010238Y-88690476D01*
X89010238Y-88690476D02*
X89057857Y-88642857D01*
X88962619Y-88309523D02*
X88962619Y-87690476D01*
X88962619Y-87690476D02*
X89343571Y-88023809D01*
X89343571Y-88023809D02*
X89343571Y-87880952D01*
X89343571Y-87880952D02*
X89391190Y-87785714D01*
X89391190Y-87785714D02*
X89438809Y-87738095D01*
X89438809Y-87738095D02*
X89534047Y-87690476D01*
X89534047Y-87690476D02*
X89772142Y-87690476D01*
X89772142Y-87690476D02*
X89867380Y-87738095D01*
X89867380Y-87738095D02*
X89915000Y-87785714D01*
X89915000Y-87785714D02*
X89962619Y-87880952D01*
X89962619Y-87880952D02*
X89962619Y-88166666D01*
X89962619Y-88166666D02*
X89915000Y-88261904D01*
X89915000Y-88261904D02*
X89867380Y-88309523D01*
X89391190Y-87119047D02*
X89343571Y-87214285D01*
X89343571Y-87214285D02*
X89295952Y-87261904D01*
X89295952Y-87261904D02*
X89200714Y-87309523D01*
X89200714Y-87309523D02*
X89153095Y-87309523D01*
X89153095Y-87309523D02*
X89057857Y-87261904D01*
X89057857Y-87261904D02*
X89010238Y-87214285D01*
X89010238Y-87214285D02*
X88962619Y-87119047D01*
X88962619Y-87119047D02*
X88962619Y-86928571D01*
X88962619Y-86928571D02*
X89010238Y-86833333D01*
X89010238Y-86833333D02*
X89057857Y-86785714D01*
X89057857Y-86785714D02*
X89153095Y-86738095D01*
X89153095Y-86738095D02*
X89200714Y-86738095D01*
X89200714Y-86738095D02*
X89295952Y-86785714D01*
X89295952Y-86785714D02*
X89343571Y-86833333D01*
X89343571Y-86833333D02*
X89391190Y-86928571D01*
X89391190Y-86928571D02*
X89391190Y-87119047D01*
X89391190Y-87119047D02*
X89438809Y-87214285D01*
X89438809Y-87214285D02*
X89486428Y-87261904D01*
X89486428Y-87261904D02*
X89581666Y-87309523D01*
X89581666Y-87309523D02*
X89772142Y-87309523D01*
X89772142Y-87309523D02*
X89867380Y-87261904D01*
X89867380Y-87261904D02*
X89915000Y-87214285D01*
X89915000Y-87214285D02*
X89962619Y-87119047D01*
X89962619Y-87119047D02*
X89962619Y-86928571D01*
X89962619Y-86928571D02*
X89915000Y-86833333D01*
X89915000Y-86833333D02*
X89867380Y-86785714D01*
X89867380Y-86785714D02*
X89772142Y-86738095D01*
X89772142Y-86738095D02*
X89581666Y-86738095D01*
X89581666Y-86738095D02*
X89486428Y-86785714D01*
X89486428Y-86785714D02*
X89438809Y-86833333D01*
X89438809Y-86833333D02*
X89391190Y-86928571D01*
%TO.C,C37*%
X83107142Y-95867380D02*
X83059523Y-95915000D01*
X83059523Y-95915000D02*
X82916666Y-95962619D01*
X82916666Y-95962619D02*
X82821428Y-95962619D01*
X82821428Y-95962619D02*
X82678571Y-95915000D01*
X82678571Y-95915000D02*
X82583333Y-95819761D01*
X82583333Y-95819761D02*
X82535714Y-95724523D01*
X82535714Y-95724523D02*
X82488095Y-95534047D01*
X82488095Y-95534047D02*
X82488095Y-95391190D01*
X82488095Y-95391190D02*
X82535714Y-95200714D01*
X82535714Y-95200714D02*
X82583333Y-95105476D01*
X82583333Y-95105476D02*
X82678571Y-95010238D01*
X82678571Y-95010238D02*
X82821428Y-94962619D01*
X82821428Y-94962619D02*
X82916666Y-94962619D01*
X82916666Y-94962619D02*
X83059523Y-95010238D01*
X83059523Y-95010238D02*
X83107142Y-95057857D01*
X83440476Y-94962619D02*
X84059523Y-94962619D01*
X84059523Y-94962619D02*
X83726190Y-95343571D01*
X83726190Y-95343571D02*
X83869047Y-95343571D01*
X83869047Y-95343571D02*
X83964285Y-95391190D01*
X83964285Y-95391190D02*
X84011904Y-95438809D01*
X84011904Y-95438809D02*
X84059523Y-95534047D01*
X84059523Y-95534047D02*
X84059523Y-95772142D01*
X84059523Y-95772142D02*
X84011904Y-95867380D01*
X84011904Y-95867380D02*
X83964285Y-95915000D01*
X83964285Y-95915000D02*
X83869047Y-95962619D01*
X83869047Y-95962619D02*
X83583333Y-95962619D01*
X83583333Y-95962619D02*
X83488095Y-95915000D01*
X83488095Y-95915000D02*
X83440476Y-95867380D01*
X84392857Y-94962619D02*
X85059523Y-94962619D01*
X85059523Y-94962619D02*
X84630952Y-95962619D01*
%TO.C,C36*%
X83132142Y-93617380D02*
X83084523Y-93665000D01*
X83084523Y-93665000D02*
X82941666Y-93712619D01*
X82941666Y-93712619D02*
X82846428Y-93712619D01*
X82846428Y-93712619D02*
X82703571Y-93665000D01*
X82703571Y-93665000D02*
X82608333Y-93569761D01*
X82608333Y-93569761D02*
X82560714Y-93474523D01*
X82560714Y-93474523D02*
X82513095Y-93284047D01*
X82513095Y-93284047D02*
X82513095Y-93141190D01*
X82513095Y-93141190D02*
X82560714Y-92950714D01*
X82560714Y-92950714D02*
X82608333Y-92855476D01*
X82608333Y-92855476D02*
X82703571Y-92760238D01*
X82703571Y-92760238D02*
X82846428Y-92712619D01*
X82846428Y-92712619D02*
X82941666Y-92712619D01*
X82941666Y-92712619D02*
X83084523Y-92760238D01*
X83084523Y-92760238D02*
X83132142Y-92807857D01*
X83465476Y-92712619D02*
X84084523Y-92712619D01*
X84084523Y-92712619D02*
X83751190Y-93093571D01*
X83751190Y-93093571D02*
X83894047Y-93093571D01*
X83894047Y-93093571D02*
X83989285Y-93141190D01*
X83989285Y-93141190D02*
X84036904Y-93188809D01*
X84036904Y-93188809D02*
X84084523Y-93284047D01*
X84084523Y-93284047D02*
X84084523Y-93522142D01*
X84084523Y-93522142D02*
X84036904Y-93617380D01*
X84036904Y-93617380D02*
X83989285Y-93665000D01*
X83989285Y-93665000D02*
X83894047Y-93712619D01*
X83894047Y-93712619D02*
X83608333Y-93712619D01*
X83608333Y-93712619D02*
X83513095Y-93665000D01*
X83513095Y-93665000D02*
X83465476Y-93617380D01*
X84941666Y-92712619D02*
X84751190Y-92712619D01*
X84751190Y-92712619D02*
X84655952Y-92760238D01*
X84655952Y-92760238D02*
X84608333Y-92807857D01*
X84608333Y-92807857D02*
X84513095Y-92950714D01*
X84513095Y-92950714D02*
X84465476Y-93141190D01*
X84465476Y-93141190D02*
X84465476Y-93522142D01*
X84465476Y-93522142D02*
X84513095Y-93617380D01*
X84513095Y-93617380D02*
X84560714Y-93665000D01*
X84560714Y-93665000D02*
X84655952Y-93712619D01*
X84655952Y-93712619D02*
X84846428Y-93712619D01*
X84846428Y-93712619D02*
X84941666Y-93665000D01*
X84941666Y-93665000D02*
X84989285Y-93617380D01*
X84989285Y-93617380D02*
X85036904Y-93522142D01*
X85036904Y-93522142D02*
X85036904Y-93284047D01*
X85036904Y-93284047D02*
X84989285Y-93188809D01*
X84989285Y-93188809D02*
X84941666Y-93141190D01*
X84941666Y-93141190D02*
X84846428Y-93093571D01*
X84846428Y-93093571D02*
X84655952Y-93093571D01*
X84655952Y-93093571D02*
X84560714Y-93141190D01*
X84560714Y-93141190D02*
X84513095Y-93188809D01*
X84513095Y-93188809D02*
X84465476Y-93284047D01*
%TO.C,C35*%
X106357142Y-95117380D02*
X106309523Y-95165000D01*
X106309523Y-95165000D02*
X106166666Y-95212619D01*
X106166666Y-95212619D02*
X106071428Y-95212619D01*
X106071428Y-95212619D02*
X105928571Y-95165000D01*
X105928571Y-95165000D02*
X105833333Y-95069761D01*
X105833333Y-95069761D02*
X105785714Y-94974523D01*
X105785714Y-94974523D02*
X105738095Y-94784047D01*
X105738095Y-94784047D02*
X105738095Y-94641190D01*
X105738095Y-94641190D02*
X105785714Y-94450714D01*
X105785714Y-94450714D02*
X105833333Y-94355476D01*
X105833333Y-94355476D02*
X105928571Y-94260238D01*
X105928571Y-94260238D02*
X106071428Y-94212619D01*
X106071428Y-94212619D02*
X106166666Y-94212619D01*
X106166666Y-94212619D02*
X106309523Y-94260238D01*
X106309523Y-94260238D02*
X106357142Y-94307857D01*
X106690476Y-94212619D02*
X107309523Y-94212619D01*
X107309523Y-94212619D02*
X106976190Y-94593571D01*
X106976190Y-94593571D02*
X107119047Y-94593571D01*
X107119047Y-94593571D02*
X107214285Y-94641190D01*
X107214285Y-94641190D02*
X107261904Y-94688809D01*
X107261904Y-94688809D02*
X107309523Y-94784047D01*
X107309523Y-94784047D02*
X107309523Y-95022142D01*
X107309523Y-95022142D02*
X107261904Y-95117380D01*
X107261904Y-95117380D02*
X107214285Y-95165000D01*
X107214285Y-95165000D02*
X107119047Y-95212619D01*
X107119047Y-95212619D02*
X106833333Y-95212619D01*
X106833333Y-95212619D02*
X106738095Y-95165000D01*
X106738095Y-95165000D02*
X106690476Y-95117380D01*
X108214285Y-94212619D02*
X107738095Y-94212619D01*
X107738095Y-94212619D02*
X107690476Y-94688809D01*
X107690476Y-94688809D02*
X107738095Y-94641190D01*
X107738095Y-94641190D02*
X107833333Y-94593571D01*
X107833333Y-94593571D02*
X108071428Y-94593571D01*
X108071428Y-94593571D02*
X108166666Y-94641190D01*
X108166666Y-94641190D02*
X108214285Y-94688809D01*
X108214285Y-94688809D02*
X108261904Y-94784047D01*
X108261904Y-94784047D02*
X108261904Y-95022142D01*
X108261904Y-95022142D02*
X108214285Y-95117380D01*
X108214285Y-95117380D02*
X108166666Y-95165000D01*
X108166666Y-95165000D02*
X108071428Y-95212619D01*
X108071428Y-95212619D02*
X107833333Y-95212619D01*
X107833333Y-95212619D02*
X107738095Y-95165000D01*
X107738095Y-95165000D02*
X107690476Y-95117380D01*
%TO.C,C34*%
X101117380Y-88667857D02*
X101165000Y-88715476D01*
X101165000Y-88715476D02*
X101212619Y-88858333D01*
X101212619Y-88858333D02*
X101212619Y-88953571D01*
X101212619Y-88953571D02*
X101165000Y-89096428D01*
X101165000Y-89096428D02*
X101069761Y-89191666D01*
X101069761Y-89191666D02*
X100974523Y-89239285D01*
X100974523Y-89239285D02*
X100784047Y-89286904D01*
X100784047Y-89286904D02*
X100641190Y-89286904D01*
X100641190Y-89286904D02*
X100450714Y-89239285D01*
X100450714Y-89239285D02*
X100355476Y-89191666D01*
X100355476Y-89191666D02*
X100260238Y-89096428D01*
X100260238Y-89096428D02*
X100212619Y-88953571D01*
X100212619Y-88953571D02*
X100212619Y-88858333D01*
X100212619Y-88858333D02*
X100260238Y-88715476D01*
X100260238Y-88715476D02*
X100307857Y-88667857D01*
X100212619Y-88334523D02*
X100212619Y-87715476D01*
X100212619Y-87715476D02*
X100593571Y-88048809D01*
X100593571Y-88048809D02*
X100593571Y-87905952D01*
X100593571Y-87905952D02*
X100641190Y-87810714D01*
X100641190Y-87810714D02*
X100688809Y-87763095D01*
X100688809Y-87763095D02*
X100784047Y-87715476D01*
X100784047Y-87715476D02*
X101022142Y-87715476D01*
X101022142Y-87715476D02*
X101117380Y-87763095D01*
X101117380Y-87763095D02*
X101165000Y-87810714D01*
X101165000Y-87810714D02*
X101212619Y-87905952D01*
X101212619Y-87905952D02*
X101212619Y-88191666D01*
X101212619Y-88191666D02*
X101165000Y-88286904D01*
X101165000Y-88286904D02*
X101117380Y-88334523D01*
X100545952Y-86858333D02*
X101212619Y-86858333D01*
X100165000Y-87096428D02*
X100879285Y-87334523D01*
X100879285Y-87334523D02*
X100879285Y-86715476D01*
%TO.C,C33*%
X92617380Y-88667857D02*
X92665000Y-88715476D01*
X92665000Y-88715476D02*
X92712619Y-88858333D01*
X92712619Y-88858333D02*
X92712619Y-88953571D01*
X92712619Y-88953571D02*
X92665000Y-89096428D01*
X92665000Y-89096428D02*
X92569761Y-89191666D01*
X92569761Y-89191666D02*
X92474523Y-89239285D01*
X92474523Y-89239285D02*
X92284047Y-89286904D01*
X92284047Y-89286904D02*
X92141190Y-89286904D01*
X92141190Y-89286904D02*
X91950714Y-89239285D01*
X91950714Y-89239285D02*
X91855476Y-89191666D01*
X91855476Y-89191666D02*
X91760238Y-89096428D01*
X91760238Y-89096428D02*
X91712619Y-88953571D01*
X91712619Y-88953571D02*
X91712619Y-88858333D01*
X91712619Y-88858333D02*
X91760238Y-88715476D01*
X91760238Y-88715476D02*
X91807857Y-88667857D01*
X91712619Y-88334523D02*
X91712619Y-87715476D01*
X91712619Y-87715476D02*
X92093571Y-88048809D01*
X92093571Y-88048809D02*
X92093571Y-87905952D01*
X92093571Y-87905952D02*
X92141190Y-87810714D01*
X92141190Y-87810714D02*
X92188809Y-87763095D01*
X92188809Y-87763095D02*
X92284047Y-87715476D01*
X92284047Y-87715476D02*
X92522142Y-87715476D01*
X92522142Y-87715476D02*
X92617380Y-87763095D01*
X92617380Y-87763095D02*
X92665000Y-87810714D01*
X92665000Y-87810714D02*
X92712619Y-87905952D01*
X92712619Y-87905952D02*
X92712619Y-88191666D01*
X92712619Y-88191666D02*
X92665000Y-88286904D01*
X92665000Y-88286904D02*
X92617380Y-88334523D01*
X91712619Y-87382142D02*
X91712619Y-86763095D01*
X91712619Y-86763095D02*
X92093571Y-87096428D01*
X92093571Y-87096428D02*
X92093571Y-86953571D01*
X92093571Y-86953571D02*
X92141190Y-86858333D01*
X92141190Y-86858333D02*
X92188809Y-86810714D01*
X92188809Y-86810714D02*
X92284047Y-86763095D01*
X92284047Y-86763095D02*
X92522142Y-86763095D01*
X92522142Y-86763095D02*
X92617380Y-86810714D01*
X92617380Y-86810714D02*
X92665000Y-86858333D01*
X92665000Y-86858333D02*
X92712619Y-86953571D01*
X92712619Y-86953571D02*
X92712619Y-87239285D01*
X92712619Y-87239285D02*
X92665000Y-87334523D01*
X92665000Y-87334523D02*
X92617380Y-87382142D01*
%TO.C,C32*%
X106357142Y-97617380D02*
X106309523Y-97665000D01*
X106309523Y-97665000D02*
X106166666Y-97712619D01*
X106166666Y-97712619D02*
X106071428Y-97712619D01*
X106071428Y-97712619D02*
X105928571Y-97665000D01*
X105928571Y-97665000D02*
X105833333Y-97569761D01*
X105833333Y-97569761D02*
X105785714Y-97474523D01*
X105785714Y-97474523D02*
X105738095Y-97284047D01*
X105738095Y-97284047D02*
X105738095Y-97141190D01*
X105738095Y-97141190D02*
X105785714Y-96950714D01*
X105785714Y-96950714D02*
X105833333Y-96855476D01*
X105833333Y-96855476D02*
X105928571Y-96760238D01*
X105928571Y-96760238D02*
X106071428Y-96712619D01*
X106071428Y-96712619D02*
X106166666Y-96712619D01*
X106166666Y-96712619D02*
X106309523Y-96760238D01*
X106309523Y-96760238D02*
X106357142Y-96807857D01*
X106690476Y-96712619D02*
X107309523Y-96712619D01*
X107309523Y-96712619D02*
X106976190Y-97093571D01*
X106976190Y-97093571D02*
X107119047Y-97093571D01*
X107119047Y-97093571D02*
X107214285Y-97141190D01*
X107214285Y-97141190D02*
X107261904Y-97188809D01*
X107261904Y-97188809D02*
X107309523Y-97284047D01*
X107309523Y-97284047D02*
X107309523Y-97522142D01*
X107309523Y-97522142D02*
X107261904Y-97617380D01*
X107261904Y-97617380D02*
X107214285Y-97665000D01*
X107214285Y-97665000D02*
X107119047Y-97712619D01*
X107119047Y-97712619D02*
X106833333Y-97712619D01*
X106833333Y-97712619D02*
X106738095Y-97665000D01*
X106738095Y-97665000D02*
X106690476Y-97617380D01*
X107690476Y-96807857D02*
X107738095Y-96760238D01*
X107738095Y-96760238D02*
X107833333Y-96712619D01*
X107833333Y-96712619D02*
X108071428Y-96712619D01*
X108071428Y-96712619D02*
X108166666Y-96760238D01*
X108166666Y-96760238D02*
X108214285Y-96807857D01*
X108214285Y-96807857D02*
X108261904Y-96903095D01*
X108261904Y-96903095D02*
X108261904Y-96998333D01*
X108261904Y-96998333D02*
X108214285Y-97141190D01*
X108214285Y-97141190D02*
X107642857Y-97712619D01*
X107642857Y-97712619D02*
X108261904Y-97712619D01*
%TO.C,C31*%
X95367380Y-88417857D02*
X95415000Y-88465476D01*
X95415000Y-88465476D02*
X95462619Y-88608333D01*
X95462619Y-88608333D02*
X95462619Y-88703571D01*
X95462619Y-88703571D02*
X95415000Y-88846428D01*
X95415000Y-88846428D02*
X95319761Y-88941666D01*
X95319761Y-88941666D02*
X95224523Y-88989285D01*
X95224523Y-88989285D02*
X95034047Y-89036904D01*
X95034047Y-89036904D02*
X94891190Y-89036904D01*
X94891190Y-89036904D02*
X94700714Y-88989285D01*
X94700714Y-88989285D02*
X94605476Y-88941666D01*
X94605476Y-88941666D02*
X94510238Y-88846428D01*
X94510238Y-88846428D02*
X94462619Y-88703571D01*
X94462619Y-88703571D02*
X94462619Y-88608333D01*
X94462619Y-88608333D02*
X94510238Y-88465476D01*
X94510238Y-88465476D02*
X94557857Y-88417857D01*
X94462619Y-88084523D02*
X94462619Y-87465476D01*
X94462619Y-87465476D02*
X94843571Y-87798809D01*
X94843571Y-87798809D02*
X94843571Y-87655952D01*
X94843571Y-87655952D02*
X94891190Y-87560714D01*
X94891190Y-87560714D02*
X94938809Y-87513095D01*
X94938809Y-87513095D02*
X95034047Y-87465476D01*
X95034047Y-87465476D02*
X95272142Y-87465476D01*
X95272142Y-87465476D02*
X95367380Y-87513095D01*
X95367380Y-87513095D02*
X95415000Y-87560714D01*
X95415000Y-87560714D02*
X95462619Y-87655952D01*
X95462619Y-87655952D02*
X95462619Y-87941666D01*
X95462619Y-87941666D02*
X95415000Y-88036904D01*
X95415000Y-88036904D02*
X95367380Y-88084523D01*
X95462619Y-86513095D02*
X95462619Y-87084523D01*
X95462619Y-86798809D02*
X94462619Y-86798809D01*
X94462619Y-86798809D02*
X94605476Y-86894047D01*
X94605476Y-86894047D02*
X94700714Y-86989285D01*
X94700714Y-86989285D02*
X94748333Y-87084523D01*
%TO.C,C30*%
X56893904Y-73664285D02*
X56932000Y-73702381D01*
X56932000Y-73702381D02*
X56970095Y-73816666D01*
X56970095Y-73816666D02*
X56970095Y-73892857D01*
X56970095Y-73892857D02*
X56932000Y-74007143D01*
X56932000Y-74007143D02*
X56855809Y-74083333D01*
X56855809Y-74083333D02*
X56779619Y-74121428D01*
X56779619Y-74121428D02*
X56627238Y-74159524D01*
X56627238Y-74159524D02*
X56512952Y-74159524D01*
X56512952Y-74159524D02*
X56360571Y-74121428D01*
X56360571Y-74121428D02*
X56284380Y-74083333D01*
X56284380Y-74083333D02*
X56208190Y-74007143D01*
X56208190Y-74007143D02*
X56170095Y-73892857D01*
X56170095Y-73892857D02*
X56170095Y-73816666D01*
X56170095Y-73816666D02*
X56208190Y-73702381D01*
X56208190Y-73702381D02*
X56246285Y-73664285D01*
X56170095Y-73397619D02*
X56170095Y-72902381D01*
X56170095Y-72902381D02*
X56474857Y-73169047D01*
X56474857Y-73169047D02*
X56474857Y-73054762D01*
X56474857Y-73054762D02*
X56512952Y-72978571D01*
X56512952Y-72978571D02*
X56551047Y-72940476D01*
X56551047Y-72940476D02*
X56627238Y-72902381D01*
X56627238Y-72902381D02*
X56817714Y-72902381D01*
X56817714Y-72902381D02*
X56893904Y-72940476D01*
X56893904Y-72940476D02*
X56932000Y-72978571D01*
X56932000Y-72978571D02*
X56970095Y-73054762D01*
X56970095Y-73054762D02*
X56970095Y-73283333D01*
X56970095Y-73283333D02*
X56932000Y-73359524D01*
X56932000Y-73359524D02*
X56893904Y-73397619D01*
X56170095Y-72407142D02*
X56170095Y-72330952D01*
X56170095Y-72330952D02*
X56208190Y-72254761D01*
X56208190Y-72254761D02*
X56246285Y-72216666D01*
X56246285Y-72216666D02*
X56322476Y-72178571D01*
X56322476Y-72178571D02*
X56474857Y-72140476D01*
X56474857Y-72140476D02*
X56665333Y-72140476D01*
X56665333Y-72140476D02*
X56817714Y-72178571D01*
X56817714Y-72178571D02*
X56893904Y-72216666D01*
X56893904Y-72216666D02*
X56932000Y-72254761D01*
X56932000Y-72254761D02*
X56970095Y-72330952D01*
X56970095Y-72330952D02*
X56970095Y-72407142D01*
X56970095Y-72407142D02*
X56932000Y-72483333D01*
X56932000Y-72483333D02*
X56893904Y-72521428D01*
X56893904Y-72521428D02*
X56817714Y-72559523D01*
X56817714Y-72559523D02*
X56665333Y-72597619D01*
X56665333Y-72597619D02*
X56474857Y-72597619D01*
X56474857Y-72597619D02*
X56322476Y-72559523D01*
X56322476Y-72559523D02*
X56246285Y-72521428D01*
X56246285Y-72521428D02*
X56208190Y-72483333D01*
X56208190Y-72483333D02*
X56170095Y-72407142D01*
%TO.C,C29*%
X55643904Y-67514285D02*
X55682000Y-67552381D01*
X55682000Y-67552381D02*
X55720095Y-67666666D01*
X55720095Y-67666666D02*
X55720095Y-67742857D01*
X55720095Y-67742857D02*
X55682000Y-67857143D01*
X55682000Y-67857143D02*
X55605809Y-67933333D01*
X55605809Y-67933333D02*
X55529619Y-67971428D01*
X55529619Y-67971428D02*
X55377238Y-68009524D01*
X55377238Y-68009524D02*
X55262952Y-68009524D01*
X55262952Y-68009524D02*
X55110571Y-67971428D01*
X55110571Y-67971428D02*
X55034380Y-67933333D01*
X55034380Y-67933333D02*
X54958190Y-67857143D01*
X54958190Y-67857143D02*
X54920095Y-67742857D01*
X54920095Y-67742857D02*
X54920095Y-67666666D01*
X54920095Y-67666666D02*
X54958190Y-67552381D01*
X54958190Y-67552381D02*
X54996285Y-67514285D01*
X54996285Y-67209524D02*
X54958190Y-67171428D01*
X54958190Y-67171428D02*
X54920095Y-67095238D01*
X54920095Y-67095238D02*
X54920095Y-66904762D01*
X54920095Y-66904762D02*
X54958190Y-66828571D01*
X54958190Y-66828571D02*
X54996285Y-66790476D01*
X54996285Y-66790476D02*
X55072476Y-66752381D01*
X55072476Y-66752381D02*
X55148666Y-66752381D01*
X55148666Y-66752381D02*
X55262952Y-66790476D01*
X55262952Y-66790476D02*
X55720095Y-67247619D01*
X55720095Y-67247619D02*
X55720095Y-66752381D01*
X55720095Y-66371428D02*
X55720095Y-66219047D01*
X55720095Y-66219047D02*
X55682000Y-66142857D01*
X55682000Y-66142857D02*
X55643904Y-66104761D01*
X55643904Y-66104761D02*
X55529619Y-66028571D01*
X55529619Y-66028571D02*
X55377238Y-65990476D01*
X55377238Y-65990476D02*
X55072476Y-65990476D01*
X55072476Y-65990476D02*
X54996285Y-66028571D01*
X54996285Y-66028571D02*
X54958190Y-66066666D01*
X54958190Y-66066666D02*
X54920095Y-66142857D01*
X54920095Y-66142857D02*
X54920095Y-66295238D01*
X54920095Y-66295238D02*
X54958190Y-66371428D01*
X54958190Y-66371428D02*
X54996285Y-66409523D01*
X54996285Y-66409523D02*
X55072476Y-66447619D01*
X55072476Y-66447619D02*
X55262952Y-66447619D01*
X55262952Y-66447619D02*
X55339142Y-66409523D01*
X55339142Y-66409523D02*
X55377238Y-66371428D01*
X55377238Y-66371428D02*
X55415333Y-66295238D01*
X55415333Y-66295238D02*
X55415333Y-66142857D01*
X55415333Y-66142857D02*
X55377238Y-66066666D01*
X55377238Y-66066666D02*
X55339142Y-66028571D01*
X55339142Y-66028571D02*
X55262952Y-65990476D01*
%TO.C,C28*%
X62985714Y-80043904D02*
X62947618Y-80082000D01*
X62947618Y-80082000D02*
X62833333Y-80120095D01*
X62833333Y-80120095D02*
X62757142Y-80120095D01*
X62757142Y-80120095D02*
X62642856Y-80082000D01*
X62642856Y-80082000D02*
X62566666Y-80005809D01*
X62566666Y-80005809D02*
X62528571Y-79929619D01*
X62528571Y-79929619D02*
X62490475Y-79777238D01*
X62490475Y-79777238D02*
X62490475Y-79662952D01*
X62490475Y-79662952D02*
X62528571Y-79510571D01*
X62528571Y-79510571D02*
X62566666Y-79434380D01*
X62566666Y-79434380D02*
X62642856Y-79358190D01*
X62642856Y-79358190D02*
X62757142Y-79320095D01*
X62757142Y-79320095D02*
X62833333Y-79320095D01*
X62833333Y-79320095D02*
X62947618Y-79358190D01*
X62947618Y-79358190D02*
X62985714Y-79396285D01*
X63290475Y-79396285D02*
X63328571Y-79358190D01*
X63328571Y-79358190D02*
X63404761Y-79320095D01*
X63404761Y-79320095D02*
X63595237Y-79320095D01*
X63595237Y-79320095D02*
X63671428Y-79358190D01*
X63671428Y-79358190D02*
X63709523Y-79396285D01*
X63709523Y-79396285D02*
X63747618Y-79472476D01*
X63747618Y-79472476D02*
X63747618Y-79548666D01*
X63747618Y-79548666D02*
X63709523Y-79662952D01*
X63709523Y-79662952D02*
X63252380Y-80120095D01*
X63252380Y-80120095D02*
X63747618Y-80120095D01*
X64204761Y-79662952D02*
X64128571Y-79624857D01*
X64128571Y-79624857D02*
X64090476Y-79586761D01*
X64090476Y-79586761D02*
X64052380Y-79510571D01*
X64052380Y-79510571D02*
X64052380Y-79472476D01*
X64052380Y-79472476D02*
X64090476Y-79396285D01*
X64090476Y-79396285D02*
X64128571Y-79358190D01*
X64128571Y-79358190D02*
X64204761Y-79320095D01*
X64204761Y-79320095D02*
X64357142Y-79320095D01*
X64357142Y-79320095D02*
X64433333Y-79358190D01*
X64433333Y-79358190D02*
X64471428Y-79396285D01*
X64471428Y-79396285D02*
X64509523Y-79472476D01*
X64509523Y-79472476D02*
X64509523Y-79510571D01*
X64509523Y-79510571D02*
X64471428Y-79586761D01*
X64471428Y-79586761D02*
X64433333Y-79624857D01*
X64433333Y-79624857D02*
X64357142Y-79662952D01*
X64357142Y-79662952D02*
X64204761Y-79662952D01*
X64204761Y-79662952D02*
X64128571Y-79701047D01*
X64128571Y-79701047D02*
X64090476Y-79739142D01*
X64090476Y-79739142D02*
X64052380Y-79815333D01*
X64052380Y-79815333D02*
X64052380Y-79967714D01*
X64052380Y-79967714D02*
X64090476Y-80043904D01*
X64090476Y-80043904D02*
X64128571Y-80082000D01*
X64128571Y-80082000D02*
X64204761Y-80120095D01*
X64204761Y-80120095D02*
X64357142Y-80120095D01*
X64357142Y-80120095D02*
X64433333Y-80082000D01*
X64433333Y-80082000D02*
X64471428Y-80043904D01*
X64471428Y-80043904D02*
X64509523Y-79967714D01*
X64509523Y-79967714D02*
X64509523Y-79815333D01*
X64509523Y-79815333D02*
X64471428Y-79739142D01*
X64471428Y-79739142D02*
X64433333Y-79701047D01*
X64433333Y-79701047D02*
X64357142Y-79662952D01*
%TO.C,C27*%
X60735714Y-77043904D02*
X60697618Y-77082000D01*
X60697618Y-77082000D02*
X60583333Y-77120095D01*
X60583333Y-77120095D02*
X60507142Y-77120095D01*
X60507142Y-77120095D02*
X60392856Y-77082000D01*
X60392856Y-77082000D02*
X60316666Y-77005809D01*
X60316666Y-77005809D02*
X60278571Y-76929619D01*
X60278571Y-76929619D02*
X60240475Y-76777238D01*
X60240475Y-76777238D02*
X60240475Y-76662952D01*
X60240475Y-76662952D02*
X60278571Y-76510571D01*
X60278571Y-76510571D02*
X60316666Y-76434380D01*
X60316666Y-76434380D02*
X60392856Y-76358190D01*
X60392856Y-76358190D02*
X60507142Y-76320095D01*
X60507142Y-76320095D02*
X60583333Y-76320095D01*
X60583333Y-76320095D02*
X60697618Y-76358190D01*
X60697618Y-76358190D02*
X60735714Y-76396285D01*
X61040475Y-76396285D02*
X61078571Y-76358190D01*
X61078571Y-76358190D02*
X61154761Y-76320095D01*
X61154761Y-76320095D02*
X61345237Y-76320095D01*
X61345237Y-76320095D02*
X61421428Y-76358190D01*
X61421428Y-76358190D02*
X61459523Y-76396285D01*
X61459523Y-76396285D02*
X61497618Y-76472476D01*
X61497618Y-76472476D02*
X61497618Y-76548666D01*
X61497618Y-76548666D02*
X61459523Y-76662952D01*
X61459523Y-76662952D02*
X61002380Y-77120095D01*
X61002380Y-77120095D02*
X61497618Y-77120095D01*
X61764285Y-76320095D02*
X62297619Y-76320095D01*
X62297619Y-76320095D02*
X61954761Y-77120095D01*
%TO.C,C26*%
X60485714Y-72293904D02*
X60447618Y-72332000D01*
X60447618Y-72332000D02*
X60333333Y-72370095D01*
X60333333Y-72370095D02*
X60257142Y-72370095D01*
X60257142Y-72370095D02*
X60142856Y-72332000D01*
X60142856Y-72332000D02*
X60066666Y-72255809D01*
X60066666Y-72255809D02*
X60028571Y-72179619D01*
X60028571Y-72179619D02*
X59990475Y-72027238D01*
X59990475Y-72027238D02*
X59990475Y-71912952D01*
X59990475Y-71912952D02*
X60028571Y-71760571D01*
X60028571Y-71760571D02*
X60066666Y-71684380D01*
X60066666Y-71684380D02*
X60142856Y-71608190D01*
X60142856Y-71608190D02*
X60257142Y-71570095D01*
X60257142Y-71570095D02*
X60333333Y-71570095D01*
X60333333Y-71570095D02*
X60447618Y-71608190D01*
X60447618Y-71608190D02*
X60485714Y-71646285D01*
X60790475Y-71646285D02*
X60828571Y-71608190D01*
X60828571Y-71608190D02*
X60904761Y-71570095D01*
X60904761Y-71570095D02*
X61095237Y-71570095D01*
X61095237Y-71570095D02*
X61171428Y-71608190D01*
X61171428Y-71608190D02*
X61209523Y-71646285D01*
X61209523Y-71646285D02*
X61247618Y-71722476D01*
X61247618Y-71722476D02*
X61247618Y-71798666D01*
X61247618Y-71798666D02*
X61209523Y-71912952D01*
X61209523Y-71912952D02*
X60752380Y-72370095D01*
X60752380Y-72370095D02*
X61247618Y-72370095D01*
X61933333Y-71570095D02*
X61780952Y-71570095D01*
X61780952Y-71570095D02*
X61704761Y-71608190D01*
X61704761Y-71608190D02*
X61666666Y-71646285D01*
X61666666Y-71646285D02*
X61590476Y-71760571D01*
X61590476Y-71760571D02*
X61552380Y-71912952D01*
X61552380Y-71912952D02*
X61552380Y-72217714D01*
X61552380Y-72217714D02*
X61590476Y-72293904D01*
X61590476Y-72293904D02*
X61628571Y-72332000D01*
X61628571Y-72332000D02*
X61704761Y-72370095D01*
X61704761Y-72370095D02*
X61857142Y-72370095D01*
X61857142Y-72370095D02*
X61933333Y-72332000D01*
X61933333Y-72332000D02*
X61971428Y-72293904D01*
X61971428Y-72293904D02*
X62009523Y-72217714D01*
X62009523Y-72217714D02*
X62009523Y-72027238D01*
X62009523Y-72027238D02*
X61971428Y-71951047D01*
X61971428Y-71951047D02*
X61933333Y-71912952D01*
X61933333Y-71912952D02*
X61857142Y-71874857D01*
X61857142Y-71874857D02*
X61704761Y-71874857D01*
X61704761Y-71874857D02*
X61628571Y-71912952D01*
X61628571Y-71912952D02*
X61590476Y-71951047D01*
X61590476Y-71951047D02*
X61552380Y-72027238D01*
%TO.C,C25*%
X60043904Y-70014285D02*
X60082000Y-70052381D01*
X60082000Y-70052381D02*
X60120095Y-70166666D01*
X60120095Y-70166666D02*
X60120095Y-70242857D01*
X60120095Y-70242857D02*
X60082000Y-70357143D01*
X60082000Y-70357143D02*
X60005809Y-70433333D01*
X60005809Y-70433333D02*
X59929619Y-70471428D01*
X59929619Y-70471428D02*
X59777238Y-70509524D01*
X59777238Y-70509524D02*
X59662952Y-70509524D01*
X59662952Y-70509524D02*
X59510571Y-70471428D01*
X59510571Y-70471428D02*
X59434380Y-70433333D01*
X59434380Y-70433333D02*
X59358190Y-70357143D01*
X59358190Y-70357143D02*
X59320095Y-70242857D01*
X59320095Y-70242857D02*
X59320095Y-70166666D01*
X59320095Y-70166666D02*
X59358190Y-70052381D01*
X59358190Y-70052381D02*
X59396285Y-70014285D01*
X59396285Y-69709524D02*
X59358190Y-69671428D01*
X59358190Y-69671428D02*
X59320095Y-69595238D01*
X59320095Y-69595238D02*
X59320095Y-69404762D01*
X59320095Y-69404762D02*
X59358190Y-69328571D01*
X59358190Y-69328571D02*
X59396285Y-69290476D01*
X59396285Y-69290476D02*
X59472476Y-69252381D01*
X59472476Y-69252381D02*
X59548666Y-69252381D01*
X59548666Y-69252381D02*
X59662952Y-69290476D01*
X59662952Y-69290476D02*
X60120095Y-69747619D01*
X60120095Y-69747619D02*
X60120095Y-69252381D01*
X59320095Y-68528571D02*
X59320095Y-68909523D01*
X59320095Y-68909523D02*
X59701047Y-68947619D01*
X59701047Y-68947619D02*
X59662952Y-68909523D01*
X59662952Y-68909523D02*
X59624857Y-68833333D01*
X59624857Y-68833333D02*
X59624857Y-68642857D01*
X59624857Y-68642857D02*
X59662952Y-68566666D01*
X59662952Y-68566666D02*
X59701047Y-68528571D01*
X59701047Y-68528571D02*
X59777238Y-68490476D01*
X59777238Y-68490476D02*
X59967714Y-68490476D01*
X59967714Y-68490476D02*
X60043904Y-68528571D01*
X60043904Y-68528571D02*
X60082000Y-68566666D01*
X60082000Y-68566666D02*
X60120095Y-68642857D01*
X60120095Y-68642857D02*
X60120095Y-68833333D01*
X60120095Y-68833333D02*
X60082000Y-68909523D01*
X60082000Y-68909523D02*
X60043904Y-68947619D01*
%TO.C,C24*%
X60985714Y-60543904D02*
X60947618Y-60582000D01*
X60947618Y-60582000D02*
X60833333Y-60620095D01*
X60833333Y-60620095D02*
X60757142Y-60620095D01*
X60757142Y-60620095D02*
X60642856Y-60582000D01*
X60642856Y-60582000D02*
X60566666Y-60505809D01*
X60566666Y-60505809D02*
X60528571Y-60429619D01*
X60528571Y-60429619D02*
X60490475Y-60277238D01*
X60490475Y-60277238D02*
X60490475Y-60162952D01*
X60490475Y-60162952D02*
X60528571Y-60010571D01*
X60528571Y-60010571D02*
X60566666Y-59934380D01*
X60566666Y-59934380D02*
X60642856Y-59858190D01*
X60642856Y-59858190D02*
X60757142Y-59820095D01*
X60757142Y-59820095D02*
X60833333Y-59820095D01*
X60833333Y-59820095D02*
X60947618Y-59858190D01*
X60947618Y-59858190D02*
X60985714Y-59896285D01*
X61290475Y-59896285D02*
X61328571Y-59858190D01*
X61328571Y-59858190D02*
X61404761Y-59820095D01*
X61404761Y-59820095D02*
X61595237Y-59820095D01*
X61595237Y-59820095D02*
X61671428Y-59858190D01*
X61671428Y-59858190D02*
X61709523Y-59896285D01*
X61709523Y-59896285D02*
X61747618Y-59972476D01*
X61747618Y-59972476D02*
X61747618Y-60048666D01*
X61747618Y-60048666D02*
X61709523Y-60162952D01*
X61709523Y-60162952D02*
X61252380Y-60620095D01*
X61252380Y-60620095D02*
X61747618Y-60620095D01*
X62433333Y-60086761D02*
X62433333Y-60620095D01*
X62242857Y-59782000D02*
X62052380Y-60353428D01*
X62052380Y-60353428D02*
X62547619Y-60353428D01*
%TO.C,C23*%
X76867380Y-66392857D02*
X76915000Y-66440476D01*
X76915000Y-66440476D02*
X76962619Y-66583333D01*
X76962619Y-66583333D02*
X76962619Y-66678571D01*
X76962619Y-66678571D02*
X76915000Y-66821428D01*
X76915000Y-66821428D02*
X76819761Y-66916666D01*
X76819761Y-66916666D02*
X76724523Y-66964285D01*
X76724523Y-66964285D02*
X76534047Y-67011904D01*
X76534047Y-67011904D02*
X76391190Y-67011904D01*
X76391190Y-67011904D02*
X76200714Y-66964285D01*
X76200714Y-66964285D02*
X76105476Y-66916666D01*
X76105476Y-66916666D02*
X76010238Y-66821428D01*
X76010238Y-66821428D02*
X75962619Y-66678571D01*
X75962619Y-66678571D02*
X75962619Y-66583333D01*
X75962619Y-66583333D02*
X76010238Y-66440476D01*
X76010238Y-66440476D02*
X76057857Y-66392857D01*
X76057857Y-66011904D02*
X76010238Y-65964285D01*
X76010238Y-65964285D02*
X75962619Y-65869047D01*
X75962619Y-65869047D02*
X75962619Y-65630952D01*
X75962619Y-65630952D02*
X76010238Y-65535714D01*
X76010238Y-65535714D02*
X76057857Y-65488095D01*
X76057857Y-65488095D02*
X76153095Y-65440476D01*
X76153095Y-65440476D02*
X76248333Y-65440476D01*
X76248333Y-65440476D02*
X76391190Y-65488095D01*
X76391190Y-65488095D02*
X76962619Y-66059523D01*
X76962619Y-66059523D02*
X76962619Y-65440476D01*
X75962619Y-65107142D02*
X75962619Y-64488095D01*
X75962619Y-64488095D02*
X76343571Y-64821428D01*
X76343571Y-64821428D02*
X76343571Y-64678571D01*
X76343571Y-64678571D02*
X76391190Y-64583333D01*
X76391190Y-64583333D02*
X76438809Y-64535714D01*
X76438809Y-64535714D02*
X76534047Y-64488095D01*
X76534047Y-64488095D02*
X76772142Y-64488095D01*
X76772142Y-64488095D02*
X76867380Y-64535714D01*
X76867380Y-64535714D02*
X76915000Y-64583333D01*
X76915000Y-64583333D02*
X76962619Y-64678571D01*
X76962619Y-64678571D02*
X76962619Y-64964285D01*
X76962619Y-64964285D02*
X76915000Y-65059523D01*
X76915000Y-65059523D02*
X76867380Y-65107142D01*
%TO.C,C22*%
X64735714Y-60543904D02*
X64697618Y-60582000D01*
X64697618Y-60582000D02*
X64583333Y-60620095D01*
X64583333Y-60620095D02*
X64507142Y-60620095D01*
X64507142Y-60620095D02*
X64392856Y-60582000D01*
X64392856Y-60582000D02*
X64316666Y-60505809D01*
X64316666Y-60505809D02*
X64278571Y-60429619D01*
X64278571Y-60429619D02*
X64240475Y-60277238D01*
X64240475Y-60277238D02*
X64240475Y-60162952D01*
X64240475Y-60162952D02*
X64278571Y-60010571D01*
X64278571Y-60010571D02*
X64316666Y-59934380D01*
X64316666Y-59934380D02*
X64392856Y-59858190D01*
X64392856Y-59858190D02*
X64507142Y-59820095D01*
X64507142Y-59820095D02*
X64583333Y-59820095D01*
X64583333Y-59820095D02*
X64697618Y-59858190D01*
X64697618Y-59858190D02*
X64735714Y-59896285D01*
X65040475Y-59896285D02*
X65078571Y-59858190D01*
X65078571Y-59858190D02*
X65154761Y-59820095D01*
X65154761Y-59820095D02*
X65345237Y-59820095D01*
X65345237Y-59820095D02*
X65421428Y-59858190D01*
X65421428Y-59858190D02*
X65459523Y-59896285D01*
X65459523Y-59896285D02*
X65497618Y-59972476D01*
X65497618Y-59972476D02*
X65497618Y-60048666D01*
X65497618Y-60048666D02*
X65459523Y-60162952D01*
X65459523Y-60162952D02*
X65002380Y-60620095D01*
X65002380Y-60620095D02*
X65497618Y-60620095D01*
X65802380Y-59896285D02*
X65840476Y-59858190D01*
X65840476Y-59858190D02*
X65916666Y-59820095D01*
X65916666Y-59820095D02*
X66107142Y-59820095D01*
X66107142Y-59820095D02*
X66183333Y-59858190D01*
X66183333Y-59858190D02*
X66221428Y-59896285D01*
X66221428Y-59896285D02*
X66259523Y-59972476D01*
X66259523Y-59972476D02*
X66259523Y-60048666D01*
X66259523Y-60048666D02*
X66221428Y-60162952D01*
X66221428Y-60162952D02*
X65764285Y-60620095D01*
X65764285Y-60620095D02*
X66259523Y-60620095D01*
%TO.C,C21*%
X70107142Y-77117380D02*
X70059523Y-77165000D01*
X70059523Y-77165000D02*
X69916666Y-77212619D01*
X69916666Y-77212619D02*
X69821428Y-77212619D01*
X69821428Y-77212619D02*
X69678571Y-77165000D01*
X69678571Y-77165000D02*
X69583333Y-77069761D01*
X69583333Y-77069761D02*
X69535714Y-76974523D01*
X69535714Y-76974523D02*
X69488095Y-76784047D01*
X69488095Y-76784047D02*
X69488095Y-76641190D01*
X69488095Y-76641190D02*
X69535714Y-76450714D01*
X69535714Y-76450714D02*
X69583333Y-76355476D01*
X69583333Y-76355476D02*
X69678571Y-76260238D01*
X69678571Y-76260238D02*
X69821428Y-76212619D01*
X69821428Y-76212619D02*
X69916666Y-76212619D01*
X69916666Y-76212619D02*
X70059523Y-76260238D01*
X70059523Y-76260238D02*
X70107142Y-76307857D01*
X70488095Y-76307857D02*
X70535714Y-76260238D01*
X70535714Y-76260238D02*
X70630952Y-76212619D01*
X70630952Y-76212619D02*
X70869047Y-76212619D01*
X70869047Y-76212619D02*
X70964285Y-76260238D01*
X70964285Y-76260238D02*
X71011904Y-76307857D01*
X71011904Y-76307857D02*
X71059523Y-76403095D01*
X71059523Y-76403095D02*
X71059523Y-76498333D01*
X71059523Y-76498333D02*
X71011904Y-76641190D01*
X71011904Y-76641190D02*
X70440476Y-77212619D01*
X70440476Y-77212619D02*
X71059523Y-77212619D01*
X72011904Y-77212619D02*
X71440476Y-77212619D01*
X71726190Y-77212619D02*
X71726190Y-76212619D01*
X71726190Y-76212619D02*
X71630952Y-76355476D01*
X71630952Y-76355476D02*
X71535714Y-76450714D01*
X71535714Y-76450714D02*
X71440476Y-76498333D01*
%TO.C,C20*%
X60043904Y-65014285D02*
X60082000Y-65052381D01*
X60082000Y-65052381D02*
X60120095Y-65166666D01*
X60120095Y-65166666D02*
X60120095Y-65242857D01*
X60120095Y-65242857D02*
X60082000Y-65357143D01*
X60082000Y-65357143D02*
X60005809Y-65433333D01*
X60005809Y-65433333D02*
X59929619Y-65471428D01*
X59929619Y-65471428D02*
X59777238Y-65509524D01*
X59777238Y-65509524D02*
X59662952Y-65509524D01*
X59662952Y-65509524D02*
X59510571Y-65471428D01*
X59510571Y-65471428D02*
X59434380Y-65433333D01*
X59434380Y-65433333D02*
X59358190Y-65357143D01*
X59358190Y-65357143D02*
X59320095Y-65242857D01*
X59320095Y-65242857D02*
X59320095Y-65166666D01*
X59320095Y-65166666D02*
X59358190Y-65052381D01*
X59358190Y-65052381D02*
X59396285Y-65014285D01*
X59396285Y-64709524D02*
X59358190Y-64671428D01*
X59358190Y-64671428D02*
X59320095Y-64595238D01*
X59320095Y-64595238D02*
X59320095Y-64404762D01*
X59320095Y-64404762D02*
X59358190Y-64328571D01*
X59358190Y-64328571D02*
X59396285Y-64290476D01*
X59396285Y-64290476D02*
X59472476Y-64252381D01*
X59472476Y-64252381D02*
X59548666Y-64252381D01*
X59548666Y-64252381D02*
X59662952Y-64290476D01*
X59662952Y-64290476D02*
X60120095Y-64747619D01*
X60120095Y-64747619D02*
X60120095Y-64252381D01*
X59320095Y-63757142D02*
X59320095Y-63680952D01*
X59320095Y-63680952D02*
X59358190Y-63604761D01*
X59358190Y-63604761D02*
X59396285Y-63566666D01*
X59396285Y-63566666D02*
X59472476Y-63528571D01*
X59472476Y-63528571D02*
X59624857Y-63490476D01*
X59624857Y-63490476D02*
X59815333Y-63490476D01*
X59815333Y-63490476D02*
X59967714Y-63528571D01*
X59967714Y-63528571D02*
X60043904Y-63566666D01*
X60043904Y-63566666D02*
X60082000Y-63604761D01*
X60082000Y-63604761D02*
X60120095Y-63680952D01*
X60120095Y-63680952D02*
X60120095Y-63757142D01*
X60120095Y-63757142D02*
X60082000Y-63833333D01*
X60082000Y-63833333D02*
X60043904Y-63871428D01*
X60043904Y-63871428D02*
X59967714Y-63909523D01*
X59967714Y-63909523D02*
X59815333Y-63947619D01*
X59815333Y-63947619D02*
X59624857Y-63947619D01*
X59624857Y-63947619D02*
X59472476Y-63909523D01*
X59472476Y-63909523D02*
X59396285Y-63871428D01*
X59396285Y-63871428D02*
X59358190Y-63833333D01*
X59358190Y-63833333D02*
X59320095Y-63757142D01*
%TO.C,C18*%
X91910714Y-64918904D02*
X91872618Y-64957000D01*
X91872618Y-64957000D02*
X91758333Y-64995095D01*
X91758333Y-64995095D02*
X91682142Y-64995095D01*
X91682142Y-64995095D02*
X91567856Y-64957000D01*
X91567856Y-64957000D02*
X91491666Y-64880809D01*
X91491666Y-64880809D02*
X91453571Y-64804619D01*
X91453571Y-64804619D02*
X91415475Y-64652238D01*
X91415475Y-64652238D02*
X91415475Y-64537952D01*
X91415475Y-64537952D02*
X91453571Y-64385571D01*
X91453571Y-64385571D02*
X91491666Y-64309380D01*
X91491666Y-64309380D02*
X91567856Y-64233190D01*
X91567856Y-64233190D02*
X91682142Y-64195095D01*
X91682142Y-64195095D02*
X91758333Y-64195095D01*
X91758333Y-64195095D02*
X91872618Y-64233190D01*
X91872618Y-64233190D02*
X91910714Y-64271285D01*
X92672618Y-64995095D02*
X92215475Y-64995095D01*
X92444047Y-64995095D02*
X92444047Y-64195095D01*
X92444047Y-64195095D02*
X92367856Y-64309380D01*
X92367856Y-64309380D02*
X92291666Y-64385571D01*
X92291666Y-64385571D02*
X92215475Y-64423666D01*
X93129761Y-64537952D02*
X93053571Y-64499857D01*
X93053571Y-64499857D02*
X93015476Y-64461761D01*
X93015476Y-64461761D02*
X92977380Y-64385571D01*
X92977380Y-64385571D02*
X92977380Y-64347476D01*
X92977380Y-64347476D02*
X93015476Y-64271285D01*
X93015476Y-64271285D02*
X93053571Y-64233190D01*
X93053571Y-64233190D02*
X93129761Y-64195095D01*
X93129761Y-64195095D02*
X93282142Y-64195095D01*
X93282142Y-64195095D02*
X93358333Y-64233190D01*
X93358333Y-64233190D02*
X93396428Y-64271285D01*
X93396428Y-64271285D02*
X93434523Y-64347476D01*
X93434523Y-64347476D02*
X93434523Y-64385571D01*
X93434523Y-64385571D02*
X93396428Y-64461761D01*
X93396428Y-64461761D02*
X93358333Y-64499857D01*
X93358333Y-64499857D02*
X93282142Y-64537952D01*
X93282142Y-64537952D02*
X93129761Y-64537952D01*
X93129761Y-64537952D02*
X93053571Y-64576047D01*
X93053571Y-64576047D02*
X93015476Y-64614142D01*
X93015476Y-64614142D02*
X92977380Y-64690333D01*
X92977380Y-64690333D02*
X92977380Y-64842714D01*
X92977380Y-64842714D02*
X93015476Y-64918904D01*
X93015476Y-64918904D02*
X93053571Y-64957000D01*
X93053571Y-64957000D02*
X93129761Y-64995095D01*
X93129761Y-64995095D02*
X93282142Y-64995095D01*
X93282142Y-64995095D02*
X93358333Y-64957000D01*
X93358333Y-64957000D02*
X93396428Y-64918904D01*
X93396428Y-64918904D02*
X93434523Y-64842714D01*
X93434523Y-64842714D02*
X93434523Y-64690333D01*
X93434523Y-64690333D02*
X93396428Y-64614142D01*
X93396428Y-64614142D02*
X93358333Y-64576047D01*
X93358333Y-64576047D02*
X93282142Y-64537952D01*
%TO.C,C17*%
X107610714Y-61443904D02*
X107572618Y-61482000D01*
X107572618Y-61482000D02*
X107458333Y-61520095D01*
X107458333Y-61520095D02*
X107382142Y-61520095D01*
X107382142Y-61520095D02*
X107267856Y-61482000D01*
X107267856Y-61482000D02*
X107191666Y-61405809D01*
X107191666Y-61405809D02*
X107153571Y-61329619D01*
X107153571Y-61329619D02*
X107115475Y-61177238D01*
X107115475Y-61177238D02*
X107115475Y-61062952D01*
X107115475Y-61062952D02*
X107153571Y-60910571D01*
X107153571Y-60910571D02*
X107191666Y-60834380D01*
X107191666Y-60834380D02*
X107267856Y-60758190D01*
X107267856Y-60758190D02*
X107382142Y-60720095D01*
X107382142Y-60720095D02*
X107458333Y-60720095D01*
X107458333Y-60720095D02*
X107572618Y-60758190D01*
X107572618Y-60758190D02*
X107610714Y-60796285D01*
X108372618Y-61520095D02*
X107915475Y-61520095D01*
X108144047Y-61520095D02*
X108144047Y-60720095D01*
X108144047Y-60720095D02*
X108067856Y-60834380D01*
X108067856Y-60834380D02*
X107991666Y-60910571D01*
X107991666Y-60910571D02*
X107915475Y-60948666D01*
X108639285Y-60720095D02*
X109172619Y-60720095D01*
X109172619Y-60720095D02*
X108829761Y-61520095D01*
%TO.C,C14*%
X112610714Y-61418904D02*
X112572618Y-61457000D01*
X112572618Y-61457000D02*
X112458333Y-61495095D01*
X112458333Y-61495095D02*
X112382142Y-61495095D01*
X112382142Y-61495095D02*
X112267856Y-61457000D01*
X112267856Y-61457000D02*
X112191666Y-61380809D01*
X112191666Y-61380809D02*
X112153571Y-61304619D01*
X112153571Y-61304619D02*
X112115475Y-61152238D01*
X112115475Y-61152238D02*
X112115475Y-61037952D01*
X112115475Y-61037952D02*
X112153571Y-60885571D01*
X112153571Y-60885571D02*
X112191666Y-60809380D01*
X112191666Y-60809380D02*
X112267856Y-60733190D01*
X112267856Y-60733190D02*
X112382142Y-60695095D01*
X112382142Y-60695095D02*
X112458333Y-60695095D01*
X112458333Y-60695095D02*
X112572618Y-60733190D01*
X112572618Y-60733190D02*
X112610714Y-60771285D01*
X113372618Y-61495095D02*
X112915475Y-61495095D01*
X113144047Y-61495095D02*
X113144047Y-60695095D01*
X113144047Y-60695095D02*
X113067856Y-60809380D01*
X113067856Y-60809380D02*
X112991666Y-60885571D01*
X112991666Y-60885571D02*
X112915475Y-60923666D01*
X114058333Y-60961761D02*
X114058333Y-61495095D01*
X113867857Y-60657000D02*
X113677380Y-61228428D01*
X113677380Y-61228428D02*
X114172619Y-61228428D01*
%TO.C,C13*%
X118560714Y-74918904D02*
X118522618Y-74957000D01*
X118522618Y-74957000D02*
X118408333Y-74995095D01*
X118408333Y-74995095D02*
X118332142Y-74995095D01*
X118332142Y-74995095D02*
X118217856Y-74957000D01*
X118217856Y-74957000D02*
X118141666Y-74880809D01*
X118141666Y-74880809D02*
X118103571Y-74804619D01*
X118103571Y-74804619D02*
X118065475Y-74652238D01*
X118065475Y-74652238D02*
X118065475Y-74537952D01*
X118065475Y-74537952D02*
X118103571Y-74385571D01*
X118103571Y-74385571D02*
X118141666Y-74309380D01*
X118141666Y-74309380D02*
X118217856Y-74233190D01*
X118217856Y-74233190D02*
X118332142Y-74195095D01*
X118332142Y-74195095D02*
X118408333Y-74195095D01*
X118408333Y-74195095D02*
X118522618Y-74233190D01*
X118522618Y-74233190D02*
X118560714Y-74271285D01*
X119322618Y-74995095D02*
X118865475Y-74995095D01*
X119094047Y-74995095D02*
X119094047Y-74195095D01*
X119094047Y-74195095D02*
X119017856Y-74309380D01*
X119017856Y-74309380D02*
X118941666Y-74385571D01*
X118941666Y-74385571D02*
X118865475Y-74423666D01*
X119589285Y-74195095D02*
X120084523Y-74195095D01*
X120084523Y-74195095D02*
X119817857Y-74499857D01*
X119817857Y-74499857D02*
X119932142Y-74499857D01*
X119932142Y-74499857D02*
X120008333Y-74537952D01*
X120008333Y-74537952D02*
X120046428Y-74576047D01*
X120046428Y-74576047D02*
X120084523Y-74652238D01*
X120084523Y-74652238D02*
X120084523Y-74842714D01*
X120084523Y-74842714D02*
X120046428Y-74918904D01*
X120046428Y-74918904D02*
X120008333Y-74957000D01*
X120008333Y-74957000D02*
X119932142Y-74995095D01*
X119932142Y-74995095D02*
X119703571Y-74995095D01*
X119703571Y-74995095D02*
X119627380Y-74957000D01*
X119627380Y-74957000D02*
X119589285Y-74918904D01*
%TO.C,C12*%
X121360714Y-68668904D02*
X121322618Y-68707000D01*
X121322618Y-68707000D02*
X121208333Y-68745095D01*
X121208333Y-68745095D02*
X121132142Y-68745095D01*
X121132142Y-68745095D02*
X121017856Y-68707000D01*
X121017856Y-68707000D02*
X120941666Y-68630809D01*
X120941666Y-68630809D02*
X120903571Y-68554619D01*
X120903571Y-68554619D02*
X120865475Y-68402238D01*
X120865475Y-68402238D02*
X120865475Y-68287952D01*
X120865475Y-68287952D02*
X120903571Y-68135571D01*
X120903571Y-68135571D02*
X120941666Y-68059380D01*
X120941666Y-68059380D02*
X121017856Y-67983190D01*
X121017856Y-67983190D02*
X121132142Y-67945095D01*
X121132142Y-67945095D02*
X121208333Y-67945095D01*
X121208333Y-67945095D02*
X121322618Y-67983190D01*
X121322618Y-67983190D02*
X121360714Y-68021285D01*
X122122618Y-68745095D02*
X121665475Y-68745095D01*
X121894047Y-68745095D02*
X121894047Y-67945095D01*
X121894047Y-67945095D02*
X121817856Y-68059380D01*
X121817856Y-68059380D02*
X121741666Y-68135571D01*
X121741666Y-68135571D02*
X121665475Y-68173666D01*
X122427380Y-68021285D02*
X122465476Y-67983190D01*
X122465476Y-67983190D02*
X122541666Y-67945095D01*
X122541666Y-67945095D02*
X122732142Y-67945095D01*
X122732142Y-67945095D02*
X122808333Y-67983190D01*
X122808333Y-67983190D02*
X122846428Y-68021285D01*
X122846428Y-68021285D02*
X122884523Y-68097476D01*
X122884523Y-68097476D02*
X122884523Y-68173666D01*
X122884523Y-68173666D02*
X122846428Y-68287952D01*
X122846428Y-68287952D02*
X122389285Y-68745095D01*
X122389285Y-68745095D02*
X122884523Y-68745095D01*
%TO.C,C11*%
X125310714Y-72668904D02*
X125272618Y-72707000D01*
X125272618Y-72707000D02*
X125158333Y-72745095D01*
X125158333Y-72745095D02*
X125082142Y-72745095D01*
X125082142Y-72745095D02*
X124967856Y-72707000D01*
X124967856Y-72707000D02*
X124891666Y-72630809D01*
X124891666Y-72630809D02*
X124853571Y-72554619D01*
X124853571Y-72554619D02*
X124815475Y-72402238D01*
X124815475Y-72402238D02*
X124815475Y-72287952D01*
X124815475Y-72287952D02*
X124853571Y-72135571D01*
X124853571Y-72135571D02*
X124891666Y-72059380D01*
X124891666Y-72059380D02*
X124967856Y-71983190D01*
X124967856Y-71983190D02*
X125082142Y-71945095D01*
X125082142Y-71945095D02*
X125158333Y-71945095D01*
X125158333Y-71945095D02*
X125272618Y-71983190D01*
X125272618Y-71983190D02*
X125310714Y-72021285D01*
X126072618Y-72745095D02*
X125615475Y-72745095D01*
X125844047Y-72745095D02*
X125844047Y-71945095D01*
X125844047Y-71945095D02*
X125767856Y-72059380D01*
X125767856Y-72059380D02*
X125691666Y-72135571D01*
X125691666Y-72135571D02*
X125615475Y-72173666D01*
X126834523Y-72745095D02*
X126377380Y-72745095D01*
X126605952Y-72745095D02*
X126605952Y-71945095D01*
X126605952Y-71945095D02*
X126529761Y-72059380D01*
X126529761Y-72059380D02*
X126453571Y-72135571D01*
X126453571Y-72135571D02*
X126377380Y-72173666D01*
%TO.C,C10*%
X125360714Y-70418904D02*
X125322618Y-70457000D01*
X125322618Y-70457000D02*
X125208333Y-70495095D01*
X125208333Y-70495095D02*
X125132142Y-70495095D01*
X125132142Y-70495095D02*
X125017856Y-70457000D01*
X125017856Y-70457000D02*
X124941666Y-70380809D01*
X124941666Y-70380809D02*
X124903571Y-70304619D01*
X124903571Y-70304619D02*
X124865475Y-70152238D01*
X124865475Y-70152238D02*
X124865475Y-70037952D01*
X124865475Y-70037952D02*
X124903571Y-69885571D01*
X124903571Y-69885571D02*
X124941666Y-69809380D01*
X124941666Y-69809380D02*
X125017856Y-69733190D01*
X125017856Y-69733190D02*
X125132142Y-69695095D01*
X125132142Y-69695095D02*
X125208333Y-69695095D01*
X125208333Y-69695095D02*
X125322618Y-69733190D01*
X125322618Y-69733190D02*
X125360714Y-69771285D01*
X126122618Y-70495095D02*
X125665475Y-70495095D01*
X125894047Y-70495095D02*
X125894047Y-69695095D01*
X125894047Y-69695095D02*
X125817856Y-69809380D01*
X125817856Y-69809380D02*
X125741666Y-69885571D01*
X125741666Y-69885571D02*
X125665475Y-69923666D01*
X126617857Y-69695095D02*
X126694047Y-69695095D01*
X126694047Y-69695095D02*
X126770238Y-69733190D01*
X126770238Y-69733190D02*
X126808333Y-69771285D01*
X126808333Y-69771285D02*
X126846428Y-69847476D01*
X126846428Y-69847476D02*
X126884523Y-69999857D01*
X126884523Y-69999857D02*
X126884523Y-70190333D01*
X126884523Y-70190333D02*
X126846428Y-70342714D01*
X126846428Y-70342714D02*
X126808333Y-70418904D01*
X126808333Y-70418904D02*
X126770238Y-70457000D01*
X126770238Y-70457000D02*
X126694047Y-70495095D01*
X126694047Y-70495095D02*
X126617857Y-70495095D01*
X126617857Y-70495095D02*
X126541666Y-70457000D01*
X126541666Y-70457000D02*
X126503571Y-70418904D01*
X126503571Y-70418904D02*
X126465476Y-70342714D01*
X126465476Y-70342714D02*
X126427380Y-70190333D01*
X126427380Y-70190333D02*
X126427380Y-69999857D01*
X126427380Y-69999857D02*
X126465476Y-69847476D01*
X126465476Y-69847476D02*
X126503571Y-69771285D01*
X126503571Y-69771285D02*
X126541666Y-69733190D01*
X126541666Y-69733190D02*
X126617857Y-69695095D01*
%TO.C,C9*%
X101241667Y-77106404D02*
X101203571Y-77144500D01*
X101203571Y-77144500D02*
X101089286Y-77182595D01*
X101089286Y-77182595D02*
X101013095Y-77182595D01*
X101013095Y-77182595D02*
X100898809Y-77144500D01*
X100898809Y-77144500D02*
X100822619Y-77068309D01*
X100822619Y-77068309D02*
X100784524Y-76992119D01*
X100784524Y-76992119D02*
X100746428Y-76839738D01*
X100746428Y-76839738D02*
X100746428Y-76725452D01*
X100746428Y-76725452D02*
X100784524Y-76573071D01*
X100784524Y-76573071D02*
X100822619Y-76496880D01*
X100822619Y-76496880D02*
X100898809Y-76420690D01*
X100898809Y-76420690D02*
X101013095Y-76382595D01*
X101013095Y-76382595D02*
X101089286Y-76382595D01*
X101089286Y-76382595D02*
X101203571Y-76420690D01*
X101203571Y-76420690D02*
X101241667Y-76458785D01*
X101622619Y-77182595D02*
X101775000Y-77182595D01*
X101775000Y-77182595D02*
X101851190Y-77144500D01*
X101851190Y-77144500D02*
X101889286Y-77106404D01*
X101889286Y-77106404D02*
X101965476Y-76992119D01*
X101965476Y-76992119D02*
X102003571Y-76839738D01*
X102003571Y-76839738D02*
X102003571Y-76534976D01*
X102003571Y-76534976D02*
X101965476Y-76458785D01*
X101965476Y-76458785D02*
X101927381Y-76420690D01*
X101927381Y-76420690D02*
X101851190Y-76382595D01*
X101851190Y-76382595D02*
X101698809Y-76382595D01*
X101698809Y-76382595D02*
X101622619Y-76420690D01*
X101622619Y-76420690D02*
X101584524Y-76458785D01*
X101584524Y-76458785D02*
X101546428Y-76534976D01*
X101546428Y-76534976D02*
X101546428Y-76725452D01*
X101546428Y-76725452D02*
X101584524Y-76801642D01*
X101584524Y-76801642D02*
X101622619Y-76839738D01*
X101622619Y-76839738D02*
X101698809Y-76877833D01*
X101698809Y-76877833D02*
X101851190Y-76877833D01*
X101851190Y-76877833D02*
X101927381Y-76839738D01*
X101927381Y-76839738D02*
X101965476Y-76801642D01*
X101965476Y-76801642D02*
X102003571Y-76725452D01*
%TO.C,C8*%
X113691667Y-79668904D02*
X113653571Y-79707000D01*
X113653571Y-79707000D02*
X113539286Y-79745095D01*
X113539286Y-79745095D02*
X113463095Y-79745095D01*
X113463095Y-79745095D02*
X113348809Y-79707000D01*
X113348809Y-79707000D02*
X113272619Y-79630809D01*
X113272619Y-79630809D02*
X113234524Y-79554619D01*
X113234524Y-79554619D02*
X113196428Y-79402238D01*
X113196428Y-79402238D02*
X113196428Y-79287952D01*
X113196428Y-79287952D02*
X113234524Y-79135571D01*
X113234524Y-79135571D02*
X113272619Y-79059380D01*
X113272619Y-79059380D02*
X113348809Y-78983190D01*
X113348809Y-78983190D02*
X113463095Y-78945095D01*
X113463095Y-78945095D02*
X113539286Y-78945095D01*
X113539286Y-78945095D02*
X113653571Y-78983190D01*
X113653571Y-78983190D02*
X113691667Y-79021285D01*
X114148809Y-79287952D02*
X114072619Y-79249857D01*
X114072619Y-79249857D02*
X114034524Y-79211761D01*
X114034524Y-79211761D02*
X113996428Y-79135571D01*
X113996428Y-79135571D02*
X113996428Y-79097476D01*
X113996428Y-79097476D02*
X114034524Y-79021285D01*
X114034524Y-79021285D02*
X114072619Y-78983190D01*
X114072619Y-78983190D02*
X114148809Y-78945095D01*
X114148809Y-78945095D02*
X114301190Y-78945095D01*
X114301190Y-78945095D02*
X114377381Y-78983190D01*
X114377381Y-78983190D02*
X114415476Y-79021285D01*
X114415476Y-79021285D02*
X114453571Y-79097476D01*
X114453571Y-79097476D02*
X114453571Y-79135571D01*
X114453571Y-79135571D02*
X114415476Y-79211761D01*
X114415476Y-79211761D02*
X114377381Y-79249857D01*
X114377381Y-79249857D02*
X114301190Y-79287952D01*
X114301190Y-79287952D02*
X114148809Y-79287952D01*
X114148809Y-79287952D02*
X114072619Y-79326047D01*
X114072619Y-79326047D02*
X114034524Y-79364142D01*
X114034524Y-79364142D02*
X113996428Y-79440333D01*
X113996428Y-79440333D02*
X113996428Y-79592714D01*
X113996428Y-79592714D02*
X114034524Y-79668904D01*
X114034524Y-79668904D02*
X114072619Y-79707000D01*
X114072619Y-79707000D02*
X114148809Y-79745095D01*
X114148809Y-79745095D02*
X114301190Y-79745095D01*
X114301190Y-79745095D02*
X114377381Y-79707000D01*
X114377381Y-79707000D02*
X114415476Y-79668904D01*
X114415476Y-79668904D02*
X114453571Y-79592714D01*
X114453571Y-79592714D02*
X114453571Y-79440333D01*
X114453571Y-79440333D02*
X114415476Y-79364142D01*
X114415476Y-79364142D02*
X114377381Y-79326047D01*
X114377381Y-79326047D02*
X114301190Y-79287952D01*
%TO.C,C7*%
X101241667Y-78856404D02*
X101203571Y-78894500D01*
X101203571Y-78894500D02*
X101089286Y-78932595D01*
X101089286Y-78932595D02*
X101013095Y-78932595D01*
X101013095Y-78932595D02*
X100898809Y-78894500D01*
X100898809Y-78894500D02*
X100822619Y-78818309D01*
X100822619Y-78818309D02*
X100784524Y-78742119D01*
X100784524Y-78742119D02*
X100746428Y-78589738D01*
X100746428Y-78589738D02*
X100746428Y-78475452D01*
X100746428Y-78475452D02*
X100784524Y-78323071D01*
X100784524Y-78323071D02*
X100822619Y-78246880D01*
X100822619Y-78246880D02*
X100898809Y-78170690D01*
X100898809Y-78170690D02*
X101013095Y-78132595D01*
X101013095Y-78132595D02*
X101089286Y-78132595D01*
X101089286Y-78132595D02*
X101203571Y-78170690D01*
X101203571Y-78170690D02*
X101241667Y-78208785D01*
X101508333Y-78132595D02*
X102041667Y-78132595D01*
X102041667Y-78132595D02*
X101698809Y-78932595D01*
%TO.C,C6*%
X105941667Y-78168904D02*
X105903571Y-78207000D01*
X105903571Y-78207000D02*
X105789286Y-78245095D01*
X105789286Y-78245095D02*
X105713095Y-78245095D01*
X105713095Y-78245095D02*
X105598809Y-78207000D01*
X105598809Y-78207000D02*
X105522619Y-78130809D01*
X105522619Y-78130809D02*
X105484524Y-78054619D01*
X105484524Y-78054619D02*
X105446428Y-77902238D01*
X105446428Y-77902238D02*
X105446428Y-77787952D01*
X105446428Y-77787952D02*
X105484524Y-77635571D01*
X105484524Y-77635571D02*
X105522619Y-77559380D01*
X105522619Y-77559380D02*
X105598809Y-77483190D01*
X105598809Y-77483190D02*
X105713095Y-77445095D01*
X105713095Y-77445095D02*
X105789286Y-77445095D01*
X105789286Y-77445095D02*
X105903571Y-77483190D01*
X105903571Y-77483190D02*
X105941667Y-77521285D01*
X106627381Y-77445095D02*
X106475000Y-77445095D01*
X106475000Y-77445095D02*
X106398809Y-77483190D01*
X106398809Y-77483190D02*
X106360714Y-77521285D01*
X106360714Y-77521285D02*
X106284524Y-77635571D01*
X106284524Y-77635571D02*
X106246428Y-77787952D01*
X106246428Y-77787952D02*
X106246428Y-78092714D01*
X106246428Y-78092714D02*
X106284524Y-78168904D01*
X106284524Y-78168904D02*
X106322619Y-78207000D01*
X106322619Y-78207000D02*
X106398809Y-78245095D01*
X106398809Y-78245095D02*
X106551190Y-78245095D01*
X106551190Y-78245095D02*
X106627381Y-78207000D01*
X106627381Y-78207000D02*
X106665476Y-78168904D01*
X106665476Y-78168904D02*
X106703571Y-78092714D01*
X106703571Y-78092714D02*
X106703571Y-77902238D01*
X106703571Y-77902238D02*
X106665476Y-77826047D01*
X106665476Y-77826047D02*
X106627381Y-77787952D01*
X106627381Y-77787952D02*
X106551190Y-77749857D01*
X106551190Y-77749857D02*
X106398809Y-77749857D01*
X106398809Y-77749857D02*
X106322619Y-77787952D01*
X106322619Y-77787952D02*
X106284524Y-77826047D01*
X106284524Y-77826047D02*
X106246428Y-77902238D01*
%TO.C,C5*%
X104941667Y-85418904D02*
X104903571Y-85457000D01*
X104903571Y-85457000D02*
X104789286Y-85495095D01*
X104789286Y-85495095D02*
X104713095Y-85495095D01*
X104713095Y-85495095D02*
X104598809Y-85457000D01*
X104598809Y-85457000D02*
X104522619Y-85380809D01*
X104522619Y-85380809D02*
X104484524Y-85304619D01*
X104484524Y-85304619D02*
X104446428Y-85152238D01*
X104446428Y-85152238D02*
X104446428Y-85037952D01*
X104446428Y-85037952D02*
X104484524Y-84885571D01*
X104484524Y-84885571D02*
X104522619Y-84809380D01*
X104522619Y-84809380D02*
X104598809Y-84733190D01*
X104598809Y-84733190D02*
X104713095Y-84695095D01*
X104713095Y-84695095D02*
X104789286Y-84695095D01*
X104789286Y-84695095D02*
X104903571Y-84733190D01*
X104903571Y-84733190D02*
X104941667Y-84771285D01*
X105665476Y-84695095D02*
X105284524Y-84695095D01*
X105284524Y-84695095D02*
X105246428Y-85076047D01*
X105246428Y-85076047D02*
X105284524Y-85037952D01*
X105284524Y-85037952D02*
X105360714Y-84999857D01*
X105360714Y-84999857D02*
X105551190Y-84999857D01*
X105551190Y-84999857D02*
X105627381Y-85037952D01*
X105627381Y-85037952D02*
X105665476Y-85076047D01*
X105665476Y-85076047D02*
X105703571Y-85152238D01*
X105703571Y-85152238D02*
X105703571Y-85342714D01*
X105703571Y-85342714D02*
X105665476Y-85418904D01*
X105665476Y-85418904D02*
X105627381Y-85457000D01*
X105627381Y-85457000D02*
X105551190Y-85495095D01*
X105551190Y-85495095D02*
X105360714Y-85495095D01*
X105360714Y-85495095D02*
X105284524Y-85457000D01*
X105284524Y-85457000D02*
X105246428Y-85418904D01*
%TO.C,C4*%
X118441667Y-78168904D02*
X118403571Y-78207000D01*
X118403571Y-78207000D02*
X118289286Y-78245095D01*
X118289286Y-78245095D02*
X118213095Y-78245095D01*
X118213095Y-78245095D02*
X118098809Y-78207000D01*
X118098809Y-78207000D02*
X118022619Y-78130809D01*
X118022619Y-78130809D02*
X117984524Y-78054619D01*
X117984524Y-78054619D02*
X117946428Y-77902238D01*
X117946428Y-77902238D02*
X117946428Y-77787952D01*
X117946428Y-77787952D02*
X117984524Y-77635571D01*
X117984524Y-77635571D02*
X118022619Y-77559380D01*
X118022619Y-77559380D02*
X118098809Y-77483190D01*
X118098809Y-77483190D02*
X118213095Y-77445095D01*
X118213095Y-77445095D02*
X118289286Y-77445095D01*
X118289286Y-77445095D02*
X118403571Y-77483190D01*
X118403571Y-77483190D02*
X118441667Y-77521285D01*
X119127381Y-77711761D02*
X119127381Y-78245095D01*
X118936905Y-77407000D02*
X118746428Y-77978428D01*
X118746428Y-77978428D02*
X119241667Y-77978428D01*
%TO.C,C3*%
X115991667Y-61418904D02*
X115953571Y-61457000D01*
X115953571Y-61457000D02*
X115839286Y-61495095D01*
X115839286Y-61495095D02*
X115763095Y-61495095D01*
X115763095Y-61495095D02*
X115648809Y-61457000D01*
X115648809Y-61457000D02*
X115572619Y-61380809D01*
X115572619Y-61380809D02*
X115534524Y-61304619D01*
X115534524Y-61304619D02*
X115496428Y-61152238D01*
X115496428Y-61152238D02*
X115496428Y-61037952D01*
X115496428Y-61037952D02*
X115534524Y-60885571D01*
X115534524Y-60885571D02*
X115572619Y-60809380D01*
X115572619Y-60809380D02*
X115648809Y-60733190D01*
X115648809Y-60733190D02*
X115763095Y-60695095D01*
X115763095Y-60695095D02*
X115839286Y-60695095D01*
X115839286Y-60695095D02*
X115953571Y-60733190D01*
X115953571Y-60733190D02*
X115991667Y-60771285D01*
X116258333Y-60695095D02*
X116753571Y-60695095D01*
X116753571Y-60695095D02*
X116486905Y-60999857D01*
X116486905Y-60999857D02*
X116601190Y-60999857D01*
X116601190Y-60999857D02*
X116677381Y-61037952D01*
X116677381Y-61037952D02*
X116715476Y-61076047D01*
X116715476Y-61076047D02*
X116753571Y-61152238D01*
X116753571Y-61152238D02*
X116753571Y-61342714D01*
X116753571Y-61342714D02*
X116715476Y-61418904D01*
X116715476Y-61418904D02*
X116677381Y-61457000D01*
X116677381Y-61457000D02*
X116601190Y-61495095D01*
X116601190Y-61495095D02*
X116372619Y-61495095D01*
X116372619Y-61495095D02*
X116296428Y-61457000D01*
X116296428Y-61457000D02*
X116258333Y-61418904D01*
%TO.C,C2*%
X121241667Y-67168904D02*
X121203571Y-67207000D01*
X121203571Y-67207000D02*
X121089286Y-67245095D01*
X121089286Y-67245095D02*
X121013095Y-67245095D01*
X121013095Y-67245095D02*
X120898809Y-67207000D01*
X120898809Y-67207000D02*
X120822619Y-67130809D01*
X120822619Y-67130809D02*
X120784524Y-67054619D01*
X120784524Y-67054619D02*
X120746428Y-66902238D01*
X120746428Y-66902238D02*
X120746428Y-66787952D01*
X120746428Y-66787952D02*
X120784524Y-66635571D01*
X120784524Y-66635571D02*
X120822619Y-66559380D01*
X120822619Y-66559380D02*
X120898809Y-66483190D01*
X120898809Y-66483190D02*
X121013095Y-66445095D01*
X121013095Y-66445095D02*
X121089286Y-66445095D01*
X121089286Y-66445095D02*
X121203571Y-66483190D01*
X121203571Y-66483190D02*
X121241667Y-66521285D01*
X121546428Y-66521285D02*
X121584524Y-66483190D01*
X121584524Y-66483190D02*
X121660714Y-66445095D01*
X121660714Y-66445095D02*
X121851190Y-66445095D01*
X121851190Y-66445095D02*
X121927381Y-66483190D01*
X121927381Y-66483190D02*
X121965476Y-66521285D01*
X121965476Y-66521285D02*
X122003571Y-66597476D01*
X122003571Y-66597476D02*
X122003571Y-66673666D01*
X122003571Y-66673666D02*
X121965476Y-66787952D01*
X121965476Y-66787952D02*
X121508333Y-67245095D01*
X121508333Y-67245095D02*
X122003571Y-67245095D01*
%TO.C,C1*%
X92416667Y-75606404D02*
X92378571Y-75644500D01*
X92378571Y-75644500D02*
X92264286Y-75682595D01*
X92264286Y-75682595D02*
X92188095Y-75682595D01*
X92188095Y-75682595D02*
X92073809Y-75644500D01*
X92073809Y-75644500D02*
X91997619Y-75568309D01*
X91997619Y-75568309D02*
X91959524Y-75492119D01*
X91959524Y-75492119D02*
X91921428Y-75339738D01*
X91921428Y-75339738D02*
X91921428Y-75225452D01*
X91921428Y-75225452D02*
X91959524Y-75073071D01*
X91959524Y-75073071D02*
X91997619Y-74996880D01*
X91997619Y-74996880D02*
X92073809Y-74920690D01*
X92073809Y-74920690D02*
X92188095Y-74882595D01*
X92188095Y-74882595D02*
X92264286Y-74882595D01*
X92264286Y-74882595D02*
X92378571Y-74920690D01*
X92378571Y-74920690D02*
X92416667Y-74958785D01*
X93178571Y-75682595D02*
X92721428Y-75682595D01*
X92950000Y-75682595D02*
X92950000Y-74882595D01*
X92950000Y-74882595D02*
X92873809Y-74996880D01*
X92873809Y-74996880D02*
X92797619Y-75073071D01*
X92797619Y-75073071D02*
X92721428Y-75111166D01*
D12*
%TO.C,TP9*%
X123025000Y-79625000D02*
G75*
G03*
X123025000Y-79625000I-700000J0D01*
G01*
%TO.C,TP8*%
X108775000Y-59375000D02*
G75*
G03*
X108775000Y-59375000I-700000J0D01*
G01*
%TO.C,TP7*%
X120275000Y-63625000D02*
G75*
G03*
X120275000Y-63625000I-700000J0D01*
G01*
%TO.C,TP6*%
X91025000Y-71625000D02*
G75*
G03*
X91025000Y-71625000I-700000J0D01*
G01*
%TO.C,TP5*%
X91025000Y-76125000D02*
G75*
G03*
X91025000Y-76125000I-700000J0D01*
G01*
%TO.C,TP4*%
X127275000Y-74125000D02*
G75*
G03*
X127275000Y-74125000I-700000J0D01*
G01*
%TO.C,TP3*%
X117275000Y-80375000D02*
G75*
G03*
X117275000Y-80375000I-700000J0D01*
G01*
%TO.C,TP2*%
X116025000Y-82625000D02*
G75*
G03*
X116025000Y-82625000I-700000J0D01*
G01*
%TO.C,TP1*%
X55200000Y-91000000D02*
G75*
G03*
X55200000Y-91000000I-700000J0D01*
G01*
D13*
%TO.C,U1*%
X114375000Y-73625000D02*
X114375000Y-73325000D01*
X114375000Y-73625000D02*
X114075000Y-73625000D01*
X114375000Y-66625000D02*
X114375000Y-66925000D01*
X114375000Y-66625000D02*
X114075000Y-66625000D01*
X107375000Y-73625000D02*
X107675000Y-73625000D01*
X107375000Y-73625000D02*
X107375000Y-73325000D01*
X107375000Y-66625000D02*
X107675000Y-66625000D01*
X107375000Y-66625000D02*
X107375000Y-66925000D01*
D14*
X115450000Y-72875000D02*
G75*
G03*
X115450000Y-72875000I-100000J0D01*
G01*
D12*
%TO.C,R9*%
X99718510Y-70703748D02*
X99243994Y-70703748D01*
X99718510Y-71748748D02*
X99243994Y-71748748D01*
%TO.C,R8*%
X95968510Y-71453748D02*
X95493994Y-71453748D01*
X95968510Y-72498748D02*
X95493994Y-72498748D01*
%TO.C,D1*%
X94365000Y-69002500D02*
X94365000Y-68352500D01*
X97485000Y-69002500D02*
X97485000Y-68352500D01*
X94365000Y-69002500D02*
X94365000Y-70677500D01*
X97485000Y-69002500D02*
X97485000Y-69652500D01*
%TO.C,C19*%
X92246252Y-68464996D02*
X92246252Y-68987500D01*
X93716252Y-68464996D02*
X93716252Y-68987500D01*
%TO.C,C16*%
X99621832Y-68966248D02*
X99340672Y-68966248D01*
X99621832Y-69986248D02*
X99340672Y-69986248D01*
%TO.C,C15*%
X99621832Y-67216248D02*
X99340672Y-67216248D01*
X99621832Y-68236248D02*
X99340672Y-68236248D01*
%TO.C,J2*%
X66023200Y-94420000D02*
X53263200Y-94420000D01*
X67293200Y-94420000D02*
X68623200Y-94420000D01*
X68623200Y-94420000D02*
X68623200Y-95750000D01*
X66023200Y-94420000D02*
X66023200Y-97080000D01*
X53263200Y-94420000D02*
X53263200Y-97080000D01*
X66023200Y-97080000D02*
X53263200Y-97080000D01*
%TO.C,Y1*%
X54750000Y-66150000D02*
X51450000Y-66150000D01*
X51450000Y-66150000D02*
X51450000Y-70150000D01*
%TO.C,U5*%
X90200000Y-59225000D02*
X90200000Y-58425000D01*
X93320000Y-59225000D02*
X93320000Y-60025000D01*
X90200000Y-59225000D02*
X90200000Y-60025000D01*
X93320000Y-59225000D02*
X93320000Y-57425000D01*
%TO.C,U4*%
X71190000Y-58000000D02*
X71190000Y-57200000D01*
X74310000Y-58000000D02*
X74310000Y-58800000D01*
X71190000Y-58000000D02*
X71190000Y-58800000D01*
X74310000Y-58000000D02*
X74310000Y-56200000D01*
%TO.C,U3*%
X60753200Y-87440000D02*
X61553200Y-87440000D01*
X60753200Y-90560000D02*
X59953200Y-90560000D01*
X60753200Y-87440000D02*
X59953200Y-87440000D01*
X60753200Y-90560000D02*
X62553200Y-90560000D01*
%TO.C,U2*%
X71160000Y-64890000D02*
X71610000Y-64890000D01*
X64390000Y-72110000D02*
X64390000Y-71660000D01*
X64390000Y-64890000D02*
X64390000Y-65340000D01*
X71160000Y-72110000D02*
X71610000Y-72110000D01*
X71610000Y-72110000D02*
X71610000Y-71660000D01*
X64840000Y-64890000D02*
X64390000Y-64890000D01*
X64840000Y-72110000D02*
X64390000Y-72110000D01*
X64390000Y-65340000D02*
X63100000Y-65340000D01*
X71610000Y-64890000D02*
X71610000Y-65340000D01*
%TO.C,TH1*%
X122362258Y-75102500D02*
X121887742Y-75102500D01*
X122362258Y-76147500D02*
X121887742Y-76147500D01*
D13*
%TO.C,SW2*%
X68608000Y-85960000D02*
X74298000Y-85960000D01*
X68608000Y-89540000D02*
X68608000Y-85960000D01*
X74298000Y-85960000D02*
X74298000Y-89540000D01*
X74298000Y-89540000D02*
X68608000Y-89540000D01*
D14*
X65440000Y-87750000D02*
G75*
G03*
X65440000Y-87750000I-100000J0D01*
G01*
D13*
%TO.C,SW1*%
X56550000Y-54100000D02*
X55800000Y-54100000D01*
X51950000Y-54100000D02*
X52700000Y-54100000D01*
X51950000Y-54100000D02*
X51950000Y-62900000D01*
X56550000Y-62900000D02*
X56550000Y-54100000D01*
X56550000Y-62900000D02*
X55800000Y-62900000D01*
X51950000Y-62900000D02*
X52700000Y-62900000D01*
D14*
X51350000Y-56500000D02*
G75*
G03*
X51350000Y-56500000I-100000J0D01*
G01*
D12*
%TO.C,R14*%
X78227500Y-60262742D02*
X78227500Y-60737258D01*
X79272500Y-60262742D02*
X79272500Y-60737258D01*
%TO.C,R12*%
X80227500Y-61762742D02*
X80227500Y-62237258D01*
X81272500Y-61762742D02*
X81272500Y-62237258D01*
%TO.C,R10*%
X65012742Y-58522500D02*
X65487258Y-58522500D01*
X65012742Y-57477500D02*
X65487258Y-57477500D01*
%TO.C,R7*%
X83772500Y-72737258D02*
X83772500Y-72262742D01*
X82727500Y-72737258D02*
X82727500Y-72262742D01*
%TO.C,R6*%
X82727500Y-68512742D02*
X82727500Y-68987258D01*
X83772500Y-68512742D02*
X83772500Y-68987258D01*
%TO.C,R5*%
X57827500Y-70387258D02*
X57827500Y-69912742D01*
X58872500Y-70387258D02*
X58872500Y-69912742D01*
%TO.C,R4*%
X122362258Y-76852500D02*
X121887742Y-76852500D01*
X122362258Y-77897500D02*
X121887742Y-77897500D01*
%TO.C,R3*%
X74987258Y-83727500D02*
X74512742Y-83727500D01*
X74987258Y-84772500D02*
X74512742Y-84772500D01*
%TO.C,R2*%
X99362258Y-74540000D02*
X98887742Y-74540000D01*
X99362258Y-75585000D02*
X98887742Y-75585000D01*
%TO.C,R1*%
X96112258Y-74835000D02*
X95637742Y-74835000D01*
X96112258Y-73790000D02*
X95637742Y-73790000D01*
%TO.C,L2*%
X101525000Y-58375000D02*
X101525000Y-62375000D01*
X105725000Y-58375000D02*
X105725000Y-62375000D01*
%TO.C,L1*%
X107178000Y-83975000D02*
X107178000Y-81083000D01*
X109972000Y-83972000D02*
X109972000Y-81083000D01*
%TO.C,J4*%
X67370000Y-53612500D02*
X67370000Y-52282500D01*
X67370000Y-52282500D02*
X68700000Y-52282500D01*
X69970000Y-54942500D02*
X77650000Y-54942500D01*
X69970000Y-54942500D02*
X69970000Y-52282500D01*
X69970000Y-52282500D02*
X77650000Y-52282500D01*
X77650000Y-54942500D02*
X77650000Y-52282500D01*
%TO.C,J3*%
X96660000Y-55055000D02*
X96660000Y-52395000D01*
X88980000Y-52395000D02*
X96660000Y-52395000D01*
X88980000Y-55055000D02*
X88980000Y-52395000D01*
X88980000Y-55055000D02*
X96660000Y-55055000D01*
X86380000Y-52395000D02*
X87710000Y-52395000D01*
X86380000Y-53725000D02*
X86380000Y-52395000D01*
D13*
%TO.C,J1*%
X88650000Y-94750000D02*
X89250000Y-94750000D01*
X88650000Y-96300000D02*
X88650000Y-94750000D01*
X101850000Y-94750000D02*
X101250000Y-94750000D01*
X101850000Y-96300000D02*
X101850000Y-94750000D01*
D14*
X89600000Y-98400000D02*
G75*
G03*
X89600000Y-98400000I-100000J0D01*
G01*
D12*
%TO.C,FB1*%
X63227500Y-74012742D02*
X63227500Y-74487258D01*
X64272500Y-74012742D02*
X64272500Y-74487258D01*
%TO.C,D8*%
X97185000Y-77312500D02*
X97185000Y-77962500D01*
X94065000Y-77312500D02*
X94065000Y-77962500D01*
X97185000Y-77312500D02*
X97185000Y-75637500D01*
X94065000Y-77312500D02*
X94065000Y-76662500D01*
%TO.C,D4*%
X104235000Y-63625000D02*
X100225000Y-63625000D01*
X104235000Y-65625000D02*
X100225000Y-65625000D01*
X104235000Y-65625000D02*
X104235000Y-63625000D01*
%TO.C,D3*%
X110825000Y-79265000D02*
X110825000Y-83275000D01*
X112825000Y-79265000D02*
X112825000Y-83275000D01*
X112825000Y-79265000D02*
X110825000Y-79265000D01*
%TO.C,D2*%
X68235000Y-90515000D02*
X65950000Y-90515000D01*
X68235000Y-91985000D02*
X68235000Y-90515000D01*
X65950000Y-91985000D02*
X68235000Y-91985000D01*
%TO.C,C41*%
X97240000Y-90884420D02*
X97240000Y-91165580D01*
X98260000Y-90884420D02*
X98260000Y-91165580D01*
%TO.C,C39*%
X86890580Y-96740000D02*
X86609420Y-96740000D01*
X86890580Y-97760000D02*
X86609420Y-97760000D01*
%TO.C,C38*%
X90010000Y-91115580D02*
X90010000Y-90834420D01*
X88990000Y-91115580D02*
X88990000Y-90834420D01*
%TO.C,C37*%
X86609420Y-96010000D02*
X86890580Y-96010000D01*
X86609420Y-94990000D02*
X86890580Y-94990000D01*
%TO.C,C36*%
X86890580Y-92740000D02*
X86609420Y-92740000D01*
X86890580Y-93760000D02*
X86609420Y-93760000D01*
%TO.C,C35*%
X103859420Y-95260000D02*
X104140580Y-95260000D01*
X103859420Y-94240000D02*
X104140580Y-94240000D01*
%TO.C,C34*%
X101010000Y-91165580D02*
X101010000Y-90884420D01*
X99990000Y-91165580D02*
X99990000Y-90884420D01*
%TO.C,C33*%
X92760000Y-91165580D02*
X92760000Y-90884420D01*
X91740000Y-91165580D02*
X91740000Y-90884420D01*
%TO.C,C32*%
X103859420Y-97760000D02*
X104140580Y-97760000D01*
X103859420Y-96740000D02*
X104140580Y-96740000D01*
%TO.C,C31*%
X95510000Y-91165580D02*
X95510000Y-90884420D01*
X94490000Y-91165580D02*
X94490000Y-90884420D01*
%TO.C,C30*%
X57110000Y-70009420D02*
X57110000Y-70290580D01*
X56090000Y-70009420D02*
X56090000Y-70290580D01*
%TO.C,C29*%
X56090000Y-66759420D02*
X56090000Y-67040580D01*
X57110000Y-66759420D02*
X57110000Y-67040580D01*
%TO.C,C28*%
X63359420Y-78760000D02*
X63640580Y-78760000D01*
X63359420Y-77740000D02*
X63640580Y-77740000D01*
%TO.C,C27*%
X61390580Y-74990000D02*
X61109420Y-74990000D01*
X61390580Y-76010000D02*
X61109420Y-76010000D01*
%TO.C,C26*%
X61390580Y-72740000D02*
X61109420Y-72740000D01*
X61390580Y-73760000D02*
X61109420Y-73760000D01*
%TO.C,C25*%
X61510000Y-69640580D02*
X61510000Y-69359420D01*
X60490000Y-69640580D02*
X60490000Y-69359420D01*
%TO.C,C24*%
X61615580Y-62010000D02*
X61334420Y-62010000D01*
X61615580Y-60990000D02*
X61334420Y-60990000D01*
%TO.C,C23*%
X74490000Y-65609420D02*
X74490000Y-65890580D01*
X75510000Y-65609420D02*
X75510000Y-65890580D01*
%TO.C,C22*%
X65109420Y-62260000D02*
X65390580Y-62260000D01*
X65109420Y-61240000D02*
X65390580Y-61240000D01*
%TO.C,C21*%
X70890580Y-74740000D02*
X70609420Y-74740000D01*
X70890580Y-75760000D02*
X70609420Y-75760000D01*
%TO.C,C20*%
X61510000Y-64890580D02*
X61510000Y-64609420D01*
X60490000Y-64890580D02*
X60490000Y-64609420D01*
%TO.C,C18*%
X95113748Y-65360000D02*
X95636252Y-65360000D01*
X95113748Y-63890000D02*
X95636252Y-63890000D01*
%TO.C,C17*%
X107615000Y-63234420D02*
X107615000Y-63515580D01*
X108635000Y-63234420D02*
X108635000Y-63515580D01*
%TO.C,C14*%
X114110000Y-63636252D02*
X114110000Y-63113748D01*
X112640000Y-63636252D02*
X112640000Y-63113748D01*
%TO.C,C13*%
X118863748Y-73860000D02*
X119386252Y-73860000D01*
X118863748Y-72390000D02*
X119386252Y-72390000D01*
%TO.C,C12*%
X118863748Y-69860000D02*
X119386252Y-69860000D01*
X118863748Y-68390000D02*
X119386252Y-68390000D01*
%TO.C,C11*%
X122613748Y-73110000D02*
X123136252Y-73110000D01*
X122613748Y-71640000D02*
X123136252Y-71640000D01*
%TO.C,C10*%
X122613748Y-70860000D02*
X123136252Y-70860000D01*
X122613748Y-69390000D02*
X123136252Y-69390000D01*
%TO.C,C9*%
X99265580Y-76302500D02*
X98984420Y-76302500D01*
X99265580Y-77322500D02*
X98984420Y-77322500D01*
%TO.C,C8*%
X112836252Y-77140000D02*
X112313748Y-77140000D01*
X112836252Y-78610000D02*
X112313748Y-78610000D01*
%TO.C,C7*%
X98984420Y-79072500D02*
X99265580Y-79072500D01*
X98984420Y-78052500D02*
X99265580Y-78052500D01*
%TO.C,C6*%
X108313748Y-78610000D02*
X108836252Y-78610000D01*
X108313748Y-77140000D02*
X108836252Y-77140000D01*
%TO.C,C5*%
X107209420Y-85635000D02*
X107490580Y-85635000D01*
X107209420Y-84615000D02*
X107490580Y-84615000D01*
%TO.C,C4*%
X116063748Y-77140000D02*
X116586252Y-77140000D01*
X116063748Y-78610000D02*
X116586252Y-78610000D01*
%TO.C,C3*%
X116360000Y-63636252D02*
X116360000Y-63113748D01*
X114890000Y-63636252D02*
X114890000Y-63113748D01*
%TO.C,C2*%
X118734420Y-67385000D02*
X119015580Y-67385000D01*
X118734420Y-66365000D02*
X119015580Y-66365000D01*
%TO.C,C1*%
X93285000Y-77823752D02*
X93285000Y-77301248D01*
X91815000Y-77823752D02*
X91815000Y-77301248D01*
%TD*%
M02*
