%TF.GenerationSoftware,KiCad,Pcbnew,7.0.1*%
%TF.CreationDate,2023-04-23T16:19:40+02:00*%
%TF.ProjectId,ED060SC4_SPI_driver_board,45443036-3053-4433-945f-5350495f6472,rev?*%
%TF.SameCoordinates,Original*%
%TF.FileFunction,Copper,L1,Top*%
%TF.FilePolarity,Positive*%
%FSLAX46Y46*%
G04 Gerber Fmt 4.6, Leading zero omitted, Abs format (unit mm)*
G04 Created by KiCad (PCBNEW 7.0.1) date 2023-04-23 16:19:40*
%MOMM*%
%LPD*%
G01*
G04 APERTURE LIST*
G04 Aperture macros list*
%AMRoundRect*
0 Rectangle with rounded corners*
0 $1 Rounding radius*
0 $2 $3 $4 $5 $6 $7 $8 $9 X,Y pos of 4 corners*
0 Add a 4 corners polygon primitive as box body*
4,1,4,$2,$3,$4,$5,$6,$7,$8,$9,$2,$3,0*
0 Add four circle primitives for the rounded corners*
1,1,$1+$1,$2,$3*
1,1,$1+$1,$4,$5*
1,1,$1+$1,$6,$7*
1,1,$1+$1,$8,$9*
0 Add four rect primitives between the rounded corners*
20,1,$1+$1,$2,$3,$4,$5,0*
20,1,$1+$1,$4,$5,$6,$7,0*
20,1,$1+$1,$6,$7,$8,$9,0*
20,1,$1+$1,$8,$9,$2,$3,0*%
G04 Aperture macros list end*
%TA.AperFunction,ComponentPad*%
%ADD10R,1.700000X1.700000*%
%TD*%
%TA.AperFunction,ComponentPad*%
%ADD11O,1.700000X1.700000*%
%TD*%
%TA.AperFunction,SMDPad,CuDef*%
%ADD12RoundRect,0.250000X-0.475000X0.250000X-0.475000X-0.250000X0.475000X-0.250000X0.475000X0.250000X0*%
%TD*%
%TA.AperFunction,SMDPad,CuDef*%
%ADD13C,1.000000*%
%TD*%
%TA.AperFunction,SMDPad,CuDef*%
%ADD14RoundRect,0.225000X0.225000X0.250000X-0.225000X0.250000X-0.225000X-0.250000X0.225000X-0.250000X0*%
%TD*%
%TA.AperFunction,SMDPad,CuDef*%
%ADD15RoundRect,0.250000X0.250000X0.475000X-0.250000X0.475000X-0.250000X-0.475000X0.250000X-0.475000X0*%
%TD*%
%TA.AperFunction,SMDPad,CuDef*%
%ADD16RoundRect,0.225000X0.375000X-0.225000X0.375000X0.225000X-0.375000X0.225000X-0.375000X-0.225000X0*%
%TD*%
%TA.AperFunction,SMDPad,CuDef*%
%ADD17RoundRect,0.200000X-0.200000X-0.275000X0.200000X-0.275000X0.200000X0.275000X-0.200000X0.275000X0*%
%TD*%
%TA.AperFunction,SMDPad,CuDef*%
%ADD18R,3.700000X1.200000*%
%TD*%
%TA.AperFunction,SMDPad,CuDef*%
%ADD19RoundRect,0.225000X0.250000X-0.225000X0.250000X0.225000X-0.250000X0.225000X-0.250000X-0.225000X0*%
%TD*%
%TA.AperFunction,SMDPad,CuDef*%
%ADD20R,2.000000X0.850000*%
%TD*%
%TA.AperFunction,SMDPad,CuDef*%
%ADD21R,1.200000X1.400000*%
%TD*%
%TA.AperFunction,SMDPad,CuDef*%
%ADD22RoundRect,0.200000X-0.275000X0.200000X-0.275000X-0.200000X0.275000X-0.200000X0.275000X0.200000X0*%
%TD*%
%TA.AperFunction,SMDPad,CuDef*%
%ADD23RoundRect,0.150000X-0.150000X0.512500X-0.150000X-0.512500X0.150000X-0.512500X0.150000X0.512500X0*%
%TD*%
%TA.AperFunction,SMDPad,CuDef*%
%ADD24RoundRect,0.225000X-0.225000X-0.250000X0.225000X-0.250000X0.225000X0.250000X-0.225000X0.250000X0*%
%TD*%
%TA.AperFunction,SMDPad,CuDef*%
%ADD25RoundRect,0.250000X0.475000X-0.250000X0.475000X0.250000X-0.475000X0.250000X-0.475000X-0.250000X0*%
%TD*%
%TA.AperFunction,SMDPad,CuDef*%
%ADD26R,1.600000X2.200000*%
%TD*%
%TA.AperFunction,SMDPad,CuDef*%
%ADD27RoundRect,0.075000X-0.662500X-0.075000X0.662500X-0.075000X0.662500X0.075000X-0.662500X0.075000X0*%
%TD*%
%TA.AperFunction,SMDPad,CuDef*%
%ADD28RoundRect,0.075000X-0.075000X-0.662500X0.075000X-0.662500X0.075000X0.662500X-0.075000X0.662500X0*%
%TD*%
%TA.AperFunction,SMDPad,CuDef*%
%ADD29RoundRect,0.200000X0.200000X0.275000X-0.200000X0.275000X-0.200000X-0.275000X0.200000X-0.275000X0*%
%TD*%
%TA.AperFunction,SMDPad,CuDef*%
%ADD30RoundRect,0.225000X-0.375000X0.225000X-0.375000X-0.225000X0.375000X-0.225000X0.375000X0.225000X0*%
%TD*%
%TA.AperFunction,SMDPad,CuDef*%
%ADD31RoundRect,0.150000X0.512500X0.150000X-0.512500X0.150000X-0.512500X-0.150000X0.512500X-0.150000X0*%
%TD*%
%TA.AperFunction,SMDPad,CuDef*%
%ADD32RoundRect,0.007800X-0.422200X-0.122200X0.422200X-0.122200X0.422200X0.122200X-0.422200X0.122200X0*%
%TD*%
%TA.AperFunction,SMDPad,CuDef*%
%ADD33RoundRect,0.007800X0.122200X-0.422200X0.122200X0.422200X-0.122200X0.422200X-0.122200X-0.422200X0*%
%TD*%
%TA.AperFunction,SMDPad,CuDef*%
%ADD34R,5.150000X5.150000*%
%TD*%
%TA.AperFunction,SMDPad,CuDef*%
%ADD35RoundRect,0.225000X-0.250000X0.225000X-0.250000X-0.225000X0.250000X-0.225000X0.250000X0.225000X0*%
%TD*%
%TA.AperFunction,SMDPad,CuDef*%
%ADD36RoundRect,0.225000X-0.225000X-0.375000X0.225000X-0.375000X0.225000X0.375000X-0.225000X0.375000X0*%
%TD*%
%TA.AperFunction,ComponentPad*%
%ADD37R,1.308000X1.308000*%
%TD*%
%TA.AperFunction,ComponentPad*%
%ADD38C,1.308000*%
%TD*%
%TA.AperFunction,ComponentPad*%
%ADD39O,2.460000X1.230000*%
%TD*%
%TA.AperFunction,SMDPad,CuDef*%
%ADD40R,0.300000X0.800000*%
%TD*%
%TA.AperFunction,SMDPad,CuDef*%
%ADD41R,0.300000X1.000000*%
%TD*%
%TA.AperFunction,SMDPad,CuDef*%
%ADD42R,0.400000X0.950000*%
%TD*%
%TA.AperFunction,SMDPad,CuDef*%
%ADD43RoundRect,0.200000X0.275000X-0.200000X0.275000X0.200000X-0.275000X0.200000X-0.275000X-0.200000X0*%
%TD*%
%TA.AperFunction,SMDPad,CuDef*%
%ADD44RoundRect,0.218750X-0.256250X0.218750X-0.256250X-0.218750X0.256250X-0.218750X0.256250X0.218750X0*%
%TD*%
%TA.AperFunction,SMDPad,CuDef*%
%ADD45RoundRect,0.250000X-0.250000X-0.475000X0.250000X-0.475000X0.250000X0.475000X-0.250000X0.475000X0*%
%TD*%
%TA.AperFunction,ViaPad*%
%ADD46C,0.800000*%
%TD*%
%TA.AperFunction,Conductor*%
%ADD47C,0.300000*%
%TD*%
%TA.AperFunction,Conductor*%
%ADD48C,0.500000*%
%TD*%
%TA.AperFunction,Conductor*%
%ADD49C,0.250000*%
%TD*%
%TA.AperFunction,Conductor*%
%ADD50C,0.200000*%
%TD*%
G04 APERTURE END LIST*
D10*
%TO.P,J6,1,Pin_1*%
%TO.N,/TPS_PWRUP*%
X114000000Y-84210000D03*
D11*
%TO.P,J6,2,Pin_2*%
%TO.N,/TPS_WAKEUP*%
X114000000Y-86750000D03*
%TD*%
D12*
%TO.P,C14,1*%
%TO.N,/EPD Power Rails/VN*%
X97250000Y-75235000D03*
%TO.P,C14,2*%
%TO.N,GND*%
X97250000Y-77135000D03*
%TD*%
D13*
%TO.P,TP5,1,1*%
%TO.N,+22V*%
X114000000Y-65500000D03*
%TD*%
D10*
%TO.P,J5,1,Pin_1*%
%TO.N,-20V*%
X113910000Y-91500000D03*
D11*
%TO.P,J5,2,Pin_2*%
%TO.N,-15V*%
X111370000Y-91500000D03*
%TO.P,J5,3,Pin_3*%
%TO.N,+22V*%
X108830000Y-91500000D03*
%TO.P,J5,4,Pin_4*%
%TO.N,+15V*%
X106290000Y-91500000D03*
%TO.P,J5,5,Pin_5*%
%TO.N,VCOM*%
X103750000Y-91500000D03*
%TO.P,J5,6,Pin_6*%
%TO.N,+3.3V_{EPD}*%
X101210000Y-91500000D03*
%TD*%
D14*
%TO.P,C25,1*%
%TO.N,+3.3VA*%
X61775000Y-71500000D03*
%TO.P,C25,2*%
%TO.N,GND*%
X60225000Y-71500000D03*
%TD*%
D12*
%TO.P,C3,1*%
%TO.N,VCOM*%
X95000000Y-75235000D03*
%TO.P,C3,2*%
%TO.N,GND*%
X95000000Y-77135000D03*
%TD*%
D15*
%TO.P,C13,1*%
%TO.N,/EPD Power Rails/VREF*%
X92450000Y-65685000D03*
%TO.P,C13,2*%
%TO.N,GND*%
X90550000Y-65685000D03*
%TD*%
D16*
%TO.P,D6,1,K*%
%TO.N,+22V*%
X113750000Y-62900000D03*
%TO.P,D6,2,A*%
%TO.N,/EPD Power Rails/vddh_drv_0*%
X113750000Y-59600000D03*
%TD*%
D14*
%TO.P,C7,1*%
%TO.N,/EPD Power Rails/vddh_drv_0*%
X108713752Y-60848748D03*
%TO.P,C7,2*%
%TO.N,/EPD Power Rails/VDDH_DRV*%
X107163752Y-60848748D03*
%TD*%
D15*
%TO.P,C10,1*%
%TO.N,/EPD Power Rails/VN*%
X88700000Y-69435000D03*
%TO.P,C10,2*%
%TO.N,GND*%
X86800000Y-69435000D03*
%TD*%
D17*
%TO.P,TH1,1*%
%TO.N,GND*%
X87675000Y-63935000D03*
%TO.P,TH1,2*%
%TO.N,/EPD Power Rails/TS*%
X89325000Y-63935000D03*
%TD*%
D18*
%TO.P,L2,1,1*%
%TO.N,GND*%
X107000000Y-80585000D03*
%TO.P,L2,2,2*%
%TO.N,/EPD Power Rails/VN_SW*%
X107000000Y-77785000D03*
%TD*%
D19*
%TO.P,C40,1*%
%TO.N,+22V*%
X93000000Y-92775000D03*
%TO.P,C40,2*%
%TO.N,GND*%
X93000000Y-91225000D03*
%TD*%
D12*
%TO.P,C1,1*%
%TO.N,GND*%
X116000000Y-61050000D03*
%TO.P,C1,2*%
%TO.N,+22V*%
X116000000Y-62950000D03*
%TD*%
D20*
%TO.P,L1,1,1*%
%TO.N,+3.3V*%
X102050000Y-56185000D03*
%TO.P,L1,2,2*%
%TO.N,/EPD Power Rails/VB_SW*%
X102050000Y-57835000D03*
%TD*%
D21*
%TO.P,Y1,1,1*%
%TO.N,/HSE_IN*%
X55650000Y-67049998D03*
%TO.P,Y1,2,2*%
%TO.N,GND*%
X55650000Y-69249998D03*
%TO.P,Y1,3,3*%
%TO.N,/HSE_OUT_CRYSTAL*%
X57350000Y-69249998D03*
%TO.P,Y1,4,4*%
%TO.N,GND*%
X57350000Y-67049998D03*
%TD*%
D17*
%TO.P,R5,1*%
%TO.N,/HSE_OUT_CRYSTAL*%
X59175000Y-68750000D03*
%TO.P,R5,2*%
%TO.N,/HSE_OUT*%
X60825000Y-68750000D03*
%TD*%
D22*
%TO.P,R14,1*%
%TO.N,+3.3V*%
X76500000Y-60500000D03*
%TO.P,R14,2*%
%TO.N,/I2C1_SDA*%
X76500000Y-62150000D03*
%TD*%
D23*
%TO.P,U5,1,I/O1*%
%TO.N,/USART1_RX_conn*%
X88000000Y-54862500D03*
%TO.P,U5,2,GND*%
%TO.N,GND*%
X87050000Y-54862500D03*
%TO.P,U5,3,I/O2*%
%TO.N,/USART1_TX_conn*%
X86100000Y-54862500D03*
%TO.P,U5,4,I/O2*%
%TO.N,/USART1_TX*%
X86100000Y-57137500D03*
%TO.P,U5,5,VBUS*%
%TO.N,+3.3V*%
X87050000Y-57137500D03*
%TO.P,U5,6,I/O1*%
%TO.N,/USART1_RX*%
X88000000Y-57137500D03*
%TD*%
D10*
%TO.P,J3,1,Pin_1*%
%TO.N,GND*%
X84420000Y-51250000D03*
D11*
%TO.P,J3,2,Pin_2*%
%TO.N,/USART1_TX_conn*%
X86960000Y-51250000D03*
%TO.P,J3,3,Pin_3*%
%TO.N,/USART1_RX_conn*%
X89500000Y-51250000D03*
%TO.P,J3,4,Pin_4*%
%TO.N,+3.3V*%
X92040000Y-51250000D03*
%TD*%
D24*
%TO.P,C15,1*%
%TO.N,/EPD Power Rails/VEE_DRV*%
X107163752Y-71685000D03*
%TO.P,C15,2*%
%TO.N,/EPD Power Rails/vee_drv_0*%
X108713752Y-71685000D03*
%TD*%
D15*
%TO.P,C18,1*%
%TO.N,GND*%
X114250000Y-74935000D03*
%TO.P,C18,2*%
%TO.N,/EPD Power Rails/VN*%
X112350000Y-74935000D03*
%TD*%
D13*
%TO.P,TP3,1,1*%
%TO.N,+15V*%
X94050000Y-58750000D03*
%TD*%
D17*
%TO.P,R8,1*%
%TO.N,/EPD Power Rails/VEE_FB*%
X110363752Y-67435000D03*
%TO.P,R8,2*%
%TO.N,-20V*%
X112013752Y-67435000D03*
%TD*%
D25*
%TO.P,C19,1*%
%TO.N,GND*%
X116250000Y-71450000D03*
%TO.P,C19,2*%
%TO.N,-20V*%
X116250000Y-69550000D03*
%TD*%
D26*
%TO.P,SW2,1*%
%TO.N,/PWR_ON_LED*%
X52000000Y-74253200D03*
%TO.P,SW2,2*%
%TO.N,Net-(R3-Pad1)*%
X52000000Y-83053200D03*
%TD*%
D27*
%TO.P,U2,1,VBAT*%
%TO.N,+3.3V*%
X63837500Y-65750000D03*
%TO.P,U2,2,PC13*%
%TO.N,/EPD_OE*%
X63837500Y-66250000D03*
%TO.P,U2,3,PC14*%
%TO.N,/D0*%
X63837500Y-66750000D03*
%TO.P,U2,4,PC15*%
%TO.N,/D1*%
X63837500Y-67250000D03*
%TO.P,U2,5,PD0*%
%TO.N,/HSE_IN*%
X63837500Y-67750000D03*
%TO.P,U2,6,PD1*%
%TO.N,/HSE_OUT*%
X63837500Y-68250000D03*
%TO.P,U2,7,NRST*%
%TO.N,/NRST*%
X63837500Y-68750000D03*
%TO.P,U2,8,VSSA*%
%TO.N,GND*%
X63837500Y-69250000D03*
%TO.P,U2,9,VDDA*%
%TO.N,+3.3VA*%
X63837500Y-69750000D03*
%TO.P,U2,10,PA0*%
%TO.N,/EPD_CLK*%
X63837500Y-70250000D03*
%TO.P,U2,11,PA1*%
%TO.N,/EPD_SPH*%
X63837500Y-70750000D03*
%TO.P,U2,12,PA2*%
%TO.N,/EPD_LE*%
X63837500Y-71250000D03*
D28*
%TO.P,U2,13,PA3*%
%TO.N,unconnected-(U2-PA3-Pad13)*%
X65250000Y-72662500D03*
%TO.P,U2,14,PA4*%
%TO.N,/~{SPI1_CS}*%
X65750000Y-72662500D03*
%TO.P,U2,15,PA5*%
%TO.N,/SPI1_SCK*%
X66250000Y-72662500D03*
%TO.P,U2,16,PA6*%
%TO.N,/SPI1_MISO*%
X66750000Y-72662500D03*
%TO.P,U2,17,PA7*%
%TO.N,/SPI1_MOSI*%
X67250000Y-72662500D03*
%TO.P,U2,18,PB0*%
%TO.N,/D2*%
X67750000Y-72662500D03*
%TO.P,U2,19,PB1*%
%TO.N,/D3*%
X68250000Y-72662500D03*
%TO.P,U2,20,PB2*%
%TO.N,/D4*%
X68750000Y-72662500D03*
%TO.P,U2,21,PB10*%
%TO.N,/EPD_CKV*%
X69250000Y-72662500D03*
%TO.P,U2,22,PB11*%
%TO.N,/TPS_WAKEUP*%
X69750000Y-72662500D03*
%TO.P,U2,23,VSS*%
%TO.N,GND*%
X70250000Y-72662500D03*
%TO.P,U2,24,VDD*%
%TO.N,+3.3V*%
X70750000Y-72662500D03*
D27*
%TO.P,U2,25,PB12*%
%TO.N,/TPS_PWRUP*%
X72162500Y-71250000D03*
%TO.P,U2,26,PB13*%
%TO.N,/TPS_VCOM_CTRL*%
X72162500Y-70750000D03*
%TO.P,U2,27,PB14*%
%TO.N,/TPS_PWRGOOD*%
X72162500Y-70250000D03*
%TO.P,U2,28,PB15*%
%TO.N,/TPS_~{INT}*%
X72162500Y-69750000D03*
%TO.P,U2,29,PA8*%
%TO.N,unconnected-(U2-PA8-Pad29)*%
X72162500Y-69250000D03*
%TO.P,U2,30,PA9*%
%TO.N,/USART1_RX*%
X72162500Y-68750000D03*
%TO.P,U2,31,PA10*%
%TO.N,/USART1_TX*%
X72162500Y-68250000D03*
%TO.P,U2,32,PA11*%
%TO.N,unconnected-(U2-PA11-Pad32)*%
X72162500Y-67750000D03*
%TO.P,U2,33,PA12*%
%TO.N,unconnected-(U2-PA12-Pad33)*%
X72162500Y-67250000D03*
%TO.P,U2,34,PA13*%
%TO.N,/SWDIO*%
X72162500Y-66750000D03*
%TO.P,U2,35,VSS*%
%TO.N,GND*%
X72162500Y-66250000D03*
%TO.P,U2,36,VDD*%
%TO.N,+3.3V*%
X72162500Y-65750000D03*
D28*
%TO.P,U2,37,PA14*%
%TO.N,/SWCLK*%
X70750000Y-64337500D03*
%TO.P,U2,38,PA15*%
%TO.N,unconnected-(U2-PA15-Pad38)*%
X70250000Y-64337500D03*
%TO.P,U2,39,PB3*%
%TO.N,/D5*%
X69750000Y-64337500D03*
%TO.P,U2,40,PB4*%
%TO.N,/D6*%
X69250000Y-64337500D03*
%TO.P,U2,41,PB5*%
%TO.N,/D7*%
X68750000Y-64337500D03*
%TO.P,U2,42,PB6*%
%TO.N,/I2C1_SCL*%
X68250000Y-64337500D03*
%TO.P,U2,43,PB7*%
%TO.N,/I2C1_SDA*%
X67750000Y-64337500D03*
%TO.P,U2,44,BOOT0*%
%TO.N,/BOOT0*%
X67250000Y-64337500D03*
%TO.P,U2,45,PB8*%
%TO.N,/EPD_GMODE*%
X66750000Y-64337500D03*
%TO.P,U2,46,PB9*%
%TO.N,/EPD_SPV*%
X66250000Y-64337500D03*
%TO.P,U2,47,VSS*%
%TO.N,GND*%
X65750000Y-64337500D03*
%TO.P,U2,48,VDD*%
%TO.N,+3.3V*%
X65250000Y-64337500D03*
%TD*%
D29*
%TO.P,FB1,1*%
%TO.N,+3.3VA*%
X61825000Y-75250000D03*
%TO.P,FB1,2*%
%TO.N,+3.3V*%
X60175000Y-75250000D03*
%TD*%
D14*
%TO.P,C21,1*%
%TO.N,+3.3V*%
X72275000Y-75000000D03*
%TO.P,C21,2*%
%TO.N,GND*%
X70725000Y-75000000D03*
%TD*%
D17*
%TO.P,R9,1*%
%TO.N,GND*%
X107113752Y-67435000D03*
%TO.P,R9,2*%
%TO.N,/EPD Power Rails/VEE_FB*%
X108763752Y-67435000D03*
%TD*%
D24*
%TO.P,C30,1*%
%TO.N,GND*%
X55625000Y-71500000D03*
%TO.P,C30,2*%
%TO.N,/HSE_OUT_CRYSTAL*%
X57175000Y-71500000D03*
%TD*%
D30*
%TO.P,D1,1,K*%
%TO.N,/EPD Power Rails/VEE_D*%
X111000000Y-69350000D03*
%TO.P,D1,2,A*%
%TO.N,/EPD Power Rails/vee_drv_0*%
X111000000Y-72650000D03*
%TD*%
D31*
%TO.P,U3,1,I/O1*%
%TO.N,/SPI1_MISO*%
X59887500Y-86950000D03*
%TO.P,U3,2,GND*%
%TO.N,GND*%
X59887500Y-86000000D03*
%TO.P,U3,3,I/O2*%
%TO.N,/SPI1_MOSI*%
X59887500Y-85050000D03*
%TO.P,U3,4,I/O3*%
%TO.N,/SPI1_SCK*%
X57612500Y-85050000D03*
%TO.P,U3,5,VBUS*%
%TO.N,+3.3V*%
X57612500Y-86000000D03*
%TO.P,U3,6,I/O4*%
%TO.N,/~{SPI1_CS}*%
X57612500Y-86950000D03*
%TD*%
D14*
%TO.P,C26,1*%
%TO.N,+3.3VA*%
X61775000Y-73500000D03*
%TO.P,C26,2*%
%TO.N,GND*%
X60225000Y-73500000D03*
%TD*%
D15*
%TO.P,C6,1*%
%TO.N,GND*%
X103000000Y-61685000D03*
%TO.P,C6,2*%
%TO.N,/EPD Power Rails/VB*%
X101100000Y-61685000D03*
%TD*%
D24*
%TO.P,C22,1*%
%TO.N,+3.3V*%
X64475000Y-61500000D03*
%TO.P,C22,2*%
%TO.N,GND*%
X66025000Y-61500000D03*
%TD*%
D32*
%TO.P,U1,1,VREF*%
%TO.N,/EPD Power Rails/VREF*%
X96315000Y-66685000D03*
%TO.P,U1,2,~{INT}*%
%TO.N,/TPS_~{INT}*%
X96315000Y-67185000D03*
%TO.P,U1,3,VNEG*%
%TO.N,-15V*%
X96315000Y-67685000D03*
%TO.P,U1,4,VNEG_IN*%
%TO.N,/EPD Power Rails/VN*%
X96315000Y-68185000D03*
%TO.P,U1,5,WAKEUP*%
%TO.N,/TPS_WAKEUP*%
X96315000Y-68685000D03*
%TO.P,U1,6,DGND*%
%TO.N,GND*%
X96315000Y-69185000D03*
%TO.P,U1,7,INT_LDO*%
%TO.N,/EPD Power Rails/INT_LDO*%
X96315000Y-69685000D03*
%TO.P,U1,8,AGND1*%
%TO.N,GND*%
X96315000Y-70185000D03*
%TO.P,U1,9,VNEG_DIS*%
%TO.N,unconnected-(U1-VNEG_DIS-Pad9)*%
X96315000Y-70685000D03*
%TO.P,U1,10,VIN*%
%TO.N,+3.3V*%
X96315000Y-71185000D03*
%TO.P,U1,11*%
%TO.N,N/C*%
X96315000Y-71685000D03*
%TO.P,U1,12,VCOM_CTRL*%
%TO.N,/TPS_VCOM_CTRL*%
X96315000Y-72185000D03*
D33*
%TO.P,U1,13*%
%TO.N,N/C*%
X97000000Y-72870000D03*
%TO.P,U1,14,VCOM_DIS*%
%TO.N,unconnected-(U1-VCOM_DIS-Pad14)*%
X97500000Y-72870000D03*
%TO.P,U1,15,VCOM*%
%TO.N,VCOM*%
X98000000Y-72870000D03*
%TO.P,U1,16,VCOM_PWR*%
%TO.N,/EPD Power Rails/VN*%
X98500000Y-72870000D03*
%TO.P,U1,17,SCL*%
%TO.N,/I2C1_SCL*%
X99000000Y-72870000D03*
%TO.P,U1,18,SDA*%
%TO.N,/I2C1_SDA*%
X99500000Y-72870000D03*
%TO.P,U1,19,VPOS_DIS*%
%TO.N,unconnected-(U1-VPOS_DIS-Pad19)*%
X100000000Y-72870000D03*
%TO.P,U1,20*%
%TO.N,N/C*%
X100500000Y-72870000D03*
%TO.P,U1,21,PWRUP*%
%TO.N,/TPS_PWRUP*%
X101000000Y-72870000D03*
%TO.P,U1,22,PBKG*%
%TO.N,/EPD Power Rails/VN*%
X101500000Y-72870000D03*
%TO.P,U1,23,PWR_GOOD*%
%TO.N,/TPS_PWRGOOD*%
X102000000Y-72870000D03*
%TO.P,U1,24,VIN_P*%
%TO.N,+3.3V*%
X102500000Y-72870000D03*
D32*
%TO.P,U1,25,VN_SW*%
%TO.N,/EPD Power Rails/VN_SW*%
X103185000Y-72185000D03*
%TO.P,U1,26,VN*%
%TO.N,/EPD Power Rails/VN*%
X103185000Y-71685000D03*
%TO.P,U1,27,VEE_IN*%
X103185000Y-71185000D03*
%TO.P,U1,28,VEE_DRV*%
%TO.N,/EPD Power Rails/VEE_DRV*%
X103185000Y-70685000D03*
%TO.P,U1,29,VEE_DIS*%
%TO.N,unconnected-(U1-VEE_DIS-Pad29)*%
X103185000Y-70185000D03*
%TO.P,U1,30,VEE_D*%
%TO.N,/EPD Power Rails/VEE_D*%
X103185000Y-69685000D03*
%TO.P,U1,31,VEE_FB*%
%TO.N,/EPD Power Rails/VEE_FB*%
X103185000Y-69185000D03*
%TO.P,U1,32,PGND2*%
%TO.N,GND*%
X103185000Y-68685000D03*
%TO.P,U1,33,VDDH_FB*%
%TO.N,/EPD Power Rails/VDDH_FB*%
X103185000Y-68185000D03*
%TO.P,U1,34,VDDH_D*%
%TO.N,/EPD Power Rails/VDDH_D*%
X103185000Y-67685000D03*
%TO.P,U1,35,VDDH_DIS*%
%TO.N,unconnected-(U1-VDDH_DIS-Pad35)*%
X103185000Y-67185000D03*
%TO.P,U1,36,VDDH_DRV*%
%TO.N,/EPD Power Rails/VDDH_DRV*%
X103185000Y-66685000D03*
D33*
%TO.P,U1,37,VDDH_IN*%
%TO.N,/EPD Power Rails/VB*%
X102500000Y-66000000D03*
%TO.P,U1,38*%
%TO.N,N/C*%
X102000000Y-66000000D03*
%TO.P,U1,39*%
X101500000Y-66000000D03*
%TO.P,U1,40,VB_SW*%
%TO.N,/EPD Power Rails/VB_SW*%
X101000000Y-66000000D03*
%TO.P,U1,41,PGDN1*%
%TO.N,GND*%
X100500000Y-66000000D03*
%TO.P,U1,42,VB*%
%TO.N,/EPD Power Rails/VB*%
X100000000Y-66000000D03*
%TO.P,U1,43,VPOS_IN*%
X99500000Y-66000000D03*
%TO.P,U1,44,VPOS*%
%TO.N,+15V*%
X99000000Y-66000000D03*
%TO.P,U1,45,VIN3P3*%
%TO.N,+3.3V*%
X98500000Y-66000000D03*
%TO.P,U1,46,V3P3*%
%TO.N,+3.3V_{EPD}*%
X98000000Y-66000000D03*
%TO.P,U1,47,TS*%
%TO.N,/EPD Power Rails/TS*%
X97500000Y-66000000D03*
%TO.P,U1,48,AGND2*%
%TO.N,GND*%
X97000000Y-66000000D03*
D34*
%TO.P,U1,49,SUBSTRATE*%
%TO.N,/EPD Power Rails/VN*%
X99750000Y-69435000D03*
%TD*%
D14*
%TO.P,C2,1*%
%TO.N,+3.3V*%
X92525000Y-72685000D03*
%TO.P,C2,2*%
%TO.N,GND*%
X90975000Y-72685000D03*
%TD*%
D35*
%TO.P,C28,1*%
%TO.N,GND*%
X51750000Y-68225000D03*
%TO.P,C28,2*%
%TO.N,/NRST*%
X51750000Y-69775000D03*
%TD*%
D13*
%TO.P,TP1,1,1*%
%TO.N,+3.3V*%
X52500000Y-87500000D03*
%TD*%
D24*
%TO.P,C29,1*%
%TO.N,GND*%
X53975000Y-65000000D03*
%TO.P,C29,2*%
%TO.N,/HSE_IN*%
X55525000Y-65000000D03*
%TD*%
D22*
%TO.P,R6,1*%
%TO.N,+3.3V*%
X78000000Y-68175000D03*
%TO.P,R6,2*%
%TO.N,/TPS_~{INT}*%
X78000000Y-69825000D03*
%TD*%
D30*
%TO.P,D7,1,K*%
%TO.N,/EPD Power Rails/vddh_drv_0*%
X111000000Y-59600000D03*
%TO.P,D7,2,A*%
%TO.N,/EPD Power Rails/VDDH_D*%
X111000000Y-62900000D03*
%TD*%
D19*
%TO.P,C41,1*%
%TO.N,-20V*%
X87250000Y-87025000D03*
%TO.P,C41,2*%
%TO.N,GND*%
X87250000Y-85475000D03*
%TD*%
D23*
%TO.P,U4,1,I/O1*%
%TO.N,/SWDIO_conn*%
X71450000Y-54750000D03*
%TO.P,U4,2,GND*%
%TO.N,GND*%
X70500000Y-54750000D03*
%TO.P,U4,3,I/O2*%
%TO.N,/SWCLK_conn*%
X69550000Y-54750000D03*
%TO.P,U4,4,I/O2*%
%TO.N,/SWCLK*%
X69550000Y-57025000D03*
%TO.P,U4,5,VBUS*%
%TO.N,+3.3V*%
X70500000Y-57025000D03*
%TO.P,U4,6,I/O1*%
%TO.N,/SWDIO*%
X71450000Y-57025000D03*
%TD*%
D13*
%TO.P,TP8,1,1*%
%TO.N,/TPS_PWRGOOD*%
X102250000Y-80185000D03*
%TD*%
D16*
%TO.P,D3,1,K*%
%TO.N,/EPD Power Rails/VB*%
X98800000Y-59585000D03*
%TO.P,D3,2,A*%
%TO.N,/EPD Power Rails/VB_SW*%
X98800000Y-56285000D03*
%TD*%
D14*
%TO.P,C24,1*%
%TO.N,+3.3V*%
X62250000Y-61500000D03*
%TO.P,C24,2*%
%TO.N,GND*%
X60700000Y-61500000D03*
%TD*%
D15*
%TO.P,C12,1*%
%TO.N,/EPD Power Rails/INT_LDO*%
X92450000Y-70435000D03*
%TO.P,C12,2*%
%TO.N,GND*%
X90550000Y-70435000D03*
%TD*%
D24*
%TO.P,C9,1*%
%TO.N,GND*%
X107163752Y-62598748D03*
%TO.P,C9,2*%
%TO.N,/EPD Power Rails/VDDH_D*%
X108713752Y-62598748D03*
%TD*%
D35*
%TO.P,C23,1*%
%TO.N,+3.3V*%
X75000000Y-64975000D03*
%TO.P,C23,2*%
%TO.N,GND*%
X75000000Y-66525000D03*
%TD*%
D13*
%TO.P,TP6,1,1*%
%TO.N,-20V*%
X116250000Y-67000000D03*
%TD*%
D36*
%TO.P,D4,1,K*%
%TO.N,/EPD Power Rails/VN_SW*%
X107100000Y-74935000D03*
%TO.P,D4,2,A*%
%TO.N,/EPD Power Rails/VN*%
X110400000Y-74935000D03*
%TD*%
D13*
%TO.P,TP7,1,1*%
%TO.N,VCOM*%
X91050000Y-75935000D03*
%TD*%
D37*
%TO.P,SW1,1,A*%
%TO.N,GND*%
X52312500Y-56500000D03*
D38*
%TO.P,SW1,2,B*%
%TO.N,/SW_BOOT0*%
X52312500Y-58500000D03*
%TO.P,SW1,3,C*%
%TO.N,+3.3V*%
X52312500Y-60500000D03*
D39*
%TO.P,SW1,S1*%
%TO.N,N/C*%
X52312500Y-54300000D03*
%TO.P,SW1,S2*%
X52312500Y-62700000D03*
%TD*%
D24*
%TO.P,C27,1*%
%TO.N,+3.3V*%
X60200000Y-77000000D03*
%TO.P,C27,2*%
%TO.N,GND*%
X61750000Y-77000000D03*
%TD*%
D40*
%TO.P,J1,1,VNEG*%
%TO.N,-15V*%
X79130000Y-92750000D03*
D41*
%TO.P,J1,2,VPOS*%
%TO.N,+15V*%
X79430000Y-89750000D03*
D40*
%TO.P,J1,3,GND*%
%TO.N,GND*%
X79730000Y-92750000D03*
D41*
%TO.P,J1,4,VDD*%
%TO.N,+3.3V_{EPD}*%
X80030000Y-89750000D03*
D40*
%TO.P,J1,5,CLK*%
%TO.N,/EPD_CLK*%
X80330000Y-92750000D03*
D41*
%TO.P,J1,6,LE*%
%TO.N,/EPD_LE*%
X80630000Y-89750000D03*
D40*
%TO.P,J1,7,OE*%
%TO.N,/EPD_OE*%
X80930000Y-92750000D03*
D41*
%TO.P,J1,8,SHR*%
%TO.N,+3.3V_{EPD}*%
X81230000Y-89750000D03*
D40*
%TO.P,J1,9,CE1*%
%TO.N,GND*%
X81530000Y-92750000D03*
D41*
%TO.P,J1,10,CE2*%
%TO.N,+3.3V_{EPD}*%
X81830000Y-89750000D03*
D40*
%TO.P,J1,11,SPH*%
%TO.N,/EPD_SPH*%
X82130000Y-92750000D03*
D41*
%TO.P,J1,12,D0*%
%TO.N,/D0*%
X82430000Y-89750000D03*
D40*
%TO.P,J1,13,D1*%
%TO.N,/D1*%
X82730000Y-92750000D03*
D41*
%TO.P,J1,14,D2*%
%TO.N,/D2*%
X83030000Y-89750000D03*
D40*
%TO.P,J1,15,D3*%
%TO.N,/D3*%
X83330000Y-92750000D03*
D41*
%TO.P,J1,16,D4*%
%TO.N,/D4*%
X83630000Y-89750000D03*
D40*
%TO.P,J1,17,D5*%
%TO.N,/D5*%
X83930000Y-92750000D03*
D41*
%TO.P,J1,18,D6*%
%TO.N,/D6*%
X84230000Y-89750000D03*
D40*
%TO.P,J1,19,D7*%
%TO.N,/D7*%
X84530000Y-92750000D03*
D41*
%TO.P,J1,20,NC*%
%TO.N,unconnected-(J1-NC-Pad20)*%
X84830000Y-89750000D03*
D40*
%TO.P,J1,21,NC*%
%TO.N,unconnected-(J1-NC-Pad21)*%
X85130000Y-92750000D03*
D41*
%TO.P,J1,22,VCOM*%
%TO.N,VCOM*%
X85430000Y-89750000D03*
D40*
%TO.P,J1,23,GVDD*%
%TO.N,+22V*%
X85730000Y-92750000D03*
D41*
%TO.P,J1,24,GVEE*%
%TO.N,-20V*%
X86030000Y-89750000D03*
D40*
%TO.P,J1,25,NC*%
%TO.N,unconnected-(J1-NC-Pad25)*%
X86330000Y-92750000D03*
D41*
%TO.P,J1,26,NC*%
%TO.N,unconnected-(J1-NC-Pad26)*%
X86630000Y-89750000D03*
D40*
%TO.P,J1,27,GMODE2*%
%TO.N,/EPD_GMODE*%
X86930000Y-92750000D03*
D41*
%TO.P,J1,28,GMODE1*%
X87230000Y-89750000D03*
D40*
%TO.P,J1,29,RL*%
%TO.N,+3.3V_{EPD}*%
X87530000Y-92750000D03*
D41*
%TO.P,J1,30,U1CE2*%
X87830000Y-89750000D03*
D40*
%TO.P,J1,31,U1CE1*%
%TO.N,GND*%
X88130000Y-92750000D03*
D41*
%TO.P,J1,32,U1SPV*%
%TO.N,/EPD_SPV*%
X88430000Y-89750000D03*
D40*
%TO.P,J1,33,U1CKV*%
%TO.N,/EPD_CKV*%
X88730000Y-92750000D03*
D41*
%TO.P,J1,34,VBORDER*%
%TO.N,GND*%
X89030000Y-89750000D03*
D40*
%TO.P,J1,35,U2CE2*%
%TO.N,+3.3V_{EPD}*%
X89330000Y-92750000D03*
D41*
%TO.P,J1,36,U2CE1*%
X89630000Y-89750000D03*
D40*
%TO.P,J1,37,U2SPV*%
%TO.N,/EPD_SPV*%
X89930000Y-92750000D03*
D41*
%TO.P,J1,38,U2CKV*%
%TO.N,/EPD_CKV*%
X90230000Y-89750000D03*
D40*
%TO.P,J1,39,NC*%
%TO.N,unconnected-(J1-NC-Pad39)*%
X90530000Y-92750000D03*
D42*
%TO.P,J1,S1*%
%TO.N,N/C*%
X78430000Y-92475000D03*
%TO.P,J1,S2*%
X91230000Y-92475000D03*
%TD*%
D19*
%TO.P,C17,1*%
%TO.N,GND*%
X103250000Y-76800000D03*
%TO.P,C17,2*%
%TO.N,+3.3V*%
X103250000Y-75250000D03*
%TD*%
D22*
%TO.P,R12,1*%
%TO.N,+3.3V*%
X79000000Y-62000000D03*
%TO.P,R12,2*%
%TO.N,/I2C1_SCL*%
X79000000Y-63650000D03*
%TD*%
D24*
%TO.P,C16,1*%
%TO.N,GND*%
X107163752Y-69935000D03*
%TO.P,C16,2*%
%TO.N,/EPD Power Rails/VEE_D*%
X108713752Y-69935000D03*
%TD*%
D10*
%TO.P,J2,1,Pin_1*%
%TO.N,GND*%
X65043200Y-91500000D03*
D11*
%TO.P,J2,2,Pin_2*%
%TO.N,/SPI1_MOSI*%
X62503200Y-91500000D03*
%TO.P,J2,3,Pin_3*%
%TO.N,/SPI1_MISO*%
X59963200Y-91500000D03*
%TO.P,J2,4,Pin_4*%
%TO.N,/SPI1_SCK*%
X57423200Y-91500000D03*
%TO.P,J2,5,Pin_5*%
%TO.N,/~{SPI1_CS}*%
X54883200Y-91500000D03*
%TO.P,J2,6,Pin_6*%
%TO.N,+3.3V*%
X52343200Y-91500000D03*
%TD*%
D43*
%TO.P,R3,1*%
%TO.N,Net-(R3-Pad1)*%
X55250000Y-81575000D03*
%TO.P,R3,2*%
%TO.N,GND*%
X55250000Y-79925000D03*
%TD*%
D13*
%TO.P,TP4,1,1*%
%TO.N,-15V*%
X87500000Y-72750000D03*
%TD*%
D17*
%TO.P,R2,1*%
%TO.N,GND*%
X107113752Y-65185000D03*
%TO.P,R2,2*%
%TO.N,/EPD Power Rails/VDDH_FB*%
X108763752Y-65185000D03*
%TD*%
D44*
%TO.P,D2,1,K*%
%TO.N,/PWR_ON_LED*%
X55250000Y-73712500D03*
%TO.P,D2,2,A*%
%TO.N,+3.3V*%
X55250000Y-75287500D03*
%TD*%
D13*
%TO.P,TP2,1,1*%
%TO.N,+3.3V_{EPD}*%
X91750000Y-57500000D03*
%TD*%
D45*
%TO.P,C8,1*%
%TO.N,GND*%
X97100000Y-61685000D03*
%TO.P,C8,2*%
%TO.N,/EPD Power Rails/VB*%
X99000000Y-61685000D03*
%TD*%
D19*
%TO.P,C20,1*%
%TO.N,+3.3V*%
X61000000Y-65525000D03*
%TO.P,C20,2*%
%TO.N,GND*%
X61000000Y-63975000D03*
%TD*%
D10*
%TO.P,J4,1,Pin_1*%
%TO.N,GND*%
X66700000Y-51225000D03*
D11*
%TO.P,J4,2,Pin_2*%
%TO.N,/SWCLK_conn*%
X69240000Y-51225000D03*
%TO.P,J4,3,Pin_3*%
%TO.N,/SWDIO_conn*%
X71780000Y-51225000D03*
%TO.P,J4,4,Pin_4*%
%TO.N,+3.3V*%
X74320000Y-51225000D03*
%TD*%
D17*
%TO.P,R1,1*%
%TO.N,/EPD Power Rails/VDDH_FB*%
X110363752Y-65098748D03*
%TO.P,R1,2*%
%TO.N,+22V*%
X112013752Y-65098748D03*
%TD*%
D43*
%TO.P,R7,1*%
%TO.N,+3.3V*%
X78000000Y-73575000D03*
%TO.P,R7,2*%
%TO.N,/TPS_PWRGOOD*%
X78000000Y-71925000D03*
%TD*%
D13*
%TO.P,TP9,1,1*%
%TO.N,/TPS_~{INT}*%
X88300000Y-59935000D03*
%TD*%
D15*
%TO.P,C11,1*%
%TO.N,-15V*%
X88700000Y-67185000D03*
%TO.P,C11,2*%
%TO.N,GND*%
X86800000Y-67185000D03*
%TD*%
D19*
%TO.P,C31,1*%
%TO.N,+3.3V_{EPD}*%
X80000000Y-87025000D03*
%TO.P,C31,2*%
%TO.N,GND*%
X80000000Y-85475000D03*
%TD*%
D14*
%TO.P,C39,1*%
%TO.N,-15V*%
X76050000Y-92750000D03*
%TO.P,C39,2*%
%TO.N,GND*%
X74500000Y-92750000D03*
%TD*%
D16*
%TO.P,D5,1,K*%
%TO.N,/EPD Power Rails/vee_drv_0*%
X113750000Y-72650000D03*
%TO.P,D5,2,A*%
%TO.N,-20V*%
X113750000Y-69350000D03*
%TD*%
D19*
%TO.P,C38,1*%
%TO.N,+15V*%
X77750000Y-87000000D03*
%TO.P,C38,2*%
%TO.N,GND*%
X77750000Y-85450000D03*
%TD*%
D15*
%TO.P,C4,1*%
%TO.N,+15V*%
X95250000Y-61250000D03*
%TO.P,C4,2*%
%TO.N,GND*%
X93350000Y-61250000D03*
%TD*%
D17*
%TO.P,R4,1*%
%TO.N,GND*%
X87675000Y-62185000D03*
%TO.P,R4,2*%
%TO.N,/EPD Power Rails/TS*%
X89325000Y-62185000D03*
%TD*%
%TO.P,R10,1*%
%TO.N,/SW_BOOT0*%
X63500000Y-58500000D03*
%TO.P,R10,2*%
%TO.N,/BOOT0*%
X65150000Y-58500000D03*
%TD*%
D19*
%TO.P,C5,1*%
%TO.N,GND*%
X104625000Y-57835000D03*
%TO.P,C5,2*%
%TO.N,+3.3V*%
X104625000Y-56285000D03*
%TD*%
%TO.P,C42,1*%
%TO.N,VCOM*%
X85000000Y-87050000D03*
%TO.P,C42,2*%
%TO.N,GND*%
X85000000Y-85500000D03*
%TD*%
D46*
%TO.N,/TPS_WAKEUP*%
X90500000Y-79000000D03*
X85484165Y-76484165D03*
%TO.N,/TPS_PWRUP*%
X101234057Y-76484273D03*
X100500000Y-79500000D03*
%TO.N,+3.3V*%
X70500000Y-58500000D03*
X87117083Y-58601248D03*
%TO.N,/~{SPI1_CS}*%
X55750000Y-87000000D03*
X55185004Y-84456670D03*
%TO.N,GND*%
X115500000Y-75000000D03*
X107000000Y-82000000D03*
X85500000Y-69000000D03*
X87000000Y-53500000D03*
X88142311Y-94500500D03*
X54250000Y-70000000D03*
X79004578Y-94045781D03*
X104980746Y-68435500D03*
X59500000Y-61500000D03*
X54250000Y-69000000D03*
X59000000Y-71500000D03*
X70500000Y-53250000D03*
X59000000Y-73500000D03*
X52750000Y-65000000D03*
X104174189Y-61156989D03*
X71000000Y-76250000D03*
X86500000Y-64000000D03*
X51750000Y-67000000D03*
X85500000Y-70000000D03*
X93250000Y-59815000D03*
X95500000Y-78250000D03*
X65750000Y-60250000D03*
X54500000Y-71500000D03*
X89750000Y-88000000D03*
X87250000Y-84250000D03*
X61408023Y-70281502D03*
X97000000Y-60250000D03*
X85500000Y-66750000D03*
X76500000Y-87000000D03*
X106000000Y-65250000D03*
X57000000Y-65500000D03*
X89500000Y-71000000D03*
X94499500Y-69440546D03*
X100750000Y-64435000D03*
X82000000Y-83000500D03*
X93000000Y-90000000D03*
X94499500Y-71250000D03*
X89425713Y-65074287D03*
X69750000Y-92250000D03*
X95750000Y-65000000D03*
X61750000Y-78250000D03*
X65529977Y-62720023D03*
X105874954Y-67435000D03*
X106000000Y-82000000D03*
X61190046Y-86000000D03*
X55250000Y-78750000D03*
X108000000Y-82000000D03*
X106042214Y-62599364D03*
X85000000Y-84250000D03*
X104610100Y-58939526D03*
X61000000Y-62750000D03*
X97500000Y-78250000D03*
X116500000Y-59750000D03*
X106000000Y-69750000D03*
X85500000Y-67750000D03*
X89750000Y-72750000D03*
X58000000Y-65500000D03*
X86500000Y-62250000D03*
X117750000Y-71500000D03*
X103000000Y-78000000D03*
X115500000Y-59750000D03*
X81500000Y-94750000D03*
X76250000Y-66250000D03*
%TO.N,+3.3V*%
X58750000Y-83500000D03*
X79250000Y-68000000D03*
X55250000Y-76500000D03*
X92750000Y-73750000D03*
X97970023Y-63964977D03*
X62250000Y-60250000D03*
X59000000Y-77000000D03*
X59750000Y-65500000D03*
X75250000Y-60500000D03*
X72500000Y-76250000D03*
X76250000Y-65250497D03*
X103000000Y-55000000D03*
X80250000Y-62000000D03*
X64500000Y-60250000D03*
X104500000Y-75000000D03*
X79250000Y-73750000D03*
X101000000Y-55000000D03*
X102000000Y-55000000D03*
%TO.N,/EPD Power Rails/VB*%
X102799500Y-63185000D03*
X100000000Y-63185000D03*
%TO.N,/EPD_CLK*%
X68500000Y-93500000D03*
X65250000Y-70250000D03*
%TO.N,/EPD_LE*%
X64024000Y-72750000D03*
X64331637Y-86945576D03*
%TO.N,/EPD_OE*%
X59250000Y-67000000D03*
X58750000Y-93500000D03*
%TO.N,/EPD_SPH*%
X82279500Y-93918363D03*
X63250000Y-94750000D03*
X62524500Y-72500000D03*
X76500000Y-94999500D03*
%TO.N,/D0*%
X82331637Y-88195576D03*
X65566070Y-66301789D03*
X67137917Y-89362083D03*
X72750000Y-90840385D03*
%TO.N,/D1*%
X65250000Y-67250000D03*
X63500000Y-87500000D03*
%TO.N,/D2*%
X82750000Y-87250000D03*
X73750000Y-86250000D03*
%TO.N,/D3*%
X69220023Y-84029977D03*
X73750000Y-88250000D03*
%TO.N,/D4*%
X83286945Y-90839885D03*
X68999500Y-82250000D03*
%TO.N,/D5*%
X70000000Y-66000000D03*
X84410376Y-91160376D03*
%TO.N,/D6*%
X83750000Y-85250000D03*
X69081637Y-66554424D03*
%TO.N,/D7*%
X85500000Y-91000000D03*
X68250000Y-66000000D03*
%TO.N,/EPD_GMODE*%
X86930000Y-91320000D03*
X67250000Y-67750000D03*
%TO.N,/EPD_SPV*%
X90250000Y-91750000D03*
X88500000Y-91000000D03*
X66249500Y-68560308D03*
%TO.N,/EPD_CKV*%
X69924099Y-79407038D03*
X91000000Y-87250000D03*
%TO.N,/SPI1_MISO*%
X61500000Y-87000000D03*
X61989453Y-81200593D03*
%TO.N,/SPI1_SCK*%
X56000000Y-85000000D03*
X57279977Y-89529977D03*
%TO.N,/TPS_PWRGOOD*%
X88559954Y-78059954D03*
X83500000Y-76000000D03*
%TO.N,/I2C1_SCL*%
X76875000Y-63375000D03*
X80750000Y-78000500D03*
X93250000Y-80250000D03*
X68924668Y-63007904D03*
X81250000Y-64000000D03*
X99000000Y-75250000D03*
X87750000Y-80250000D03*
X80750000Y-80000000D03*
%TO.N,/I2C1_SDA*%
X100000000Y-75250000D03*
X87750000Y-81250000D03*
X68000000Y-62500000D03*
X79500000Y-80250000D03*
X77750000Y-62250000D03*
X74750000Y-62250000D03*
X93250000Y-81250000D03*
X79500000Y-78000500D03*
%TO.N,+15V*%
X94250000Y-62500500D03*
X87250000Y-82500000D03*
X85675500Y-82500000D03*
X91402695Y-73734197D03*
%TO.N,/TPS_WAKEUP*%
X86900500Y-71000000D03*
X90500000Y-68934500D03*
%TO.N,/TPS_VCOM_CTRL*%
X85750000Y-75000000D03*
X89779977Y-75029977D03*
%TO.N,/TPS_PWRUP*%
X87242227Y-78317727D03*
X74000000Y-76500000D03*
%TO.N,-15V*%
X71250000Y-88750000D03*
X82000000Y-79500000D03*
X69845023Y-85404977D03*
%TO.N,+22V*%
X114000000Y-67000000D03*
%TO.N,-20V*%
X117750000Y-69500000D03*
X98750000Y-93524500D03*
X96750000Y-92025500D03*
%TO.N,+3.3V_{EPD}*%
X81500000Y-88750000D03*
X90779977Y-88720023D03*
X87154977Y-94345023D03*
X91500000Y-63185500D03*
X90750000Y-93750000D03*
X91500000Y-85500000D03*
X87830000Y-88250000D03*
X81250000Y-87000000D03*
%TD*%
D47*
%TO.N,/TPS_WAKEUP*%
X90500000Y-79000000D02*
X93500000Y-79000000D01*
X93500000Y-79000000D02*
X94000000Y-79500000D01*
X98500000Y-79500000D02*
X103750000Y-84750000D01*
X94000000Y-79500000D02*
X98500000Y-79500000D01*
X103750000Y-84750000D02*
X112000000Y-84750000D01*
X112000000Y-84750000D02*
X114000000Y-86750000D01*
%TO.N,/TPS_PWRGOOD*%
X101500000Y-77250000D02*
X99750000Y-79000000D01*
X99750000Y-79000000D02*
X94500000Y-79000000D01*
X94500000Y-79000000D02*
X93559954Y-78059954D01*
X93559954Y-78059954D02*
X88559954Y-78059954D01*
%TO.N,/TPS_PWRUP*%
X100215000Y-76285000D02*
X100375000Y-76125000D01*
X100375000Y-76125000D02*
X100625000Y-75875000D01*
X100750000Y-76000000D02*
X100500000Y-76000000D01*
X100500000Y-76000000D02*
X100375000Y-76125000D01*
X100750000Y-75750000D02*
X100875000Y-75625000D01*
X100750000Y-75750000D02*
X100750000Y-76000000D01*
X100625000Y-75875000D02*
X100750000Y-75750000D01*
X100750000Y-76000000D02*
X101234057Y-76484057D01*
X101234057Y-76484057D02*
X101234057Y-76484273D01*
X100750000Y-76000000D02*
X100625000Y-75875000D01*
X100875000Y-75625000D02*
X101000000Y-75500000D01*
X103960000Y-84210000D02*
X100500000Y-80750000D01*
X114000000Y-84210000D02*
X103960000Y-84210000D01*
X100500000Y-80750000D02*
X100500000Y-79500000D01*
D48*
%TO.N,+3.3V*%
X87609756Y-56045000D02*
X87327378Y-56327378D01*
X87327378Y-56327378D02*
X87050000Y-56604756D01*
X87117083Y-58601248D02*
X87117083Y-56537673D01*
X87117083Y-56537673D02*
X87327378Y-56327378D01*
X70500000Y-58500000D02*
X70500000Y-57025000D01*
X74320000Y-51225000D02*
X74320000Y-53362744D01*
X71750244Y-55932500D02*
X71059756Y-55932500D01*
X74320000Y-53362744D02*
X71750244Y-55932500D01*
X71059756Y-55932500D02*
X70500000Y-56492256D01*
X70500000Y-56492256D02*
X70500000Y-57025000D01*
X92040000Y-51250000D02*
X92040000Y-52452081D01*
X92040000Y-52452081D02*
X88447081Y-56045000D01*
X88447081Y-56045000D02*
X87609756Y-56045000D01*
X87050000Y-56604756D02*
X87050000Y-57137500D01*
D47*
%TO.N,/USART1_RX*%
X72162500Y-68750000D02*
X75750000Y-68750000D01*
X75750000Y-68750000D02*
X79000000Y-65500000D01*
X79000000Y-65500000D02*
X81707106Y-65500000D01*
X81707106Y-65500000D02*
X86600000Y-60607106D01*
X86600000Y-60150000D02*
X88000000Y-58750000D01*
X86600000Y-60607106D02*
X86600000Y-60150000D01*
X88000000Y-58750000D02*
X88000000Y-57137500D01*
%TO.N,+3.3V_{EPD}*%
X91875000Y-62125000D02*
X91750000Y-62000000D01*
X91750000Y-62000000D02*
X91750000Y-57500000D01*
D48*
%TO.N,+3.3V*%
X57612500Y-86000000D02*
X54000000Y-86000000D01*
X54000000Y-86000000D02*
X52500000Y-87500000D01*
D49*
%TO.N,/~{SPI1_CS}*%
X55750000Y-87000000D02*
X55800000Y-86950000D01*
X55800000Y-86950000D02*
X57612500Y-86950000D01*
D48*
%TO.N,+3.3V*%
X52343200Y-91500000D02*
X52343200Y-87656800D01*
X52343200Y-87656800D02*
X52500000Y-87500000D01*
D47*
%TO.N,GND*%
X96315000Y-70185000D02*
X95564500Y-70185000D01*
X104731246Y-68685000D02*
X104980746Y-68435500D01*
X90036426Y-65685000D02*
X89425713Y-65074287D01*
X94755046Y-69185000D02*
X94499500Y-69440546D01*
X100500000Y-64685000D02*
X100750000Y-64435000D01*
X59887500Y-86000000D02*
X61190046Y-86000000D01*
X96315000Y-69185000D02*
X94755046Y-69185000D01*
X107000000Y-81000000D02*
X106000000Y-82000000D01*
X95564500Y-70185000D02*
X94499500Y-71250000D01*
X96343300Y-65000000D02*
X95750000Y-65000000D01*
X88130000Y-93569839D02*
X88130000Y-92750000D01*
X70750000Y-74250000D02*
X70750000Y-74975000D01*
X60225000Y-71500000D02*
X59000000Y-71500000D01*
X93350000Y-61250000D02*
X93350000Y-59915000D01*
X70250000Y-92750000D02*
X69750000Y-92250000D01*
X85500000Y-66750000D02*
X86365000Y-66750000D01*
X82000000Y-83475000D02*
X80000000Y-85475000D01*
X85000000Y-85500000D02*
X85000000Y-84250000D01*
X81530000Y-94720000D02*
X81500000Y-94750000D01*
X107000000Y-81000000D02*
X108000000Y-82000000D01*
X97000000Y-66000000D02*
X97000000Y-65656700D01*
X90550000Y-65685000D02*
X90036426Y-65685000D01*
X61750000Y-78250000D02*
X61750000Y-77000000D01*
X85500000Y-70000000D02*
X86235000Y-70000000D01*
X87050000Y-53550000D02*
X87000000Y-53500000D01*
X70500000Y-54612500D02*
X70500000Y-53250000D01*
X55625000Y-71500000D02*
X55000000Y-71500000D01*
X55400002Y-69000000D02*
X55650000Y-69249998D01*
X57000000Y-65500000D02*
X57250000Y-65750000D01*
X55250000Y-79925000D02*
X55250000Y-78750000D01*
X89815000Y-72685000D02*
X89750000Y-72750000D01*
X61718498Y-70281502D02*
X62750000Y-69250000D01*
X54250000Y-69000000D02*
X55400002Y-69000000D01*
X107000000Y-80585000D02*
X107000000Y-81000000D01*
X104625000Y-58924626D02*
X104610100Y-58939526D01*
X74275000Y-66525000D02*
X74000000Y-66250000D01*
X62750000Y-69250000D02*
X63837500Y-69250000D01*
X106185000Y-69935000D02*
X106000000Y-69750000D01*
X55000000Y-71500000D02*
X54500000Y-71500000D01*
X90065000Y-70435000D02*
X90550000Y-70435000D01*
X81530000Y-92750000D02*
X81530000Y-94720000D01*
X93000000Y-91225000D02*
X93000000Y-90000000D01*
X65750000Y-64337500D02*
X65750000Y-62940046D01*
X88142311Y-93582150D02*
X88130000Y-93569839D01*
X70250000Y-72662500D02*
X70250000Y-73750000D01*
X103250000Y-77750000D02*
X103000000Y-78000000D01*
X107163752Y-62598748D02*
X106042830Y-62598748D01*
X90975000Y-72685000D02*
X89815000Y-72685000D01*
D50*
X117700000Y-71450000D02*
X117750000Y-71500000D01*
D47*
X106000000Y-82000000D02*
X106000000Y-81585000D01*
X96921650Y-65578350D02*
X96343300Y-65000000D01*
X65750000Y-62940046D02*
X65529977Y-62720023D01*
X66025000Y-60525000D02*
X65750000Y-60250000D01*
X87675000Y-63935000D02*
X86565000Y-63935000D01*
X54250000Y-70000000D02*
X54899998Y-70000000D01*
X108000000Y-82000000D02*
X108000000Y-81585000D01*
X76250000Y-66250000D02*
X75975000Y-66525000D01*
X89030000Y-89750000D02*
X89030000Y-88970000D01*
X89500000Y-71000000D02*
X90065000Y-70435000D01*
X57500000Y-66899998D02*
X57350000Y-67049998D01*
X70250000Y-73750000D02*
X70750000Y-74250000D01*
D50*
X116250000Y-71450000D02*
X117700000Y-71450000D01*
D47*
X51750000Y-68225000D02*
X51750000Y-67000000D01*
X54899998Y-70000000D02*
X55650000Y-69249998D01*
X70725000Y-75000000D02*
X70725000Y-75975000D01*
X79730000Y-92750000D02*
X79730000Y-93320359D01*
X74000000Y-66250000D02*
X72162500Y-66250000D01*
X85500000Y-67750000D02*
X86235000Y-67750000D01*
X86235000Y-70000000D02*
X86800000Y-69435000D01*
X103646178Y-61685000D02*
X104174189Y-61156989D01*
X88142311Y-94500500D02*
X88142311Y-93582150D01*
X61408023Y-70281502D02*
X61718498Y-70281502D01*
X70725000Y-75975000D02*
X71000000Y-76250000D01*
X108000000Y-81585000D02*
X107000000Y-80585000D01*
X58000000Y-65500000D02*
X57500000Y-66000000D01*
X115500000Y-59750000D02*
X115500000Y-60384996D01*
X97250000Y-78000000D02*
X97500000Y-78250000D01*
X86365000Y-69000000D02*
X86800000Y-69435000D01*
X85500000Y-69000000D02*
X86365000Y-69000000D01*
X103250000Y-76800000D02*
X103250000Y-77750000D01*
X106000000Y-81585000D02*
X107000000Y-80585000D01*
X115500000Y-75000000D02*
X114315000Y-75000000D01*
X100500000Y-66000000D02*
X100500000Y-64685000D01*
X107000000Y-80585000D02*
X107000000Y-82000000D01*
X61000000Y-63975000D02*
X61000000Y-62750000D01*
X86565000Y-63935000D02*
X86500000Y-64000000D01*
X76500000Y-86700000D02*
X76500000Y-87000000D01*
X66025000Y-61500000D02*
X66025000Y-60525000D01*
X74500000Y-92750000D02*
X70250000Y-92750000D01*
X115500000Y-60384996D02*
X116013752Y-60898748D01*
X82000000Y-83000500D02*
X82000000Y-83475000D01*
X75000000Y-66525000D02*
X74275000Y-66525000D01*
X116500000Y-59750000D02*
X116500000Y-60412500D01*
X97100000Y-60350000D02*
X97000000Y-60250000D01*
X87050000Y-54862500D02*
X87050000Y-53550000D01*
X105874954Y-67435000D02*
X106757500Y-67435000D01*
D50*
X87250000Y-85475000D02*
X87250000Y-84250000D01*
D47*
X89030000Y-88970000D02*
X89750000Y-88250000D01*
X86365000Y-66750000D02*
X86800000Y-67185000D01*
X107163752Y-69935000D02*
X106185000Y-69935000D01*
X57250000Y-65750000D02*
X57250000Y-66949998D01*
X106065000Y-65185000D02*
X106000000Y-65250000D01*
X57500000Y-66000000D02*
X57500000Y-66899998D01*
X75975000Y-66525000D02*
X75000000Y-66525000D01*
X103000000Y-61685000D02*
X103646178Y-61685000D01*
X86565000Y-62185000D02*
X86500000Y-62250000D01*
X95000000Y-77135000D02*
X95000000Y-77750000D01*
X114315000Y-75000000D02*
X114250000Y-74935000D01*
X103185000Y-68685000D02*
X104731246Y-68685000D01*
X60225000Y-73500000D02*
X59000000Y-73500000D01*
X57250000Y-66949998D02*
X57350000Y-67049998D01*
X60700000Y-61500000D02*
X59500000Y-61500000D01*
X77750000Y-85450000D02*
X76500000Y-86700000D01*
X53825000Y-65000000D02*
X52750000Y-65000000D01*
X86235000Y-67750000D02*
X86800000Y-67185000D01*
X79730000Y-93320359D02*
X79004578Y-94045781D01*
X107113752Y-65185000D02*
X106065000Y-65185000D01*
X97250000Y-77135000D02*
X97250000Y-78000000D01*
X87675000Y-62185000D02*
X86565000Y-62185000D01*
X116500000Y-60412500D02*
X116013752Y-60898748D01*
X97000000Y-65656700D02*
X96921650Y-65578350D01*
X97100000Y-61685000D02*
X97100000Y-60350000D01*
X95000000Y-77750000D02*
X95500000Y-78250000D01*
X89750000Y-88250000D02*
X89750000Y-88000000D01*
X70750000Y-74975000D02*
X70725000Y-75000000D01*
X106042830Y-62598748D02*
X106042214Y-62599364D01*
X104625000Y-57835000D02*
X104625000Y-58924626D01*
%TO.N,+3.3V*%
X58625000Y-85875000D02*
X58625000Y-83625000D01*
X61225000Y-65750000D02*
X63500000Y-65750000D01*
X103250000Y-75250000D02*
X103250000Y-74500000D01*
X92525000Y-72685000D02*
X94264594Y-72685000D01*
X65250000Y-64337500D02*
X65250000Y-63500000D01*
X102050000Y-56050000D02*
X101000000Y-55000000D01*
X102500000Y-73750000D02*
X102500000Y-72870000D01*
X103250000Y-74500000D02*
X102500000Y-73750000D01*
X76500000Y-60500000D02*
X75250000Y-60500000D01*
X94264594Y-72685000D02*
X95764594Y-71185000D01*
X64500000Y-61525000D02*
X64475000Y-61500000D01*
X64500000Y-62750000D02*
X64500000Y-61525000D01*
X64475000Y-60275000D02*
X64500000Y-60250000D01*
X65250000Y-63500000D02*
X64500000Y-62750000D01*
X79000000Y-62000000D02*
X80250000Y-62000000D01*
X73250000Y-65750000D02*
X72162500Y-65750000D01*
X98500000Y-66000000D02*
X98500000Y-64494954D01*
X102050000Y-55050000D02*
X102000000Y-55000000D01*
X102050000Y-56185000D02*
X102050000Y-56050000D01*
X95764594Y-71185000D02*
X96315000Y-71185000D01*
X58250000Y-86000000D02*
X58500000Y-86000000D01*
X79075000Y-68175000D02*
X79250000Y-68000000D01*
X92525000Y-73525000D02*
X92750000Y-73750000D01*
X75974503Y-64975000D02*
X75000000Y-64975000D01*
X76250000Y-65250497D02*
X75974503Y-64975000D01*
X75000000Y-64975000D02*
X74025000Y-64975000D01*
X78000000Y-68175000D02*
X79075000Y-68175000D01*
X58625000Y-83625000D02*
X58750000Y-83500000D01*
X78000000Y-73575000D02*
X79075000Y-73575000D01*
X72025000Y-75250000D02*
X72025000Y-74525000D01*
X60200000Y-77000000D02*
X60200000Y-75275000D01*
X62250000Y-61500000D02*
X62250000Y-60250000D01*
X72025000Y-74525000D02*
X70750000Y-73250000D01*
X102050000Y-56185000D02*
X102050000Y-55050000D01*
X58500000Y-86000000D02*
X58625000Y-85875000D01*
X98500000Y-64494954D02*
X97970023Y-63964977D01*
X102050000Y-55950000D02*
X103000000Y-55000000D01*
X64475000Y-61500000D02*
X64475000Y-60275000D01*
X59775000Y-65525000D02*
X59750000Y-65500000D01*
X55250000Y-75287500D02*
X55250000Y-76500000D01*
X92525000Y-72685000D02*
X92525000Y-73525000D01*
X104525000Y-56185000D02*
X104625000Y-56285000D01*
X61000000Y-65525000D02*
X59775000Y-65525000D01*
X102050000Y-56185000D02*
X102050000Y-55950000D01*
X72275000Y-76025000D02*
X72500000Y-76250000D01*
X79075000Y-73575000D02*
X79250000Y-73750000D01*
X61000000Y-65525000D02*
X61225000Y-65750000D01*
X60200000Y-75275000D02*
X60175000Y-75250000D01*
X57612500Y-86000000D02*
X58250000Y-86000000D01*
X103250000Y-75250000D02*
X104250000Y-75250000D01*
X72275000Y-75000000D02*
X72275000Y-76025000D01*
X59000000Y-77000000D02*
X60200000Y-77000000D01*
X74025000Y-64975000D02*
X73250000Y-65750000D01*
X104250000Y-75250000D02*
X104500000Y-75000000D01*
X102050000Y-56185000D02*
X104525000Y-56185000D01*
X70750000Y-73250000D02*
X70750000Y-72662500D01*
%TO.N,/EPD Power Rails/VB*%
X102500000Y-64935000D02*
X102750000Y-64685000D01*
X102500000Y-66000000D02*
X102500000Y-64935000D01*
X102750000Y-63234500D02*
X102799500Y-63185000D01*
X102750000Y-64685000D02*
X102750000Y-63234500D01*
%TO.N,/EPD Power Rails/vddh_drv_0*%
X109751252Y-60848748D02*
X111000000Y-59600000D01*
X108713752Y-60848748D02*
X109751252Y-60848748D01*
X113750000Y-59600000D02*
X111000000Y-59600000D01*
%TO.N,/EPD Power Rails/VDDH_DRV*%
X103815000Y-66685000D02*
X104250000Y-66250000D01*
X104250000Y-62250000D02*
X105500000Y-61000000D01*
X105500000Y-61000000D02*
X107012500Y-61000000D01*
X107012500Y-61000000D02*
X107163752Y-60848748D01*
X103185000Y-66685000D02*
X103815000Y-66685000D01*
X104250000Y-66250000D02*
X104250000Y-62250000D01*
%TO.N,/EPD Power Rails/VDDH_D*%
X103185000Y-67685000D02*
X103735406Y-67685000D01*
X108713752Y-62786248D02*
X108713752Y-62598748D01*
X110698748Y-62598748D02*
X111000000Y-62900000D01*
X103735406Y-67685000D02*
X105000000Y-66420406D01*
X105000000Y-64000000D02*
X105500000Y-63500000D01*
X108713752Y-62598748D02*
X110698748Y-62598748D01*
X105000000Y-66420406D02*
X105000000Y-64000000D01*
X105500000Y-63500000D02*
X108000000Y-63500000D01*
X108000000Y-63500000D02*
X108713752Y-62786248D01*
%TO.N,/EPD Power Rails/INT_LDO*%
X92635000Y-70250000D02*
X92450000Y-70435000D01*
X96315000Y-69685000D02*
X95315000Y-69685000D01*
X94750000Y-70250000D02*
X92635000Y-70250000D01*
X95315000Y-69685000D02*
X94750000Y-70250000D01*
%TO.N,/EPD Power Rails/VREF*%
X94000000Y-66685000D02*
X93500000Y-66185000D01*
X96315000Y-66685000D02*
X94000000Y-66685000D01*
X93500000Y-66185000D02*
X92450000Y-66185000D01*
%TO.N,/EPD Power Rails/VEE_DRV*%
X104935000Y-70685000D02*
X103185000Y-70685000D01*
X105935000Y-71685000D02*
X104935000Y-70685000D01*
X107163752Y-71685000D02*
X105935000Y-71685000D01*
%TO.N,/EPD Power Rails/vee_drv_0*%
X109750000Y-72750000D02*
X110900000Y-72750000D01*
X110900000Y-72750000D02*
X111000000Y-72650000D01*
X108713752Y-71713752D02*
X109750000Y-72750000D01*
X111000000Y-72650000D02*
X113750000Y-72650000D01*
X108713752Y-71685000D02*
X108713752Y-71713752D01*
%TO.N,/EPD Power Rails/VEE_D*%
X107888752Y-70760000D02*
X108713752Y-69935000D01*
X108713752Y-69935000D02*
X109398752Y-69250000D01*
X105949339Y-70760000D02*
X107888752Y-70760000D01*
X110900000Y-69250000D02*
X111000000Y-69350000D01*
X109398752Y-69250000D02*
X110900000Y-69250000D01*
X103185000Y-69685000D02*
X104874339Y-69685000D01*
X104874339Y-69685000D02*
X105949339Y-70760000D01*
%TO.N,+3.3VA*%
X62999479Y-69750000D02*
X63837500Y-69750000D01*
X61775000Y-70974479D02*
X62999479Y-69750000D01*
X61775000Y-73500000D02*
X61775000Y-71500000D01*
X61775000Y-71500000D02*
X61775000Y-70974479D01*
X61825000Y-75250000D02*
X61825000Y-73550000D01*
D50*
%TO.N,/NRST*%
X57500000Y-72500000D02*
X54000000Y-72500000D01*
X51750000Y-70250000D02*
X51750000Y-69775000D01*
X61175605Y-69581502D02*
X59918498Y-69581502D01*
X57925000Y-71575000D02*
X57925000Y-72075000D01*
X62007107Y-68750000D02*
X61175605Y-69581502D01*
X54000000Y-72500000D02*
X51750000Y-70250000D01*
X59918498Y-69581502D02*
X57925000Y-71575000D01*
X63837500Y-68750000D02*
X62007107Y-68750000D01*
X57925000Y-72075000D02*
X57500000Y-72500000D01*
D47*
%TO.N,/HSE_IN*%
X63837500Y-67750000D02*
X58649998Y-67750000D01*
X55650000Y-65025000D02*
X55625000Y-65000000D01*
X55650000Y-67049998D02*
X55650000Y-65025000D01*
X56600000Y-68099998D02*
X55650000Y-67149998D01*
X58649998Y-67750000D02*
X58300000Y-68099998D01*
X55650000Y-67149998D02*
X55650000Y-67049998D01*
X58300000Y-68099998D02*
X56600000Y-68099998D01*
%TO.N,/PWR_ON_LED*%
X52996800Y-74253200D02*
X53500000Y-73750000D01*
X53500000Y-73750000D02*
X55212500Y-73750000D01*
X55212500Y-73750000D02*
X55250000Y-73712500D01*
X52000000Y-74253200D02*
X52996800Y-74253200D01*
%TO.N,/EPD Power Rails/VB_SW*%
X99900000Y-57835000D02*
X102050000Y-57835000D01*
X101000000Y-66000000D02*
X101000000Y-65245661D01*
X101000000Y-65245661D02*
X102050000Y-64195661D01*
X98800000Y-56285000D02*
X98800000Y-56735000D01*
X98800000Y-56735000D02*
X99900000Y-57835000D01*
X102050000Y-64195661D02*
X102050000Y-57835000D01*
%TO.N,/EPD Power Rails/VN_SW*%
X107000000Y-75035000D02*
X107100000Y-74935000D01*
X107000000Y-77785000D02*
X107000000Y-75035000D01*
X104350000Y-72185000D02*
X107100000Y-74935000D01*
X103185000Y-72185000D02*
X104350000Y-72185000D01*
%TO.N,/EPD_CLK*%
X79315239Y-94795781D02*
X80330000Y-93781020D01*
X63837500Y-70250000D02*
X65250000Y-70250000D01*
X68500000Y-93500000D02*
X68750000Y-93750000D01*
X78363674Y-94795781D02*
X79315239Y-94795781D01*
X80330000Y-93781020D02*
X80330000Y-92750000D01*
X68750000Y-93750000D02*
X77317894Y-93750000D01*
X77317894Y-93750000D02*
X78363674Y-94795781D01*
%TO.N,/EPD_LE*%
X63206065Y-71250000D02*
X63837500Y-71250000D01*
X63075000Y-71801000D02*
X64024000Y-72750000D01*
X64331637Y-86945576D02*
X64886061Y-87500000D01*
X80630000Y-90550000D02*
X80630000Y-89750000D01*
X74250000Y-87500000D02*
X77350000Y-90600000D01*
X80580000Y-90600000D02*
X80630000Y-90550000D01*
X64886061Y-87500000D02*
X74250000Y-87500000D01*
X63075000Y-71750000D02*
X63075000Y-71381065D01*
X63075000Y-71381065D02*
X63206065Y-71250000D01*
X77350000Y-90600000D02*
X80580000Y-90600000D01*
X63075000Y-71750000D02*
X63075000Y-71801000D01*
%TO.N,/EPD_OE*%
X78156568Y-95295781D02*
X77110787Y-94250000D01*
X59250000Y-67000000D02*
X59750000Y-66500000D01*
X77110787Y-94250000D02*
X68000000Y-94250000D01*
X80930000Y-94259339D02*
X79893558Y-95295781D01*
X61563173Y-66250000D02*
X63837500Y-66250000D01*
X79893558Y-95295781D02*
X78156568Y-95295781D01*
X67250000Y-93500000D02*
X58750000Y-93500000D01*
X61313173Y-66500000D02*
X61563173Y-66250000D01*
X59750000Y-66500000D02*
X61313173Y-66500000D01*
X80930000Y-92750000D02*
X80930000Y-94259339D01*
X68000000Y-94250000D02*
X67250000Y-93500000D01*
%TO.N,/EPD_SPH*%
X62575000Y-71173959D02*
X62575000Y-72449500D01*
X82279500Y-93918363D02*
X82130000Y-93768863D01*
X76250500Y-94750000D02*
X76500000Y-94999500D01*
X63250000Y-94750000D02*
X76250500Y-94750000D01*
X62575000Y-72449500D02*
X62524500Y-72500000D01*
X82130000Y-93768863D02*
X82130000Y-92750000D01*
X63837500Y-70750000D02*
X62998959Y-70750000D01*
X62998959Y-70750000D02*
X62575000Y-71173959D01*
%TO.N,/D0*%
X82430000Y-88293939D02*
X82331637Y-88195576D01*
X64689339Y-66750000D02*
X63837500Y-66750000D01*
X72590385Y-91000000D02*
X72750000Y-90840385D01*
X68775834Y-91000000D02*
X72590385Y-91000000D01*
X82430000Y-89750000D02*
X82430000Y-88293939D01*
X65137550Y-66301789D02*
X64689339Y-66750000D01*
X67137917Y-89362083D02*
X68775834Y-91000000D01*
X65566070Y-66301789D02*
X65137550Y-66301789D01*
%TO.N,/D1*%
X82730000Y-92050000D02*
X82730000Y-92750000D01*
X64000000Y-88000000D02*
X72125000Y-88000000D01*
X63500000Y-87500000D02*
X64000000Y-88000000D01*
X75775000Y-91650000D02*
X82330000Y-91650000D01*
X82330000Y-91650000D02*
X82730000Y-92050000D01*
X65000000Y-67250000D02*
X65250000Y-67250000D01*
X63837500Y-67250000D02*
X65000000Y-67250000D01*
X72125000Y-88000000D02*
X75775000Y-91650000D01*
%TO.N,/D2*%
X83030000Y-89750000D02*
X83030000Y-88950000D01*
X83283402Y-88696598D02*
X83283402Y-87783402D01*
X69250000Y-86250000D02*
X67750000Y-84750000D01*
X83030000Y-88950000D02*
X83283402Y-88696598D01*
X67750000Y-84750000D02*
X67750000Y-72662500D01*
X83283402Y-87783402D02*
X82750000Y-87250000D01*
X73750000Y-86250000D02*
X69250000Y-86250000D01*
%TO.N,/D3*%
X69029977Y-84029977D02*
X69220023Y-84029977D01*
X73750000Y-88250000D02*
X76650000Y-91150000D01*
X68250000Y-83250000D02*
X69029977Y-84029977D01*
X83330000Y-91942894D02*
X83330000Y-92750000D01*
X68250000Y-72662500D02*
X68250000Y-83250000D01*
X76650000Y-91150000D02*
X82537106Y-91150000D01*
X82537106Y-91150000D02*
X83330000Y-91942894D01*
%TO.N,/D4*%
X68750000Y-82000500D02*
X68750000Y-73000000D01*
X68999500Y-82250000D02*
X68750000Y-82000500D01*
X83630000Y-89750000D02*
X83630000Y-90496830D01*
X83630000Y-90496830D02*
X83286945Y-90839885D01*
%TO.N,/D5*%
X84410376Y-91160376D02*
X83929487Y-91641265D01*
X83930000Y-92000513D02*
X83930000Y-92750000D01*
X69750000Y-64337500D02*
X69750000Y-65750000D01*
X69750000Y-65750000D02*
X70000000Y-66000000D01*
X83929487Y-92000000D02*
X83930000Y-92000513D01*
X83929487Y-91641265D02*
X83929487Y-92000000D01*
%TO.N,/D6*%
X69250000Y-64337500D02*
X69250000Y-66386061D01*
X84230000Y-87568173D02*
X84230000Y-89750000D01*
X69250000Y-66386061D02*
X69081637Y-66554424D01*
X83750000Y-85250000D02*
X83750000Y-87088173D01*
X83750000Y-87088173D02*
X84230000Y-87568173D01*
%TO.N,/D7*%
X84530000Y-92100707D02*
X84530000Y-92750000D01*
X85500000Y-91130707D02*
X84530000Y-92100707D01*
X85500000Y-91000000D02*
X85500000Y-91130707D01*
X68750000Y-65500000D02*
X68250000Y-66000000D01*
X68750000Y-64337500D02*
X68750000Y-65500000D01*
%TO.N,/EPD_GMODE*%
X67250000Y-66217951D02*
X67250000Y-67750000D01*
X86930000Y-92750000D02*
X86930000Y-91320000D01*
X66750000Y-64337500D02*
X66750000Y-65717951D01*
X87230000Y-91020000D02*
X87230000Y-89750000D01*
X86930000Y-91320000D02*
X87230000Y-91020000D01*
X66750000Y-65717951D02*
X67250000Y-66217951D01*
%TO.N,/EPD_SPV*%
X66250000Y-65925058D02*
X66500000Y-66175058D01*
X89930000Y-92070000D02*
X90250000Y-91750000D01*
X88430000Y-89750000D02*
X88430000Y-90930000D01*
X66250000Y-64337500D02*
X66250000Y-65925058D01*
X89930000Y-92750000D02*
X89930000Y-92070000D01*
X66500000Y-66175058D02*
X66500000Y-68309808D01*
X88430000Y-90930000D02*
X88500000Y-91000000D01*
X66500000Y-68309808D02*
X66249500Y-68560308D01*
%TO.N,/EPD_CKV*%
X69924099Y-79407038D02*
X69250000Y-78732939D01*
X90810661Y-89750000D02*
X91030331Y-89530331D01*
X90230000Y-90550000D02*
X90230000Y-89750000D01*
X90230000Y-90330661D02*
X90530331Y-90030331D01*
X90230000Y-90550000D02*
X90230000Y-90330661D01*
X69250000Y-78732939D02*
X69250000Y-72662500D01*
X91529977Y-89030685D02*
X91030331Y-89530331D01*
X91000000Y-87250000D02*
X91529977Y-87779977D01*
X88730000Y-92050000D02*
X90230000Y-90550000D01*
X90510331Y-90030331D02*
X90230000Y-89750000D01*
X90230000Y-89750000D02*
X90230000Y-89270000D01*
X90530331Y-90030331D02*
X90810661Y-89750000D01*
X90230000Y-89750000D02*
X90810661Y-89750000D01*
X91030331Y-89530331D02*
X90490331Y-89530331D01*
X91529977Y-87779977D02*
X91529977Y-89030685D01*
X88730000Y-92750000D02*
X88730000Y-92050000D01*
X90530331Y-90030331D02*
X90510331Y-90030331D01*
X90490331Y-89530331D02*
X90230000Y-89270000D01*
%TO.N,/SPI1_MOSI*%
X60750000Y-85050000D02*
X59887500Y-85050000D01*
X67250000Y-77000000D02*
X59887500Y-84362500D01*
X59887500Y-84500000D02*
X59887500Y-85050000D01*
X60437500Y-85050000D02*
X59887500Y-84500000D01*
X62503200Y-85753200D02*
X61800000Y-85050000D01*
X59887500Y-84362500D02*
X59887500Y-84500000D01*
X60750000Y-85050000D02*
X60437500Y-85050000D01*
X61800000Y-85050000D02*
X60750000Y-85050000D01*
X62503200Y-91500000D02*
X62503200Y-85753200D01*
X67250000Y-77000000D02*
X67250000Y-72662500D01*
%TO.N,/SPI1_MISO*%
X66750000Y-76500000D02*
X66750000Y-72662500D01*
X60500000Y-86950000D02*
X61450000Y-86950000D01*
X61989453Y-81200593D02*
X62049407Y-81200593D01*
X59963200Y-87025700D02*
X59887500Y-86950000D01*
X59963200Y-87500000D02*
X59963200Y-87486800D01*
X59887500Y-86950000D02*
X60500000Y-86950000D01*
X59963200Y-91500000D02*
X59963200Y-87500000D01*
X59963200Y-87500000D02*
X59963200Y-87025700D01*
X59963200Y-87486800D02*
X60500000Y-86950000D01*
X61450000Y-86950000D02*
X61500000Y-87000000D01*
X62049407Y-81200593D02*
X66750000Y-76500000D01*
%TO.N,/SPI1_SCK*%
X57612500Y-85050000D02*
X57612500Y-84500000D01*
X57050000Y-85050000D02*
X57612500Y-85050000D01*
X57000000Y-85000000D02*
X57050000Y-85050000D01*
X57500000Y-84500000D02*
X57000000Y-85000000D01*
X57612500Y-83576839D02*
X58439339Y-82750000D01*
X57423200Y-91500000D02*
X57423200Y-89673200D01*
X57423200Y-89673200D02*
X57279977Y-89529977D01*
X56000000Y-85000000D02*
X57000000Y-85000000D01*
X57612500Y-84500000D02*
X57500000Y-84500000D01*
X66250000Y-75750000D02*
X66250000Y-72662500D01*
X59250000Y-82750000D02*
X66250000Y-75750000D01*
X57612500Y-84500000D02*
X57612500Y-83576839D01*
X58439339Y-82750000D02*
X59250000Y-82750000D01*
%TO.N,/~{SPI1_CS}*%
X57500000Y-82250000D02*
X58500000Y-82250000D01*
X55250000Y-84500000D02*
X55625000Y-84125000D01*
X56000000Y-83750000D02*
X55625000Y-84125000D01*
X65750000Y-75310661D02*
X58810661Y-82250000D01*
X56000000Y-83750000D02*
X57500000Y-82250000D01*
X54883200Y-91500000D02*
X54883200Y-90616800D01*
X54883200Y-90616800D02*
X57612500Y-87887500D01*
X65750000Y-72662500D02*
X65750000Y-75310661D01*
X58810661Y-82250000D02*
X58500000Y-82250000D01*
X57612500Y-87887500D02*
X57612500Y-86950000D01*
%TO.N,/USART1_TX*%
X72162500Y-68250000D02*
X75500000Y-68250000D01*
X78750000Y-65000000D02*
X81500000Y-65000000D01*
X81500000Y-65000000D02*
X86100000Y-60400000D01*
X75500000Y-68250000D02*
X78750000Y-65000000D01*
X86100000Y-60400000D02*
X86100000Y-57137500D01*
%TO.N,/SWCLK*%
X69550000Y-62050000D02*
X70750000Y-63250000D01*
X70750000Y-63250000D02*
X70750000Y-64337500D01*
X69550000Y-57025000D02*
X69550000Y-62050000D01*
%TO.N,/SWDIO*%
X71450000Y-65123959D02*
X71000000Y-65573959D01*
X71450000Y-57025000D02*
X71450000Y-65123959D01*
X71000000Y-66426041D02*
X71323959Y-66750000D01*
X71323959Y-66750000D02*
X72162500Y-66750000D01*
X71000000Y-65573959D02*
X71000000Y-66426041D01*
%TO.N,/EPD Power Rails/VDDH_FB*%
X107698752Y-66250000D02*
X108763752Y-65185000D01*
X103185000Y-68185000D02*
X104065000Y-68185000D01*
X110277500Y-65185000D02*
X110363752Y-65098748D01*
X108763752Y-65185000D02*
X110277500Y-65185000D01*
X106000000Y-66250000D02*
X107698752Y-66250000D01*
X104065000Y-68185000D02*
X106000000Y-66250000D01*
%TO.N,Net-(R3-Pad1)*%
X52000000Y-82000000D02*
X52500000Y-81500000D01*
X52500000Y-81500000D02*
X55175000Y-81500000D01*
X52000000Y-83053200D02*
X52000000Y-82000000D01*
X55175000Y-81500000D02*
X55250000Y-81575000D01*
%TO.N,/EPD Power Rails/TS*%
X89325000Y-63935000D02*
X95985406Y-63935000D01*
X89325000Y-62185000D02*
X89325000Y-63935000D01*
X95985406Y-63935000D02*
X97500000Y-65449594D01*
X97500000Y-65449594D02*
X97500000Y-66000000D01*
%TO.N,/HSE_OUT*%
X63837500Y-68250000D02*
X61575000Y-68250000D01*
X61575000Y-68250000D02*
X61075000Y-68750000D01*
%TO.N,/TPS_~{INT}*%
X85461142Y-65133528D02*
X80769670Y-69825000D01*
X78000000Y-69825000D02*
X77925000Y-69750000D01*
X96315000Y-67185000D02*
X90476472Y-67185000D01*
X80769670Y-69825000D02*
X78000000Y-69825000D01*
X77925000Y-69750000D02*
X72162500Y-69750000D01*
X88425000Y-65133528D02*
X85461142Y-65133528D01*
X88425000Y-60060000D02*
X88300000Y-59935000D01*
X88425000Y-65133528D02*
X88425000Y-60060000D01*
X90476472Y-67185000D02*
X88425000Y-65133528D01*
%TO.N,/TPS_PWRGOOD*%
X102250000Y-76500000D02*
X102250000Y-77000000D01*
X102250000Y-76750000D02*
X102250000Y-77000000D01*
X102250000Y-78000000D02*
X102250000Y-79935000D01*
X102250000Y-74500000D02*
X102250000Y-75750000D01*
X102250000Y-77000000D02*
X102250000Y-78000000D01*
X102250000Y-76250000D02*
X102250000Y-76500000D01*
X102250000Y-77250000D02*
X102250000Y-78000000D01*
X102000000Y-72870000D02*
X102000000Y-74250000D01*
X101875000Y-76875000D02*
X101500000Y-77250000D01*
X102250000Y-75750000D02*
X102250000Y-76250000D01*
X102000000Y-77250000D02*
X102000000Y-77000000D01*
X101750000Y-77250000D02*
X102250000Y-76750000D01*
X101750000Y-77250000D02*
X102000000Y-77250000D01*
X83500000Y-76000000D02*
X79425000Y-71925000D01*
X77175000Y-71925000D02*
X75500000Y-70250000D01*
X102000000Y-77000000D02*
X101875000Y-76875000D01*
X78000000Y-71925000D02*
X77175000Y-71925000D01*
X102000000Y-74250000D02*
X102250000Y-74500000D01*
X79425000Y-71925000D02*
X78000000Y-71925000D01*
X75500000Y-70250000D02*
X72162500Y-70250000D01*
X102250000Y-76500000D02*
X101875000Y-76875000D01*
X102000000Y-77250000D02*
X102250000Y-77250000D01*
X101500000Y-77250000D02*
X101750000Y-77250000D01*
%TO.N,/EPD Power Rails/VEE_FB*%
X106021447Y-68500000D02*
X107342500Y-68500000D01*
X107342500Y-68500000D02*
X108407500Y-67435000D01*
X110507500Y-67435000D02*
X108407500Y-67435000D01*
X103185000Y-69185000D02*
X105336447Y-69185000D01*
X105336447Y-69185000D02*
X106021447Y-68500000D01*
%TO.N,/SW_BOOT0*%
X63500000Y-58500000D02*
X52312500Y-58500000D01*
%TO.N,/BOOT0*%
X67250000Y-60600000D02*
X67250000Y-64337500D01*
X65150000Y-58500000D02*
X67250000Y-60600000D01*
%TO.N,/I2C1_SCL*%
X76875000Y-63375000D02*
X77150000Y-63650000D01*
X77150000Y-63650000D02*
X79000000Y-63650000D01*
X68250000Y-64337500D02*
X68250000Y-63498959D01*
X68741055Y-63007904D02*
X68924668Y-63007904D01*
X80750000Y-80000000D02*
X80750000Y-78000500D01*
X99000000Y-72870000D02*
X99000000Y-75250000D01*
X93250000Y-80250000D02*
X87750000Y-80250000D01*
X68250000Y-63498959D02*
X68741055Y-63007904D01*
X81000000Y-64000000D02*
X80650000Y-63650000D01*
X81250000Y-64000000D02*
X81000000Y-64000000D01*
X80650000Y-63650000D02*
X79000000Y-63650000D01*
%TO.N,/I2C1_SDA*%
X99500000Y-74689339D02*
X100000000Y-75189339D01*
X67750000Y-64337500D02*
X67750000Y-62750000D01*
X100000000Y-75189339D02*
X100000000Y-75250000D01*
X74750000Y-62250000D02*
X76400000Y-62250000D01*
X67750000Y-62750000D02*
X68000000Y-62500000D01*
X93250000Y-81250000D02*
X87750000Y-81250000D01*
X77750000Y-62250000D02*
X76600000Y-62250000D01*
X76400000Y-62250000D02*
X76500000Y-62150000D01*
X79500000Y-78000500D02*
X79500000Y-80250000D01*
X99500000Y-72870000D02*
X99500000Y-74689339D01*
X76600000Y-62250000D02*
X76500000Y-62150000D01*
%TO.N,+15V*%
X82500000Y-82000000D02*
X82250000Y-81750000D01*
X85175500Y-82000000D02*
X82500000Y-82000000D01*
X82500000Y-82000000D02*
X82250000Y-82000000D01*
X95250000Y-59950000D02*
X94050000Y-58750000D01*
X91402695Y-73734197D02*
X90015803Y-73734197D01*
X78750000Y-86000000D02*
X77750000Y-87000000D01*
X82250000Y-81750000D02*
X82250000Y-81500000D01*
X95250000Y-61250000D02*
X95250000Y-61500000D01*
X79430000Y-88680000D02*
X79430000Y-89250000D01*
X82250000Y-82000000D02*
X81750000Y-82000000D01*
X95250000Y-61500500D02*
X94250000Y-62500500D01*
X90015803Y-73734197D02*
X82250000Y-81500000D01*
X97290000Y-82500000D02*
X87250000Y-82500000D01*
X106290000Y-91500000D02*
X97290000Y-82500000D01*
X81750000Y-82000000D02*
X78750000Y-85000000D01*
X82250000Y-81500000D02*
X81750000Y-82000000D01*
X99000000Y-66000000D02*
X99000000Y-63935000D01*
X78750000Y-85000000D02*
X78750000Y-86000000D01*
X82250000Y-81500000D02*
X82250000Y-82000000D01*
X99000000Y-63935000D02*
X98250000Y-63185000D01*
X95250000Y-61250000D02*
X95250000Y-59950000D01*
X77750000Y-87000000D02*
X79430000Y-88680000D01*
X98250000Y-63185000D02*
X96750000Y-63185000D01*
X79430000Y-89750000D02*
X79430000Y-89250000D01*
X85675500Y-82500000D02*
X85175500Y-82000000D01*
X96750000Y-63185000D02*
X95250000Y-61685000D01*
X95250000Y-61250000D02*
X95250000Y-61500500D01*
%TO.N,/TPS_WAKEUP*%
X70750000Y-77250000D02*
X69750000Y-76250000D01*
X96315000Y-68685000D02*
X92999500Y-68685000D01*
X84750000Y-77250000D02*
X70750000Y-77250000D01*
X86500000Y-75500000D02*
X84750000Y-77250000D01*
X86900500Y-71000000D02*
X86500000Y-71400500D01*
X92999500Y-68685000D02*
X90749500Y-68685000D01*
X86500000Y-71400500D02*
X86500000Y-75500000D01*
X90749500Y-68685000D02*
X90500000Y-68934500D01*
X69750000Y-76250000D02*
X69750000Y-72662500D01*
%TO.N,/TPS_VCOM_CTRL*%
X93250000Y-74500000D02*
X90309954Y-74500000D01*
X72162500Y-70750000D02*
X73707106Y-70750000D01*
X90309954Y-74500000D02*
X89779977Y-75029977D01*
X96315000Y-72185000D02*
X95565000Y-72185000D01*
X95565000Y-72185000D02*
X93250000Y-74500000D01*
X76250000Y-76750000D02*
X84000000Y-76750000D01*
X84000000Y-76750000D02*
X85750000Y-75000000D01*
X74500000Y-75000000D02*
X76250000Y-76750000D01*
X73707106Y-70750000D02*
X74500000Y-71542894D01*
X74500000Y-71542894D02*
X74500000Y-75000000D01*
%TO.N,/TPS_PWRUP*%
X92207107Y-77000000D02*
X92922107Y-76285000D01*
X74000000Y-76500000D02*
X74000000Y-71750000D01*
X92922107Y-76285000D02*
X100215000Y-76285000D01*
X87242227Y-78317727D02*
X88559954Y-77000000D01*
X73500000Y-71250000D02*
X72162500Y-71250000D01*
X74000000Y-71750000D02*
X73500000Y-71250000D01*
X88559954Y-77000000D02*
X92207107Y-77000000D01*
X101000000Y-75500000D02*
X101000000Y-72870000D01*
D48*
%TO.N,/HSE_OUT_CRYSTAL*%
X58499998Y-69249998D02*
X57350000Y-69249998D01*
D47*
X57350000Y-70650000D02*
X57350000Y-69249998D01*
X57175000Y-70825000D02*
X57350000Y-70650000D01*
D48*
X58500000Y-69250000D02*
X58499998Y-69249998D01*
D47*
X57175000Y-71500000D02*
X57175000Y-70825000D01*
D48*
X59175000Y-68750000D02*
X59000000Y-68750000D01*
X59000000Y-68750000D02*
X58500000Y-69250000D01*
D47*
%TO.N,-15V*%
X87500000Y-75500000D02*
X84375000Y-78625000D01*
X82750000Y-78750000D02*
X83750000Y-78750000D01*
X84250000Y-78750000D02*
X84375000Y-78625000D01*
X76050000Y-92750000D02*
X76000000Y-92750000D01*
X79130000Y-93100000D02*
X79130000Y-92750000D01*
X77025000Y-92750000D02*
X77575000Y-93300000D01*
X84375000Y-78625000D02*
X84000000Y-79000000D01*
X82000000Y-79500000D02*
X82750000Y-78750000D01*
X96315000Y-67685000D02*
X89200000Y-67685000D01*
X83750000Y-78750000D02*
X84000000Y-79000000D01*
X77575000Y-93300000D02*
X78930000Y-93300000D01*
X83750000Y-78750000D02*
X84250000Y-78750000D01*
X70750000Y-84500000D02*
X69845023Y-85404977D01*
X78930000Y-93300000D02*
X79130000Y-93100000D01*
X87650000Y-68235000D02*
X88700000Y-67185000D01*
X76000000Y-92750000D02*
X72000000Y-88750000D01*
X87650000Y-68235000D02*
X87650000Y-72600000D01*
X87650000Y-72600000D02*
X87500000Y-72750000D01*
X87500000Y-72750000D02*
X87500000Y-75500000D01*
X78500000Y-84500000D02*
X70750000Y-84500000D01*
X89200000Y-67685000D02*
X88700000Y-67185000D01*
X84000000Y-79000000D02*
X78500000Y-84500000D01*
X76050000Y-92750000D02*
X77025000Y-92750000D01*
X72000000Y-88750000D02*
X71250000Y-88750000D01*
%TO.N,+22V*%
X90524500Y-95250500D02*
X93000000Y-92775000D01*
X116000000Y-63500000D02*
X114000000Y-65500000D01*
X113800000Y-62950000D02*
X113750000Y-62900000D01*
X113100000Y-62900000D02*
X112013752Y-63986248D01*
X85730000Y-93980000D02*
X87000500Y-95250500D01*
X112013752Y-63986248D02*
X112013752Y-65098748D01*
X87000500Y-95250500D02*
X90524500Y-95250500D01*
X116000000Y-62950000D02*
X113800000Y-62950000D01*
X85730000Y-92750000D02*
X85730000Y-93980000D01*
X93000000Y-92775000D02*
X107555000Y-92775000D01*
X114000000Y-65500000D02*
X114000000Y-67000000D01*
X116000000Y-62950000D02*
X116000000Y-63500000D01*
X113750000Y-62900000D02*
X113100000Y-62900000D01*
X107555000Y-92775000D02*
X108830000Y-91500000D01*
%TO.N,VCOM*%
X86425000Y-85625000D02*
X86425000Y-83500000D01*
X86675000Y-83250000D02*
X86425000Y-83000000D01*
X97092894Y-74385000D02*
X95850000Y-74385000D01*
X86675000Y-83250000D02*
X87000000Y-83250000D01*
X86750000Y-83250000D02*
X86675000Y-83250000D01*
X98000000Y-72870000D02*
X98000000Y-73477894D01*
X85000000Y-88250000D02*
X85000000Y-87050000D01*
X92565000Y-75935000D02*
X91050000Y-75935000D01*
X86425000Y-83500000D02*
X86425000Y-83250000D01*
X93265000Y-75235000D02*
X92565000Y-75935000D01*
X86425000Y-78075000D02*
X88565000Y-75935000D01*
X88565000Y-75935000D02*
X91050000Y-75935000D01*
X103750000Y-91500000D02*
X95500000Y-83250000D01*
X85000000Y-87050000D02*
X86425000Y-85625000D01*
X95500000Y-83250000D02*
X87000000Y-83250000D01*
X85430000Y-88680000D02*
X85000000Y-88250000D01*
X86425000Y-83250000D02*
X86425000Y-83000000D01*
X86750000Y-83250000D02*
X86425000Y-83250000D01*
X86425000Y-83000000D02*
X86425000Y-78075000D01*
X87000000Y-83250000D02*
X86750000Y-83250000D01*
X95000000Y-75235000D02*
X93265000Y-75235000D01*
X86425000Y-83500000D02*
X86675000Y-83250000D01*
X95850000Y-74385000D02*
X95000000Y-75235000D01*
X98000000Y-73477894D02*
X97092894Y-74385000D01*
X85430000Y-89750000D02*
X85430000Y-88680000D01*
%TO.N,-20V*%
X116050000Y-69350000D02*
X116250000Y-69550000D01*
X87250000Y-87500000D02*
X87250000Y-87025000D01*
X116250000Y-69550000D02*
X117700000Y-69550000D01*
X116000000Y-68500000D02*
X116000000Y-67000000D01*
X86030000Y-89750000D02*
X86030000Y-88720000D01*
X96750000Y-91939339D02*
X91310661Y-86500000D01*
X96750000Y-92025500D02*
X96750000Y-91939339D01*
X87775000Y-86500000D02*
X87250000Y-87025000D01*
X117700000Y-69550000D02*
X117750000Y-69500000D01*
X116250000Y-68750000D02*
X116000000Y-68500000D01*
X91310661Y-86500000D02*
X87775000Y-86500000D01*
X113750000Y-69350000D02*
X113750000Y-69171248D01*
X113750000Y-69171248D02*
X112013752Y-67435000D01*
X113910000Y-91500000D02*
X111885500Y-93524500D01*
X111885500Y-93524500D02*
X98750000Y-93524500D01*
X116250000Y-69550000D02*
X116250000Y-68750000D01*
X113750000Y-69350000D02*
X116050000Y-69350000D01*
X86030000Y-88720000D02*
X87250000Y-87500000D01*
%TO.N,+3.3V_{EPD}*%
X92000000Y-62750000D02*
X91564500Y-63185500D01*
X90750000Y-93750000D02*
X89680000Y-93750000D01*
X90072871Y-88720023D02*
X89630000Y-89162894D01*
X87154977Y-94345023D02*
X87154977Y-94034862D01*
X81830000Y-89080000D02*
X81500000Y-88750000D01*
X92000000Y-62750000D02*
X92000000Y-62250000D01*
X92000000Y-62750000D02*
X92500000Y-62750000D01*
X81230000Y-89750000D02*
X81230000Y-89020000D01*
X98000000Y-65242488D02*
X96007512Y-63250000D01*
X98000000Y-66000000D02*
X98000000Y-65242488D01*
X87154977Y-94034862D02*
X87530000Y-93659839D01*
X89630000Y-89162894D02*
X89630000Y-89750000D01*
X92000000Y-62250000D02*
X91875000Y-62125000D01*
X80025000Y-87000000D02*
X80000000Y-87025000D01*
X92500000Y-62750000D02*
X92625000Y-62875000D01*
X91564500Y-63185500D02*
X91500000Y-63185500D01*
X81230000Y-89020000D02*
X81500000Y-88750000D01*
X92250000Y-62500000D02*
X91875000Y-62125000D01*
X92250000Y-62500000D02*
X92000000Y-62750000D01*
X89330000Y-93400000D02*
X89330000Y-92750000D01*
X93000000Y-63250000D02*
X92625000Y-62875000D01*
X87830000Y-88250000D02*
X87830000Y-89750000D01*
X80030000Y-89750000D02*
X80030000Y-87055000D01*
X92625000Y-62875000D02*
X92250000Y-62500000D01*
X81250000Y-87000000D02*
X80025000Y-87000000D01*
X89680000Y-93750000D02*
X89330000Y-93400000D01*
X81830000Y-89750000D02*
X81830000Y-89080000D01*
X96007512Y-63250000D02*
X93000000Y-63250000D01*
X90779977Y-88720023D02*
X90072871Y-88720023D01*
X87530000Y-93659839D02*
X87530000Y-92750000D01*
X80030000Y-87055000D02*
X80000000Y-87025000D01*
%TO.N,/EPD Power Rails/VN*%
X98500000Y-70685000D02*
X99750000Y-69435000D01*
X101500000Y-72870000D02*
X101500000Y-71185000D01*
X101500000Y-71185000D02*
X99750000Y-69435000D01*
X89815000Y-68185000D02*
X88700000Y-69300000D01*
X97250000Y-75235000D02*
X97250000Y-74935000D01*
X98500000Y-68185000D02*
X96315000Y-68185000D01*
X96315000Y-68185000D02*
X89815000Y-68185000D01*
X102000000Y-71685000D02*
X99750000Y-69435000D01*
X109215000Y-73750000D02*
X110400000Y-74935000D01*
X103185000Y-71685000D02*
X102000000Y-71685000D01*
X110400000Y-74935000D02*
X112350000Y-74935000D01*
X99750000Y-69435000D02*
X98500000Y-68185000D01*
X98500000Y-73685000D02*
X98500000Y-72870000D01*
X98500000Y-72870000D02*
X98500000Y-70685000D01*
X97250000Y-74935000D02*
X98500000Y-73685000D01*
X107000000Y-73750000D02*
X109215000Y-73750000D01*
X103185000Y-71685000D02*
X104935000Y-71685000D01*
X104935000Y-71685000D02*
X107000000Y-73750000D01*
X103185000Y-71185000D02*
X101500000Y-71185000D01*
X88700000Y-69300000D02*
X88700000Y-69435000D01*
%TO.N,/USART1_TX_conn*%
X86960000Y-52140000D02*
X86960000Y-51250000D01*
X86100000Y-53000000D02*
X86960000Y-52140000D01*
X86100000Y-54862500D02*
X86100000Y-53000000D01*
%TO.N,/USART1_RX_conn*%
X88000000Y-54862500D02*
X88000000Y-53750000D01*
X88000000Y-53750000D02*
X89500000Y-52250000D01*
X89500000Y-52250000D02*
X89500000Y-51250000D01*
%TO.N,/SWDIO_conn*%
X71450000Y-54750000D02*
X71450000Y-53550000D01*
X71450000Y-53550000D02*
X71780000Y-53220000D01*
X71780000Y-53220000D02*
X71780000Y-51225000D01*
%TO.N,/SWCLK_conn*%
X69550000Y-54750000D02*
X69550000Y-53550000D01*
X69550000Y-53550000D02*
X69240000Y-53240000D01*
X69240000Y-53240000D02*
X69240000Y-51225000D01*
%TD*%
%TA.AperFunction,Conductor*%
%TO.N,/EPD Power Rails/VB*%
G36*
X99871091Y-58819439D02*
G01*
X99911319Y-58846319D01*
X101663181Y-60598181D01*
X101690061Y-60638409D01*
X101699500Y-60685862D01*
X101699500Y-62778397D01*
X101688156Y-62830211D01*
X101656198Y-62872545D01*
X100431896Y-63921945D01*
X100426686Y-63926172D01*
X100321716Y-64006719D01*
X100307910Y-64024711D01*
X100290237Y-64043366D01*
X100125000Y-64185000D01*
X100125000Y-66436000D01*
X100108387Y-66498000D01*
X100063000Y-66543387D01*
X100001000Y-66560000D01*
X99499000Y-66560000D01*
X99437000Y-66543387D01*
X99391613Y-66498000D01*
X99375000Y-66436000D01*
X99375000Y-63810000D01*
X98153741Y-62344489D01*
X98132406Y-62307319D01*
X98125000Y-62265106D01*
X98125000Y-58934000D01*
X98141613Y-58872000D01*
X98187000Y-58826613D01*
X98249000Y-58810000D01*
X99823638Y-58810000D01*
X99871091Y-58819439D01*
G37*
%TD.AperFunction*%
%TD*%
M02*
