G04 #@! TF.GenerationSoftware,KiCad,Pcbnew,7.0.1*
G04 #@! TF.CreationDate,2023-04-23T22:32:46+02:00*
G04 #@! TF.ProjectId,ED060SC4_SPI_driver_board,45443036-3053-4433-945f-5350495f6472,rev?*
G04 #@! TF.SameCoordinates,Original*
G04 #@! TF.FileFunction,Legend,Bot*
G04 #@! TF.FilePolarity,Positive*
%FSLAX46Y46*%
G04 Gerber Fmt 4.6, Leading zero omitted, Abs format (unit mm)*
G04 Created by KiCad (PCBNEW 7.0.1) date 2023-04-23 22:32:46*
%MOMM*%
%LPD*%
G01*
G04 APERTURE LIST*
%ADD10C,0.250000*%
%ADD11C,0.600000*%
%ADD12R,1.700000X1.700000*%
%ADD13O,1.700000X1.700000*%
%ADD14R,1.308000X1.308000*%
%ADD15C,1.308000*%
%ADD16O,2.460000X1.230000*%
G04 APERTURE END LIST*
D10*
X116690476Y-56377619D02*
X117023809Y-55901428D01*
X117261904Y-56377619D02*
X117261904Y-55377619D01*
X117261904Y-55377619D02*
X116880952Y-55377619D01*
X116880952Y-55377619D02*
X116785714Y-55425238D01*
X116785714Y-55425238D02*
X116738095Y-55472857D01*
X116738095Y-55472857D02*
X116690476Y-55568095D01*
X116690476Y-55568095D02*
X116690476Y-55710952D01*
X116690476Y-55710952D02*
X116738095Y-55806190D01*
X116738095Y-55806190D02*
X116785714Y-55853809D01*
X116785714Y-55853809D02*
X116880952Y-55901428D01*
X116880952Y-55901428D02*
X117261904Y-55901428D01*
X115880952Y-56330000D02*
X115976190Y-56377619D01*
X115976190Y-56377619D02*
X116166666Y-56377619D01*
X116166666Y-56377619D02*
X116261904Y-56330000D01*
X116261904Y-56330000D02*
X116309523Y-56234761D01*
X116309523Y-56234761D02*
X116309523Y-55853809D01*
X116309523Y-55853809D02*
X116261904Y-55758571D01*
X116261904Y-55758571D02*
X116166666Y-55710952D01*
X116166666Y-55710952D02*
X115976190Y-55710952D01*
X115976190Y-55710952D02*
X115880952Y-55758571D01*
X115880952Y-55758571D02*
X115833333Y-55853809D01*
X115833333Y-55853809D02*
X115833333Y-55949047D01*
X115833333Y-55949047D02*
X116309523Y-56044285D01*
X115499999Y-55710952D02*
X115261904Y-56377619D01*
X115261904Y-56377619D02*
X115023809Y-55710952D01*
X114642856Y-56377619D02*
X114642856Y-55710952D01*
X114642856Y-55377619D02*
X114690475Y-55425238D01*
X114690475Y-55425238D02*
X114642856Y-55472857D01*
X114642856Y-55472857D02*
X114595237Y-55425238D01*
X114595237Y-55425238D02*
X114642856Y-55377619D01*
X114642856Y-55377619D02*
X114642856Y-55472857D01*
X114214285Y-56330000D02*
X114119047Y-56377619D01*
X114119047Y-56377619D02*
X113928571Y-56377619D01*
X113928571Y-56377619D02*
X113833333Y-56330000D01*
X113833333Y-56330000D02*
X113785714Y-56234761D01*
X113785714Y-56234761D02*
X113785714Y-56187142D01*
X113785714Y-56187142D02*
X113833333Y-56091904D01*
X113833333Y-56091904D02*
X113928571Y-56044285D01*
X113928571Y-56044285D02*
X114071428Y-56044285D01*
X114071428Y-56044285D02*
X114166666Y-55996666D01*
X114166666Y-55996666D02*
X114214285Y-55901428D01*
X114214285Y-55901428D02*
X114214285Y-55853809D01*
X114214285Y-55853809D02*
X114166666Y-55758571D01*
X114166666Y-55758571D02*
X114071428Y-55710952D01*
X114071428Y-55710952D02*
X113928571Y-55710952D01*
X113928571Y-55710952D02*
X113833333Y-55758571D01*
X113357142Y-56377619D02*
X113357142Y-55710952D01*
X113357142Y-55377619D02*
X113404761Y-55425238D01*
X113404761Y-55425238D02*
X113357142Y-55472857D01*
X113357142Y-55472857D02*
X113309523Y-55425238D01*
X113309523Y-55425238D02*
X113357142Y-55377619D01*
X113357142Y-55377619D02*
X113357142Y-55472857D01*
X112738095Y-56377619D02*
X112833333Y-56330000D01*
X112833333Y-56330000D02*
X112880952Y-56282380D01*
X112880952Y-56282380D02*
X112928571Y-56187142D01*
X112928571Y-56187142D02*
X112928571Y-55901428D01*
X112928571Y-55901428D02*
X112880952Y-55806190D01*
X112880952Y-55806190D02*
X112833333Y-55758571D01*
X112833333Y-55758571D02*
X112738095Y-55710952D01*
X112738095Y-55710952D02*
X112595238Y-55710952D01*
X112595238Y-55710952D02*
X112500000Y-55758571D01*
X112500000Y-55758571D02*
X112452381Y-55806190D01*
X112452381Y-55806190D02*
X112404762Y-55901428D01*
X112404762Y-55901428D02*
X112404762Y-56187142D01*
X112404762Y-56187142D02*
X112452381Y-56282380D01*
X112452381Y-56282380D02*
X112500000Y-56330000D01*
X112500000Y-56330000D02*
X112595238Y-56377619D01*
X112595238Y-56377619D02*
X112738095Y-56377619D01*
X111976190Y-55710952D02*
X111976190Y-56377619D01*
X111976190Y-55806190D02*
X111928571Y-55758571D01*
X111928571Y-55758571D02*
X111833333Y-55710952D01*
X111833333Y-55710952D02*
X111690476Y-55710952D01*
X111690476Y-55710952D02*
X111595238Y-55758571D01*
X111595238Y-55758571D02*
X111547619Y-55853809D01*
X111547619Y-55853809D02*
X111547619Y-56377619D01*
X109785714Y-56377619D02*
X110357142Y-56377619D01*
X110071428Y-56377619D02*
X110071428Y-55377619D01*
X110071428Y-55377619D02*
X110166666Y-55520476D01*
X110166666Y-55520476D02*
X110261904Y-55615714D01*
X110261904Y-55615714D02*
X110357142Y-55663333D01*
X116833333Y-57877619D02*
X116833333Y-56877619D01*
X116833333Y-57830000D02*
X116928571Y-57877619D01*
X116928571Y-57877619D02*
X117119047Y-57877619D01*
X117119047Y-57877619D02*
X117214285Y-57830000D01*
X117214285Y-57830000D02*
X117261904Y-57782380D01*
X117261904Y-57782380D02*
X117309523Y-57687142D01*
X117309523Y-57687142D02*
X117309523Y-57401428D01*
X117309523Y-57401428D02*
X117261904Y-57306190D01*
X117261904Y-57306190D02*
X117214285Y-57258571D01*
X117214285Y-57258571D02*
X117119047Y-57210952D01*
X117119047Y-57210952D02*
X116928571Y-57210952D01*
X116928571Y-57210952D02*
X116833333Y-57258571D01*
X115976190Y-57830000D02*
X116071428Y-57877619D01*
X116071428Y-57877619D02*
X116261904Y-57877619D01*
X116261904Y-57877619D02*
X116357142Y-57830000D01*
X116357142Y-57830000D02*
X116404761Y-57734761D01*
X116404761Y-57734761D02*
X116404761Y-57353809D01*
X116404761Y-57353809D02*
X116357142Y-57258571D01*
X116357142Y-57258571D02*
X116261904Y-57210952D01*
X116261904Y-57210952D02*
X116071428Y-57210952D01*
X116071428Y-57210952D02*
X115976190Y-57258571D01*
X115976190Y-57258571D02*
X115928571Y-57353809D01*
X115928571Y-57353809D02*
X115928571Y-57449047D01*
X115928571Y-57449047D02*
X116404761Y-57544285D01*
X115547618Y-57830000D02*
X115452380Y-57877619D01*
X115452380Y-57877619D02*
X115261904Y-57877619D01*
X115261904Y-57877619D02*
X115166666Y-57830000D01*
X115166666Y-57830000D02*
X115119047Y-57734761D01*
X115119047Y-57734761D02*
X115119047Y-57687142D01*
X115119047Y-57687142D02*
X115166666Y-57591904D01*
X115166666Y-57591904D02*
X115261904Y-57544285D01*
X115261904Y-57544285D02*
X115404761Y-57544285D01*
X115404761Y-57544285D02*
X115499999Y-57496666D01*
X115499999Y-57496666D02*
X115547618Y-57401428D01*
X115547618Y-57401428D02*
X115547618Y-57353809D01*
X115547618Y-57353809D02*
X115499999Y-57258571D01*
X115499999Y-57258571D02*
X115404761Y-57210952D01*
X115404761Y-57210952D02*
X115261904Y-57210952D01*
X115261904Y-57210952D02*
X115166666Y-57258571D01*
X114690475Y-57877619D02*
X114690475Y-57210952D01*
X114690475Y-56877619D02*
X114738094Y-56925238D01*
X114738094Y-56925238D02*
X114690475Y-56972857D01*
X114690475Y-56972857D02*
X114642856Y-56925238D01*
X114642856Y-56925238D02*
X114690475Y-56877619D01*
X114690475Y-56877619D02*
X114690475Y-56972857D01*
X113785714Y-57210952D02*
X113785714Y-58020476D01*
X113785714Y-58020476D02*
X113833333Y-58115714D01*
X113833333Y-58115714D02*
X113880952Y-58163333D01*
X113880952Y-58163333D02*
X113976190Y-58210952D01*
X113976190Y-58210952D02*
X114119047Y-58210952D01*
X114119047Y-58210952D02*
X114214285Y-58163333D01*
X113785714Y-57830000D02*
X113880952Y-57877619D01*
X113880952Y-57877619D02*
X114071428Y-57877619D01*
X114071428Y-57877619D02*
X114166666Y-57830000D01*
X114166666Y-57830000D02*
X114214285Y-57782380D01*
X114214285Y-57782380D02*
X114261904Y-57687142D01*
X114261904Y-57687142D02*
X114261904Y-57401428D01*
X114261904Y-57401428D02*
X114214285Y-57306190D01*
X114214285Y-57306190D02*
X114166666Y-57258571D01*
X114166666Y-57258571D02*
X114071428Y-57210952D01*
X114071428Y-57210952D02*
X113880952Y-57210952D01*
X113880952Y-57210952D02*
X113785714Y-57258571D01*
X113309523Y-57210952D02*
X113309523Y-57877619D01*
X113309523Y-57306190D02*
X113261904Y-57258571D01*
X113261904Y-57258571D02*
X113166666Y-57210952D01*
X113166666Y-57210952D02*
X113023809Y-57210952D01*
X113023809Y-57210952D02*
X112928571Y-57258571D01*
X112928571Y-57258571D02*
X112880952Y-57353809D01*
X112880952Y-57353809D02*
X112880952Y-57877619D01*
X111642856Y-57877619D02*
X111642856Y-56877619D01*
X111642856Y-57258571D02*
X111547618Y-57210952D01*
X111547618Y-57210952D02*
X111357142Y-57210952D01*
X111357142Y-57210952D02*
X111261904Y-57258571D01*
X111261904Y-57258571D02*
X111214285Y-57306190D01*
X111214285Y-57306190D02*
X111166666Y-57401428D01*
X111166666Y-57401428D02*
X111166666Y-57687142D01*
X111166666Y-57687142D02*
X111214285Y-57782380D01*
X111214285Y-57782380D02*
X111261904Y-57830000D01*
X111261904Y-57830000D02*
X111357142Y-57877619D01*
X111357142Y-57877619D02*
X111547618Y-57877619D01*
X111547618Y-57877619D02*
X111642856Y-57830000D01*
X110833332Y-57210952D02*
X110595237Y-57877619D01*
X110357142Y-57210952D02*
X110595237Y-57877619D01*
X110595237Y-57877619D02*
X110690475Y-58115714D01*
X110690475Y-58115714D02*
X110738094Y-58163333D01*
X110738094Y-58163333D02*
X110833332Y-58210952D01*
X109214284Y-57877619D02*
X109214284Y-56877619D01*
X108785713Y-57877619D02*
X108785713Y-57353809D01*
X108785713Y-57353809D02*
X108833332Y-57258571D01*
X108833332Y-57258571D02*
X108928570Y-57210952D01*
X108928570Y-57210952D02*
X109071427Y-57210952D01*
X109071427Y-57210952D02*
X109166665Y-57258571D01*
X109166665Y-57258571D02*
X109214284Y-57306190D01*
X107880951Y-57877619D02*
X107880951Y-57353809D01*
X107880951Y-57353809D02*
X107928570Y-57258571D01*
X107928570Y-57258571D02*
X108023808Y-57210952D01*
X108023808Y-57210952D02*
X108214284Y-57210952D01*
X108214284Y-57210952D02*
X108309522Y-57258571D01*
X107880951Y-57830000D02*
X107976189Y-57877619D01*
X107976189Y-57877619D02*
X108214284Y-57877619D01*
X108214284Y-57877619D02*
X108309522Y-57830000D01*
X108309522Y-57830000D02*
X108357141Y-57734761D01*
X108357141Y-57734761D02*
X108357141Y-57639523D01*
X108357141Y-57639523D02*
X108309522Y-57544285D01*
X108309522Y-57544285D02*
X108214284Y-57496666D01*
X108214284Y-57496666D02*
X107976189Y-57496666D01*
X107976189Y-57496666D02*
X107880951Y-57449047D01*
X107547617Y-57210952D02*
X107166665Y-57210952D01*
X107404760Y-56877619D02*
X107404760Y-57734761D01*
X107404760Y-57734761D02*
X107357141Y-57830000D01*
X107357141Y-57830000D02*
X107261903Y-57877619D01*
X107261903Y-57877619D02*
X107166665Y-57877619D01*
X106833331Y-57877619D02*
X106833331Y-57210952D01*
X106833331Y-57401428D02*
X106785712Y-57306190D01*
X106785712Y-57306190D02*
X106738093Y-57258571D01*
X106738093Y-57258571D02*
X106642855Y-57210952D01*
X106642855Y-57210952D02*
X106547617Y-57210952D01*
X106214283Y-57877619D02*
X106214283Y-57210952D01*
X106214283Y-56877619D02*
X106261902Y-56925238D01*
X106261902Y-56925238D02*
X106214283Y-56972857D01*
X106214283Y-56972857D02*
X106166664Y-56925238D01*
X106166664Y-56925238D02*
X106214283Y-56877619D01*
X106214283Y-56877619D02*
X106214283Y-56972857D01*
X105833331Y-57877619D02*
X105309522Y-57210952D01*
X105833331Y-57210952D02*
X105309522Y-57877619D01*
X117214285Y-53724571D02*
X116814285Y-53724571D01*
X116642857Y-54353142D02*
X117214285Y-54353142D01*
X117214285Y-54353142D02*
X117214285Y-53153142D01*
X117214285Y-53153142D02*
X116642857Y-53153142D01*
X116128571Y-54353142D02*
X116128571Y-53153142D01*
X116128571Y-53153142D02*
X115842857Y-53153142D01*
X115842857Y-53153142D02*
X115671428Y-53210285D01*
X115671428Y-53210285D02*
X115557143Y-53324571D01*
X115557143Y-53324571D02*
X115500000Y-53438857D01*
X115500000Y-53438857D02*
X115442857Y-53667428D01*
X115442857Y-53667428D02*
X115442857Y-53838857D01*
X115442857Y-53838857D02*
X115500000Y-54067428D01*
X115500000Y-54067428D02*
X115557143Y-54181714D01*
X115557143Y-54181714D02*
X115671428Y-54296000D01*
X115671428Y-54296000D02*
X115842857Y-54353142D01*
X115842857Y-54353142D02*
X116128571Y-54353142D01*
X114700000Y-53153142D02*
X114585714Y-53153142D01*
X114585714Y-53153142D02*
X114471428Y-53210285D01*
X114471428Y-53210285D02*
X114414286Y-53267428D01*
X114414286Y-53267428D02*
X114357143Y-53381714D01*
X114357143Y-53381714D02*
X114300000Y-53610285D01*
X114300000Y-53610285D02*
X114300000Y-53896000D01*
X114300000Y-53896000D02*
X114357143Y-54124571D01*
X114357143Y-54124571D02*
X114414286Y-54238857D01*
X114414286Y-54238857D02*
X114471428Y-54296000D01*
X114471428Y-54296000D02*
X114585714Y-54353142D01*
X114585714Y-54353142D02*
X114700000Y-54353142D01*
X114700000Y-54353142D02*
X114814286Y-54296000D01*
X114814286Y-54296000D02*
X114871428Y-54238857D01*
X114871428Y-54238857D02*
X114928571Y-54124571D01*
X114928571Y-54124571D02*
X114985714Y-53896000D01*
X114985714Y-53896000D02*
X114985714Y-53610285D01*
X114985714Y-53610285D02*
X114928571Y-53381714D01*
X114928571Y-53381714D02*
X114871428Y-53267428D01*
X114871428Y-53267428D02*
X114814286Y-53210285D01*
X114814286Y-53210285D02*
X114700000Y-53153142D01*
X113271429Y-53153142D02*
X113500000Y-53153142D01*
X113500000Y-53153142D02*
X113614286Y-53210285D01*
X113614286Y-53210285D02*
X113671429Y-53267428D01*
X113671429Y-53267428D02*
X113785714Y-53438857D01*
X113785714Y-53438857D02*
X113842857Y-53667428D01*
X113842857Y-53667428D02*
X113842857Y-54124571D01*
X113842857Y-54124571D02*
X113785714Y-54238857D01*
X113785714Y-54238857D02*
X113728571Y-54296000D01*
X113728571Y-54296000D02*
X113614286Y-54353142D01*
X113614286Y-54353142D02*
X113385714Y-54353142D01*
X113385714Y-54353142D02*
X113271429Y-54296000D01*
X113271429Y-54296000D02*
X113214286Y-54238857D01*
X113214286Y-54238857D02*
X113157143Y-54124571D01*
X113157143Y-54124571D02*
X113157143Y-53838857D01*
X113157143Y-53838857D02*
X113214286Y-53724571D01*
X113214286Y-53724571D02*
X113271429Y-53667428D01*
X113271429Y-53667428D02*
X113385714Y-53610285D01*
X113385714Y-53610285D02*
X113614286Y-53610285D01*
X113614286Y-53610285D02*
X113728571Y-53667428D01*
X113728571Y-53667428D02*
X113785714Y-53724571D01*
X113785714Y-53724571D02*
X113842857Y-53838857D01*
X112414286Y-53153142D02*
X112300000Y-53153142D01*
X112300000Y-53153142D02*
X112185714Y-53210285D01*
X112185714Y-53210285D02*
X112128572Y-53267428D01*
X112128572Y-53267428D02*
X112071429Y-53381714D01*
X112071429Y-53381714D02*
X112014286Y-53610285D01*
X112014286Y-53610285D02*
X112014286Y-53896000D01*
X112014286Y-53896000D02*
X112071429Y-54124571D01*
X112071429Y-54124571D02*
X112128572Y-54238857D01*
X112128572Y-54238857D02*
X112185714Y-54296000D01*
X112185714Y-54296000D02*
X112300000Y-54353142D01*
X112300000Y-54353142D02*
X112414286Y-54353142D01*
X112414286Y-54353142D02*
X112528572Y-54296000D01*
X112528572Y-54296000D02*
X112585714Y-54238857D01*
X112585714Y-54238857D02*
X112642857Y-54124571D01*
X112642857Y-54124571D02*
X112700000Y-53896000D01*
X112700000Y-53896000D02*
X112700000Y-53610285D01*
X112700000Y-53610285D02*
X112642857Y-53381714D01*
X112642857Y-53381714D02*
X112585714Y-53267428D01*
X112585714Y-53267428D02*
X112528572Y-53210285D01*
X112528572Y-53210285D02*
X112414286Y-53153142D01*
X111557143Y-54296000D02*
X111385715Y-54353142D01*
X111385715Y-54353142D02*
X111100000Y-54353142D01*
X111100000Y-54353142D02*
X110985715Y-54296000D01*
X110985715Y-54296000D02*
X110928572Y-54238857D01*
X110928572Y-54238857D02*
X110871429Y-54124571D01*
X110871429Y-54124571D02*
X110871429Y-54010285D01*
X110871429Y-54010285D02*
X110928572Y-53896000D01*
X110928572Y-53896000D02*
X110985715Y-53838857D01*
X110985715Y-53838857D02*
X111100000Y-53781714D01*
X111100000Y-53781714D02*
X111328572Y-53724571D01*
X111328572Y-53724571D02*
X111442857Y-53667428D01*
X111442857Y-53667428D02*
X111500000Y-53610285D01*
X111500000Y-53610285D02*
X111557143Y-53496000D01*
X111557143Y-53496000D02*
X111557143Y-53381714D01*
X111557143Y-53381714D02*
X111500000Y-53267428D01*
X111500000Y-53267428D02*
X111442857Y-53210285D01*
X111442857Y-53210285D02*
X111328572Y-53153142D01*
X111328572Y-53153142D02*
X111042857Y-53153142D01*
X111042857Y-53153142D02*
X110871429Y-53210285D01*
X109671429Y-54238857D02*
X109728572Y-54296000D01*
X109728572Y-54296000D02*
X109900000Y-54353142D01*
X109900000Y-54353142D02*
X110014286Y-54353142D01*
X110014286Y-54353142D02*
X110185715Y-54296000D01*
X110185715Y-54296000D02*
X110300000Y-54181714D01*
X110300000Y-54181714D02*
X110357143Y-54067428D01*
X110357143Y-54067428D02*
X110414286Y-53838857D01*
X110414286Y-53838857D02*
X110414286Y-53667428D01*
X110414286Y-53667428D02*
X110357143Y-53438857D01*
X110357143Y-53438857D02*
X110300000Y-53324571D01*
X110300000Y-53324571D02*
X110185715Y-53210285D01*
X110185715Y-53210285D02*
X110014286Y-53153142D01*
X110014286Y-53153142D02*
X109900000Y-53153142D01*
X109900000Y-53153142D02*
X109728572Y-53210285D01*
X109728572Y-53210285D02*
X109671429Y-53267428D01*
X108642858Y-53553142D02*
X108642858Y-54353142D01*
X108928572Y-53096000D02*
X109214286Y-53953142D01*
X109214286Y-53953142D02*
X108471429Y-53953142D01*
X107100000Y-54353142D02*
X107100000Y-53153142D01*
X107100000Y-53153142D02*
X106814286Y-53153142D01*
X106814286Y-53153142D02*
X106642857Y-53210285D01*
X106642857Y-53210285D02*
X106528572Y-53324571D01*
X106528572Y-53324571D02*
X106471429Y-53438857D01*
X106471429Y-53438857D02*
X106414286Y-53667428D01*
X106414286Y-53667428D02*
X106414286Y-53838857D01*
X106414286Y-53838857D02*
X106471429Y-54067428D01*
X106471429Y-54067428D02*
X106528572Y-54181714D01*
X106528572Y-54181714D02*
X106642857Y-54296000D01*
X106642857Y-54296000D02*
X106814286Y-54353142D01*
X106814286Y-54353142D02*
X107100000Y-54353142D01*
X105900000Y-54353142D02*
X105900000Y-53553142D01*
X105900000Y-53781714D02*
X105842857Y-53667428D01*
X105842857Y-53667428D02*
X105785715Y-53610285D01*
X105785715Y-53610285D02*
X105671429Y-53553142D01*
X105671429Y-53553142D02*
X105557143Y-53553142D01*
X105157143Y-54353142D02*
X105157143Y-53553142D01*
X105157143Y-53153142D02*
X105214286Y-53210285D01*
X105214286Y-53210285D02*
X105157143Y-53267428D01*
X105157143Y-53267428D02*
X105100000Y-53210285D01*
X105100000Y-53210285D02*
X105157143Y-53153142D01*
X105157143Y-53153142D02*
X105157143Y-53267428D01*
X104700000Y-53553142D02*
X104414286Y-54353142D01*
X104414286Y-54353142D02*
X104128571Y-53553142D01*
X103214285Y-54296000D02*
X103328571Y-54353142D01*
X103328571Y-54353142D02*
X103557143Y-54353142D01*
X103557143Y-54353142D02*
X103671428Y-54296000D01*
X103671428Y-54296000D02*
X103728571Y-54181714D01*
X103728571Y-54181714D02*
X103728571Y-53724571D01*
X103728571Y-53724571D02*
X103671428Y-53610285D01*
X103671428Y-53610285D02*
X103557143Y-53553142D01*
X103557143Y-53553142D02*
X103328571Y-53553142D01*
X103328571Y-53553142D02*
X103214285Y-53610285D01*
X103214285Y-53610285D02*
X103157143Y-53724571D01*
X103157143Y-53724571D02*
X103157143Y-53838857D01*
X103157143Y-53838857D02*
X103728571Y-53953142D01*
X102642857Y-54353142D02*
X102642857Y-53553142D01*
X102642857Y-53781714D02*
X102585714Y-53667428D01*
X102585714Y-53667428D02*
X102528572Y-53610285D01*
X102528572Y-53610285D02*
X102414286Y-53553142D01*
X102414286Y-53553142D02*
X102300000Y-53553142D01*
X100585714Y-53724571D02*
X100414286Y-53781714D01*
X100414286Y-53781714D02*
X100357143Y-53838857D01*
X100357143Y-53838857D02*
X100300000Y-53953142D01*
X100300000Y-53953142D02*
X100300000Y-54124571D01*
X100300000Y-54124571D02*
X100357143Y-54238857D01*
X100357143Y-54238857D02*
X100414286Y-54296000D01*
X100414286Y-54296000D02*
X100528571Y-54353142D01*
X100528571Y-54353142D02*
X100985714Y-54353142D01*
X100985714Y-54353142D02*
X100985714Y-53153142D01*
X100985714Y-53153142D02*
X100585714Y-53153142D01*
X100585714Y-53153142D02*
X100471429Y-53210285D01*
X100471429Y-53210285D02*
X100414286Y-53267428D01*
X100414286Y-53267428D02*
X100357143Y-53381714D01*
X100357143Y-53381714D02*
X100357143Y-53496000D01*
X100357143Y-53496000D02*
X100414286Y-53610285D01*
X100414286Y-53610285D02*
X100471429Y-53667428D01*
X100471429Y-53667428D02*
X100585714Y-53724571D01*
X100585714Y-53724571D02*
X100985714Y-53724571D01*
X99614286Y-54353142D02*
X99728571Y-54296000D01*
X99728571Y-54296000D02*
X99785714Y-54238857D01*
X99785714Y-54238857D02*
X99842857Y-54124571D01*
X99842857Y-54124571D02*
X99842857Y-53781714D01*
X99842857Y-53781714D02*
X99785714Y-53667428D01*
X99785714Y-53667428D02*
X99728571Y-53610285D01*
X99728571Y-53610285D02*
X99614286Y-53553142D01*
X99614286Y-53553142D02*
X99442857Y-53553142D01*
X99442857Y-53553142D02*
X99328571Y-53610285D01*
X99328571Y-53610285D02*
X99271429Y-53667428D01*
X99271429Y-53667428D02*
X99214286Y-53781714D01*
X99214286Y-53781714D02*
X99214286Y-54124571D01*
X99214286Y-54124571D02*
X99271429Y-54238857D01*
X99271429Y-54238857D02*
X99328571Y-54296000D01*
X99328571Y-54296000D02*
X99442857Y-54353142D01*
X99442857Y-54353142D02*
X99614286Y-54353142D01*
X98185715Y-54353142D02*
X98185715Y-53724571D01*
X98185715Y-53724571D02*
X98242857Y-53610285D01*
X98242857Y-53610285D02*
X98357143Y-53553142D01*
X98357143Y-53553142D02*
X98585715Y-53553142D01*
X98585715Y-53553142D02*
X98700000Y-53610285D01*
X98185715Y-54296000D02*
X98300000Y-54353142D01*
X98300000Y-54353142D02*
X98585715Y-54353142D01*
X98585715Y-54353142D02*
X98700000Y-54296000D01*
X98700000Y-54296000D02*
X98757143Y-54181714D01*
X98757143Y-54181714D02*
X98757143Y-54067428D01*
X98757143Y-54067428D02*
X98700000Y-53953142D01*
X98700000Y-53953142D02*
X98585715Y-53896000D01*
X98585715Y-53896000D02*
X98300000Y-53896000D01*
X98300000Y-53896000D02*
X98185715Y-53838857D01*
X97614286Y-54353142D02*
X97614286Y-53553142D01*
X97614286Y-53781714D02*
X97557143Y-53667428D01*
X97557143Y-53667428D02*
X97500001Y-53610285D01*
X97500001Y-53610285D02*
X97385715Y-53553142D01*
X97385715Y-53553142D02*
X97271429Y-53553142D01*
X96357144Y-54353142D02*
X96357144Y-53153142D01*
X96357144Y-54296000D02*
X96471429Y-54353142D01*
X96471429Y-54353142D02*
X96700001Y-54353142D01*
X96700001Y-54353142D02*
X96814286Y-54296000D01*
X96814286Y-54296000D02*
X96871429Y-54238857D01*
X96871429Y-54238857D02*
X96928572Y-54124571D01*
X96928572Y-54124571D02*
X96928572Y-53781714D01*
X96928572Y-53781714D02*
X96871429Y-53667428D01*
X96871429Y-53667428D02*
X96814286Y-53610285D01*
X96814286Y-53610285D02*
X96700001Y-53553142D01*
X96700001Y-53553142D02*
X96471429Y-53553142D01*
X96471429Y-53553142D02*
X96357144Y-53610285D01*
%LPC*%
D11*
X97845000Y-67530000D03*
X97845000Y-68800000D03*
X97845000Y-70070000D03*
X97845000Y-71340000D03*
X99115000Y-67530000D03*
X99115000Y-68800000D03*
X99115000Y-70070000D03*
X99115000Y-71340000D03*
X100385000Y-67530000D03*
X100385000Y-68800000D03*
X100385000Y-70070000D03*
X100385000Y-71340000D03*
X101528000Y-68800000D03*
X101528000Y-70070000D03*
X101528000Y-71340000D03*
X101655000Y-67530000D03*
D12*
X114000000Y-84210000D03*
D13*
X114000000Y-86750000D03*
D12*
X113910000Y-91500000D03*
D13*
X111370000Y-91500000D03*
X108830000Y-91500000D03*
X106290000Y-91500000D03*
X103750000Y-91500000D03*
X101210000Y-91500000D03*
D12*
X75450000Y-54975000D03*
D13*
X77990000Y-54975000D03*
X80530000Y-54975000D03*
X83070000Y-54975000D03*
D14*
X52312500Y-56500000D03*
D15*
X52312500Y-58500000D03*
X52312500Y-60500000D03*
D16*
X52312500Y-54300000D03*
X52312500Y-62700000D03*
D12*
X65043200Y-91500000D03*
D13*
X62503200Y-91500000D03*
X59963200Y-91500000D03*
X57423200Y-91500000D03*
X54883200Y-91500000D03*
X52343200Y-91500000D03*
D12*
X60210000Y-55000000D03*
D13*
X62750000Y-55000000D03*
X65290000Y-55000000D03*
X67830000Y-55000000D03*
M02*
