G04 #@! TF.GenerationSoftware,KiCad,Pcbnew,7.0.1*
G04 #@! TF.CreationDate,2023-04-24T21:14:22+02:00*
G04 #@! TF.ProjectId,ED060SC4_SPI_driver_board,45443036-3053-4433-945f-5350495f6472,rev?*
G04 #@! TF.SameCoordinates,Original*
G04 #@! TF.FileFunction,Copper,L3,Inr*
G04 #@! TF.FilePolarity,Positive*
%FSLAX46Y46*%
G04 Gerber Fmt 4.6, Leading zero omitted, Abs format (unit mm)*
G04 Created by KiCad (PCBNEW 7.0.1) date 2023-04-24 21:14:22*
%MOMM*%
%LPD*%
G01*
G04 APERTURE LIST*
G04 #@! TA.AperFunction,ComponentPad*
%ADD10R,1.700000X1.700000*%
G04 #@! TD*
G04 #@! TA.AperFunction,ComponentPad*
%ADD11O,1.700000X1.700000*%
G04 #@! TD*
G04 #@! TA.AperFunction,ComponentPad*
%ADD12C,0.600000*%
G04 #@! TD*
G04 #@! TA.AperFunction,ComponentPad*
%ADD13R,1.308000X1.308000*%
G04 #@! TD*
G04 #@! TA.AperFunction,ComponentPad*
%ADD14C,1.308000*%
G04 #@! TD*
G04 #@! TA.AperFunction,ComponentPad*
%ADD15O,2.460000X1.230000*%
G04 #@! TD*
G04 #@! TA.AperFunction,ViaPad*
%ADD16C,0.800000*%
G04 #@! TD*
G04 APERTURE END LIST*
D10*
X113910000Y-91500000D03*
D11*
X111370000Y-91500000D03*
X108830000Y-91500000D03*
X106290000Y-91500000D03*
X103750000Y-91500000D03*
X101210000Y-91500000D03*
D10*
X75450000Y-54975000D03*
D11*
X77990000Y-54975000D03*
X80530000Y-54975000D03*
X83070000Y-54975000D03*
D12*
X97845000Y-67530000D03*
X97845000Y-68800000D03*
X97845000Y-70070000D03*
X97845000Y-71340000D03*
X99115000Y-67530000D03*
X99115000Y-68800000D03*
X99115000Y-70070000D03*
X99115000Y-71340000D03*
X100385000Y-67530000D03*
X100385000Y-68800000D03*
X100385000Y-70070000D03*
X100385000Y-71340000D03*
X101528000Y-68800000D03*
X101528000Y-70070000D03*
X101528000Y-71340000D03*
X101655000Y-67530000D03*
D13*
X52312500Y-56500000D03*
D14*
X52312500Y-58500000D03*
X52312500Y-60500000D03*
D15*
X52312500Y-54300000D03*
X52312500Y-62700000D03*
D10*
X65043200Y-91500000D03*
D11*
X62503200Y-91500000D03*
X59963200Y-91500000D03*
X57423200Y-91500000D03*
X54883200Y-91500000D03*
X52343200Y-91500000D03*
D10*
X60210000Y-55000000D03*
D11*
X62750000Y-55000000D03*
X65290000Y-55000000D03*
X67830000Y-55000000D03*
D10*
X114000000Y-84210000D03*
D11*
X114000000Y-86750000D03*
D16*
X115500000Y-75000000D03*
X107000000Y-82000000D03*
X58750000Y-79750000D03*
X68250000Y-86500000D03*
X70250000Y-78000000D03*
X85500000Y-69000000D03*
X88142311Y-94500500D03*
X54250000Y-70000000D03*
X79004578Y-94045781D03*
X104980746Y-68435500D03*
X59500000Y-61500000D03*
X54250000Y-69000000D03*
X59000000Y-71500000D03*
X110250000Y-87750000D03*
X59000000Y-73500000D03*
X57979500Y-76250000D03*
X52750000Y-65000000D03*
X104250000Y-60750000D03*
X71000000Y-76250000D03*
X81515835Y-57484165D03*
X86500000Y-64000000D03*
X85500000Y-70000000D03*
X93250000Y-59815000D03*
X95500000Y-78250000D03*
X65750000Y-60250000D03*
X54500000Y-71500000D03*
X89750000Y-88000000D03*
X87250000Y-84250000D03*
X61408023Y-70281502D03*
X97000000Y-60250000D03*
X85500000Y-66750000D03*
X76500000Y-87000000D03*
X106000000Y-65250000D03*
X57000000Y-65500000D03*
X89500000Y-71000000D03*
X94499500Y-69440546D03*
X101000000Y-64000000D03*
X82000000Y-83000500D03*
X93000000Y-90000000D03*
X94499500Y-71250000D03*
X89425713Y-65074287D03*
X69750000Y-92250000D03*
X95750000Y-65000000D03*
X61750000Y-78250000D03*
X65529977Y-62720023D03*
X105874954Y-67435000D03*
X106000000Y-82000000D03*
X61190046Y-86000000D03*
X55250000Y-78750000D03*
X108000000Y-82000000D03*
X106042214Y-62599364D03*
X85000000Y-84250000D03*
X104610100Y-58939526D03*
X61000000Y-62750000D03*
X97500000Y-78250000D03*
X116500000Y-59750000D03*
X106000000Y-69750000D03*
X54750000Y-88250000D03*
X85500000Y-67750000D03*
X89750000Y-72750000D03*
X58000000Y-65500000D03*
X86500000Y-62250000D03*
X117750000Y-71500000D03*
X69250000Y-57000000D03*
X103000000Y-78000000D03*
X115500000Y-59750000D03*
X81500000Y-94750000D03*
X76250000Y-66250000D03*
X58750000Y-83500000D03*
X104750000Y-55000000D03*
X79250000Y-68000000D03*
X55250000Y-77287500D03*
X92750000Y-73750000D03*
X97970023Y-63964977D03*
X82484165Y-62765835D03*
X62250000Y-60250000D03*
X59000000Y-77000000D03*
X59750000Y-65500000D03*
X70801331Y-61770500D03*
X79250000Y-73750000D03*
X75250000Y-60500000D03*
X72500000Y-76250000D03*
X76250000Y-65250497D03*
X103000000Y-55000000D03*
X78750000Y-61000000D03*
X64500000Y-60250000D03*
X104500000Y-75000000D03*
X101000000Y-55000000D03*
X102000000Y-55000000D03*
X103500000Y-63185000D03*
X100000000Y-63185000D03*
X68500000Y-93500000D03*
X65250000Y-70250000D03*
X64024000Y-72750000D03*
X64331637Y-86945576D03*
X59250000Y-67000000D03*
X59750000Y-93500000D03*
X82279500Y-93918363D03*
X63250000Y-94750000D03*
X62524500Y-72500000D03*
X76500000Y-94999500D03*
X82331637Y-88195576D03*
X65566070Y-66301789D03*
X68775834Y-91000000D03*
X72750000Y-90840385D03*
X65250000Y-67250000D03*
X63500000Y-87500000D03*
X82750000Y-87250000D03*
X74250000Y-86250000D03*
X69220023Y-84029977D03*
X73750000Y-88250000D03*
X83286945Y-90839885D03*
X68999500Y-82250000D03*
X70000000Y-66000000D03*
X84410376Y-91160376D03*
X83750000Y-85250000D03*
X69081637Y-66554424D03*
X85500000Y-91000000D03*
X68250000Y-66000000D03*
X86930000Y-91320000D03*
X67250000Y-67750000D03*
X90250000Y-91750000D03*
X88500000Y-91000000D03*
X66249500Y-68560308D03*
X69924099Y-79407038D03*
X91000000Y-87250000D03*
X61500000Y-87000000D03*
X61989453Y-81200593D03*
X56000000Y-85000000D03*
X57279977Y-89529977D03*
X55185004Y-84456670D03*
X55750000Y-87000000D03*
X88559954Y-78059954D03*
X83500000Y-76000000D03*
X76875000Y-63375000D03*
X80750000Y-78000500D03*
X93250000Y-80250000D03*
X68924668Y-63007904D03*
X81250000Y-64000000D03*
X99000000Y-75250000D03*
X87750000Y-80250000D03*
X80750000Y-80000000D03*
X100000000Y-75250000D03*
X87750000Y-81250000D03*
X68000000Y-62500000D03*
X79500000Y-80250000D03*
X77750000Y-62250000D03*
X74750000Y-62250000D03*
X93250000Y-81250000D03*
X79500000Y-78000500D03*
X94250000Y-62500500D03*
X87250000Y-82500000D03*
X85675500Y-82500000D03*
X91402695Y-73734197D03*
X90500000Y-79000000D03*
X85484165Y-76484165D03*
X86900500Y-71000000D03*
X90500000Y-68934500D03*
X85750000Y-75000000D03*
X89779977Y-75029977D03*
X100500000Y-79500000D03*
X87242227Y-78317727D03*
X74000000Y-76500000D03*
X101234057Y-76484273D03*
X71250000Y-88750000D03*
X82000000Y-79500000D03*
X69493114Y-85024784D03*
X114000000Y-67000000D03*
X117750000Y-69500000D03*
X98750000Y-93524500D03*
X96750000Y-92025500D03*
X81500000Y-88750000D03*
X90779977Y-88720023D03*
X87154977Y-94345023D03*
X91500000Y-63185500D03*
X90750000Y-93750000D03*
X91500000Y-85500000D03*
X87830000Y-88250000D03*
X81250000Y-87000000D03*
G04 #@! TA.AperFunction,Conductor*
G36*
X117254042Y-51500764D02*
G01*
X117333586Y-51505978D01*
X117333767Y-51505991D01*
X117511587Y-51518709D01*
X117526904Y-51520772D01*
X117638378Y-51542945D01*
X117640437Y-51543374D01*
X117780240Y-51573786D01*
X117793703Y-51577522D01*
X117907725Y-51616228D01*
X117911074Y-51617420D01*
X118038808Y-51665062D01*
X118050300Y-51670024D01*
X118160687Y-51724461D01*
X118165187Y-51726798D01*
X118282478Y-51790844D01*
X118291942Y-51796574D01*
X118395269Y-51865615D01*
X118400688Y-51869450D01*
X118506727Y-51948830D01*
X118514145Y-51954844D01*
X118607976Y-52037131D01*
X118613898Y-52042678D01*
X118707320Y-52136100D01*
X118712867Y-52142022D01*
X118795150Y-52235848D01*
X118801173Y-52243278D01*
X118838691Y-52293396D01*
X118880548Y-52349310D01*
X118884383Y-52354729D01*
X118953424Y-52458056D01*
X118959154Y-52467520D01*
X119023183Y-52584779D01*
X119025564Y-52589363D01*
X119079969Y-52699687D01*
X119084938Y-52711196D01*
X119132556Y-52838863D01*
X119133793Y-52842338D01*
X119172470Y-52956276D01*
X119176217Y-52969777D01*
X119206613Y-53109508D01*
X119207064Y-53111675D01*
X119229224Y-53223080D01*
X119231291Y-53238425D01*
X119243995Y-53416046D01*
X119244045Y-53416781D01*
X119249234Y-53495942D01*
X119249500Y-53504053D01*
X119249500Y-83876000D01*
X119232887Y-83938000D01*
X119187500Y-83983387D01*
X119125500Y-84000000D01*
X115274499Y-84000000D01*
X115212499Y-83983387D01*
X115167112Y-83938000D01*
X115150499Y-83876000D01*
X115150499Y-83315133D01*
X115147585Y-83290011D01*
X115147585Y-83290009D01*
X115102206Y-83187235D01*
X115102204Y-83187233D01*
X115102204Y-83187232D01*
X115022767Y-83107795D01*
X115022765Y-83107794D01*
X114919991Y-83062415D01*
X114894865Y-83059500D01*
X114894863Y-83059500D01*
X113105132Y-83059500D01*
X113080011Y-83062414D01*
X112977232Y-83107795D01*
X112897795Y-83187232D01*
X112852415Y-83290009D01*
X112849500Y-83315136D01*
X112849500Y-83876000D01*
X112832887Y-83938000D01*
X112787500Y-83983387D01*
X112725500Y-84000000D01*
X87989964Y-84000000D01*
X87941360Y-83990077D01*
X87900535Y-83961898D01*
X87881152Y-83931246D01*
X87778184Y-83782072D01*
X87778183Y-83782071D01*
X87650852Y-83669266D01*
X87633750Y-83660290D01*
X87500224Y-83590209D01*
X87375765Y-83559533D01*
X87335056Y-83549500D01*
X87164944Y-83549500D01*
X87132284Y-83557549D01*
X86999775Y-83590209D01*
X86849149Y-83669265D01*
X86721815Y-83782072D01*
X86618847Y-83931246D01*
X86599465Y-83961898D01*
X86558640Y-83990077D01*
X86510036Y-84000000D01*
X85739964Y-84000000D01*
X85691360Y-83990077D01*
X85650535Y-83961898D01*
X85631152Y-83931246D01*
X85528184Y-83782072D01*
X85528183Y-83782071D01*
X85400852Y-83669266D01*
X85383750Y-83660290D01*
X85250224Y-83590209D01*
X85125765Y-83559533D01*
X85085056Y-83549500D01*
X84914944Y-83549500D01*
X84882284Y-83557549D01*
X84749775Y-83590209D01*
X84599149Y-83669265D01*
X84471815Y-83782072D01*
X84368847Y-83931246D01*
X84349465Y-83961898D01*
X84308640Y-83990077D01*
X84260036Y-84000000D01*
X76250000Y-84000000D01*
X75303642Y-86672069D01*
X74680387Y-88431847D01*
X74647424Y-88481735D01*
X74594947Y-88510396D01*
X74535158Y-88511167D01*
X74481959Y-88483868D01*
X74447721Y-88434847D01*
X74440405Y-88375506D01*
X74455645Y-88250000D01*
X74435140Y-88081128D01*
X74374818Y-87922070D01*
X74311773Y-87830734D01*
X74278184Y-87782072D01*
X74278183Y-87782071D01*
X74150852Y-87669266D01*
X74034584Y-87608243D01*
X74000224Y-87590209D01*
X73850891Y-87553403D01*
X73835056Y-87549500D01*
X73664944Y-87549500D01*
X73649109Y-87553403D01*
X73499775Y-87590209D01*
X73349149Y-87669265D01*
X73221815Y-87782072D01*
X73125182Y-87922069D01*
X73064860Y-88081127D01*
X73044354Y-88250000D01*
X73064860Y-88418872D01*
X73125182Y-88577930D01*
X73221815Y-88717927D01*
X73221816Y-88717928D01*
X73221817Y-88717929D01*
X73349148Y-88830734D01*
X73499775Y-88909790D01*
X73664944Y-88950500D01*
X73835055Y-88950500D01*
X73835056Y-88950500D01*
X74000225Y-88909790D01*
X74150852Y-88830734D01*
X74278183Y-88717929D01*
X74365141Y-88591949D01*
X74409158Y-88552809D01*
X74466274Y-88538395D01*
X74523596Y-88551965D01*
X74568189Y-88590455D01*
X74589988Y-88645180D01*
X74584074Y-88703789D01*
X72029432Y-95916897D01*
X72003231Y-95960070D01*
X71961989Y-95989216D01*
X71912546Y-95999500D01*
X50004053Y-95999500D01*
X49995942Y-95999234D01*
X49916781Y-95994045D01*
X49916046Y-95993995D01*
X49738425Y-95981291D01*
X49723080Y-95979224D01*
X49611675Y-95957064D01*
X49609508Y-95956613D01*
X49469777Y-95926217D01*
X49456276Y-95922470D01*
X49342338Y-95883793D01*
X49338863Y-95882556D01*
X49211196Y-95834938D01*
X49199687Y-95829969D01*
X49134947Y-95798043D01*
X49089348Y-95775556D01*
X49084779Y-95773183D01*
X48967520Y-95709154D01*
X48958056Y-95703424D01*
X48854729Y-95634383D01*
X48849310Y-95630548D01*
X48793396Y-95588691D01*
X48743278Y-95551173D01*
X48735848Y-95545150D01*
X48642022Y-95462867D01*
X48636100Y-95457320D01*
X48542678Y-95363898D01*
X48537131Y-95357976D01*
X48454844Y-95264145D01*
X48448830Y-95256727D01*
X48369450Y-95150688D01*
X48365615Y-95145269D01*
X48296574Y-95041942D01*
X48290844Y-95032478D01*
X48226798Y-94915187D01*
X48224461Y-94910687D01*
X48170024Y-94800300D01*
X48165060Y-94788802D01*
X48150588Y-94750000D01*
X62544354Y-94750000D01*
X62564860Y-94918872D01*
X62625182Y-95077930D01*
X62721815Y-95217927D01*
X62721816Y-95217928D01*
X62721817Y-95217929D01*
X62849148Y-95330734D01*
X62999775Y-95409790D01*
X63164944Y-95450500D01*
X63335055Y-95450500D01*
X63335056Y-95450500D01*
X63500225Y-95409790D01*
X63650852Y-95330734D01*
X63778183Y-95217929D01*
X63874818Y-95077930D01*
X63935140Y-94918872D01*
X63955645Y-94750000D01*
X63935140Y-94581128D01*
X63874818Y-94422070D01*
X63811773Y-94330734D01*
X63778184Y-94282072D01*
X63754384Y-94260987D01*
X63650852Y-94169266D01*
X63528851Y-94105234D01*
X63500224Y-94090209D01*
X63375765Y-94059533D01*
X63335056Y-94049500D01*
X63164944Y-94049500D01*
X63132284Y-94057549D01*
X62999775Y-94090209D01*
X62849149Y-94169265D01*
X62721815Y-94282072D01*
X62625182Y-94422069D01*
X62564860Y-94581127D01*
X62544354Y-94750000D01*
X48150588Y-94750000D01*
X48117420Y-94661074D01*
X48116228Y-94657725D01*
X48077522Y-94543703D01*
X48073786Y-94530240D01*
X48043374Y-94390437D01*
X48042945Y-94388378D01*
X48020772Y-94276904D01*
X48018709Y-94261587D01*
X48005991Y-94083767D01*
X48005978Y-94083586D01*
X48000764Y-94004042D01*
X48000500Y-93995935D01*
X48000500Y-90250000D01*
X51000000Y-90250000D01*
X51000000Y-92750000D01*
X53500000Y-92750000D01*
X53500000Y-91724045D01*
X53515671Y-91663706D01*
X53558722Y-91618618D01*
X53618273Y-91600177D01*
X53679272Y-91613045D01*
X53726300Y-91653968D01*
X53743460Y-91701496D01*
X53744299Y-91701258D01*
X53805795Y-91917390D01*
X53900831Y-92108252D01*
X54029326Y-92278405D01*
X54029328Y-92278407D01*
X54186898Y-92422052D01*
X54368181Y-92534298D01*
X54567002Y-92611321D01*
X54776590Y-92650500D01*
X54989808Y-92650500D01*
X54989810Y-92650500D01*
X55199398Y-92611321D01*
X55398219Y-92534298D01*
X55579502Y-92422052D01*
X55737072Y-92278407D01*
X55865566Y-92108255D01*
X55865566Y-92108253D01*
X55865568Y-92108252D01*
X55958274Y-91922070D01*
X55960605Y-91917389D01*
X56018956Y-91712310D01*
X56029729Y-91596047D01*
X56049833Y-91538996D01*
X56092610Y-91499999D01*
X56213789Y-91499999D01*
X56256567Y-91538996D01*
X56276671Y-91596048D01*
X56287443Y-91712310D01*
X56345795Y-91917390D01*
X56440831Y-92108252D01*
X56569326Y-92278405D01*
X56569328Y-92278407D01*
X56726898Y-92422052D01*
X56908181Y-92534298D01*
X57107002Y-92611321D01*
X57316590Y-92650500D01*
X57529808Y-92650500D01*
X57529810Y-92650500D01*
X57739398Y-92611321D01*
X57938219Y-92534298D01*
X58119502Y-92422052D01*
X58277072Y-92278407D01*
X58405566Y-92108255D01*
X58405566Y-92108253D01*
X58405568Y-92108252D01*
X58498274Y-91922070D01*
X58500605Y-91917389D01*
X58558956Y-91712310D01*
X58569729Y-91596047D01*
X58589833Y-91538996D01*
X58632610Y-91499999D01*
X58753789Y-91499999D01*
X58796567Y-91538996D01*
X58816671Y-91596048D01*
X58827443Y-91712310D01*
X58885795Y-91917390D01*
X58980831Y-92108252D01*
X59109326Y-92278405D01*
X59109328Y-92278407D01*
X59266898Y-92422052D01*
X59448181Y-92534298D01*
X59584380Y-92587061D01*
X59634812Y-92623265D01*
X59661374Y-92679381D01*
X59657406Y-92741338D01*
X59623901Y-92793607D01*
X59569260Y-92823083D01*
X59499774Y-92840209D01*
X59349149Y-92919265D01*
X59221815Y-93032072D01*
X59125182Y-93172069D01*
X59064860Y-93331127D01*
X59044354Y-93499999D01*
X59064860Y-93668872D01*
X59125182Y-93827930D01*
X59221815Y-93967927D01*
X59221816Y-93967928D01*
X59221817Y-93967929D01*
X59349148Y-94080734D01*
X59499775Y-94159790D01*
X59664944Y-94200500D01*
X59835055Y-94200500D01*
X59835056Y-94200500D01*
X60000225Y-94159790D01*
X60150852Y-94080734D01*
X60278183Y-93967929D01*
X60374818Y-93827930D01*
X60435140Y-93668872D01*
X60455645Y-93500000D01*
X60455645Y-93499999D01*
X67794354Y-93499999D01*
X67814860Y-93668872D01*
X67875182Y-93827930D01*
X67971815Y-93967927D01*
X67971816Y-93967928D01*
X67971817Y-93967929D01*
X68099148Y-94080734D01*
X68249775Y-94159790D01*
X68414944Y-94200500D01*
X68585055Y-94200500D01*
X68585056Y-94200500D01*
X68750225Y-94159790D01*
X68900852Y-94080734D01*
X69028183Y-93967929D01*
X69124818Y-93827930D01*
X69185140Y-93668872D01*
X69205645Y-93500000D01*
X69185140Y-93331128D01*
X69124818Y-93172070D01*
X69045094Y-93056571D01*
X69028184Y-93032072D01*
X69028183Y-93032071D01*
X68900852Y-92919266D01*
X68882797Y-92909790D01*
X68750224Y-92840209D01*
X68625765Y-92809533D01*
X68585056Y-92799500D01*
X68414944Y-92799500D01*
X68382284Y-92807549D01*
X68249775Y-92840209D01*
X68099149Y-92919265D01*
X67971815Y-93032072D01*
X67875182Y-93172069D01*
X67814860Y-93331127D01*
X67794354Y-93499999D01*
X60455645Y-93499999D01*
X60435140Y-93331128D01*
X60374818Y-93172070D01*
X60295094Y-93056571D01*
X60278184Y-93032072D01*
X60278183Y-93032071D01*
X60150852Y-92919266D01*
X60132797Y-92909790D01*
X60068320Y-92875949D01*
X60023102Y-92835427D01*
X60002543Y-92778295D01*
X60011573Y-92718252D01*
X60048026Y-92669694D01*
X60103156Y-92644266D01*
X60279398Y-92611321D01*
X60478219Y-92534298D01*
X60659502Y-92422052D01*
X60817072Y-92278407D01*
X60945566Y-92108255D01*
X60945566Y-92108253D01*
X60945568Y-92108252D01*
X61038274Y-91922070D01*
X61040605Y-91917389D01*
X61098956Y-91712310D01*
X61109729Y-91596047D01*
X61129833Y-91538996D01*
X61172610Y-91499999D01*
X61293789Y-91499999D01*
X61336567Y-91538996D01*
X61356671Y-91596048D01*
X61367443Y-91712310D01*
X61425795Y-91917390D01*
X61520831Y-92108252D01*
X61649326Y-92278405D01*
X61649328Y-92278407D01*
X61806898Y-92422052D01*
X61988181Y-92534298D01*
X62187002Y-92611321D01*
X62396590Y-92650500D01*
X62609808Y-92650500D01*
X62609810Y-92650500D01*
X62819398Y-92611321D01*
X63018219Y-92534298D01*
X63199502Y-92422052D01*
X63357072Y-92278407D01*
X63485566Y-92108255D01*
X63485566Y-92108253D01*
X63485568Y-92108252D01*
X63578274Y-91922070D01*
X63580605Y-91917389D01*
X63638956Y-91712310D01*
X63645229Y-91644605D01*
X63666400Y-91585971D01*
X63713428Y-91545047D01*
X63774426Y-91532179D01*
X63833977Y-91550620D01*
X63877029Y-91595708D01*
X63892700Y-91656047D01*
X63892700Y-92394867D01*
X63895614Y-92419988D01*
X63940995Y-92522767D01*
X64020432Y-92602204D01*
X64020433Y-92602204D01*
X64020435Y-92602206D01*
X64123209Y-92647585D01*
X64148335Y-92650500D01*
X65938064Y-92650499D01*
X65938067Y-92650499D01*
X65950627Y-92649042D01*
X65963191Y-92647585D01*
X66065965Y-92602206D01*
X66145406Y-92522765D01*
X66190785Y-92419991D01*
X66193700Y-92394865D01*
X66193699Y-91000000D01*
X68070188Y-91000000D01*
X68090694Y-91168872D01*
X68151016Y-91327930D01*
X68247649Y-91467927D01*
X68247650Y-91467928D01*
X68247651Y-91467929D01*
X68374982Y-91580734D01*
X68525609Y-91659790D01*
X68690778Y-91700500D01*
X68860889Y-91700500D01*
X68860890Y-91700500D01*
X68988339Y-91669087D01*
X69040678Y-91656187D01*
X69041202Y-91658313D01*
X69083513Y-91648958D01*
X69145480Y-91669087D01*
X69188688Y-91717852D01*
X69201209Y-91781792D01*
X69179584Y-91843254D01*
X69125182Y-91922069D01*
X69064860Y-92081127D01*
X69044354Y-92249999D01*
X69064860Y-92418872D01*
X69125182Y-92577930D01*
X69221815Y-92717927D01*
X69221816Y-92717928D01*
X69221817Y-92717929D01*
X69349148Y-92830734D01*
X69499775Y-92909790D01*
X69664944Y-92950500D01*
X69835055Y-92950500D01*
X69835056Y-92950500D01*
X70000225Y-92909790D01*
X70150852Y-92830734D01*
X70278183Y-92717929D01*
X70374818Y-92577930D01*
X70435140Y-92418872D01*
X70455645Y-92250000D01*
X70435140Y-92081128D01*
X70374818Y-91922070D01*
X70278183Y-91782071D01*
X70150852Y-91669266D01*
X70125666Y-91656047D01*
X70000224Y-91590209D01*
X69867802Y-91557571D01*
X69835056Y-91549500D01*
X69664944Y-91549500D01*
X69569009Y-91573145D01*
X69485156Y-91593813D01*
X69484632Y-91591687D01*
X69442304Y-91601040D01*
X69380342Y-91580905D01*
X69337141Y-91532138D01*
X69324625Y-91468201D01*
X69346250Y-91406744D01*
X69348178Y-91403951D01*
X69400652Y-91327930D01*
X69460974Y-91168872D01*
X69481479Y-91000000D01*
X69462098Y-90840384D01*
X72044354Y-90840384D01*
X72064860Y-91009257D01*
X72125182Y-91168315D01*
X72221815Y-91308312D01*
X72221816Y-91308313D01*
X72221817Y-91308314D01*
X72349148Y-91421119D01*
X72499775Y-91500175D01*
X72664944Y-91540885D01*
X72835055Y-91540885D01*
X72835056Y-91540885D01*
X73000225Y-91500175D01*
X73150852Y-91421119D01*
X73278183Y-91308314D01*
X73374818Y-91168315D01*
X73435140Y-91009257D01*
X73455645Y-90840385D01*
X73435140Y-90671513D01*
X73374818Y-90512455D01*
X73310493Y-90419265D01*
X73278184Y-90372457D01*
X73278183Y-90372456D01*
X73150852Y-90259651D01*
X73132464Y-90250000D01*
X73000224Y-90180594D01*
X72875765Y-90149918D01*
X72835056Y-90139885D01*
X72664944Y-90139885D01*
X72632284Y-90147934D01*
X72499775Y-90180594D01*
X72349149Y-90259650D01*
X72221815Y-90372457D01*
X72125182Y-90512454D01*
X72064860Y-90671512D01*
X72044354Y-90840384D01*
X69462098Y-90840384D01*
X69460974Y-90831128D01*
X69400652Y-90672070D01*
X69337108Y-90580011D01*
X69304018Y-90532072D01*
X69281874Y-90512454D01*
X69176686Y-90419266D01*
X69118406Y-90388678D01*
X69026058Y-90340209D01*
X68901599Y-90309533D01*
X68860890Y-90299500D01*
X68690778Y-90299500D01*
X68658118Y-90307549D01*
X68525609Y-90340209D01*
X68374983Y-90419265D01*
X68247649Y-90532072D01*
X68151016Y-90672069D01*
X68090694Y-90831127D01*
X68070188Y-91000000D01*
X66193699Y-91000000D01*
X66193699Y-90605136D01*
X66190785Y-90580009D01*
X66145406Y-90477235D01*
X66145404Y-90477233D01*
X66145404Y-90477232D01*
X66065967Y-90397795D01*
X66010382Y-90373252D01*
X65963191Y-90352415D01*
X65938065Y-90349500D01*
X65938063Y-90349500D01*
X64148332Y-90349500D01*
X64123211Y-90352414D01*
X64020432Y-90397795D01*
X63940995Y-90477232D01*
X63895615Y-90580009D01*
X63892700Y-90605136D01*
X63892700Y-91343950D01*
X63877029Y-91404289D01*
X63833977Y-91449377D01*
X63774426Y-91467818D01*
X63713428Y-91454950D01*
X63666400Y-91414026D01*
X63645229Y-91355390D01*
X63638956Y-91287689D01*
X63580604Y-91082609D01*
X63485568Y-90891747D01*
X63357073Y-90721594D01*
X63289738Y-90660210D01*
X63199502Y-90577948D01*
X63199501Y-90577947D01*
X63036845Y-90477235D01*
X63018219Y-90465702D01*
X63018217Y-90465701D01*
X62819398Y-90388679D01*
X62817456Y-90388316D01*
X62609810Y-90349500D01*
X62396590Y-90349500D01*
X62276462Y-90371956D01*
X62187001Y-90388679D01*
X61988182Y-90465701D01*
X61806898Y-90577947D01*
X61649326Y-90721594D01*
X61520831Y-90891747D01*
X61425795Y-91082609D01*
X61367443Y-91287689D01*
X61356671Y-91403951D01*
X61336567Y-91461003D01*
X61293789Y-91499999D01*
X61172610Y-91499999D01*
X61129833Y-91461003D01*
X61109729Y-91403951D01*
X61098956Y-91287689D01*
X61040604Y-91082609D01*
X60945568Y-90891747D01*
X60817073Y-90721594D01*
X60749738Y-90660210D01*
X60659502Y-90577948D01*
X60659501Y-90577947D01*
X60496845Y-90477235D01*
X60478219Y-90465702D01*
X60478217Y-90465701D01*
X60279398Y-90388679D01*
X60277456Y-90388316D01*
X60069810Y-90349500D01*
X59856590Y-90349500D01*
X59736462Y-90371956D01*
X59647001Y-90388679D01*
X59448182Y-90465701D01*
X59266898Y-90577947D01*
X59109326Y-90721594D01*
X58980831Y-90891747D01*
X58885795Y-91082609D01*
X58827443Y-91287689D01*
X58816671Y-91403951D01*
X58796567Y-91461003D01*
X58753789Y-91499999D01*
X58632610Y-91499999D01*
X58589833Y-91461003D01*
X58569729Y-91403951D01*
X58558956Y-91287689D01*
X58500604Y-91082609D01*
X58405568Y-90891747D01*
X58277073Y-90721594D01*
X58209738Y-90660210D01*
X58119502Y-90577948D01*
X58119501Y-90577947D01*
X57956845Y-90477235D01*
X57938219Y-90465702D01*
X57938217Y-90465701D01*
X57880427Y-90443313D01*
X57739398Y-90388679D01*
X57739395Y-90388678D01*
X57739394Y-90388678D01*
X57656875Y-90373252D01*
X57601739Y-90347822D01*
X57565286Y-90299264D01*
X57556257Y-90239220D01*
X57576817Y-90182089D01*
X57622030Y-90141571D01*
X57680829Y-90110711D01*
X57808160Y-89997906D01*
X57904795Y-89857907D01*
X57965117Y-89698849D01*
X57985622Y-89529977D01*
X57965117Y-89361105D01*
X57904795Y-89202047D01*
X57808160Y-89062048D01*
X57680829Y-88949243D01*
X57622963Y-88918872D01*
X57530201Y-88870186D01*
X57405742Y-88839510D01*
X57365033Y-88829477D01*
X57194921Y-88829477D01*
X57162261Y-88837526D01*
X57029752Y-88870186D01*
X56879126Y-88949242D01*
X56751792Y-89062049D01*
X56655159Y-89202046D01*
X56594837Y-89361104D01*
X56574331Y-89529977D01*
X56594837Y-89698849D01*
X56655159Y-89857907D01*
X56751792Y-89997904D01*
X56751793Y-89997905D01*
X56751794Y-89997906D01*
X56879125Y-90110711D01*
X56879127Y-90110712D01*
X57038945Y-90194592D01*
X57081534Y-90231361D01*
X57103489Y-90283165D01*
X57100292Y-90339338D01*
X57072599Y-90388316D01*
X57026113Y-90420014D01*
X56908185Y-90465699D01*
X56726898Y-90577947D01*
X56569326Y-90721594D01*
X56440831Y-90891747D01*
X56345795Y-91082609D01*
X56287443Y-91287689D01*
X56276671Y-91403951D01*
X56256567Y-91461003D01*
X56213789Y-91499999D01*
X56092610Y-91499999D01*
X56049833Y-91461003D01*
X56029729Y-91403951D01*
X56018956Y-91287689D01*
X55960604Y-91082609D01*
X55865568Y-90891747D01*
X55737073Y-90721594D01*
X55669738Y-90660210D01*
X55579502Y-90577948D01*
X55579501Y-90577947D01*
X55416845Y-90477235D01*
X55398219Y-90465702D01*
X55398217Y-90465701D01*
X55199398Y-90388679D01*
X55197456Y-90388316D01*
X54989810Y-90349500D01*
X54776590Y-90349500D01*
X54656462Y-90371956D01*
X54567001Y-90388679D01*
X54368182Y-90465701D01*
X54186898Y-90577947D01*
X54029326Y-90721594D01*
X53900831Y-90891747D01*
X53805795Y-91082609D01*
X53744299Y-91298742D01*
X53743460Y-91298503D01*
X53726300Y-91346032D01*
X53679272Y-91386955D01*
X53618273Y-91399823D01*
X53558722Y-91381382D01*
X53515671Y-91336294D01*
X53500000Y-91275955D01*
X53500000Y-90250000D01*
X51000000Y-90250000D01*
X48000500Y-90250000D01*
X48000500Y-88250000D01*
X54044354Y-88250000D01*
X54064860Y-88418872D01*
X54125182Y-88577930D01*
X54221815Y-88717927D01*
X54221816Y-88717928D01*
X54221817Y-88717929D01*
X54349148Y-88830734D01*
X54499775Y-88909790D01*
X54664944Y-88950500D01*
X54835055Y-88950500D01*
X54835056Y-88950500D01*
X55000225Y-88909790D01*
X55150852Y-88830734D01*
X55241983Y-88749999D01*
X70544354Y-88749999D01*
X70564860Y-88918872D01*
X70625182Y-89077930D01*
X70721815Y-89217927D01*
X70721816Y-89217928D01*
X70721817Y-89217929D01*
X70849148Y-89330734D01*
X70999775Y-89409790D01*
X71164944Y-89450500D01*
X71335055Y-89450500D01*
X71335056Y-89450500D01*
X71500225Y-89409790D01*
X71650852Y-89330734D01*
X71778183Y-89217929D01*
X71874818Y-89077930D01*
X71935140Y-88918872D01*
X71955645Y-88750000D01*
X71935140Y-88581128D01*
X71874818Y-88422070D01*
X71811773Y-88330734D01*
X71778184Y-88282072D01*
X71705781Y-88217929D01*
X71650852Y-88169266D01*
X71593736Y-88139289D01*
X71500224Y-88090209D01*
X71375764Y-88059533D01*
X71335056Y-88049500D01*
X71164944Y-88049500D01*
X71132284Y-88057549D01*
X70999775Y-88090209D01*
X70849149Y-88169265D01*
X70721815Y-88282072D01*
X70625182Y-88422069D01*
X70564860Y-88581127D01*
X70544354Y-88749999D01*
X55241983Y-88749999D01*
X55278183Y-88717929D01*
X55374818Y-88577930D01*
X55435140Y-88418872D01*
X55455645Y-88250000D01*
X55435140Y-88081128D01*
X55374818Y-87922070D01*
X55311773Y-87830734D01*
X55305739Y-87821992D01*
X55284115Y-87760534D01*
X55296632Y-87696595D01*
X55339837Y-87647829D01*
X55401800Y-87627697D01*
X55465415Y-87641756D01*
X55499775Y-87659790D01*
X55664944Y-87700500D01*
X55835055Y-87700500D01*
X55835056Y-87700500D01*
X56000225Y-87659790D01*
X56150852Y-87580734D01*
X56278183Y-87467929D01*
X56374818Y-87327930D01*
X56435140Y-87168872D01*
X56455645Y-87000000D01*
X56435140Y-86831128D01*
X56374818Y-86672070D01*
X56311770Y-86580730D01*
X56278184Y-86532072D01*
X56241981Y-86499999D01*
X56150852Y-86419266D01*
X56136588Y-86411779D01*
X56000224Y-86340209D01*
X55875765Y-86309533D01*
X55835056Y-86299500D01*
X55664944Y-86299500D01*
X55632284Y-86307549D01*
X55499775Y-86340209D01*
X55349149Y-86419265D01*
X55221815Y-86532072D01*
X55125182Y-86672069D01*
X55064860Y-86831127D01*
X55044354Y-86999999D01*
X55064860Y-87168872D01*
X55125182Y-87327930D01*
X55194260Y-87428007D01*
X55215884Y-87489465D01*
X55203367Y-87553403D01*
X55160163Y-87602170D01*
X55098199Y-87622302D01*
X55034584Y-87608243D01*
X55020345Y-87600770D01*
X55000224Y-87590209D01*
X54850891Y-87553403D01*
X54835056Y-87549500D01*
X54664944Y-87549500D01*
X54649109Y-87553403D01*
X54499775Y-87590209D01*
X54349149Y-87669265D01*
X54221815Y-87782072D01*
X54125182Y-87922069D01*
X54064860Y-88081127D01*
X54044354Y-88250000D01*
X48000500Y-88250000D01*
X48000500Y-86000000D01*
X60484400Y-86000000D01*
X60504906Y-86168872D01*
X60565228Y-86327930D01*
X60661863Y-86467929D01*
X60786028Y-86577930D01*
X60789194Y-86580734D01*
X60792526Y-86582483D01*
X60836948Y-86621836D01*
X60857995Y-86677329D01*
X60850842Y-86736247D01*
X60814860Y-86831127D01*
X60794354Y-86999999D01*
X60814860Y-87168872D01*
X60875182Y-87327930D01*
X60971815Y-87467927D01*
X60971816Y-87467928D01*
X60971817Y-87467929D01*
X61099148Y-87580734D01*
X61249775Y-87659790D01*
X61414944Y-87700500D01*
X61585055Y-87700500D01*
X61585056Y-87700500D01*
X61750225Y-87659790D01*
X61900852Y-87580734D01*
X61991982Y-87500000D01*
X62794354Y-87500000D01*
X62814860Y-87668872D01*
X62875182Y-87827930D01*
X62971815Y-87967927D01*
X62971816Y-87967928D01*
X62971817Y-87967929D01*
X63099148Y-88080734D01*
X63249775Y-88159790D01*
X63414944Y-88200500D01*
X63585055Y-88200500D01*
X63585056Y-88200500D01*
X63750225Y-88159790D01*
X63900852Y-88080734D01*
X64028183Y-87967929D01*
X64124818Y-87827930D01*
X64163435Y-87726105D01*
X64189948Y-87684178D01*
X64230773Y-87655999D01*
X64279377Y-87646076D01*
X64416692Y-87646076D01*
X64416693Y-87646076D01*
X64581862Y-87605366D01*
X64732489Y-87526310D01*
X64859820Y-87413505D01*
X64956455Y-87273506D01*
X65016777Y-87114448D01*
X65037282Y-86945576D01*
X65016777Y-86776704D01*
X64956455Y-86617646D01*
X64897387Y-86532072D01*
X64875249Y-86499999D01*
X67544354Y-86499999D01*
X67564860Y-86668872D01*
X67625182Y-86827930D01*
X67721815Y-86967927D01*
X67721816Y-86967928D01*
X67721817Y-86967929D01*
X67849148Y-87080734D01*
X67999775Y-87159790D01*
X68164944Y-87200500D01*
X68335055Y-87200500D01*
X68335056Y-87200500D01*
X68500225Y-87159790D01*
X68650852Y-87080734D01*
X68778183Y-86967929D01*
X68874818Y-86827930D01*
X68935140Y-86668872D01*
X68955645Y-86500000D01*
X68935140Y-86331128D01*
X68904372Y-86249999D01*
X73544354Y-86249999D01*
X73564860Y-86418872D01*
X73625182Y-86577930D01*
X73721815Y-86717927D01*
X73721816Y-86717928D01*
X73721817Y-86717929D01*
X73849148Y-86830734D01*
X73999775Y-86909790D01*
X74164944Y-86950500D01*
X74335055Y-86950500D01*
X74335056Y-86950500D01*
X74500225Y-86909790D01*
X74650852Y-86830734D01*
X74778183Y-86717929D01*
X74874818Y-86577930D01*
X74935140Y-86418872D01*
X74955645Y-86250000D01*
X74935140Y-86081128D01*
X74874818Y-85922070D01*
X74809850Y-85827948D01*
X74778184Y-85782072D01*
X74705781Y-85717929D01*
X74650852Y-85669266D01*
X74529392Y-85605518D01*
X74500224Y-85590209D01*
X74375764Y-85559533D01*
X74335056Y-85549500D01*
X74164944Y-85549500D01*
X74132284Y-85557549D01*
X73999775Y-85590209D01*
X73849149Y-85669265D01*
X73721815Y-85782072D01*
X73625182Y-85922069D01*
X73564860Y-86081127D01*
X73544354Y-86249999D01*
X68904372Y-86249999D01*
X68874818Y-86172070D01*
X68778183Y-86032071D01*
X68650852Y-85919266D01*
X68632797Y-85909790D01*
X68500224Y-85840209D01*
X68375765Y-85809533D01*
X68335056Y-85799500D01*
X68164944Y-85799500D01*
X68132284Y-85807549D01*
X67999775Y-85840209D01*
X67849149Y-85919265D01*
X67721815Y-86032072D01*
X67625182Y-86172069D01*
X67564860Y-86331127D01*
X67544354Y-86499999D01*
X64875249Y-86499999D01*
X64859821Y-86477648D01*
X64859820Y-86477647D01*
X64732489Y-86364842D01*
X64662160Y-86327930D01*
X64581861Y-86285785D01*
X64457401Y-86255109D01*
X64416693Y-86245076D01*
X64246581Y-86245076D01*
X64213921Y-86253125D01*
X64081412Y-86285785D01*
X63930786Y-86364841D01*
X63803452Y-86477648D01*
X63706818Y-86617646D01*
X63668202Y-86719471D01*
X63641689Y-86761398D01*
X63600864Y-86789577D01*
X63552260Y-86799500D01*
X63414944Y-86799500D01*
X63382284Y-86807549D01*
X63249775Y-86840209D01*
X63099149Y-86919265D01*
X62971815Y-87032072D01*
X62875182Y-87172069D01*
X62814860Y-87331127D01*
X62794354Y-87500000D01*
X61991982Y-87500000D01*
X62028183Y-87467929D01*
X62124818Y-87327930D01*
X62185140Y-87168872D01*
X62205645Y-87000000D01*
X62185140Y-86831128D01*
X62124818Y-86672070D01*
X62028183Y-86532071D01*
X62028182Y-86532070D01*
X61900852Y-86419265D01*
X61897515Y-86417514D01*
X61853094Y-86378157D01*
X61832050Y-86322665D01*
X61839204Y-86263749D01*
X61875186Y-86168872D01*
X61895691Y-86000000D01*
X61875186Y-85831128D01*
X61814864Y-85672070D01*
X61751819Y-85580734D01*
X61718230Y-85532072D01*
X61682028Y-85500000D01*
X61590898Y-85419266D01*
X61576634Y-85411780D01*
X61440270Y-85340209D01*
X61315810Y-85309533D01*
X61275102Y-85299500D01*
X61104990Y-85299500D01*
X61072330Y-85307549D01*
X60939821Y-85340209D01*
X60789195Y-85419265D01*
X60661861Y-85532072D01*
X60565228Y-85672069D01*
X60504906Y-85831127D01*
X60484400Y-86000000D01*
X48000500Y-86000000D01*
X48000500Y-84456670D01*
X54479358Y-84456670D01*
X54499864Y-84625542D01*
X54560186Y-84784600D01*
X54656819Y-84924597D01*
X54656820Y-84924598D01*
X54656821Y-84924599D01*
X54784152Y-85037404D01*
X54934779Y-85116460D01*
X55099948Y-85157170D01*
X55099949Y-85157170D01*
X55224830Y-85157170D01*
X55273434Y-85167093D01*
X55314259Y-85195272D01*
X55340772Y-85237199D01*
X55375181Y-85327929D01*
X55471815Y-85467927D01*
X55471816Y-85467928D01*
X55471817Y-85467929D01*
X55599148Y-85580734D01*
X55749775Y-85659790D01*
X55914944Y-85700500D01*
X56085055Y-85700500D01*
X56085056Y-85700500D01*
X56250225Y-85659790D01*
X56400852Y-85580734D01*
X56528183Y-85467929D01*
X56624818Y-85327930D01*
X56685140Y-85168872D01*
X56705645Y-85000000D01*
X56685140Y-84831128D01*
X56624818Y-84672070D01*
X56568314Y-84590210D01*
X56528184Y-84532072D01*
X56528183Y-84532071D01*
X56400852Y-84419266D01*
X56377308Y-84406909D01*
X56250224Y-84340209D01*
X56125764Y-84309533D01*
X56085056Y-84299500D01*
X55960173Y-84299500D01*
X55911569Y-84289577D01*
X55870744Y-84261397D01*
X55844231Y-84219470D01*
X55809822Y-84128740D01*
X55741650Y-84029976D01*
X68514377Y-84029976D01*
X68534883Y-84198849D01*
X68595205Y-84357907D01*
X68691838Y-84497904D01*
X68691839Y-84497905D01*
X68691840Y-84497906D01*
X68816331Y-84608195D01*
X68846130Y-84647849D01*
X68858001Y-84696014D01*
X68850044Y-84744978D01*
X68807974Y-84855909D01*
X68787468Y-85024784D01*
X68807974Y-85193656D01*
X68868296Y-85352714D01*
X68964929Y-85492711D01*
X68964930Y-85492712D01*
X68964931Y-85492713D01*
X69092262Y-85605518D01*
X69242889Y-85684574D01*
X69408058Y-85725284D01*
X69578169Y-85725284D01*
X69578170Y-85725284D01*
X69743339Y-85684574D01*
X69893966Y-85605518D01*
X70021297Y-85492713D01*
X70117932Y-85352714D01*
X70178254Y-85193656D01*
X70198759Y-85024784D01*
X70178254Y-84855912D01*
X70117932Y-84696854D01*
X70056733Y-84608192D01*
X70021296Y-84556853D01*
X69896807Y-84446566D01*
X69867006Y-84406909D01*
X69855135Y-84358744D01*
X69863091Y-84309784D01*
X69905163Y-84198849D01*
X69925668Y-84029977D01*
X69905163Y-83861105D01*
X69844841Y-83702047D01*
X69748206Y-83562048D01*
X69620875Y-83449243D01*
X69606611Y-83441756D01*
X69470247Y-83370186D01*
X69345788Y-83339510D01*
X69305079Y-83329477D01*
X69134967Y-83329477D01*
X69102307Y-83337526D01*
X68969798Y-83370186D01*
X68819172Y-83449242D01*
X68691838Y-83562049D01*
X68595205Y-83702046D01*
X68534883Y-83861104D01*
X68514377Y-84029976D01*
X55741650Y-84029976D01*
X55713188Y-83988742D01*
X55713187Y-83988741D01*
X55585856Y-83875936D01*
X55557596Y-83861104D01*
X55435228Y-83796879D01*
X55310769Y-83766203D01*
X55270060Y-83756170D01*
X55099948Y-83756170D01*
X55067288Y-83764219D01*
X54934779Y-83796879D01*
X54784153Y-83875935D01*
X54656819Y-83988742D01*
X54560186Y-84128739D01*
X54499864Y-84287797D01*
X54479358Y-84456670D01*
X48000500Y-84456670D01*
X48000500Y-83000500D01*
X81294354Y-83000500D01*
X81314860Y-83169372D01*
X81375182Y-83328430D01*
X81471815Y-83468427D01*
X81471816Y-83468428D01*
X81471817Y-83468429D01*
X81599148Y-83581234D01*
X81749775Y-83660290D01*
X81914944Y-83701000D01*
X82085055Y-83701000D01*
X82085056Y-83701000D01*
X82250225Y-83660290D01*
X82400852Y-83581234D01*
X82528183Y-83468429D01*
X82624818Y-83328430D01*
X82685140Y-83169372D01*
X82705645Y-83000500D01*
X82685140Y-82831628D01*
X82624818Y-82672570D01*
X82576500Y-82602570D01*
X82528184Y-82532572D01*
X82528183Y-82532571D01*
X82491418Y-82500000D01*
X84969854Y-82500000D01*
X84990360Y-82668872D01*
X85050682Y-82827930D01*
X85147315Y-82967927D01*
X85147316Y-82967928D01*
X85147317Y-82967929D01*
X85274648Y-83080734D01*
X85425275Y-83159790D01*
X85590444Y-83200500D01*
X85760555Y-83200500D01*
X85760556Y-83200500D01*
X85925725Y-83159790D01*
X86076352Y-83080734D01*
X86203683Y-82967929D01*
X86300318Y-82827930D01*
X86346807Y-82705345D01*
X86380522Y-82656500D01*
X86433075Y-82628918D01*
X86492425Y-82628918D01*
X86544978Y-82656500D01*
X86578692Y-82705345D01*
X86583464Y-82717929D01*
X86625182Y-82827930D01*
X86627734Y-82831627D01*
X86721815Y-82967927D01*
X86721816Y-82967928D01*
X86721817Y-82967929D01*
X86849148Y-83080734D01*
X86999775Y-83159790D01*
X87164944Y-83200500D01*
X87335055Y-83200500D01*
X87335056Y-83200500D01*
X87500225Y-83159790D01*
X87650852Y-83080734D01*
X87778183Y-82967929D01*
X87874818Y-82827930D01*
X87935140Y-82668872D01*
X87955645Y-82500000D01*
X87935140Y-82331128D01*
X87874818Y-82172070D01*
X87840384Y-82122184D01*
X87819338Y-82066690D01*
X87826492Y-82007772D01*
X87831858Y-81999999D01*
X105294354Y-81999999D01*
X105314860Y-82168872D01*
X105375182Y-82327930D01*
X105471815Y-82467927D01*
X105471816Y-82467928D01*
X105471817Y-82467929D01*
X105599148Y-82580734D01*
X105749775Y-82659790D01*
X105914944Y-82700500D01*
X106085055Y-82700500D01*
X106085056Y-82700500D01*
X106250225Y-82659790D01*
X106400852Y-82580734D01*
X106417773Y-82565742D01*
X106470323Y-82538162D01*
X106529674Y-82538161D01*
X106582225Y-82565742D01*
X106599148Y-82580734D01*
X106749775Y-82659790D01*
X106914944Y-82700500D01*
X107085055Y-82700500D01*
X107085056Y-82700500D01*
X107250225Y-82659790D01*
X107400852Y-82580734D01*
X107417773Y-82565742D01*
X107470323Y-82538162D01*
X107529674Y-82538161D01*
X107582225Y-82565742D01*
X107599148Y-82580734D01*
X107749775Y-82659790D01*
X107914944Y-82700500D01*
X108085055Y-82700500D01*
X108085056Y-82700500D01*
X108250225Y-82659790D01*
X108400852Y-82580734D01*
X108528183Y-82467929D01*
X108624818Y-82327930D01*
X108685140Y-82168872D01*
X108705645Y-82000000D01*
X108685140Y-81831128D01*
X108624818Y-81672070D01*
X108568313Y-81590209D01*
X108528184Y-81532072D01*
X108500000Y-81507103D01*
X108400852Y-81419266D01*
X108386588Y-81411779D01*
X108250224Y-81340209D01*
X108125764Y-81309533D01*
X108085056Y-81299500D01*
X107914944Y-81299500D01*
X107882284Y-81307549D01*
X107749775Y-81340209D01*
X107599146Y-81419267D01*
X107582225Y-81434258D01*
X107529674Y-81461838D01*
X107470326Y-81461838D01*
X107417775Y-81434258D01*
X107400853Y-81419267D01*
X107400852Y-81419266D01*
X107305965Y-81369465D01*
X107250224Y-81340209D01*
X107125764Y-81309533D01*
X107085056Y-81299500D01*
X106914944Y-81299500D01*
X106882284Y-81307549D01*
X106749775Y-81340209D01*
X106599146Y-81419267D01*
X106582225Y-81434258D01*
X106529674Y-81461838D01*
X106470326Y-81461838D01*
X106417775Y-81434258D01*
X106400853Y-81419267D01*
X106400852Y-81419266D01*
X106305965Y-81369465D01*
X106250224Y-81340209D01*
X106125764Y-81309533D01*
X106085056Y-81299500D01*
X105914944Y-81299500D01*
X105882284Y-81307549D01*
X105749775Y-81340209D01*
X105599149Y-81419265D01*
X105471815Y-81532072D01*
X105375182Y-81672069D01*
X105314860Y-81831127D01*
X105294354Y-81999999D01*
X87831858Y-81999999D01*
X87860208Y-81958928D01*
X87912758Y-81931348D01*
X88000225Y-81909790D01*
X88150852Y-81830734D01*
X88278183Y-81717929D01*
X88374818Y-81577930D01*
X88435140Y-81418872D01*
X88455645Y-81250000D01*
X92544354Y-81250000D01*
X92564860Y-81418872D01*
X92625182Y-81577930D01*
X92721815Y-81717927D01*
X92721816Y-81717928D01*
X92721817Y-81717929D01*
X92849148Y-81830734D01*
X92999775Y-81909790D01*
X93164944Y-81950500D01*
X93335055Y-81950500D01*
X93335056Y-81950500D01*
X93500225Y-81909790D01*
X93650852Y-81830734D01*
X93778183Y-81717929D01*
X93874818Y-81577930D01*
X93935140Y-81418872D01*
X93955645Y-81250000D01*
X93935140Y-81081128D01*
X93874818Y-80922070D01*
X93804665Y-80820436D01*
X93785223Y-80774803D01*
X93785223Y-80725197D01*
X93804667Y-80679560D01*
X93874818Y-80577930D01*
X93935140Y-80418872D01*
X93955645Y-80250000D01*
X93935140Y-80081128D01*
X93874818Y-79922070D01*
X93812045Y-79831128D01*
X93778184Y-79782072D01*
X93741982Y-79750000D01*
X93650852Y-79669266D01*
X93632797Y-79659790D01*
X93500224Y-79590209D01*
X93375764Y-79559533D01*
X93335056Y-79549500D01*
X93164944Y-79549500D01*
X93132284Y-79557549D01*
X92999775Y-79590209D01*
X92849149Y-79669265D01*
X92721815Y-79782072D01*
X92625182Y-79922069D01*
X92564860Y-80081127D01*
X92544354Y-80249999D01*
X92564860Y-80418872D01*
X92625182Y-80577930D01*
X92695332Y-80679560D01*
X92714776Y-80725197D01*
X92714776Y-80774803D01*
X92695332Y-80820440D01*
X92625182Y-80922069D01*
X92564860Y-81081127D01*
X92544354Y-81250000D01*
X88455645Y-81250000D01*
X88435140Y-81081128D01*
X88374818Y-80922070D01*
X88304665Y-80820436D01*
X88285223Y-80774803D01*
X88285223Y-80725197D01*
X88304667Y-80679560D01*
X88374818Y-80577930D01*
X88435140Y-80418872D01*
X88455645Y-80250000D01*
X88435140Y-80081128D01*
X88374818Y-79922070D01*
X88312045Y-79831128D01*
X88278184Y-79782072D01*
X88241982Y-79750000D01*
X88150852Y-79669266D01*
X88132797Y-79659790D01*
X88000224Y-79590209D01*
X87875764Y-79559533D01*
X87835056Y-79549500D01*
X87664944Y-79549500D01*
X87632284Y-79557549D01*
X87499775Y-79590209D01*
X87349149Y-79669265D01*
X87221815Y-79782072D01*
X87125182Y-79922069D01*
X87064860Y-80081127D01*
X87044354Y-80249999D01*
X87064860Y-80418872D01*
X87125182Y-80577930D01*
X87195332Y-80679560D01*
X87214776Y-80725197D01*
X87214776Y-80774803D01*
X87195332Y-80820440D01*
X87125182Y-80922069D01*
X87064860Y-81081127D01*
X87044354Y-81250000D01*
X87064860Y-81418872D01*
X87125182Y-81577930D01*
X87159615Y-81627815D01*
X87180661Y-81683309D01*
X87173507Y-81742226D01*
X87139792Y-81791071D01*
X87087240Y-81818652D01*
X86999775Y-81840209D01*
X86849149Y-81919265D01*
X86721815Y-82032072D01*
X86625181Y-82172069D01*
X86578692Y-82294655D01*
X86544977Y-82343499D01*
X86492425Y-82371081D01*
X86433075Y-82371081D01*
X86380523Y-82343499D01*
X86346808Y-82294655D01*
X86300318Y-82172069D01*
X86203684Y-82032072D01*
X86121121Y-81958928D01*
X86076352Y-81919266D01*
X86041727Y-81901093D01*
X85925724Y-81840209D01*
X85801264Y-81809533D01*
X85760556Y-81799500D01*
X85590444Y-81799500D01*
X85557784Y-81807549D01*
X85425275Y-81840209D01*
X85274649Y-81919265D01*
X85147315Y-82032072D01*
X85050682Y-82172069D01*
X84990360Y-82331127D01*
X84969854Y-82500000D01*
X82491418Y-82500000D01*
X82400852Y-82419766D01*
X82386588Y-82412279D01*
X82250224Y-82340709D01*
X82125765Y-82310033D01*
X82085056Y-82300000D01*
X81914944Y-82300000D01*
X81882284Y-82308049D01*
X81749775Y-82340709D01*
X81599149Y-82419765D01*
X81471815Y-82532572D01*
X81375182Y-82672569D01*
X81314860Y-82831627D01*
X81294354Y-83000500D01*
X48000500Y-83000500D01*
X48000500Y-82250000D01*
X68293854Y-82250000D01*
X68314360Y-82418872D01*
X68374682Y-82577930D01*
X68471315Y-82717927D01*
X68471316Y-82717928D01*
X68471317Y-82717929D01*
X68598648Y-82830734D01*
X68749275Y-82909790D01*
X68914444Y-82950500D01*
X69084555Y-82950500D01*
X69084556Y-82950500D01*
X69249725Y-82909790D01*
X69400352Y-82830734D01*
X69527683Y-82717929D01*
X69624318Y-82577930D01*
X69684640Y-82418872D01*
X69705145Y-82250000D01*
X69684640Y-82081128D01*
X69624318Y-81922070D01*
X69552933Y-81818652D01*
X69527684Y-81782072D01*
X69416203Y-81683309D01*
X69400352Y-81669266D01*
X69321375Y-81627815D01*
X69249724Y-81590209D01*
X69125265Y-81559533D01*
X69084556Y-81549500D01*
X68914444Y-81549500D01*
X68881784Y-81557549D01*
X68749275Y-81590209D01*
X68598649Y-81669265D01*
X68471315Y-81782072D01*
X68374682Y-81922069D01*
X68314360Y-82081127D01*
X68293854Y-82250000D01*
X48000500Y-82250000D01*
X48000500Y-81200592D01*
X61283807Y-81200592D01*
X61304313Y-81369465D01*
X61364635Y-81528523D01*
X61461268Y-81668520D01*
X61461269Y-81668521D01*
X61461270Y-81668522D01*
X61588601Y-81781327D01*
X61739228Y-81860383D01*
X61904397Y-81901093D01*
X62074508Y-81901093D01*
X62074509Y-81901093D01*
X62239678Y-81860383D01*
X62390305Y-81781327D01*
X62517636Y-81668522D01*
X62614271Y-81528523D01*
X62674593Y-81369465D01*
X62695098Y-81200593D01*
X62674593Y-81031721D01*
X62614271Y-80872663D01*
X62565953Y-80802663D01*
X62517637Y-80732665D01*
X62509207Y-80725197D01*
X62390305Y-80619859D01*
X62376041Y-80612373D01*
X62239677Y-80540802D01*
X62115218Y-80510126D01*
X62074509Y-80500093D01*
X61904397Y-80500093D01*
X61871737Y-80508142D01*
X61739228Y-80540802D01*
X61588602Y-80619858D01*
X61461268Y-80732665D01*
X61364635Y-80872662D01*
X61304313Y-81031720D01*
X61283807Y-81200592D01*
X48000500Y-81200592D01*
X48000500Y-79750000D01*
X58044354Y-79750000D01*
X58064860Y-79918872D01*
X58125182Y-80077930D01*
X58221815Y-80217927D01*
X58221816Y-80217928D01*
X58221817Y-80217929D01*
X58349148Y-80330734D01*
X58499775Y-80409790D01*
X58664944Y-80450500D01*
X58835055Y-80450500D01*
X58835056Y-80450500D01*
X59000225Y-80409790D01*
X59150852Y-80330734D01*
X59241983Y-80249999D01*
X78794354Y-80249999D01*
X78814860Y-80418872D01*
X78875182Y-80577930D01*
X78971815Y-80717927D01*
X78971816Y-80717928D01*
X78971817Y-80717929D01*
X79099148Y-80830734D01*
X79249775Y-80909790D01*
X79414944Y-80950500D01*
X79585055Y-80950500D01*
X79585056Y-80950500D01*
X79750225Y-80909790D01*
X79900852Y-80830734D01*
X80028183Y-80717929D01*
X80124818Y-80577930D01*
X80124819Y-80577926D01*
X80129231Y-80571535D01*
X80182677Y-80527898D01*
X80251171Y-80519581D01*
X80313505Y-80549158D01*
X80349148Y-80580734D01*
X80499775Y-80659790D01*
X80664944Y-80700500D01*
X80835055Y-80700500D01*
X80835056Y-80700500D01*
X81000225Y-80659790D01*
X81150852Y-80580734D01*
X81278183Y-80467929D01*
X81374818Y-80327930D01*
X81435140Y-80168872D01*
X81435140Y-80168871D01*
X81440479Y-80154794D01*
X81443764Y-80156039D01*
X81454355Y-80128026D01*
X81498777Y-80088612D01*
X81556432Y-80074374D01*
X81614091Y-80088577D01*
X81749775Y-80159790D01*
X81914944Y-80200500D01*
X82085055Y-80200500D01*
X82085056Y-80200500D01*
X82250225Y-80159790D01*
X82400852Y-80080734D01*
X82528183Y-79967929D01*
X82624818Y-79827930D01*
X82685140Y-79668872D01*
X82705645Y-79500000D01*
X82685140Y-79331128D01*
X82624818Y-79172070D01*
X82560650Y-79079107D01*
X82528184Y-79032072D01*
X82466604Y-78977517D01*
X82400852Y-78919266D01*
X82338428Y-78886503D01*
X82250224Y-78840209D01*
X82125764Y-78809533D01*
X82085056Y-78799500D01*
X81914944Y-78799500D01*
X81882284Y-78807549D01*
X81749775Y-78840209D01*
X81599149Y-78919265D01*
X81471815Y-79032072D01*
X81375182Y-79172069D01*
X81309521Y-79345206D01*
X81306245Y-79343963D01*
X81295495Y-79372190D01*
X81251067Y-79411469D01*
X81193480Y-79425625D01*
X81135905Y-79411421D01*
X81061157Y-79372190D01*
X81000224Y-79340209D01*
X80875765Y-79309533D01*
X80835056Y-79299500D01*
X80664944Y-79299500D01*
X80632284Y-79307549D01*
X80499775Y-79340209D01*
X80349149Y-79419265D01*
X80349147Y-79419266D01*
X80349148Y-79419266D01*
X80221817Y-79532071D01*
X80127118Y-79669266D01*
X80120768Y-79678465D01*
X80067322Y-79722101D01*
X79998828Y-79730418D01*
X79936492Y-79700840D01*
X79900853Y-79669267D01*
X79900852Y-79669266D01*
X79825538Y-79629737D01*
X79750224Y-79590209D01*
X79625764Y-79559533D01*
X79585056Y-79549500D01*
X79414944Y-79549500D01*
X79382284Y-79557549D01*
X79249775Y-79590209D01*
X79099149Y-79669265D01*
X78971815Y-79782072D01*
X78875182Y-79922069D01*
X78814860Y-80081127D01*
X78794354Y-80249999D01*
X59241983Y-80249999D01*
X59278183Y-80217929D01*
X59374818Y-80077930D01*
X59435140Y-79918872D01*
X59455645Y-79750000D01*
X59435140Y-79581128D01*
X59374818Y-79422070D01*
X59364441Y-79407037D01*
X69218453Y-79407037D01*
X69238959Y-79575910D01*
X69299281Y-79734968D01*
X69395914Y-79874965D01*
X69395915Y-79874966D01*
X69395916Y-79874967D01*
X69523247Y-79987772D01*
X69673874Y-80066828D01*
X69839043Y-80107538D01*
X70009154Y-80107538D01*
X70009155Y-80107538D01*
X70174324Y-80066828D01*
X70324951Y-79987772D01*
X70452282Y-79874967D01*
X70548917Y-79734968D01*
X70609239Y-79575910D01*
X70629744Y-79407038D01*
X70609239Y-79238166D01*
X70548917Y-79079108D01*
X70452282Y-78939109D01*
X70392899Y-78886501D01*
X70356742Y-78830578D01*
X70354730Y-78764012D01*
X70387446Y-78706005D01*
X70445453Y-78673290D01*
X70459001Y-78669950D01*
X70500225Y-78659790D01*
X70650852Y-78580734D01*
X70778183Y-78467929D01*
X70874818Y-78327930D01*
X70935140Y-78168872D01*
X70955584Y-78000500D01*
X78794354Y-78000500D01*
X78814860Y-78169372D01*
X78875182Y-78328430D01*
X78971815Y-78468427D01*
X78971816Y-78468428D01*
X78971817Y-78468429D01*
X79099148Y-78581234D01*
X79249775Y-78660290D01*
X79414944Y-78701000D01*
X79585055Y-78701000D01*
X79585056Y-78701000D01*
X79750225Y-78660290D01*
X79900852Y-78581234D01*
X80028183Y-78468429D01*
X80028184Y-78468427D01*
X80039453Y-78458444D01*
X80040915Y-78460094D01*
X80067374Y-78436654D01*
X80125000Y-78422450D01*
X80182626Y-78436654D01*
X80209084Y-78460094D01*
X80210547Y-78458444D01*
X80221815Y-78468427D01*
X80221817Y-78468429D01*
X80349148Y-78581234D01*
X80499775Y-78660290D01*
X80664944Y-78701000D01*
X80835055Y-78701000D01*
X80835056Y-78701000D01*
X81000225Y-78660290D01*
X81150852Y-78581234D01*
X81278183Y-78468429D01*
X81374818Y-78328430D01*
X81378877Y-78317727D01*
X86536581Y-78317727D01*
X86557087Y-78486599D01*
X86617409Y-78645657D01*
X86714042Y-78785654D01*
X86714043Y-78785655D01*
X86714044Y-78785656D01*
X86841375Y-78898461D01*
X86992002Y-78977517D01*
X87157171Y-79018227D01*
X87327282Y-79018227D01*
X87327283Y-79018227D01*
X87401234Y-79000000D01*
X89794354Y-79000000D01*
X89814860Y-79168872D01*
X89875182Y-79327930D01*
X89971815Y-79467927D01*
X89971816Y-79467928D01*
X89971817Y-79467929D01*
X90099148Y-79580734D01*
X90249775Y-79659790D01*
X90414944Y-79700500D01*
X90585055Y-79700500D01*
X90585056Y-79700500D01*
X90750225Y-79659790D01*
X90900852Y-79580734D01*
X90991982Y-79500000D01*
X99794354Y-79500000D01*
X99814860Y-79668872D01*
X99875182Y-79827930D01*
X99971815Y-79967927D01*
X99971816Y-79967928D01*
X99971817Y-79967929D01*
X100099148Y-80080734D01*
X100249775Y-80159790D01*
X100414944Y-80200500D01*
X100585055Y-80200500D01*
X100585056Y-80200500D01*
X100750225Y-80159790D01*
X100900852Y-80080734D01*
X101028183Y-79967929D01*
X101124818Y-79827930D01*
X101185140Y-79668872D01*
X101205645Y-79500000D01*
X101185140Y-79331128D01*
X101124818Y-79172070D01*
X101060650Y-79079107D01*
X101028184Y-79032072D01*
X100966604Y-78977517D01*
X100900852Y-78919266D01*
X100838428Y-78886503D01*
X100750224Y-78840209D01*
X100625764Y-78809533D01*
X100585056Y-78799500D01*
X100414944Y-78799500D01*
X100382284Y-78807549D01*
X100249775Y-78840209D01*
X100099149Y-78919265D01*
X99971815Y-79032072D01*
X99875182Y-79172069D01*
X99814860Y-79331127D01*
X99794354Y-79500000D01*
X90991982Y-79500000D01*
X91028183Y-79467929D01*
X91124818Y-79327930D01*
X91185140Y-79168872D01*
X91205645Y-79000000D01*
X91185140Y-78831128D01*
X91124818Y-78672070D01*
X91061773Y-78580734D01*
X91028184Y-78532072D01*
X91015160Y-78520534D01*
X90900852Y-78419266D01*
X90886588Y-78411779D01*
X90750224Y-78340209D01*
X90625765Y-78309533D01*
X90585056Y-78299500D01*
X90414944Y-78299500D01*
X90382284Y-78307549D01*
X90249775Y-78340209D01*
X90099149Y-78419265D01*
X89971815Y-78532072D01*
X89875182Y-78672069D01*
X89814860Y-78831127D01*
X89794354Y-79000000D01*
X87401234Y-79000000D01*
X87492452Y-78977517D01*
X87643079Y-78898461D01*
X87770410Y-78785656D01*
X87867045Y-78645657D01*
X87878201Y-78616238D01*
X87911914Y-78567395D01*
X87964466Y-78539813D01*
X88023817Y-78539812D01*
X88076366Y-78567391D01*
X88159102Y-78640688D01*
X88309729Y-78719744D01*
X88474898Y-78760454D01*
X88645009Y-78760454D01*
X88645010Y-78760454D01*
X88810179Y-78719744D01*
X88960806Y-78640688D01*
X89088137Y-78527883D01*
X89184772Y-78387884D01*
X89237064Y-78249999D01*
X94794354Y-78249999D01*
X94814860Y-78418872D01*
X94875182Y-78577930D01*
X94971815Y-78717927D01*
X94971816Y-78717928D01*
X94971817Y-78717929D01*
X95099148Y-78830734D01*
X95249775Y-78909790D01*
X95414944Y-78950500D01*
X95585055Y-78950500D01*
X95585056Y-78950500D01*
X95750225Y-78909790D01*
X95900852Y-78830734D01*
X96028183Y-78717929D01*
X96124818Y-78577930D01*
X96185140Y-78418872D01*
X96205645Y-78250000D01*
X96205645Y-78249999D01*
X96794354Y-78249999D01*
X96814860Y-78418872D01*
X96875182Y-78577930D01*
X96971815Y-78717927D01*
X96971816Y-78717928D01*
X96971817Y-78717929D01*
X97099148Y-78830734D01*
X97249775Y-78909790D01*
X97414944Y-78950500D01*
X97585055Y-78950500D01*
X97585056Y-78950500D01*
X97750225Y-78909790D01*
X97900852Y-78830734D01*
X98028183Y-78717929D01*
X98124818Y-78577930D01*
X98185140Y-78418872D01*
X98205645Y-78250000D01*
X98185140Y-78081128D01*
X98154373Y-78000000D01*
X102294354Y-78000000D01*
X102314860Y-78168872D01*
X102375182Y-78327930D01*
X102471815Y-78467927D01*
X102471816Y-78467928D01*
X102471817Y-78467929D01*
X102599148Y-78580734D01*
X102749775Y-78659790D01*
X102914944Y-78700500D01*
X103085055Y-78700500D01*
X103085056Y-78700500D01*
X103250225Y-78659790D01*
X103400852Y-78580734D01*
X103528183Y-78467929D01*
X103624818Y-78327930D01*
X103685140Y-78168872D01*
X103705645Y-78000000D01*
X103685140Y-77831128D01*
X103624818Y-77672070D01*
X103560265Y-77578549D01*
X103528184Y-77532072D01*
X103401416Y-77419766D01*
X103400852Y-77419266D01*
X103364455Y-77400163D01*
X103250224Y-77340209D01*
X103125764Y-77309533D01*
X103085056Y-77299500D01*
X102914944Y-77299500D01*
X102882284Y-77307549D01*
X102749775Y-77340209D01*
X102599149Y-77419265D01*
X102471815Y-77532072D01*
X102375182Y-77672069D01*
X102314860Y-77831127D01*
X102294354Y-78000000D01*
X98154373Y-78000000D01*
X98124818Y-77922070D01*
X98028183Y-77782071D01*
X97900852Y-77669266D01*
X97879265Y-77657936D01*
X97750224Y-77590209D01*
X97625764Y-77559533D01*
X97585056Y-77549500D01*
X97414944Y-77549500D01*
X97382284Y-77557549D01*
X97249775Y-77590209D01*
X97099149Y-77669265D01*
X96971815Y-77782072D01*
X96875182Y-77922069D01*
X96814860Y-78081127D01*
X96794354Y-78249999D01*
X96205645Y-78249999D01*
X96185140Y-78081128D01*
X96124818Y-77922070D01*
X96028183Y-77782071D01*
X95900852Y-77669266D01*
X95879265Y-77657936D01*
X95750224Y-77590209D01*
X95625764Y-77559533D01*
X95585056Y-77549500D01*
X95414944Y-77549500D01*
X95382284Y-77557549D01*
X95249775Y-77590209D01*
X95099149Y-77669265D01*
X94971815Y-77782072D01*
X94875182Y-77922069D01*
X94814860Y-78081127D01*
X94794354Y-78249999D01*
X89237064Y-78249999D01*
X89245094Y-78228826D01*
X89265599Y-78059954D01*
X89245094Y-77891082D01*
X89184772Y-77732024D01*
X89088137Y-77592025D01*
X88960806Y-77479220D01*
X88946542Y-77471733D01*
X88810178Y-77400163D01*
X88685719Y-77369487D01*
X88645010Y-77359454D01*
X88474898Y-77359454D01*
X88442238Y-77367503D01*
X88309729Y-77400163D01*
X88159103Y-77479219D01*
X88031769Y-77592026D01*
X87935135Y-77732024D01*
X87923979Y-77761442D01*
X87890264Y-77810286D01*
X87837712Y-77837868D01*
X87778362Y-77837868D01*
X87725812Y-77810288D01*
X87643079Y-77736993D01*
X87628815Y-77729506D01*
X87492451Y-77657936D01*
X87367991Y-77627260D01*
X87327283Y-77617227D01*
X87157171Y-77617227D01*
X87124511Y-77625276D01*
X86992002Y-77657936D01*
X86841376Y-77736992D01*
X86714042Y-77849799D01*
X86617409Y-77989796D01*
X86557087Y-78148854D01*
X86536581Y-78317727D01*
X81378877Y-78317727D01*
X81435140Y-78169372D01*
X81455645Y-78000500D01*
X81435140Y-77831628D01*
X81374818Y-77672570D01*
X81300117Y-77564348D01*
X81278184Y-77532572D01*
X81277620Y-77532072D01*
X81150852Y-77419766D01*
X81113502Y-77400163D01*
X81000224Y-77340709D01*
X80875764Y-77310033D01*
X80835056Y-77300000D01*
X80664944Y-77300000D01*
X80632284Y-77308049D01*
X80499775Y-77340709D01*
X80349149Y-77419765D01*
X80349147Y-77419766D01*
X80349148Y-77419766D01*
X80221817Y-77532571D01*
X80221815Y-77532572D01*
X80210547Y-77542556D01*
X80209084Y-77540905D01*
X80182621Y-77564348D01*
X80125000Y-77578549D01*
X80067379Y-77564348D01*
X80040915Y-77540905D01*
X80039453Y-77542556D01*
X80028184Y-77532572D01*
X80028183Y-77532571D01*
X79900852Y-77419766D01*
X79863502Y-77400163D01*
X79750224Y-77340709D01*
X79625764Y-77310033D01*
X79585056Y-77300000D01*
X79414944Y-77300000D01*
X79382284Y-77308049D01*
X79249775Y-77340709D01*
X79099149Y-77419765D01*
X78971815Y-77532572D01*
X78875182Y-77672569D01*
X78814860Y-77831627D01*
X78794354Y-78000500D01*
X70955584Y-78000500D01*
X70955645Y-78000000D01*
X70935140Y-77831128D01*
X70874818Y-77672070D01*
X70810265Y-77578549D01*
X70778184Y-77532072D01*
X70651416Y-77419766D01*
X70650852Y-77419266D01*
X70614455Y-77400163D01*
X70500224Y-77340209D01*
X70375764Y-77309533D01*
X70335056Y-77299500D01*
X70164944Y-77299500D01*
X70132284Y-77307549D01*
X69999775Y-77340209D01*
X69849149Y-77419265D01*
X69721815Y-77532072D01*
X69625182Y-77672069D01*
X69564860Y-77831127D01*
X69544354Y-78000000D01*
X69562429Y-78148854D01*
X69564860Y-78168872D01*
X69625182Y-78327930D01*
X69721817Y-78467929D01*
X69781198Y-78520536D01*
X69817356Y-78576458D01*
X69819368Y-78643024D01*
X69786653Y-78701030D01*
X69728647Y-78733747D01*
X69673874Y-78747247D01*
X69523248Y-78826303D01*
X69395914Y-78939110D01*
X69299281Y-79079107D01*
X69238959Y-79238165D01*
X69218453Y-79407037D01*
X59364441Y-79407037D01*
X59311773Y-79330734D01*
X59278184Y-79282072D01*
X59205779Y-79217927D01*
X59150852Y-79169266D01*
X59136588Y-79161779D01*
X59000224Y-79090209D01*
X58875764Y-79059533D01*
X58835056Y-79049500D01*
X58664944Y-79049500D01*
X58632284Y-79057549D01*
X58499775Y-79090209D01*
X58349149Y-79169265D01*
X58221815Y-79282072D01*
X58125182Y-79422069D01*
X58064860Y-79581127D01*
X58044354Y-79750000D01*
X48000500Y-79750000D01*
X48000500Y-78749999D01*
X54544354Y-78749999D01*
X54564860Y-78918872D01*
X54625182Y-79077930D01*
X54721815Y-79217927D01*
X54721816Y-79217928D01*
X54721817Y-79217929D01*
X54849148Y-79330734D01*
X54999775Y-79409790D01*
X55164944Y-79450500D01*
X55335055Y-79450500D01*
X55335056Y-79450500D01*
X55500225Y-79409790D01*
X55650852Y-79330734D01*
X55778183Y-79217929D01*
X55874818Y-79077930D01*
X55935140Y-78918872D01*
X55955645Y-78750000D01*
X55935140Y-78581128D01*
X55874818Y-78422070D01*
X55809851Y-78327950D01*
X55778184Y-78282072D01*
X55741981Y-78249999D01*
X61044354Y-78249999D01*
X61064860Y-78418872D01*
X61125182Y-78577930D01*
X61221815Y-78717927D01*
X61221816Y-78717928D01*
X61221817Y-78717929D01*
X61349148Y-78830734D01*
X61499775Y-78909790D01*
X61664944Y-78950500D01*
X61835055Y-78950500D01*
X61835056Y-78950500D01*
X62000225Y-78909790D01*
X62150852Y-78830734D01*
X62278183Y-78717929D01*
X62374818Y-78577930D01*
X62435140Y-78418872D01*
X62455645Y-78250000D01*
X62435140Y-78081128D01*
X62374818Y-77922070D01*
X62278183Y-77782071D01*
X62150852Y-77669266D01*
X62129265Y-77657936D01*
X62000224Y-77590209D01*
X61875764Y-77559533D01*
X61835056Y-77549500D01*
X61664944Y-77549500D01*
X61632284Y-77557549D01*
X61499775Y-77590209D01*
X61349149Y-77669265D01*
X61221815Y-77782072D01*
X61125182Y-77922069D01*
X61064860Y-78081127D01*
X61044354Y-78249999D01*
X55741981Y-78249999D01*
X55650852Y-78169266D01*
X55611961Y-78148854D01*
X55500224Y-78090209D01*
X55375765Y-78059533D01*
X55335056Y-78049500D01*
X55164944Y-78049500D01*
X55132284Y-78057549D01*
X54999775Y-78090209D01*
X54849149Y-78169265D01*
X54721815Y-78282072D01*
X54625182Y-78422069D01*
X54564860Y-78581127D01*
X54544354Y-78749999D01*
X48000500Y-78749999D01*
X48000500Y-76250000D01*
X57273854Y-76250000D01*
X57294360Y-76418872D01*
X57354682Y-76577930D01*
X57451315Y-76717927D01*
X57451316Y-76717928D01*
X57451317Y-76717929D01*
X57578648Y-76830734D01*
X57729275Y-76909790D01*
X57894444Y-76950500D01*
X58064555Y-76950500D01*
X58064556Y-76950500D01*
X58229725Y-76909790D01*
X58380352Y-76830734D01*
X58507683Y-76717929D01*
X58604318Y-76577930D01*
X58664640Y-76418872D01*
X58685145Y-76250000D01*
X70294354Y-76250000D01*
X70314860Y-76418872D01*
X70375182Y-76577930D01*
X70471815Y-76717927D01*
X70471816Y-76717928D01*
X70471817Y-76717929D01*
X70599148Y-76830734D01*
X70749775Y-76909790D01*
X70914944Y-76950500D01*
X71085055Y-76950500D01*
X71085056Y-76950500D01*
X71250225Y-76909790D01*
X71400852Y-76830734D01*
X71528183Y-76717929D01*
X71624818Y-76577930D01*
X71654373Y-76499999D01*
X73294354Y-76499999D01*
X73314860Y-76668872D01*
X73375182Y-76827930D01*
X73471815Y-76967927D01*
X73471816Y-76967928D01*
X73471817Y-76967929D01*
X73599148Y-77080734D01*
X73749775Y-77159790D01*
X73914944Y-77200500D01*
X74085055Y-77200500D01*
X74085056Y-77200500D01*
X74250225Y-77159790D01*
X74400852Y-77080734D01*
X74528183Y-76967929D01*
X74624818Y-76827930D01*
X74685140Y-76668872D01*
X74705645Y-76500000D01*
X74685140Y-76331128D01*
X74624818Y-76172070D01*
X74528183Y-76032071D01*
X74491982Y-76000000D01*
X82794354Y-76000000D01*
X82814860Y-76168872D01*
X82875182Y-76327930D01*
X82971815Y-76467927D01*
X82971816Y-76467928D01*
X82971817Y-76467929D01*
X83099148Y-76580734D01*
X83249775Y-76659790D01*
X83414944Y-76700500D01*
X83585055Y-76700500D01*
X83585056Y-76700500D01*
X83750225Y-76659790D01*
X83900852Y-76580734D01*
X84009857Y-76484164D01*
X84778519Y-76484164D01*
X84799025Y-76653037D01*
X84859347Y-76812095D01*
X84955980Y-76952092D01*
X84955981Y-76952093D01*
X84955982Y-76952094D01*
X85083313Y-77064899D01*
X85233940Y-77143955D01*
X85399109Y-77184665D01*
X85569220Y-77184665D01*
X85569221Y-77184665D01*
X85734390Y-77143955D01*
X85885017Y-77064899D01*
X86012348Y-76952094D01*
X86108983Y-76812095D01*
X86169305Y-76653037D01*
X86189797Y-76484273D01*
X100528411Y-76484273D01*
X100548917Y-76653145D01*
X100609239Y-76812203D01*
X100705872Y-76952200D01*
X100705873Y-76952201D01*
X100705874Y-76952202D01*
X100833205Y-77065007D01*
X100983832Y-77144063D01*
X101149001Y-77184773D01*
X101319112Y-77184773D01*
X101319113Y-77184773D01*
X101484282Y-77144063D01*
X101634909Y-77065007D01*
X101762240Y-76952202D01*
X101858875Y-76812203D01*
X101919197Y-76653145D01*
X101939702Y-76484273D01*
X101919197Y-76315401D01*
X101858875Y-76156343D01*
X101806957Y-76081127D01*
X101762241Y-76016345D01*
X101655826Y-75922070D01*
X101634909Y-75903539D01*
X101570149Y-75869550D01*
X101484281Y-75824482D01*
X101336920Y-75788162D01*
X101319113Y-75783773D01*
X101149001Y-75783773D01*
X101131198Y-75788161D01*
X100983832Y-75824482D01*
X100833206Y-75903538D01*
X100705872Y-76016345D01*
X100609239Y-76156342D01*
X100548917Y-76315400D01*
X100528411Y-76484273D01*
X86189797Y-76484273D01*
X86189810Y-76484165D01*
X86169305Y-76315293D01*
X86108983Y-76156235D01*
X86023278Y-76032071D01*
X86012349Y-76016237D01*
X85994021Y-76000000D01*
X85885017Y-75903431D01*
X85885013Y-75903429D01*
X85873747Y-75893448D01*
X85875619Y-75891334D01*
X85851034Y-75869550D01*
X85829993Y-75814057D01*
X85837150Y-75755142D01*
X85870866Y-75706300D01*
X85923414Y-75678721D01*
X86000225Y-75659790D01*
X86150852Y-75580734D01*
X86278183Y-75467929D01*
X86374818Y-75327930D01*
X86435140Y-75168872D01*
X86452005Y-75029976D01*
X89074331Y-75029976D01*
X89094837Y-75198849D01*
X89155159Y-75357907D01*
X89251792Y-75497904D01*
X89251793Y-75497905D01*
X89251794Y-75497906D01*
X89379125Y-75610711D01*
X89529752Y-75689767D01*
X89694921Y-75730477D01*
X89865032Y-75730477D01*
X89865033Y-75730477D01*
X90030202Y-75689767D01*
X90180829Y-75610711D01*
X90308160Y-75497906D01*
X90404795Y-75357907D01*
X90445718Y-75250000D01*
X98294354Y-75250000D01*
X98314860Y-75418872D01*
X98375182Y-75577930D01*
X98471815Y-75717927D01*
X98471816Y-75717928D01*
X98471817Y-75717929D01*
X98599148Y-75830734D01*
X98749775Y-75909790D01*
X98914944Y-75950500D01*
X99085055Y-75950500D01*
X99085056Y-75950500D01*
X99250225Y-75909790D01*
X99400852Y-75830734D01*
X99417773Y-75815742D01*
X99470323Y-75788162D01*
X99529674Y-75788161D01*
X99582225Y-75815742D01*
X99599148Y-75830734D01*
X99749775Y-75909790D01*
X99914944Y-75950500D01*
X100085055Y-75950500D01*
X100085056Y-75950500D01*
X100250225Y-75909790D01*
X100400852Y-75830734D01*
X100528183Y-75717929D01*
X100624818Y-75577930D01*
X100685140Y-75418872D01*
X100705645Y-75250000D01*
X100685140Y-75081128D01*
X100654372Y-74999999D01*
X114794354Y-74999999D01*
X114814860Y-75168872D01*
X114875182Y-75327930D01*
X114971815Y-75467927D01*
X114971816Y-75467928D01*
X114971817Y-75467929D01*
X115099148Y-75580734D01*
X115249775Y-75659790D01*
X115414944Y-75700500D01*
X115585055Y-75700500D01*
X115585056Y-75700500D01*
X115750225Y-75659790D01*
X115900852Y-75580734D01*
X116028183Y-75467929D01*
X116124818Y-75327930D01*
X116185140Y-75168872D01*
X116205645Y-75000000D01*
X116185140Y-74831128D01*
X116124818Y-74672070D01*
X116068313Y-74590209D01*
X116028184Y-74532072D01*
X116028183Y-74532071D01*
X115900852Y-74419266D01*
X115886588Y-74411779D01*
X115750224Y-74340209D01*
X115625765Y-74309533D01*
X115585056Y-74299500D01*
X115414944Y-74299500D01*
X115382284Y-74307549D01*
X115249775Y-74340209D01*
X115099149Y-74419265D01*
X114971815Y-74532072D01*
X114875182Y-74672069D01*
X114814860Y-74831127D01*
X114794354Y-74999999D01*
X100654372Y-74999999D01*
X100624818Y-74922070D01*
X100528183Y-74782071D01*
X100400852Y-74669266D01*
X100386588Y-74661779D01*
X100250224Y-74590209D01*
X100125765Y-74559533D01*
X100085056Y-74549500D01*
X99914944Y-74549500D01*
X99882284Y-74557549D01*
X99749775Y-74590209D01*
X99599146Y-74669267D01*
X99582225Y-74684258D01*
X99529674Y-74711838D01*
X99470326Y-74711838D01*
X99417775Y-74684258D01*
X99400853Y-74669267D01*
X99400852Y-74669266D01*
X99325538Y-74629737D01*
X99250224Y-74590209D01*
X99125765Y-74559533D01*
X99085056Y-74549500D01*
X98914944Y-74549500D01*
X98882284Y-74557549D01*
X98749775Y-74590209D01*
X98599149Y-74669265D01*
X98471815Y-74782072D01*
X98375182Y-74922069D01*
X98314860Y-75081127D01*
X98294354Y-75250000D01*
X90445718Y-75250000D01*
X90465117Y-75198849D01*
X90485622Y-75029977D01*
X90465117Y-74861105D01*
X90404795Y-74702047D01*
X90308160Y-74562048D01*
X90180829Y-74449243D01*
X90123713Y-74419266D01*
X90030201Y-74370186D01*
X89905742Y-74339510D01*
X89865033Y-74329477D01*
X89694921Y-74329477D01*
X89662261Y-74337526D01*
X89529752Y-74370186D01*
X89379126Y-74449242D01*
X89251792Y-74562049D01*
X89155159Y-74702046D01*
X89094837Y-74861104D01*
X89074331Y-75029976D01*
X86452005Y-75029976D01*
X86455645Y-75000000D01*
X86435140Y-74831128D01*
X86374818Y-74672070D01*
X86318313Y-74590209D01*
X86278184Y-74532072D01*
X86278183Y-74532071D01*
X86150852Y-74419266D01*
X86136588Y-74411779D01*
X86000224Y-74340209D01*
X85875765Y-74309533D01*
X85835056Y-74299500D01*
X85664944Y-74299500D01*
X85632284Y-74307549D01*
X85499775Y-74340209D01*
X85349149Y-74419265D01*
X85221815Y-74532072D01*
X85125182Y-74672069D01*
X85064860Y-74831127D01*
X85044354Y-74999999D01*
X85064860Y-75168872D01*
X85125182Y-75327930D01*
X85221815Y-75467927D01*
X85221816Y-75467928D01*
X85221817Y-75467929D01*
X85349148Y-75580734D01*
X85349151Y-75580735D01*
X85360418Y-75590717D01*
X85358544Y-75592831D01*
X85383122Y-75614603D01*
X85404170Y-75670097D01*
X85397017Y-75729016D01*
X85363302Y-75777861D01*
X85310749Y-75805443D01*
X85233940Y-75824374D01*
X85083314Y-75903430D01*
X84955980Y-76016237D01*
X84859347Y-76156234D01*
X84799025Y-76315292D01*
X84778519Y-76484164D01*
X84009857Y-76484164D01*
X84028183Y-76467929D01*
X84124818Y-76327930D01*
X84185140Y-76168872D01*
X84205645Y-76000000D01*
X84185140Y-75831128D01*
X84124818Y-75672070D01*
X84061773Y-75580734D01*
X84028184Y-75532072D01*
X84028183Y-75532071D01*
X83900852Y-75419266D01*
X83886588Y-75411780D01*
X83750224Y-75340209D01*
X83625764Y-75309533D01*
X83585056Y-75299500D01*
X83414944Y-75299500D01*
X83382284Y-75307549D01*
X83249775Y-75340209D01*
X83099149Y-75419265D01*
X82971815Y-75532072D01*
X82875182Y-75672069D01*
X82814860Y-75831127D01*
X82794354Y-76000000D01*
X74491982Y-76000000D01*
X74400852Y-75919266D01*
X74370679Y-75903430D01*
X74250224Y-75840209D01*
X74109168Y-75805443D01*
X74085056Y-75799500D01*
X73914944Y-75799500D01*
X73890832Y-75805443D01*
X73749775Y-75840209D01*
X73599149Y-75919265D01*
X73471815Y-76032072D01*
X73375182Y-76172069D01*
X73314860Y-76331127D01*
X73294354Y-76499999D01*
X71654373Y-76499999D01*
X71685140Y-76418872D01*
X71705645Y-76250000D01*
X71685140Y-76081128D01*
X71624818Y-75922070D01*
X71561773Y-75830734D01*
X71528184Y-75782072D01*
X71455779Y-75717927D01*
X71400852Y-75669266D01*
X71382797Y-75659790D01*
X71250224Y-75590209D01*
X71125765Y-75559533D01*
X71085056Y-75549500D01*
X70914944Y-75549500D01*
X70882284Y-75557549D01*
X70749775Y-75590209D01*
X70599149Y-75669265D01*
X70471815Y-75782072D01*
X70375182Y-75922069D01*
X70314860Y-76081127D01*
X70294354Y-76250000D01*
X58685145Y-76250000D01*
X58664640Y-76081128D01*
X58604318Y-75922070D01*
X58541273Y-75830734D01*
X58507684Y-75782072D01*
X58435279Y-75717927D01*
X58380352Y-75669266D01*
X58362297Y-75659790D01*
X58229724Y-75590209D01*
X58105265Y-75559533D01*
X58064556Y-75549500D01*
X57894444Y-75549500D01*
X57861784Y-75557549D01*
X57729275Y-75590209D01*
X57578649Y-75669265D01*
X57451315Y-75782072D01*
X57354682Y-75922069D01*
X57294360Y-76081127D01*
X57273854Y-76250000D01*
X48000500Y-76250000D01*
X48000500Y-73500000D01*
X58294354Y-73500000D01*
X58314860Y-73668872D01*
X58375182Y-73827930D01*
X58471815Y-73967927D01*
X58471816Y-73967928D01*
X58471817Y-73967929D01*
X58599148Y-74080734D01*
X58749775Y-74159790D01*
X58914944Y-74200500D01*
X59085055Y-74200500D01*
X59085056Y-74200500D01*
X59250225Y-74159790D01*
X59400852Y-74080734D01*
X59528183Y-73967929D01*
X59624818Y-73827930D01*
X59660366Y-73734197D01*
X90697049Y-73734197D01*
X90717555Y-73903069D01*
X90777877Y-74062127D01*
X90874510Y-74202124D01*
X90874511Y-74202125D01*
X90874512Y-74202126D01*
X91001843Y-74314931D01*
X91152470Y-74393987D01*
X91317639Y-74434697D01*
X91487750Y-74434697D01*
X91487751Y-74434697D01*
X91652920Y-74393987D01*
X91803547Y-74314931D01*
X91930878Y-74202126D01*
X92027513Y-74062127D01*
X92087835Y-73903069D01*
X92108340Y-73734197D01*
X92087835Y-73565325D01*
X92027513Y-73406267D01*
X91930878Y-73266268D01*
X91803547Y-73153463D01*
X91789283Y-73145976D01*
X91652919Y-73074406D01*
X91528460Y-73043730D01*
X91487751Y-73033697D01*
X91317639Y-73033697D01*
X91284979Y-73041746D01*
X91152470Y-73074406D01*
X91001844Y-73153462D01*
X90874510Y-73266269D01*
X90777877Y-73406266D01*
X90717555Y-73565324D01*
X90697049Y-73734197D01*
X59660366Y-73734197D01*
X59685140Y-73668872D01*
X59705645Y-73500000D01*
X59685140Y-73331128D01*
X59624818Y-73172070D01*
X59561773Y-73080734D01*
X59528184Y-73032072D01*
X59455779Y-72967927D01*
X59400852Y-72919266D01*
X59320507Y-72877097D01*
X59250224Y-72840209D01*
X59125764Y-72809533D01*
X59085056Y-72799500D01*
X58914944Y-72799500D01*
X58882284Y-72807549D01*
X58749775Y-72840209D01*
X58599149Y-72919265D01*
X58471815Y-73032072D01*
X58375182Y-73172069D01*
X58314860Y-73331127D01*
X58294354Y-73500000D01*
X48000500Y-73500000D01*
X48000500Y-72499999D01*
X61818854Y-72499999D01*
X61839360Y-72668872D01*
X61899682Y-72827930D01*
X61996315Y-72967927D01*
X61996316Y-72967928D01*
X61996317Y-72967929D01*
X62123648Y-73080734D01*
X62274275Y-73159790D01*
X62439444Y-73200500D01*
X62609555Y-73200500D01*
X62609556Y-73200500D01*
X62774725Y-73159790D01*
X62925352Y-73080734D01*
X63052683Y-72967929D01*
X63115382Y-72877094D01*
X63159787Y-72837749D01*
X63217393Y-72823537D01*
X63275007Y-72837716D01*
X63319439Y-72877038D01*
X63330430Y-72905965D01*
X63333521Y-72904794D01*
X63399182Y-73077930D01*
X63495815Y-73217927D01*
X63495816Y-73217928D01*
X63495817Y-73217929D01*
X63623148Y-73330734D01*
X63773775Y-73409790D01*
X63938944Y-73450500D01*
X64109055Y-73450500D01*
X64109056Y-73450500D01*
X64274225Y-73409790D01*
X64424852Y-73330734D01*
X64552183Y-73217929D01*
X64648818Y-73077930D01*
X64709140Y-72918872D01*
X64729645Y-72750000D01*
X89044354Y-72750000D01*
X89064860Y-72918872D01*
X89125182Y-73077930D01*
X89221815Y-73217927D01*
X89221816Y-73217928D01*
X89221817Y-73217929D01*
X89349148Y-73330734D01*
X89499775Y-73409790D01*
X89664944Y-73450500D01*
X89835055Y-73450500D01*
X89835056Y-73450500D01*
X90000225Y-73409790D01*
X90150852Y-73330734D01*
X90278183Y-73217929D01*
X90374818Y-73077930D01*
X90435140Y-72918872D01*
X90455645Y-72750000D01*
X90435140Y-72581128D01*
X90374818Y-72422070D01*
X90278183Y-72282071D01*
X90150852Y-72169266D01*
X90132797Y-72159790D01*
X90000224Y-72090209D01*
X89875764Y-72059533D01*
X89835056Y-72049500D01*
X89664944Y-72049500D01*
X89632284Y-72057549D01*
X89499775Y-72090209D01*
X89349149Y-72169265D01*
X89221815Y-72282072D01*
X89125182Y-72422069D01*
X89064860Y-72581127D01*
X89044354Y-72750000D01*
X64729645Y-72750000D01*
X64709140Y-72581128D01*
X64648818Y-72422070D01*
X64552183Y-72282071D01*
X64424852Y-72169266D01*
X64406797Y-72159790D01*
X64274224Y-72090209D01*
X64149764Y-72059533D01*
X64109056Y-72049500D01*
X63938944Y-72049500D01*
X63906284Y-72057549D01*
X63773775Y-72090209D01*
X63623149Y-72169265D01*
X63623147Y-72169266D01*
X63623148Y-72169266D01*
X63495817Y-72282071D01*
X63453048Y-72344033D01*
X63433120Y-72372903D01*
X63388695Y-72412259D01*
X63331070Y-72426462D01*
X63273445Y-72412259D01*
X63229021Y-72372903D01*
X63218071Y-72344033D01*
X63214979Y-72345206D01*
X63191035Y-72282071D01*
X63149318Y-72172070D01*
X63086273Y-72080734D01*
X63052684Y-72032072D01*
X62980279Y-71967927D01*
X62925352Y-71919266D01*
X62821074Y-71864536D01*
X62774724Y-71840209D01*
X62650265Y-71809533D01*
X62609556Y-71799500D01*
X62439444Y-71799500D01*
X62406784Y-71807549D01*
X62274275Y-71840209D01*
X62123649Y-71919265D01*
X61996315Y-72032072D01*
X61899682Y-72172069D01*
X61839360Y-72331127D01*
X61818854Y-72499999D01*
X48000500Y-72499999D01*
X48000500Y-69999999D01*
X53544354Y-69999999D01*
X53564860Y-70168872D01*
X53625182Y-70327930D01*
X53721815Y-70467927D01*
X53721816Y-70467928D01*
X53721817Y-70467929D01*
X53849148Y-70580734D01*
X53999775Y-70659790D01*
X54086340Y-70681126D01*
X54138890Y-70708705D01*
X54172605Y-70757549D01*
X54179760Y-70816465D01*
X54158716Y-70871959D01*
X54114292Y-70911317D01*
X54099148Y-70919266D01*
X54074286Y-70941292D01*
X53971815Y-71032072D01*
X53875182Y-71172069D01*
X53814860Y-71331127D01*
X53794354Y-71499999D01*
X53814860Y-71668872D01*
X53875182Y-71827930D01*
X53971815Y-71967927D01*
X53971816Y-71967928D01*
X53971817Y-71967929D01*
X54099148Y-72080734D01*
X54249775Y-72159790D01*
X54414944Y-72200500D01*
X54585055Y-72200500D01*
X54585056Y-72200500D01*
X54750225Y-72159790D01*
X54900852Y-72080734D01*
X55028183Y-71967929D01*
X55124818Y-71827930D01*
X55185140Y-71668872D01*
X55205645Y-71500000D01*
X55205645Y-71499999D01*
X58294354Y-71499999D01*
X58314860Y-71668872D01*
X58375182Y-71827930D01*
X58471815Y-71967927D01*
X58471816Y-71967928D01*
X58471817Y-71967929D01*
X58599148Y-72080734D01*
X58749775Y-72159790D01*
X58914944Y-72200500D01*
X59085055Y-72200500D01*
X59085056Y-72200500D01*
X59250225Y-72159790D01*
X59400852Y-72080734D01*
X59528183Y-71967929D01*
X59624818Y-71827930D01*
X59685140Y-71668872D01*
X59705645Y-71500000D01*
X59685140Y-71331128D01*
X59624818Y-71172070D01*
X59528183Y-71032071D01*
X59491982Y-71000000D01*
X86194854Y-71000000D01*
X86215360Y-71168872D01*
X86275682Y-71327930D01*
X86372315Y-71467927D01*
X86372316Y-71467928D01*
X86372317Y-71467929D01*
X86499648Y-71580734D01*
X86650275Y-71659790D01*
X86815444Y-71700500D01*
X86985555Y-71700500D01*
X86985556Y-71700500D01*
X87150725Y-71659790D01*
X87301352Y-71580734D01*
X87428683Y-71467929D01*
X87525318Y-71327930D01*
X87585640Y-71168872D01*
X87606145Y-71000000D01*
X88794354Y-71000000D01*
X88814860Y-71168872D01*
X88875182Y-71327930D01*
X88971815Y-71467927D01*
X88971816Y-71467928D01*
X88971817Y-71467929D01*
X89099148Y-71580734D01*
X89249775Y-71659790D01*
X89414944Y-71700500D01*
X89585055Y-71700500D01*
X89585056Y-71700500D01*
X89750225Y-71659790D01*
X89900852Y-71580734D01*
X90028183Y-71467929D01*
X90124818Y-71327930D01*
X90154373Y-71250000D01*
X93793854Y-71250000D01*
X93814360Y-71418872D01*
X93874682Y-71577930D01*
X93971315Y-71717927D01*
X93971316Y-71717928D01*
X93971317Y-71717929D01*
X94098648Y-71830734D01*
X94249275Y-71909790D01*
X94414444Y-71950500D01*
X94584555Y-71950500D01*
X94584556Y-71950500D01*
X94749725Y-71909790D01*
X94900352Y-71830734D01*
X95027683Y-71717929D01*
X95124318Y-71577930D01*
X95184640Y-71418872D01*
X95194217Y-71339999D01*
X97239317Y-71339999D01*
X97259956Y-71496762D01*
X97320463Y-71642840D01*
X97416717Y-71768282D01*
X97542159Y-71864536D01*
X97688238Y-71925044D01*
X97845000Y-71945682D01*
X98001762Y-71925044D01*
X98147841Y-71864536D01*
X98273282Y-71768282D01*
X98318123Y-71709844D01*
X98379474Y-71629890D01*
X98381118Y-71631151D01*
X98399467Y-71605896D01*
X98451052Y-71579611D01*
X98508948Y-71579611D01*
X98560533Y-71605896D01*
X98578881Y-71631151D01*
X98580526Y-71629890D01*
X98686717Y-71768282D01*
X98812159Y-71864536D01*
X98958238Y-71925044D01*
X99115000Y-71945682D01*
X99271762Y-71925044D01*
X99417841Y-71864536D01*
X99543282Y-71768282D01*
X99588123Y-71709844D01*
X99649474Y-71629890D01*
X99651118Y-71631151D01*
X99669467Y-71605896D01*
X99721052Y-71579611D01*
X99778948Y-71579611D01*
X99830533Y-71605896D01*
X99848881Y-71631151D01*
X99850526Y-71629890D01*
X99956717Y-71768282D01*
X100082159Y-71864536D01*
X100228238Y-71925044D01*
X100385000Y-71945682D01*
X100541762Y-71925044D01*
X100687841Y-71864536D01*
X100813282Y-71768282D01*
X100858124Y-71709841D01*
X100901654Y-71674117D01*
X100956498Y-71661329D01*
X101011342Y-71674116D01*
X101054874Y-71709842D01*
X101099716Y-71768281D01*
X101225158Y-71864535D01*
X101225159Y-71864536D01*
X101371238Y-71925044D01*
X101528000Y-71945682D01*
X101684762Y-71925044D01*
X101830841Y-71864536D01*
X101956282Y-71768282D01*
X102052536Y-71642841D01*
X102111703Y-71499999D01*
X117044354Y-71499999D01*
X117064860Y-71668872D01*
X117125182Y-71827930D01*
X117221815Y-71967927D01*
X117221816Y-71967928D01*
X117221817Y-71967929D01*
X117349148Y-72080734D01*
X117499775Y-72159790D01*
X117664944Y-72200500D01*
X117835055Y-72200500D01*
X117835056Y-72200500D01*
X118000225Y-72159790D01*
X118150852Y-72080734D01*
X118278183Y-71967929D01*
X118374818Y-71827930D01*
X118435140Y-71668872D01*
X118455645Y-71500000D01*
X118435140Y-71331128D01*
X118374818Y-71172070D01*
X118278183Y-71032071D01*
X118150852Y-70919266D01*
X118132797Y-70909790D01*
X118000224Y-70840209D01*
X117875764Y-70809533D01*
X117835056Y-70799500D01*
X117664944Y-70799500D01*
X117632284Y-70807549D01*
X117499775Y-70840209D01*
X117349149Y-70919265D01*
X117221815Y-71032072D01*
X117125182Y-71172069D01*
X117064860Y-71331127D01*
X117044354Y-71499999D01*
X102111703Y-71499999D01*
X102113044Y-71496762D01*
X102133682Y-71340000D01*
X102113044Y-71183238D01*
X102052536Y-71037159D01*
X102038349Y-71018670D01*
X101956282Y-70911717D01*
X101817890Y-70805526D01*
X101819151Y-70803881D01*
X101793896Y-70785533D01*
X101767611Y-70733948D01*
X101767611Y-70676052D01*
X101793896Y-70624467D01*
X101819151Y-70606118D01*
X101817890Y-70604474D01*
X101956282Y-70498282D01*
X101956281Y-70498282D01*
X102052536Y-70372841D01*
X102113044Y-70226762D01*
X102133682Y-70070000D01*
X102113044Y-69913238D01*
X102052536Y-69767159D01*
X102039369Y-69749999D01*
X105294354Y-69749999D01*
X105314860Y-69918872D01*
X105375182Y-70077930D01*
X105471815Y-70217927D01*
X105471816Y-70217928D01*
X105471817Y-70217929D01*
X105599148Y-70330734D01*
X105749775Y-70409790D01*
X105914944Y-70450500D01*
X106085055Y-70450500D01*
X106085056Y-70450500D01*
X106250225Y-70409790D01*
X106400852Y-70330734D01*
X106528183Y-70217929D01*
X106624818Y-70077930D01*
X106685140Y-69918872D01*
X106705645Y-69750000D01*
X106685140Y-69581128D01*
X106654373Y-69500000D01*
X117044354Y-69500000D01*
X117064860Y-69668872D01*
X117125182Y-69827930D01*
X117221815Y-69967927D01*
X117221816Y-69967928D01*
X117221817Y-69967929D01*
X117349148Y-70080734D01*
X117499775Y-70159790D01*
X117664944Y-70200500D01*
X117835055Y-70200500D01*
X117835056Y-70200500D01*
X118000225Y-70159790D01*
X118150852Y-70080734D01*
X118278183Y-69967929D01*
X118374818Y-69827930D01*
X118435140Y-69668872D01*
X118455645Y-69500000D01*
X118435140Y-69331128D01*
X118374818Y-69172070D01*
X118301531Y-69065896D01*
X118278184Y-69032072D01*
X118273853Y-69028235D01*
X118150852Y-68919266D01*
X118136588Y-68911779D01*
X118000224Y-68840209D01*
X117875765Y-68809533D01*
X117835056Y-68799500D01*
X117664944Y-68799500D01*
X117632284Y-68807549D01*
X117499775Y-68840209D01*
X117349149Y-68919265D01*
X117221815Y-69032072D01*
X117125182Y-69172069D01*
X117064860Y-69331127D01*
X117044354Y-69500000D01*
X106654373Y-69500000D01*
X106624818Y-69422070D01*
X106565489Y-69336118D01*
X106528184Y-69282072D01*
X106504182Y-69260808D01*
X106400852Y-69169266D01*
X106386588Y-69161780D01*
X106250224Y-69090209D01*
X106125765Y-69059533D01*
X106085056Y-69049500D01*
X105914944Y-69049500D01*
X105882284Y-69057549D01*
X105749775Y-69090209D01*
X105599149Y-69169265D01*
X105471815Y-69282072D01*
X105375182Y-69422069D01*
X105314860Y-69581127D01*
X105294354Y-69749999D01*
X102039369Y-69749999D01*
X101956282Y-69641717D01*
X101817890Y-69535526D01*
X101819151Y-69533881D01*
X101793896Y-69515533D01*
X101767611Y-69463948D01*
X101767611Y-69406052D01*
X101793896Y-69354467D01*
X101819151Y-69336118D01*
X101817890Y-69334474D01*
X101956282Y-69228282D01*
X101999415Y-69172070D01*
X102052536Y-69102841D01*
X102113044Y-68956762D01*
X102133682Y-68800000D01*
X102113044Y-68643238D01*
X102052536Y-68497159D01*
X102038349Y-68478670D01*
X102005224Y-68435500D01*
X104275100Y-68435500D01*
X104295606Y-68604372D01*
X104355928Y-68763430D01*
X104452561Y-68903427D01*
X104452562Y-68903428D01*
X104452563Y-68903429D01*
X104579894Y-69016234D01*
X104730521Y-69095290D01*
X104895690Y-69136000D01*
X105065801Y-69136000D01*
X105065802Y-69136000D01*
X105230971Y-69095290D01*
X105381598Y-69016234D01*
X105508929Y-68903429D01*
X105605564Y-68763430D01*
X105665886Y-68604372D01*
X105686391Y-68435500D01*
X105666835Y-68274445D01*
X105677903Y-68206342D01*
X105723657Y-68154697D01*
X105789931Y-68135500D01*
X105960009Y-68135500D01*
X105960010Y-68135500D01*
X106125179Y-68094790D01*
X106275806Y-68015734D01*
X106403137Y-67902929D01*
X106499772Y-67762930D01*
X106560094Y-67603872D01*
X106580599Y-67435000D01*
X106560094Y-67266128D01*
X106499772Y-67107070D01*
X106429637Y-67005463D01*
X106425866Y-66999999D01*
X113294354Y-66999999D01*
X113314860Y-67168872D01*
X113375182Y-67327930D01*
X113471815Y-67467927D01*
X113471816Y-67467928D01*
X113471817Y-67467929D01*
X113599148Y-67580734D01*
X113749775Y-67659790D01*
X113914944Y-67700500D01*
X114085055Y-67700500D01*
X114085056Y-67700500D01*
X114250225Y-67659790D01*
X114400852Y-67580734D01*
X114528183Y-67467929D01*
X114624818Y-67327930D01*
X114685140Y-67168872D01*
X114705645Y-67000000D01*
X114685140Y-66831128D01*
X114624818Y-66672070D01*
X114560285Y-66578579D01*
X114528184Y-66532072D01*
X114455779Y-66467927D01*
X114400852Y-66419266D01*
X114386588Y-66411779D01*
X114250224Y-66340209D01*
X114125765Y-66309533D01*
X114085056Y-66299500D01*
X113914944Y-66299500D01*
X113882284Y-66307549D01*
X113749775Y-66340209D01*
X113599149Y-66419265D01*
X113471815Y-66532072D01*
X113375182Y-66672069D01*
X113314860Y-66831127D01*
X113294354Y-66999999D01*
X106425866Y-66999999D01*
X106403138Y-66967072D01*
X106360618Y-66929403D01*
X106275806Y-66854266D01*
X106230970Y-66830734D01*
X106125178Y-66775209D01*
X106000719Y-66744533D01*
X105960010Y-66734500D01*
X105789898Y-66734500D01*
X105757238Y-66742549D01*
X105624729Y-66775209D01*
X105474103Y-66854265D01*
X105346769Y-66967072D01*
X105250136Y-67107069D01*
X105189814Y-67266127D01*
X105169308Y-67434999D01*
X105173307Y-67467929D01*
X105187052Y-67581128D01*
X105188865Y-67596053D01*
X105177797Y-67664158D01*
X105132043Y-67715803D01*
X105065769Y-67735000D01*
X104895690Y-67735000D01*
X104863030Y-67743049D01*
X104730521Y-67775709D01*
X104579895Y-67854765D01*
X104452561Y-67967572D01*
X104355928Y-68107569D01*
X104295606Y-68266627D01*
X104275100Y-68435500D01*
X102005224Y-68435500D01*
X101956282Y-68371717D01*
X101858772Y-68296896D01*
X101819697Y-68245973D01*
X101811319Y-68182334D01*
X101835883Y-68123033D01*
X101886803Y-68083960D01*
X101957841Y-68054536D01*
X102083282Y-67958282D01*
X102179536Y-67832841D01*
X102240044Y-67686762D01*
X102260682Y-67530000D01*
X102240044Y-67373238D01*
X102179536Y-67227159D01*
X102143012Y-67179560D01*
X102083282Y-67101717D01*
X101957840Y-67005463D01*
X101811762Y-66944956D01*
X101655000Y-66924317D01*
X101498237Y-66944956D01*
X101352159Y-67005463D01*
X101226717Y-67101717D01*
X101120526Y-67240110D01*
X101118881Y-67238847D01*
X101100529Y-67264106D01*
X101048946Y-67290388D01*
X100991054Y-67290388D01*
X100939471Y-67264106D01*
X100921118Y-67238847D01*
X100919474Y-67240110D01*
X100813282Y-67101717D01*
X100687840Y-67005463D01*
X100541762Y-66944956D01*
X100385000Y-66924317D01*
X100228237Y-66944956D01*
X100082159Y-67005463D01*
X99956717Y-67101717D01*
X99850526Y-67240110D01*
X99848881Y-67238847D01*
X99830529Y-67264106D01*
X99778946Y-67290388D01*
X99721054Y-67290388D01*
X99669471Y-67264106D01*
X99651118Y-67238847D01*
X99649474Y-67240110D01*
X99543282Y-67101717D01*
X99417840Y-67005463D01*
X99271762Y-66944956D01*
X99115000Y-66924317D01*
X98958237Y-66944956D01*
X98812159Y-67005463D01*
X98686717Y-67101717D01*
X98580526Y-67240110D01*
X98578881Y-67238847D01*
X98560529Y-67264106D01*
X98508946Y-67290388D01*
X98451054Y-67290388D01*
X98399471Y-67264106D01*
X98381118Y-67238847D01*
X98379474Y-67240110D01*
X98273282Y-67101717D01*
X98147840Y-67005463D01*
X98001762Y-66944956D01*
X97845000Y-66924317D01*
X97688237Y-66944956D01*
X97542159Y-67005463D01*
X97416717Y-67101717D01*
X97320463Y-67227159D01*
X97259956Y-67373237D01*
X97239317Y-67530000D01*
X97259956Y-67686762D01*
X97320463Y-67832840D01*
X97416717Y-67958282D01*
X97555110Y-68064474D01*
X97553847Y-68066118D01*
X97579106Y-68084471D01*
X97605388Y-68136054D01*
X97605388Y-68193946D01*
X97579106Y-68245529D01*
X97553847Y-68263881D01*
X97555110Y-68265526D01*
X97416717Y-68371717D01*
X97320463Y-68497159D01*
X97259956Y-68643237D01*
X97239317Y-68800000D01*
X97259956Y-68956762D01*
X97320463Y-69102840D01*
X97416717Y-69228282D01*
X97555110Y-69334474D01*
X97553847Y-69336118D01*
X97579106Y-69354471D01*
X97605388Y-69406054D01*
X97605388Y-69463946D01*
X97579106Y-69515529D01*
X97553847Y-69533881D01*
X97555110Y-69535526D01*
X97416717Y-69641717D01*
X97320463Y-69767159D01*
X97259956Y-69913237D01*
X97239317Y-70069999D01*
X97259956Y-70226762D01*
X97320463Y-70372840D01*
X97416717Y-70498282D01*
X97555110Y-70604474D01*
X97553847Y-70606118D01*
X97579106Y-70624471D01*
X97605388Y-70676054D01*
X97605388Y-70733946D01*
X97579106Y-70785529D01*
X97553847Y-70803881D01*
X97555110Y-70805526D01*
X97416717Y-70911717D01*
X97320463Y-71037159D01*
X97259956Y-71183237D01*
X97239317Y-71339999D01*
X95194217Y-71339999D01*
X95205145Y-71250000D01*
X95184640Y-71081128D01*
X95124318Y-70922070D01*
X95061273Y-70830734D01*
X95027684Y-70782072D01*
X94990840Y-70749431D01*
X94900352Y-70669266D01*
X94821796Y-70628036D01*
X94749724Y-70590209D01*
X94625265Y-70559533D01*
X94584556Y-70549500D01*
X94414444Y-70549500D01*
X94381784Y-70557549D01*
X94249275Y-70590209D01*
X94098649Y-70669265D01*
X93971315Y-70782072D01*
X93874682Y-70922069D01*
X93814360Y-71081127D01*
X93793854Y-71250000D01*
X90154373Y-71250000D01*
X90185140Y-71168872D01*
X90205645Y-71000000D01*
X90185140Y-70831128D01*
X90124818Y-70672070D01*
X90061772Y-70580733D01*
X90028184Y-70532072D01*
X89955779Y-70467927D01*
X89900852Y-70419266D01*
X89812396Y-70372840D01*
X89750224Y-70340209D01*
X89625765Y-70309533D01*
X89585056Y-70299500D01*
X89414944Y-70299500D01*
X89382284Y-70307549D01*
X89249775Y-70340209D01*
X89099149Y-70419265D01*
X88971815Y-70532072D01*
X88875182Y-70672069D01*
X88814860Y-70831127D01*
X88794354Y-71000000D01*
X87606145Y-71000000D01*
X87585640Y-70831128D01*
X87525318Y-70672070D01*
X87462272Y-70580733D01*
X87428684Y-70532072D01*
X87356279Y-70467927D01*
X87301352Y-70419266D01*
X87212896Y-70372840D01*
X87150724Y-70340209D01*
X87026265Y-70309533D01*
X86985556Y-70299500D01*
X86815444Y-70299500D01*
X86782784Y-70307549D01*
X86650275Y-70340209D01*
X86499649Y-70419265D01*
X86372315Y-70532072D01*
X86275682Y-70672069D01*
X86215360Y-70831127D01*
X86194854Y-71000000D01*
X59491982Y-71000000D01*
X59400852Y-70919266D01*
X59382797Y-70909790D01*
X59250224Y-70840209D01*
X59125764Y-70809533D01*
X59085056Y-70799500D01*
X58914944Y-70799500D01*
X58882284Y-70807549D01*
X58749775Y-70840209D01*
X58599149Y-70919265D01*
X58471815Y-71032072D01*
X58375182Y-71172069D01*
X58314860Y-71331127D01*
X58294354Y-71499999D01*
X55205645Y-71499999D01*
X55185140Y-71331128D01*
X55124818Y-71172070D01*
X55028183Y-71032071D01*
X54900852Y-70919266D01*
X54882797Y-70909790D01*
X54750224Y-70840209D01*
X54663661Y-70818874D01*
X54611108Y-70791293D01*
X54577393Y-70742448D01*
X54570239Y-70683530D01*
X54591285Y-70628036D01*
X54635706Y-70588682D01*
X54650852Y-70580734D01*
X54778183Y-70467929D01*
X54874818Y-70327930D01*
X54892426Y-70281502D01*
X60702377Y-70281502D01*
X60722883Y-70450374D01*
X60783205Y-70609432D01*
X60879838Y-70749429D01*
X60879839Y-70749430D01*
X60879840Y-70749431D01*
X61007171Y-70862236D01*
X61157798Y-70941292D01*
X61322967Y-70982002D01*
X61493078Y-70982002D01*
X61493079Y-70982002D01*
X61658248Y-70941292D01*
X61808875Y-70862236D01*
X61936206Y-70749431D01*
X62032841Y-70609432D01*
X62093163Y-70450374D01*
X62113668Y-70281502D01*
X62109843Y-70250000D01*
X64544354Y-70250000D01*
X64564860Y-70418872D01*
X64625182Y-70577930D01*
X64721815Y-70717927D01*
X64721816Y-70717928D01*
X64721817Y-70717929D01*
X64849148Y-70830734D01*
X64999775Y-70909790D01*
X65164944Y-70950500D01*
X65335055Y-70950500D01*
X65335056Y-70950500D01*
X65500225Y-70909790D01*
X65650852Y-70830734D01*
X65778183Y-70717929D01*
X65874818Y-70577930D01*
X65935140Y-70418872D01*
X65955645Y-70250000D01*
X65935140Y-70081128D01*
X65904373Y-70000000D01*
X84794354Y-70000000D01*
X84814860Y-70168872D01*
X84875182Y-70327930D01*
X84971815Y-70467927D01*
X84971816Y-70467928D01*
X84971817Y-70467929D01*
X85099148Y-70580734D01*
X85249775Y-70659790D01*
X85414944Y-70700500D01*
X85585055Y-70700500D01*
X85585056Y-70700500D01*
X85750225Y-70659790D01*
X85900852Y-70580734D01*
X86028183Y-70467929D01*
X86124818Y-70327930D01*
X86185140Y-70168872D01*
X86205645Y-70000000D01*
X86185140Y-69831128D01*
X86124818Y-69672070D01*
X86061958Y-69581002D01*
X86054667Y-69570439D01*
X86035223Y-69524802D01*
X86035223Y-69475195D01*
X86054666Y-69429560D01*
X86124818Y-69327930D01*
X86185140Y-69168872D01*
X86205645Y-69000000D01*
X86197692Y-68934500D01*
X89794354Y-68934500D01*
X89814860Y-69103372D01*
X89875182Y-69262430D01*
X89971815Y-69402427D01*
X89971816Y-69402428D01*
X89971817Y-69402429D01*
X90099148Y-69515234D01*
X90249775Y-69594290D01*
X90414944Y-69635000D01*
X90585055Y-69635000D01*
X90585056Y-69635000D01*
X90750225Y-69594290D01*
X90900852Y-69515234D01*
X90985159Y-69440545D01*
X93793854Y-69440545D01*
X93814360Y-69609418D01*
X93874682Y-69768476D01*
X93971315Y-69908473D01*
X93971316Y-69908474D01*
X93971317Y-69908475D01*
X94098648Y-70021280D01*
X94249275Y-70100336D01*
X94414444Y-70141046D01*
X94584555Y-70141046D01*
X94584556Y-70141046D01*
X94749725Y-70100336D01*
X94900352Y-70021280D01*
X95027683Y-69908475D01*
X95124318Y-69768476D01*
X95184640Y-69609418D01*
X95205145Y-69440546D01*
X95184640Y-69271674D01*
X95124318Y-69112616D01*
X95027683Y-68972617D01*
X94900352Y-68859812D01*
X94845698Y-68831127D01*
X94749724Y-68780755D01*
X94625264Y-68750079D01*
X94584556Y-68740046D01*
X94414444Y-68740046D01*
X94381784Y-68748095D01*
X94249275Y-68780755D01*
X94098649Y-68859811D01*
X93971315Y-68972618D01*
X93874682Y-69112615D01*
X93814360Y-69271673D01*
X93793854Y-69440545D01*
X90985159Y-69440545D01*
X91028183Y-69402429D01*
X91124818Y-69262430D01*
X91185140Y-69103372D01*
X91205645Y-68934500D01*
X91185140Y-68765628D01*
X91124818Y-68606570D01*
X91073394Y-68532070D01*
X91028184Y-68466572D01*
X91025710Y-68464380D01*
X90900852Y-68353766D01*
X90875578Y-68340501D01*
X90750224Y-68274709D01*
X90625764Y-68244033D01*
X90585056Y-68234000D01*
X90414944Y-68234000D01*
X90382284Y-68242049D01*
X90249775Y-68274709D01*
X90099149Y-68353765D01*
X89971815Y-68466572D01*
X89875182Y-68606569D01*
X89814860Y-68765627D01*
X89794354Y-68934500D01*
X86197692Y-68934500D01*
X86185140Y-68831128D01*
X86124818Y-68672070D01*
X86028183Y-68532071D01*
X85955651Y-68467814D01*
X85918775Y-68409499D01*
X85918775Y-68340501D01*
X85955651Y-68282185D01*
X86028183Y-68217929D01*
X86124818Y-68077930D01*
X86185140Y-67918872D01*
X86205645Y-67750000D01*
X86185140Y-67581128D01*
X86124818Y-67422070D01*
X86054665Y-67320436D01*
X86035223Y-67274803D01*
X86035223Y-67225197D01*
X86054667Y-67179560D01*
X86124818Y-67077930D01*
X86185140Y-66918872D01*
X86205645Y-66750000D01*
X86185140Y-66581128D01*
X86124818Y-66422070D01*
X86068313Y-66340209D01*
X86028184Y-66282072D01*
X85991981Y-66249999D01*
X85900852Y-66169266D01*
X85831594Y-66132916D01*
X85750224Y-66090209D01*
X85625764Y-66059533D01*
X85585056Y-66049500D01*
X85414944Y-66049500D01*
X85382284Y-66057549D01*
X85249775Y-66090209D01*
X85099149Y-66169265D01*
X84971815Y-66282072D01*
X84875182Y-66422069D01*
X84814860Y-66581127D01*
X84794354Y-66750000D01*
X84814860Y-66918872D01*
X84875182Y-67077930D01*
X84945332Y-67179560D01*
X84964776Y-67225197D01*
X84964776Y-67274803D01*
X84945332Y-67320440D01*
X84875182Y-67422069D01*
X84814860Y-67581127D01*
X84794354Y-67750000D01*
X84804588Y-67834277D01*
X84814860Y-67918872D01*
X84875182Y-68077930D01*
X84971817Y-68217929D01*
X85003548Y-68246040D01*
X85044347Y-68282185D01*
X85081223Y-68340501D01*
X85081223Y-68409499D01*
X85044347Y-68467815D01*
X84971816Y-68532072D01*
X84875182Y-68672069D01*
X84814860Y-68831127D01*
X84794354Y-69000000D01*
X84814860Y-69168872D01*
X84875182Y-69327930D01*
X84945332Y-69429560D01*
X84964776Y-69475197D01*
X84964776Y-69524803D01*
X84945332Y-69570440D01*
X84875182Y-69672069D01*
X84814860Y-69831127D01*
X84794354Y-70000000D01*
X65904373Y-70000000D01*
X65874818Y-69922070D01*
X65811534Y-69830388D01*
X65778184Y-69782072D01*
X65726046Y-69735882D01*
X65650852Y-69669266D01*
X65598364Y-69641718D01*
X65500224Y-69590209D01*
X65375764Y-69559533D01*
X65335056Y-69549500D01*
X65164944Y-69549500D01*
X65132284Y-69557549D01*
X64999775Y-69590209D01*
X64849149Y-69669265D01*
X64721815Y-69782072D01*
X64625182Y-69922069D01*
X64564860Y-70081127D01*
X64544354Y-70250000D01*
X62109843Y-70250000D01*
X62093163Y-70112630D01*
X62032841Y-69953572D01*
X61982430Y-69880539D01*
X61936207Y-69813574D01*
X61925520Y-69804106D01*
X61808875Y-69700768D01*
X61696366Y-69641718D01*
X61658247Y-69621711D01*
X61530434Y-69590209D01*
X61493079Y-69581002D01*
X61322967Y-69581002D01*
X61290307Y-69589051D01*
X61157798Y-69621711D01*
X61007172Y-69700767D01*
X60879838Y-69813574D01*
X60783205Y-69953571D01*
X60722883Y-70112629D01*
X60702377Y-70281502D01*
X54892426Y-70281502D01*
X54935140Y-70168872D01*
X54955645Y-70000000D01*
X54935140Y-69831128D01*
X54874818Y-69672070D01*
X54811958Y-69581002D01*
X54804667Y-69570439D01*
X54785223Y-69524802D01*
X54785223Y-69475195D01*
X54804666Y-69429560D01*
X54874818Y-69327930D01*
X54935140Y-69168872D01*
X54955645Y-69000000D01*
X54935140Y-68831128D01*
X54874818Y-68672070D01*
X54797674Y-68560308D01*
X65543854Y-68560308D01*
X65564360Y-68729180D01*
X65624682Y-68888238D01*
X65721315Y-69028235D01*
X65721316Y-69028236D01*
X65721317Y-69028237D01*
X65848648Y-69141042D01*
X65999275Y-69220098D01*
X66164444Y-69260808D01*
X66334555Y-69260808D01*
X66334556Y-69260808D01*
X66499725Y-69220098D01*
X66650352Y-69141042D01*
X66777683Y-69028237D01*
X66874318Y-68888238D01*
X66934640Y-68729180D01*
X66955145Y-68560308D01*
X66955144Y-68560307D01*
X66956960Y-68545361D01*
X66959792Y-68545704D01*
X66963736Y-68513224D01*
X66997450Y-68464380D01*
X67050002Y-68436798D01*
X67109352Y-68436798D01*
X67164944Y-68450500D01*
X67335055Y-68450500D01*
X67335056Y-68450500D01*
X67500225Y-68409790D01*
X67650852Y-68330734D01*
X67778183Y-68217929D01*
X67874818Y-68077930D01*
X67935140Y-67918872D01*
X67955645Y-67750000D01*
X67935140Y-67581128D01*
X67874818Y-67422070D01*
X67826500Y-67352070D01*
X67778184Y-67282072D01*
X67760186Y-67266127D01*
X67650852Y-67169266D01*
X67636588Y-67161780D01*
X67500224Y-67090209D01*
X67375765Y-67059533D01*
X67335056Y-67049500D01*
X67164944Y-67049500D01*
X67132284Y-67057549D01*
X66999775Y-67090209D01*
X66849149Y-67169265D01*
X66721815Y-67282072D01*
X66625182Y-67422069D01*
X66564860Y-67581127D01*
X66542540Y-67764947D01*
X66539708Y-67764603D01*
X66535754Y-67797106D01*
X66502036Y-67845938D01*
X66449489Y-67873511D01*
X66390147Y-67873509D01*
X66334557Y-67859808D01*
X66334556Y-67859808D01*
X66164444Y-67859808D01*
X66109387Y-67873378D01*
X65999273Y-67900518D01*
X65855400Y-67976030D01*
X65818006Y-67985247D01*
X65817667Y-67988043D01*
X65783953Y-68036888D01*
X65721316Y-68092379D01*
X65624682Y-68232377D01*
X65564360Y-68391435D01*
X65543854Y-68560308D01*
X54797674Y-68560308D01*
X54787593Y-68545704D01*
X54778184Y-68532072D01*
X54738775Y-68497159D01*
X54650852Y-68419266D01*
X54597825Y-68391435D01*
X54500224Y-68340209D01*
X54375764Y-68309533D01*
X54335056Y-68299500D01*
X54164944Y-68299500D01*
X54132284Y-68307549D01*
X53999775Y-68340209D01*
X53849149Y-68419265D01*
X53721815Y-68532072D01*
X53625182Y-68672069D01*
X53564860Y-68831127D01*
X53544354Y-69000000D01*
X53564860Y-69168872D01*
X53625182Y-69327930D01*
X53695332Y-69429560D01*
X53714776Y-69475197D01*
X53714776Y-69524803D01*
X53695332Y-69570440D01*
X53625182Y-69672069D01*
X53564860Y-69831127D01*
X53544354Y-69999999D01*
X48000500Y-69999999D01*
X48000500Y-66999999D01*
X58544354Y-66999999D01*
X58564860Y-67168872D01*
X58625182Y-67327930D01*
X58721815Y-67467927D01*
X58721816Y-67467928D01*
X58721817Y-67467929D01*
X58849148Y-67580734D01*
X58999775Y-67659790D01*
X59164944Y-67700500D01*
X59335055Y-67700500D01*
X59335056Y-67700500D01*
X59500225Y-67659790D01*
X59650852Y-67580734D01*
X59778183Y-67467929D01*
X59874818Y-67327930D01*
X59904373Y-67249999D01*
X64544354Y-67249999D01*
X64564860Y-67418872D01*
X64625182Y-67577930D01*
X64721815Y-67717927D01*
X64721816Y-67717928D01*
X64721817Y-67717929D01*
X64849148Y-67830734D01*
X64999775Y-67909790D01*
X65164944Y-67950500D01*
X65335055Y-67950500D01*
X65335056Y-67950500D01*
X65500225Y-67909790D01*
X65644104Y-67834275D01*
X65681492Y-67825059D01*
X65681832Y-67822262D01*
X65715544Y-67773421D01*
X65778183Y-67717929D01*
X65874818Y-67577930D01*
X65935140Y-67418872D01*
X65955645Y-67250000D01*
X65935140Y-67081128D01*
X65916552Y-67032116D01*
X65909400Y-66973197D01*
X65930450Y-66917701D01*
X65957076Y-66894115D01*
X65955652Y-66892508D01*
X66025380Y-66830734D01*
X66094253Y-66769718D01*
X66190888Y-66629719D01*
X66251210Y-66470661D01*
X66271715Y-66301789D01*
X66251210Y-66132917D01*
X66200801Y-65999999D01*
X67544354Y-65999999D01*
X67564860Y-66168872D01*
X67625182Y-66327930D01*
X67721815Y-66467927D01*
X67721816Y-66467928D01*
X67721817Y-66467929D01*
X67849148Y-66580734D01*
X67999775Y-66659790D01*
X68164944Y-66700500D01*
X68164945Y-66700500D01*
X68302260Y-66700500D01*
X68350864Y-66710423D01*
X68391689Y-66738602D01*
X68418202Y-66780529D01*
X68456818Y-66882353D01*
X68553452Y-67022351D01*
X68553453Y-67022352D01*
X68553454Y-67022353D01*
X68680785Y-67135158D01*
X68831412Y-67214214D01*
X68996581Y-67254924D01*
X69166692Y-67254924D01*
X69166693Y-67254924D01*
X69331862Y-67214214D01*
X69482489Y-67135158D01*
X69609820Y-67022353D01*
X69706455Y-66882354D01*
X69748396Y-66771761D01*
X69782108Y-66722922D01*
X69834661Y-66695340D01*
X69894009Y-66695340D01*
X69914944Y-66700500D01*
X70085055Y-66700500D01*
X70085056Y-66700500D01*
X70250225Y-66659790D01*
X70400852Y-66580734D01*
X70528183Y-66467929D01*
X70624818Y-66327930D01*
X70654373Y-66249999D01*
X75544354Y-66249999D01*
X75564860Y-66418872D01*
X75625182Y-66577930D01*
X75721815Y-66717927D01*
X75721816Y-66717928D01*
X75721817Y-66717929D01*
X75849148Y-66830734D01*
X75999775Y-66909790D01*
X76164944Y-66950500D01*
X76335055Y-66950500D01*
X76335056Y-66950500D01*
X76500225Y-66909790D01*
X76650852Y-66830734D01*
X76778183Y-66717929D01*
X76874818Y-66577930D01*
X76935140Y-66418872D01*
X76955645Y-66250000D01*
X76935140Y-66081128D01*
X76874818Y-65922070D01*
X76826500Y-65852070D01*
X76778184Y-65782072D01*
X76768954Y-65773895D01*
X76650852Y-65669266D01*
X76598898Y-65641998D01*
X76500224Y-65590209D01*
X76375765Y-65559533D01*
X76335056Y-65549500D01*
X76164944Y-65549500D01*
X76132284Y-65557549D01*
X75999775Y-65590209D01*
X75849149Y-65669265D01*
X75721815Y-65782072D01*
X75625182Y-65922069D01*
X75564860Y-66081127D01*
X75544354Y-66249999D01*
X70654373Y-66249999D01*
X70685140Y-66168872D01*
X70705645Y-66000000D01*
X70685140Y-65831128D01*
X70624818Y-65672070D01*
X70561773Y-65580734D01*
X70528184Y-65532072D01*
X70455779Y-65467927D01*
X70400852Y-65419266D01*
X70368368Y-65402217D01*
X70250224Y-65340209D01*
X70125765Y-65309533D01*
X70085056Y-65299500D01*
X69914944Y-65299500D01*
X69882284Y-65307549D01*
X69749775Y-65340209D01*
X69599149Y-65419265D01*
X69471815Y-65532072D01*
X69375181Y-65672070D01*
X69333242Y-65782657D01*
X69299528Y-65831501D01*
X69246976Y-65859082D01*
X69187627Y-65859083D01*
X69166695Y-65853924D01*
X69166693Y-65853924D01*
X69029377Y-65853924D01*
X68980773Y-65844001D01*
X68939948Y-65815822D01*
X68913435Y-65773895D01*
X68874818Y-65672070D01*
X68778184Y-65532072D01*
X68705779Y-65467927D01*
X68650852Y-65419266D01*
X68618368Y-65402217D01*
X68500224Y-65340209D01*
X68375765Y-65309533D01*
X68335056Y-65299500D01*
X68164944Y-65299500D01*
X68132284Y-65307549D01*
X67999775Y-65340209D01*
X67849149Y-65419265D01*
X67721815Y-65532072D01*
X67625182Y-65672069D01*
X67564860Y-65831127D01*
X67544354Y-65999999D01*
X66200801Y-65999999D01*
X66190888Y-65973859D01*
X66094253Y-65833860D01*
X65966922Y-65721055D01*
X65873590Y-65672070D01*
X65816294Y-65641998D01*
X65691834Y-65611322D01*
X65651126Y-65601289D01*
X65481014Y-65601289D01*
X65448354Y-65609338D01*
X65315845Y-65641998D01*
X65165219Y-65721054D01*
X65037885Y-65833861D01*
X64941252Y-65973858D01*
X64880930Y-66132916D01*
X64860424Y-66301789D01*
X64880930Y-66470663D01*
X64899516Y-66519670D01*
X64906671Y-66578579D01*
X64885632Y-66634068D01*
X64858993Y-66657675D01*
X64860417Y-66659282D01*
X64721817Y-66782070D01*
X64625182Y-66922069D01*
X64564860Y-67081127D01*
X64544354Y-67249999D01*
X59904373Y-67249999D01*
X59935140Y-67168872D01*
X59955645Y-67000000D01*
X59935140Y-66831128D01*
X59874818Y-66672070D01*
X59810285Y-66578579D01*
X59778184Y-66532072D01*
X59705779Y-66467927D01*
X59650852Y-66419266D01*
X59636588Y-66411779D01*
X59500224Y-66340209D01*
X59375765Y-66309533D01*
X59335056Y-66299500D01*
X59164944Y-66299500D01*
X59132284Y-66307549D01*
X58999775Y-66340209D01*
X58849149Y-66419265D01*
X58721815Y-66532072D01*
X58625182Y-66672069D01*
X58564860Y-66831127D01*
X58544354Y-66999999D01*
X48000500Y-66999999D01*
X48000500Y-65000000D01*
X52044354Y-65000000D01*
X52064860Y-65168872D01*
X52125182Y-65327930D01*
X52221815Y-65467927D01*
X52221816Y-65467928D01*
X52221817Y-65467929D01*
X52349148Y-65580734D01*
X52499775Y-65659790D01*
X52664944Y-65700500D01*
X52835055Y-65700500D01*
X52835056Y-65700500D01*
X53000225Y-65659790D01*
X53150852Y-65580734D01*
X53241982Y-65500000D01*
X56294354Y-65500000D01*
X56314860Y-65668872D01*
X56375182Y-65827930D01*
X56471815Y-65967927D01*
X56471816Y-65967928D01*
X56471817Y-65967929D01*
X56599148Y-66080734D01*
X56749775Y-66159790D01*
X56914944Y-66200500D01*
X57085055Y-66200500D01*
X57085056Y-66200500D01*
X57250225Y-66159790D01*
X57400852Y-66080734D01*
X57417773Y-66065742D01*
X57470324Y-66038161D01*
X57529676Y-66038161D01*
X57582226Y-66065742D01*
X57599148Y-66080734D01*
X57749775Y-66159790D01*
X57914944Y-66200500D01*
X58085055Y-66200500D01*
X58085056Y-66200500D01*
X58250225Y-66159790D01*
X58400852Y-66080734D01*
X58528183Y-65967929D01*
X58624818Y-65827930D01*
X58685140Y-65668872D01*
X58705645Y-65500000D01*
X58685140Y-65331128D01*
X58624818Y-65172070D01*
X58557323Y-65074287D01*
X88720067Y-65074287D01*
X88740573Y-65243159D01*
X88800895Y-65402217D01*
X88897528Y-65542214D01*
X88897529Y-65542215D01*
X88897530Y-65542216D01*
X89024861Y-65655021D01*
X89175488Y-65734077D01*
X89340657Y-65774787D01*
X89510768Y-65774787D01*
X89510769Y-65774787D01*
X89675938Y-65734077D01*
X89826565Y-65655021D01*
X89953896Y-65542216D01*
X90050531Y-65402217D01*
X90110853Y-65243159D01*
X90131358Y-65074287D01*
X90122338Y-65000000D01*
X95044354Y-65000000D01*
X95064860Y-65168872D01*
X95125182Y-65327930D01*
X95221815Y-65467927D01*
X95221816Y-65467928D01*
X95221817Y-65467929D01*
X95349148Y-65580734D01*
X95499775Y-65659790D01*
X95664944Y-65700500D01*
X95835055Y-65700500D01*
X95835056Y-65700500D01*
X96000225Y-65659790D01*
X96150852Y-65580734D01*
X96278183Y-65467929D01*
X96374818Y-65327930D01*
X96404373Y-65249999D01*
X105294354Y-65249999D01*
X105314860Y-65418872D01*
X105375182Y-65577930D01*
X105471815Y-65717927D01*
X105471816Y-65717928D01*
X105471817Y-65717929D01*
X105599148Y-65830734D01*
X105749775Y-65909790D01*
X105914944Y-65950500D01*
X106085055Y-65950500D01*
X106085056Y-65950500D01*
X106250225Y-65909790D01*
X106400852Y-65830734D01*
X106528183Y-65717929D01*
X106624818Y-65577930D01*
X106685140Y-65418872D01*
X106705645Y-65250000D01*
X106685140Y-65081128D01*
X106624818Y-64922070D01*
X106562044Y-64831127D01*
X106528184Y-64782072D01*
X106487869Y-64746356D01*
X106400852Y-64669266D01*
X106382797Y-64659790D01*
X106250224Y-64590209D01*
X106125764Y-64559533D01*
X106085056Y-64549500D01*
X105914944Y-64549500D01*
X105882284Y-64557549D01*
X105749775Y-64590209D01*
X105599149Y-64669265D01*
X105471815Y-64782072D01*
X105375182Y-64922069D01*
X105314860Y-65081127D01*
X105294354Y-65249999D01*
X96404373Y-65249999D01*
X96435140Y-65168872D01*
X96455645Y-65000000D01*
X96435140Y-64831128D01*
X96374818Y-64672070D01*
X96311773Y-64580734D01*
X96278184Y-64532072D01*
X96234705Y-64493553D01*
X96150852Y-64419266D01*
X96064200Y-64373787D01*
X96000224Y-64340209D01*
X95875764Y-64309533D01*
X95835056Y-64299500D01*
X95664944Y-64299500D01*
X95632284Y-64307549D01*
X95499775Y-64340209D01*
X95349149Y-64419265D01*
X95221815Y-64532072D01*
X95125182Y-64672069D01*
X95064860Y-64831127D01*
X95044354Y-65000000D01*
X90122338Y-65000000D01*
X90110853Y-64905415D01*
X90050531Y-64746357D01*
X89953896Y-64606358D01*
X89826565Y-64493553D01*
X89777739Y-64467927D01*
X89675937Y-64414496D01*
X89551477Y-64383820D01*
X89510769Y-64373787D01*
X89340657Y-64373787D01*
X89307997Y-64381836D01*
X89175488Y-64414496D01*
X89024862Y-64493552D01*
X88897528Y-64606359D01*
X88800895Y-64746356D01*
X88740573Y-64905414D01*
X88720067Y-65074287D01*
X58557323Y-65074287D01*
X58528183Y-65032071D01*
X58400852Y-64919266D01*
X58374460Y-64905414D01*
X58250224Y-64840209D01*
X58125765Y-64809533D01*
X58085056Y-64799500D01*
X57914944Y-64799500D01*
X57882284Y-64807549D01*
X57749775Y-64840209D01*
X57599146Y-64919267D01*
X57582225Y-64934258D01*
X57529674Y-64961838D01*
X57470326Y-64961838D01*
X57417775Y-64934258D01*
X57400853Y-64919267D01*
X57400852Y-64919266D01*
X57325538Y-64879738D01*
X57250224Y-64840209D01*
X57125765Y-64809533D01*
X57085056Y-64799500D01*
X56914944Y-64799500D01*
X56882284Y-64807549D01*
X56749775Y-64840209D01*
X56599149Y-64919265D01*
X56471815Y-65032072D01*
X56375182Y-65172069D01*
X56314860Y-65331127D01*
X56294354Y-65500000D01*
X53241982Y-65500000D01*
X53278183Y-65467929D01*
X53374818Y-65327930D01*
X53435140Y-65168872D01*
X53455645Y-65000000D01*
X53435140Y-64831128D01*
X53374818Y-64672070D01*
X53311773Y-64580734D01*
X53278184Y-64532072D01*
X53234705Y-64493553D01*
X53150852Y-64419266D01*
X53064200Y-64373787D01*
X53000224Y-64340209D01*
X52875764Y-64309533D01*
X52835056Y-64299500D01*
X52664944Y-64299500D01*
X52632284Y-64307549D01*
X52499775Y-64340209D01*
X52349149Y-64419265D01*
X52221815Y-64532072D01*
X52125182Y-64672069D01*
X52064860Y-64831127D01*
X52044354Y-65000000D01*
X48000500Y-65000000D01*
X48000500Y-62796225D01*
X50782000Y-62796225D01*
X50822010Y-62984460D01*
X50900286Y-63160272D01*
X50977370Y-63266368D01*
X51013403Y-63315963D01*
X51117608Y-63409790D01*
X51156420Y-63444737D01*
X51323080Y-63540958D01*
X51411171Y-63569580D01*
X51506108Y-63600427D01*
X51649519Y-63615500D01*
X52975478Y-63615500D01*
X52975481Y-63615500D01*
X53118892Y-63600427D01*
X53301919Y-63540958D01*
X53468582Y-63444735D01*
X53611597Y-63315963D01*
X53724714Y-63160272D01*
X53802988Y-62984463D01*
X53802989Y-62984460D01*
X53843000Y-62796225D01*
X53843000Y-62749999D01*
X60294354Y-62749999D01*
X60314860Y-62918872D01*
X60375182Y-63077930D01*
X60471815Y-63217927D01*
X60471816Y-63217928D01*
X60471817Y-63217929D01*
X60599148Y-63330734D01*
X60749775Y-63409790D01*
X60914944Y-63450500D01*
X61085055Y-63450500D01*
X61085056Y-63450500D01*
X61250225Y-63409790D01*
X61400852Y-63330734D01*
X61528183Y-63217929D01*
X61624818Y-63077930D01*
X61685140Y-62918872D01*
X61705645Y-62750000D01*
X61702005Y-62720023D01*
X64824331Y-62720023D01*
X64844837Y-62888895D01*
X64905159Y-63047953D01*
X65001792Y-63187950D01*
X65001793Y-63187951D01*
X65001794Y-63187952D01*
X65129125Y-63300757D01*
X65279752Y-63379813D01*
X65444921Y-63420523D01*
X65615032Y-63420523D01*
X65615033Y-63420523D01*
X65780202Y-63379813D01*
X65930829Y-63300757D01*
X66058160Y-63187952D01*
X66154795Y-63047953D01*
X66215117Y-62888895D01*
X66235622Y-62720023D01*
X66215117Y-62551151D01*
X66195718Y-62499999D01*
X67294354Y-62499999D01*
X67314860Y-62668872D01*
X67375182Y-62827930D01*
X67471815Y-62967927D01*
X67471816Y-62967928D01*
X67471817Y-62967929D01*
X67599148Y-63080734D01*
X67749775Y-63159790D01*
X67914944Y-63200500D01*
X68085056Y-63200500D01*
X68085057Y-63200500D01*
X68127887Y-63189943D01*
X68187237Y-63189942D01*
X68239790Y-63217523D01*
X68273505Y-63266368D01*
X68299849Y-63335833D01*
X68396483Y-63475831D01*
X68396484Y-63475832D01*
X68396485Y-63475833D01*
X68523816Y-63588638D01*
X68674443Y-63667694D01*
X68839612Y-63708404D01*
X69009723Y-63708404D01*
X69009724Y-63708404D01*
X69174893Y-63667694D01*
X69325520Y-63588638D01*
X69452851Y-63475833D01*
X69522451Y-63375000D01*
X76169354Y-63375000D01*
X76189860Y-63543872D01*
X76250182Y-63702930D01*
X76346815Y-63842927D01*
X76346816Y-63842928D01*
X76346817Y-63842929D01*
X76474148Y-63955734D01*
X76624775Y-64034790D01*
X76789944Y-64075500D01*
X76960055Y-64075500D01*
X76960056Y-64075500D01*
X77125225Y-64034790D01*
X77191511Y-64000000D01*
X80544354Y-64000000D01*
X80564860Y-64168872D01*
X80625182Y-64327930D01*
X80721815Y-64467927D01*
X80721816Y-64467928D01*
X80721817Y-64467929D01*
X80849148Y-64580734D01*
X80999775Y-64659790D01*
X81164944Y-64700500D01*
X81335055Y-64700500D01*
X81335056Y-64700500D01*
X81500225Y-64659790D01*
X81650852Y-64580734D01*
X81778183Y-64467929D01*
X81874818Y-64327930D01*
X81935140Y-64168872D01*
X81955645Y-64000000D01*
X85794354Y-64000000D01*
X85814860Y-64168872D01*
X85875182Y-64327930D01*
X85971815Y-64467927D01*
X85971816Y-64467928D01*
X85971817Y-64467929D01*
X86099148Y-64580734D01*
X86249775Y-64659790D01*
X86414944Y-64700500D01*
X86585055Y-64700500D01*
X86585056Y-64700500D01*
X86750225Y-64659790D01*
X86900852Y-64580734D01*
X87028183Y-64467929D01*
X87124818Y-64327930D01*
X87185140Y-64168872D01*
X87205645Y-64000000D01*
X87185140Y-63831128D01*
X87124818Y-63672070D01*
X87036329Y-63543872D01*
X87028184Y-63532072D01*
X87028183Y-63532071D01*
X86900852Y-63419266D01*
X86882797Y-63409790D01*
X86750224Y-63340209D01*
X86625764Y-63309533D01*
X86585056Y-63299500D01*
X86414944Y-63299500D01*
X86382284Y-63307549D01*
X86249775Y-63340209D01*
X86099149Y-63419265D01*
X85971815Y-63532072D01*
X85875182Y-63672069D01*
X85814860Y-63831127D01*
X85794354Y-64000000D01*
X81955645Y-64000000D01*
X81935140Y-63831128D01*
X81874818Y-63672070D01*
X81786329Y-63543872D01*
X81778184Y-63532072D01*
X81778183Y-63532071D01*
X81650852Y-63419266D01*
X81632797Y-63409790D01*
X81500224Y-63340209D01*
X81375764Y-63309533D01*
X81335056Y-63299500D01*
X81164944Y-63299500D01*
X81132284Y-63307549D01*
X80999775Y-63340209D01*
X80849149Y-63419265D01*
X80721815Y-63532072D01*
X80625182Y-63672069D01*
X80564860Y-63831127D01*
X80544354Y-64000000D01*
X77191511Y-64000000D01*
X77275852Y-63955734D01*
X77403183Y-63842929D01*
X77499818Y-63702930D01*
X77560140Y-63543872D01*
X77580645Y-63375000D01*
X77560140Y-63206128D01*
X77552317Y-63185500D01*
X90794354Y-63185500D01*
X90814860Y-63354372D01*
X90875182Y-63513430D01*
X90971815Y-63653427D01*
X90971816Y-63653428D01*
X90971817Y-63653429D01*
X91099148Y-63766234D01*
X91249775Y-63845290D01*
X91414944Y-63886000D01*
X91585055Y-63886000D01*
X91585056Y-63886000D01*
X91750225Y-63845290D01*
X91900852Y-63766234D01*
X92028183Y-63653429D01*
X92124818Y-63513430D01*
X92185140Y-63354372D01*
X92205645Y-63185500D01*
X92185140Y-63016628D01*
X92124818Y-62857570D01*
X92028183Y-62717571D01*
X91900852Y-62604766D01*
X91849721Y-62577930D01*
X91750224Y-62525709D01*
X91647946Y-62500500D01*
X93544354Y-62500500D01*
X93564860Y-62669372D01*
X93625182Y-62828430D01*
X93721815Y-62968427D01*
X93721816Y-62968428D01*
X93721817Y-62968429D01*
X93849148Y-63081234D01*
X93999775Y-63160290D01*
X94164944Y-63201000D01*
X94335055Y-63201000D01*
X94335056Y-63201000D01*
X94399971Y-63185000D01*
X99294354Y-63185000D01*
X99314860Y-63353872D01*
X99375182Y-63512930D01*
X99471815Y-63652927D01*
X99471816Y-63652928D01*
X99471817Y-63652929D01*
X99599148Y-63765734D01*
X99749775Y-63844790D01*
X99914944Y-63885500D01*
X100085054Y-63885500D01*
X100085056Y-63885500D01*
X100140720Y-63871779D01*
X100200064Y-63871779D01*
X100252615Y-63899357D01*
X100286331Y-63948196D01*
X100290835Y-63985259D01*
X100292540Y-63985053D01*
X100314860Y-64168872D01*
X100375182Y-64327930D01*
X100471815Y-64467927D01*
X100471816Y-64467928D01*
X100471817Y-64467929D01*
X100599148Y-64580734D01*
X100749775Y-64659790D01*
X100914944Y-64700500D01*
X101085055Y-64700500D01*
X101085056Y-64700500D01*
X101250225Y-64659790D01*
X101400852Y-64580734D01*
X101528183Y-64467929D01*
X101624818Y-64327930D01*
X101685140Y-64168872D01*
X101705645Y-64000000D01*
X101685140Y-63831128D01*
X101624818Y-63672070D01*
X101536329Y-63543872D01*
X101528184Y-63532072D01*
X101528183Y-63532071D01*
X101400852Y-63419266D01*
X101382797Y-63409790D01*
X101250224Y-63340209D01*
X101125764Y-63309533D01*
X101085056Y-63299500D01*
X100914944Y-63299500D01*
X100914943Y-63299500D01*
X100859280Y-63313219D01*
X100799929Y-63313218D01*
X100747377Y-63285636D01*
X100713663Y-63236790D01*
X100709165Y-63199739D01*
X100707460Y-63199947D01*
X100705645Y-63185000D01*
X102794354Y-63185000D01*
X102814860Y-63353872D01*
X102875182Y-63512930D01*
X102971815Y-63652927D01*
X102971816Y-63652928D01*
X102971817Y-63652929D01*
X103099148Y-63765734D01*
X103249775Y-63844790D01*
X103414944Y-63885500D01*
X103585055Y-63885500D01*
X103585056Y-63885500D01*
X103750225Y-63844790D01*
X103900852Y-63765734D01*
X104028183Y-63652929D01*
X104124818Y-63512930D01*
X104185140Y-63353872D01*
X104205645Y-63185000D01*
X104185140Y-63016128D01*
X104124818Y-62857070D01*
X104063500Y-62768236D01*
X104028184Y-62717072D01*
X103986309Y-62679974D01*
X103900852Y-62604266D01*
X103891510Y-62599363D01*
X105336568Y-62599363D01*
X105357074Y-62768236D01*
X105417396Y-62927294D01*
X105514029Y-63067291D01*
X105514030Y-63067292D01*
X105514031Y-63067293D01*
X105641362Y-63180098D01*
X105791989Y-63259154D01*
X105957158Y-63299864D01*
X106127269Y-63299864D01*
X106127270Y-63299864D01*
X106292439Y-63259154D01*
X106443066Y-63180098D01*
X106570397Y-63067293D01*
X106667032Y-62927294D01*
X106727354Y-62768236D01*
X106747859Y-62599364D01*
X106727354Y-62430492D01*
X106667032Y-62271434D01*
X106589969Y-62159790D01*
X106570398Y-62131436D01*
X106523862Y-62090209D01*
X106443066Y-62018630D01*
X106428802Y-62011143D01*
X106292438Y-61939573D01*
X106167978Y-61908897D01*
X106127270Y-61898864D01*
X105957158Y-61898864D01*
X105924498Y-61906913D01*
X105791989Y-61939573D01*
X105641363Y-62018629D01*
X105514029Y-62131436D01*
X105417396Y-62271433D01*
X105357074Y-62430491D01*
X105336568Y-62599363D01*
X103891510Y-62599363D01*
X103856765Y-62581127D01*
X103750224Y-62525209D01*
X103625765Y-62494533D01*
X103585056Y-62484500D01*
X103414944Y-62484500D01*
X103382284Y-62492549D01*
X103249775Y-62525209D01*
X103099149Y-62604265D01*
X102971815Y-62717072D01*
X102875182Y-62857069D01*
X102814860Y-63016127D01*
X102794354Y-63185000D01*
X100705645Y-63185000D01*
X100693045Y-63081234D01*
X100685140Y-63016128D01*
X100624818Y-62857070D01*
X100563500Y-62768236D01*
X100528184Y-62717072D01*
X100486309Y-62679974D01*
X100400852Y-62604266D01*
X100356765Y-62581127D01*
X100250224Y-62525209D01*
X100125765Y-62494533D01*
X100085056Y-62484500D01*
X99914944Y-62484500D01*
X99882284Y-62492549D01*
X99749775Y-62525209D01*
X99599149Y-62604265D01*
X99471815Y-62717072D01*
X99375182Y-62857069D01*
X99314860Y-63016127D01*
X99294354Y-63185000D01*
X94399971Y-63185000D01*
X94500225Y-63160290D01*
X94650852Y-63081234D01*
X94778183Y-62968429D01*
X94874818Y-62828430D01*
X94935140Y-62669372D01*
X94955645Y-62500500D01*
X94935140Y-62331628D01*
X94874818Y-62172570D01*
X94797276Y-62060232D01*
X94778184Y-62032572D01*
X94777620Y-62032072D01*
X94650852Y-61919766D01*
X94611027Y-61898864D01*
X94500224Y-61840709D01*
X94375764Y-61810033D01*
X94335056Y-61800000D01*
X94164944Y-61800000D01*
X94132284Y-61808049D01*
X93999775Y-61840709D01*
X93849149Y-61919765D01*
X93721815Y-62032572D01*
X93625182Y-62172569D01*
X93564860Y-62331627D01*
X93544354Y-62500500D01*
X91647946Y-62500500D01*
X91625765Y-62495033D01*
X91585056Y-62485000D01*
X91414944Y-62485000D01*
X91382284Y-62493049D01*
X91249775Y-62525709D01*
X91099149Y-62604765D01*
X90971815Y-62717572D01*
X90875182Y-62857569D01*
X90814860Y-63016627D01*
X90794354Y-63185500D01*
X77552317Y-63185500D01*
X77526168Y-63116552D01*
X77520142Y-63050231D01*
X77549296Y-62990355D01*
X77605222Y-62954197D01*
X77649888Y-62952848D01*
X77649888Y-62950500D01*
X77835055Y-62950500D01*
X77835056Y-62950500D01*
X78000225Y-62909790D01*
X78150852Y-62830734D01*
X78278183Y-62717929D01*
X78374818Y-62577930D01*
X78435140Y-62418872D01*
X78455645Y-62250000D01*
X85794354Y-62250000D01*
X85814860Y-62418872D01*
X85875182Y-62577930D01*
X85971815Y-62717927D01*
X85971816Y-62717928D01*
X85971817Y-62717929D01*
X86099148Y-62830734D01*
X86249775Y-62909790D01*
X86414944Y-62950500D01*
X86585055Y-62950500D01*
X86585056Y-62950500D01*
X86750225Y-62909790D01*
X86900852Y-62830734D01*
X87028183Y-62717929D01*
X87124818Y-62577930D01*
X87185140Y-62418872D01*
X87205645Y-62250000D01*
X87185140Y-62081128D01*
X87124818Y-61922070D01*
X87068313Y-61840209D01*
X87028184Y-61782072D01*
X87028183Y-61782071D01*
X86900852Y-61669266D01*
X86886588Y-61661779D01*
X86750224Y-61590209D01*
X86625764Y-61559533D01*
X86585056Y-61549500D01*
X86414944Y-61549500D01*
X86382284Y-61557549D01*
X86249775Y-61590209D01*
X86099149Y-61669265D01*
X85971815Y-61782072D01*
X85875182Y-61922069D01*
X85814860Y-62081127D01*
X85794354Y-62250000D01*
X78455645Y-62250000D01*
X78435140Y-62081128D01*
X78374818Y-61922070D01*
X78318313Y-61840209D01*
X78278184Y-61782072D01*
X78278183Y-61782071D01*
X78150852Y-61669266D01*
X78136588Y-61661779D01*
X78000224Y-61590209D01*
X77875764Y-61559533D01*
X77835056Y-61549500D01*
X77664944Y-61549500D01*
X77632284Y-61557549D01*
X77499775Y-61590209D01*
X77349149Y-61669265D01*
X77221815Y-61782072D01*
X77125182Y-61922069D01*
X77064860Y-62081127D01*
X77044354Y-62250000D01*
X77064860Y-62418874D01*
X77098830Y-62508446D01*
X77104857Y-62574766D01*
X77075706Y-62634640D01*
X77019785Y-62670799D01*
X76975112Y-62672152D01*
X76975112Y-62674500D01*
X76960056Y-62674500D01*
X76789944Y-62674500D01*
X76767739Y-62679973D01*
X76624775Y-62715209D01*
X76474149Y-62794265D01*
X76346815Y-62907072D01*
X76250182Y-63047069D01*
X76189860Y-63206127D01*
X76169354Y-63375000D01*
X69522451Y-63375000D01*
X69549486Y-63335834D01*
X69609808Y-63176776D01*
X69630313Y-63007904D01*
X69609808Y-62839032D01*
X69549486Y-62679974D01*
X69497228Y-62604266D01*
X69452852Y-62539976D01*
X69436748Y-62525709D01*
X69325520Y-62427170D01*
X69258687Y-62392093D01*
X69174892Y-62348113D01*
X69050433Y-62317437D01*
X69009724Y-62307404D01*
X68839612Y-62307404D01*
X68839611Y-62307404D01*
X68796778Y-62317961D01*
X68737428Y-62317961D01*
X68684876Y-62290379D01*
X68657005Y-62250000D01*
X74044354Y-62250000D01*
X74064860Y-62418872D01*
X74125182Y-62577930D01*
X74221815Y-62717927D01*
X74221816Y-62717928D01*
X74221817Y-62717929D01*
X74349148Y-62830734D01*
X74499775Y-62909790D01*
X74664944Y-62950500D01*
X74835055Y-62950500D01*
X74835056Y-62950500D01*
X75000225Y-62909790D01*
X75150852Y-62830734D01*
X75278183Y-62717929D01*
X75374818Y-62577930D01*
X75435140Y-62418872D01*
X75455645Y-62250000D01*
X75435140Y-62081128D01*
X75374818Y-61922070D01*
X75318313Y-61840209D01*
X75278184Y-61782072D01*
X75278183Y-61782071D01*
X75150852Y-61669266D01*
X75136588Y-61661779D01*
X75000224Y-61590209D01*
X74875764Y-61559533D01*
X74835056Y-61549500D01*
X74664944Y-61549500D01*
X74632284Y-61557549D01*
X74499775Y-61590209D01*
X74349149Y-61669265D01*
X74221815Y-61782072D01*
X74125182Y-61922069D01*
X74064860Y-62081127D01*
X74044354Y-62250000D01*
X68657005Y-62250000D01*
X68651162Y-62241534D01*
X68624818Y-62172070D01*
X68528184Y-62032072D01*
X68455779Y-61967927D01*
X68400852Y-61919266D01*
X68361980Y-61898864D01*
X68250224Y-61840209D01*
X68125764Y-61809533D01*
X68085056Y-61799500D01*
X67914944Y-61799500D01*
X67882284Y-61807549D01*
X67749775Y-61840209D01*
X67599149Y-61919265D01*
X67471815Y-62032072D01*
X67375182Y-62172069D01*
X67314860Y-62331127D01*
X67294354Y-62499999D01*
X66195718Y-62499999D01*
X66154795Y-62392093D01*
X66096338Y-62307404D01*
X66058161Y-62252095D01*
X66044203Y-62239729D01*
X65930829Y-62139289D01*
X65837316Y-62090209D01*
X65780201Y-62060232D01*
X65655741Y-62029556D01*
X65615033Y-62019523D01*
X65444921Y-62019523D01*
X65412261Y-62027572D01*
X65279752Y-62060232D01*
X65129126Y-62139288D01*
X65001792Y-62252095D01*
X64905159Y-62392092D01*
X64844837Y-62551150D01*
X64824331Y-62720023D01*
X61702005Y-62720023D01*
X61685140Y-62581128D01*
X61624818Y-62422070D01*
X61528183Y-62282071D01*
X61400852Y-62169266D01*
X61343736Y-62139289D01*
X61250224Y-62090209D01*
X61125764Y-62059533D01*
X61085056Y-62049500D01*
X60914944Y-62049500D01*
X60882284Y-62057549D01*
X60749775Y-62090209D01*
X60599149Y-62169265D01*
X60471815Y-62282072D01*
X60375182Y-62422069D01*
X60314860Y-62581127D01*
X60294354Y-62749999D01*
X53843000Y-62749999D01*
X53843000Y-62603775D01*
X53802989Y-62415539D01*
X53724713Y-62239727D01*
X53611599Y-62084040D01*
X53611597Y-62084037D01*
X53482647Y-61967929D01*
X53468579Y-61955262D01*
X53301919Y-61859041D01*
X53118893Y-61799573D01*
X53083039Y-61795804D01*
X52975481Y-61784500D01*
X51649519Y-61784500D01*
X51563472Y-61793543D01*
X51506106Y-61799573D01*
X51323080Y-61859041D01*
X51156417Y-61955264D01*
X51013405Y-62084035D01*
X51013403Y-62084037D01*
X50973260Y-62139289D01*
X50900285Y-62239729D01*
X50822010Y-62415539D01*
X50782000Y-62603775D01*
X50782000Y-62796225D01*
X48000500Y-62796225D01*
X48000500Y-61500000D01*
X58794354Y-61500000D01*
X58814860Y-61668872D01*
X58875182Y-61827930D01*
X58971815Y-61967927D01*
X58971816Y-61967928D01*
X58971817Y-61967929D01*
X59099148Y-62080734D01*
X59249775Y-62159790D01*
X59414944Y-62200500D01*
X59585055Y-62200500D01*
X59585056Y-62200500D01*
X59750225Y-62159790D01*
X59900852Y-62080734D01*
X60028183Y-61967929D01*
X60124818Y-61827930D01*
X60185140Y-61668872D01*
X60205645Y-61500000D01*
X60185140Y-61331128D01*
X60124818Y-61172070D01*
X60076500Y-61102070D01*
X60028184Y-61032072D01*
X60028183Y-61032071D01*
X59900852Y-60919266D01*
X59882797Y-60909790D01*
X59750224Y-60840209D01*
X59625765Y-60809533D01*
X59585056Y-60799500D01*
X59414944Y-60799500D01*
X59382284Y-60807549D01*
X59249775Y-60840209D01*
X59099149Y-60919265D01*
X58971815Y-61032072D01*
X58875182Y-61172069D01*
X58814860Y-61331127D01*
X58794354Y-61500000D01*
X48000500Y-61500000D01*
X48000500Y-60249999D01*
X65044354Y-60249999D01*
X65064860Y-60418872D01*
X65125182Y-60577930D01*
X65221815Y-60717927D01*
X65221816Y-60717928D01*
X65221817Y-60717929D01*
X65349148Y-60830734D01*
X65499775Y-60909790D01*
X65664944Y-60950500D01*
X65835055Y-60950500D01*
X65835056Y-60950500D01*
X66000225Y-60909790D01*
X66150852Y-60830734D01*
X66278183Y-60717929D01*
X66374818Y-60577930D01*
X66435140Y-60418872D01*
X66455645Y-60250000D01*
X66435140Y-60081128D01*
X66374818Y-59922070D01*
X66326500Y-59852070D01*
X66300912Y-59815000D01*
X92544354Y-59815000D01*
X92564860Y-59983872D01*
X92625182Y-60142930D01*
X92721815Y-60282927D01*
X92721816Y-60282928D01*
X92721817Y-60282929D01*
X92849148Y-60395734D01*
X92999775Y-60474790D01*
X93164944Y-60515500D01*
X93335055Y-60515500D01*
X93335056Y-60515500D01*
X93500225Y-60474790D01*
X93650852Y-60395734D01*
X93778183Y-60282929D01*
X93800913Y-60249999D01*
X96294354Y-60249999D01*
X96314860Y-60418872D01*
X96375182Y-60577930D01*
X96471815Y-60717927D01*
X96471816Y-60717928D01*
X96471817Y-60717929D01*
X96599148Y-60830734D01*
X96749775Y-60909790D01*
X96914944Y-60950500D01*
X97085055Y-60950500D01*
X97085056Y-60950500D01*
X97250225Y-60909790D01*
X97400852Y-60830734D01*
X97491983Y-60749999D01*
X103544354Y-60749999D01*
X103564860Y-60918872D01*
X103625182Y-61077930D01*
X103721815Y-61217927D01*
X103721816Y-61217928D01*
X103721817Y-61217929D01*
X103849148Y-61330734D01*
X103999775Y-61409790D01*
X104164944Y-61450500D01*
X104335055Y-61450500D01*
X104335056Y-61450500D01*
X104500225Y-61409790D01*
X104650852Y-61330734D01*
X104778183Y-61217929D01*
X104874818Y-61077930D01*
X104935140Y-60918872D01*
X104955645Y-60750000D01*
X104935140Y-60581128D01*
X104874818Y-60422070D01*
X104811773Y-60330734D01*
X104778184Y-60282072D01*
X104705779Y-60217927D01*
X104650852Y-60169266D01*
X104636588Y-60161780D01*
X104500224Y-60090209D01*
X104375764Y-60059533D01*
X104335056Y-60049500D01*
X104164944Y-60049500D01*
X104132284Y-60057549D01*
X103999775Y-60090209D01*
X103849149Y-60169265D01*
X103721815Y-60282072D01*
X103625182Y-60422069D01*
X103564860Y-60581127D01*
X103544354Y-60749999D01*
X97491983Y-60749999D01*
X97528183Y-60717929D01*
X97624818Y-60577930D01*
X97685140Y-60418872D01*
X97705645Y-60250000D01*
X97685140Y-60081128D01*
X97624818Y-59922070D01*
X97576500Y-59852070D01*
X97528184Y-59782072D01*
X97491982Y-59750000D01*
X114794354Y-59750000D01*
X114814860Y-59918872D01*
X114875182Y-60077930D01*
X114971815Y-60217927D01*
X114971816Y-60217928D01*
X114971817Y-60217929D01*
X115099148Y-60330734D01*
X115249775Y-60409790D01*
X115414944Y-60450500D01*
X115585055Y-60450500D01*
X115585056Y-60450500D01*
X115750225Y-60409790D01*
X115900852Y-60330734D01*
X115917773Y-60315742D01*
X115970323Y-60288162D01*
X116029674Y-60288161D01*
X116082225Y-60315742D01*
X116099148Y-60330734D01*
X116249775Y-60409790D01*
X116414944Y-60450500D01*
X116585055Y-60450500D01*
X116585056Y-60450500D01*
X116750225Y-60409790D01*
X116900852Y-60330734D01*
X117028183Y-60217929D01*
X117124818Y-60077930D01*
X117185140Y-59918872D01*
X117205645Y-59750000D01*
X117185140Y-59581128D01*
X117124818Y-59422070D01*
X117028183Y-59282071D01*
X116900852Y-59169266D01*
X116874069Y-59155209D01*
X116750224Y-59090209D01*
X116625765Y-59059533D01*
X116585056Y-59049500D01*
X116414944Y-59049500D01*
X116382284Y-59057549D01*
X116249775Y-59090209D01*
X116099146Y-59169267D01*
X116082225Y-59184258D01*
X116029674Y-59211838D01*
X115970326Y-59211838D01*
X115917775Y-59184258D01*
X115900853Y-59169267D01*
X115900852Y-59169266D01*
X115825538Y-59129737D01*
X115750224Y-59090209D01*
X115625765Y-59059533D01*
X115585056Y-59049500D01*
X115414944Y-59049500D01*
X115382284Y-59057549D01*
X115249775Y-59090209D01*
X115099149Y-59169265D01*
X114971815Y-59282072D01*
X114875182Y-59422069D01*
X114814860Y-59581127D01*
X114794354Y-59750000D01*
X97491982Y-59750000D01*
X97400852Y-59669266D01*
X97356765Y-59646127D01*
X97250224Y-59590209D01*
X97125765Y-59559533D01*
X97085056Y-59549500D01*
X96914944Y-59549500D01*
X96882284Y-59557549D01*
X96749775Y-59590209D01*
X96599149Y-59669265D01*
X96471815Y-59782072D01*
X96375182Y-59922069D01*
X96314860Y-60081127D01*
X96294354Y-60249999D01*
X93800913Y-60249999D01*
X93874818Y-60142930D01*
X93935140Y-59983872D01*
X93955645Y-59815000D01*
X93935140Y-59646128D01*
X93874818Y-59487070D01*
X93778183Y-59347071D01*
X93650852Y-59234266D01*
X93636588Y-59226780D01*
X93500224Y-59155209D01*
X93375765Y-59124533D01*
X93335056Y-59114500D01*
X93164944Y-59114500D01*
X93132284Y-59122549D01*
X92999775Y-59155209D01*
X92849149Y-59234265D01*
X92721815Y-59347072D01*
X92625182Y-59487069D01*
X92564860Y-59646127D01*
X92544354Y-59815000D01*
X66300912Y-59815000D01*
X66278184Y-59782072D01*
X66241982Y-59750000D01*
X66150852Y-59669266D01*
X66106765Y-59646127D01*
X66000224Y-59590209D01*
X65875765Y-59559533D01*
X65835056Y-59549500D01*
X65664944Y-59549500D01*
X65632284Y-59557549D01*
X65499775Y-59590209D01*
X65349149Y-59669265D01*
X65221815Y-59782072D01*
X65125182Y-59922069D01*
X65064860Y-60081127D01*
X65044354Y-60249999D01*
X48000500Y-60249999D01*
X48000500Y-58499999D01*
X51353382Y-58499999D01*
X51371811Y-58687116D01*
X51426390Y-58867039D01*
X51465136Y-58939526D01*
X51515023Y-59032857D01*
X51561628Y-59089647D01*
X51634300Y-59178199D01*
X51702618Y-59234265D01*
X51779643Y-59297477D01*
X51862551Y-59341792D01*
X51945460Y-59386109D01*
X52015822Y-59407453D01*
X52125385Y-59440689D01*
X52312500Y-59459118D01*
X52499615Y-59440689D01*
X52679539Y-59386109D01*
X52845357Y-59297477D01*
X52990699Y-59178199D01*
X53109977Y-59032857D01*
X53159864Y-58939525D01*
X103904454Y-58939525D01*
X103924960Y-59108398D01*
X103985282Y-59267456D01*
X104081915Y-59407453D01*
X104081916Y-59407454D01*
X104081917Y-59407455D01*
X104209248Y-59520260D01*
X104359875Y-59599316D01*
X104525044Y-59640026D01*
X104695155Y-59640026D01*
X104695156Y-59640026D01*
X104860325Y-59599316D01*
X105010952Y-59520260D01*
X105138283Y-59407455D01*
X105234918Y-59267456D01*
X105295240Y-59108398D01*
X105315745Y-58939526D01*
X105295240Y-58770654D01*
X105234918Y-58611596D01*
X105138283Y-58471597D01*
X105010952Y-58358792D01*
X104996688Y-58351306D01*
X104860324Y-58279735D01*
X104735864Y-58249059D01*
X104695156Y-58239026D01*
X104525044Y-58239026D01*
X104492384Y-58247075D01*
X104359875Y-58279735D01*
X104209249Y-58358791D01*
X104081915Y-58471598D01*
X103985282Y-58611595D01*
X103924960Y-58770653D01*
X103904454Y-58939525D01*
X53159864Y-58939525D01*
X53198609Y-58867039D01*
X53253189Y-58687115D01*
X53271618Y-58500000D01*
X53253189Y-58312885D01*
X53222374Y-58211305D01*
X53198609Y-58132960D01*
X53154292Y-58050051D01*
X53109977Y-57967143D01*
X53050338Y-57894472D01*
X52990699Y-57821800D01*
X52845356Y-57702522D01*
X52817919Y-57687857D01*
X52770645Y-57643289D01*
X52752396Y-57580934D01*
X52768182Y-57517910D01*
X52813670Y-57471520D01*
X52876371Y-57454499D01*
X53011364Y-57454499D01*
X53011367Y-57454499D01*
X53023927Y-57453041D01*
X53036491Y-57451585D01*
X53139265Y-57406206D01*
X53218706Y-57326765D01*
X53264085Y-57223991D01*
X53267000Y-57198865D01*
X53266999Y-55894867D01*
X59059500Y-55894867D01*
X59062414Y-55919988D01*
X59062414Y-55919990D01*
X59062415Y-55919991D01*
X59101848Y-56009298D01*
X59107795Y-56022767D01*
X59187232Y-56102204D01*
X59187233Y-56102204D01*
X59187235Y-56102206D01*
X59290009Y-56147585D01*
X59315135Y-56150500D01*
X61104864Y-56150499D01*
X61104867Y-56150499D01*
X61117427Y-56149042D01*
X61129991Y-56147585D01*
X61232765Y-56102206D01*
X61312206Y-56022765D01*
X61357585Y-55919991D01*
X61360500Y-55894865D01*
X61360499Y-55156046D01*
X61376170Y-55095710D01*
X61419221Y-55050622D01*
X61478772Y-55032181D01*
X61539770Y-55045049D01*
X61586799Y-55085972D01*
X61607970Y-55144607D01*
X61614243Y-55212310D01*
X61672595Y-55417390D01*
X61767631Y-55608252D01*
X61896126Y-55778405D01*
X61896128Y-55778407D01*
X62053698Y-55922052D01*
X62234981Y-56034298D01*
X62433802Y-56111321D01*
X62643390Y-56150500D01*
X62856608Y-56150500D01*
X62856610Y-56150500D01*
X63066198Y-56111321D01*
X63265019Y-56034298D01*
X63446302Y-55922052D01*
X63603872Y-55778407D01*
X63732366Y-55608255D01*
X63732366Y-55608253D01*
X63732368Y-55608252D01*
X63781628Y-55509323D01*
X63827405Y-55417389D01*
X63885756Y-55212310D01*
X63896529Y-55096047D01*
X63916633Y-55038996D01*
X63959410Y-54999999D01*
X64080589Y-54999999D01*
X64123367Y-55038996D01*
X64143471Y-55096048D01*
X64154243Y-55212310D01*
X64212595Y-55417390D01*
X64307631Y-55608252D01*
X64436126Y-55778405D01*
X64436128Y-55778407D01*
X64593698Y-55922052D01*
X64774981Y-56034298D01*
X64973802Y-56111321D01*
X65183390Y-56150500D01*
X65396608Y-56150500D01*
X65396610Y-56150500D01*
X65606198Y-56111321D01*
X65805019Y-56034298D01*
X65986302Y-55922052D01*
X66143872Y-55778407D01*
X66272366Y-55608255D01*
X66272365Y-55608255D01*
X66277046Y-55602058D01*
X66324868Y-55563818D01*
X66385158Y-55553124D01*
X66443215Y-55572582D01*
X66484882Y-55617450D01*
X66500000Y-55676785D01*
X66500000Y-56750000D01*
X68434744Y-56750000D01*
X68501018Y-56769197D01*
X68546772Y-56820843D01*
X68557839Y-56888944D01*
X68556081Y-56903430D01*
X68544354Y-57000000D01*
X68564860Y-57168872D01*
X68625182Y-57327930D01*
X68721815Y-57467927D01*
X68721816Y-57467928D01*
X68721817Y-57467929D01*
X68849148Y-57580734D01*
X68999775Y-57659790D01*
X69164944Y-57700500D01*
X69335055Y-57700500D01*
X69335056Y-57700500D01*
X69500225Y-57659790D01*
X69650852Y-57580734D01*
X69778183Y-57467929D01*
X69874818Y-57327930D01*
X69935140Y-57168872D01*
X69955645Y-57000000D01*
X69935140Y-56831128D01*
X69874818Y-56672070D01*
X69778183Y-56532071D01*
X69650852Y-56419266D01*
X69636588Y-56411780D01*
X69500224Y-56340209D01*
X69374168Y-56309140D01*
X69344325Y-56301784D01*
X69295577Y-56277439D01*
X69261972Y-56234546D01*
X69250000Y-56181388D01*
X69250000Y-55869867D01*
X74299500Y-55869867D01*
X74302414Y-55894988D01*
X74347795Y-55997767D01*
X74427232Y-56077204D01*
X74427233Y-56077204D01*
X74427235Y-56077206D01*
X74530009Y-56122585D01*
X74555135Y-56125500D01*
X76344864Y-56125499D01*
X76344867Y-56125499D01*
X76357427Y-56124041D01*
X76369991Y-56122585D01*
X76472765Y-56077206D01*
X76552206Y-55997765D01*
X76597585Y-55894991D01*
X76600500Y-55869865D01*
X76600499Y-55131046D01*
X76616170Y-55070710D01*
X76659221Y-55025622D01*
X76718772Y-55007181D01*
X76779770Y-55020049D01*
X76826799Y-55060972D01*
X76847970Y-55119607D01*
X76854243Y-55187310D01*
X76912595Y-55392390D01*
X77007631Y-55583252D01*
X77075584Y-55673235D01*
X77136128Y-55753407D01*
X77293698Y-55897052D01*
X77474981Y-56009298D01*
X77673802Y-56086321D01*
X77883390Y-56125500D01*
X78096608Y-56125500D01*
X78096610Y-56125500D01*
X78306198Y-56086321D01*
X78505019Y-56009298D01*
X78686302Y-55897052D01*
X78843872Y-55753407D01*
X78972366Y-55583255D01*
X78972366Y-55583253D01*
X78972368Y-55583252D01*
X79054956Y-55417390D01*
X79067405Y-55392389D01*
X79125756Y-55187310D01*
X79136529Y-55071047D01*
X79156633Y-55013996D01*
X79199410Y-54974999D01*
X79320589Y-54974999D01*
X79363367Y-55013996D01*
X79383471Y-55071048D01*
X79394243Y-55187310D01*
X79452595Y-55392390D01*
X79547631Y-55583252D01*
X79615584Y-55673235D01*
X79676128Y-55753407D01*
X79833698Y-55897052D01*
X80014981Y-56009298D01*
X80213802Y-56086321D01*
X80423390Y-56125500D01*
X80636608Y-56125500D01*
X80636610Y-56125500D01*
X80846198Y-56086321D01*
X81045019Y-56009298D01*
X81226302Y-55897052D01*
X81383872Y-55753407D01*
X81512366Y-55583255D01*
X81515000Y-55577966D01*
X81558786Y-55529035D01*
X81621418Y-55509323D01*
X81685336Y-55524356D01*
X81732615Y-55569920D01*
X81750000Y-55633238D01*
X81750000Y-56662143D01*
X81737487Y-56716427D01*
X81702472Y-56759754D01*
X81652024Y-56783381D01*
X81615947Y-56782836D01*
X81615947Y-56783665D01*
X81600891Y-56783665D01*
X81430779Y-56783665D01*
X81398119Y-56791714D01*
X81265610Y-56824374D01*
X81114984Y-56903430D01*
X80987650Y-57016237D01*
X80891017Y-57156234D01*
X80830695Y-57315292D01*
X80810189Y-57484165D01*
X80830695Y-57653037D01*
X80891017Y-57812095D01*
X80987650Y-57952092D01*
X80987651Y-57952093D01*
X80987652Y-57952094D01*
X81114983Y-58064899D01*
X81265610Y-58143955D01*
X81430779Y-58184665D01*
X81600890Y-58184665D01*
X81600891Y-58184665D01*
X81766060Y-58143955D01*
X81916687Y-58064899D01*
X82044018Y-57952094D01*
X82140653Y-57812095D01*
X82200975Y-57653037D01*
X82221480Y-57484165D01*
X82200975Y-57315293D01*
X82140653Y-57156235D01*
X82044018Y-57016236D01*
X81988231Y-56966813D01*
X81954518Y-56917971D01*
X81947364Y-56859054D01*
X81968410Y-56803560D01*
X82012834Y-56764204D01*
X82070460Y-56750000D01*
X84500000Y-56750000D01*
X84500000Y-53250000D01*
X81750000Y-53250000D01*
X81750000Y-54316762D01*
X81732615Y-54380080D01*
X81685336Y-54425644D01*
X81621418Y-54440677D01*
X81558786Y-54420965D01*
X81515000Y-54372034D01*
X81513798Y-54369620D01*
X81512366Y-54366745D01*
X81383872Y-54196593D01*
X81256122Y-54080133D01*
X81226301Y-54052947D01*
X81085395Y-53965702D01*
X81045019Y-53940702D01*
X81045017Y-53940701D01*
X80846198Y-53863679D01*
X80785941Y-53852415D01*
X80636610Y-53824500D01*
X80423390Y-53824500D01*
X80289653Y-53849500D01*
X80213801Y-53863679D01*
X80014982Y-53940701D01*
X79833698Y-54052947D01*
X79676126Y-54196594D01*
X79547631Y-54366747D01*
X79452595Y-54557609D01*
X79394243Y-54762689D01*
X79383471Y-54878951D01*
X79363367Y-54936003D01*
X79320589Y-54974999D01*
X79199410Y-54974999D01*
X79156633Y-54936003D01*
X79136529Y-54878951D01*
X79125756Y-54762689D01*
X79074518Y-54582611D01*
X79067405Y-54557611D01*
X79067014Y-54556827D01*
X78972368Y-54366747D01*
X78843873Y-54196594D01*
X78686301Y-54052947D01*
X78545395Y-53965702D01*
X78505019Y-53940702D01*
X78505017Y-53940701D01*
X78306198Y-53863679D01*
X78245941Y-53852415D01*
X78096610Y-53824500D01*
X77883390Y-53824500D01*
X77749653Y-53849500D01*
X77673801Y-53863679D01*
X77474982Y-53940701D01*
X77293698Y-54052947D01*
X77136126Y-54196594D01*
X77007631Y-54366747D01*
X76912595Y-54557609D01*
X76854243Y-54762689D01*
X76847970Y-54830393D01*
X76826799Y-54889029D01*
X76779770Y-54929952D01*
X76718772Y-54942820D01*
X76659221Y-54924379D01*
X76616170Y-54879291D01*
X76600499Y-54818952D01*
X76600499Y-54080133D01*
X76597585Y-54055011D01*
X76597585Y-54055009D01*
X76552206Y-53952235D01*
X76552204Y-53952233D01*
X76552204Y-53952232D01*
X76472767Y-53872795D01*
X76452121Y-53863679D01*
X76369991Y-53827415D01*
X76344865Y-53824500D01*
X76344863Y-53824500D01*
X74555132Y-53824500D01*
X74530011Y-53827414D01*
X74427232Y-53872795D01*
X74347795Y-53952232D01*
X74319843Y-54015539D01*
X74302415Y-54055009D01*
X74299515Y-54080011D01*
X74299500Y-54080136D01*
X74299500Y-55869867D01*
X69250000Y-55869867D01*
X69250000Y-53250000D01*
X66500000Y-53250000D01*
X66500000Y-54323215D01*
X66484882Y-54382550D01*
X66443215Y-54427418D01*
X66385158Y-54446876D01*
X66324868Y-54436182D01*
X66277046Y-54397942D01*
X66143873Y-54221594D01*
X65986301Y-54077947D01*
X65823645Y-53977235D01*
X65805019Y-53965702D01*
X65805017Y-53965701D01*
X65606198Y-53888679D01*
X65396610Y-53849500D01*
X65183390Y-53849500D01*
X65043664Y-53875619D01*
X64973801Y-53888679D01*
X64774982Y-53965701D01*
X64593698Y-54077947D01*
X64436126Y-54221594D01*
X64307631Y-54391747D01*
X64212595Y-54582609D01*
X64154243Y-54787689D01*
X64143471Y-54903951D01*
X64123367Y-54961003D01*
X64080589Y-54999999D01*
X63959410Y-54999999D01*
X63916633Y-54961003D01*
X63896529Y-54903951D01*
X63885756Y-54787689D01*
X63827404Y-54582609D01*
X63732368Y-54391747D01*
X63603873Y-54221594D01*
X63446301Y-54077947D01*
X63283645Y-53977235D01*
X63265019Y-53965702D01*
X63265017Y-53965701D01*
X63066198Y-53888679D01*
X62856610Y-53849500D01*
X62643390Y-53849500D01*
X62503664Y-53875619D01*
X62433801Y-53888679D01*
X62234982Y-53965701D01*
X62053698Y-54077947D01*
X61896126Y-54221594D01*
X61767631Y-54391747D01*
X61672595Y-54582609D01*
X61614243Y-54787689D01*
X61607970Y-54855393D01*
X61586799Y-54914029D01*
X61539770Y-54954952D01*
X61478772Y-54967820D01*
X61419221Y-54949379D01*
X61376170Y-54904291D01*
X61360499Y-54843952D01*
X61360499Y-54105133D01*
X61358750Y-54090059D01*
X61357585Y-54080009D01*
X61312206Y-53977235D01*
X61312204Y-53977233D01*
X61312204Y-53977232D01*
X61232767Y-53897795D01*
X61176145Y-53872794D01*
X61129991Y-53852415D01*
X61104865Y-53849500D01*
X61104863Y-53849500D01*
X59315132Y-53849500D01*
X59290011Y-53852414D01*
X59187232Y-53897795D01*
X59107795Y-53977232D01*
X59062415Y-54080009D01*
X59059500Y-54105136D01*
X59059500Y-55894867D01*
X53266999Y-55894867D01*
X53266999Y-55801136D01*
X53264085Y-55776009D01*
X53218706Y-55673235D01*
X53218704Y-55673233D01*
X53218704Y-55673232D01*
X53139267Y-55593795D01*
X53115396Y-55583255D01*
X53036491Y-55548415D01*
X53011365Y-55545500D01*
X53011363Y-55545500D01*
X51613632Y-55545500D01*
X51588511Y-55548414D01*
X51485732Y-55593795D01*
X51406295Y-55673232D01*
X51360915Y-55776009D01*
X51358000Y-55801136D01*
X51358000Y-57198867D01*
X51360914Y-57223988D01*
X51406295Y-57326767D01*
X51485732Y-57406204D01*
X51485733Y-57406204D01*
X51485735Y-57406206D01*
X51588509Y-57451585D01*
X51613635Y-57454500D01*
X51748627Y-57454499D01*
X51811325Y-57471519D01*
X51856814Y-57517908D01*
X51872601Y-57580931D01*
X51854354Y-57643286D01*
X51807081Y-57687855D01*
X51779646Y-57702519D01*
X51634300Y-57821800D01*
X51515022Y-57967144D01*
X51426390Y-58132960D01*
X51371811Y-58312883D01*
X51353382Y-58499999D01*
X48000500Y-58499999D01*
X48000500Y-54396225D01*
X50782000Y-54396225D01*
X50822010Y-54584460D01*
X50900286Y-54760272D01*
X50969396Y-54855393D01*
X51013403Y-54915963D01*
X51122279Y-55013996D01*
X51156420Y-55044737D01*
X51323080Y-55140958D01*
X51334311Y-55144607D01*
X51506108Y-55200427D01*
X51649519Y-55215500D01*
X52975478Y-55215500D01*
X52975481Y-55215500D01*
X53118892Y-55200427D01*
X53301919Y-55140958D01*
X53468582Y-55044735D01*
X53611597Y-54915963D01*
X53724714Y-54760272D01*
X53802988Y-54584463D01*
X53808696Y-54557609D01*
X53843000Y-54396225D01*
X53843000Y-54203775D01*
X53802989Y-54015539D01*
X53724713Y-53839727D01*
X53611599Y-53684040D01*
X53611597Y-53684037D01*
X53468582Y-53555265D01*
X53468579Y-53555262D01*
X53301919Y-53459041D01*
X53118893Y-53399573D01*
X53083039Y-53395804D01*
X52975481Y-53384500D01*
X51649519Y-53384500D01*
X51563472Y-53393543D01*
X51506106Y-53399573D01*
X51323080Y-53459041D01*
X51156417Y-53555264D01*
X51013405Y-53684035D01*
X51013403Y-53684037D01*
X51013401Y-53684040D01*
X50900285Y-53839729D01*
X50822010Y-54015539D01*
X50782000Y-54203775D01*
X50782000Y-54396225D01*
X48000500Y-54396225D01*
X48000500Y-53504065D01*
X48000765Y-53495956D01*
X48000766Y-53495942D01*
X48005979Y-53416401D01*
X48006004Y-53416046D01*
X48018709Y-53238407D01*
X48020771Y-53223099D01*
X48042955Y-53111573D01*
X48043364Y-53109606D01*
X48073788Y-52969749D01*
X48077519Y-52956305D01*
X48116243Y-52842230D01*
X48117404Y-52838967D01*
X48165068Y-52711177D01*
X48170017Y-52699713D01*
X48224481Y-52589272D01*
X48226777Y-52584851D01*
X48290855Y-52467501D01*
X48296562Y-52458075D01*
X48365639Y-52354694D01*
X48369425Y-52349344D01*
X48448850Y-52243246D01*
X48454823Y-52235878D01*
X48537161Y-52141989D01*
X48542648Y-52136131D01*
X48636131Y-52042648D01*
X48641989Y-52037161D01*
X48735878Y-51954823D01*
X48743246Y-51948850D01*
X48849344Y-51869425D01*
X48854694Y-51865639D01*
X48958075Y-51796562D01*
X48967501Y-51790855D01*
X49084851Y-51726777D01*
X49089272Y-51724481D01*
X49199713Y-51670017D01*
X49211177Y-51665068D01*
X49338967Y-51617404D01*
X49342230Y-51616243D01*
X49456305Y-51577519D01*
X49469749Y-51573788D01*
X49609606Y-51543364D01*
X49611573Y-51542955D01*
X49723099Y-51520771D01*
X49738407Y-51518709D01*
X49916193Y-51505992D01*
X49995957Y-51500764D01*
X50004065Y-51500500D01*
X117245935Y-51500500D01*
X117254042Y-51500764D01*
G37*
G04 #@! TD.AperFunction*
G04 #@! TA.AperFunction,Conductor*
G36*
X83068421Y-84764203D02*
G01*
X83112845Y-84803560D01*
X83133891Y-84859053D01*
X83126737Y-84917971D01*
X83064860Y-85081127D01*
X83044354Y-85249999D01*
X83064860Y-85418872D01*
X83125182Y-85577930D01*
X83221815Y-85717927D01*
X83221816Y-85717928D01*
X83221817Y-85717929D01*
X83349148Y-85830734D01*
X83499775Y-85909790D01*
X83664944Y-85950500D01*
X83835055Y-85950500D01*
X83835056Y-85950500D01*
X84000225Y-85909790D01*
X84150852Y-85830734D01*
X84278183Y-85717929D01*
X84374818Y-85577930D01*
X84435140Y-85418872D01*
X84455645Y-85250000D01*
X84435140Y-85081128D01*
X84387538Y-84955612D01*
X84381251Y-84890767D01*
X84408706Y-84831683D01*
X84462324Y-84794672D01*
X84527304Y-84789953D01*
X84585708Y-84818827D01*
X84599149Y-84830735D01*
X84713530Y-84890767D01*
X84749775Y-84909790D01*
X84914944Y-84950500D01*
X85085055Y-84950500D01*
X85085056Y-84950500D01*
X85250225Y-84909790D01*
X85400852Y-84830734D01*
X85441558Y-84794672D01*
X85456782Y-84781185D01*
X85495038Y-84758058D01*
X85539009Y-84750000D01*
X86710991Y-84750000D01*
X86754962Y-84758058D01*
X86793218Y-84781185D01*
X86835708Y-84818827D01*
X86849148Y-84830734D01*
X86999775Y-84909790D01*
X87164944Y-84950500D01*
X87335055Y-84950500D01*
X87335056Y-84950500D01*
X87500225Y-84909790D01*
X87650852Y-84830734D01*
X87691558Y-84794672D01*
X87706782Y-84781185D01*
X87745038Y-84758058D01*
X87789009Y-84750000D01*
X112725501Y-84750000D01*
X112787501Y-84766613D01*
X112832888Y-84812000D01*
X112849501Y-84874000D01*
X112849501Y-85104867D01*
X112852414Y-85129988D01*
X112897795Y-85232767D01*
X112977232Y-85312204D01*
X112977233Y-85312204D01*
X112977235Y-85312206D01*
X113080009Y-85357585D01*
X113105135Y-85360500D01*
X113833759Y-85360499D01*
X113892420Y-85375253D01*
X113937124Y-85416005D01*
X113957228Y-85473057D01*
X113947949Y-85532832D01*
X113911496Y-85581105D01*
X113856543Y-85606387D01*
X113683802Y-85638679D01*
X113630357Y-85659383D01*
X113484982Y-85715701D01*
X113303698Y-85827947D01*
X113146126Y-85971594D01*
X113017631Y-86141747D01*
X112922595Y-86332609D01*
X112864243Y-86537689D01*
X112844571Y-86749999D01*
X112864243Y-86962310D01*
X112922595Y-87167390D01*
X113017631Y-87358252D01*
X113135426Y-87514236D01*
X113146128Y-87528407D01*
X113303698Y-87672052D01*
X113484981Y-87784298D01*
X113683802Y-87861321D01*
X113893390Y-87900500D01*
X114106608Y-87900500D01*
X114106610Y-87900500D01*
X114316198Y-87861321D01*
X114515019Y-87784298D01*
X114696302Y-87672052D01*
X114853872Y-87528407D01*
X114982366Y-87358255D01*
X114982366Y-87358253D01*
X114982368Y-87358252D01*
X115030080Y-87262430D01*
X115077405Y-87167389D01*
X115135756Y-86962310D01*
X115155429Y-86750000D01*
X115135756Y-86537690D01*
X115077405Y-86332611D01*
X115014633Y-86206546D01*
X114982368Y-86141747D01*
X114853873Y-85971594D01*
X114696301Y-85827947D01*
X114584802Y-85758909D01*
X114515019Y-85715702D01*
X114515017Y-85715701D01*
X114316198Y-85638679D01*
X114316197Y-85638678D01*
X114143455Y-85606387D01*
X114088502Y-85581105D01*
X114052049Y-85532832D01*
X114042770Y-85473057D01*
X114062874Y-85416006D01*
X114107577Y-85375253D01*
X114166239Y-85360499D01*
X114894864Y-85360499D01*
X114894867Y-85360499D01*
X114907427Y-85359041D01*
X114919991Y-85357585D01*
X115022765Y-85312206D01*
X115102206Y-85232765D01*
X115147585Y-85129991D01*
X115150500Y-85104865D01*
X115150499Y-84874000D01*
X115167113Y-84812000D01*
X115212500Y-84766613D01*
X115274500Y-84750000D01*
X119125500Y-84750000D01*
X119187500Y-84766613D01*
X119232887Y-84812000D01*
X119249500Y-84874000D01*
X119249500Y-93995947D01*
X119249234Y-94004058D01*
X119244045Y-94083217D01*
X119243995Y-94083952D01*
X119231291Y-94261573D01*
X119229224Y-94276918D01*
X119207064Y-94388323D01*
X119206613Y-94390490D01*
X119176217Y-94530221D01*
X119172470Y-94543722D01*
X119133793Y-94657660D01*
X119132556Y-94661135D01*
X119084938Y-94788802D01*
X119079969Y-94800311D01*
X119025564Y-94910635D01*
X119023183Y-94915219D01*
X118959154Y-95032478D01*
X118953424Y-95041942D01*
X118884383Y-95145269D01*
X118880548Y-95150688D01*
X118801181Y-95256711D01*
X118795142Y-95264160D01*
X118712867Y-95357976D01*
X118707320Y-95363898D01*
X118613898Y-95457320D01*
X118607976Y-95462867D01*
X118514160Y-95545142D01*
X118506711Y-95551181D01*
X118400688Y-95630548D01*
X118395269Y-95634383D01*
X118291942Y-95703424D01*
X118282478Y-95709154D01*
X118165219Y-95773183D01*
X118160635Y-95775564D01*
X118050311Y-95829969D01*
X118038802Y-95834938D01*
X117911135Y-95882556D01*
X117907660Y-95883793D01*
X117793722Y-95922470D01*
X117780221Y-95926217D01*
X117640490Y-95956613D01*
X117638323Y-95957064D01*
X117526918Y-95979224D01*
X117511573Y-95981291D01*
X117333952Y-95993995D01*
X117333217Y-95994045D01*
X117254058Y-95999234D01*
X117245947Y-95999500D01*
X72925872Y-95999500D01*
X72868820Y-95985596D01*
X72824563Y-95947001D01*
X72803025Y-95892372D01*
X72809037Y-95833959D01*
X73105734Y-94999499D01*
X75794354Y-94999499D01*
X75814860Y-95168372D01*
X75875182Y-95327430D01*
X75971815Y-95467427D01*
X75971816Y-95467428D01*
X75971817Y-95467429D01*
X76099148Y-95580234D01*
X76249775Y-95659290D01*
X76414944Y-95700000D01*
X76585055Y-95700000D01*
X76585056Y-95700000D01*
X76750225Y-95659290D01*
X76900852Y-95580234D01*
X77028183Y-95467429D01*
X77124818Y-95327430D01*
X77185140Y-95168372D01*
X77205645Y-94999500D01*
X77185140Y-94830628D01*
X77154562Y-94750000D01*
X80794354Y-94750000D01*
X80814860Y-94918872D01*
X80875182Y-95077930D01*
X80971815Y-95217927D01*
X80971816Y-95217928D01*
X80971817Y-95217929D01*
X81099148Y-95330734D01*
X81249775Y-95409790D01*
X81414944Y-95450500D01*
X81585055Y-95450500D01*
X81585056Y-95450500D01*
X81750225Y-95409790D01*
X81900852Y-95330734D01*
X82028183Y-95217929D01*
X82124818Y-95077930D01*
X82185140Y-94918872D01*
X82205645Y-94750000D01*
X82205644Y-94749999D01*
X82207460Y-94735053D01*
X82210237Y-94735390D01*
X82217659Y-94689709D01*
X82263413Y-94638061D01*
X82329689Y-94618863D01*
X82364555Y-94618863D01*
X82364556Y-94618863D01*
X82529725Y-94578153D01*
X82677679Y-94500500D01*
X87436665Y-94500500D01*
X87457171Y-94669372D01*
X87517493Y-94828430D01*
X87614126Y-94968427D01*
X87614127Y-94968428D01*
X87614128Y-94968429D01*
X87741459Y-95081234D01*
X87892086Y-95160290D01*
X88057255Y-95201000D01*
X88227366Y-95201000D01*
X88227367Y-95201000D01*
X88392536Y-95160290D01*
X88543163Y-95081234D01*
X88670494Y-94968429D01*
X88767129Y-94828430D01*
X88827451Y-94669372D01*
X88847956Y-94500500D01*
X88827451Y-94331628D01*
X88767129Y-94172570D01*
X88683007Y-94050699D01*
X88670495Y-94032572D01*
X88638309Y-94004058D01*
X88543163Y-93919766D01*
X88461505Y-93876908D01*
X88392535Y-93840709D01*
X88268075Y-93810033D01*
X88227367Y-93800000D01*
X88057255Y-93800000D01*
X88024595Y-93808049D01*
X87892086Y-93840709D01*
X87741460Y-93919765D01*
X87614126Y-94032572D01*
X87517493Y-94172569D01*
X87457171Y-94331627D01*
X87436665Y-94500500D01*
X82677679Y-94500500D01*
X82680352Y-94499097D01*
X82807683Y-94386292D01*
X82904318Y-94246293D01*
X82964640Y-94087235D01*
X82985145Y-93918363D01*
X82964640Y-93749491D01*
X82904318Y-93590433D01*
X82858807Y-93524499D01*
X98044354Y-93524499D01*
X98064860Y-93693372D01*
X98125182Y-93852430D01*
X98221815Y-93992427D01*
X98221816Y-93992428D01*
X98221817Y-93992429D01*
X98349148Y-94105234D01*
X98499775Y-94184290D01*
X98664944Y-94225000D01*
X98835055Y-94225000D01*
X98835056Y-94225000D01*
X99000225Y-94184290D01*
X99150852Y-94105234D01*
X99278183Y-93992429D01*
X99374818Y-93852430D01*
X99435140Y-93693372D01*
X99455645Y-93524500D01*
X99435140Y-93355628D01*
X99374818Y-93196570D01*
X99278183Y-93056571D01*
X99150852Y-92943766D01*
X99136588Y-92936280D01*
X99000224Y-92864709D01*
X98875765Y-92834033D01*
X98835056Y-92824000D01*
X98664944Y-92824000D01*
X98632284Y-92832049D01*
X98499775Y-92864709D01*
X98349149Y-92943765D01*
X98221815Y-93056572D01*
X98125182Y-93196569D01*
X98064860Y-93355627D01*
X98044354Y-93524499D01*
X82858807Y-93524499D01*
X82807683Y-93450434D01*
X82680352Y-93337629D01*
X82666088Y-93330143D01*
X82529724Y-93258572D01*
X82405265Y-93227896D01*
X82364556Y-93217863D01*
X82194444Y-93217863D01*
X82161784Y-93225912D01*
X82029275Y-93258572D01*
X81878649Y-93337628D01*
X81751315Y-93450435D01*
X81654682Y-93590432D01*
X81594360Y-93749490D01*
X81572040Y-93933310D01*
X81569262Y-93932972D01*
X81561841Y-93978654D01*
X81516087Y-94030302D01*
X81449811Y-94049500D01*
X81414944Y-94049500D01*
X81382284Y-94057549D01*
X81249775Y-94090209D01*
X81099149Y-94169265D01*
X80971815Y-94282072D01*
X80875182Y-94422069D01*
X80814860Y-94581127D01*
X80794354Y-94750000D01*
X77154562Y-94750000D01*
X77124818Y-94671570D01*
X77062389Y-94581127D01*
X77028184Y-94531572D01*
X76904581Y-94422070D01*
X76900852Y-94418766D01*
X76846977Y-94390490D01*
X76750224Y-94339709D01*
X76625764Y-94309033D01*
X76585056Y-94299000D01*
X76414944Y-94299000D01*
X76382284Y-94307049D01*
X76249775Y-94339709D01*
X76099149Y-94418765D01*
X75971815Y-94531572D01*
X75875182Y-94671569D01*
X75814860Y-94830627D01*
X75794354Y-94999499D01*
X73105734Y-94999499D01*
X73444834Y-94045780D01*
X78298932Y-94045780D01*
X78319438Y-94214653D01*
X78379760Y-94373711D01*
X78476393Y-94513708D01*
X78476394Y-94513709D01*
X78476395Y-94513710D01*
X78603726Y-94626515D01*
X78754353Y-94705571D01*
X78919522Y-94746281D01*
X79089633Y-94746281D01*
X79089634Y-94746281D01*
X79254803Y-94705571D01*
X79405430Y-94626515D01*
X79532761Y-94513710D01*
X79629396Y-94373711D01*
X79689718Y-94214653D01*
X79710223Y-94045781D01*
X79708343Y-94030302D01*
X79703745Y-93992429D01*
X79689718Y-93876909D01*
X79629396Y-93717851D01*
X79541445Y-93590433D01*
X79532762Y-93577853D01*
X79532761Y-93577852D01*
X79405430Y-93465047D01*
X79391166Y-93457561D01*
X79254802Y-93385990D01*
X79130343Y-93355314D01*
X79089634Y-93345281D01*
X78919522Y-93345281D01*
X78886862Y-93353330D01*
X78754353Y-93385990D01*
X78603727Y-93465046D01*
X78476393Y-93577853D01*
X78379760Y-93717850D01*
X78319438Y-93876908D01*
X78298932Y-94045780D01*
X73444834Y-94045780D01*
X74584707Y-90839885D01*
X82581299Y-90839885D01*
X82601805Y-91008757D01*
X82662127Y-91167815D01*
X82758760Y-91307812D01*
X82758761Y-91307813D01*
X82758762Y-91307814D01*
X82886093Y-91420619D01*
X83036720Y-91499675D01*
X83201889Y-91540385D01*
X83372000Y-91540385D01*
X83372001Y-91540385D01*
X83537170Y-91499675D01*
X83627994Y-91452006D01*
X83685617Y-91437803D01*
X83743243Y-91452006D01*
X83787668Y-91491363D01*
X83882191Y-91628303D01*
X83882192Y-91628304D01*
X83882193Y-91628305D01*
X84009524Y-91741110D01*
X84160151Y-91820166D01*
X84325320Y-91860876D01*
X84495431Y-91860876D01*
X84495432Y-91860876D01*
X84660601Y-91820166D01*
X84811228Y-91741110D01*
X84938559Y-91628305D01*
X84942963Y-91621923D01*
X84987387Y-91582566D01*
X85045014Y-91568362D01*
X85102636Y-91582564D01*
X85249775Y-91659790D01*
X85414944Y-91700500D01*
X85585055Y-91700500D01*
X85585056Y-91700500D01*
X85750225Y-91659790D01*
X85900852Y-91580734D01*
X86028183Y-91467929D01*
X86028683Y-91467203D01*
X86034046Y-91462733D01*
X86039453Y-91457944D01*
X86039597Y-91458106D01*
X86079838Y-91424565D01*
X86145678Y-91414542D01*
X86207207Y-91440026D01*
X86246678Y-91493667D01*
X86305181Y-91647929D01*
X86401815Y-91787927D01*
X86401816Y-91787928D01*
X86401817Y-91787929D01*
X86529148Y-91900734D01*
X86679775Y-91979790D01*
X86844944Y-92020500D01*
X87015055Y-92020500D01*
X87015056Y-92020500D01*
X87180225Y-91979790D01*
X87330852Y-91900734D01*
X87458183Y-91787929D01*
X87484364Y-91750000D01*
X89544354Y-91750000D01*
X89564860Y-91918872D01*
X89625182Y-92077930D01*
X89721815Y-92217927D01*
X89721816Y-92217928D01*
X89721817Y-92217929D01*
X89849148Y-92330734D01*
X89999775Y-92409790D01*
X90164944Y-92450500D01*
X90335055Y-92450500D01*
X90335056Y-92450500D01*
X90500225Y-92409790D01*
X90650852Y-92330734D01*
X90778183Y-92217929D01*
X90874818Y-92077930D01*
X90894702Y-92025500D01*
X96044354Y-92025500D01*
X96064860Y-92194372D01*
X96125182Y-92353430D01*
X96221815Y-92493427D01*
X96221816Y-92493428D01*
X96221817Y-92493429D01*
X96349148Y-92606234D01*
X96499775Y-92685290D01*
X96664944Y-92726000D01*
X96835055Y-92726000D01*
X96835056Y-92726000D01*
X97000225Y-92685290D01*
X97150852Y-92606234D01*
X97278183Y-92493429D01*
X97374818Y-92353430D01*
X97435140Y-92194372D01*
X97455645Y-92025500D01*
X97435140Y-91856628D01*
X97374818Y-91697570D01*
X97295436Y-91582566D01*
X97278184Y-91557572D01*
X97249521Y-91532179D01*
X97213198Y-91500000D01*
X102594571Y-91500000D01*
X102614243Y-91712310D01*
X102672595Y-91917390D01*
X102767631Y-92108252D01*
X102896126Y-92278405D01*
X102896128Y-92278407D01*
X103053698Y-92422052D01*
X103234981Y-92534298D01*
X103433802Y-92611321D01*
X103643390Y-92650500D01*
X103856608Y-92650500D01*
X103856610Y-92650500D01*
X104066198Y-92611321D01*
X104265019Y-92534298D01*
X104446302Y-92422052D01*
X104603872Y-92278407D01*
X104732366Y-92108255D01*
X104732366Y-92108253D01*
X104732368Y-92108252D01*
X104796333Y-91979790D01*
X104827405Y-91917389D01*
X104885756Y-91712310D01*
X104896529Y-91596047D01*
X104916633Y-91538996D01*
X104959410Y-91499999D01*
X105080589Y-91499999D01*
X105123367Y-91538996D01*
X105143471Y-91596048D01*
X105154243Y-91712310D01*
X105212595Y-91917390D01*
X105307631Y-92108252D01*
X105436126Y-92278405D01*
X105436128Y-92278407D01*
X105593698Y-92422052D01*
X105774981Y-92534298D01*
X105973802Y-92611321D01*
X106183390Y-92650500D01*
X106396608Y-92650500D01*
X106396610Y-92650500D01*
X106606198Y-92611321D01*
X106805019Y-92534298D01*
X106986302Y-92422052D01*
X107143872Y-92278407D01*
X107272366Y-92108255D01*
X107272366Y-92108253D01*
X107272368Y-92108252D01*
X107336333Y-91979790D01*
X107367405Y-91917389D01*
X107425756Y-91712310D01*
X107436529Y-91596047D01*
X107456633Y-91538996D01*
X107499410Y-91499999D01*
X107620589Y-91499999D01*
X107663367Y-91538996D01*
X107683471Y-91596048D01*
X107694243Y-91712310D01*
X107752595Y-91917390D01*
X107847631Y-92108252D01*
X107976126Y-92278405D01*
X107976128Y-92278407D01*
X108133698Y-92422052D01*
X108314981Y-92534298D01*
X108513802Y-92611321D01*
X108723390Y-92650500D01*
X108936608Y-92650500D01*
X108936610Y-92650500D01*
X109146198Y-92611321D01*
X109345019Y-92534298D01*
X109526302Y-92422052D01*
X109683872Y-92278407D01*
X109812366Y-92108255D01*
X109812366Y-92108253D01*
X109812368Y-92108252D01*
X109876333Y-91979790D01*
X109907405Y-91917389D01*
X109965756Y-91712310D01*
X109976529Y-91596047D01*
X109996633Y-91538996D01*
X110039410Y-91499999D01*
X110160589Y-91499999D01*
X110203367Y-91538996D01*
X110223471Y-91596048D01*
X110234243Y-91712310D01*
X110292595Y-91917390D01*
X110387631Y-92108252D01*
X110516126Y-92278405D01*
X110516128Y-92278407D01*
X110673698Y-92422052D01*
X110854981Y-92534298D01*
X111053802Y-92611321D01*
X111263390Y-92650500D01*
X111476608Y-92650500D01*
X111476610Y-92650500D01*
X111686198Y-92611321D01*
X111885019Y-92534298D01*
X112066302Y-92422052D01*
X112223872Y-92278407D01*
X112352366Y-92108255D01*
X112352366Y-92108253D01*
X112352368Y-92108252D01*
X112416333Y-91979790D01*
X112447405Y-91917389D01*
X112505756Y-91712310D01*
X112512029Y-91644605D01*
X112533200Y-91585971D01*
X112580228Y-91545047D01*
X112641226Y-91532179D01*
X112700777Y-91550620D01*
X112743829Y-91595708D01*
X112759500Y-91656047D01*
X112759500Y-92394867D01*
X112762414Y-92419988D01*
X112807795Y-92522767D01*
X112887232Y-92602204D01*
X112887233Y-92602204D01*
X112887235Y-92602206D01*
X112990009Y-92647585D01*
X113015135Y-92650500D01*
X114804864Y-92650499D01*
X114804867Y-92650499D01*
X114817427Y-92649042D01*
X114829991Y-92647585D01*
X114932765Y-92602206D01*
X115012206Y-92522765D01*
X115057585Y-92419991D01*
X115060500Y-92394865D01*
X115060499Y-90605136D01*
X115057585Y-90580009D01*
X115012206Y-90477235D01*
X115012204Y-90477233D01*
X115012204Y-90477232D01*
X114932767Y-90397795D01*
X114912121Y-90388679D01*
X114829991Y-90352415D01*
X114804865Y-90349500D01*
X114804863Y-90349500D01*
X113015132Y-90349500D01*
X112990011Y-90352414D01*
X112887232Y-90397795D01*
X112807795Y-90477232D01*
X112776436Y-90548254D01*
X112762415Y-90580009D01*
X112761023Y-90592012D01*
X112759500Y-90605136D01*
X112759500Y-91343950D01*
X112743829Y-91404289D01*
X112700777Y-91449377D01*
X112641226Y-91467818D01*
X112580228Y-91454950D01*
X112533200Y-91414026D01*
X112512029Y-91355390D01*
X112505756Y-91287689D01*
X112472061Y-91169266D01*
X112447405Y-91082611D01*
X112422874Y-91033346D01*
X112352368Y-90891747D01*
X112223873Y-90721594D01*
X112156538Y-90660210D01*
X112066302Y-90577948D01*
X112066301Y-90577947D01*
X111903645Y-90477235D01*
X111885019Y-90465702D01*
X111885017Y-90465701D01*
X111686198Y-90388679D01*
X111686197Y-90388678D01*
X111476610Y-90349500D01*
X111263390Y-90349500D01*
X111140587Y-90372456D01*
X111053801Y-90388679D01*
X110854982Y-90465701D01*
X110673698Y-90577947D01*
X110516126Y-90721594D01*
X110387631Y-90891747D01*
X110292595Y-91082609D01*
X110234243Y-91287689D01*
X110223471Y-91403951D01*
X110203367Y-91461003D01*
X110160589Y-91499999D01*
X110039410Y-91499999D01*
X109996633Y-91461003D01*
X109976529Y-91403951D01*
X109965756Y-91287689D01*
X109932061Y-91169266D01*
X109907405Y-91082611D01*
X109882874Y-91033346D01*
X109812368Y-90891747D01*
X109683873Y-90721594D01*
X109616538Y-90660210D01*
X109526302Y-90577948D01*
X109526301Y-90577947D01*
X109363645Y-90477235D01*
X109345019Y-90465702D01*
X109345017Y-90465701D01*
X109146198Y-90388679D01*
X109146197Y-90388678D01*
X108936610Y-90349500D01*
X108723390Y-90349500D01*
X108600587Y-90372456D01*
X108513801Y-90388679D01*
X108314982Y-90465701D01*
X108133698Y-90577947D01*
X107976126Y-90721594D01*
X107847631Y-90891747D01*
X107752595Y-91082609D01*
X107694243Y-91287689D01*
X107683471Y-91403951D01*
X107663367Y-91461003D01*
X107620589Y-91499999D01*
X107499410Y-91499999D01*
X107456633Y-91461003D01*
X107436529Y-91403951D01*
X107425756Y-91287689D01*
X107392061Y-91169266D01*
X107367405Y-91082611D01*
X107342874Y-91033346D01*
X107272368Y-90891747D01*
X107143873Y-90721594D01*
X107076538Y-90660210D01*
X106986302Y-90577948D01*
X106986301Y-90577947D01*
X106823645Y-90477235D01*
X106805019Y-90465702D01*
X106805017Y-90465701D01*
X106606198Y-90388679D01*
X106606197Y-90388678D01*
X106396610Y-90349500D01*
X106183390Y-90349500D01*
X106060587Y-90372456D01*
X105973801Y-90388679D01*
X105774982Y-90465701D01*
X105593698Y-90577947D01*
X105436126Y-90721594D01*
X105307631Y-90891747D01*
X105212595Y-91082609D01*
X105154243Y-91287689D01*
X105143471Y-91403951D01*
X105123367Y-91461003D01*
X105080589Y-91499999D01*
X104959410Y-91499999D01*
X104916633Y-91461003D01*
X104896529Y-91403951D01*
X104885756Y-91287689D01*
X104852061Y-91169266D01*
X104827405Y-91082611D01*
X104802874Y-91033346D01*
X104732368Y-90891747D01*
X104603873Y-90721594D01*
X104536538Y-90660210D01*
X104446302Y-90577948D01*
X104446301Y-90577947D01*
X104283645Y-90477235D01*
X104265019Y-90465702D01*
X104265017Y-90465701D01*
X104066198Y-90388679D01*
X104066197Y-90388678D01*
X103856610Y-90349500D01*
X103643390Y-90349500D01*
X103520587Y-90372456D01*
X103433801Y-90388679D01*
X103234982Y-90465701D01*
X103053698Y-90577947D01*
X102896126Y-90721594D01*
X102767631Y-90891747D01*
X102672595Y-91082609D01*
X102614243Y-91287689D01*
X102594571Y-91500000D01*
X97213198Y-91500000D01*
X97150852Y-91444766D01*
X97093266Y-91414542D01*
X97000224Y-91365709D01*
X96875764Y-91335033D01*
X96835056Y-91325000D01*
X96664944Y-91325000D01*
X96632284Y-91333049D01*
X96499775Y-91365709D01*
X96349149Y-91444765D01*
X96221815Y-91557572D01*
X96125182Y-91697569D01*
X96064860Y-91856627D01*
X96044354Y-92025500D01*
X90894702Y-92025500D01*
X90935140Y-91918872D01*
X90955645Y-91750000D01*
X90935140Y-91581128D01*
X90874818Y-91422070D01*
X90820895Y-91343950D01*
X90778184Y-91282072D01*
X90729840Y-91239243D01*
X90650852Y-91169266D01*
X90616293Y-91151128D01*
X90500224Y-91090209D01*
X90356295Y-91054735D01*
X90335056Y-91049500D01*
X90164944Y-91049500D01*
X90143705Y-91054735D01*
X89999775Y-91090209D01*
X89849149Y-91169265D01*
X89721815Y-91282072D01*
X89625182Y-91422069D01*
X89564860Y-91581127D01*
X89544354Y-91750000D01*
X87484364Y-91750000D01*
X87554818Y-91647930D01*
X87615140Y-91488872D01*
X87632367Y-91346994D01*
X87656935Y-91286654D01*
X87708703Y-91247096D01*
X87773380Y-91239243D01*
X87833110Y-91265262D01*
X87871405Y-91317971D01*
X87875181Y-91327929D01*
X87971815Y-91467927D01*
X87971816Y-91467928D01*
X87971817Y-91467929D01*
X88099148Y-91580734D01*
X88249775Y-91659790D01*
X88414944Y-91700500D01*
X88585055Y-91700500D01*
X88585056Y-91700500D01*
X88750225Y-91659790D01*
X88900852Y-91580734D01*
X89028183Y-91467929D01*
X89124818Y-91327930D01*
X89185140Y-91168872D01*
X89205645Y-91000000D01*
X89185140Y-90831128D01*
X89124818Y-90672070D01*
X89061274Y-90580011D01*
X89028184Y-90532072D01*
X89006041Y-90512455D01*
X88900852Y-90419266D01*
X88811664Y-90372456D01*
X88750224Y-90340209D01*
X88625765Y-90309533D01*
X88585056Y-90299500D01*
X88414944Y-90299500D01*
X88382284Y-90307549D01*
X88249775Y-90340209D01*
X88099149Y-90419265D01*
X87971815Y-90532072D01*
X87875182Y-90672069D01*
X87814860Y-90831127D01*
X87797632Y-90973005D01*
X87773063Y-91033346D01*
X87721294Y-91072903D01*
X87656617Y-91080755D01*
X87596887Y-91054735D01*
X87558593Y-91002025D01*
X87557825Y-91000000D01*
X87554818Y-90992070D01*
X87458688Y-90852802D01*
X87458184Y-90852072D01*
X87429128Y-90826331D01*
X87330852Y-90739266D01*
X87297179Y-90721593D01*
X87180224Y-90660209D01*
X87055764Y-90629533D01*
X87015056Y-90619500D01*
X86844944Y-90619500D01*
X86812701Y-90627447D01*
X86679775Y-90660209D01*
X86529149Y-90739265D01*
X86401814Y-90852073D01*
X86401312Y-90852802D01*
X86395927Y-90857289D01*
X86390547Y-90862056D01*
X86390402Y-90861893D01*
X86350153Y-90895437D01*
X86284315Y-90905457D01*
X86222789Y-90879971D01*
X86183321Y-90826331D01*
X86124818Y-90672071D01*
X86124818Y-90672070D01*
X86049157Y-90562457D01*
X86028184Y-90532072D01*
X86006041Y-90512455D01*
X85900852Y-90419266D01*
X85811664Y-90372456D01*
X85750224Y-90340209D01*
X85625765Y-90309533D01*
X85585056Y-90299500D01*
X85414944Y-90299500D01*
X85382284Y-90307549D01*
X85249775Y-90340209D01*
X85099146Y-90419267D01*
X84971816Y-90532070D01*
X84967409Y-90538455D01*
X84922984Y-90577810D01*
X84865359Y-90592012D01*
X84807735Y-90577808D01*
X84660603Y-90500586D01*
X84550488Y-90473446D01*
X84495432Y-90459876D01*
X84325320Y-90459876D01*
X84284027Y-90470053D01*
X84160148Y-90500586D01*
X84069328Y-90548253D01*
X84011702Y-90562457D01*
X83954077Y-90548254D01*
X83909652Y-90508897D01*
X83815129Y-90371957D01*
X83815128Y-90371956D01*
X83687797Y-90259151D01*
X83673533Y-90251665D01*
X83537169Y-90180094D01*
X83412710Y-90149418D01*
X83372001Y-90139385D01*
X83201889Y-90139385D01*
X83169229Y-90147434D01*
X83036720Y-90180094D01*
X82886094Y-90259150D01*
X82758760Y-90371957D01*
X82662127Y-90511954D01*
X82601805Y-90671012D01*
X82581299Y-90839885D01*
X74584707Y-90839885D01*
X74883333Y-90000000D01*
X92294354Y-90000000D01*
X92314860Y-90168872D01*
X92375182Y-90327930D01*
X92471815Y-90467927D01*
X92471816Y-90467928D01*
X92471817Y-90467929D01*
X92599148Y-90580734D01*
X92749775Y-90659790D01*
X92914944Y-90700500D01*
X93085055Y-90700500D01*
X93085056Y-90700500D01*
X93250225Y-90659790D01*
X93400852Y-90580734D01*
X93528183Y-90467929D01*
X93624818Y-90327930D01*
X93685140Y-90168872D01*
X93705645Y-90000000D01*
X93685140Y-89831128D01*
X93624818Y-89672070D01*
X93528183Y-89532071D01*
X93400852Y-89419266D01*
X93386588Y-89411779D01*
X93250224Y-89340209D01*
X93125764Y-89309533D01*
X93085056Y-89299500D01*
X92914944Y-89299500D01*
X92882284Y-89307549D01*
X92749775Y-89340209D01*
X92599149Y-89419265D01*
X92471815Y-89532072D01*
X92375182Y-89672069D01*
X92314860Y-89831127D01*
X92294354Y-90000000D01*
X74883333Y-90000000D01*
X75524906Y-88195576D01*
X81625991Y-88195576D01*
X81646497Y-88364448D01*
X81706819Y-88523506D01*
X81803452Y-88663503D01*
X81803453Y-88663504D01*
X81803454Y-88663505D01*
X81930785Y-88776310D01*
X82081412Y-88855366D01*
X82246581Y-88896076D01*
X82416692Y-88896076D01*
X82416693Y-88896076D01*
X82581862Y-88855366D01*
X82732489Y-88776310D01*
X82859820Y-88663505D01*
X82956455Y-88523506D01*
X83016777Y-88364448D01*
X83037282Y-88195576D01*
X83016777Y-88026704D01*
X83016005Y-88024670D01*
X83013009Y-87999999D01*
X89044354Y-87999999D01*
X89064860Y-88168872D01*
X89125182Y-88327930D01*
X89221815Y-88467927D01*
X89221816Y-88467928D01*
X89221817Y-88467929D01*
X89349148Y-88580734D01*
X89499775Y-88659790D01*
X89664944Y-88700500D01*
X89835055Y-88700500D01*
X89835056Y-88700500D01*
X90000225Y-88659790D01*
X90150852Y-88580734D01*
X90278183Y-88467929D01*
X90374818Y-88327930D01*
X90435140Y-88168872D01*
X90455645Y-88000000D01*
X90452404Y-87973309D01*
X90462424Y-87907472D01*
X90505060Y-87856313D01*
X90568014Y-87834589D01*
X90633124Y-87848566D01*
X90749775Y-87909790D01*
X90914944Y-87950500D01*
X91085055Y-87950500D01*
X91085056Y-87950500D01*
X91250225Y-87909790D01*
X91400852Y-87830734D01*
X91491982Y-87750000D01*
X109544354Y-87750000D01*
X109564860Y-87918872D01*
X109625182Y-88077930D01*
X109721815Y-88217927D01*
X109721816Y-88217928D01*
X109721817Y-88217929D01*
X109849148Y-88330734D01*
X109999775Y-88409790D01*
X110164944Y-88450500D01*
X110335055Y-88450500D01*
X110335056Y-88450500D01*
X110500225Y-88409790D01*
X110650852Y-88330734D01*
X110778183Y-88217929D01*
X110874818Y-88077930D01*
X110935140Y-87918872D01*
X110955645Y-87750000D01*
X110935140Y-87581128D01*
X110874818Y-87422070D01*
X110818313Y-87340209D01*
X110778184Y-87282072D01*
X110741981Y-87249999D01*
X110650852Y-87169266D01*
X110636588Y-87161779D01*
X110500224Y-87090209D01*
X110375765Y-87059533D01*
X110335056Y-87049500D01*
X110164944Y-87049500D01*
X110132284Y-87057549D01*
X109999775Y-87090209D01*
X109849149Y-87169265D01*
X109721815Y-87282072D01*
X109625182Y-87422069D01*
X109564860Y-87581127D01*
X109544354Y-87750000D01*
X91491982Y-87750000D01*
X91528183Y-87717929D01*
X91624818Y-87577930D01*
X91685140Y-87418872D01*
X91705645Y-87250000D01*
X91685140Y-87081128D01*
X91624818Y-86922070D01*
X91528183Y-86782071D01*
X91400852Y-86669266D01*
X91386588Y-86661780D01*
X91250224Y-86590209D01*
X91125764Y-86559533D01*
X91085056Y-86549500D01*
X90914944Y-86549500D01*
X90882284Y-86557549D01*
X90749775Y-86590209D01*
X90599149Y-86669265D01*
X90471815Y-86782072D01*
X90375182Y-86922069D01*
X90314860Y-87081127D01*
X90294354Y-87250001D01*
X90297595Y-87276691D01*
X90287574Y-87342528D01*
X90244938Y-87393687D01*
X90181985Y-87415410D01*
X90116873Y-87401432D01*
X90000226Y-87340210D01*
X89917640Y-87319855D01*
X89835056Y-87299500D01*
X89664944Y-87299500D01*
X89632284Y-87307549D01*
X89499775Y-87340209D01*
X89349149Y-87419265D01*
X89221815Y-87532072D01*
X89125182Y-87672069D01*
X89064860Y-87831127D01*
X89044354Y-87999999D01*
X83013009Y-87999999D01*
X83008850Y-87965754D01*
X83029895Y-87910259D01*
X83074318Y-87870902D01*
X83150852Y-87830734D01*
X83278183Y-87717929D01*
X83374818Y-87577930D01*
X83435140Y-87418872D01*
X83455645Y-87250000D01*
X83435140Y-87081128D01*
X83374818Y-86922070D01*
X83278183Y-86782071D01*
X83150852Y-86669266D01*
X83136588Y-86661780D01*
X83000224Y-86590209D01*
X82875764Y-86559533D01*
X82835056Y-86549500D01*
X82664944Y-86549500D01*
X82632284Y-86557549D01*
X82499775Y-86590209D01*
X82349149Y-86669265D01*
X82221815Y-86782072D01*
X82125182Y-86922069D01*
X82064860Y-87081127D01*
X82044354Y-87249999D01*
X82064859Y-87418870D01*
X82064860Y-87418872D01*
X82065632Y-87420908D01*
X82072786Y-87479823D01*
X82051741Y-87535317D01*
X82007317Y-87574674D01*
X81930786Y-87614841D01*
X81803452Y-87727648D01*
X81706819Y-87867645D01*
X81646497Y-88026703D01*
X81625991Y-88195576D01*
X75524906Y-88195576D01*
X75767160Y-87514236D01*
X75800321Y-87464268D01*
X75853061Y-87435704D01*
X75913037Y-87435234D01*
X75966218Y-87462968D01*
X75971815Y-87467927D01*
X75971817Y-87467929D01*
X76099148Y-87580734D01*
X76249775Y-87659790D01*
X76414944Y-87700500D01*
X76585055Y-87700500D01*
X76585056Y-87700500D01*
X76750225Y-87659790D01*
X76900852Y-87580734D01*
X77028183Y-87467929D01*
X77124818Y-87327930D01*
X77185140Y-87168872D01*
X77205645Y-87000000D01*
X77185140Y-86831128D01*
X77124818Y-86672070D01*
X77068313Y-86590209D01*
X77028184Y-86532072D01*
X77028183Y-86532071D01*
X76900852Y-86419266D01*
X76886588Y-86411779D01*
X76750224Y-86340209D01*
X76597978Y-86302685D01*
X76585056Y-86299500D01*
X76414944Y-86299500D01*
X76414942Y-86299500D01*
X76402019Y-86302685D01*
X76336072Y-86300864D01*
X76280393Y-86265479D01*
X76250742Y-86206546D01*
X76255510Y-86140751D01*
X76720681Y-84832458D01*
X76746900Y-84789355D01*
X76788120Y-84760264D01*
X76837516Y-84750000D01*
X83010795Y-84750000D01*
X83068421Y-84764203D01*
G37*
G04 #@! TD.AperFunction*
M02*
